<?xml version="1.0" encoding="UTF-8" standalone="no"?>
<!-- Created with Inkscape (http://www.inkscape.org/) -->

<svg
   width="100"
   height="100"
   viewBox="0 0 26.458332 26.458333"
   version="1.1"
   id="svg10512"
   inkscape:version="1.2.1 (9c6d41e410, 2022-07-14)"
   sodipodi:docname="asteroid-whole-6.svg"
   xmlns:inkscape="http://www.inkscape.org/namespaces/inkscape"
   xmlns:sodipodi="http://sodipodi.sourceforge.net/DTD/sodipodi-0.dtd"
   xmlns="http://www.w3.org/2000/svg"
   xmlns:svg="http://www.w3.org/2000/svg">
  <sodipodi:namedview
     id="namedview10514"
     pagecolor="#505050"
     bordercolor="#ffffff"
     borderopacity="1"
     inkscape:showpageshadow="0"
     inkscape:pageopacity="0"
     inkscape:pagecheckerboard="1"
     inkscape:deskcolor="#505050"
     inkscape:document-units="px"
     showgrid="false"
     inkscape:zoom="2.1089995"
     inkscape:cx="87.48224"
     inkscape:cy="116.16883"
     inkscape:window-width="1920"
     inkscape:window-height="1017"
     inkscape:window-x="-8"
     inkscape:window-y="-8"
     inkscape:window-maximized="1"
     inkscape:current-layer="layer1" />
  <defs
     id="defs10509" />
  <g
     inkscape:label="Warstwa 1"
     inkscape:groupmode="layer"
     id="layer1"
     transform="translate(-67.709795,-72.812261)">
    <path
       d="m 89.217233,96.050951 c -2.31482,2.411263 -5.070098,3.204862 -7.818946,2.889018 0.851982,-0.857727 0.371336,-2.669524 2.081729,-3.712926 2.374299,-1.452246 0.953259,-1.43358 1.792381,-2.578437 0.784464,-1.072116 2.761708,-0.06923 3.43204,-2.588489 0.843947,-3.181092 -0.572276,-3.108513 -1.025593,-3.540802 -0.572276,-0.550495 -0.249167,-1.553381 -0.639793,-2.242336 -0.705696,-1.23929 -3.073566,-0.673641 -2.091371,-3.869889 0.969331,-3.150466 0.562629,-4.627596 -0.02894,-5.638936 4.263123,1.993966 7.812517,5.295974 8.595373,7.374643 1.051315,2.79267 0.08841,9.340852 -4.296885,13.908154"
       style="fill:#7e5130;fill-opacity:1;fill-rule:nonzero;stroke:none;stroke-width:0.0160133"
       id="path5064" />
    <path
       d="m 88.704437,90.060117 c -0.670332,2.519256 -2.647576,1.516373 -3.43204,2.588489 -0.839122,1.144857 0.581918,1.126191 -1.792381,2.578437 -1.710393,1.043402 -1.229747,2.855199 -2.081729,3.712926 -1.864716,-0.214395 -3.72461,-0.940515 -5.441435,-2.017736 0.02572,-0.25826 0.02733,-0.580801 0.03376,-0.982626 0.03697,-2.350487 1.734508,-2.931292 2.388766,-4.089705 0.990229,-1.747512 -0.385803,-3.314452 0.591565,-5.083975 0.450104,-0.813856 -0.0209,-3.017429 0.59478,-4.526941 1.036847,-2.541748 2.957826,-2.463584 1.581794,-4.432028 -0.930751,-1.333564 -1.372817,-2.987759 -1.271544,-4.603668 1.708788,0.242466 3.425614,0.808752 5.042776,1.564864 0.591564,1.01134 0.998266,2.48847 0.02894,5.638936 -0.982195,3.196248 1.385675,2.630599 2.091371,3.869889 0.390626,0.688955 0.06752,1.691841 0.639793,2.242336 0.453317,0.432289 1.86954,0.35971 1.025593,3.540802"
       style="fill:#9e6f43;fill-opacity:1;fill-rule:nonzero;stroke:none;stroke-width:0.0160133"
       id="path5066" />
    <path
       d="m 79.565721,82.238986 c -0.615678,1.509512 -0.144676,3.713085 -0.59478,4.526941 -0.977369,1.769523 0.398663,3.336463 -0.591565,5.083975 -0.654258,1.158413 -2.351793,1.739218 -2.388766,4.089705 -0.0064,0.401825 -0.008,0.724366 -0.03376,0.982626 -3.282543,-2.061601 -6.034607,-5.414976 -7.275608,-8.950676 0.572275,0.06413 0.995051,-0.09634 1.427472,-0.06939 1.199206,0.07433 3.542961,2.968457 6.171246,-1.669827 0.429206,-0.758185 -0.223444,-1.796644 0.210585,-2.55483 0.332755,-0.577452 1.210457,-0.790089 1.334236,-1.445226 0.123779,-0.645088 -0.597995,-1.219032 -0.496722,-1.866671 0.176827,-1.138954 0.678371,0.03829 0.05626,-2.238028 -0.577097,-2.108819 1.695928,-2.40233 1.670208,-5.013628 0.273277,0.02074 0.546554,0.05105 0.821439,0.08933 -0.101273,1.615909 0.340793,3.270104 1.271543,4.603668 1.376032,1.968444 -0.544946,1.89028 -1.581793,4.432028"
       style="fill:#bf9460;fill-opacity:1;fill-rule:nonzero;stroke:none;stroke-width:0.0160133"
       id="path5068" />
    <path
       d="m 77.824783,82.232287 c -0.123778,0.655137 -1.001481,0.867774 -1.334236,1.445226 -0.434029,0.758186 0.218622,1.796645 -0.210584,2.55483 -2.628286,4.638284 -4.972041,1.74416 -6.171247,1.669827 -0.432421,-0.02695 -0.855197,0.133514 -1.427472,0.06939 -0.786074,-2.238981 -0.964508,-4.552302 -0.29096,-6.658409 2.109058,-6.583278 6.295025,-8.540555 10.664248,-8.199188 0.02572,2.611298 -2.247305,2.904809 -1.670207,5.013628 0.622107,2.276312 0.120563,1.099074 -0.05626,2.238028 -0.101274,0.647639 0.6205,1.221583 0.496721,1.866671"
       style="fill:#d3ae7e;fill-opacity:1;fill-rule:nonzero;stroke:none;stroke-width:0.0160133"
       id="path5070" />
    <path
       d="m 83.097428,91.36465 c 2.758495,-0.375983 4.067011,-5.886666 0.327934,-6.560307 4.176323,-0.223962 3.41436,7.417233 -0.327934,6.560307"
       style="fill:#824a29;fill-opacity:1;fill-rule:nonzero;stroke:none;stroke-width:0.0160133"
       id="path5072" />
    <path
       d="m 81.258433,88.911913 c -0.0048,-0.05519 -0.01125,-0.104963 -0.01125,-0.159997 -0.0434,-0.858681 0.188079,-1.710343 0.544947,-2.473474 0.268454,-0.576175 0.63979,-1.141346 1.184736,-1.36467 0.139855,-0.06189 0.290961,-0.09284 0.442067,-0.10911 l 0.0064,-3.19e-4 c 0.728202,0.130964 1.422648,0.52545 1.871144,1.181383 0.435637,0.629297 0.58996,1.507918 0.374554,2.257493 -0.01444,0.129846 -0.04019,0.262085 -0.06591,0.388102 -0.220232,0.984543 -0.770001,1.901449 -1.562504,2.396269 -0.290961,0.174992 -0.615678,0.292078 -0.945221,0.33754 l -0.0048,-0.0014 c -0.114132,-0.02727 -0.228265,-0.06269 -0.337576,-0.107514 -0.172004,-0.07034 -0.334363,-0.165577 -0.487077,-0.286493 -0.58835,-0.468661 -0.930751,-1.252529 -1.009519,-2.057771"
       style="fill:#986339;fill-opacity:1;fill-rule:nonzero;stroke:none;stroke-width:0.0160133"
       id="path5074" />
    <path
       d="m 80.856555,88.814447 c -0.0048,-0.05519 -0.01125,-0.106397 -0.01125,-0.160156 -0.04501,-0.85868 0.188079,-1.710343 0.54334,-2.473474 0.268455,-0.576175 0.641398,-1.141345 1.186345,-1.36467 0.14146,-0.06237 0.294174,-0.09395 0.448501,-0.109428 0.133421,0.02425 0.265238,0.05663 0.395443,0.09794 -0.151102,0.01627 -0.302207,0.04722 -0.442067,0.10911 -0.544945,0.223324 -0.916281,0.788495 -1.184736,1.36467 -0.356868,0.763131 -0.58835,1.614793 -0.544947,2.473474 0,0.05503 0.0064,0.104805 0.01125,0.159997 0.07877,0.805242 0.421168,1.58911 1.009519,2.057771 0.152713,0.120917 0.315072,0.216149 0.487077,0.286494 -0.01928,0.0046 -0.04019,0.0069 -0.05948,0.01004 l -0.0048,-1.62e-4 c -0.295784,-0.06859 -0.577099,-0.195886 -0.824656,-0.394007 -0.58835,-0.468661 -0.932358,-1.252529 -1.009519,-2.057613"
       style="fill:#af885a;fill-opacity:1;fill-rule:nonzero;stroke:none;stroke-width:0.0160133"
       id="path5076" />
    <path
       d="m 81.258433,88.911913 c -0.0048,-0.05519 -0.01125,-0.104963 -0.01125,-0.159997 -0.0434,-0.858681 0.188079,-1.710343 0.544947,-2.473474 0.268454,-0.576175 0.63979,-1.141346 1.184736,-1.36467 0.139855,-0.06189 0.290961,-0.09284 0.442067,-0.10911 0.578705,0.186955 1.109186,0.548261 1.474089,1.08344 0.437246,0.629138 0.591564,1.50808 0.374549,2.257492 -0.01444,0.129847 -0.0386,0.262085 -0.06591,0.388102 -0.220227,0.984543 -0.768388,1.90145 -1.560895,2.394836 -0.273276,0.165419 -0.575488,0.278834 -0.885738,0.327646 -0.172004,-0.07035 -0.334362,-0.165577 -0.487076,-0.286494 -0.58835,-0.468661 -0.930751,-1.252529 -1.009519,-2.057771"
       style="fill:#a97c4f;fill-opacity:1;fill-rule:nonzero;stroke:none;stroke-width:0.0160133"
       id="path5078" />
    <path
       d="m 71.938067,82.20469 c -1.268328,-0.449998 -2.282669,2.936873 -1.244216,4.163084 -1.935446,-0.755318 -0.377765,-5.970255 1.244216,-4.163084"
       style="fill:#ad7748;fill-opacity:1;fill-rule:nonzero;stroke:none;stroke-width:0.0160133"
       id="path5080" />
    <path
       d="m 71.698548,86.40558 c -0.337578,0.07768 -0.620501,0.07641 -0.86002,0.01054 -0.04983,-0.01307 -0.09806,-0.0303 -0.144677,-0.04865 -1.038453,-1.22605 -0.02411,-4.61324 1.244216,-4.162922 0.06109,0.06716 0.120564,0.143565 0.181649,0.231778 0.08681,0.125062 0.175219,0.271339 0.262025,0.443777 0.667119,1.323515 0.23309,3.316205 -0.683193,3.525494"
       style="fill:#cb9e69;fill-opacity:1;fill-rule:nonzero;stroke:none;stroke-width:0.0160133"
       id="path5082" />
    <path
       d="m 71.991115,86.66639 c -0.408308,0.0922 -0.736241,0.07115 -1.004696,-0.0383 -0.05466,-0.06444 -0.104488,-0.13559 -0.147891,-0.211998 0.239519,0.06588 0.522442,0.06716 0.86002,-0.01054 0.916283,-0.209289 1.350312,-2.201979 0.683193,-3.525493 -0.08681,-0.172439 -0.175219,-0.318716 -0.262025,-0.443777 0.03697,0.0053 0.07395,0.01579 0.110919,0.02903 0.147891,0.163186 0.29739,0.38316 0.443674,0.674279 0.667118,1.324791 0.233089,3.31732 -0.683194,3.526767"
       style="fill:#dcbe93;fill-opacity:1;fill-rule:nonzero;stroke:none;stroke-width:0.0160133"
       id="path5084" />
    <path
       d="m 71.698548,86.40558 c -0.337578,0.07768 -0.620501,0.07641 -0.86002,0.01054 -0.758747,-1.318252 0.131816,-4.191796 1.281188,-3.979798 0.08681,0.125062 0.175219,0.271339 0.262025,0.443777 0.667119,1.323515 0.23309,3.316205 -0.683193,3.525494"
       style="fill:#d4ae82;fill-opacity:1;fill-rule:nonzero;stroke:none;stroke-width:0.0160133"
       id="path5086" />
    <path
       d="m 89.927755,82.34682 c 0.0064,-0.165579 0.434029,-1.414918 0.390626,-1.601553 -0.350435,-2.311406 -2.411272,-2.448591 -2.716696,-1.560079 0.07394,-1.74831 2.731164,-1.333565 3.107322,1.150119 0.09645,0.802372 -0.276494,1.923141 -0.781252,2.011513"
       style="fill:#69381f;fill-opacity:1;fill-rule:nonzero;stroke:none;stroke-width:0.0160133"
       id="path5088" />
    <path
       d="m 88.112873,81.110561 c -0.263635,-0.539168 -0.413132,-1.004959 -0.477432,-1.397371 -0.02092,-0.119638 -0.03217,-0.229705 -0.03696,-0.333391 -0.0032,-0.06381 -0.0032,-0.126019 0,-0.186635 l 0.0032,-0.008 c 0.803757,-1.784998 3.677989,0.585428 2.689369,2.753907 -0.384196,0.84576 -1.469268,0.641738 -2.178182,-0.828533"
       style="fill:#7a492a;fill-opacity:1;fill-rule:nonzero;stroke:none;stroke-width:0.0160133"
       id="path5090" />
    <path
       d="m 88.032496,81.523552 c -0.263629,-0.53901 -0.41474,-1.006395 -0.47904,-1.398808 -0.03212,-0.193015 -0.04342,-0.363699 -0.03536,-0.518431 l 0.0018,-0.008 c 0.02092,-0.07976 0.04662,-0.151542 0.07877,-0.218539 0.0048,0.103686 0.01609,0.213753 0.03695,0.333391 0.0643,0.392413 0.213798,0.858203 0.477432,1.397372 0.708914,1.470271 1.806845,1.268481 2.178182,0.416499 0.0048,0.05424 0.0048,0.107993 0.0032,0.159837 -0.247559,1.053133 -1.488562,1.441877 -2.261776,-0.163346"
       style="fill:#936b46;fill-opacity:1;fill-rule:nonzero;stroke:none;stroke-width:0.0160133"
       id="path5092" />
    <path
       d="m 88.112873,81.110561 c -0.263635,-0.539168 -0.413132,-1.004959 -0.477432,-1.397371 -0.02092,-0.119638 -0.03217,-0.229705 -0.03696,-0.333391 0.499937,-1.043243 2.30839,-0.397198 2.639537,1.777022 0.02894,0.127614 0.04823,0.250442 0.05305,0.37024 -0.371338,0.851982 -1.469269,1.053771 -2.178182,-0.4165"
       style="fill:#8f633f;fill-opacity:1;fill-rule:nonzero;stroke:none;stroke-width:0.0160133"
       id="path5094" />
    <path
       d="m 75.821821,75.485982 c -0.183257,-0.04785 -0.487077,0.06381 -0.937181,0.457815 -0.517619,0.451433 -0.647828,0.947532 -0.448496,1.142143 -0.353653,-0.102091 -0.442066,-0.74335 0.159144,-1.268162 0.573882,-0.499289 1.075427,-0.488123 1.226533,-0.331796"
       style="fill:#ad7748;fill-opacity:1;fill-rule:nonzero;stroke:none;stroke-width:0.0160133"
       id="path5096" />
    <path
       d="m 75.513179,76.632911 c -0.372944,0.299893 -0.670334,0.437077 -0.885741,0.464195 -0.07234,0.008 -0.136638,0.0032 -0.191294,-0.01276 -0.199332,-0.193016 -0.06912,-0.689115 0.448496,-1.140549 0.450104,-0.394007 0.755532,-0.505669 0.937181,-0.457814 l 0.0032,0.0016 c 0.02411,0.02712 0.04501,0.05743 0.05948,0.09412 0.115741,0.27118 -0.04179,0.78642 -0.371335,1.051219"
       style="fill:#cb9e69;fill-opacity:1;fill-rule:nonzero;stroke:none;stroke-width:0.0160133"
       id="path5098" />
    <path
       d="m 75.760735,76.727026 c -0.498329,0.400389 -0.864842,0.513646 -1.075426,0.451434 -0.02412,-0.02233 -0.0434,-0.05105 -0.05787,-0.08135 0.215407,-0.02712 0.512797,-0.164302 0.885741,-0.464195 0.32954,-0.264798 0.487076,-0.780039 0.371335,-1.051219 0.07234,-0.01595 0.133424,-0.01595 0.184864,-0.0016 l 0.0032,0.0016 c 0.213799,0.223324 0.05948,0.845442 -0.311858,1.145334"
       style="fill:#dcbe93;fill-opacity:1;fill-rule:nonzero;stroke:none;stroke-width:0.0160133"
       id="path5100" />
    <path
       d="m 75.513179,76.632911 c -0.372944,0.299893 -0.670334,0.437077 -0.885741,0.464195 -0.106096,-0.229705 0.04983,-0.663591 0.504759,-1.059194 0.323111,-0.283941 0.570668,-0.419531 0.752317,-0.45622 0.115741,0.27118 -0.04179,0.786421 -0.371335,1.051219"
       style="fill:#d4ae82;fill-opacity:1;fill-rule:nonzero;stroke:none;stroke-width:0.0160133"
       id="path5102" />
    <path
       d="m 74.592073,92.856936 c -0.493507,0.516836 -1.72004,-0.08088 -1.638057,-1.260826 0.0016,-0.397516 0.170396,-0.668378 0.403486,-0.799658 -0.154321,0.150104 -0.253987,0.382042 -0.255594,0.688793 -0.07395,1.075783 0.93718,1.667594 1.490165,1.371691"
       style="fill:#9b6439;fill-opacity:1;fill-rule:nonzero;stroke:none;stroke-width:0.0160133"
       id="path5104" />
    <path
       d="m 74.646728,91.489392 c 0.110919,0.328446 0.154322,0.599945 0.144676,0.818323 -0.0064,0.178822 -0.04501,0.321587 -0.110918,0.431497 -0.02572,0.04468 -0.05626,0.08295 -0.09002,0.117403 -0.551377,0.29702 -1.562503,-0.294786 -1.488557,-1.37137 0.0016,-0.307546 0.101273,-0.53821 0.253987,-0.688793 0.04501,-0.02505 0.09002,-0.04373 0.135031,-0.06014 0.408308,-0.129846 0.933965,0.105601 1.155802,0.75308"
       style="fill:#b78551;fill-opacity:1;fill-rule:nonzero;stroke:none;stroke-width:0.0160133"
       id="path5106" />
    <path
       d="m 74.87178,91.319668 c 0.112526,0.327646 0.155929,0.600741 0.146284,0.819119 -0.008,0.249325 -0.08359,0.428942 -0.199332,0.549058 -0.0434,0.02347 -0.09002,0.04133 -0.138246,0.05137 0.06591,-0.10991 0.104488,-0.252675 0.110918,-0.431497 0.0096,-0.218378 -0.03376,-0.489877 -0.144676,-0.818323 -0.221837,-0.647479 -0.747494,-0.882926 -1.155802,-0.75308 0.02733,-0.03988 0.05948,-0.07577 0.09324,-0.10863 0.416346,-0.239915 1.043276,-0.02858 1.287618,0.691986"
       style="fill:#caa77a;fill-opacity:1;fill-rule:nonzero;stroke:none;stroke-width:0.0160133"
       id="path5108" />
    <path
       d="m 74.646728,91.489392 c 0.110919,0.328446 0.154322,0.599945 0.144676,0.818323 -0.0064,0.178822 -0.04501,0.321587 -0.110918,0.431497 -0.565845,0.147712 -1.421042,-0.431813 -1.351919,-1.422736 0.0016,-0.241191 0.0643,-0.434206 0.162359,-0.580164 0.408308,-0.129846 0.933965,0.105601 1.155802,0.75308"
       style="fill:#c59a69;fill-opacity:1;fill-rule:nonzero;stroke:none;stroke-width:0.0160133"
       id="path5110" />
    <path
       d="m 91.228233,88.912071 c 0.416348,0.376943 1.128475,0.127613 1.387288,-0.652741 0.19933,-0.600583 0.09163,-1.146612 -0.147893,-1.497549 0.335972,0.321745 0.670331,0.944182 0.434028,1.660097 -0.292565,0.88213 -1.302086,1.098116 -1.673423,0.490193"
       style="fill:#69381f;fill-opacity:1;fill-rule:nonzero;stroke:none;stroke-width:0.0160133"
       id="path5112" />
    <path
       d="m 91.078736,87.883663 c 0.01768,-0.148508 0.04342,-0.286489 0.07395,-0.403259 0.146285,-0.570911 0.405094,-0.853733 0.675158,-0.924241 0.221835,-0.05982 0.451708,0.02247 0.639788,0.204501 0.23952,0.351733 0.347223,0.898878 0.147893,1.497707 -0.258813,0.781313 -0.972548,1.030959 -1.387288,0.654022 -0.139851,-0.226676 -0.207368,-0.56597 -0.149497,-1.02873"
       style="fill:#7a492a;fill-opacity:1;fill-rule:nonzero;stroke:none;stroke-width:0.0160133"
       id="path5114" />
    <path
       d="m 90.789383,87.884305 c 0.01768,-0.148512 0.04179,-0.286494 0.07395,-0.403263 0.200938,-0.772699 0.60121,-1.017561 0.96451,-0.924879 -0.270064,0.07051 -0.528873,0.35333 -0.675158,0.924241 -0.03053,0.11677 -0.05626,0.254751 -0.07395,0.403259 -0.05787,0.46276 0.0097,0.802054 0.149497,1.02873 -0.143068,-0.07386 -0.266847,-0.217904 -0.353653,-0.40023 -0.07555,-0.154734 -0.12217,-0.34344 -0.0852,-0.627858"
       style="fill:#936b46;fill-opacity:1;fill-rule:nonzero;stroke:none;stroke-width:0.0160133"
       id="path5116" />
    <path
       d="m 91.078736,87.883663 c 0.01768,-0.148508 0.04342,-0.286489 0.07395,-0.403259 0.146285,-0.570911 0.405094,-0.853733 0.675158,-0.924241 0.123774,0.03161 0.244341,0.103526 0.350435,0.205138 0.23952,0.351734 0.347223,0.898879 0.146285,1.49755 -0.208976,0.634876 -0.657473,0.830925 -1.043278,0.678904 -0.01768,-0.0062 -0.03536,-0.0147 -0.05305,-0.02537 -0.139851,-0.226675 -0.207368,-0.565969 -0.149497,-1.02873"
       style="fill:#8f633f;fill-opacity:1;fill-rule:nonzero;stroke:none;stroke-width:0.0160133"
       id="path5118" />
    <path
       d="m 87.874961,89.654308 c -0.279706,1.051853 -1.199204,0.714798 -1.04006,-0.07162 0.226656,-1.136881 1.173481,-0.427346 1.04006,0.07162"
       style="fill:#b0895b;fill-opacity:1;fill-rule:nonzero;stroke:none;stroke-width:0.0160133"
       id="path5120" />
    <path
       d="m 85.966843,90.747798 c 0.469394,-0.426709 0.811791,0.02378 0.48547,0.358755 -0.471002,0.484293 -0.708914,-0.156488 -0.48547,-0.358755"
       style="fill:#b0895b;fill-opacity:1;fill-rule:nonzero;stroke:none;stroke-width:0.0160133"
       id="path5122" />
    <path
       d="m 84.698513,91.694213 c 0.326326,-0.297499 0.565846,0.01659 0.339185,0.250126 -0.329538,0.337697 -0.495112,-0.108952 -0.339185,-0.250126"
       style="fill:#b0895b;fill-opacity:1;fill-rule:nonzero;stroke:none;stroke-width:0.0160133"
       id="path5124" />
    <path
       d="m 87.27375,87.444194 c 0.442067,-0.423041 0.86002,0.129209 0.559417,0.466749 -0.434029,0.488122 -0.768393,-0.266074 -0.559417,-0.466749"
       style="fill:#b0895b;fill-opacity:1;fill-rule:nonzero;stroke:none;stroke-width:0.0160133"
       id="path5126" />
    <path
       d="m 85.717676,84.532526 c -0.417952,0.04817 -0.419561,-0.392094 -0.112524,-0.449998 0.442067,-0.08359 0.311859,0.427027 0.112524,0.449998"
       style="fill:#b0895b;fill-opacity:1;fill-rule:nonzero;stroke:none;stroke-width:0.0160133"
       id="path5128" />
    <path
       d="m 75.445663,90.612846 c 0.392233,-0.265436 0.625323,0.174354 0.34883,0.390978 -0.398663,0.312973 -0.536909,-0.26512 -0.34883,-0.390978"
       style="fill:#cba87b;fill-opacity:1;fill-rule:nonzero;stroke:none;stroke-width:0.0160133"
       id="path5130" />
    <path
       d="m 75.624097,91.349656 c 0.242735,-0.164144 0.387411,0.107993 0.217014,0.241986 -0.247557,0.193658 -0.332755,-0.164139 -0.217014,-0.241986"
       style="fill:#cba87b;fill-opacity:1;fill-rule:nonzero;stroke:none;stroke-width:0.0160133"
       id="path5132" />
    <path
       d="m 75.804138,77.787816 c 0.372944,-0.357318 0.728204,0.110067 0.474217,0.395603 -0.368121,0.41315 -0.651043,-0.224919 -0.474217,-0.395603"
       style="fill:#dcbe93;fill-opacity:1;fill-rule:nonzero;stroke:none;stroke-width:0.0160133"
       id="path5134" />
    <path
       d="m 75.172386,84.952694 c 0.63336,-0.426709 1.006303,0.280432 0.562629,0.628657 -0.641398,0.503438 -0.863235,-0.426229 -0.562629,-0.628657"
       style="fill:#dcbe93;fill-opacity:1;fill-rule:nonzero;stroke:none;stroke-width:0.0160133"
       id="path5136" />
    <path
       d="m 76.60468,77.210364 c 0.196117,-0.130804 0.311858,0.08773 0.173612,0.194611 -0.197724,0.156327 -0.266847,-0.130804 -0.173612,-0.194611"
       style="fill:#dcbe93;fill-opacity:1;fill-rule:nonzero;stroke:none;stroke-width:0.0160133"
       id="path5138" />
    <path
       d="m 76.712384,76.361732 c 0.257202,-0.173874 0.408309,0.113257 0.228267,0.255227 -0.260418,0.204183 -0.350438,-0.173874 -0.228267,-0.255227"
       style="fill:#dcbe93;fill-opacity:1;fill-rule:nonzero;stroke:none;stroke-width:0.0160133"
       id="path5140" />
    <path
       d="m 73.942637,86.52027 c 0.401879,-0.270858 0.639791,0.178021 0.356868,0.399112 -0.406701,0.319516 -0.548162,-0.270541 -0.356868,-0.399112"
       style="fill:#dcbe93;fill-opacity:1;fill-rule:nonzero;stroke:none;stroke-width:0.0160133"
       id="path5142" />
    <path
       d="m 88.847509,94.314762 c 0.242732,-0.16414 0.387409,0.107993 0.217014,0.24199 -0.247558,0.193653 -0.332755,-0.164144 -0.217014,-0.24199"
       style="fill:#946d48;fill-opacity:1;fill-rule:nonzero;stroke:none;stroke-width:0.0160133"
       id="path5144" />
    <path
       d="m 92.482095,85.8034 c 0.482253,-0.324458 0.766784,0.213115 0.429208,0.477913 -0.488687,0.382685 -0.657473,-0.324137 -0.429208,-0.477913"
       style="fill:#946d48;fill-opacity:1;fill-rule:nonzero;stroke:none;stroke-width:0.0160133"
       id="path5146" />
    <path
       d="m 92.94988,86.636876 c 0.233091,-0.156963 0.369729,0.103209 0.205764,0.231301 -0.234699,0.185202 -0.316679,-0.156805 -0.205764,-0.231301"
       style="fill:#946d48;fill-opacity:1;fill-rule:nonzero;stroke:none;stroke-width:0.0160133"
       id="path5148" />
    <path
       d="m 85.00555,96.498875 c 0.244341,-0.164144 0.387409,0.107993 0.217015,0.241986 -0.24595,0.193653 -0.332756,-0.164144 -0.217015,-0.241986"
       style="fill:#946d48;fill-opacity:1;fill-rule:nonzero;stroke:none;stroke-width:0.0160133"
       id="path5150" />
    <path
       d="m 85.569788,97.504313 c 0.401876,-0.270862 0.638179,0.178021 0.356865,0.39895 -0.408306,0.319674 -0.548162,-0.270541 -0.356865,-0.39895"
       style="fill:#946d48;fill-opacity:1;fill-rule:nonzero;stroke:none;stroke-width:0.0160133"
       id="path5152" />
    <path
       d="m 87.339659,96.135652 c -0.279706,1.052017 -1.199204,0.714798 -1.041669,-0.07162 0.228265,-1.136881 1.173486,-0.427351 1.041669,0.07162"
       style="fill:#946d48;fill-opacity:1;fill-rule:nonzero;stroke:none;stroke-width:0.0160133"
       id="path5154" />
  </g>
</svg>
