<?xml version="1.0" encoding="UTF-8" standalone="no"?>
<!-- Created with Inkscape (http://www.inkscape.org/) -->

<svg
   width="20"
   height="20"
   viewBox="0 0 20 20"
   version="1.1"
   id="svg3624"
   inkscape:version="1.2.1 (9c6d41e410, 2022-07-14)"
   sodipodi:docname="asteroid_bit7.svg"
   xmlns:inkscape="http://www.inkscape.org/namespaces/inkscape"
   xmlns:sodipodi="http://sodipodi.sourceforge.net/DTD/sodipodi-0.dtd"
   xmlns="http://www.w3.org/2000/svg"
   xmlns:svg="http://www.w3.org/2000/svg">
  <sodipodi:namedview
     id="namedview3626"
     pagecolor="#505050"
     bordercolor="#ffffff"
     borderopacity="1"
     inkscape:showpageshadow="0"
     inkscape:pageopacity="0"
     inkscape:pagecheckerboard="1"
     inkscape:deskcolor="#505050"
     inkscape:document-units="mm"
     showgrid="false"
     inkscape:zoom="11.930303"
     inkscape:cx="31.893574"
     inkscape:cy="23.385827"
     inkscape:window-width="1920"
     inkscape:window-height="1017"
     inkscape:window-x="-8"
     inkscape:window-y="-8"
     inkscape:window-maximized="1"
     inkscape:current-layer="layer1" />
  <defs
     id="defs3621" />
  <g
     inkscape:label="Warstwa 1"
     inkscape:groupmode="layer"
     id="layer1">
    <path
       id="path3864"
       style="fill:#7e5130;fill-opacity:1;fill-rule:nonzero;stroke:none;stroke-width:0.0352778"
       d="m 18.955799,10.117841 c -0.0755,0.560919 -0.39864,1.051279 -0.75354,1.488729 -1.46332,1.82033 -3.55847,3.0868 -5.80742,3.71475 -1.27459,0.3563 -2.7061601,0.57855 -4.1377301,0.57855 -1.93781,0 -3.8728,-0.40569 -5.414791,-1.43933 0.599369,-0.28222 1.137708,-0.68792 1.739901,-0.95956 0.88759,-0.39864 1.87678,-0.49741 2.80211,-0.79727 0.92816,-0.29634 1.85914,-0.88195 2.12972,-1.81681 0.1457,-0.50447 0.0903,-1.0724395 0.36654,-1.5169395 0.3580701,-0.56798 1.1059601,-0.70556 1.7635301,-0.85725 1.14336,-0.26106 2.95311,-0.77612 3.79695,-1.81328 0.69533,0.26811 1.40265,0.508 2.03659,0.89605 0.87877,0.54328 1.61784,1.50284 1.47814,2.5223605" />
    <path
       id="path3866"
       style="fill:#9e6f43;fill-opacity:1;fill-rule:nonzero;stroke:none;stroke-width:0.0352778"
       d="m 15.441069,6.6994305 c -0.84384,1.03716 -2.65359,1.55222 -3.79695,1.81328 -0.65757,0.15169 -1.40546,0.28927 -1.7635301,0.85725 -0.27623,0.4445 -0.22084,1.0124695 -0.36654,1.5169395 -0.27058,0.93486 -1.20156,1.52047 -2.12972,1.81681 -0.92533,0.29986 -1.91452,0.39863 -2.80211,0.79727 -0.602193,0.27164 -1.140532,0.67734 -1.739901,0.95956 C 2.7375429,14.38994 2.6355899,14.3159 2.5339899,14.24182 1.666862,13.58918 0.96553996,12.63315 0.86958396,11.54659 0.77645396,10.46004 1.308793,9.3911205 2.0595039,8.5938405 c 0.750711,-0.79375 1.70815,-1.35819 2.650775,-1.91558 0.74506,-0.43392 1.48696,-0.87136 2.23167,-1.30881 0.83502,-0.49388 1.71097,-0.99836 2.6797,-1.06538 1.8333901,-0.13406 3.3549201,1.28411 5.0193201,2.06375 0.26176,0.12347 0.52952,0.2293 0.8001,0.33161" />
  </g>
</svg>
