<?xml version="1.0" encoding="UTF-8" standalone="no"?>
<!-- Created with Inkscape (http://www.inkscape.org/) -->

<svg
   width="100"
   height="100"
   viewBox="0 0 100 100"
   version="1.1"
   id="svg4364"
   inkscape:version="1.2.1 (9c6d41e410, 2022-07-14)"
   sodipodi:docname="asteroid1.svg"
   xmlns:inkscape="http://www.inkscape.org/namespaces/inkscape"
   xmlns:sodipodi="http://sodipodi.sourceforge.net/DTD/sodipodi-0.dtd"
   xmlns="http://www.w3.org/2000/svg"
   xmlns:svg="http://www.w3.org/2000/svg">
  <sodipodi:namedview
     id="namedview4366"
     pagecolor="#505050"
     bordercolor="#ffffff"
     borderopacity="1"
     inkscape:showpageshadow="0"
     inkscape:pageopacity="0"
     inkscape:pagecheckerboard="1"
     inkscape:deskcolor="#505050"
     inkscape:document-units="mm"
     showgrid="false"
     inkscape:zoom="2.9825758"
     inkscape:cx="111.14554"
     inkscape:cy="125.73025"
     inkscape:window-width="1920"
     inkscape:window-height="1017"
     inkscape:window-x="-8"
     inkscape:window-y="-8"
     inkscape:window-maximized="1"
     inkscape:current-layer="layer1" />
  <defs
     id="defs4361">
    <clipPath
       id="clipPath824"
       clipPathUnits="userSpaceOnUse">
      <path
         id="path822"
         d="m 2291.85,10216.4 c -4.48,0.9 -8.86,1.7 -13.35,2.4 h -0.08 c -1.29,1.7 -2.05,3.8 -2.05,6.1 0,5.5 4.52,10.1 10.07,10.1 5.55,0 10.07,-4.6 10.07,-10.1 0,-3.6 -1.86,-6.7 -4.66,-8.5" />
    </clipPath>
    <radialGradient
       id="radialGradient832"
       spreadMethod="pad"
       gradientTransform="matrix(7356.97,0,0,-4948.95,8500,6000)"
       gradientUnits="userSpaceOnUse"
       r="1"
       cy="0"
       cx="0"
       fy="0"
       fx="0">
      <stop
         id="stop826"
         offset="0"
         style="stop-opacity:1;stop-color:#2e6dae" />
      <stop
         id="stop828"
         offset="0.00000013"
         style="stop-opacity:1;stop-color:#2e6dae" />
      <stop
         id="stop830"
         offset="1"
         style="stop-opacity:1;stop-color:#265b91" />
    </radialGradient>
    <clipPath
       id="clipPath842"
       clipPathUnits="userSpaceOnUse">
      <path
         id="path840"
         d="m 2286.44,10214.8 c -3.27,0 -6.17,1.6 -8.02,4 h 0.08 c 4.49,-0.7 8.87,-1.5 13.35,-2.4 -1.56,-1 -3.42,-1.6 -5.41,-1.6" />
    </clipPath>
    <radialGradient
       id="radialGradient850"
       spreadMethod="pad"
       gradientTransform="matrix(7356.97,0,0,-4948.95,8500,6000)"
       gradientUnits="userSpaceOnUse"
       r="1"
       cy="0"
       cx="0"
       fy="0"
       fx="0">
      <stop
         id="stop844"
         offset="0"
         style="stop-opacity:1;stop-color:#3175b3" />
      <stop
         id="stop846"
         offset="0.00000013"
         style="stop-opacity:1;stop-color:#3175b3" />
      <stop
         id="stop848"
         offset="1"
         style="stop-opacity:1;stop-color:#2a6496" />
    </radialGradient>
    <clipPath
       id="clipPath860"
       clipPathUnits="userSpaceOnUse">
      <path
         id="path858"
         d="m 2145.13,9492.27 c -5.54,0 -10.06,4.52 -10.06,10.07 0,5.56 4.52,10.08 10.06,10.08 5.56,0 10.08,-4.52 10.08,-10.08 0,-5.55 -4.52,-10.07 -10.08,-10.07" />
    </clipPath>
    <radialGradient
       id="radialGradient868"
       spreadMethod="pad"
       gradientTransform="matrix(7356.97,0,0,-4948.95,8500,6000)"
       gradientUnits="userSpaceOnUse"
       r="1"
       cy="0"
       cx="0"
       fy="0"
       fx="0">
      <stop
         id="stop862"
         offset="0"
         style="stop-opacity:1;stop-color:#357cb6" />
      <stop
         id="stop864"
         offset="0.00000013"
         style="stop-opacity:1;stop-color:#357cb6" />
      <stop
         id="stop866"
         offset="1"
         style="stop-opacity:1;stop-color:#2c6d9d" />
    </radialGradient>
    <clipPath
       id="clipPath986"
       clipPathUnits="userSpaceOnUse">
      <path
         id="path984"
         d="m 1275.2,10826.7 c -6.06,0 -10.98,4.9 -10.98,11 0,6 4.92,10.9 10.98,10.9 6.05,0 10.97,-4.9 10.97,-10.9 0,-6.1 -4.92,-11 -10.97,-11" />
    </clipPath>
    <radialGradient
       id="radialGradient994"
       spreadMethod="pad"
       gradientTransform="matrix(7356.97,0,0,-4948.95,8500,6000)"
       gradientUnits="userSpaceOnUse"
       r="1"
       cy="0"
       cx="0"
       fy="0"
       fx="0">
      <stop
         id="stop988"
         offset="0"
         style="stop-opacity:1;stop-color:#2e6dae" />
      <stop
         id="stop990"
         offset="0.00000013"
         style="stop-opacity:1;stop-color:#2e6dae" />
      <stop
         id="stop992"
         offset="1"
         style="stop-opacity:1;stop-color:#265b91" />
    </radialGradient>
    <clipPath
       id="clipPath1004"
       clipPathUnits="userSpaceOnUse">
      <path
         id="path1002"
         d="m 2030.53,10724.3 c -15.17,0 -27.5,12.4 -27.5,27.5 0,15.2 12.33,27.5 27.5,27.5 15.16,0 27.5,-12.3 27.5,-27.5 0,-15.1 -12.34,-27.5 -27.5,-27.5" />
    </clipPath>
    <radialGradient
       id="radialGradient1012"
       spreadMethod="pad"
       gradientTransform="matrix(7356.97,0,0,-4948.95,8500,6000)"
       gradientUnits="userSpaceOnUse"
       r="1"
       cy="0"
       cx="0"
       fy="0"
       fx="0">
      <stop
         id="stop1006"
         offset="0"
         style="stop-opacity:1;stop-color:#2e6dae" />
      <stop
         id="stop1008"
         offset="0.00000013"
         style="stop-opacity:1;stop-color:#2e6dae" />
      <stop
         id="stop1010"
         offset="1"
         style="stop-opacity:1;stop-color:#265b91" />
    </radialGradient>
    <clipPath
       id="clipPath1130"
       clipPathUnits="userSpaceOnUse">
      <path
         id="path1128"
         d="m 3622.72,9721.63 c -19.31,0 -35.04,15.72 -35.04,35.03 0,19.32 15.73,35.04 35.04,35.04 19.32,0 35.04,-15.72 35.04,-35.04 0,-19.31 -15.72,-35.03 -35.04,-35.03" />
    </clipPath>
    <radialGradient
       id="radialGradient1138"
       spreadMethod="pad"
       gradientTransform="matrix(7356.97,0,0,-4948.95,8500,6000)"
       gradientUnits="userSpaceOnUse"
       r="1"
       cy="0"
       cx="0"
       fy="0"
       fx="0">
      <stop
         id="stop1132"
         offset="0"
         style="stop-opacity:1;stop-color:#2e6dae" />
      <stop
         id="stop1134"
         offset="0.00000013"
         style="stop-opacity:1;stop-color:#2e6dae" />
      <stop
         id="stop1136"
         offset="1"
         style="stop-opacity:1;stop-color:#265b91" />
    </radialGradient>
    <clipPath
       id="clipPath1924"
       clipPathUnits="userSpaceOnUse">
      <path
         id="path1922"
         d="m 3141.41,9918.75 c -14.81,0 -26.86,12.05 -26.86,26.85 0,14.81 12.05,26.86 26.86,26.86 14.8,0 26.84,-12.05 26.84,-26.86 0,-14.8 -12.04,-26.85 -26.84,-26.85" />
    </clipPath>
    <radialGradient
       id="radialGradient1932"
       spreadMethod="pad"
       gradientTransform="matrix(7356.97,0,0,-4948.95,8500,6000)"
       gradientUnits="userSpaceOnUse"
       r="1"
       cy="0"
       cx="0"
       fy="0"
       fx="0">
      <stop
         id="stop1926"
         offset="0"
         style="stop-opacity:1;stop-color:#2e6dae" />
      <stop
         id="stop1928"
         offset="0.00000013"
         style="stop-opacity:1;stop-color:#2e6dae" />
      <stop
         id="stop1930"
         offset="1"
         style="stop-opacity:1;stop-color:#265b91" />
    </radialGradient>
    <clipPath
       id="clipPath2302"
       clipPathUnits="userSpaceOnUse">
      <path
         id="path2300"
         d="m 3240.77,10953.2 c -7.04,0 -12.77,5.7 -12.77,12.8 0,7 5.73,12.7 12.77,12.7 7.03,0 12.76,-5.7 12.76,-12.7 0,-7.1 -5.73,-12.8 -12.76,-12.8" />
    </clipPath>
    <radialGradient
       id="radialGradient2310"
       spreadMethod="pad"
       gradientTransform="matrix(7356.97,0,0,-4948.95,8500,6000)"
       gradientUnits="userSpaceOnUse"
       r="1"
       cy="0"
       cx="0"
       fy="0"
       fx="0">
      <stop
         id="stop2304"
         offset="0"
         style="stop-opacity:1;stop-color:#2e6dae" />
      <stop
         id="stop2306"
         offset="0.00000013"
         style="stop-opacity:1;stop-color:#2e6dae" />
      <stop
         id="stop2308"
         offset="1"
         style="stop-opacity:1;stop-color:#265b91" />
    </radialGradient>
    <clipPath
       id="clipPath3426"
       clipPathUnits="userSpaceOnUse">
      <path
         id="path3424"
         d="m 1921.7,9902.9 h -0.05 c 0.21,6.95 5.94,12.55 12.93,12.55 5.96,0 10.99,-4.05 12.49,-9.54 -0.02,-0.01 -0.05,-0.01 -0.07,-0.01 -8.5,-0.8 -16.9,-1.8 -25.3,-3" />
    </clipPath>
    <radialGradient
       id="radialGradient3434"
       spreadMethod="pad"
       gradientTransform="matrix(7356.97,0,0,-4948.95,8500,6000)"
       gradientUnits="userSpaceOnUse"
       r="1"
       cy="0"
       cx="0"
       fy="0"
       fx="0">
      <stop
         id="stop3428"
         offset="0"
         style="stop-opacity:1;stop-color:#3175b3" />
      <stop
         id="stop3430"
         offset="0.00000013"
         style="stop-opacity:1;stop-color:#3175b3" />
      <stop
         id="stop3432"
         offset="1"
         style="stop-opacity:1;stop-color:#2a6496" />
    </radialGradient>
    <clipPath
       id="clipPath3444"
       clipPathUnits="userSpaceOnUse">
      <path
         id="path3442"
         d="m 1934.58,9889.55 c -7.13,0 -12.94,5.81 -12.94,12.95 0,0.13 0.01,0.27 0.01,0.4 h 0.05 c 8.4,1.2 16.8,2.2 25.3,3 0.02,0 0.05,0 0.07,0.01 0.3,-1.09 0.46,-2.23 0.46,-3.41 0,-7.14 -5.81,-12.95 -12.95,-12.95" />
    </clipPath>
    <radialGradient
       id="radialGradient3452"
       spreadMethod="pad"
       gradientTransform="matrix(7356.97,0,0,-4948.95,8500,6000)"
       gradientUnits="userSpaceOnUse"
       r="1"
       cy="0"
       cx="0"
       fy="0"
       fx="0">
      <stop
         id="stop3446"
         offset="0"
         style="stop-opacity:1;stop-color:#357cb6" />
      <stop
         id="stop3448"
         offset="0.00000013"
         style="stop-opacity:1;stop-color:#357cb6" />
      <stop
         id="stop3450"
         offset="1"
         style="stop-opacity:1;stop-color:#2c6d9d" />
    </radialGradient>
    <clipPath
       id="clipPath3462"
       clipPathUnits="userSpaceOnUse">
      <path
         id="path3460"
         d="m 2530.63,9821.31 c -7.13,0 -12.94,5.81 -12.94,12.94 0,7.14 5.81,12.95 12.94,12.95 7.13,0 12.94,-5.81 12.94,-12.95 0,-7.13 -5.81,-12.94 -12.94,-12.94" />
    </clipPath>
    <radialGradient
       id="radialGradient3470"
       spreadMethod="pad"
       gradientTransform="matrix(7356.97,0,0,-4948.95,8500,6000)"
       gradientUnits="userSpaceOnUse"
       r="1"
       cy="0"
       cx="0"
       fy="0"
       fx="0">
      <stop
         id="stop3464"
         offset="0"
         style="stop-opacity:1;stop-color:#3175b3" />
      <stop
         id="stop3466"
         offset="0.00000013"
         style="stop-opacity:1;stop-color:#3175b3" />
      <stop
         id="stop3468"
         offset="1"
         style="stop-opacity:1;stop-color:#2a6496" />
    </radialGradient>
  </defs>
  <g
     inkscape:label="Warstwa 1"
     inkscape:groupmode="layer"
     id="layer1">
    <g
       id="g818"
       transform="matrix(0.03527778,0,0,-0.03527778,-45.921912,393.29484)">
      <g
         clip-path="url(#clipPath824)"
         id="g820">
        <path
           id="path834"
           style="fill:url(#radialGradient832);fill-opacity:1;fill-rule:nonzero;stroke:none"
           d="m 2291.85,10216.4 c -4.48,0.9 -8.86,1.7 -13.35,2.4 h -0.08 c -1.29,1.7 -2.05,3.8 -2.05,6.1 0,5.5 4.52,10.1 10.07,10.1 5.55,0 10.07,-4.6 10.07,-10.1 0,-3.6 -1.86,-6.7 -4.66,-8.5" />
      </g>
    </g>
    <g
       id="g836"
       transform="matrix(0.03527778,0,0,-0.03527778,-45.921912,393.29484)">
      <g
         clip-path="url(#clipPath842)"
         id="g838">
        <path
           id="path852"
           style="fill:url(#radialGradient850);fill-opacity:1;fill-rule:nonzero;stroke:none"
           d="m 2286.44,10214.8 c -3.27,0 -6.17,1.6 -8.02,4 h 0.08 c 4.49,-0.7 8.87,-1.5 13.35,-2.4 -1.56,-1 -3.42,-1.6 -5.41,-1.6" />
      </g>
    </g>
    <g
       id="g854"
       transform="matrix(0.03527778,0,0,-0.03527778,-45.921912,393.29484)">
      <g
         clip-path="url(#clipPath860)"
         id="g856">
        <path
           id="path870"
           style="fill:url(#radialGradient868);fill-opacity:1;fill-rule:nonzero;stroke:none"
           d="m 2145.13,9492.27 c -5.54,0 -10.06,4.52 -10.06,10.07 0,5.56 4.52,10.08 10.06,10.08 5.56,0 10.08,-4.52 10.08,-10.08 0,-5.55 -4.52,-10.07 -10.08,-10.07" />
      </g>
    </g>
    <g
       id="g980"
       transform="matrix(0.03527778,0,0,-0.03527778,-45.921912,393.29484)">
      <g
         clip-path="url(#clipPath986)"
         id="g982">
        <path
           id="path996"
           style="fill:url(#radialGradient994);fill-opacity:1;fill-rule:nonzero;stroke:none"
           d="m 1275.2,10826.7 c -6.06,0 -10.98,4.9 -10.98,11 0,6 4.92,10.9 10.98,10.9 6.05,0 10.97,-4.9 10.97,-10.9 0,-6.1 -4.92,-11 -10.97,-11" />
      </g>
    </g>
    <g
       id="g998"
       transform="matrix(0.03527778,0,0,-0.03527778,-45.921912,393.29484)">
      <g
         clip-path="url(#clipPath1004)"
         id="g1000">
        <path
           id="path1014"
           style="fill:url(#radialGradient1012);fill-opacity:1;fill-rule:nonzero;stroke:none"
           d="m 2030.53,10724.3 c -15.17,0 -27.5,12.4 -27.5,27.5 0,15.2 12.33,27.5 27.5,27.5 15.16,0 27.5,-12.3 27.5,-27.5 0,-15.1 -12.34,-27.5 -27.5,-27.5" />
      </g>
    </g>
    <g
       id="g1124"
       transform="matrix(0.03527778,0,0,-0.03527778,-45.921912,393.29484)">
      <g
         clip-path="url(#clipPath1130)"
         id="g1126">
        <path
           id="path1140"
           style="fill:url(#radialGradient1138);fill-opacity:1;fill-rule:nonzero;stroke:none"
           d="m 3622.72,9721.63 c -19.31,0 -35.04,15.72 -35.04,35.03 0,19.32 15.73,35.04 35.04,35.04 19.32,0 35.04,-15.72 35.04,-35.04 0,-19.31 -15.72,-35.03 -35.04,-35.03" />
      </g>
    </g>
    <g
       id="g1918"
       transform="matrix(0.03527778,0,0,-0.03527778,-45.921912,393.29484)">
      <g
         clip-path="url(#clipPath1924)"
         id="g1920">
        <path
           id="path1934"
           style="fill:url(#radialGradient1932);fill-opacity:1;fill-rule:nonzero;stroke:none"
           d="m 3141.41,9918.75 c -14.81,0 -26.86,12.05 -26.86,26.85 0,14.81 12.05,26.86 26.86,26.86 14.8,0 26.84,-12.05 26.84,-26.86 0,-14.8 -12.04,-26.85 -26.84,-26.85" />
      </g>
    </g>
    <g
       id="g2296"
       transform="matrix(0.03527778,0,0,-0.03527778,-45.921912,393.29484)">
      <g
         clip-path="url(#clipPath2302)"
         id="g2298">
        <path
           id="path2312"
           style="fill:url(#radialGradient2310);fill-opacity:1;fill-rule:nonzero;stroke:none"
           d="m 3240.77,10953.2 c -7.04,0 -12.77,5.7 -12.77,12.8 0,7 5.73,12.7 12.77,12.7 7.03,0 12.76,-5.7 12.76,-12.7 0,-7.1 -5.73,-12.8 -12.76,-12.8" />
      </g>
    </g>
    <g
       id="g3420"
       transform="matrix(0.03527778,0,0,-0.03527778,-45.921912,393.29484)">
      <g
         clip-path="url(#clipPath3426)"
         id="g3422">
        <path
           id="path3436"
           style="fill:url(#radialGradient3434);fill-opacity:1;fill-rule:nonzero;stroke:none"
           d="m 1921.7,9902.9 h -0.05 c 0.21,6.95 5.94,12.55 12.93,12.55 5.96,0 10.99,-4.05 12.49,-9.54 -0.02,-0.01 -0.05,-0.01 -0.07,-0.01 -8.5,-0.8 -16.9,-1.8 -25.3,-3" />
      </g>
    </g>
    <g
       id="g3438"
       transform="matrix(0.03527778,0,0,-0.03527778,-45.921912,393.29484)">
      <g
         clip-path="url(#clipPath3444)"
         id="g3440">
        <path
           id="path3454"
           style="fill:url(#radialGradient3452);fill-opacity:1;fill-rule:nonzero;stroke:none"
           d="m 1934.58,9889.55 c -7.13,0 -12.94,5.81 -12.94,12.95 0,0.13 0.01,0.27 0.01,0.4 h 0.05 c 8.4,1.2 16.8,2.2 25.3,3 0.02,0 0.05,0 0.07,0.01 0.3,-1.09 0.46,-2.23 0.46,-3.41 0,-7.14 -5.81,-12.95 -12.95,-12.95" />
      </g>
    </g>
    <g
       id="g3456"
       transform="matrix(0.03527778,0,0,-0.03527778,-45.921912,393.29484)">
      <g
         clip-path="url(#clipPath3462)"
         id="g3458">
        <path
           id="path3472"
           style="fill:url(#radialGradient3470);fill-opacity:1;fill-rule:nonzero;stroke:none"
           d="m 2530.63,9821.31 c -7.13,0 -12.94,5.81 -12.94,12.94 0,7.14 5.81,12.95 12.94,12.95 7.13,0 12.94,-5.81 12.94,-12.95 0,-7.13 -5.81,-12.94 -12.94,-12.94" />
      </g>
    </g>
    <path
       id="path4222"
       style="fill:#7e5130;fill-opacity:1;fill-rule:nonzero;stroke:none;stroke-width:0.0352778"
       d="m 95.391349,44.568344 c -5.56331,16.73648 -1.87678,11.61556 -2.31916,22.06696 -0.38982,9.17998 -7.95196,16.57914 -16.14558,20.65831 -24.82498,12.36028 -23.78922,6.93103 -38.44502,1.7399 -4.74839,-1.67887 -7.78052,-1.26259 -11.57746,-2.4645 3.70099,-1.46932 7.53604,-2.26942 11.38555,-1.44604 12.24668,2.60703 11.67624,-5.21123 18.89231,-4.2799 4.37303,0.56162 6.79979,4.76603 11.32416,0.74189 5.87164,-5.22287 -3.3983,-6.17149 4.63797,-14.44625 3.29354,-3.38702 -6.40715,-11.05958 5.67091,-17.37078 10.48632,-5.48181 3.23568,-8.51076 5.09199,-17.40711 1.7078,-8.152698 -10.56781,-4.0252 -9.08403,-16.834559 0.067,-0.550334 0.0871,-1.065389 0.067,-1.55575 14.06243,8.015111 24.109191,19.744969 20.50133,30.597829" />
    <path
       id="path4224"
       style="fill:#9e6f43;fill-opacity:1;fill-rule:nonzero;stroke:none;stroke-width:0.0352778"
       d="m 78.815029,49.767934 c -12.07806,6.3112 -2.37737,13.98376 -5.67091,17.37078 -8.03627,8.27476 1.23367,9.22338 -4.63797,14.44625 -4.52437,4.02414 -6.95113,-0.18027 -11.32416,-0.74189 -7.21607,-0.93133 -6.64563,6.88693 -18.89231,4.2799 -3.84951,-0.82338 -7.68456,-0.0233 -11.38555,1.44604 -3.45969,-1.09397 -7.55333,-3.53519 -14.164385,-10.15154 13.864875,1.26577 13.690245,-8.0772 20.070945,-10.67541 5.19359,-2.11243 15.61606,3.55248 20.03883,-5.39185 3.04342,-6.16232 -1.13206,-7.66974 12.14755,-14.03033 14.37676,-6.88234 4.36739,-14.68931 2.8254,-19.51884 -2.28988,-7.16139 2.83104,-3.852334 -1.39665,-11.874502 -0.98636,-1.869722 -0.7246,-3.598333 -0.45684,-5.3128326 3.08433,1.2770546 6.084,2.7410826 8.92104,4.3568056 0.0201,0.490361 0,1.005416 -0.067,1.55575 -1.48378,12.809359 10.79183,8.681861 9.08403,16.834559 -1.85631,8.89635 5.39433,11.9253 -5.09199,17.40711" />
    <path
       id="path4226"
       style="fill:#bf9460;fill-opacity:1;fill-rule:nonzero;stroke:none;stroke-width:0.0352778"
       d="m 64.997069,46.319884 c -13.27961,6.36059 -9.10413,7.86801 -12.14755,14.03033 -4.42277,8.94433 -14.84524,3.27942 -20.03883,5.39185 -6.3807,2.59821 -6.20607,11.94118 -20.070945,10.67541 -0.261761,-0.25894 -0.526697,-0.52669 -0.796925,-0.80292 -6.7504029,-6.88446 -8.5428669,-9.8231 -8.7407749,-22.96901 -0.113595,-7.55615 0.648758,-12.31194 1.856317,-15.47283 1.265766,0.61383 2.377369,1.70391 3.1862889,3.35703 2.35973,4.81542 -0.4889499,8.40881 -0.3785309,10.81828 0.2007309,4.46053 11.4931499,10.4193 16.1226499,0.0378 3.56412,-7.99289 11.28642,-5.38868 15.68274,-5.56895 9.21491,-0.38135 15.01105,-9.66011 14.35029,-13.38192 -0.5468,-3.12208 -5.48746,-1.62983 -7.28839,-1.97556 -9.27311,-1.78505 8.21973,-8.840607 10.19528,-13.324413 2.84586,-6.459361 -0.43638,-10.0118336 -5.93266,-12.0226666 4.99286,0.927806 10.08768,2.4765 14.97295,4.501445 -0.26776,1.7144996 -0.52952,3.4431106 0.45684,5.3128326 4.22769,8.022168 -0.89323,4.713112 1.39665,11.874502 1.54199,4.82953 11.55136,12.6365 -2.8254,19.51884" />
    <path
       id="path4228"
       style="fill:#d3ae7e;fill-opacity:1;fill-rule:nonzero;stroke:none;stroke-width:0.0352778"
       d="m 56.928689,17.134931 c -1.97555,4.483806 -19.46839,11.539363 -10.19528,13.324413 1.80093,0.34573 6.74159,-1.14652 7.28839,1.97556 0.66076,3.72181 -5.13538,13.00057 -14.35029,13.38192 -4.39632,0.18027 -12.11862,-2.42394 -15.68274,5.56895 -4.6295,10.38155 -15.921919,4.42278 -16.1226499,-0.0378 C 7.7557001,48.938504 10.60438,45.345114 8.24465,40.529694 7.4357301,38.876574 6.3241271,37.786494 5.0583611,37.172664 8.296861,28.681294 14.741758,31.746934 15.966603,22.941604 18.323509,5.9729924 34.073629,1.9689644 50.996029,5.1122144 c 5.49628,2.010833 8.77852,5.5633056 5.93266,12.0226666" />
    <path
       id="path4230"
       style="fill:#dbba8e;fill-opacity:1;fill-rule:nonzero;stroke:none;stroke-width:0.0352778"
       d="m 47.507759,10.121709 c -6.23605,-6.4311396 -16.44332,-1.9579166 -17.29705,4.448528 -0.98389,8.046861 -8.53651,6.290028 -7.74594,10.505727 0.54787,2.921 6.09459,0.7373 3.71616,10.61861 -1.31409,5.45712 6.68232,2.73403 8.59649,-2.39889 2.546,-6.82978 21.71806,-13.899447 12.73034,-23.173975" />
    <path
       id="path4232"
       style="fill:#9b6439;fill-opacity:1;fill-rule:nonzero;stroke:none;stroke-width:0.0352778"
       d="m 64.703919,22.461876 c -0.21979,-0.356305 -0.52529,-0.659694 -0.91405,-0.903111 -4.28943,-3.623028 -10.78583,1.502833 -9.83862,5.309309 -2.29341,-3.802948 4.87856,-10.015365 9.48372,-6.120698 0.66393,0.405695 1.07139,1.008945 1.26895,1.7145" />
    <path
       id="path4234"
       style="fill:#b78551;fill-opacity:1;fill-rule:nonzero;stroke:none;stroke-width:0.0352778"
       d="m 58.136599,29.199934 c -1.31727,-0.24342 -2.31563,-0.63853 -3.03918,-1.13242 l -0.004,-0.007 c -0.10513,-0.067 -0.20144,-0.14464 -0.29492,-0.21873 -0.36407,-0.2928 -0.64312,-0.6103 -0.84385,-0.94897 l -0.002,-0.0247 c -0.94826,-3.806476 5.5492,-8.932337 9.83651,-5.305781 0.24694,0.151694 0.45931,0.331611 0.63958,0.532694 0.10584,0.112889 0.19721,0.236361 0.27658,0.366889 0.81562,2.924528 -2.10397,7.598838 -6.56802,6.738058" />
    <path
       id="path4236"
       style="fill:#caa77a;fill-opacity:1;fill-rule:nonzero;stroke:none;stroke-width:0.0352778"
       d="m 58.793119,29.750264 c -1.50847,-0.27869 -2.59609,-0.762 -3.33657,-1.36172 -0.13194,-0.10231 -0.25188,-0.21167 -0.35913,-0.32103 0.72355,0.49389 1.72191,0.889 3.03918,1.13242 4.46405,0.86078 7.38364,-3.81353 6.56802,-6.738058 -0.0794,-0.130528 -0.17074,-0.254 -0.27658,-0.366889 l 0.0187,0.01411 0.0116,0.0071 c 0.63888,0.398639 1.02623,1.114778 1.03858,1.866195 0.0469,2.875132 -2.70792,6.536972 -6.70384,5.767912" />
    <path
       id="path4238"
       style="fill:#c59a69;fill-opacity:1;fill-rule:nonzero;stroke:none;stroke-width:0.0352778"
       d="m 58.136599,29.199934 c -1.31727,-0.24342 -2.31563,-0.63853 -3.03918,-1.13242 l -0.004,-0.007 c -0.19509,-0.19756 -0.35348,-0.40217 -0.48189,-0.61737 l -0.002,-0.0282 c -0.94827,-3.799414 5.52873,-8.91822 9.81921,-5.319887 0.10584,0.112889 0.19721,0.236361 0.27658,0.366889 0.81562,2.924528 -2.10397,7.598838 -6.56802,6.738058" />
    <path
       id="path4240"
       style="fill:#9b6439;fill-opacity:1;fill-rule:nonzero;stroke:none;stroke-width:0.0352778"
       d="m 46.185199,50.552514 c -1.59914,-1.29011 -4.51556,-1.8034 -9.08544,-0.75741 -5.0359,1.14829 -7.31414,6.75499 -4.99463,10.07357 -3.59057,-3.06917 -1.39347,-9.73914 4.15184,-11.00914 5.55449,-1.26859 8.65929,-0.23636 9.92823,1.69298" />
    <path
       id="path4242"
       style="fill:#b78551;fill-opacity:1;fill-rule:nonzero;stroke:none;stroke-width:0.0352778"
       d="m 37.705119,61.395144 c -0.0935,0.005 -0.18661,0.007 -0.28292,0.012 -2.26731,0.0529 -3.94335,-0.48366 -5.09447,-1.35819 -0.0776,-0.0589 -0.15169,-0.1196 -0.22331,-0.17992 -2.31739,-3.31964 -0.0395,-8.92598 4.99675,-10.07428 4.56777,-1.04704 7.48418,-0.53199 9.08473,0.75777 0.16757,0.25083 0.30374,0.51823 0.40499,0.79622 1.43369,3.76943 -2.65677,9.75007 -8.88577,10.04641" />
    <path
       id="path4244"
       style="fill:#caa77a;fill-opacity:1;fill-rule:nonzero;stroke:none;stroke-width:0.0352778"
       d="m 38.393389,62.400914 c -0.0956,0.002 -0.18944,0.007 -0.28222,0.01 -2.41864,0.0575 -4.16348,-0.55774 -5.31742,-1.53811 -0.1845,-0.26106 -0.33866,-0.53622 -0.46602,-0.82338 1.15112,0.87453 2.82716,1.41111 5.09447,1.35819 0.0963,-0.005 0.18944,-0.007 0.28292,-0.012 6.229,-0.29634 10.31946,-6.27698 8.88577,-10.04641 0.0984,0.067 0.19297,0.13582 0.28081,0.2092 2.43558,3.64737 -1.79034,10.52548 -8.47831,10.84298" />
    <path
       id="path4246"
       style="fill:#c59a69;fill-opacity:1;fill-rule:nonzero;stroke:none;stroke-width:0.0352778"
       d="m 37.705119,61.395144 c -0.0935,0.005 -0.18661,0.007 -0.28292,0.012 -2.26731,0.0529 -3.94335,-0.48366 -5.09447,-1.35819 -1.47849,-3.34928 0.8188,-8.19115 5.45889,-9.24913 4.31412,-0.98849 7.15751,-0.58702 8.80427,0.54892 1.43369,3.76943 -2.65677,9.75007 -8.88577,10.04641" />
    <path
       id="path4248"
       style="fill:#69381f;fill-opacity:1;fill-rule:nonzero;stroke:none;stroke-width:0.0352778"
       d="m 86.918329,63.397504 c 0.36795,0.1905 0.67522,0.56304 0.90558,1.14759 1.403,3.55459 -4.21851,13.06019 -7.38893,13.35617 2.87514,1.64959 10.77807,-6.78322 8.18798,-13.19389 -0.39194,-0.96944 -0.98672,-1.36702 -1.70463,-1.30987" />
    <path
       id="path4250"
       style="fill:#7a492a;fill-opacity:1;fill-rule:nonzero;stroke:none;stroke-width:0.0352778"
       d="m 79.434859,76.325404 c 0.11112,0.52281 0.31997,0.9652 0.65687,1.30351 0.0293,0.0353 0.0628,0.0653 0.0967,0.097 0.0751,0.0716 0.16298,0.12947 0.24589,0.17638 3.17076,-0.29809 8.79298,-9.80263 7.38963,-13.35616 -0.23036,-0.58561 -0.53833,-0.9585 -0.90558,-1.14724 -0.0504,0.002 -0.1023,0.008 -0.15628,0.0169 -3.12878,0.45755 -8.2109,8.75241 -7.32719,12.90955" />
    <path
       id="path4252"
       style="fill:#936b46;fill-opacity:1;fill-rule:nonzero;stroke:none;stroke-width:0.0352778"
       d="m 78.918739,76.078814 c 0.15382,0.56444 0.3616,1.04775 0.75354,1.40052 0.0758,0.0734 0.16298,0.12983 0.24588,0.17639 0.0561,-0.004 0.11325,-0.012 0.17357,-0.0268 -0.3369,-0.33831 -0.54575,-0.7807 -0.65687,-1.30351 -0.88371,-4.15714 4.19841,-12.452 7.32719,-12.90955 -0.11253,-0.11148 -0.23318,-0.19791 -0.35983,-0.26353 -3.11185,0.1972 -9.06357,7.1247 -7.48348,12.92649" />
    <path
       id="path4254"
       style="fill:#8f633f;fill-opacity:1;fill-rule:nonzero;stroke:none;stroke-width:0.0352778"
       d="m 79.434859,76.325404 c 0.11112,0.52281 0.31997,0.9652 0.65687,1.30351 3.19546,-0.60572 8.59367,-9.83827 7.21607,-13.32935 -0.14993,-0.38489 -0.33479,-0.6724 -0.54575,-0.88371 -3.12878,0.45755 -8.2109,8.75241 -7.32719,12.90955" />
    <path
       id="path4256"
       style="fill:#824a29;fill-opacity:1;fill-rule:nonzero;stroke:none;stroke-width:0.0352778"
       d="m 60.535489,70.373684 c 4.2284,1.39665 9.11825,-6.04202 5.99652,-9.14435 4.29613,1.7586 -0.92922,12.76597 -5.99652,9.14435" />
    <path
       id="path4258"
       style="fill:#986339;fill-opacity:1;fill-rule:nonzero;stroke:none;stroke-width:0.0352778"
       d="m 63.056799,60.850804 c 0.38911,-0.0243 0.75247,-0.0339 1.09855,-0.025 0.9465,0.0222 1.72861,0.16404 2.37737,0.40252 3.04588,3.02684 -1.53177,10.17729 -5.6822,9.23114 -0.10689,-0.0236 -0.21096,-0.0515 -0.31679,-0.0857 -0.4438,-0.41733 -0.87806,-0.96343 -1.26577,-1.66969 -1.78646,-3.21804 0.52141,-7.64329 3.78884,-7.85319" />
    <path
       id="path4260"
       style="fill:#af885a;fill-opacity:1;fill-rule:nonzero;stroke:none;stroke-width:0.0352778"
       d="m 62.032329,60.772484 c 0.79163,-0.0801 1.50636,-0.0307 2.12302,0.0533 -0.34608,-0.009 -0.70944,7.1e-4 -1.09855,0.025 -3.26743,0.2099 -5.5753,4.63515 -3.78884,7.85319 0.38771,0.70626 0.82197,1.25236 1.26577,1.66969 0.10583,0.0342 0.2099,0.0621 0.31679,0.0857 -4.36456,-1.32468 -3.95746,-9.16764 1.18181,-9.68693" />
    <path
       id="path4262"
       style="fill:#a97c4f;fill-opacity:1;fill-rule:nonzero;stroke:none;stroke-width:0.0352778"
       d="m 63.056799,60.850804 c 0.38911,-0.0243 0.75247,-0.0339 1.09855,-0.025 0.50447,0.0684 0.95391,0.18062 1.3529,0.32421 2.79647,2.77847 -0.83256,9.0364 -4.65773,9.30945 -0.10689,-0.0236 -0.21096,-0.0515 -0.31679,-0.0857 -0.4438,-0.41733 -0.87806,-0.96343 -1.26577,-1.66969 -1.78646,-3.21804 0.52141,-7.64329 3.78884,-7.85319" />
    <path
       id="path4264"
       style="fill:#9b6439;fill-opacity:1;fill-rule:nonzero;stroke:none;stroke-width:0.0352778"
       d="m 61.776209,37.342044 c -1.05445,-0.53269 -2.63666,-0.36689 -4.76603,1.143 -2.45074,1.72861 -2.72379,4.27743 -1.4425,5.63951 -2.05352,-1.0795 -2.15724,-4.20723 0.69144,-6.21454 2.7178,-1.91205 4.53566,-1.65805 5.51709,-0.56797" />
    <path
       id="path4266"
       style="fill:#b78551;fill-opacity:1;fill-rule:nonzero;stroke:none;stroke-width:0.0352778"
       d="m 61.104879,43.212264 c -2.10926,1.30599 -3.85375,1.52224 -5.07471,1.10737 -0.16369,-0.0526 -0.31856,-0.11994 -0.46179,-0.19579 -1.28235,-1.36137 -1.00788,-3.91019 1.44322,-5.6388 2.12689,-1.50989 3.71051,-1.67569 4.76532,-1.143 l 0.0145,0.0141 c 0.079,0.0847 0.15205,0.17992 0.21908,0.27517 1.12783,1.6263 0.77999,4.54095 -0.90558,5.58094" />
    <path
       id="path4268"
       style="fill:#caa77a;fill-opacity:1;fill-rule:nonzero;stroke:none;stroke-width:0.0352778"
       d="m 61.791379,43.676874 c -2.39571,1.48131 -4.31235,1.55716 -5.53932,0.91158 -0.0818,-0.0847 -0.15486,-0.17533 -0.22189,-0.26882 1.22096,0.41487 2.96545,0.19862 5.07471,-1.10737 1.68557,-1.03999 2.03341,-3.95464 0.90558,-5.58094 0.15769,0.0459 0.30974,0.1023 0.44979,0.17286 l 0.0176,0.0141 c 1.385,1.55222 1.09855,4.75721 -0.68651,5.85858" />
    <path
       id="path4270"
       style="fill:#c59a69;fill-opacity:1;fill-rule:nonzero;stroke:none;stroke-width:0.0352778"
       d="m 61.104879,43.212264 c -2.10926,1.30599 -3.85375,1.52224 -5.07471,1.10737 -1.01389,-1.40829 -0.63112,-3.75144 1.66511,-5.37245 1.84644,-1.30528 3.28083,-1.60867 4.31518,-1.31586 1.12783,1.6263 0.77999,4.54095 -0.90558,5.58094" />
    <path
       id="path4272"
       style="fill:#824a29;fill-opacity:1;fill-rule:nonzero;stroke:none;stroke-width:0.0352778"
       d="m 38.835069,74.664174 c 1.5875,2.57069 -1.75471,7.66374 -6.25369,6.47982 -1.53705,-0.28328 -2.4451,-1.22343 -2.75802,-2.36044 0.45297,0.79164 1.26683,1.40053 2.45216,1.62243 4.10175,1.07879 7.24218,-3.05894 6.55955,-5.74181" />
    <path
       id="path4274"
       style="fill:#986339;fill-opacity:1;fill-rule:nonzero;stroke:none;stroke-width:0.0352778"
       d="m 33.581859,73.474254 c 1.36772,-0.27411 2.4578,-0.28399 3.29953,-0.091 0.54328,0.12277 0.98107,0.32279 1.32574,0.58773 0.26317,0.19932 0.46954,0.43356 0.62688,0.69391 0.68369,2.68182 -2.45709,6.82026 -6.55814,5.74076 -0.98248,-0.18415 -1.71062,-0.63395 -2.18863,-1.23296 -0.0984,-0.12347 -0.18768,-0.25294 -0.26458,-0.38947 -0.57362,-2.03623 0.7687,-4.70888 3.7592,-5.30895" />
    <path
       id="path4276"
       style="fill:#af885a;fill-opacity:1;fill-rule:nonzero;stroke:none;stroke-width:0.0352778"
       d="m 33.101729,72.992354 c 1.36525,-0.27481 2.45533,-0.28469 3.29565,-0.0892 0.8389,0.18662 1.43192,0.56656 1.80975,1.06786 -0.34467,-0.26494 -0.78246,-0.46496 -1.32574,-0.58773 -0.84173,-0.19297 -1.93181,-0.18309 -3.29953,0.091 -2.9905,0.60007 -4.33282,3.27272 -3.7592,5.30895 0.0769,0.13653 0.16616,0.266 0.26458,0.38947 -0.3108,-0.24977 -0.56021,-0.54434 -0.74471,-0.87101 -0.5775,-2.03482 0.76729,-4.70712 3.7592,-5.30931" />
    <path
       id="path4278"
       style="fill:#a97c4f;fill-opacity:1;fill-rule:nonzero;stroke:none;stroke-width:0.0352778"
       d="m 33.581859,73.474254 c 1.36772,-0.27411 2.4578,-0.28399 3.29953,-0.091 0.54328,0.12277 0.98107,0.32279 1.32574,0.58773 0.0504,0.0677 0.0998,0.13758 0.14428,0.21131 0.68369,2.68182 -2.45709,6.82026 -6.55814,5.74076 -0.69744,-0.12842 -1.264,-0.39406 -1.70603,-0.75036 -0.0984,-0.12347 -0.18768,-0.25294 -0.26458,-0.38947 -0.57362,-2.03623 0.7687,-4.70888 3.7592,-5.30895" />
    <path
       id="path4280"
       style="fill:#ad7748;fill-opacity:1;fill-rule:nonzero;stroke:none;stroke-width:0.0352778"
       d="m 19.767079,32.265574 c -1.03046,-0.73025 -2.664884,-0.71261 -4.307065,0.58208 -2.8194,1.95086 -3.142192,4.94947 -2.075744,6.5652 -1.779412,-1.2312 -2.700162,-4.99181 0.625475,-7.29192 2.078566,-1.62631 4.902904,-1.2312 5.757334,0.14464" />
    <path
       id="path4282"
       style="fill:#cb9e69;fill-opacity:1;fill-rule:nonzero;stroke:none;stroke-width:0.0352778"
       d="m 19.235799,36.488324 c -0.78952,1.143 -1.55822,1.95086 -2.292001,2.49414 -1.22802,0.90664 -2.327628,1.03011 -3.16477,0.65616 -0.140406,-0.06 -0.270933,-0.13758 -0.395111,-0.22577 -1.066095,-1.61573 -0.742598,-4.61434 2.075392,-6.5652 1.643944,-1.29469 3.2766,-1.31586 4.30777,-0.58208 0.0705,0.11641 0.13547,0.23989 0.18768,0.37041 0.42227,1.00189 0.29033,2.37773 -0.71896,3.85234" />
    <path
       id="path4284"
       style="fill:#dcbe93;fill-opacity:1;fill-rule:nonzero;stroke:none;stroke-width:0.0352778"
       d="m 19.843629,37.095104 c -0.78916,1.143 -1.56069,1.95086 -2.29164,2.49413 -1.431928,1.05446 -2.690286,1.04917 -3.559883,0.43039 -0.07902,-0.11994 -0.150284,-0.24694 -0.213078,-0.381 0.837142,0.37395 1.93675,0.25048 3.16477,-0.65616 0.733781,-0.54328 1.502481,-1.35114 2.292001,-2.49414 1.00929,-1.47461 1.14123,-2.85045 0.71896,-3.85234 0.15099,0.0635 0.29033,0.14112 0.42016,0.23637 0.63076,1.016 0.60748,2.55763 -0.53129,4.22275" />
    <path
       id="path4286"
       style="fill:#d4ae82;fill-opacity:1;fill-rule:nonzero;stroke:none;stroke-width:0.0352778"
       d="m 19.235799,36.488324 c -0.78952,1.143 -1.55822,1.95086 -2.292001,2.49414 -1.22802,0.90664 -2.327628,1.03011 -3.16477,0.65616 -0.792692,-1.67569 -0.322439,-4.37797 2.288117,-6.18419 1.432983,-1.13242 2.862434,-1.28764 3.887614,-0.81845 0.42227,1.00189 0.29033,2.37773 -0.71896,3.85234" />
    <path
       id="path4288"
       style="fill:#ad7748;fill-opacity:1;fill-rule:nonzero;stroke:none;stroke-width:0.0352778"
       d="m 43.006319,33.648464 c -1.26894,-0.56445 -3.10198,-0.24342 -4.06083,1.08302 -1.05269,1.45698 -0.6671,2.99862 0.28222,3.91937 -1.45697,-0.70556 -2.35937,-2.65289 -1.05269,-4.45559 1.18428,-1.63689 3.68442,-1.72861 4.8313,-0.5468" />
    <path
       id="path4290"
       style="fill:#cb9e69;fill-opacity:1;fill-rule:nonzero;stroke:none;stroke-width:0.0352778"
       d="m 43.362269,36.403654 c -0.11994,0.32103 -0.25118,0.61031 -0.40323,0.85372 -0.89111,1.4852 -2.15617,1.8662 -3.23426,1.57692 -0.16934,-0.0459 -0.33585,-0.10936 -0.49636,-0.18697 -0.94968,-0.91722 -1.33526,-2.46239 -0.28363,-3.91584 0.95849,-1.32644 2.79294,-1.64394 4.06117,-1.08302 0.0494,0.0529 0.0991,0.10936 0.14288,0.1658 0.47625,0.59972 0.63394,1.47109 0.21343,2.58939" />
    <path
       id="path4292"
       style="fill:#dcbe93;fill-opacity:1;fill-rule:nonzero;stroke:none;stroke-width:0.0352778"
       d="m 44.007849,36.738794 c -0.12276,0.3175 -0.254,0.61031 -0.40322,0.85372 -1.03399,1.71803 -2.56787,1.95792 -3.7338,1.39347 -0.0494,-0.0494 -0.0991,-0.1023 -0.14605,-0.15169 1.07809,0.28928 2.34315,-0.0917 3.23426,-1.57692 0.15205,-0.24341 0.28329,-0.53269 0.40323,-0.85372 0.42051,-1.1183 0.26282,-1.98967 -0.21343,-2.58939 0.17533,0.0388 0.34184,0.0988 0.50271,0.16934 0.58138,0.59972 0.81809,1.53458 0.3563,2.75519" />
    <path
       id="path4294"
       style="fill:#d4ae82;fill-opacity:1;fill-rule:nonzero;stroke:none;stroke-width:0.0352778"
       d="m 43.362269,36.403654 c -0.11994,0.32103 -0.25118,0.61031 -0.40323,0.85372 -0.89111,1.4852 -2.15617,1.8662 -3.23426,1.57692 -0.8382,-0.93486 -1.13066,-2.38831 -0.13441,-3.77119 0.83855,-1.15712 2.34315,-1.5487 3.55847,-1.24884 0.47625,0.59972 0.63394,1.47109 0.21343,2.58939" />
    <path
       id="path4296"
       style="fill:#69381f;fill-opacity:1;fill-rule:nonzero;stroke:none;stroke-width:0.0352778"
       d="m 91.997979,43.712154 c 1.13242,-0.97755 1.62701,-4.66267 0.69039,-7.54133 -0.72002,-2.21545 -1.73673,-2.97039 -2.60597,-2.70581 0.94227,-0.74789 2.71074,-0.0212 3.5694,2.61761 1.05798,3.25614 -0.20355,7.36142 -1.65382,7.62953" />
    <path
       id="path4298"
       style="fill:#7a492a;fill-opacity:1;fill-rule:nonzero;stroke:none;stroke-width:0.0352778"
       d="m 90.146249,42.068564 c -0.21519,-0.4191 -0.40605,-0.82938 -0.55774,-1.23049 -1.07915,-2.83281 -0.85866,-5.30578 -0.11289,-6.63222 0.17709,-0.31045 0.38241,-0.56092 0.60642,-0.73731 0.86854,-0.26811 1.88631,0.48683 2.60527,2.70228 0.889,2.71991 0.49177,6.16691 -0.50977,7.35894 -0.0582,0.0695 -0.11782,0.12841 -0.17921,0.18098 -0.54045,0.10654 -1.17792,-0.35384 -1.85208,-1.64218" />
    <path
       id="path4300"
       style="fill:#936b46;fill-opacity:1;fill-rule:nonzero;stroke:none;stroke-width:0.0352778"
       d="m 89.871789,42.479544 c -0.21555,-0.41451 -0.40852,-0.82691 -0.55739,-1.23049 -1.20756,-3.15912 -0.79128,-5.8614 0.16122,-7.0432 -0.74577,1.32644 -0.96626,3.79941 0.11289,6.63222 0.15169,0.40111 0.34255,0.81139 0.55774,1.23049 0.67416,1.28834 1.31163,1.74872 1.85208,1.64218 0.0614,-0.0526 0.12101,-0.11148 0.17921,-0.18098 -0.13687,0.24765 -0.28927,0.45403 -0.45649,0.59479 -0.53799,0.1083 -1.17546,-0.35208 -1.84926,-1.64501" />
    <path
       id="path4302"
       style="fill:#8f633f;fill-opacity:1;fill-rule:nonzero;stroke:none;stroke-width:0.0352778"
       d="m 90.146249,42.068564 c -0.21519,-0.4191 -0.40605,-0.82938 -0.55774,-1.23049 -1.07915,-2.83281 -0.85866,-5.30578 -0.11289,-6.63222 0.10548,-0.127 0.21625,-0.23637 0.32985,-0.32809 0.87065,-0.26458 1.88595,0.49036 2.60773,2.70581 0.79939,2.45533 0.55457,5.49628 -0.23566,6.94619 -0.0582,0.0695 -0.11782,0.12841 -0.17921,0.18098 -0.54045,0.10654 -1.17792,-0.35384 -1.85208,-1.64218" />
    <path
       id="path4304"
       style="fill:#ac7340;fill-opacity:1;fill-rule:nonzero;stroke:none;stroke-width:0.0352778"
       d="m 15.023981,63.126224 c -3.205339,-2.38725 -6.842831,1.59773 -5.235576,4.00402 -2.9608639,-2.22743 1.099962,-7.31237 4.63409,-4.64326 0.23495,0.17851 0.432505,0.39476 0.601486,0.63924" />
    <path
       id="path4306"
       style="fill:#b78551;fill-opacity:1;fill-rule:nonzero;stroke:none;stroke-width:0.0352778"
       d="m 15.523514,65.373764 c -0.347839,2.28177 -2.407356,3.5994 -5.311422,2.03059 -0.08185,-0.0437 -0.15487,-0.0878 -0.225073,-0.13441 -0.07303,-0.0469 -0.13723,-0.0935 -0.198614,-0.1404 -1.606902,-2.40418 2.030589,-6.38916 5.235576,-4.00227 0.05821,0.0815 0.111125,0.16934 0.154869,0.26 0.327025,0.59302 0.449792,1.30881 0.344664,1.98649" />
    <path
       id="path4308"
       style="fill:#caa77a;fill-opacity:1;fill-rule:nonzero;stroke:none;stroke-width:0.0352778"
       d="m 15.865356,65.765354 c -0.347839,2.28459 -2.407356,3.59939 -5.311423,2.03059 -0.157691,-0.085 -0.300919,-0.17851 -0.420864,-0.272 -0.05539,-0.0815 -0.105127,-0.16651 -0.14605,-0.254 0.0702,0.0466 0.143228,0.0907 0.225073,0.13441 2.904066,1.56881 4.963583,0.25118 5.311422,-2.03059 0.105128,-0.67768 -0.01764,-1.39347 -0.344664,-1.98649 0.06421,0.0409 0.125589,0.0847 0.189795,0.13124 0.440972,0.63993 0.619477,1.46685 0.496711,2.24684" />
    <path
       id="path4310"
       style="fill:#c59a69;fill-opacity:1;fill-rule:nonzero;stroke:none;stroke-width:0.0352778"
       d="m 15.523514,65.373764 c -0.347839,2.28177 -2.407356,3.5994 -5.311422,2.03059 -0.08185,-0.0437 -0.15487,-0.0878 -0.225073,-0.13441 -1.189214,-2.3696 2.147359,-5.90726 5.191831,-3.88267 0.327025,0.59302 0.449792,1.30881 0.344664,1.98649" />
    <path
       id="path4312"
       style="fill:#69381f;fill-opacity:1;fill-rule:nonzero;stroke:none;stroke-width:0.0352778"
       d="m 51.457109,88.220714 c -1.17757,1.31234 1.88595,2.25178 4.82141,2.00166 2.16288,-0.1785 3.57823,-0.59196 4.37692,-1.08161 -0.60431,0.67486 -1.96215,1.69862 -4.74345,1.9311 -3.25367,0.27587 -6.82378,-1.32397 -4.45488,-2.85115" />
    <path
       id="path4314"
       style="fill:#7a492a;fill-opacity:1;fill-rule:nonzero;stroke:none;stroke-width:0.0352778"
       d="m 60.934839,88.637344 c -0.0385,0.16793 -0.13335,0.33796 -0.28152,0.50377 -0.79692,0.4886 -2.20945,0.90276 -4.37515,1.08126 -2.84198,0.24095 -5.80037,-0.63006 -4.91596,-1.87783 0.0222,-0.0402 0.0579,-0.0829 0.0949,-0.12453 0.0575,-0.0423 0.13194,-0.0889 0.20708,-0.12983 5.03484,-2.78306 9.68093,-1.13594 9.27065,0.54716" />
    <path
       id="path4316"
       style="fill:#936b46;fill-opacity:1;fill-rule:nonzero;stroke:none;stroke-width:0.0352778"
       d="m 60.934839,88.637344 c 0.41028,-1.6831 -4.23581,-3.33022 -9.27065,-0.54716 -0.0751,0.0409 -0.14958,0.0875 -0.20708,0.12983 -0.037,0.0416 -0.0727,0.0843 -0.0949,0.12453 0.0233,-0.14641 0.10337,-0.30022 0.24554,-0.46108 0.0617,-0.0434 0.13229,-0.0889 0.21166,-0.13088 5.37175,-2.96863 10.30111,-0.89394 9.11543,0.88476" />
    <path
       id="path4318"
       style="fill:#8f633f;fill-opacity:1;fill-rule:nonzero;stroke:none;stroke-width:0.0352778"
       d="m 60.934839,88.637344 c -0.0335,0.055 -0.0769,0.11078 -0.1263,0.16616 -0.80116,0.48966 -2.21403,0.90347 -4.37938,1.08232 -2.57986,0.21908 -5.25463,-0.47907 -5.06695,-1.54128 0.0222,-0.0402 0.0579,-0.0829 0.0949,-0.12453 0.0575,-0.0423 0.13194,-0.0889 0.20708,-0.12983 5.03484,-2.78306 9.68093,-1.13594 9.27065,0.54716" />
    <path
       id="path4320"
       style="fill:#b38050;fill-opacity:1;fill-rule:nonzero;stroke:none;stroke-width:0.0352778"
       d="m 42.363559,15.508626 c 0.11747,-0.497417 0.13123,-0.931334 0.0889,-1.210028 -0.28223,-1.735667 -2.94817,-6.3746946 -8.98525,1.210028 -0.48296,0.610305 -0.84244,1.188861 -1.06857,1.718028 0.4639,-6.39939 3.84916,-8.8864726 6.62799,-8.3008616 1.90147,0.402167 3.51896,2.6493606 3.72322,4.4414726 0.0504,0.4445 -0.0145,1.259416 -0.38629,2.141361" />
    <path
       id="path4322"
       style="fill:#d2a877;fill-opacity:1;fill-rule:nonzero;stroke:none;stroke-width:0.0352778"
       d="m 32.332669,17.925154 c -7e-4,-0.155223 0.0116,-0.3175 0.0339,-0.483306 0.002,-0.0635 0.0205,-0.141111 0.0332,-0.215194 3.74791,-11.7263336 11.12379,-5.584473 9.96491,-1.718028 -0.0391,0.09172 -0.0744,0.169333 -0.11394,0.254 l -0.003,0.0071 c -0.12276,0.261056 -0.2667,0.515056 -0.43145,0.758473 -3.60221,5.284611 -9.45515,4.773083 -9.48337,1.397" />
    <path
       id="path4324"
       style="fill:#e4c9a3;fill-opacity:1;fill-rule:nonzero;stroke:none;stroke-width:0.0352778"
       d="m 32.143229,18.475487 c 0.002,-0.0635 0.0201,-0.141111 0.0303,-0.211667 0.048,-0.112889 0.10054,-0.22225 0.1591,-0.338666 0.0282,3.376083 5.88116,3.887611 9.48337,-1.397 0.16475,-0.243417 0.30869,-0.497417 0.43145,-0.758473 -0.007,0.225778 -0.0416,0.490361 -0.10901,0.776111 -0.0374,0.0882 -0.0716,0.165806 -0.115,0.254001 -0.12171,0.261055 -0.26459,0.515055 -0.4318,0.762 -3.76555,5.528028 -9.99596,4.716639 -9.44845,0.913694" />
    <path
       id="path4326"
       style="fill:#dbb88d;fill-opacity:1;fill-rule:nonzero;stroke:none;stroke-width:0.0352778"
       d="m 32.332669,17.925154 c 0.22225,-0.433917 0.61031,-0.843139 0.90911,-1.379362 5.26486,-9.4156386 8.70338,-2.949222 8.98737,-1.213555 0.0159,0.119944 0.0233,0.268111 0.0183,0.437444 -0.12276,0.261056 -0.2667,0.515056 -0.43145,0.758473 -3.60221,5.284611 -9.45515,4.773083 -9.48337,1.397" />
    <path
       id="path4328"
       style="fill:#b0895b;fill-opacity:1;fill-rule:nonzero;stroke:none;stroke-width:0.0352778"
       d="m 80.310809,43.617254 c -3.45829,0.40111 -3.46499,-3.25896 -0.93698,-3.73874 3.65548,-0.69497 2.57739,3.54824 0.93698,3.73874" />
    <path
       id="path4330"
       style="fill:#b0895b;fill-opacity:1;fill-rule:nonzero;stroke:none;stroke-width:0.0352778"
       d="m 79.465899,35.652234 c 1.63195,-1.10772 2.59504,0.72673 1.45098,1.63337 -1.65347,1.30527 -2.22497,-1.10773 -1.45098,-1.63337" />
    <path
       id="path4332"
       style="fill:#b0895b;fill-opacity:1;fill-rule:nonzero;stroke:none;stroke-width:0.0352778"
       d="m 76.092289,35.595794 c 1.25201,-0.85019 1.99108,0.56092 1.11337,1.25236 -1.26895,1.00542 -1.70745,-0.85019 -1.11337,-1.25236" />
    <path
       id="path4334"
       style="fill:#b0895b;fill-opacity:1;fill-rule:nonzero;stroke:none;stroke-width:0.0352778"
       d="m 79.280339,32.381984 c 0.86819,-0.58913 1.38042,0.38806 0.77188,0.87137 -0.87948,0.69497 -1.18357,-0.58914 -0.77188,-0.87137" />
    <path
       id="path4336"
       style="fill:#b0895b;fill-opacity:1;fill-rule:nonzero;stroke:none;stroke-width:0.0352778"
       d="m 76.935779,26.991544 c 0.66358,-0.45156 1.05516,0.29633 0.5902,0.66322 -0.6724,0.5327 -0.90488,-0.45155 -0.5902,-0.66322" />
    <path
       id="path4338"
       style="fill:#b0895b;fill-opacity:1;fill-rule:nonzero;stroke:none;stroke-width:0.0352778"
       d="m 42.579809,79.836954 c 1.42381,-3.87209 5.29907,-1.92335 4.45664,1.00788 -1.21814,4.23792 -5.13221,0.82938 -4.45664,-1.00788" />
    <path
       id="path4340"
       style="fill:#b0895b;fill-opacity:1;fill-rule:nonzero;stroke:none;stroke-width:0.0352778"
       d="m 49.673459,77.828944 c 1.63195,-1.10808 2.59504,0.72848 1.45133,1.63301 -1.65382,1.30739 -2.22532,-1.10737 -1.45133,-1.63301" />
    <path
       id="path4342"
       style="fill:#b0895b;fill-opacity:1;fill-rule:nonzero;stroke:none;stroke-width:0.0352778"
       d="m 54.392219,77.644434 c 1.25201,-0.85019 1.99108,0.5588 1.11337,1.25272 -1.26859,1.0033 -1.70709,-0.84949 -1.11337,-1.25272" />
    <path
       id="path4344"
       style="fill:#b0895b;fill-opacity:1;fill-rule:nonzero;stroke:none;stroke-width:0.0352778"
       d="m 52.015199,74.695924 c 0.86819,-0.58949 1.38042,0.38735 0.77188,0.86854 -0.87947,0.69567 -1.18357,-0.58914 -0.77188,-0.86854" />
    <path
       id="path4346"
       style="fill:#b0895b;fill-opacity:1;fill-rule:nonzero;stroke:none;stroke-width:0.0352778"
       d="m 41.278409,76.559644 c 0.66358,-0.45049 1.05516,0.29634 0.58985,0.66393 -0.6724,0.53199 -0.90488,-0.45014 -0.58985,-0.66393" />
    <path
       id="path4348"
       style="fill:#b0895b;fill-opacity:1;fill-rule:nonzero;stroke:none;stroke-width:0.0352778"
       d="m 54.185849,75.599384 c 0.66357,-0.4505 1.05515,0.29633 0.59019,0.66393 -0.67274,0.53199 -0.90523,-0.45015 -0.59019,-0.66393" />
    <path
       id="path4350"
       style="fill:#b0895b;fill-opacity:1;fill-rule:nonzero;stroke:none;stroke-width:0.0352778"
       d="m 37.917499,82.785114 c 0.86466,-0.58702 1.37477,0.38594 0.7687,0.86537 -0.87595,0.6925 -1.17898,-0.58667 -0.7687,-0.86537" />
    <path
       id="path4352"
       style="fill:#dcbe93;fill-opacity:1;fill-rule:nonzero;stroke:none;stroke-width:0.0352778"
       d="m 19.002609,51.776654 c -4.077406,0.40111 -4.08552,-3.25896 -1.10455,-3.7398 4.30954,-0.69532 3.03848,3.54965 1.10455,3.7398" />
    <path
       id="path4354"
       style="fill:#dcbe93;fill-opacity:1;fill-rule:nonzero;stroke:none;stroke-width:0.0352778"
       d="m 53.872229,12.778126 c -3.45828,0.402166 -3.46499,-3.2596666 -0.93663,-3.7394446 3.65513,-0.694972 2.57704,3.5489446 0.93663,3.7394446" />
    <path
       id="path4356"
       style="fill:#dcbe93;fill-opacity:1;fill-rule:nonzero;stroke:none;stroke-width:0.0352778"
       d="m 51.499089,14.824237 c 1.63195,-1.107722 2.59503,0.73025 1.45097,1.633361 -1.65346,1.308806 -2.22496,-1.107722 -1.45097,-1.633361" />
    <path
       id="path4358"
       style="fill:#dcbe93;fill-opacity:1;fill-rule:nonzero;stroke:none;stroke-width:0.0352778"
       d="m 21.743689,45.171244 c 1.42558,-1.30669 2.46557,0.073 1.47673,1.0989 -1.42981,1.48343 -2.153,-0.47907 -1.47673,-1.0989" />
    <path
       id="path4360"
       style="fill:#dcbe93;fill-opacity:1;fill-rule:nonzero;stroke:none;stroke-width:0.0352778"
       d="m 26.757719,43.480734 c 1.09291,-1.05693 2.13255,0.32279 1.38642,1.16663 -1.07844,1.21956 -1.905,-0.66498 -1.38642,-1.16663" />
    <path
       id="path4362"
       style="fill:#dcbe93;fill-opacity:1;fill-rule:nonzero;stroke:none;stroke-width:0.0352778"
       d="m 24.067439,41.506934 c 0.72778,-0.70414 1.41993,0.21485 0.92322,0.77647 -0.71826,0.81245 -1.26859,-0.44274 -0.92322,-0.77647" />
  </g>
</svg>
