<?xml version="1.0" encoding="UTF-8" standalone="no"?>
<!-- Created with Inkscape (http://www.inkscape.org/) -->

<svg
   width="100"
   height="100"
   viewBox="0 0 26.458333 26.458333"
   version="1.1"
   id="svg13353"
   sodipodi:docname="asteroid-bit-2.svg"
   inkscape:version="1.2.1 (9c6d41e410, 2022-07-14)"
   xmlns:inkscape="http://www.inkscape.org/namespaces/inkscape"
   xmlns:sodipodi="http://sodipodi.sourceforge.net/DTD/sodipodi-0.dtd"
   xmlns="http://www.w3.org/2000/svg"
   xmlns:svg="http://www.w3.org/2000/svg">
  <sodipodi:namedview
     id="namedview13355"
     pagecolor="#505050"
     bordercolor="#ffffff"
     borderopacity="1"
     inkscape:showpageshadow="0"
     inkscape:pageopacity="0"
     inkscape:pagecheckerboard="1"
     inkscape:deskcolor="#505050"
     inkscape:document-units="px"
     showgrid="false"
     inkscape:zoom="2.9825758"
     inkscape:cx="49.118618"
     inkscape:cy="14.75235"
     inkscape:window-width="1920"
     inkscape:window-height="1017"
     inkscape:window-x="-8"
     inkscape:window-y="-8"
     inkscape:window-maximized="1"
     inkscape:current-layer="layer1" />
  <defs
     id="defs13350" />
  <g
     inkscape:label="Warstwa 1"
     inkscape:groupmode="layer"
     id="layer1"
     transform="translate(-118.36781,-110.25781)">
    <path
       d="m 144.21236,129.54552 c -0.59519,1.96015 -1.76606,3.32911 -2.95642,4.41032 -1.37088,1.25231 -2.86861,2.26334 -4.43951,2.45779 -1.44893,0.17904 -2.88812,-0.31867 -4.33218,-0.59885 -1.21963,-0.24121 -2.44904,-0.32661 -3.67357,-0.24882 -2.35146,0.14773 -4.82979,0.84013 -6.97636,-0.70783 -0.72203,-0.52115 -1.37087,-1.29121 -1.89776,-2.23238 2.58564,0.46668 5.56157,-1.20566 8.13258,-6.27713 3.44916,-6.80606 6.77635,-2.83132 7.66913,-8.31507 l 0.0147,-0.12435 c 2.08315,1.80456 4.21509,3.43803 6.45435,4.69812 0.46835,0.25667 0.95621,0.50558 1.35626,0.98786 1.10255,1.29896 1.24891,3.99029 0.64884,5.95043"
       style="fill:#7e5130;fill-opacity:1;fill-rule:nonzero;stroke:none;stroke-width:0.0616014"
       id="path3874" />
    <path
       d="m 135.7529,117.90911 -0.0147,0.12436 c -0.89277,5.48374 -4.21997,1.509 -7.66913,8.31506 -2.57101,5.07148 -5.54693,6.74381 -8.13258,6.27713 -0.3415,-0.60672 -0.63909,-1.27566 -0.86351,-2.00682 -0.97572,-3.13469 -0.17563,-5.62374 0.89278,-8.30728 0.37565,-0.94896 0.66349,-1.89014 0.87814,-2.96354 0.31223,-1.55568 0.26832,-3.3447 0.72691,-4.82257 0.54153,-1.73458 1.78556,-2.57464 2.94178,-3.19691 1.02938,-0.55225 2.13194,-1.06564 3.18571,-0.66115 0.60007,0.23334 1.13184,0.7467 1.65873,1.2523 2.11241,2.03794 4.22484,4.10698 6.3958,5.98933"
       style="fill:#9e6f43;fill-opacity:1;fill-rule:nonzero;stroke:none;stroke-width:0.0616014"
       id="path3876" />
  </g>
</svg>
