<?xml version="1.0" encoding="UTF-8" standalone="no"?>
<!-- Created with Inkscape (http://www.inkscape.org/) -->

<svg
   width="100"
   height="100"
   viewBox="0 0 26.458333 26.458333"
   version="1.1"
   id="svg13353"
   sodipodi:docname="asteroid-bit-1.svg"
   inkscape:version="1.2.1 (9c6d41e410, 2022-07-14)"
   xmlns:inkscape="http://www.inkscape.org/namespaces/inkscape"
   xmlns:sodipodi="http://sodipodi.sourceforge.net/DTD/sodipodi-0.dtd"
   xmlns="http://www.w3.org/2000/svg"
   xmlns:svg="http://www.w3.org/2000/svg">
  <sodipodi:namedview
     id="namedview13355"
     pagecolor="#505050"
     bordercolor="#ffffff"
     borderopacity="1"
     inkscape:showpageshadow="0"
     inkscape:pageopacity="0"
     inkscape:pagecheckerboard="1"
     inkscape:deskcolor="#505050"
     inkscape:document-units="px"
     showgrid="false"
     inkscape:zoom="2.9825758"
     inkscape:cx="49.118618"
     inkscape:cy="14.75235"
     inkscape:window-width="1920"
     inkscape:window-height="1017"
     inkscape:window-x="-8"
     inkscape:window-y="-8"
     inkscape:window-maximized="1"
     inkscape:current-layer="layer1" />
  <defs
     id="defs13350" />
  <g
     inkscape:label="Warstwa 1"
     inkscape:groupmode="layer"
     id="layer1"
     transform="translate(-118.36781,-110.25781)">
    <path
       d="m 144.12564,126.28636 c -3.90691,15.16001 -16.96349,11.14366 -22.73048,2.32131 0.85462,-1.11642 1.61591,-2.24644 2.46337,-2.48469 1.75953,-0.48332 11.22518,4.17292 9.73854,-1.1028 -2.66445,-9.44863 1.99656,-5.86115 4.52455,-8.35944 0.4381,-0.42205 0.69665,-0.90539 0.81155,-1.42956 3.41856,1.61336 6.86583,4.54733 5.19247,11.05518"
       style="fill:#7e5130;fill-opacity:1;fill-rule:nonzero;stroke:none;stroke-width:0.069921"
       id="path3880" />
    <path
       d="m 133.59707,125.02018 c 1.48664,5.27572 -7.97901,0.61948 -9.73854,1.1028 -0.84746,0.23825 -1.60875,1.36827 -2.46337,2.48469 -2.65728,-4.08443 -3.76329,-9.19676 -1.6662,-13.92108 3.23182,-7.29069 10.38493,-3.17903 14.44267,-1.30019 0.99827,0.4629 2.87273,0.94622 4.76154,1.84478 -0.11482,0.52417 -0.37345,1.00751 -0.81155,1.42956 -2.52799,2.49829 -7.189,-1.08919 -4.52455,8.35944"
       style="fill:#9e6f43;fill-opacity:1;fill-rule:nonzero;stroke:none;stroke-width:0.069921"
       id="path3882" />
  </g>
</svg>
