<?xml version="1.0" encoding="UTF-8" standalone="no"?>
<!-- Created with Inkscape (http://www.inkscape.org/) -->

<svg
   width="100"
   height="100"
   viewBox="0 0 26.458333 26.458333"
   version="1.1"
   id="svg12188"
   inkscape:version="1.2.1 (9c6d41e410, 2022-07-14)"
   sodipodi:docname="asteroid-whole-8.svg"
   xmlns:inkscape="http://www.inkscape.org/namespaces/inkscape"
   xmlns:sodipodi="http://sodipodi.sourceforge.net/DTD/sodipodi-0.dtd"
   xmlns="http://www.w3.org/2000/svg"
   xmlns:svg="http://www.w3.org/2000/svg">
  <sodipodi:namedview
     id="namedview12190"
     pagecolor="#505050"
     bordercolor="#ffffff"
     borderopacity="1"
     inkscape:showpageshadow="0"
     inkscape:pageopacity="0"
     inkscape:pagecheckerboard="1"
     inkscape:deskcolor="#505050"
     inkscape:document-units="px"
     showgrid="false"
     inkscape:zoom="0.74564394"
     inkscape:cx="333.26899"
     inkscape:cy="333.93955"
     inkscape:window-width="1920"
     inkscape:window-height="1017"
     inkscape:window-x="-8"
     inkscape:window-y="-8"
     inkscape:window-maximized="1"
     inkscape:current-layer="layer1" />
  <defs
     id="defs12185" />
  <g
     inkscape:label="Warstwa 1"
     inkscape:groupmode="layer"
     id="layer1"
     transform="translate(-17.404301,-60.625271)">
    <path
       d="m 41.811453,79.890891 c -2.667273,4.019275 -8.217654,7.539085 -12.275645,6.838766 -4.372242,-0.754825 -7.8958,-2.901247 -9.831538,-6.663658 3.204827,-0.402055 7.668155,3.545785 9.816335,3.414861 1.317686,-0.08048 2.274152,-1.072572 3.016547,-2.006449 2.582432,-3.257843 3.488671,-1.924577 5.044728,-2.554855 1.885511,-0.765262 1.123433,-3.278717 2.631028,-4.37715 0.76968,-0.561624 3.077226,-0.85212 2.131484,-3.471452 1.519676,2.152451 2.000895,5.005687 -0.532939,8.819937"
       style="fill:#7e5130;fill-opacity:1;fill-rule:nonzero;stroke:none;stroke-width:0.0125467"
       id="path4340" />
    <path
       d="m 40.212908,74.542406 c -1.507595,1.098433 -0.745517,3.611888 -2.631028,4.37715 -1.556057,0.630278 -2.462296,-0.702988 -5.044728,2.554855 -0.742395,0.933877 -1.698861,1.925968 -3.016547,2.006449 -2.14818,0.130924 -6.611508,-3.816916 -9.816335,-3.414861 -0.629997,-1.222983 -1.09004,-2.615968 -1.358681,-4.1865 -0.08959,-0.527881 -0.204977,-1.088114 -0.315881,-1.67699 1.818724,1.003922 2.594648,0.919614 4.134008,0.588876 6.833181,-1.469408 5.450065,-1.307288 8.947967,0.04152 3.649531,1.405858 3.901611,-1.421516 4.555907,-2.350058 1.12642,-1.596277 2.841978,-1.120583 3.740752,-1.494226 0.661897,-0.27484 1.139995,-0.993832 1.200809,-1.798638 0.643707,0.558958 1.243433,1.182856 1.735241,1.880974 0.945742,2.619332 -1.361804,2.909828 -2.131484,3.471452"
       style="fill:#9e6f43;fill-opacity:1;fill-rule:nonzero;stroke:none;stroke-width:0.0125467"
       id="path4342" />
    <path
       d="m 40.609151,69.18998 c -0.06081,0.804806 -0.538912,1.523798 -1.200809,1.798638 -0.898774,0.373643 -2.614332,-0.102051 -3.740752,1.494226 -0.654296,0.928542 -0.906376,3.755916 -4.555907,2.350058 -3.497902,-1.348805 -2.114786,-1.510925 -8.947967,-0.04152 -1.53936,0.330738 -2.315284,0.415046 -4.134008,-0.588876 -0.29294,-1.567981 -0.546514,-3.344933 -0.176063,-5.261857 h 0.0015 c 1.282935,-0.218016 2.667408,-0.705075 3.807539,-0.357176 1.231216,0.374571 2.102705,1.613092 3.405187,1.527277 1.222122,-0.08234 1.841531,-1.24084 2.55664,-2.090873 1.63954,-1.942436 5.29518,-2.072319 6.058751,-3.780503 0.733299,0.556639 1.4104,1.101681 2.016235,1.564386 0.985244,0.7561 3.112112,1.819512 4.90966,3.386217"
       style="fill:#bf9460;fill-opacity:1;fill-rule:nonzero;stroke:none;stroke-width:0.0125467"
       id="path4344" />
    <path
       d="m 33.683255,64.238218 v 0.0011 c -0.763571,1.708184 -4.41921,1.838067 -6.05875,3.780503 -0.71511,0.850033 -1.334519,2.008537 -2.55664,2.090873 -1.302483,0.08582 -2.173972,-1.152706 -3.405188,-1.527277 -1.14013,-0.347899 -2.524603,0.13916 -3.807538,0.357176 0.33407,-1.730217 1.176646,-3.572922 2.95899,-5.477089 4.498215,-4.805645 9.344075,-1.89489 12.869126,0.774655"
       style="fill:#d3ae7e;fill-opacity:1;fill-rule:nonzero;stroke:none;stroke-width:0.0125467"
       id="path4346" />
    <path
       d="m 23.121404,68.080182 c 2.084786,-0.509092 0.81977,1.558588 2.286098,1.025143 0.737236,-0.267883 1.526599,-0.616941 2.368088,-1.838067 0.632169,-0.917294 0.520722,-1.979545 0.620767,-2.692738 0.136696,-0.976437 0.987551,-1.115596 0.987551,-1.948235 0,-1.201411 -3.576906,-2.248587 -4.603824,-0.569394 -0.66502,1.087764 0.01697,1.34289 -2.406912,2.046805 -3.735458,1.086605 -3.490165,5.010906 0.748232,3.976486"
       style="fill:#dbba8e;fill-opacity:1;fill-rule:nonzero;stroke:none;stroke-width:0.0125467"
       id="path4348" />
    <path
       d="m 21.586931,72.615278 c -0.07914,-0.03525 -0.171854,-0.05822 -0.269592,-0.06761 -0.26932,-0.02285 -0.57339,0.05323 -0.821398,0.182763 -0.03163,0.01658 -0.0638,0.03456 -0.09339,0.05358 -0.199276,0.09208 -0.346017,0.252806 -0.382397,0.409825 -0.03882,0.1627 0.02769,0.315312 0.155429,0.430119 -0.0266,-0.01287 -0.05199,-0.02621 -0.07534,-0.04163 -0.184614,-0.118286 -0.292261,-0.301397 -0.246515,-0.497728 0.03624,-0.157018 0.184479,-0.318327 0.381718,-0.41052 0.03149,-0.0189 0.06244,-0.0363 0.09529,-0.05346 0.248008,-0.129534 0.550178,-0.20584 0.820177,-0.182183 0.178642,0.01577 0.338822,0.07967 0.436016,0.176849"
       style="fill:#9b6439;fill-opacity:1;fill-rule:nonzero;stroke:none;stroke-width:0.0125467"
       id="path4350" />
    <path
       d="m 21.682361,72.784936 c 0.02851,0.150872 -0.05878,0.320995 -0.20742,0.459807 l -0.02905,0.02714 c -0.167375,0.143566 -0.390406,0.249444 -0.621853,0.326097 -0.174841,0.05787 -0.368957,0.100543 -0.531717,0.06587 -0.02063,-0.0035 -0.04032,-0.0089 -0.05905,-0.01577 l -0.0015,-5.92e-4 c -0.02022,-0.0073 -0.03896,-0.01496 -0.05674,-0.02389 -0.127737,-0.114691 -0.193438,-0.266723 -0.155429,-0.429308 0.03652,-0.157482 0.184343,-0.31798 0.382261,-0.410057 0.03095,-0.01913 0.06204,-0.03734 0.09366,-0.05381 0.248686,-0.129418 0.55235,-0.206072 0.82167,-0.182763 0.09842,0.0088 0.190588,0.03247 0.269863,0.06796 l 1.36e-4,8.22e-4 c 0.03326,0.0327 0.05864,0.06819 0.07507,0.107849 0.01032,0.01937 0.01656,0.03966 0.02009,0.06065"
       style="fill:#b78551;fill-opacity:1;fill-rule:nonzero;stroke:none;stroke-width:0.0125467"
       id="path4352" />
    <path
       d="m 21.836975,72.9234 c 0.02864,0.150756 -0.05742,0.320647 -0.206062,0.459459 l -0.03041,0.02748 c -0.166018,0.143103 -0.390406,0.249444 -0.621853,0.326098 -0.174841,0.05787 -0.369093,0.0995 -0.530359,0.06552 -0.04303,-0.0084 -0.08186,-0.0225 -0.117149,-0.04024 -0.0395,-0.03491 -0.07249,-0.07236 -0.09787,-0.113646 0.01873,0.0068 0.03842,0.01229 0.05905,0.01577 0.16276,0.03467 0.356877,-0.008 0.531718,-0.06587 0.231446,-0.07665 0.454477,-0.182531 0.621852,-0.326097 l 0.02905,-0.02714 c 0.148642,-0.138812 0.235926,-0.308935 0.20742,-0.459807 -0.0035,-0.02099 -0.0098,-0.04128 -0.02009,-0.06065 0.02755,0.0083 0.05389,0.01797 0.07914,0.02887 l 0.0016,4.6e-4 c 0.0486,0.04975 0.08172,0.106225 0.09394,0.169774"
       style="fill:#caa77a;fill-opacity:1;fill-rule:nonzero;stroke:none;stroke-width:0.0125467"
       id="path4354" />
    <path
       d="m 21.682361,72.784936 c 0.02851,0.150872 -0.05878,0.320995 -0.20742,0.459807 l -0.02905,0.02714 c -0.167375,0.143566 -0.390406,0.249444 -0.621853,0.326097 -0.174841,0.05787 -0.368957,0.100543 -0.531717,0.06587 -0.02063,-0.0035 -0.04032,-0.0089 -0.05905,-0.01577 l -0.0015,-5.92e-4 c -0.05918,-0.09463 -0.08335,-0.202709 -0.05633,-0.316008 0.03665,-0.156555 0.182985,-0.317632 0.382532,-0.409129 0.02945,-0.01879 0.06204,-0.03734 0.09353,-0.05381 0.247329,-0.129186 0.551128,-0.205724 0.820313,-0.182415 0.06665,0.0063 0.130587,0.01879 0.190451,0.03815 0.01032,0.01937 0.01656,0.03966 0.02009,0.06065"
       style="fill:#c59a69;fill-opacity:1;fill-rule:nonzero;stroke:none;stroke-width:0.0125467"
       id="path4356" />
    <path
       d="m 28.234955,81.308577 c 0.01018,0.01183 0.0209,0.02239 0.03326,0.03317 0.949951,0.832755 1.950398,0.07329 1.784924,-0.498194 0.48407,0.56267 -0.631219,1.599292 -1.686101,0.676434 -0.06991,-0.0617 -0.113212,-0.134638 -0.132081,-0.211408"
       style="fill:#824a29;fill-opacity:1;fill-rule:nonzero;stroke:none;stroke-width:0.0125467"
       id="path4358" />
    <path
       d="m 28.982779,80.524762 c 0.464116,-0.0053 0.773481,0.08326 0.959181,0.217901 0.04303,0.0305 0.07914,0.06436 0.109683,0.0995 l 0.0015,9.86e-4 c 0.165338,0.572064 -0.835381,1.331412 -1.784924,0.498309 -0.01208,-0.01055 -0.02267,-0.02124 -0.03326,-0.03294 l -0.0024,-0.01716 c -0.06611,-0.34036 0.317374,-0.762595 0.750268,-0.766537"
       style="fill:#986339;fill-opacity:1;fill-rule:nonzero;stroke:none;stroke-width:0.0125467"
       id="path4360" />
    <path
       d="m 28.867802,80.409373 c 0.570676,-0.006 0.908277,0.128955 1.068864,0.317284 l 0.0015,0.002 0.0038,0.01404 c -0.185701,-0.134638 -0.495066,-0.223236 -0.959182,-0.217901 -0.432893,0.0039 -0.816376,0.426177 -0.750268,0.766537 -0.02674,-0.02005 -0.05375,-0.04221 -0.07914,-0.06436 -0.01208,-0.0116 -0.02267,-0.02225 -0.03339,-0.03398 -0.08185,-0.342796 0.307872,-0.779291 0.747825,-0.783584"
       style="fill:#af885a;fill-opacity:1;fill-rule:nonzero;stroke:none;stroke-width:0.0125467"
       id="path4362" />
    <path
       d="m 28.982779,80.524762 c 0.464116,-0.0053 0.773481,0.08326 0.959181,0.217901 0.141447,0.553853 -0.793706,1.268787 -1.709449,0.548636 -0.06611,-0.34036 0.317374,-0.762596 0.750268,-0.766537"
       style="fill:#a97c4f;fill-opacity:1;fill-rule:nonzero;stroke:none;stroke-width:0.0125467"
       id="path4364" />
    <path
       d="m 31.34856,73.084129 c -0.606241,-0.620767 0.505382,-1.261249 1.39927,-0.786715 0.208506,0.125128 0.338414,0.257909 0.403029,0.389415 -0.06814,-0.07144 -0.155836,-0.139856 -0.269048,-0.207928 -0.807553,-0.428959 -1.789403,0.05276 -1.533251,0.605228"
       style="fill:#9b6439;fill-opacity:1;fill-rule:nonzero;stroke:none;stroke-width:0.0125467"
       id="path4366" />
    <path
       d="M 31.834938,73.399326 C 31.717246,73.35236 31.597382,73.28997 31.484985,73.205083 l -0.03339,-0.02586 c -0.04018,-0.03085 -0.07439,-0.06181 -0.103846,-0.09579 -0.255338,-0.552348 0.726512,-1.033492 1.533658,-0.604881 0.114298,0.06888 0.201175,0.136725 0.269048,0.20874 l 0.006,0.016 c 0.240543,0.523472 -0.550042,0.993484 -1.321487,0.69603"
       style="fill:#b78551;fill-opacity:1;fill-rule:nonzero;stroke:none;stroke-width:0.0125467"
       id="path4368" />
    <path
       d="m 31.978557,73.535934 c -0.130452,-0.05184 -0.262125,-0.122576 -0.385247,-0.220452 -0.04018,-0.03085 -0.07439,-0.06193 -0.101945,-0.09556 l -0.0064,-0.01484 c 0.112398,0.08489 0.232262,0.147277 0.349953,0.194243 0.771445,0.297454 1.56203,-0.172558 1.321487,-0.69603 0.05403,0.03955 0.09815,0.07851 0.137919,0.11933 0.260496,0.530778 -0.53674,1.012037 -1.315786,0.713309"
       style="fill:#caa77a;fill-opacity:1;fill-rule:nonzero;stroke:none;stroke-width:0.0125467"
       id="path4370" />
    <path
       d="m 31.834938,73.399326 c -0.117692,-0.04697 -0.237556,-0.109356 -0.349953,-0.194243 -0.233076,-0.545854 0.737915,-1.015286 1.540038,-0.589921 0.0486,0.02853 0.09312,0.05764 0.131402,0.08813 0.240542,0.523472 -0.550042,0.993483 -1.321487,0.69603"
       style="fill:#c59a69;fill-opacity:1;fill-rule:nonzero;stroke:none;stroke-width:0.0125467"
       id="path4372" />
    <path
       d="m 24.92859,84.075304 c -0.0167,0.04534 -0.01154,0.100076 0.02131,0.163744 0.01099,0.02124 0.02389,0.04267 0.03896,0.06448 0.222759,0.324592 1.326509,0.819534 1.623657,0.598389 -0.132895,0.410171 -1.412029,0.08883 -1.701711,-0.240981 -0.171719,-0.195403 -0.05701,-0.526835 0.01778,-0.585627"
       style="fill:#69381f;fill-opacity:1;fill-rule:nonzero;stroke:none;stroke-width:0.0125467"
       id="path4374" />
    <path
       d="m 26.607632,84.721699 c 0.0083,0.0334 0.01289,0.06366 0.0133,0.09173 0.0018,0.03294 -0.002,0.06216 -0.0085,0.08813 C 26.315149,85.122938 25.441487,84.767618 25.1309,84.50217 24.849635,84.262005 24.911535,84.120759 24.928368,84.0753 l 0.0285,-0.01903 c 0.342623,-0.218713 1.473658,-0.02133 1.650807,0.665415"
       style="fill:#7a492a;fill-opacity:1;fill-rule:nonzero;stroke:none;stroke-width:0.0125467"
       id="path4376" />
    <path
       d="m 26.641297,84.618953 c 0.0053,0.07503 0.01819,0.133012 0.0048,0.179865 l -0.02511,0.01459 c -4.24e-4,-0.02807 -0.005,-0.05833 -0.0133,-0.09173 -0.177148,-0.686753 -1.308184,-0.884128 -1.650807,-0.665416 -0.0073,-0.03097 -0.0048,-0.05914 0.0052,-0.08373 0.306378,-0.249212 1.618091,-0.213381 1.679313,0.646395"
       style="fill:#936b46;fill-opacity:1;fill-rule:nonzero;stroke:none;stroke-width:0.0125467"
       id="path4378" />
    <path
       d="m 26.607632,84.721699 c 0.0083,0.0334 0.01289,0.06366 0.0133,0.09173 -0.327555,0.181952 -1.381079,-0.296643 -1.598544,-0.613115 -0.01493,-0.02193 -0.02824,-0.04302 -0.03869,-0.06436 -0.01466,-0.02876 -0.0243,-0.0552 -0.02688,-0.07967 0.342623,-0.218713 1.473659,-0.02133 1.650807,0.665415"
       style="fill:#8f633f;fill-opacity:1;fill-rule:nonzero;stroke:none;stroke-width:0.0125467"
       id="path4380" />
    <path
       d="m 27.98111,71.052399 c -0.216379,-0.156554 -0.554523,-0.227294 -0.959181,-0.114806 -0.208506,0.05798 -0.517057,0.202941 -0.597147,0.425944 -0.06502,0.186358 -0.02579,0.368657 0.07751,0.515586 -0.211221,-0.164904 -0.338958,-0.421421 -0.244207,-0.692087 0.08009,-0.222771 0.388505,-0.367729 0.597011,-0.425712 0.533753,-0.148437 0.957281,0.02435 1.126013,0.291075"
       style="fill:#9b6439;fill-opacity:1;fill-rule:nonzero;stroke:none;stroke-width:0.0125467"
       id="path4382" />
    <path
       d="m 27.094553,72.051449 c -0.190588,0.03444 -0.401401,-0.02725 -0.564839,-0.151684 l -0.02715,-0.02018 c -0.103031,-0.147741 -0.143348,-0.329808 -0.07819,-0.515934 0.0805,-0.223119 0.389591,-0.368077 0.597961,-0.42606 0.403708,-0.113647 0.742395,-0.04291 0.959045,0.114807 l 0.0012,0.0023 c 0.02253,0.03711 0.04032,0.07538 0.05335,0.114691 0.10656,0.32575 -0.137375,0.7314 -0.941399,0.88204"
       style="fill:#b78551;fill-opacity:1;fill-rule:nonzero;stroke:none;stroke-width:0.0125467"
       id="path4384" />
    <path
       d="m 27.188082,72.196175 c -0.20009,0.03641 -0.425021,-0.03444 -0.590903,-0.173022 -0.02715,-0.03838 -0.0509,-0.0799 -0.06746,-0.123388 0.163438,0.124432 0.374251,0.186126 0.564839,0.151684 0.804023,-0.15064 1.047958,-0.55629 0.941398,-0.88204 0.01412,0.0092 0.02715,0.01821 0.04018,0.02737 l 0.0012,0.002 c 0.210814,0.339898 0.01303,0.828463 -0.889272,0.997427"
       style="fill:#caa77a;fill-opacity:1;fill-rule:nonzero;stroke:none;stroke-width:0.0125467"
       id="path4386" />
    <path
       d="m 27.094553,72.051449 c -0.190588,0.03444 -0.401401,-0.02725 -0.564839,-0.151684 -0.04968,-0.119329 -0.05796,-0.254894 -0.01059,-0.391502 0.0805,-0.222539 0.388369,-0.367729 0.596739,-0.425713 0.381311,-0.106688 0.7033,-0.05102 0.920087,0.08686 0.10656,0.32575 -0.137375,0.7314 -0.941399,0.88204"
       style="fill:#c59a69;fill-opacity:1;fill-rule:nonzero;stroke:none;stroke-width:0.0125467"
       id="path4388" />
    <path
       d="m 41.251501,78.39156 c 0.249908,-0.069 0.524794,-0.371322 0.721761,-0.954402 0.10181,-0.299888 0.212442,-0.810257 0.117828,-1.149576 -0.0805,-0.281798 -0.228597,-0.441252 -0.395972,-0.489028 0.252081,-0.05392 0.58588,0.03908 0.702758,0.448441 0.09461,0.339318 -0.01602,0.849803 -0.117692,1.14969 -0.259818,0.768973 -0.737101,1.102956 -1.028683,0.994875"
       style="fill:#69381f;fill-opacity:1;fill-rule:nonzero;stroke:none;stroke-width:0.0125467"
       id="path4390" />
    <path
       d="m 41.182677,76.273901 c 0.100724,-0.242486 0.27285,-0.408666 0.456514,-0.460851 0.01724,-0.008 0.03638,-0.01137 0.05552,-0.01473 0.16819,0.04871 0.315881,0.208275 0.396107,0.489262 0.09489,0.340015 -0.01588,0.850033 -0.117963,1.150502 -0.196696,0.582153 -0.470903,0.884128 -0.721354,0.954054 l -0.0028,-9.86e-4 c -0.05335,-0.02156 -0.103574,-0.05578 -0.147963,-0.103443 -0.260496,-0.273912 -0.339772,-0.986525 0.08199,-2.013868"
       style="fill:#7a492a;fill-opacity:1;fill-rule:nonzero;stroke:none;stroke-width:0.0125467"
       id="path4392" />
    <path
       d="m 40.961004,76.195159 c 0.111312,-0.267302 0.308415,-0.441949 0.513392,-0.475926 0.05796,0.01693 0.112669,0.0465 0.164795,0.09382 -0.183664,0.05218 -0.35579,0.218365 -0.456514,0.460851 -0.421762,1.027343 -0.342486,1.739956 -0.08199,2.013868 -0.02348,0.0096 -0.04683,0.01926 -0.07086,0.02564 l -0.0015,-0.0013 c -0.368415,-0.141713 -0.562124,-0.912306 -0.06733,-2.116966"
       style="fill:#936b46;fill-opacity:1;fill-rule:nonzero;stroke:none;stroke-width:0.0125467"
       id="path4394" />
    <path
       d="m 41.182677,76.273901 c 0.100724,-0.242486 0.27285,-0.408666 0.456514,-0.460851 0.09692,0.07955 0.178506,0.212451 0.231311,0.395445 0.09367,0.34036 -0.01602,0.850033 -0.118098,1.150502 -0.178914,0.528226 -0.420949,0.825099 -0.651717,0.928772 -0.260496,-0.273912 -0.339772,-0.986525 0.08199,-2.013868"
       style="fill:#8f633f;fill-opacity:1;fill-rule:nonzero;stroke:none;stroke-width:0.0125467"
       id="path4396" />
    <path
       d="m 39.153954,69.171425 c -0.388912,0.02899 -0.528188,0.279479 -0.47321,0.488219 -0.183936,-0.220336 -0.08634,-0.598387 0.400586,-0.633177 0.313166,-0.02435 0.543391,0.13916 0.58235,0.327025 -0.09774,-0.115966 -0.28303,-0.198302 -0.509726,-0.182067"
       style="fill:#9b6439;fill-opacity:1;fill-rule:nonzero;stroke:none;stroke-width:0.0125467"
       id="path4398" />
    <path
       d="m 39.669653,69.407997 c 0,0.117126 -0.07751,0.235411 -0.257917,0.316588 -0.329592,0.147277 -0.575699,0.08929 -0.706966,-0.03943 l -0.02389,-0.02551 c -0.05511,-0.208739 0.08348,-0.459227 0.472803,-0.488218 0.226696,-0.01624 0.411582,0.0661 0.509998,0.180907 0.003,0.01855 0.006,0.03827 0.006,0.05566"
       style="fill:#b78551;fill-opacity:1;fill-rule:nonzero;stroke:none;stroke-width:0.0125467"
       id="path4400" />
    <path
       d="m 39.444451,69.80924 c -0.35199,0.156555 -0.606921,0.08118 -0.730721,-0.06494 -0.0045,-0.01971 -0.0075,-0.03827 -0.009,-0.05914 0.131266,0.128723 0.377374,0.186706 0.706965,0.03943 0.180407,-0.08118 0.257917,-0.199462 0.257917,-0.316588 l 0.02688,0.03015 c 0.02837,0.133362 -0.04167,0.27716 -0.25208,0.371092"
       style="fill:#caa77a;fill-opacity:1;fill-rule:nonzero;stroke:none;stroke-width:0.0125467"
       id="path4402" />
    <path
       d="m 39.669653,69.407997 c 0,0.117126 -0.07751,0.235411 -0.257917,0.316588 -0.329592,0.147277 -0.575699,0.08929 -0.706966,-0.03943 -0.01643,-0.194823 0.129774,-0.403563 0.483256,-0.429075 0.207284,-0.01624 0.378731,0.05218 0.481627,0.151916"
       style="fill:#c59a69;fill-opacity:1;fill-rule:nonzero;stroke:none;stroke-width:0.0125467"
       id="path4404" />
    <path
       d="m 27.137313,62.013983 c -0.05091,0.01624 -0.111312,0.0058 -0.171855,0.0046 -0.730856,-0.126403 -1.437142,1.022823 -1.202981,1.465815 -0.640314,-0.546202 0.06177,-2.082756 1.374836,-1.470454"
       style="fill:#b38050;fill-opacity:1;fill-rule:nonzero;stroke:none;stroke-width:0.0125467"
       id="path4406" />
    <path
       d="m 26.406728,63.464722 c -0.21733,0.0835 -0.380903,0.10553 -0.499953,0.0835 h -0.0049 c -0.05647,-0.0116 -0.102217,-0.03131 -0.137918,-0.0603 l -0.0019,-0.0023 c -0.349682,-0.683041 0.2738,-1.696587 1.374836,-1.471613 0.0087,0.01392 0.0152,0.03015 0.02186,0.04523 0.146198,0.360656 -0.136561,1.17126 -0.752033,1.405512"
       style="fill:#d2a877;fill-opacity:1;fill-rule:nonzero;stroke:none;stroke-width:0.0125467"
       id="path4408" />
    <path
       d="m 26.559849,63.557495 c -0.217329,0.08466 -0.381989,0.107849 -0.500902,0.08581 -0.05851,-0.01044 -0.105204,-0.03247 -0.142805,-0.06146 l -9.62e-4,-0.0035 c -0.0048,-0.0093 -0.0095,-0.01971 -0.0133,-0.03015 h 0.0049 c 0.119049,0.02203 0.282623,0 0.499952,-0.0835 0.615472,-0.234252 0.898231,-1.044857 0.752033,-1.405512 0.05185,0.0035 0.09557,0.01971 0.131266,0.04755 0.191673,0.332823 -0.08715,1.20721 -0.730178,1.450739"
       style="fill:#e4c9a3;fill-opacity:1;fill-rule:nonzero;stroke:none;stroke-width:0.0125467"
       id="path4410" />
    <path
       d="m 26.405913,63.515747 c -0.217329,0.0835 -0.380903,0.10553 -0.499816,0.0835 l -0.0049,-0.0012 c -0.187737,-0.465026 0.557916,-1.633966 1.236374,-1.489008 l 0.03814,0.0012 c 0.146199,0.359496 -0.154207,1.17126 -0.769815,1.405512"
       style="fill:#dbb88d;fill-opacity:1;fill-rule:nonzero;stroke:none;stroke-width:0.0125467"
       id="path4412" />
    <path
       d="m 31.531682,78.330796 c 0.226017,0.130809 0.609906,0.174874 1.18289,0.04836 0.63149,-0.138925 0.83891,-0.739282 0.488821,-1.081848 0.510133,0.311718 0.329592,1.024213 -0.365835,1.177753 -0.696513,0.153425 -1.112574,0.0552 -1.305876,-0.14426"
       style="fill:#824a29;fill-opacity:1;fill-rule:nonzero;stroke:none;stroke-width:0.0125467"
       id="path4414" />
    <path
       d="m 32.458012,77.155126 0.0357,-0.0016 c 0.298777,-0.0146 0.528459,0.03954 0.691761,0.133941 l 0.01819,0.0094 c 0.349817,0.342566 0.14199,0.943387 -0.489501,1.081852 -0.572576,0.1264 -0.955923,0.08315 -1.182347,-0.0479 -0.02158,-0.02298 -0.04086,-0.04627 -0.05688,-0.07167 -0.258461,-0.391848 0.176741,-1.049844 0.983072,-1.104116"
       style="fill:#986339;fill-opacity:1;fill-rule:nonzero;stroke:none;stroke-width:0.0125467"
       id="path4416" />
    <path
       d="m 32.375207,77.069777 0.03543,-0.0023 c 0.311944,-0.01437 0.546106,0.04453 0.710087,0.144148 0.0243,0.02446 0.04615,0.04917 0.06475,0.07596 -0.163303,-0.0944 -0.392985,-0.148553 -0.691762,-0.133941 l -0.0357,0.0016 c -0.806331,0.05427 -1.241532,0.712268 -0.983072,1.104116 l -0.0262,-0.0145 c -0.369501,-0.37631 0.06909,-1.118262 0.926466,-1.17497"
       style="fill:#af885a;fill-opacity:1;fill-rule:nonzero;stroke:none;stroke-width:0.0125467"
       id="path4418" />
    <path
       d="m 32.458012,77.155126 0.0357,-0.0016 c 0.298777,-0.0146 0.528459,0.03954 0.691761,0.133941 0.253845,0.348477 0.03339,0.876936 -0.55425,1.006006 -0.550722,0.121187 -0.92701,0.085 -1.156285,-0.03432 -0.25846,-0.391849 0.176741,-1.049844 0.983072,-1.104117"
       style="fill:#a97c4f;fill-opacity:1;fill-rule:nonzero;stroke:none;stroke-width:0.0125467"
       id="path4420" />
    <path
       d="m 23.055431,64.961847 c -0.316559,-0.07074 -0.877055,0.04291 -1.572346,0.638975 -0.800222,0.683042 -0.875833,1.487848 -0.506468,1.780083 -0.615744,-0.151916 -0.914385,-1.262873 0.01561,-2.056083 0.8871,-0.756101 1.781259,-0.599546 2.063203,-0.362975"
       style="fill:#b38050;fill-opacity:1;fill-rule:nonzero;stroke:none;stroke-width:0.0125467"
       id="path4422" />
    <path
       d="m 22.71946,66.694384 c -0.731399,0.571714 -1.30384,0.756101 -1.67497,0.699278 -0.02335,-0.0035 -0.04588,-0.0081 -0.06733,-0.01276 -0.369636,-0.291076 -0.371944,-1.163142 0.428279,-1.847344 0.695562,-0.594907 1.333161,-0.642453 1.649585,-0.570554 l 0.0057,0.0011 c 0.03693,0.03247 0.06964,0.06958 0.09733,0.111328 0.266062,0.400084 0.08661,1.208369 -0.438595,1.61889"
       style="fill:#d2a877;fill-opacity:1;fill-rule:nonzero;stroke:none;stroke-width:0.0125467"
       id="path4424" />
    <path
       d="m 22.889278,66.818469 c -0.776738,0.607663 -1.375107,0.778134 -1.742435,0.68652 -0.03991,-0.03247 -0.0748,-0.06842 -0.102353,-0.111327 0.37113,0.05682 0.943571,-0.127564 1.67497,-0.699278 0.525201,-0.41052 0.704657,-1.218806 0.438595,-1.61889 0.02308,0.0023 0.0452,0.0058 0.06679,0.0116 l 0.0057,0.0012 c 0.396514,0.338622 0.238234,1.277949 -0.341266,1.730218"
       style="fill:#e4c9a3;fill-opacity:1;fill-rule:nonzero;stroke:none;stroke-width:0.0125467"
       id="path4426" />
    <path
       d="m 22.72869,66.730334 c -0.731534,0.571714 -1.30384,0.75726 -1.675105,0.700437 -0.229275,-0.343261 -0.04059,-1.005428 0.673029,-1.614252 0.648187,-0.555478 1.122755,-0.739865 1.440672,-0.703915 0.266062,0.400084 0.08647,1.208369 -0.438596,1.61773"
       style="fill:#dbb88d;fill-opacity:1;fill-rule:nonzero;stroke:none;stroke-width:0.0125467"
       id="path4428" />
    <path
       d="m 25.780803,67.687056 c -0.385926,-0.141478 -0.358233,-1.044857 0.380632,-1.303461 0.245293,-0.102051 0.608685,-0.01276 0.72149,0.08349 -0.113484,-0.04639 -0.36855,-0.04291 -0.557916,0.03479 -0.673572,0.236572 -0.801988,0.953244 -0.544206,1.185176"
       style="fill:#b38050;fill-opacity:1;fill-rule:nonzero;stroke:none;stroke-width:0.0125467"
       id="path4430" />
    <path
       d="m 26.632066,67.36351 c -0.187737,0.147277 -0.349003,0.24237 -0.485292,0.293395 -0.107375,0.04059 -0.19941,0.05566 -0.275292,0.04987 -0.03326,-0.0023 -0.06394,-0.0093 -0.09041,-0.02087 -0.257646,-0.230773 -0.278823,-0.937008 0.53864,-1.222285 0.240541,-0.08118 0.450133,-0.04291 0.563074,0.0035 0.02212,0.0174 0.04099,0.03943 0.05674,0.06262 0.134117,0.193664 0.05837,0.546202 -0.307465,0.833798"
       style="fill:#d2a877;fill-opacity:1;fill-rule:nonzero;stroke:none;stroke-width:0.0125467"
       id="path4432" />
    <path
       d="m 26.77745,67.450485 c -0.187737,0.147277 -0.349139,0.24237 -0.485292,0.293395 -0.154615,0.05914 -0.276921,0.06378 -0.365428,0.03015 -0.02117,-0.01971 -0.04018,-0.04175 -0.05525,-0.06726 0.07588,0.0058 0.167917,-0.0093 0.275292,-0.04987 0.136289,-0.05102 0.297555,-0.146117 0.485292,-0.293395 0.365836,-0.287596 0.441582,-0.640134 0.307465,-0.833797 0.03136,0.0046 0.06109,0.01391 0.08891,0.02435 0.204298,0.170471 0.159502,0.575194 -0.250994,0.89642"
       style="fill:#e4c9a3;fill-opacity:1;fill-rule:nonzero;stroke:none;stroke-width:0.0125467"
       id="path4434" />
    <path
       d="m 26.643605,67.412216 c -0.187737,0.147277 -0.349139,0.24121 -0.485428,0.293395 -0.107239,0.04059 -0.199411,0.05566 -0.275157,0.04871 -0.161266,-0.279479 -0.04127,-0.946285 0.574612,-1.161983 0.144298,-0.0603 0.39122,-0.03015 0.493301,-0.01392 0.134253,0.192504 0.05837,0.546202 -0.307328,0.833798"
       style="fill:#dbb88d;fill-opacity:1;fill-rule:nonzero;stroke:none;stroke-width:0.0125467"
       id="path4436" />
    <path
       d="m 39.563364,73.063604 c 0.23484,0.113763 0.595517,0.09057 0.806059,-0.112952 0.231176,-0.223815 0.185837,-0.484855 0.01968,-0.652426 0.268506,0.140087 0.406152,0.476274 0.119321,0.753433 -0.260089,0.251067 -0.745653,0.22625 -0.945063,0.01195"
       style="fill:#824a29;fill-opacity:1;fill-rule:nonzero;stroke:none;stroke-width:0.0125467"
       id="path4438" />
    <path
       d="m 39.547074,72.603217 c 0.02973,-0.05218 0.05905,-0.09799 0.09394,-0.135101 0.170089,-0.195983 0.376423,-0.256517 0.55873,-0.229149 0.06679,0.0087 0.130452,0.02899 0.188958,0.05972 0.167375,0.167572 0.211628,0.428844 -0.01968,0.651847 -0.209456,0.203753 -0.57054,0.226251 -0.806059,0.113531 -0.0099,-0.01125 -0.01968,-0.02238 -0.02579,-0.03409 -0.08023,-0.106573 -0.09244,-0.252227 0.0099,-0.426756"
       style="fill:#986339;fill-opacity:1;fill-rule:nonzero;stroke:none;stroke-width:0.0125467"
       id="path4440" />
    <path
       d="m 39.330695,72.511372 c 0.02837,-0.05045 0.05946,-0.09648 0.09394,-0.135101 0.233348,-0.266143 0.532939,-0.280639 0.748096,-0.168035 0.0095,0.0096 0.019,0.01937 0.02701,0.03073 -0.182307,-0.02737 -0.388641,0.03317 -0.558731,0.22915 -0.03489,0.03711 -0.06421,0.08292 -0.09394,0.1351 -0.102352,0.17453 -0.09014,0.320183 -0.0099,0.426757 -0.06896,-0.01 -0.13276,-0.03027 -0.190587,-0.05787 -0.10086,-0.10808 -0.128688,-0.265679 -0.01588,-0.460734"
       style="fill:#af885a;fill-opacity:1;fill-rule:nonzero;stroke:none;stroke-width:0.0125467"
       id="path4442" />
    <path
       d="m 39.547074,72.603217 c 0.02973,-0.05218 0.05905,-0.09799 0.09394,-0.135101 0.170089,-0.195983 0.376423,-0.256517 0.55873,-0.229149 0.14294,0.166759 0.170361,0.409941 -0.0467,0.621231 -0.160452,0.154816 -0.404116,0.205261 -0.615879,0.169775 -0.08023,-0.106573 -0.09244,-0.252227 0.0099,-0.426756"
       style="fill:#a97c4f;fill-opacity:1;fill-rule:nonzero;stroke:none;stroke-width:0.0125467"
       id="path4444" />
    <path
       d="m 23.587827,62.418706 c -0.171855,-0.05102 -0.522351,0.03247 -0.810132,0.237731 -0.316288,0.223815 -0.387691,0.430235 -0.304071,0.536924 -0.192217,-0.0661 -0.441717,-0.545042 -0.04968,-0.823361 0.355383,-0.251647 1.069407,-0.09045 1.163886,0.04871"
       style="fill:#ad7748;fill-opacity:1;fill-rule:nonzero;stroke:none;stroke-width:0.0125467"
       id="path4446" />
    <path
       d="m 23.401583,62.793277 c -0.05063,0.04639 -0.09828,0.08929 -0.147827,0.127563 -0.298098,0.230773 -0.55778,0.30847 -0.720947,0.285277 -0.02077,-0.0023 -0.04072,-0.007 -0.05891,-0.01276 -0.08457,-0.106689 -0.09203,-0.381529 0.223981,-0.605344 0.286696,-0.20526 0.717825,-0.220336 0.890358,-0.169311 0.01167,0.01624 0.0171,0.03595 0.01846,0.05914 6.93e-4,0.07306 -0.05905,0.177429 -0.205112,0.315428"
       style="fill:#cb9e69;fill-opacity:1;fill-rule:nonzero;stroke:none;stroke-width:0.0125467"
       id="path4448" />
    <path
       d="m 23.485882,62.864017 c -0.05063,0.04639 -0.100181,0.08929 -0.147828,0.127562 -0.337057,0.260925 -0.627689,0.325866 -0.779861,0.272521 -0.01317,-0.01623 -0.02213,-0.03595 -0.02538,-0.05798 0.163166,0.0232 0.422849,-0.0545 0.720947,-0.285277 0.04955,-0.03827 0.09719,-0.08118 0.147827,-0.127563 0.146063,-0.138 0.205791,-0.24237 0.205112,-0.315428 0.02403,0.0023 0.04439,0.0058 0.06407,0.0116 0.04968,0.06958 0.0069,0.193664 -0.184886,0.374572"
       style="fill:#dcbe93;fill-opacity:1;fill-rule:nonzero;stroke:none;stroke-width:0.0125467"
       id="path4450" />
    <path
       d="m 23.401583,62.793277 c -0.05063,0.04639 -0.09828,0.08929 -0.147827,0.127563 -0.298098,0.230773 -0.55778,0.30847 -0.720947,0.285277 -0.03149,-0.113647 0.06177,-0.289916 0.329727,-0.48126 0.254659,-0.179748 0.560224,-0.266723 0.74416,-0.247008 6.92e-4,0.07306 -0.05905,0.177428 -0.205113,0.315428"
       style="fill:#d4ae82;fill-opacity:1;fill-rule:nonzero;stroke:none;stroke-width:0.0125467"
       id="path4452" />
    <path
       d="m 31.544849,63.802184 c -0.329455,-0.07654 -0.89253,0.165832 -1.094249,0.541563 -0.155564,0.288756 -0.06964,0.496336 0.120815,0.596067 -0.266063,-0.06958 -0.423528,-0.295714 -0.238235,-0.640134 0.228325,-0.424437 0.916286,-0.678403 1.211669,-0.497496"
       style="fill:#ad7748;fill-opacity:1;fill-rule:nonzero;stroke:none;stroke-width:0.0125467"
       id="path4454" />
    <path
       d="m 31.574442,63.820739 c 0.09081,0.0719 0.133031,0.195983 0.09149,0.381529 -0.01412,0.06378 -0.03231,0.126403 -0.05756,0.182067 -0.171311,0.397765 -0.540405,0.575193 -0.844068,0.575193 -0.07154,0.0035 -0.133574,-0.0035 -0.193303,-0.01971 -0.188958,-0.100891 -0.276107,-0.306151 -0.119999,-0.596067 0.201311,-0.375731 0.765336,-0.618101 1.092619,-0.541563 l 0.03081,0.01855"
       style="fill:#cb9e69;fill-opacity:1;fill-rule:nonzero;stroke:none;stroke-width:0.0125467"
       id="path4456" />
    <path
       d="m 31.875662,64.232419 c -0.01479,0.0661 -0.03421,0.128723 -0.05946,0.183227 -0.209456,0.484739 -0.707101,0.642454 -1.035334,0.555479 l -0.01656,-0.0116 c 0.303664,0 0.672757,-0.177428 0.844069,-0.575193 0.02525,-0.05566 0.04344,-0.118286 0.05756,-0.182067 0.04154,-0.185546 -6.93e-4,-0.30963 -0.09149,-0.381529 0.06421,-0.0035 0.125837,0 0.180135,0.01275 0.109004,0.06726 0.165203,0.195984 0.121086,0.398925"
       style="fill:#dcbe93;fill-opacity:1;fill-rule:nonzero;stroke:none;stroke-width:0.0125467"
       id="path4458" />
    <path
       d="m 31.574442,63.820739 c 0.09081,0.0719 0.133031,0.195983 0.09149,0.381529 -0.01412,0.06378 -0.03231,0.126403 -0.05756,0.182067 -0.171311,0.397765 -0.540405,0.575193 -0.844068,0.575193 -0.179728,-0.100891 -0.255203,-0.303832 -0.104389,-0.583311 0.167511,-0.311949 0.587644,-0.534604 0.914521,-0.555478"
       style="fill:#d4ae82;fill-opacity:1;fill-rule:nonzero;stroke:none;stroke-width:0.0125467"
       id="path4460" />
    <path
       d="m 21.909735,78.467285 c 0.419455,0.543189 1.731304,0.805389 2.661164,0.384081 0.716196,-0.323892 0.904883,-0.799239 0.750675,-1.212543 0.327284,0.451574 0.224117,1.05135 -0.629454,1.437636 -1.051488,0.475926 -2.585961,0.07909 -2.782385,-0.609174"
       style="fill:#824a29;fill-opacity:1;fill-rule:nonzero;stroke:none;stroke-width:0.0125467"
       id="path4462" />
    <path
       d="m 21.888423,78.307253 v -9.86e-4 c 0.0046,-0.216859 0.140633,-0.456443 0.459093,-0.701943 0.128823,-0.09892 0.257781,-0.186824 0.385654,-0.255474 1.088276,-0.589112 2.12809,-0.289455 2.554332,0.246427 0.01113,0.01459 0.0224,0.02922 0.03367,0.04372 0.155022,0.413304 -0.03475,0.888763 -0.749861,1.212543 -0.930539,0.420957 -2.241574,0.158527 -2.661029,-0.383847 -0.01588,-0.05218 -0.02226,-0.105415 -0.02186,-0.160499"
       style="fill:#986339;fill-opacity:1;fill-rule:nonzero;stroke:none;stroke-width:0.0125467"
       id="path4464" />
    <path
       d="m 22.26824,77.376623 c 0.128823,-0.09892 0.256288,-0.186823 0.385655,-0.254547 1.118139,-0.606037 2.184695,-0.272751 2.587996,0.289221 0.02294,0.0603 0.0376,0.121766 0.04561,0.184039 -0.426242,-0.535881 -1.466056,-0.835539 -2.554332,-0.246427 -0.127873,0.06865 -0.256831,0.156554 -0.385654,0.255474 -0.31846,0.2455 -0.454478,0.485084 -0.459093,0.701943 -0.02091,-0.02179 -0.04059,-0.0436 -0.05742,-0.06633 -0.07561,-0.256401 0.03747,-0.554435 0.437237,-0.86337"
       style="fill:#af885a;fill-opacity:1;fill-rule:nonzero;stroke:none;stroke-width:0.0125467"
       id="path4466" />
    <path
       d="m 21.888423,78.307253 v -9.86e-4 c 0.0046,-0.216859 0.140633,-0.456443 0.459093,-0.701943 0.128823,-0.09892 0.257781,-0.186824 0.385654,-0.255474 1.088276,-0.589112 2.12809,-0.289455 2.554332,0.246427 0.04303,0.364249 -0.1838,0.751925 -0.795471,1.028504 -0.891037,0.402985 -2.131483,0.179285 -2.603608,-0.316587"
       style="fill:#a97c4f;fill-opacity:1;fill-rule:nonzero;stroke:none;stroke-width:0.0125467"
       id="path4468" />
    <path
       d="m 24.576329,65.598503 c -0.571491,-0.07886 -0.406423,-0.579832 0.01982,-0.547361 0.616287,0.04639 0.25113,0.58447 -0.01982,0.547361"
       style="fill:#e4c9a3;fill-opacity:1;fill-rule:nonzero;stroke:none;stroke-width:0.0125467"
       id="path4470" />
    <path
       d="m 27.322199,65.924368 c -0.536333,-0.07422 -0.381311,-0.543882 0.01873,-0.513731 0.578414,0.04407 0.235655,0.549681 -0.01873,0.513731"
       style="fill:#e4c9a3;fill-opacity:1;fill-rule:nonzero;stroke:none;stroke-width:0.0125467"
       id="path4472" />
    <path
       d="m 27.70731,66.222402 c 0.293619,-0.180908 0.479591,0.10205 0.274343,0.249327 -0.296605,0.212218 -0.413754,-0.164672 -0.274343,-0.249327"
       style="fill:#e4c9a3;fill-opacity:1;fill-rule:nonzero;stroke:none;stroke-width:0.0125467"
       id="path4474" />
    <path
       d="m 24.746419,65.808402 c 0.311265,-0.08813 0.381989,0.200622 0.157872,0.279479 -0.32389,0.114806 -0.305564,-0.237731 -0.157872,-0.279479"
       style="fill:#e4c9a3;fill-opacity:1;fill-rule:nonzero;stroke:none;stroke-width:0.0125467"
       id="path4476" />
    <path
       d="m 25.763699,66.145864 c 0.07452,0.191344 -0.169139,0.235411 -0.236062,0.09741 -0.09679,-0.199462 0.200768,-0.187865 0.236062,-0.09741"
       style="fill:#e4c9a3;fill-opacity:1;fill-rule:nonzero;stroke:none;stroke-width:0.0125467"
       id="path4478" />
    <path
       d="m 26.47623,65.795646 c 0.08158,-0.0232 0.10018,0.05218 0.0414,0.07306 -0.08484,0.03015 -0.08009,-0.06262 -0.0414,-0.07306"
       style="fill:#e4c9a3;fill-opacity:1;fill-rule:nonzero;stroke:none;stroke-width:0.0125467"
       id="path4480" />
    <path
       d="m 25.485691,65.57183 c 0.238777,-0.06726 0.293076,0.153076 0.121222,0.214538 -0.248551,0.08813 -0.234569,-0.182067 -0.121222,-0.214538"
       style="fill:#e4c9a3;fill-opacity:1;fill-rule:nonzero;stroke:none;stroke-width:0.0125467"
       id="path4482" />
    <path
       d="m 26.086639,65.636772 c 0.16561,-0.04755 0.203212,0.106689 0.08403,0.148437 -0.172262,0.06146 -0.162624,-0.126404 -0.08403,-0.148437"
       style="fill:#e4c9a3;fill-opacity:1;fill-rule:nonzero;stroke:none;stroke-width:0.0125467"
       id="path4484" />
    <path
       d="m 28.347759,61.888739 c 0.421356,-0.03015 0.398008,0.404723 0.08878,0.44879 -0.447011,0.06494 -0.288595,-0.433714 -0.08878,-0.44879"
       style="fill:#e4c9a3;fill-opacity:1;fill-rule:nonzero;stroke:none;stroke-width:0.0125467"
       id="path4486" />
    <path
       d="m 28.364592,62.447697 c 0.222488,-0.01624 0.210271,0.213379 0.04697,0.236572 -0.236198,0.03479 -0.152442,-0.229614 -0.04697,-0.236572"
       style="fill:#e4c9a3;fill-opacity:1;fill-rule:nonzero;stroke:none;stroke-width:0.0125467"
       id="path4488" />
    <path
       d="m 28.033915,77.243842 c -0.635156,-0.08813 -0.451627,-0.644426 0.02226,-0.608477 0.684974,0.05195 0.279094,0.65034 -0.02226,0.608477"
       style="fill:#b0895b;fill-opacity:1;fill-rule:nonzero;stroke:none;stroke-width:0.0125467"
       id="path4490" />
    <path
       d="m 37.297899,76.293615 c 0.346153,-0.09799 0.424749,0.222539 0.175656,0.310673 -0.359999,0.127331 -0.339773,-0.264172 -0.175656,-0.310673"
       style="fill:#b0895b;fill-opacity:1;fill-rule:nonzero;stroke:none;stroke-width:0.0125467"
       id="path4492" />
    <path
       d="m 28.017082,77.617834 c 0.343845,0.210245 -0.0043,0.528226 -0.273528,0.390806 -0.389319,-0.198651 0.110362,-0.490537 0.273528,-0.390806"
       style="fill:#b0895b;fill-opacity:1;fill-rule:nonzero;stroke:none;stroke-width:0.0125467"
       id="path4494" />
    <path
       d="m 37.965905,77.226565 c 0.233076,-0.06599 0.285881,0.149825 0.118235,0.209084 -0.242307,0.0857 -0.228732,-0.177774 -0.118235,-0.209084"
       style="fill:#b0895b;fill-opacity:1;fill-rule:nonzero;stroke:none;stroke-width:0.0125467"
       id="path4496" />
    <path
       d="m 37.240071,68.146283 c -0.635291,-0.08813 -0.451762,-0.644773 0.02213,-0.608823 0.68511,0.05219 0.279229,0.650571 -0.02213,0.608823"
       style="fill:#cba87b;fill-opacity:1;fill-rule:nonzero;stroke:none;stroke-width:0.0125467"
       id="path4498" />
    <path
       d="m 37.928575,69.355812 c 0.346152,-0.09741 0.424749,0.222655 0.175655,0.310789 -0.360134,0.127564 -0.339772,-0.264403 -0.175655,-0.310789"
       style="fill:#cba87b;fill-opacity:1;fill-rule:nonzero;stroke:none;stroke-width:0.0125467"
       id="path4500" />
    <path
       d="m 38.234546,68.576518 c 0.343845,0.209899 -0.0042,0.528807 -0.273528,0.390807 -0.389183,-0.198303 0.110362,-0.490538 0.273528,-0.390807"
       style="fill:#cba87b;fill-opacity:1;fill-rule:nonzero;stroke:none;stroke-width:0.0125467"
       id="path4502" />
    <path
       d="m 37.299392,69.216652 c 0.23294,-0.0661 0.285881,0.149597 0.118235,0.20874 -0.242442,0.08581 -0.228732,-0.177429 -0.118235,-0.20874"
       style="fill:#cba87b;fill-opacity:1;fill-rule:nonzero;stroke:none;stroke-width:0.0125467"
       id="path4504" />
    <path
       d="m 34.604427,71.250238 c 0.370316,0.392198 -0.153393,0.675968 -0.451084,0.403795 -0.430314,-0.39359 0.275293,-0.590037 0.451084,-0.403795"
       style="fill:#cba87b;fill-opacity:1;fill-rule:nonzero;stroke:none;stroke-width:0.0125467"
       id="path4506" />
    <path
       d="m 35.273248,70.828584 c 0.377509,-0.106689 0.463165,0.243529 0.191538,0.339782 -0.392849,0.138464 -0.370723,-0.288757 -0.191538,-0.339782"
       style="fill:#cba87b;fill-opacity:1;fill-rule:nonzero;stroke:none;stroke-width:0.0125467"
       id="path4508" />
    <path
       d="m 33.3857,71.43532 c 0.140769,-0.03989 0.172669,0.09057 0.0714,0.126288 -0.146469,0.05184 -0.138189,-0.107385 -0.0714,-0.126288"
       style="fill:#cba87b;fill-opacity:1;fill-rule:nonzero;stroke:none;stroke-width:0.0125467"
       id="path4510" />
    <path
       d="m 35.078045,71.583293 c 0.205519,-0.05821 0.252216,0.132202 0.104253,0.184502 -0.2138,0.07561 -0.201719,-0.156902 -0.104253,-0.184502"
       style="fill:#cba87b;fill-opacity:1;fill-rule:nonzero;stroke:none;stroke-width:0.0125467"
       id="path4512" />
    <path
       d="m 32.881947,84.850421 c 1.431577,0.246082 4.758575,-1.761297 3.410482,-2.564247 2.667544,1.003806 -2.141529,3.447563 -3.410482,2.564247"
       style="fill:#69381f;fill-opacity:1;fill-rule:nonzero;stroke:none;stroke-width:0.0125467"
       id="path4514" />
    <path
       d="m 33.272488,83.610742 c 0.02579,-0.02308 0.04738,-0.04372 0.07493,-0.06587 0.406966,-0.347897 0.935833,-0.653584 1.475423,-0.906625 0.407645,-0.190532 0.85615,-0.361698 1.212754,-0.372714 0.03652,-0.0016 0.07086,-0.0013 0.103982,6.58e-4 0.05443,0.003 0.105475,0.01019 0.153257,0.01982 0.26294,0.156321 0.378867,0.413419 0.256017,0.738359 -0.117285,0.313457 -0.484206,0.685243 -0.95443,0.952663 -0.07154,0.04952 -0.147556,0.09834 -0.223166,0.144494 -0.588324,0.360537 -1.291759,0.646744 -1.895286,0.729776 -0.218958,0.0284 -0.422441,0.02807 -0.593753,-0.0013 l -0.0016,-9.86e-4 c -0.06244,-0.04314 -0.110362,-0.09521 -0.140361,-0.156091 -0.01873,-0.0363 -0.03054,-0.07596 -0.03529,-0.118518 -0.03298,-0.271246 0.202125,-0.632017 0.567554,-0.963679"
       style="fill:#7a492a;fill-opacity:1;fill-rule:nonzero;stroke:none;stroke-width:0.0125467"
       id="path4516" />
    <path
       d="m 34.512392,82.483086 c 0.466694,-0.218713 1.028276,-0.438471 1.456554,-0.349755 0.06909,0.04105 0.126651,0.08558 0.170633,0.133014 -0.03312,-0.002 -0.06747,-0.0023 -0.103982,-6.57e-4 -0.356604,0.01101 -0.805109,0.182182 -1.212754,0.372713 -0.53959,0.253041 -1.068457,0.558728 -1.475423,0.906626 -0.02755,0.02216 -0.04914,0.04279 -0.07493,0.06587 -0.365428,0.331663 -0.60054,0.692433 -0.567554,0.96368 0.0048,0.04256 0.01656,0.08222 0.03529,0.118518 -0.05348,-0.003 -0.10371,-0.0092 -0.152579,-0.01729 0,-0.01335 -1.019995,-0.813854 1.924743,-2.192576"
       style="fill:#936b46;fill-opacity:1;fill-rule:nonzero;stroke:none;stroke-width:0.0125467"
       id="path4518" />
    <path
       d="m 33.272488,83.610742 c 0.02579,-0.02308 0.04738,-0.04372 0.07493,-0.06587 0.406966,-0.347897 0.935833,-0.653584 1.475423,-0.906625 0.407645,-0.190532 0.85615,-0.361698 1.212754,-0.372714 0.03652,-0.0016 0.07086,-0.0013 0.103982,6.58e-4 0.80158,0.832637 -1.978769,2.517397 -3.399351,2.426594 -0.01873,-0.0363 -0.03054,-0.07596 -0.03529,-0.118518 -0.03298,-0.271247 0.202126,-0.632017 0.567554,-0.96368"
       style="fill:#8f633f;fill-opacity:1;fill-rule:nonzero;stroke:none;stroke-width:0.0125467"
       id="path4520" />
    <path
       d="m 35.341528,67.26146 c -0.11457,-0.04987 -0.236605,-0.09393 -0.364749,-0.131042 -0.999905,-0.286437 -2.359809,-0.150756 -3.084421,0.721311 -1.106872,1.327814 -1.051488,2.09783 -0.569725,2.496755 -0.788956,-0.292235 -1.09547,-1.100521 0.264297,-2.729848 0.90434,-1.079646 2.689264,-1.013545 3.646137,-0.429075 0.03801,0.0232 0.07371,0.04639 0.108461,0.0719"
       style="fill:#9b6439;fill-opacity:1;fill-rule:nonzero;stroke:none;stroke-width:0.0125467"
       id="path4522" />
    <path
       d="m 35.823426,67.9503 c 0.08213,0.638974 -0.587373,1.484369 -2.620983,2.361074 -0.361356,0.156555 -0.946828,0.228454 -1.472301,0.143799 l -0.0037,-0.0012 c -0.139547,-0.02203 -0.274479,-0.05682 -0.40018,-0.10321 l -0.0037,-0.0023 c -0.481762,-0.398924 -0.537147,-1.16894 0.569726,-2.496755 0.724612,-0.872067 2.084515,-1.007747 3.08442,-0.72131 0.128144,0.03711 0.25018,0.08118 0.36475,0.131042 0.270813,0.186705 0.447147,0.423277 0.481898,0.68884"
       style="fill:#b78551;fill-opacity:1;fill-rule:nonzero;stroke:none;stroke-width:0.0125467"
       id="path4524" />
    <path
       d="m 36.126954,68.022199 c 0.08226,0.638975 -0.587237,1.484369 -2.619625,2.361074 -0.434659,0.187866 -1.189407,0.252807 -1.777187,0.0719 0.525473,0.08465 1.110945,0.01276 1.472301,-0.143799 2.03361,-0.876705 2.70311,-1.7221 2.620983,-2.361074 -0.03475,-0.265563 -0.211085,-0.502134 -0.481898,-0.68884 -0.03475,-0.02551 -0.07045,-0.04871 -0.108461,-0.0719 0.145791,0.03943 0.284252,0.08697 0.412125,0.143798 0.271899,0.185546 0.447147,0.423277 0.481762,0.68884"
       style="fill:#caa77a;fill-opacity:1;fill-rule:nonzero;stroke:none;stroke-width:0.0125467"
       id="path4526" />
    <path
       d="m 35.823426,67.9503 c 0.08213,0.638974 -0.587373,1.484369 -2.620983,2.361074 -0.361356,0.156555 -0.946828,0.228454 -1.472301,0.143799 l -0.0037,-0.0012 c -0.03217,-0.01044 -0.06434,-0.02087 -0.09543,-0.03247 l -0.0048,-0.0012 c -0.481763,-0.398924 -0.537147,-1.16894 0.569726,-2.497914 0.654295,-0.786252 1.824426,-0.974117 2.780756,-0.79205 0.08701,0.0174 0.173212,0.03595 0.256289,0.05914 0.03801,0.02319 0.07371,0.04639 0.108461,0.0719 0.270813,0.186705 0.447147,0.423277 0.481898,0.68884"
       style="fill:#c59a69;fill-opacity:1;fill-rule:nonzero;stroke:none;stroke-width:0.0125467"
       id="path4528" />
  </g>
</svg>
