<?xml version="1.0" encoding="UTF-8" standalone="no"?>
<!-- Created with Inkscape (http://www.inkscape.org/) -->

<svg
   width="100"
   height="100"
   viewBox="0 0 100 100"
   version="1.1"
   id="svg3658"
   inkscape:version="1.2.1 (9c6d41e410, 2022-07-14)"
   sodipodi:docname="asteroid9.svg"
   xmlns:inkscape="http://www.inkscape.org/namespaces/inkscape"
   xmlns:sodipodi="http://sodipodi.sourceforge.net/DTD/sodipodi-0.dtd"
   xmlns="http://www.w3.org/2000/svg"
   xmlns:svg="http://www.w3.org/2000/svg">
  <sodipodi:namedview
     id="namedview3660"
     pagecolor="#505050"
     bordercolor="#ffffff"
     borderopacity="1"
     inkscape:showpageshadow="0"
     inkscape:pageopacity="0"
     inkscape:pagecheckerboard="1"
     inkscape:deskcolor="#505050"
     inkscape:document-units="mm"
     showgrid="false"
     inkscape:zoom="0.74564394"
     inkscape:cx="365.45593"
     inkscape:cy="240.06096"
     inkscape:window-width="1920"
     inkscape:window-height="1017"
     inkscape:window-x="-8"
     inkscape:window-y="-8"
     inkscape:window-maximized="1"
     inkscape:current-layer="layer1" />
  <defs
     id="defs3655">
    <clipPath
       id="clipPath1220"
       clipPathUnits="userSpaceOnUse">
      <path
         id="path1218"
         d="m 15028.9,6660.35 c -6.7,0 -12.1,5.43 -12.1,12.1 0,6.67 5.4,12.1 12.1,12.1 6.7,0 12.1,-5.43 12.1,-12.1 0,-6.67 -5.4,-12.1 -12.1,-12.1" />
    </clipPath>
    <radialGradient
       id="radialGradient1228"
       spreadMethod="pad"
       gradientTransform="matrix(7356.97,0,0,-4948.95,8500,6000)"
       gradientUnits="userSpaceOnUse"
       r="1"
       cy="0"
       cx="0"
       fy="0"
       fx="0">
      <stop
         id="stop1222"
         offset="0"
         style="stop-opacity:1;stop-color:#2e6dae" />
      <stop
         id="stop1224"
         offset="0.00000013"
         style="stop-opacity:1;stop-color:#2e6dae" />
      <stop
         id="stop1226"
         offset="1"
         style="stop-opacity:1;stop-color:#265b91" />
    </radialGradient>
  </defs>
  <g
     inkscape:label="Warstwa 1"
     inkscape:groupmode="layer"
     id="layer1">
    <g
       id="g1214"
       transform="matrix(0.03527778,0,0,-0.03527778,-472.83518,298.65871)">
      <g
         clip-path="url(#clipPath1220)"
         id="g1216">
        <path
           id="path1230"
           style="fill:url(#radialGradient1228);fill-opacity:1;fill-rule:nonzero;stroke:none"
           d="m 15028.9,6660.35 c -6.7,0 -12.1,5.43 -12.1,12.1 0,6.67 5.4,12.1 12.1,12.1 6.7,0 12.1,-5.43 12.1,-12.1 0,-6.67 -5.4,-12.1 -12.1,-12.1" />
      </g>
    </g>
    <path
       id="path4112"
       style="fill:#7e5130;fill-opacity:1;fill-rule:nonzero;stroke:none;stroke-width:0.0352778"
       d="m 78.496547,52.62089 c -2.23308,9.01559 -2.64231,8.6995 -5.06589,10.34133 -4.92125,3.32881 -5.58447,5.957 -7.99042,6.84812 -3.77825,1.40194 -3.23497,-2.37666 -14.59441,1.88948 -8.103311,3.04306 -10.886728,1.08161 -15.208256,-4.42631 2.345973,-0.79974 3.58775,-2.97462 3.77825,-3.08892 1.121834,-0.68544 2.568223,0.35419 3.866445,0.13723 2.395361,-0.40746 2.384781,-4.36139 4.614331,-5.31742 2.70228,-1.15393 5.74675,3.1235 11.21128,2.14066 6.42761,-1.1617 4.826,-6.94725 5.82789,-8.67269 0.57503,-0.97896 6.80508,-6.42585 11.56406,-4.77661 0.381,0.13335 0.7373,0.24765 1.06539,0.3429 0.87488,1.40935 1.33702,2.93299 0.93133,4.58223" />
    <path
       id="path4114"
       style="fill:#9e6f43;fill-opacity:1;fill-rule:nonzero;stroke:none;stroke-width:0.0352778"
       d="m 77.565217,48.03866 c -0.32809,-0.0953 -0.68439,-0.20955 -1.06539,-0.3429 -4.75898,-1.64924 -10.98903,3.79765 -11.56406,4.77661 -1.00189,1.72544 0.59972,7.51099 -5.82789,8.67269 -5.46453,0.98284 -8.509,-3.29459 -11.21128,-2.14066 -2.22955,0.95603 -2.21897,4.90996 -4.614331,5.31742 -1.298222,0.21696 -2.744611,-0.82267 -3.866445,-0.13723 -0.1905,0.1143 -1.432277,2.28918 -3.77825,3.08892 -0.342194,-0.43779 -0.6985,-0.89852 -1.065389,-1.38253 -1.5875,-2.08703 -3.369028,-3.91936 -4.956528,-5.73617 1.016,-0.0991 1.661584,-0.95215 1.566334,-3.00531 -0.493889,-10.76784 5.422194,-3.38208 10.466917,-2.44899 3.002142,0.55598 8.265582,-1.04387 5.323412,-7.40092 -1.70744,-3.68688 -2.96333,-4.90573 -3.24908,-6.52075 -0.39511,-2.18616 1.32292,-3.67947 3.94406,-2.38054 2.6423,1.3141 4.52261,4.08305 7.40128,4.76497 3.84175,0.91017 3.56305,-3.06987 5.71852,-3.95358 1.22767,-0.50271 2.56117,0.23601 3.82411,0.60925 2.13784,0.62865 4.10281,0.004 5.14351,-1.30246 0.54327,0.95215 1.00188,1.81292 1.48872,2.47191 1.50636,2.05317 4.66372,4.35363 6.32178,7.05027" />
    <path
       id="path4116"
       style="fill:#bf9460;fill-opacity:1;fill-rule:nonzero;stroke:none;stroke-width:0.0352778"
       d="m 69.754717,38.51648 c -1.0407,1.30634 -3.00567,1.93111 -5.14351,1.30246 -1.26294,-0.37324 -2.59644,-1.11196 -3.82411,-0.60925 -2.15547,0.88371 -1.87677,4.86375 -5.71852,3.95358 -2.87867,-0.68192 -4.75898,-3.45087 -7.40128,-4.76497 -2.62114,-1.29893 -4.33917,0.19438 -3.94406,2.38054 0.28575,1.61502 1.54164,2.83387 3.24908,6.52075 2.94217,6.35705 -2.32127,7.9569 -5.323412,7.40092 -5.044723,-0.93309 -10.960806,-8.31885 -10.466917,2.44899 0.09525,2.05316 -0.550334,2.90618 -1.566334,3.00531 -3.213806,-3.69076 -5.616222,-7.32437 -3.884083,-12.90849 0.144639,0.0342 0.292805,0.0572 0.448027,0.0688 1.213556,0.10654 2.307167,-5.43913 5.132917,-3.20357 3.464278,2.73861 3.661834,-0.31962 4.183945,-3.91549 0.5715,-3.91548 3.513667,-1.99954 4.755445,-2.49484 1.710972,-0.67804 1.513417,-5.76298 6.674552,-3.08892 1.44992,0.75424 2.79753,1.8549 4.42384,2.00342 3.10091,0.28575 6.19478,-3.21098 3.96522,-7.29403 1.00542,0.31997 2.04611,0.59796 3.14325,0.8188 7.0097,1.42063 9.57792,5.3594 11.29595,8.376" />
    <path
       id="path4118"
       style="fill:#d3ae7e;fill-opacity:1;fill-rule:nonzero;stroke:none;stroke-width:0.0352778"
       d="m 51.350297,36.61571 c -1.62631,-0.14852 -2.97392,-1.24918 -4.42384,-2.00342 -5.161135,-2.67406 -4.96358,2.41088 -6.674552,3.08892 -1.241778,0.4953 -4.183945,-1.42064 -4.755445,2.49484 -0.522111,3.59587 -0.719667,6.6541 -4.183945,3.91549 -2.82575,-2.23556 -3.919361,3.31011 -5.132917,3.20357 -0.155222,-0.0116 -0.303388,-0.0346 -0.448027,-0.0688 0.0635,-0.2092 0.130527,-0.41875 0.211666,-0.63606 2.289528,-6.43326 1.915584,-0.45685 4.787195,-12.93883 0.546806,-2.3615 1.516945,-4.65843 3.104445,-6.48653 6.304139,-7.2524 11.94506,-0.86465 21.48064,2.13678 2.22956,4.08305 -0.86431,7.57978 -3.96522,7.29403" />
    <path
       id="path4120"
       style="fill:#ad7748;fill-opacity:1;fill-rule:nonzero;stroke:none;stroke-width:0.0352778"
       d="m 32.268543,40.90514 c -0.472722,-0.68721 0.567973,-2.02706 1.308806,-1.65806 0.172861,0.10725 0.271639,0.254 0.3175,0.42298 -0.05292,-0.0797 -0.123472,-0.14781 -0.215195,-0.20637 -0.670277,-0.33373 -1.583972,0.72707 -1.411111,1.44145" />
    <path
       id="path4122"
       style="fill:#cb9e69;fill-opacity:1;fill-rule:nonzero;stroke:none;stroke-width:0.0352778"
       d="m 32.667182,41.19018 c -0.102305,-0.0272 -0.201083,-0.0751 -0.292805,-0.16086 l -0.0247,-0.0229 c -0.03175,-0.03 -0.05997,-0.0635 -0.08114,-0.0998 -0.169333,-0.71685 0.740834,-1.77694 1.411111,-1.44251 0.09172,0.0568 0.162278,0.127 0.215195,0.20673 l 0.0035,0.0229 c 0.15875,0.67874 -0.582084,1.64747 -1.231195,1.49648" />
    <path
       id="path4124"
       style="fill:#dcbe93;fill-opacity:1;fill-rule:nonzero;stroke:none;stroke-width:0.0352778"
       d="m 32.780071,41.33623 c -0.109361,-0.0286 -0.218722,-0.0832 -0.3175,-0.18133 -0.03175,-0.0328 -0.05997,-0.0635 -0.08114,-0.10265 l -0.0071,-0.0229 c 0.09172,0.0857 0.1905,0.1337 0.292805,0.16086 0.649111,0.15099 1.389945,-0.81774 1.231195,-1.49648 0.04233,0.0367 0.08114,0.0765 0.105833,0.12277 0.183444,0.68192 -0.567972,1.67534 -1.224139,1.51976" />
    <path
       id="path4126"
       style="fill:#d4ae82;fill-opacity:1;fill-rule:nonzero;stroke:none;stroke-width:0.0352778"
       d="m 32.667182,41.19018 c -0.102305,-0.0272 -0.201083,-0.0751 -0.292805,-0.16086 -0.148167,-0.71403 0.751416,-1.74661 1.414639,-1.41923 0.04233,0.0265 0.07761,0.0533 0.109361,0.0836 0.15875,0.67874 -0.582084,1.64747 -1.231195,1.49648" />
    <path
       id="path4128"
       style="fill:#69381f;fill-opacity:1;fill-rule:nonzero;stroke:none;stroke-width:0.0352778"
       d="m 74.531327,56.10386 c 1.1183,0.79411 -1.48873,5.06484 -3.27378,5.31354 -0.41275,0.0113 -0.64911,-0.15769 -0.74789,-0.45296 0.12347,0.0949 0.29281,0.14076 0.51506,0.13476 1.61219,-0.22366 3.88761,-3.72534 3.50661,-4.99534" />
    <path
       id="path4130"
       style="fill:#7a492a;fill-opacity:1;fill-rule:nonzero;stroke:none;stroke-width:0.0352778"
       d="m 73.409487,56.14584 c 0.22931,-0.0818 0.45156,-0.11253 0.65617,-0.0681 l 0.06,0.0169 c 0.0706,0.0187 0.13406,0.0466 0.17992,0.0956 0.3563,1.19204 -1.78153,4.48099 -3.29495,4.68948 -0.20813,0.005 -0.36688,-0.0381 -0.4833,-0.12453 l -0.0106,-0.0427 c -0.32103,-1.14511 1.41816,-4.02519 2.89277,-4.56671" />
    <path
       id="path4132"
       style="fill:#936b46;fill-opacity:1;fill-rule:nonzero;stroke:none;stroke-width:0.0352778"
       d="m 73.159017,56.00156 c 0.25047,-0.0882 0.49389,-0.11712 0.71967,-0.0543 0.067,0.0219 0.13053,0.0497 0.17639,0.0988 l 0.0106,0.0318 c -0.20461,-0.0445 -0.42686,-0.0138 -0.65617,0.0681 -1.47461,0.54152 -3.2138,3.4216 -2.89277,4.56671 -0.0917,-0.0205 -0.17287,-0.0554 -0.23989,-0.10477 -0.37395,-1.11372 1.38994,-4.0573 2.88219,-4.60622" />
    <path
       id="path4134"
       style="fill:#8f633f;fill-opacity:1;fill-rule:nonzero;stroke:none;stroke-width:0.0352778"
       d="m 73.409487,56.14584 c 0.22931,-0.0818 0.45156,-0.11253 0.65617,-0.0681 0.30692,1.2192 -1.80269,4.44641 -3.30553,4.65772 -0.0882,0.003 -0.17286,-0.004 -0.24341,-0.0229 -0.32103,-1.14511 1.41816,-4.02519 2.89277,-4.56671" />
    <path
       id="path4136"
       style="fill:#9b6439;fill-opacity:1;fill-rule:nonzero;stroke:none;stroke-width:0.0352778"
       d="m 43.345766,48.72022 c -0.518583,-0.44097 -1.3335,-0.64099 -2.307167,-0.32279 -0.500944,0.16299 -1.241777,0.57186 -1.435805,1.19874 -0.155223,0.52458 -0.0635,1.03787 0.186972,1.45168 -0.508,-0.46425 -0.814917,-1.18674 -0.589139,-1.94874 0.194028,-0.62689 0.934861,-1.03611 1.435806,-1.19874 1.284111,-0.41945 2.303639,0.0677 2.709333,0.81985" />
    <path
       id="path4138"
       style="fill:#b78551;fill-opacity:1;fill-rule:nonzero;stroke:none;stroke-width:0.0352778"
       d="m 41.214988,51.53186 c -0.462139,0.0981 -0.973666,-0.0772 -1.36525,-0.42792 l -0.05997,-0.0564 c -0.246945,-0.41275 -0.342195,-0.92675 -0.186972,-1.45274 0.1905,-0.62689 0.934861,-1.03364 1.435805,-1.19697 0.973667,-0.31821 1.788584,-0.11889 2.307167,0.32349 l 0.0035,0.006 c 0.05644,0.10407 0.09878,0.21096 0.127,0.32385 0.261049,0.91793 -0.331611,2.05881 -2.261306,2.48073" />
    <path
       id="path4140"
       style="fill:#caa77a;fill-opacity:1;fill-rule:nonzero;stroke:none;stroke-width:0.0352778"
       d="m 41.440766,51.93862 c -0.483306,0.10407 -1.023056,-0.0949 -1.425222,-0.48401 -0.0635,-0.11007 -0.119945,-0.22896 -0.165806,-0.35067 0.391584,0.35067 0.903111,0.526 1.36525,0.42792 1.929695,-0.42192 2.522359,-1.5628 2.261306,-2.48073 0.03175,0.0208 0.0635,0.0476 0.09525,0.0744 l 0.0035,0.009 c 0.507993,0.95355 0.03528,2.33221 -2.134306,2.80423" />
    <path
       id="path4142"
       style="fill:#c59a69;fill-opacity:1;fill-rule:nonzero;stroke:none;stroke-width:0.0352778"
       d="m 41.214988,51.53186 c -0.462139,0.0981 -0.973666,-0.0772 -1.36525,-0.42792 -0.116416,-0.33866 -0.134055,-0.71578 -0.02117,-1.10207 0.194027,-0.62689 0.938388,-1.034 1.435805,-1.19733 0.913695,-0.29986 1.689806,-0.1397 2.211917,0.24659 0.261057,0.91793 -0.331611,2.05881 -2.261306,2.48073" />
    <path
       id="path4144"
       style="fill:#69381f;fill-opacity:1;fill-rule:nonzero;stroke:none;stroke-width:0.0352778"
       d="m 42.985933,70.28377 c 1.400524,0.65793 2.536474,0.36442 2.903364,-0.19826 0.0423,0.82691 -1.28764,1.47884 -3.040948,0.65475 -1.128888,-0.5274 -1.481666,-1.3148 -1.118305,-1.80058 0.02822,0.43639 0.440972,0.96132 1.255889,1.34409" />
    <path
       id="path4146"
       style="fill:#7a492a;fill-opacity:1;fill-rule:nonzero;stroke:none;stroke-width:0.0352778"
       d="m 41.853516,68.8088 0.0035,-0.001 c 0.306917,-0.25718 0.885472,-0.37465 1.718028,-0.21908 1.509883,0.28716 2.194273,0.86678 2.300113,1.39206 0.007,0.0367 0.0141,0.0716 0.0141,0.10548 -0.36689,0.56233 -1.50284,0.85514 -2.899834,0.19756 -0.818445,-0.38206 -1.231195,-0.90699 -1.259417,-1.34303 0.03528,-0.0469 0.07408,-0.091 0.123472,-0.13194" />
    <path
       id="path4148"
       style="fill:#936b46;fill-opacity:1;fill-rule:nonzero;stroke:none;stroke-width:0.0352778"
       d="m 43.680907,68.33926 c 1.61219,0.30621 2.286,0.94756 2.31422,1.49754 -0.0318,0.0515 -0.0706,0.0991 -0.11994,0.14393 -0.10584,-0.52528 -0.79023,-1.1049 -2.300115,-1.39206 -0.832556,-0.15557 -1.411111,-0.0381 -1.718028,0.21908 -0.01058,-0.0402 -0.01764,-0.079 -0.02117,-0.11642 0.264584,-0.34431 0.881945,-0.53199 1.845033,-0.35207" />
    <path
       id="path4150"
       style="fill:#8f633f;fill-opacity:1;fill-rule:nonzero;stroke:none;stroke-width:0.0352778"
       d="m 41.853516,68.8088 0.0035,-0.001 c 0.306917,-0.25718 0.885472,-0.37465 1.718028,-0.21908 1.509883,0.28716 2.194273,0.86678 2.300113,1.39206 -0.45509,0.46426 -1.50989,0.65229 -2.779891,0.054 -0.744361,-0.34855 -1.157111,-0.81704 -1.241778,-1.22591" />
    <path
       id="path4152"
       style="fill:#ad7748;fill-opacity:1;fill-rule:nonzero;stroke:none;stroke-width:0.0352778"
       d="m 52.789627,31.96751 c 0.0564,-0.13229 0.0564,-0.27164 -0.007,-0.41416 -0.28575,-1.79952 -5.19995,-2.04188 -6.40645,-0.94121 1.07597,-2.12796 6.28297,-1.42804 6.60047,0.67239 0.10936,0.24201 0.0247,0.47414 -0.18697,0.68298" />
    <path
       id="path4154"
       style="fill:#cb9e69;fill-opacity:1;fill-rule:nonzero;stroke:none;stroke-width:0.0352778"
       d="m 47.162817,32.08675 c -0.52211,-0.3997 -0.77963,-0.75459 -0.83961,-1.05939 v -0.013 c -0.0318,-0.14429 -0.0141,-0.27517 0.0459,-0.39476 l 0.007,-0.007 c 1.7392,-1.45204 6.11717,-0.85902 6.40645,0.94121 0.0635,0.14252 0.0635,0.28046 0.007,0.4131 -0.0353,0.037 -0.0811,0.0727 -0.13053,0.10866 -1.03011,0.79163 -4.03577,1.15181 -5.49628,0.0109" />
    <path
       id="path4156"
       style="fill:#dcbe93;fill-opacity:1;fill-rule:nonzero;stroke:none;stroke-width:0.0352778"
       d="m 47.025237,32.55912 c -0.52211,-0.40075 -0.77611,-0.75353 -0.83961,-1.05939 -0.0318,-0.14852 -0.0141,-0.28434 0.0423,-0.40781 l 0.007,-0.007 0.0882,-0.0705 v 0.013 c 0.06,0.3048 0.3175,0.65969 0.83961,1.05939 1.46051,1.14088 4.46617,0.7807 5.49628,-0.0109 0.0494,0.12417 0.0423,0.24729 -0.007,0.36371 -0.89253,0.86572 -4.09928,1.31233 -5.62681,0.11959" />
    <path
       id="path4158"
       style="fill:#d4ae82;fill-opacity:1;fill-rule:nonzero;stroke:none;stroke-width:0.0352778"
       d="m 47.162817,32.08675 c -0.52211,-0.3997 -0.77963,-0.75459 -0.83961,-1.05939 v -0.013 c 1.3335,-1.01883 6.03956,-0.74789 6.32178,1.01212 l 0.0141,0.0494 c -1.03011,0.79163 -4.03577,1.15181 -5.49628,0.0109" />
    <path
       id="path4160"
       style="fill:#824a29;fill-opacity:1;fill-rule:nonzero;stroke:none;stroke-width:0.0352778"
       d="m 51.099827,55.59093 c -1.41464,-1.05516 -1.89442,-3.066 1.29116,-6.17115 2.20134,-2.13712 5.98664,-0.96096 7.52122,0.98531 -1.78152,-1.50318 -4.92477,-2.18158 -6.84036,-0.30621 -2.59644,2.534 -2.75872,4.33846 -1.97202,5.49205" />
    <path
       id="path4162"
       style="fill:#986339;fill-opacity:1;fill-rule:nonzero;stroke:none;stroke-width:0.0352778"
       d="m 54.733437,56.41607 c -0.75495,0.18627 -1.91559,0.0674 -2.89984,-0.39088 l -0.004,-0.002 c -0.25753,-0.11818 -0.50095,-0.2607 -0.7232,-0.42545 l -0.007,-0.007 c -0.7867,-1.15429 -0.62795,-2.95839 1.97202,-5.49134 1.69686,-1.66299 4.36386,-1.32044 6.1842,-0.17427 0.23283,0.14746 0.45155,0.30727 0.65616,0.47943 0.45862,0.56162 0.71614,1.19415 0.68792,1.82492 -0.067,1.51412 -1.651,3.1443 -5.86669,4.18676" />
    <path
       id="path4164"
       style="fill:#af885a;fill-opacity:1;fill-rule:nonzero;stroke:none;stroke-width:0.0352778"
       d="m 55.294347,56.72899 c -0.90664,0.22225 -2.39183,0.008 -3.46075,-0.7038 0.98425,0.45826 2.14489,0.57715 2.89984,0.39088 4.21569,-1.04246 5.79966,-2.67264 5.86669,-4.18676 0.0282,-0.63077 -0.2293,-1.2633 -0.68792,-1.82492 -0.20461,-0.17216 -0.42333,-0.33197 -0.65616,-0.47943 0.44803,0.22013 0.86078,0.49142 1.21708,0.79269 0.45861,0.56162 0.71261,1.1938 0.68792,1.82245 -0.067,1.51659 -1.651,3.14678 -5.8667,4.18889" />
    <path
       id="path4166"
       style="fill:#a97c4f;fill-opacity:1;fill-rule:nonzero;stroke:none;stroke-width:0.0352778"
       d="m 54.733437,56.41607 c -0.75495,0.18627 -1.91559,0.0674 -2.89984,-0.39088 l -0.004,-0.002 c -0.0564,-0.036 -0.10937,-0.0741 -0.16228,-0.11219 l -0.007,-0.007 c -0.78669,-1.15429 -0.62441,-2.9584 1.9685,-5.49134 1.53459,-1.4986 3.84881,-1.36737 5.62681,-0.48754 0.23283,0.14746 0.45155,0.30727 0.65616,0.47943 0.45862,0.56162 0.71614,1.19415 0.68792,1.82492 -0.067,1.51412 -1.651,3.1443 -5.86669,4.18676" />
    <path
       id="path4168"
       style="fill:#b0895b;fill-opacity:1;fill-rule:nonzero;stroke:none;stroke-width:0.0352778"
       d="m 63.217737,51.01363 c 0.29634,0.13371 0.0882,0.42369 -0.13758,0.34079 -0.32808,-0.1203 -0.004,-0.40429 0.13758,-0.34079" />
    <path
       id="path4170"
       style="fill:#b0895b;fill-opacity:1;fill-rule:nonzero;stroke:none;stroke-width:0.0352778"
       d="m 64.815827,47.37967 c 0.73377,0.33267 0.22225,1.05375 -0.3422,0.84737 -0.81492,-0.29845 -0.007,-1.00542 0.3422,-0.84737" />
    <path
       id="path4172"
       style="fill:#b0895b;fill-opacity:1;fill-rule:nonzero;stroke:none;stroke-width:0.0352778"
       d="m 63.383547,49.41414 c 0.41628,0.18768 0.127,0.59443 -0.1905,0.47801 -0.45861,-0.16863 -0.004,-0.56726 0.1905,-0.47801" />
    <path
       id="path4174"
       style="fill:#b0895b;fill-opacity:1;fill-rule:nonzero;stroke:none;stroke-width:0.0352778"
       d="m 64.565347,50.51798 c 0.57856,0.26141 0.17639,0.82762 -0.26811,0.66534 -0.63853,-0.2346 -0.007,-0.78952 0.26811,-0.66534" />
    <path
       id="path4176"
       style="fill:#b0895b;fill-opacity:1;fill-rule:nonzero;stroke:none;stroke-width:0.0352778"
       d="m 63.080157,55.79024 c 0.93133,0.42263 0.28222,1.33809 -0.43392,1.07598 -1.03364,-0.37924 -0.0106,-1.27671 0.43392,-1.07598" />
    <path
       id="path4178"
       style="fill:#b0895b;fill-opacity:1;fill-rule:nonzero;stroke:none;stroke-width:0.0352778"
       d="m 63.281237,41.18207 c 0.57503,0.26141 0.17286,0.82762 -0.26811,0.66534 -0.63853,-0.23425 -0.007,-0.78952 0.26811,-0.66534" />
    <path
       id="path4180"
       style="fill:#946d48;fill-opacity:1;fill-rule:nonzero;stroke:none;stroke-width:0.0352778"
       d="m 48.168237,67.99036 c 0.27164,0.59549 -0.55739,0.54292 -0.8008,0.10477 -0.34573,-0.63358 0.6738,-0.38735 0.8008,-0.10477" />
    <path
       id="path4182"
       style="fill:#946d48;fill-opacity:1;fill-rule:nonzero;stroke:none;stroke-width:0.0352778"
       d="m 50.641207,69.12383 c 0.17287,0.41593 -0.39863,0.35525 -0.55738,0.048 -0.22931,-0.44415 0.47272,-0.24518 0.55738,-0.048" />
    <path
       id="path4184"
       style="fill:#946d48;fill-opacity:1;fill-rule:nonzero;stroke:none;stroke-width:0.0352778"
       d="m 48.923187,70.35503 c 0.55033,0.90875 -0.74789,1.06962 -1.21709,0.41381 -0.67733,-0.94862 0.95603,-0.84491 1.21709,-0.41381" />
    <path
       id="path4186"
       style="fill:#cba87b;fill-opacity:1;fill-rule:nonzero;stroke:none;stroke-width:0.0352778"
       d="m 44.548737,46.54182 c 0.81139,-0.26917 0.99483,0.61101 0.41275,0.85302 -0.84667,0.3496 -0.79728,-0.72531 -0.41275,-0.85302" />
    <path
       id="path4188"
       style="fill:#cba87b;fill-opacity:1;fill-rule:nonzero;stroke:none;stroke-width:0.0352778"
       d="m 42.266266,52.61666 c 1.361722,-0.75777 2.176641,0.4706 1.224139,1.08796 -1.375833,0.89218 -1.869722,-0.72848 -1.224139,-1.08796" />
    <path
       id="path4190"
       style="fill:#cba87b;fill-opacity:1;fill-rule:nonzero;stroke:none;stroke-width:0.0352778"
       d="m 44.495817,51.20942 c 0.5962,0.27023 0.18345,0.85479 -0.27516,0.68722 -0.659696,-0.24201 -0.007,-0.81527 0.27516,-0.68722" />
    <path
       id="path4192"
       style="fill:#cba87b;fill-opacity:1;fill-rule:nonzero;stroke:none;stroke-width:0.0352778"
       d="m 44.728657,53.07915 c 0.38453,0.17462 0.11641,0.55315 -0.17992,0.44485 -0.42686,-0.15663 -0.004,-0.52776 0.17992,-0.44485" />
    <path
       id="path4194"
       style="fill:#cba87b;fill-opacity:1;fill-rule:nonzero;stroke:none;stroke-width:0.0352778"
       d="m 45.801097,49.87769 c 0.38453,0.17462 0.11642,0.55315 -0.17991,0.44485 -0.42687,-0.15663 -0.004,-0.52775 0.17991,-0.44485" />
    <path
       id="path4196"
       style="fill:#dcbe93;fill-opacity:1;fill-rule:nonzero;stroke:none;stroke-width:0.0352778"
       d="m 49.357097,34.68073 c -0.067,0.38417 -0.46214,0.26529 -0.43039,-0.0219 0.0459,-0.41521 0.46567,-0.16051 0.43039,0.0219" />
    <path
       id="path4198"
       style="fill:#dcbe93;fill-opacity:1;fill-rule:nonzero;stroke:none;stroke-width:0.0352778"
       d="m 50.680017,35.41133 c 0.24694,0.65581 -0.46567,0.83502 -0.68439,0.36477 -0.31397,-0.6798 0.56797,-0.67592 0.68439,-0.36477" />
    <path
       id="path4200"
       style="fill:#dcbe93;fill-opacity:1;fill-rule:nonzero;stroke:none;stroke-width:0.0352778"
       d="m 33.041127,37.06233 c -0.567973,-0.34431 -0.141111,-0.89888 0.296333,-0.67557 0.635,0.32314 -0.02469,0.83891 -0.296333,0.67557" />
    <path
       id="path4202"
       style="fill:#dcbe93;fill-opacity:1;fill-rule:nonzero;stroke:none;stroke-width:0.0352778"
       d="m 36.269044,27.8894 c -0.652639,0.14252 -0.723195,-0.55421 -0.250473,-0.69427 0.680861,-0.20214 0.557389,0.62654 0.250473,0.69427" />
    <path
       id="path4204"
       style="fill:#dcbe93;fill-opacity:1;fill-rule:nonzero;stroke:none;stroke-width:0.0352778"
       d="m 35.214238,29.7563 c 1.213556,0.0755 0.991306,1.33527 0.09172,1.34479 -1.30175,0.013 -0.66675,-1.38077 -0.09172,-1.34479" />
    <path
       id="path4206"
       style="fill:#dcbe93;fill-opacity:1;fill-rule:nonzero;stroke:none;stroke-width:0.0352778"
       d="m 39.063044,27.4569 c 0.758472,1.19027 -0.783167,1.90958 -1.418167,1.07597 -0.913695,-1.20474 1.058333,-1.64042 1.418167,-1.07597" />
    <path
       id="path4208"
       style="fill:#dcbe93;fill-opacity:1;fill-rule:nonzero;stroke:none;stroke-width:0.0352778"
       d="m 39.94146,30.34579 c 0.342195,0.77682 -0.508,1.0407 -0.800805,0.48648 -0.426861,-0.80115 0.638528,-0.85478 0.800805,-0.48648" />
    <path
       id="path4210"
       style="fill:#dcbe93;fill-opacity:1;fill-rule:nonzero;stroke:none;stroke-width:0.0352778"
       d="m 37.715432,31.28736 c -0.352777,0.28151 -0.60325,-0.11889 -0.359833,-0.34573 0.352778,-0.32737 0.525639,0.21202 0.359833,0.34573" />
    <path
       id="path4212"
       style="fill:#dcbe93;fill-opacity:1;fill-rule:nonzero;stroke:none;stroke-width:0.0352778"
       d="m 41.807655,25.84329 c -0.303389,0.48048 -0.769056,0.10654 -0.5715,-0.26388 0.28575,-0.53551 0.716139,0.036 0.5715,0.26388" />
    <path
       id="path4214"
       style="fill:#dcbe93;fill-opacity:1;fill-rule:nonzero;stroke:none;stroke-width:0.0352778"
       d="m 36.244349,31.8518 c 0.250472,0.57503 -0.377472,0.77082 -0.596194,0.36019 -0.313973,-0.59337 0.47625,-0.63289 0.596194,-0.36019" />
    <path
       id="path4216"
       style="fill:#dcbe93;fill-opacity:1;fill-rule:nonzero;stroke:none;stroke-width:0.0352778"
       d="m 32.078043,42.33671 c 0.282222,0.29316 -0.09172,0.53375 -0.3175,0.33161 -0.324555,-0.2921 0.183445,-0.4706 0.3175,-0.33161" />
    <path
       id="path4218"
       style="fill:#dcbe93;fill-opacity:1;fill-rule:nonzero;stroke:none;stroke-width:0.0352778"
       d="m 30.317682,41.17572 c 0.409222,0.42827 -0.134056,0.77964 -0.462139,0.48436 -0.472722,-0.42651 0.268111,-0.68721 0.462139,-0.48436" />
  </g>
</svg>
