<?xml version="1.0" encoding="UTF-8" standalone="no"?>
<!-- Created with Inkscape (http://www.inkscape.org/) -->

<svg
   width="100"
   height="100"
   viewBox="0 0 26.458333 26.458333"
   version="1.1"
   id="svg13353"
   sodipodi:docname="asteroid-fragment-8.svg"
   inkscape:version="1.2.1 (9c6d41e410, 2022-07-14)"
   xmlns:inkscape="http://www.inkscape.org/namespaces/inkscape"
   xmlns:sodipodi="http://sodipodi.sourceforge.net/DTD/sodipodi-0.dtd"
   xmlns="http://www.w3.org/2000/svg"
   xmlns:svg="http://www.w3.org/2000/svg">
  <sodipodi:namedview
     id="namedview13355"
     pagecolor="#505050"
     bordercolor="#ffffff"
     borderopacity="1"
     inkscape:showpageshadow="0"
     inkscape:pageopacity="0"
     inkscape:pagecheckerboard="1"
     inkscape:deskcolor="#505050"
     inkscape:document-units="px"
     showgrid="false"
     inkscape:zoom="2.9825758"
     inkscape:cx="49.453898"
     inkscape:cy="15.08763"
     inkscape:window-width="1920"
     inkscape:window-height="1017"
     inkscape:window-x="-8"
     inkscape:window-y="-8"
     inkscape:window-maximized="1"
     inkscape:current-layer="layer1" />
  <defs
     id="defs13350" />
  <g
     inkscape:label="Warstwa 1"
     inkscape:groupmode="layer"
     id="layer1"
     transform="translate(-118.36781,-110.25781)">
    <path
       d="m 144.13271,127.60244 c -2.29666,7.91941 -2.65833,3.84901 -7.54741,6.90458 -4.72576,2.9548 -7.06464,2.03847 -9.22907,0.55462 0.23788,-6.58466 5.36732,-4.88801 6.33286,-6.63279 0.50233,-0.91202 -0.18969,-2.30596 0.61932,-2.9636 0.85288,-0.69718 6.42761,1.7755 3.11906,-4.59227 -1.66416,-3.20016 1.09777,-4.39052 1.6862,-6.22296 5.96255,8.643 5.88984,9.95154 5.01904,12.95242"
       style="fill:#7e5130;fill-opacity:1;fill-rule:nonzero;stroke:none;stroke-width:0.0205385"
       id="path3894" />
    <path
       d="m 137.42747,120.87298 c 3.30855,6.36777 -2.26618,3.89509 -3.11906,4.59227 -0.80901,0.65764 -0.11699,2.05158 -0.61932,2.9636 -0.96554,1.74478 -6.09498,0.0481 -6.33286,6.63279 -0.74949,-0.5151 -1.48148,-1.09819 -2.28369,-1.61329 -0.38144,-0.24557 -0.73404,-0.44936 -1.05596,-0.62263 0.40348,-0.46901 0.78471,-0.95769 1.13979,-1.46418 0.39668,-0.56774 0.46506,-1.0257 -0.28011,-1.61555 -3.29536,-2.61707 2.41818,-2.52511 3.11021,-5.45349 0.39462,-1.67023 -1.73913,-1.2473 -2.25486,-3.86887 -0.37464,-1.91355 1.19457,-1.98154 2.30346,-2.0561 3.20062,-0.21914 3.9015,-3.48731 4.74368,-5.49957 3.16087,0.42744 4.62442,-0.68611 6.08797,1.42692 0.0838,0.12063 0.16539,0.23901 0.24695,0.35514 -0.58843,1.83244 -3.35036,3.0228 -1.6862,6.22296"
       style="fill:#9e6f43;fill-opacity:1;fill-rule:nonzero;stroke:none;stroke-width:0.0205385"
       id="path3896" />
    <path
       d="m 132.77875,112.86796 c -0.84218,2.01226 -1.54306,5.28043 -4.74368,5.49957 -1.10889,0.0746 -2.6781,0.14255 -2.30346,2.0561 0.51573,2.62157 2.64948,2.19864 2.25486,3.86887 -0.69203,2.92838 -6.40557,2.83642 -3.11021,5.45349 0.74517,0.58985 0.67679,1.04781 0.28011,1.61555 -0.35508,0.50649 -0.73631,0.99517 -1.13979,1.46418 -1.13958,-0.61811 -1.92202,-0.87228 -2.47543,-1.31078 0.65475,-0.91182 0.93691,-1.97048 0.56227,-3.16944 -1.7414,-5.57638 3.94785,-2.75757 1.3511,-5.93378 -1.85158,-2.26418 1.6621,-1.94426 0.11904,-4.67766 -2.04559,-3.6188 0.46506,-3.50268 1.47241,-5.89629 0.16106,-0.38361 0.13017,-0.76292 -0.0461,-1.09165 1.00282,-0.42518 1.52082,-0.2302 2.86326,0.46472 2.00812,1.04126 3.60616,1.4818 4.91565,1.65712"
       style="fill:#bf9460;fill-opacity:1;fill-rule:nonzero;stroke:none;stroke-width:0.0205385"
       id="path3898" />
    <path
       d="m 125.04597,111.83777 c -1.00735,2.39361 -3.518,2.27749 -1.47241,5.89629 1.54306,2.7334 -1.97062,2.41348 -0.11904,4.67766 2.59675,3.17621 -3.0925,0.3574 -1.3511,5.93378 0.37464,1.19896 0.0925,2.25762 -0.56227,3.16944 -0.68111,-0.54132 -1.01621,-1.36322 -1.24318,-3.49386 -0.65681,-6.16828 -3.73838,-12.4701 0.64157,-14.97124 2.12489,-1.21433 3.25128,-1.96168 4.06029,-2.30372 0.17631,0.32873 0.2072,0.70804 0.0461,1.09165"
       style="fill:#d3ae7e;fill-opacity:1;fill-rule:nonzero;stroke:none;stroke-width:0.0205385"
       id="path3900" />
  </g>
</svg>
