<?xml version="1.0" encoding="UTF-8" standalone="no"?>
<!-- Created with Inkscape (http://www.inkscape.org/) -->

<svg
   width="100"
   height="100"
   viewBox="0 0 26.458333 26.458333"
   version="1.1"
   id="svg9893"
   inkscape:version="1.2.1 (9c6d41e410, 2022-07-14)"
   sodipodi:docname="asteroid-whole-5.svg"
   xmlns:inkscape="http://www.inkscape.org/namespaces/inkscape"
   xmlns:sodipodi="http://sodipodi.sourceforge.net/DTD/sodipodi-0.dtd"
   xmlns="http://www.w3.org/2000/svg"
   xmlns:svg="http://www.w3.org/2000/svg">
  <sodipodi:namedview
     id="namedview9895"
     pagecolor="#505050"
     bordercolor="#ffffff"
     borderopacity="1"
     inkscape:showpageshadow="0"
     inkscape:pageopacity="0"
     inkscape:pagecheckerboard="1"
     inkscape:deskcolor="#505050"
     inkscape:document-units="px"
     showgrid="false"
     inkscape:zoom="0.74564394"
     inkscape:cx="227.32029"
     inkscape:cy="386.24333"
     inkscape:window-width="1920"
     inkscape:window-height="1017"
     inkscape:window-x="-8"
     inkscape:window-y="-8"
     inkscape:window-maximized="1"
     inkscape:current-layer="layer1" />
  <defs
     id="defs9890" />
  <g
     inkscape:label="Warstwa 1"
     inkscape:groupmode="layer"
     id="layer1"
     transform="translate(-45.285711,-46.326147)">
    <path
       d="m 71.407401,61.728697 c -1.082419,4.743333 -1.280778,4.577031 -2.455537,5.440838 -2.385428,1.751374 -2.706904,3.134135 -3.873113,3.602974 -1.831393,0.737596 -1.568056,-1.250424 -7.074204,0.994103 -3.927833,1.601034 -5.27701,0.569067 -7.371742,-2.328791 1.137141,-0.420768 1.739054,-1.565026 1.831394,-1.625163 0.543775,-0.360631 1.244868,0.186349 1.874142,0.0722 1.161079,-0.214373 1.155949,-2.29464 2.236659,-2.797631 1.309848,-0.607116 2.785564,1.643351 5.434329,1.126254 3.115591,-0.611199 2.339258,-3.65513 2.824894,-4.562927 0.278727,-0.515055 3.298558,-3.380803 5.605327,-2.513097 0.184679,0.07016 0.357387,0.130295 0.516415,0.180408 0.424076,0.741494 0.648084,1.543124 0.451436,2.410831"
       style="fill:#7e5130;fill-opacity:1;fill-rule:nonzero;stroke:none;stroke-width:0.0178153"
       id="path4086" />
    <path
       d="m 70.955965,59.317866 c -0.159028,-0.05011 -0.331736,-0.11025 -0.516415,-0.180408 -2.306769,-0.867706 -5.3266,1.998042 -5.605327,2.513097 -0.485636,0.907797 0.290697,3.951728 -2.824894,4.562927 -2.648765,0.517097 -4.124481,-1.73337 -5.434329,-1.126254 -1.08071,0.502991 -1.07558,2.583258 -2.236659,2.797631 -0.629274,0.114148 -1.330367,-0.432832 -1.874142,-0.0722 -0.09234,0.06013 -0.694253,1.204395 -1.831394,1.625163 -0.165867,-0.230337 -0.338576,-0.472738 -0.516415,-0.727388 -0.769492,-1.098043 -1.633034,-2.062077 -2.402527,-3.017946 0.492475,-0.05215 0.805403,-0.50095 0.759234,-1.581173 -0.239399,-5.665237 2.628244,-1.7794 5.073521,-1.288474 1.455197,0.292515 4.006493,-0.549206 2.580367,-3.893817 -0.827633,-1.939764 -1.436387,-2.58103 -1.574896,-3.430732 -0.191518,-1.150197 0.641244,-1.935865 1.911763,-1.252466 1.280777,0.69138 2.192199,2.148198 3.587545,2.506973 1.862173,0.478863 1.727084,-1.615139 2.771885,-2.080081 0.595074,-0.264488 1.241448,0.12417 1.853623,0.32054 1.03625,0.33075 1.98871,0.0021 2.493156,-0.685254 0.263337,0.500948 0.485635,0.953826 0.721614,1.300537 0.730163,1.080224 2.260598,2.290558 3.06429,3.709326"
       style="fill:#9e6f43;fill-opacity:1;fill-rule:nonzero;stroke:none;stroke-width:0.0178153"
       id="path4088" />
    <path
       d="m 67.170061,54.308003 c -0.504446,0.687297 -1.456906,1.016004 -2.493156,0.685254 -0.612175,-0.19637 -1.258549,-0.585028 -1.853623,-0.32054 -1.044801,0.464942 -0.909712,2.558944 -2.771885,2.080081 -1.395346,-0.358775 -2.306768,-1.815593 -3.587545,-2.506973 -1.270519,-0.683399 -2.103281,0.102272 -1.911763,1.252466 0.138509,0.849702 0.747263,1.490968 1.574896,3.430732 1.426126,3.344611 -1.12517,4.186332 -2.580367,3.893817 -2.445277,-0.490926 -5.31292,-4.376763 -5.073521,1.288474 0.04617,1.080223 -0.266759,1.529018 -0.759234,1.581173 -1.557796,-1.941805 -2.722293,-3.853542 -1.882692,-6.791491 0.07011,0.018 0.141928,0.03007 0.217168,0.03619 0.588234,0.05606 1.11833,-2.861666 2.488026,-1.685484 1.679205,1.440855 1.774964,-0.168158 2.028042,-2.060036 0.277017,-2.060035 1.703144,-1.052011 2.305058,-1.312602 0.829342,-0.356733 0.733583,-3.032052 3.235289,-1.625161 0.702805,0.396825 1.356018,0.975913 2.144321,1.054053 1.503075,0.150341 3.002732,-1.689382 1.922022,-3.837579 0.487345,0.168344 0.99179,0.314602 1.523595,0.43079 3.397738,0.747434 4.642607,2.819719 5.475369,4.406832"
       style="fill:#bf9460;fill-opacity:1;fill-rule:nonzero;stroke:none;stroke-width:0.0178153"
       id="path4090" />
    <path
       d="m 58.249075,53.30796 c -0.788303,-0.07814 -1.441516,-0.657228 -2.144321,-1.054053 -2.501706,-1.406891 -2.405947,1.268428 -3.235289,1.625161 -0.601914,0.260591 -2.028041,-0.747433 -2.305058,1.312602 -0.253078,1.891878 -0.348837,3.500891 -2.028042,2.060036 -1.369696,-1.176182 -1.899792,1.741537 -2.488026,1.685483 -0.07524,-0.0062 -0.147059,-0.01819 -0.217168,-0.03619 0.03078,-0.110068 0.06327,-0.220314 0.102603,-0.334647 1.109779,-3.384702 0.928521,-0.240359 2.320448,-6.807453 0.265047,-1.242442 0.735293,-2.45092 1.504786,-3.412728 3.055741,-3.815678 5.790005,-0.454918 10.412092,1.124213 1.08071,2.148197 -0.418946,3.987919 -1.922022,3.837579"
       style="fill:#d3ae7e;fill-opacity:1;fill-rule:nonzero;stroke:none;stroke-width:0.0178153"
       id="path4092" />
    <path
       d="m 48.999771,55.564737 c -0.229137,-0.361559 0.275308,-1.066489 0.634404,-0.872345 0.08379,0.05642 0.131669,0.133636 0.153899,0.22254 -0.02566,-0.04194 -0.05985,-0.07777 -0.10431,-0.108582 -0.324896,-0.175581 -0.767782,0.382534 -0.683993,0.758385"
       style="fill:#ad7748;fill-opacity:1;fill-rule:nonzero;stroke:none;stroke-width:0.0178153"
       id="path4094" />
    <path
       d="m 49.192999,55.714707 c -0.04958,-0.01429 -0.09747,-0.03953 -0.141928,-0.08463 l -0.01197,-0.01207 c -0.01539,-0.01578 -0.02907,-0.03341 -0.03933,-0.05252 -0.08208,-0.377151 0.359096,-0.934895 0.683992,-0.758941 0.04446,0.02989 0.07867,0.06682 0.10431,0.108769 l 0.0017,0.01207 c 0.07695,0.357106 -0.282147,0.866778 -0.596784,0.787339"
       style="fill:#cb9e69;fill-opacity:1;fill-rule:nonzero;stroke:none;stroke-width:0.0178153"
       id="path4096" />
    <path
       d="m 49.247718,55.791548 c -0.05301,-0.01504 -0.106016,-0.0438 -0.153898,-0.0954 -0.01539,-0.01727 -0.02907,-0.03341 -0.03933,-0.05401 l -0.0034,-0.01207 c 0.04446,0.0451 0.09234,0.07034 0.141929,0.08463 0.314637,0.07943 0.673733,-0.430233 0.596784,-0.787338 0.02051,0.0193 0.03933,0.04028 0.0513,0.06459 0.08892,0.358775 -0.275308,0.88144 -0.593365,0.799588"
       style="fill:#dcbe93;fill-opacity:1;fill-rule:nonzero;stroke:none;stroke-width:0.0178153"
       id="path4098" />
    <path
       d="m 49.192999,55.714707 c -0.04958,-0.01429 -0.09747,-0.03953 -0.141928,-0.08463 -0.07182,-0.375664 0.364226,-0.918932 0.685704,-0.74669 0.02051,0.01392 0.03761,0.02802 0.05301,0.04399 0.07695,0.357104 -0.282148,0.866778 -0.596785,0.787338"
       style="fill:#d4ae82;fill-opacity:1;fill-rule:nonzero;stroke:none;stroke-width:0.0178153"
       id="path4100" />
    <path
       d="m 69.485379,63.561179 c 0.542065,0.417798 -0.721613,2.664738 -1.586865,2.79559 -0.200068,0.0059 -0.314636,-0.08297 -0.362516,-0.238317 0.05985,0.04992 0.141928,0.07406 0.249657,0.0709 0.781463,-0.117673 1.884403,-1.959994 1.699724,-2.628174"
       style="fill:#69381f;fill-opacity:1;fill-rule:nonzero;stroke:none;stroke-width:0.0178153"
       id="path4102" />
    <path
       d="m 68.941604,63.583266 c 0.111149,-0.04307 0.218878,-0.05921 0.318057,-0.03582 l 0.02907,0.0089 c 0.0342,0.0098 0.06498,0.0245 0.08721,0.0503 0.172709,0.627161 -0.863542,2.35756 -1.597125,2.467253 -0.100885,0.0028 -0.177838,-0.02004 -0.234267,-0.06552 l -0.0052,-0.02246 c -0.155607,-0.602475 0.687414,-2.117759 1.402188,-2.402662"
       style="fill:#7a492a;fill-opacity:1;fill-rule:nonzero;stroke:none;stroke-width:0.0178153"
       id="path4104" />
    <path
       d="m 68.820195,63.507353 c 0.121409,-0.0464 0.239399,-0.06162 0.348837,-0.02858 0.03249,0.01151 0.06327,0.02617 0.0855,0.05197 l 0.0052,0.0167 c -0.09918,-0.02339 -0.206909,-0.0073 -0.318058,0.03582 -0.714773,0.284905 -1.557795,1.800188 -1.402187,2.402663 -0.04445,-0.01079 -0.08379,-0.02915 -0.116279,-0.05512 -0.181258,-0.585956 0.673734,-2.134648 1.397057,-2.42345"
       style="fill:#936b46;fill-opacity:1;fill-rule:nonzero;stroke:none;stroke-width:0.0178153"
       id="path4106" />
    <path
       d="m 68.941604,63.583266 c 0.111149,-0.04307 0.218878,-0.05921 0.318057,-0.03582 0.148769,0.641453 -0.873802,2.339373 -1.602255,2.45055 -0.04275,0.0017 -0.08378,-0.0022 -0.117988,-0.01207 -0.155609,-0.602475 0.687412,-2.117757 1.402186,-2.402662"
       style="fill:#8f633f;fill-opacity:1;fill-rule:nonzero;stroke:none;stroke-width:0.0178153"
       id="path4108" />
    <path
       d="m 54.36912,59.676456 c -0.251366,-0.232007 -0.646374,-0.337245 -1.118328,-0.169829 -0.242818,0.08574 -0.601915,0.300867 -0.695964,0.630687 -0.07524,0.275996 -0.03078,0.546052 0.09063,0.763767 -0.246238,-0.244257 -0.395006,-0.624377 -0.285566,-1.025285 0.09405,-0.32982 0.453145,-0.545123 0.695963,-0.630687 0.622434,-0.220686 1.116619,0.03563 1.313267,0.431347"
       style="fill:#9b6439;fill-opacity:1;fill-rule:nonzero;stroke:none;stroke-width:0.0178153"
       id="path4110" />
    <path
       d="m 53.336291,61.155731 c -0.224009,0.0516 -0.471956,-0.04065 -0.661765,-0.225139 l -0.02907,-0.0297 c -0.119699,-0.217158 -0.165869,-0.487585 -0.09063,-0.764323 0.09234,-0.32982 0.453147,-0.543824 0.695963,-0.62976 0.471956,-0.167416 0.866963,-0.06254 1.11833,0.170201 l 0.0017,0.0032 c 0.02735,0.05476 0.04788,0.110992 0.06156,0.170386 0.126539,0.482945 -0.160738,1.083194 -1.0961,1.305178"
       style="fill:#b78551;fill-opacity:1;fill-rule:nonzero;stroke:none;stroke-width:0.0178153"
       id="path4112" />
    <path
       d="m 53.445729,61.369735 c -0.234267,0.05476 -0.495895,-0.04993 -0.690833,-0.254651 -0.03078,-0.05791 -0.05814,-0.120458 -0.08037,-0.184492 0.189809,0.184492 0.437756,0.276738 0.661765,0.225139 0.935361,-0.221983 1.222639,-0.822232 1.096099,-1.305177 0.01539,0.0109 0.03078,0.02506 0.04617,0.03917 l 0.0017,0.0046 c 0.246238,0.501692 0.0171,1.227038 -1.03454,1.475379"
       style="fill:#caa77a;fill-opacity:1;fill-rule:nonzero;stroke:none;stroke-width:0.0178153"
       id="path4114" />
    <path
       d="m 53.336291,61.155731 c -0.224009,0.0516 -0.471956,-0.04065 -0.661765,-0.225139 -0.05643,-0.178181 -0.06498,-0.376594 -0.01024,-0.579832 0.09405,-0.32982 0.454855,-0.544008 0.695963,-0.629945 0.442886,-0.157764 0.819083,-0.0735 1.072161,0.129739 0.126539,0.482945 -0.160739,1.083194 -1.096101,1.305177"
       style="fill:#c59a69;fill-opacity:1;fill-rule:nonzero;stroke:none;stroke-width:0.0178153"
       id="path4116" />
    <path
       d="m 54.194702,71.021592 c 0.678864,0.346155 1.229479,0.191731 1.407317,-0.104309 0.02051,0.435058 -0.624144,0.778057 -1.474006,0.344483 -0.547195,-0.277481 -0.718193,-0.691753 -0.542065,-0.947331 0.01368,0.229594 0.213748,0.505775 0.608754,0.707157"
       style="fill:#69381f;fill-opacity:1;fill-rule:nonzero;stroke:none;stroke-width:0.0178153"
       id="path4118" />
    <path
       d="m 53.645798,70.245575 0.0017,-5.78e-4 c 0.148769,-0.135306 0.429206,-0.197113 0.832763,-0.115261 0.731872,0.151083 1.063609,0.456032 1.114908,0.732399 0.0034,0.0193 0.0068,0.03768 0.0068,0.0555 -0.177839,0.295855 -0.728453,0.449908 -1.405606,0.103935 -0.396717,-0.201012 -0.596785,-0.477192 -0.610465,-0.7066 0.0171,-0.02469 0.03591,-0.04789 0.05985,-0.06941"
       style="fill:#7a492a;fill-opacity:1;fill-rule:nonzero;stroke:none;stroke-width:0.0178153"
       id="path4120" />
    <path
       d="m 54.531569,69.998535 c 0.781463,0.161105 1.10807,0.498536 1.12175,0.787894 -0.01539,0.0271 -0.0342,0.05215 -0.05814,0.07573 -0.0513,-0.276367 -0.383037,-0.581316 -1.11491,-0.732399 -0.403556,-0.08186 -0.683994,-0.02004 -0.832762,0.115261 -0.0052,-0.02116 -0.0086,-0.04158 -0.01024,-0.06126 0.128249,-0.181151 0.427496,-0.279893 0.894322,-0.185234"
       style="fill:#936b46;fill-opacity:1;fill-rule:nonzero;stroke:none;stroke-width:0.0178153"
       id="path4122" />
    <path
       d="m 53.645798,70.245575 0.0017,-5.78e-4 c 0.148769,-0.135306 0.429206,-0.197113 0.832763,-0.115261 0.731872,0.151083 1.063609,0.456032 1.114908,0.732399 -0.220587,0.244257 -0.731873,0.343185 -1.347467,0.0284 -0.360806,-0.183378 -0.560875,-0.429862 -0.601914,-0.644979"
       style="fill:#8f633f;fill-opacity:1;fill-rule:nonzero;stroke:none;stroke-width:0.0178153"
       id="path4124" />
    <path
       d="m 58.946748,50.862422 c 0.02735,-0.0696 0.02735,-0.142916 -0.0034,-0.217901 -0.138509,-0.946774 -2.520516,-1.074285 -3.105331,-0.495195 0.521546,-1.119573 3.045482,-0.751331 3.19938,0.353763 0.05301,0.127325 0.01197,0.249454 -0.09063,0.359333"
       style="fill:#ad7748;fill-opacity:1;fill-rule:nonzero;stroke:none;stroke-width:0.0178153"
       id="path4126" />
    <path
       d="m 56.219324,50.925157 c -0.253078,-0.210292 -0.377907,-0.397011 -0.406976,-0.557374 v -0.0068 c -0.01539,-0.07591 -0.0068,-0.144772 0.02223,-0.207693 l 0.0034,-0.0035 c 0.843022,-0.763953 2.965112,-0.45195 3.105331,0.495195 0.03078,0.07499 0.03078,0.147556 0.0034,0.217344 -0.0171,0.01949 -0.03933,0.03823 -0.06327,0.05717 -0.499315,0.4165 -1.956222,0.606003 -2.664155,0.0057"
       style="fill:#cb9e69;fill-opacity:1;fill-rule:nonzero;stroke:none;stroke-width:0.0178153"
       id="path4128" />
    <path
       d="m 56.152634,51.173682 c -0.253077,-0.210847 -0.376196,-0.396453 -0.406976,-0.557373 -0.01539,-0.07814 -0.0068,-0.149599 0.02051,-0.21456 l 0.0034,-0.0037 0.04275,-0.03712 v 0.0068 c 0.02907,0.160363 0.153899,0.347082 0.406977,0.557373 0.707933,0.600249 2.164839,0.410746 2.664155,-0.0057 0.02394,0.06533 0.02051,0.13011 -0.0034,0.19136 -0.432626,0.455475 -1.987,0.690453 -2.727423,0.06292"
       style="fill:#dcbe93;fill-opacity:1;fill-rule:nonzero;stroke:none;stroke-width:0.0178153"
       id="path4130" />
    <path
       d="m 56.219324,50.925157 c -0.253078,-0.210292 -0.377907,-0.397011 -0.406976,-0.557374 v -0.0068 c 0.646374,-0.536029 2.927492,-0.393484 3.06429,0.532503 l 0.0068,0.02599 c -0.499315,0.416499 -1.956222,0.606002 -2.664155,0.0057"
       style="fill:#d4ae82;fill-opacity:1;fill-rule:nonzero;stroke:none;stroke-width:0.0178153"
       id="path4132" />
    <path
       d="m 58.127666,63.291309 c -0.685704,-0.555146 -0.918262,-1.613098 0.625853,-3.246797 1.067031,-1.124398 2.901843,-0.50559 3.645686,0.518396 -0.863542,-0.790865 -2.387137,-1.147784 -3.315658,-0.161106 -1.258548,1.333204 -1.337208,2.282577 -0.955881,2.889507"
       style="fill:#824a29;fill-opacity:1;fill-rule:nonzero;stroke:none;stroke-width:0.0178153"
       id="path4134" />
    <path
       d="m 59.888949,63.72544 c -0.365937,0.098 -0.928521,0.03545 -1.405607,-0.20565 l -0.0017,-0.0011 c -0.124828,-0.06218 -0.242816,-0.137162 -0.350546,-0.223839 l -0.0034,-0.0037 c -0.381327,-0.607301 -0.304377,-1.556487 0.955881,-2.889135 0.822502,-0.874943 2.11525,-0.694721 2.997602,-0.09169 0.112858,0.07758 0.218878,0.161662 0.318056,0.252238 0.222298,0.295484 0.347127,0.628274 0.333447,0.960137 -0.03249,0.796619 -0.800273,1.654302 -2.843703,2.202766"
       style="fill:#986339;fill-opacity:1;fill-rule:nonzero;stroke:none;stroke-width:0.0178153"
       id="path4136" />
    <path
       d="m 60.160837,63.890072 c -0.439466,0.116932 -1.159369,0.0043 -1.677495,-0.370282 0.477086,0.2411 1.03967,0.30365 1.405607,0.20565 2.04343,-0.548464 2.811214,-1.406147 2.843703,-2.202766 0.01368,-0.331863 -0.111149,-0.664653 -0.333447,-0.960138 -0.09918,-0.09058 -0.205197,-0.174654 -0.318056,-0.252237 0.217168,0.115817 0.417236,0.258548 0.589943,0.417056 0.2223,0.295483 0.345419,0.628088 0.333448,0.958837 -0.03249,0.797918 -0.800272,1.655602 -2.843703,2.20388"
       style="fill:#af885a;fill-opacity:1;fill-rule:nonzero;stroke:none;stroke-width:0.0178153"
       id="path4138" />
    <path
       d="m 59.888949,63.72544 c -0.365937,0.098 -0.928521,0.03545 -1.405607,-0.20565 l -0.0017,-0.0011 c -0.02735,-0.01893 -0.05301,-0.03898 -0.07866,-0.05902 l -0.0034,-0.0037 c -0.381326,-0.607301 -0.302667,-1.556487 0.954171,-2.889135 0.743843,-0.788452 1.865593,-0.719407 2.727424,-0.256507 0.112859,0.07758 0.218878,0.161663 0.318058,0.252238 0.222298,0.295484 0.347127,0.628274 0.333446,0.960138 -0.03249,0.796618 -0.800272,1.654301 -2.843703,2.202765"
       style="fill:#a97c4f;fill-opacity:1;fill-rule:nonzero;stroke:none;stroke-width:0.0178153"
       id="path4140" />
    <path
       d="m 64.001461,60.883077 c 0.143638,0.07034 0.04275,0.222912 -0.06669,0.179296 -0.159027,-0.06329 -0.0017,-0.212704 0.06669,-0.179296"
       style="fill:#b0895b;fill-opacity:1;fill-rule:nonzero;stroke:none;stroke-width:0.0178153"
       id="path4142" />
    <path
       d="m 64.776083,58.971155 c 0.355677,0.175026 0.107734,0.554404 -0.165868,0.445824 -0.395006,-0.157022 -0.0034,-0.528975 0.165868,-0.445824"
       style="fill:#b0895b;fill-opacity:1;fill-rule:nonzero;stroke:none;stroke-width:0.0178153"
       id="path4144" />
    <path
       d="m 64.08183,60.041542 c 0.201778,0.09874 0.06156,0.312745 -0.09234,0.251495 -0.222298,-0.08872 -0.0017,-0.298454 0.09234,-0.251495"
       style="fill:#b0895b;fill-opacity:1;fill-rule:nonzero;stroke:none;stroke-width:0.0178153"
       id="path4146" />
    <path
       d="m 64.654674,60.622301 c 0.280438,0.137535 0.0855,0.435431 -0.129958,0.350053 -0.309507,-0.123429 -0.0034,-0.415385 0.129958,-0.350053"
       style="fill:#b0895b;fill-opacity:1;fill-rule:nonzero;stroke:none;stroke-width:0.0178153"
       id="path4148" />
    <path
       d="m 63.934771,63.396176 c 0.451436,0.222356 0.136799,0.704001 -0.210327,0.566097 -0.501026,-0.199526 -0.0052,-0.671707 0.210327,-0.566097"
       style="fill:#b0895b;fill-opacity:1;fill-rule:nonzero;stroke:none;stroke-width:0.0178153"
       id="path4150" />
    <path
       d="m 64.032241,55.710438 c 0.278726,0.137533 0.08378,0.43543 -0.129959,0.350051 -0.309507,-0.123242 -0.0034,-0.415384 0.129959,-0.350051"
       style="fill:#b0895b;fill-opacity:1;fill-rule:nonzero;stroke:none;stroke-width:0.0178153"
       id="path4152" />
    <path
       d="m 56.706669,69.814971 c 0.131669,0.313301 -0.270177,0.285647 -0.388167,0.05512 -0.167578,-0.333347 0.326608,-0.203795 0.388167,-0.05512"
       style="fill:#946d48;fill-opacity:1;fill-rule:nonzero;stroke:none;stroke-width:0.0178153"
       id="path4154" />
    <path
       d="m 57.905368,70.411321 c 0.08378,0.218829 -0.193229,0.186905 -0.270177,0.02525 -0.11115,-0.233678 0.229137,-0.128995 0.270177,-0.02525"
       style="fill:#946d48;fill-opacity:1;fill-rule:nonzero;stroke:none;stroke-width:0.0178153"
       id="path4156" />
    <path
       d="m 57.072606,71.059084 c 0.266757,0.47812 -0.362517,0.562756 -0.589945,0.217715 -0.328318,-0.499093 0.463406,-0.444524 0.589945,-0.217715"
       style="fill:#946d48;fill-opacity:1;fill-rule:nonzero;stroke:none;stroke-width:0.0178153"
       id="path4158" />
    <path
       d="m 54.952225,58.530342 c 0.393297,-0.141617 0.482216,0.321469 0.200068,0.448794 -0.410395,0.183935 -0.386455,-0.381605 -0.200068,-0.448794"
       style="fill:#cba87b;fill-opacity:1;fill-rule:nonzero;stroke:none;stroke-width:0.0178153"
       id="path4160" />
    <path
       d="m 53.845865,61.726469 c 0.660055,-0.398681 1.055061,0.247597 0.593365,0.572407 -0.666893,0.469396 -0.906291,-0.383276 -0.593365,-0.572407"
       style="fill:#cba87b;fill-opacity:1;fill-rule:nonzero;stroke:none;stroke-width:0.0178153"
       id="path4162" />
    <path
       d="m 54.926576,60.986088 c 0.288987,0.142175 0.08892,0.449723 -0.133379,0.36156 -0.319767,-0.127325 -0.0034,-0.428935 0.133379,-0.36156"
       style="fill:#cba87b;fill-opacity:1;fill-rule:nonzero;stroke:none;stroke-width:0.0178153"
       id="path4164" />
    <path
       d="m 55.039435,61.969797 c 0.186388,0.09188 0.05643,0.29103 -0.08721,0.234049 -0.206908,-0.08241 -0.0017,-0.277665 0.08721,-0.234049"
       style="fill:#cba87b;fill-opacity:1;fill-rule:nonzero;stroke:none;stroke-width:0.0178153"
       id="path4166" />
    <path
       d="m 55.55927,60.285428 c 0.186388,0.09188 0.05643,0.291029 -0.08721,0.234049 -0.206908,-0.08241 -0.0017,-0.277667 0.08721,-0.234049"
       style="fill:#cba87b;fill-opacity:1;fill-rule:nonzero;stroke:none;stroke-width:0.0178153"
       id="path4168" />
    <path
       d="m 57.282933,52.289914 c -0.03249,0.202125 -0.224008,0.139575 -0.208617,-0.01151 0.02223,-0.218458 0.225718,-0.08445 0.208617,0.01151"
       style="fill:#dcbe93;fill-opacity:1;fill-rule:nonzero;stroke:none;stroke-width:0.0178153"
       id="path4170" />
    <path
       d="m 57.924177,52.674303 c 0.119699,0.345041 -0.225717,0.439329 -0.331736,0.191916 -0.152189,-0.357662 0.275307,-0.35562 0.331736,-0.191916"
       style="fill:#dcbe93;fill-opacity:1;fill-rule:nonzero;stroke:none;stroke-width:0.0178153"
       id="path4172" />
    <path
       d="m 49.374257,53.542937 c -0.275307,-0.181152 -0.0684,-0.472923 0.14364,-0.355435 0.307797,0.170015 -0.01197,0.44137 -0.14364,0.355435"
       style="fill:#dcbe93;fill-opacity:1;fill-rule:nonzero;stroke:none;stroke-width:0.0178153"
       id="path4174" />
    <path
       d="m 50.938893,48.716823 c -0.316347,0.07499 -0.350547,-0.291587 -0.121409,-0.365272 0.330027,-0.106346 0.270178,0.329635 0.121409,0.365272"
       style="fill:#dcbe93;fill-opacity:1;fill-rule:nonzero;stroke:none;stroke-width:0.0178153"
       id="path4176" />
    <path
       d="m 50.427608,49.699047 c 0.588234,0.03972 0.480506,0.702517 0.04446,0.707528 -0.630985,0.0068 -0.323187,-0.72646 -0.04446,-0.707528"
       style="fill:#dcbe93;fill-opacity:1;fill-rule:nonzero;stroke:none;stroke-width:0.0178153"
       id="path4178" />
    <path
       d="m 52.293201,48.48927 c 0.367646,0.626233 -0.379617,1.004683 -0.687414,0.566096 -0.442886,-0.633842 0.512995,-0.863065 0.687414,-0.566096"
       style="fill:#dcbe93;fill-opacity:1;fill-rule:nonzero;stroke:none;stroke-width:0.0178153"
       id="path4180" />
    <path
       d="m 52.718986,50.009194 c 0.165869,0.408703 -0.246237,0.547535 -0.388165,0.255949 -0.206909,-0.42151 0.309507,-0.449722 0.388165,-0.255949"
       style="fill:#dcbe93;fill-opacity:1;fill-rule:nonzero;stroke:none;stroke-width:0.0178153"
       id="path4182" />
    <path
       d="m 51.639987,50.504575 c -0.170998,0.148113 -0.292408,-0.06254 -0.174418,-0.181894 0.170997,-0.172242 0.254786,0.111548 0.174418,0.181894"
       style="fill:#dcbe93;fill-opacity:1;fill-rule:nonzero;stroke:none;stroke-width:0.0178153"
       id="path4184" />
    <path
       d="m 53.623568,47.64031 c -0.147059,0.252795 -0.372776,0.05606 -0.277017,-0.138833 0.138508,-0.281749 0.347126,0.01893 0.277017,0.138833"
       style="fill:#dcbe93;fill-opacity:1;fill-rule:nonzero;stroke:none;stroke-width:0.0178153"
       id="path4186" />
    <path
       d="m 50.926923,50.801543 c 0.121409,0.302537 -0.182968,0.405549 -0.288986,0.189504 -0.15219,-0.312189 0.230847,-0.332977 0.288986,-0.189504"
       style="fill:#dcbe93;fill-opacity:1;fill-rule:nonzero;stroke:none;stroke-width:0.0178153"
       id="path4188" />
    <path
       d="m 48.907432,56.317924 c 0.136799,0.154239 -0.04445,0.280821 -0.153899,0.17447 -0.157317,-0.153682 0.08892,-0.247599 0.153899,-0.17447"
       style="fill:#dcbe93;fill-opacity:1;fill-rule:nonzero;stroke:none;stroke-width:0.0178153"
       id="path4190" />
    <path
       d="m 48.05415,55.707097 c 0.198359,0.225325 -0.06498,0.410188 -0.224008,0.254836 -0.229137,-0.224398 0.129959,-0.361559 0.224008,-0.254836"
       style="fill:#dcbe93;fill-opacity:1;fill-rule:nonzero;stroke:none;stroke-width:0.0178153"
       id="path4192" />
  </g>
</svg>
