<?xml version="1.0" encoding="UTF-8" standalone="no"?>
<!-- Created with Inkscape (http://www.inkscape.org/) -->

<svg
   width="100"
   height="100"
   viewBox="0 0 26.458333 26.458332"
   version="1.1"
   id="svg8746"
   inkscape:version="1.2.1 (9c6d41e410, 2022-07-14)"
   sodipodi:docname="asteroid-whole-3.svg"
   xmlns:inkscape="http://www.inkscape.org/namespaces/inkscape"
   xmlns:sodipodi="http://sodipodi.sourceforge.net/DTD/sodipodi-0.dtd"
   xmlns="http://www.w3.org/2000/svg"
   xmlns:svg="http://www.w3.org/2000/svg">
  <sodipodi:namedview
     id="namedview8748"
     pagecolor="#505050"
     bordercolor="#ffffff"
     borderopacity="1"
     inkscape:showpageshadow="0"
     inkscape:pageopacity="0"
     inkscape:pagecheckerboard="1"
     inkscape:deskcolor="#505050"
     inkscape:document-units="px"
     showgrid="false"
     inkscape:zoom="2.1089995"
     inkscape:cx="29.160747"
     inkscape:cy="84.40021"
     inkscape:window-width="1920"
     inkscape:window-height="1017"
     inkscape:window-x="-8"
     inkscape:window-y="-8"
     inkscape:window-maximized="1"
     inkscape:current-layer="layer1" />
  <defs
     id="defs8743" />
  <g
     inkscape:label="Warstwa 1"
     inkscape:groupmode="layer"
     id="layer1"
     transform="translate(-79.10357,-138.10735)">
    <path
       d="m 81.219241,150.99894 -0.0045,0.0227 c 0.0029,-0.0227 0.0074,-0.0454 0.01041,-0.0662 l -0.0059,0.0435"
       style="fill:#7e5130;fill-opacity:1;fill-rule:nonzero;stroke:none;stroke-width:0.0154706"
       id="path4822" />
    <path
       d="m 105.09967,152.14972 c -0.89841,7.20203 2.48286,7.65952 -10.584033,11.7264 -2.650294,0.82378 -3.741348,0.30604 -5.042856,-0.33835 1.184361,-1.09227 3.1915,-0.4498 4.525621,-1.82558 3.22411,-3.32414 7.224818,-1.16039 6.811308,-5.65437 -0.37651,-4.09884 2.57178,-1.36808 2.45176,-5.14203 -0.14236,-4.47703 -2.17156,-1.84077 -3.44046,-5.33698 1.12654,0.9279 2.51547,1.84636 4.26611,2.68552 0.41653,0.19844 0.78264,0.48561 1.00364,0.97506 0.38981,0.85803 0.13044,1.92952 0.009,2.91033"
       style="fill:#7e5130;fill-opacity:1;fill-rule:nonzero;stroke:none;stroke-width:0.0154706"
       id="path4824" />
    <path
       d="m 100.80971,156.05782 c 0.41351,4.49398 -3.587198,2.33023 -6.811308,5.65437 -1.334121,1.37578 -3.34126,0.73331 -4.525621,1.82558 -0.675896,-0.33451 -1.408245,-0.70308 -2.445864,-0.93541 -0.330619,-0.0737 -0.717414,-0.10777 -1.138325,-0.12664 1.058307,-3.29585 3.369347,-2.23188 5.302226,-3.53778 2.548213,-1.72164 0.781262,-4.0309 4.003729,-6.62384 5.121503,-4.12348 1.266025,-5.48789 1.798054,-7.51942 0.278825,-1.05454 0.601907,-0.9885 0.636028,-1.36076 0.604785,0.69925 1.319319,1.42487 2.192381,2.14314 v 0.002 c 1.2689,3.49621 3.2981,0.85995 3.44046,5.33698 0.12002,3.77395 -2.82827,1.04319 -2.45176,5.14204"
       style="fill:#9e6f43;fill-opacity:1;fill-rule:nonzero;stroke:none;stroke-width:0.0154706"
       id="path4826" />
    <path
       d="m 81.219241,150.99894 -0.0045,0.0227 c 0.0029,-0.0227 0.0074,-0.0454 0.01041,-0.0662 l -0.0059,0.0435"
       style="fill:#bf9460;fill-opacity:1;fill-rule:nonzero;stroke:none;stroke-width:0.0154706"
       id="path4828" />
    <path
       d="m 95.194547,152.3141 c -3.222467,2.59294 -1.455516,4.9022 -4.003729,6.62384 -1.932879,1.3059 -4.243919,0.24193 -5.302226,3.53778 -0.03562,-0.002 -0.07125,-0.004 -0.106872,-0.006 -0.01329,0 -0.02658,-0.002 -0.0385,-0.002 -1.507445,-0.0679 -3.934126,-0.0926 -5.331958,-1.57596 l -0.0059,-0.008 c -0.658223,-0.82763 -1.073243,-2.09947 -1.034741,-4.05535 1.629114,1.33036 1.62473,2.66822 4.98065,1.03357 3.08189,-1.50049 1.943428,-1.21507 2.823889,-2.63993 0.692338,-1.12073 3.338248,-1.17733 2.853486,-5.39741 -0.327604,-2.85548 0.213471,-2.73268 0.05042,-3.95159 -0.166064,-1.24354 -1.279176,-2.22245 -0.950201,-3.51315 0.351307,-1.37193 0.871556,-1.12442 0.161539,-2.25826 5.034087,-3.8232 4.866516,-0.67845 8.338217,3.33166 -0.0341,0.37225 -0.357203,0.30622 -0.636028,1.36075 -0.532029,2.03153 3.323447,3.39594 -1.798054,7.51942"
       style="fill:#bf9460;fill-opacity:1;fill-rule:nonzero;stroke:none;stroke-width:0.0154706"
       id="path4830" />
    <path
       d="m 90.028653,149.82527 c 0.484762,4.22008 -2.161148,4.27668 -2.853486,5.39741 -0.880461,1.42486 0.258001,1.13944 -2.823889,2.63993 -3.35592,1.63465 -3.351536,0.29679 -4.98065,-1.03357 0.182367,-1.51378 1.162165,-3.24484 1.643912,-4.93067 v -0.002 c 0.03261,-0.11146 0.06234,-0.22482 0.09043,-0.33626 0.02973,-0.11914 0.05494,-0.2381 0.07865,-0.35914 0.01028,-0.0585 0.0222,-0.11896 0.0311,-0.1794 l 0.0045,-0.0227 0.0059,-0.0435 c 0.0074,-0.036 0.01178,-0.0718 0.01631,-0.10778 0.0029,-0.015 0.0059,-0.0341 0.0059,-0.051 l 0.003,-0.0189 c 0.0029,-0.0171 0.0044,-0.0379 0.0074,-0.0568 0.0044,-0.0416 0.0089,-0.0831 0.01178,-0.12664 0.0015,-0.0225 0.003,-0.0435 0.0044,-0.066 0.0045,-0.0435 0.006,-0.0908 0.0089,-0.13416 0.08166,-1.89561 -0.483117,-2.57023 1.292741,-4.27859 2.964605,-2.85164 5.10657,-4.78691 6.714856,-6.01333 0.710016,1.13384 0.189767,0.88632 -0.16154,2.25825 -0.328974,1.29071 0.784137,2.26962 0.950201,3.51315 0.16305,1.21891 -0.378024,1.09611 -0.05042,3.9516"
       style="fill:#d3ae7e;fill-opacity:1;fill-rule:nonzero;stroke:none;stroke-width:0.0154706"
       id="path4832" />
    <path
       d="m 94.997929,143.16056 c -0.09892,-0.20962 -0.237447,-0.38936 -0.402551,-0.52509 -0.458181,-0.3635 -1.103522,-0.40735 -1.714612,-0.2007 -0.07796,0.0267 -0.158937,0.058 -0.236351,0.0954 -0.47572,0.12298 -0.943078,0.54763 -1.205874,1.07429 -0.274716,0.54483 -0.346103,1.16301 -0.259371,1.70924 -0.03204,-0.0737 -0.06111,-0.14831 -0.08399,-0.22848 -0.185247,-0.6182 -0.14976,-1.3887 0.17949,-2.04743 0.262933,-0.52683 0.733444,-0.95235 1.205875,-1.07794 0.0807,-0.0348 0.158525,-0.0652 0.2395,-0.0927 0.61109,-0.20665 1.253282,-0.16543 1.711598,0.20193 0.303352,0.24297 0.512714,0.64054 0.566285,1.09157"
       style="fill:#9b6439;fill-opacity:1;fill-rule:nonzero;stroke:none;stroke-width:0.0154706"
       id="path4834" />
    <path
       d="m 94.005525,145.30737 c -0.03095,0.0241 -0.05782,0.0468 -0.08892,0.0662 -0.480512,0.34272 -1.018984,0.49103 -1.533202,0.52439 -0.326372,0.0204 -0.663157,-0.0108 -0.909373,-0.19407 -0.04837,-0.0355 -0.09262,-0.0749 -0.132767,-0.12333 -0.06714,-0.0741 -0.119617,-0.16751 -0.162227,-0.2669 -0.08673,-0.54571 -0.01561,-1.16459 0.259783,-1.70854 0.262792,-0.52702 0.730018,-0.95149 1.205598,-1.07499 0.07728,-0.0381 0.158114,-0.0685 0.236215,-0.0957 0.61109,-0.20683 1.256707,-0.16281 1.715295,0.2007 0.100706,0.0831 0.191275,0.18289 0.269512,0.29696 0.04987,0.0709 0.09481,0.14725 0.133179,0.22813 l -7.77e-4,0.004 c 0.02657,0.22725 0.01643,0.46552 -0.04083,0.70675 -0.137016,0.57277 -0.508873,1.09157 -0.951436,1.43621"
       style="fill:#b78551;fill-opacity:1;fill-rule:nonzero;stroke:none;stroke-width:0.0154706"
       id="path4836" />
    <path
       d="m 94.237495,145.57078 c -0.03095,0.0239 -0.05878,0.0464 -0.08893,0.0662 -0.480924,0.34098 -1.018984,0.49103 -1.534161,0.52387 -0.388165,0.0246 -0.793866,-0.0253 -1.04214,-0.31739 -0.03756,-0.041 -0.07029,-0.0877 -0.09824,-0.13957 0.246216,0.18324 0.583001,0.21451 0.909373,0.19407 0.514218,-0.0334 1.05269,-0.18167 1.533202,-0.52439 0.03111,-0.0194 0.05796,-0.0421 0.08892,-0.0662 0.442563,-0.34465 0.81442,-0.86345 0.951436,-1.43622 0.05727,-0.24123 0.06741,-0.4795 0.04083,-0.70675 l 7.77e-4,-0.004 c -0.03837,-0.0809 -0.08331,-0.15721 -0.13318,-0.22813 0.147837,0.13153 0.272522,0.29818 0.364186,0.49102 l -7.76e-4,0.004 c 0.02808,0.22656 0.01643,0.46552 -0.04083,0.70676 -0.137016,0.57277 -0.507918,1.09209 -0.950477,1.43673"
       style="fill:#caa77a;fill-opacity:1;fill-rule:nonzero;stroke:none;stroke-width:0.0154706"
       id="path4838" />
    <path
       d="m 94.005525,145.30737 c -0.03095,0.0241 -0.05782,0.0468 -0.08892,0.0662 -0.480512,0.34272 -1.018984,0.49103 -1.533202,0.52439 -0.326372,0.0204 -0.663157,-0.0108 -0.909373,-0.19407 -0.02412,-0.0397 -0.04467,-0.0823 -0.06399,-0.12735 -0.08673,-0.54569 -0.01464,-1.16406 0.259782,-1.70853 0.262797,-0.52683 0.730155,-0.9513 1.205599,-1.0748 0.07824,-0.0377 0.158118,-0.0686 0.236215,-0.0959 0.612049,-0.20629 1.256707,-0.16281 1.715299,0.20071 0.01301,0.0103 0.02629,0.0224 0.03849,0.0341 0.04987,0.0709 0.09481,0.14725 0.133179,0.22813 l -7.76e-4,0.004 c 0.02657,0.22725 0.01643,0.46552 -0.04083,0.70675 -0.137016,0.57278 -0.508873,1.09157 -0.951436,1.43622"
       style="fill:#c59a69;fill-opacity:1;fill-rule:nonzero;stroke:none;stroke-width:0.0154706"
       id="path4840" />
    <path
       d="m 83.530555,148.01507 c -0.193603,-0.43128 -0.126054,-1.45281 1.416467,-2.53599 1.063514,-0.74537 2.114011,0.047 2.162104,0.81523 -0.208127,-0.60842 -0.97418,-0.9424 -1.90383,-0.28788 -1.257254,0.88405 -1.668027,1.55622 -1.674741,2.00864"
       style="fill:#ad7748;fill-opacity:1;fill-rule:nonzero;stroke:none;stroke-width:0.0154706"
       id="path4842" />
    <path
       d="m 84.407043,148.41596 c -0.290884,0.0582 -0.654934,-0.047 -0.82908,-0.31267 -0.01768,-0.0269 -0.03384,-0.0547 -0.047,-0.0847 l -5.43e-4,-0.003 c 0.0077,-0.4526 0.417212,-1.23603 1.675014,-2.11991 0.929239,-0.65487 1.695155,-0.2091 1.903556,0.39967 0.004,0.0545 0.0041,0.11005 -1.37e-4,0.16664 -0.01288,0.17415 -0.06865,0.3567 -0.17031,0.53417 -0.32459,0.56631 -1.109415,1.13734 -2.531498,1.42049"
       style="fill:#cb9e69;fill-opacity:1;fill-rule:nonzero;stroke:none;stroke-width:0.0154706"
       id="path4844" />
    <path
       d="m 84.437324,148.66243 c -0.320479,0.0638 -0.72906,-0.0709 -0.876077,-0.39862 l -5.44e-4,-0.002 c 2.74e-4,-0.0498 0.0064,-0.10236 0.01726,-0.15807 0.174146,0.26568 0.538197,0.37084 0.829081,0.31267 1.422083,-0.28315 2.206908,-0.85418 2.531498,-1.4205 0.101665,-0.17746 0.157431,-0.36001 0.17031,-0.53416 0.0111,0.0262 0.02151,0.0521 0.03055,0.0786 0.01822,0.22237 -0.03535,0.4657 -0.170447,0.70099 -0.325549,0.56701 -1.109552,1.13716 -2.531636,1.42154"
       style="fill:#dcbe93;fill-opacity:1;fill-rule:nonzero;stroke:none;stroke-width:0.0154706"
       id="path4846" />
    <path
       d="m 84.407043,148.41596 c -0.290884,0.0582 -0.654934,-0.047 -0.82908,-0.31267 0.09139,-0.44614 0.539978,-1.06503 1.65775,-1.85126 0.888409,-0.62553 1.628566,-0.34813 1.873139,0.20926 -0.01288,0.17416 -0.06865,0.35671 -0.17031,0.53417 -0.32459,0.56632 -1.109415,1.13735 -2.531499,1.4205"
       style="fill:#d4ae82;fill-opacity:1;fill-rule:nonzero;stroke:none;stroke-width:0.0154706"
       id="path4848" />
    <path
       d="m 96.60649,156.52387 c 0.0226,0.0208 0.04494,0.0384 0.06961,0.0555 1.895609,1.31516 2.633574,-1.13227 1.97549,-2.36009 1.174908,1.36791 0.03208,3.85063 -1.7079,2.71136 -0.142085,-0.0929 -0.253204,-0.23965 -0.337197,-0.40682"
       style="fill:#824a29;fill-opacity:1;fill-rule:nonzero;stroke:none;stroke-width:0.0154706"
       id="path4850" />
    <path
       d="m 96.991641,154.18824 c 0.7107,-0.37609 1.241498,-0.31268 1.598972,-0.0218 0.01973,0.0168 0.03946,0.0335 0.0581,0.0507 l 0.0027,0.002 c 0.644794,1.20004 -0.04878,3.56991 -1.853818,2.43991 l -0.0039,-0.002 c -0.0396,-0.0246 -0.0781,-0.051 -0.117969,-0.0784 -0.02455,-0.0173 -0.04645,-0.0335 -0.06933,-0.0557 -0.372132,-0.74937 -0.191958,-2.03151 0.385151,-2.33493"
       style="fill:#986339;fill-opacity:1;fill-rule:nonzero;stroke:none;stroke-width:0.0154706"
       id="path4852" />
    <path
       d="m 96.28834,154.85726 c 0.113177,-0.62133 0.451057,-1.18957 1.133257,-1.25962 0.596975,-0.0596 0.972126,0.18744 1.169016,0.56876 -0.357474,-0.29084 -0.888272,-0.35425 -1.598972,0.0218 -0.577109,0.30341 -0.757283,1.58556 -0.385151,2.33493 0.02288,0.0222 0.0448,0.0384 0.06933,0.0557 0.03987,0.0274 0.07837,0.0538 0.117969,0.0784 -0.588205,-0.29049 -0.643834,-1.03917 -0.505451,-1.80007"
       style="fill:#af885a;fill-opacity:1;fill-rule:nonzero;stroke:none;stroke-width:0.0154706"
       id="path4854" />
    <path
       d="m 96.991641,154.18824 c 0.7107,-0.37609 1.241498,-0.31268 1.598972,-0.0218 0.469141,0.91148 -0.09112,2.58858 -1.110373,2.61722 -0.281292,0.008 -0.506274,-0.0372 -0.682747,-0.1242 l -0.0039,-0.002 c -0.0396,-0.0246 -0.0781,-0.051 -0.11797,-0.0784 -0.02455,-0.0173 -0.04645,-0.0335 -0.06933,-0.0557 -0.372132,-0.74937 -0.191958,-2.03151 0.385152,-2.33493"
       style="fill:#a97c4f;fill-opacity:1;fill-rule:nonzero;stroke:none;stroke-width:0.0154706"
       id="path4856" />
    <path
       d="m 89.374402,161.35305 c -0.0348,0.0631 -0.05453,0.13486 -0.05398,0.21329 1.36e-4,0.0262 0.0019,0.0524 0.0056,0.0784 0.05152,0.39006 0.802364,0.84545 1.161893,0.49783 -0.299107,0.56841 -1.201765,0.0608 -1.256979,-0.3677 -0.0035,-0.026 -0.0055,-0.0522 -0.0056,-0.0784 -7.76e-4,-0.13414 0.05714,-0.25171 0.149072,-0.34342"
       style="fill:#824a29;fill-opacity:1;fill-rule:nonzero;stroke:none;stroke-width:0.0154706"
       id="path4858" />
    <path
       d="m 90.564247,161.90417 c -0.01111,0.0648 -0.02699,0.12245 -0.04631,0.17171 -0.009,0.0241 -0.0193,0.0457 -0.02944,0.0662 -0.360624,0.34779 -1.110784,-0.10707 -1.162029,-0.49697 -0.0039,-0.0262 -0.0062,-0.0526 -0.0063,-0.0789 -3.89e-4,-0.0777 0.01973,-0.14988 0.05399,-0.21381 0.02629,-0.0266 0.05508,-0.0508 0.08618,-0.0729 0.421046,-0.30411 1.247113,-0.21764 1.103933,0.62466"
       style="fill:#986339;fill-opacity:1;fill-rule:nonzero;stroke:none;stroke-width:0.0154706"
       id="path4860" />
    <path
       d="m 90.675501,161.77717 c -0.0167,0.0935 -0.04275,0.17294 -0.07577,0.23792 -0.02536,0.0243 -0.05289,0.0449 -0.0818,0.0608 0.0193,-0.0493 0.03523,-0.10691 0.04631,-0.17171 0.14318,-0.8423 -0.682887,-0.92877 -1.103933,-0.62466 0.0068,-0.018 0.01589,-0.0372 0.02509,-0.0541 0.379946,-0.38621 1.343302,-0.35407 1.190117,0.55181"
       style="fill:#af885a;fill-opacity:1;fill-rule:nonzero;stroke:none;stroke-width:0.0154706"
       id="path4862" />
    <path
       d="m 90.564247,161.90417 c -0.01111,0.0648 -0.02699,0.12245 -0.04631,0.17171 -0.379946,0.22236 -1.032687,-0.19652 -1.08023,-0.55898 -0.0039,-0.0262 -0.0062,-0.0526 -0.0063,-0.0789 -3.88e-4,-0.0563 0.0096,-0.109 0.0289,-0.15844 0.421046,-0.30411 1.247113,-0.21764 1.103933,0.62466"
       style="fill:#a97c4f;fill-opacity:1;fill-rule:nonzero;stroke:none;stroke-width:0.0154706"
       id="path4864" />
    <path
       d="m 90.936243,154.68276 c -0.278141,-0.10184 -0.645893,-0.10184 -1.125446,0.0367 -0.812229,0.14272 -1.537999,1.23097 -0.872927,2.96746 0.131125,0.34237 0.274992,0.59512 0.425299,0.77452 -0.303764,-0.0978 -0.601088,-0.42796 -0.853744,-1.08842 -0.665076,-1.73632 0.0607,-2.82474 0.872923,-2.96745 0.786471,-0.22831 1.278903,-0.0774 1.553895,0.27722"
       style="fill:#9b6439;fill-opacity:1;fill-rule:nonzero;stroke:none;stroke-width:0.0154706"
       id="path4866" />
    <path
       d="m 90.251849,158.15905 c -0.193053,0.18865 -0.40118,0.30953 -0.613827,0.33014 -0.09139,0.0105 -0.183876,0.001 -0.275264,-0.0279 -0.150307,-0.17975 -0.293627,-0.4318 -0.425435,-0.77382 -0.6648,-1.73632 0.06124,-2.82562 0.872926,-2.96851 0.479829,-0.13851 0.847441,-0.13851 1.12613,-0.0368 0.03002,0.0398 0.05782,0.0811 0.08317,0.12681 0.497229,0.87253 -0.01616,2.61321 -0.7677,3.35019"
       style="fill:#b78551;fill-opacity:1;fill-rule:nonzero;stroke:none;stroke-width:0.0154706"
       id="path4868" />
    <path
       d="m 90.648508,158.35364 c -0.275264,0.2683 -0.585055,0.39949 -0.889091,0.30079 -0.04165,-0.0501 -0.08207,-0.1048 -0.121395,-0.16524 0.212647,-0.0206 0.420774,-0.14149 0.613827,-0.33014 0.751532,-0.73698 1.264929,-2.47766 0.7677,-3.35018 0.11564,0.0103 0.219635,0.0339 0.313354,0.0678 0.633557,0.81802 0.105226,2.70176 -0.684395,3.47699"
       style="fill:#caa77a;fill-opacity:1;fill-rule:nonzero;stroke:none;stroke-width:0.0154706"
       id="path4870" />
    <path
       d="m 90.251849,158.15905 c -0.193053,0.18865 -0.40118,0.30953 -0.613827,0.33014 -0.106462,-0.16054 -0.208127,-0.36106 -0.302941,-0.60859 -0.665895,-1.73649 0.06015,-2.82561 0.872923,-2.96867 0.316783,-0.0914 0.586155,-0.12227 0.811545,-0.10306 0.497229,0.87252 -0.01616,2.6132 -0.7677,3.35018"
       style="fill:#c59a69;fill-opacity:1;fill-rule:nonzero;stroke:none;stroke-width:0.0154706"
       id="path4872" />
    <path
       d="m 83.30215,154.2485 c -0.144414,-0.0737 -0.335962,-0.0928 -0.573957,-0.0449 -0.983224,0.0667 -1.557045,1.68862 -0.71344,2.57547 -0.07084,-0.0391 -0.14277,-0.0942 -0.212648,-0.16542 -0.855388,-0.88423 -0.416116,-2.61233 0.707,-2.58595 0.381725,-0.0776 0.637807,0.022 0.793045,0.22079"
       style="fill:#ad7748;fill-opacity:1;fill-rule:nonzero;stroke:none;stroke-width:0.0154706"
       id="path4874" />
    <path
       d="m 82.76642,156.67829 c -0.186204,0.15319 -0.397893,0.22446 -0.61383,0.15966 -0.0459,-0.0124 -0.09235,-0.0318 -0.138111,-0.0585 -0.843741,-0.88667 -0.269647,-2.5091 0.713439,-2.57652 0.237996,-0.047 0.429544,-0.0285 0.573959,0.046 0.02809,0.0351 0.05193,0.0742 0.07289,0.11704 0.317053,0.61627 -0.04385,1.84426 -0.608349,2.3124"
       style="fill:#cb9e69;fill-opacity:1;fill-rule:nonzero;stroke:none;stroke-width:0.0154706"
       id="path4876" />
    <path
       d="m 83.000853,156.84983 c -0.226212,0.1841 -0.48983,0.25013 -0.751941,0.10113 -0.03453,-0.0367 -0.067,-0.0737 -0.09632,-0.11301 0.215937,0.0648 0.427626,-0.006 0.61383,-0.15966 0.564504,-0.46814 0.925402,-1.69613 0.608349,-2.31241 0.05988,0.0105 0.112626,0.0297 0.161541,0.0543 0.436394,0.56387 0.06673,1.92951 -0.535457,2.42962"
       style="fill:#dcbe93;fill-opacity:1;fill-rule:nonzero;stroke:none;stroke-width:0.0154706"
       id="path4878" />
    <path
       d="m 82.76642,156.67829 c -0.186204,0.15319 -0.397893,0.22446 -0.61383,0.15966 -0.699601,-0.90449 -0.132631,-2.39853 0.809762,-2.46351 0.158253,-0.0312 0.295816,-0.0332 0.412417,-0.009 0.317053,0.61628 -0.04385,1.84427 -0.608349,2.31241"
       style="fill:#d4ae82;fill-opacity:1;fill-rule:nonzero;stroke:none;stroke-width:0.0154706"
       id="path4880" />
    <path
       d="m 93.90482,149.52063 c -0.271975,-0.15756 -0.638355,-0.14097 -1.010351,0.17835 -0.191822,0.16385 -0.455303,0.49644 -0.461606,0.86239 -0.0031,0.30551 0.09797,0.56684 0.251972,0.75112 -0.269372,-0.17188 -0.485173,-0.51304 -0.480377,-0.9569 0.0063,-0.36595 0.269784,-0.69853 0.461606,-0.86239 0.49065,-0.42097 0.977878,-0.31442 1.238756,0.0274"
       style="fill:#9b6439;fill-opacity:1;fill-rule:nonzero;stroke:none;stroke-width:0.0154706"
       id="path4882" />
    <path
       d="m 93.342236,151.35528 c -0.169901,0.11495 -0.387206,0.10761 -0.58492,0.001 -0.02439,-0.0133 -0.04864,-0.0281 -0.07289,-0.0444 -0.153732,-0.1841 -0.254302,-0.44508 -0.251972,-0.75164 0.0068,-0.3656 0.270467,-0.69871 0.462429,-0.86221 0.371037,-0.31844 0.737554,-0.33609 1.010487,-0.17836 l 0.0012,0.003 c 0.03014,0.0397 0.05673,0.0824 0.08098,0.12822 0.233473,0.45539 0.132903,1.17314 -0.645206,1.70382"
       style="fill:#b78551;fill-opacity:1;fill-rule:nonzero;stroke:none;stroke-width:0.0154706"
       id="path4884" />
    <path
       d="m 93.506518,151.5277 c -0.190863,0.12978 -0.44174,0.10463 -0.657949,-0.0426 -0.03344,-0.0398 -0.06358,-0.0826 -0.09125,-0.12821 0.197714,0.10603 0.415019,0.11337 0.58492,-0.001 0.778109,-0.53068 0.878679,-1.24843 0.645206,-1.70382 0.02769,0.0117 0.05549,0.0265 0.08207,0.0412 l 0.0023,0.003 c 0.327192,0.43478 0.291293,1.24686 -0.565325,1.83204"
       style="fill:#caa77a;fill-opacity:1;fill-rule:nonzero;stroke:none;stroke-width:0.0154706"
       id="path4886" />
    <path
       d="m 93.342236,151.35528 c -0.169901,0.11495 -0.387206,0.10761 -0.58492,0.001 -0.100569,-0.16961 -0.161954,-0.38325 -0.159624,-0.6236 0.0057,-0.36544 0.269372,-0.69855 0.46133,-0.86222 0.336373,-0.28735 0.66713,-0.33015 0.92842,-0.21957 0.233473,0.45538 0.132903,1.17314 -0.645206,1.70381"
       style="fill:#c59a69;fill-opacity:1;fill-rule:nonzero;stroke:none;stroke-width:0.0154706"
       id="path4888" />
    <path
       d="m 99.609598,147.18115 c -0.568615,-0.12612 -0.888548,0.24228 -0.911292,0.62762 -0.155511,-0.46343 0.166748,-1.0706 0.878407,-0.912 0.458317,0.0997 0.707407,0.48596 0.672067,0.82711 -0.0833,-0.24368 -0.307605,-0.46953 -0.639182,-0.54273"
       style="fill:#824a29;fill-opacity:1;fill-rule:nonzero;stroke:none;stroke-width:0.0154706"
       id="path4890" />
    <path
       d="m 99.707837,148.25071 c -0.571765,0.11022 -0.899508,-0.12838 -1.006653,-0.43129 l -0.0039,-0.0106 c 0.02424,-0.38586 0.343089,-0.75356 0.912935,-0.62762 0.330209,0.073 0.554911,0.29922 0.638771,0.54342 -0.007,0.0639 -0.0251,0.12699 -0.0523,0.18639 -0.0774,0.16053 -0.235809,0.28961 -0.488876,0.33975"
       style="fill:#986339;fill-opacity:1;fill-rule:nonzero;stroke:none;stroke-width:0.0154706"
       id="path4892" />
    <path
       d="m 99.668241,148.46871 c -0.577933,0.11198 -0.906359,-0.1338 -1.010491,-0.44211 0.0054,-0.0704 0.01919,-0.14027 0.04343,-0.20718 0.107145,0.30291 0.434888,0.54151 1.006653,0.43129 0.253068,-0.0501 0.411457,-0.17922 0.488867,-0.33975 l 0.0116,0.0302 c -0.0252,0.24279 -0.19552,0.4594 -0.540111,0.52753"
       style="fill:#af885a;fill-opacity:1;fill-rule:nonzero;stroke:none;stroke-width:0.0154706"
       id="path4894" />
    <path
       d="m 99.707837,148.25071 c -0.571765,0.11022 -0.899508,-0.12838 -1.006653,-0.43129 0.104543,-0.29625 0.404198,-0.52369 0.868406,-0.4215 0.31719,0.0714 0.53737,0.28194 0.62712,0.51304 -0.0774,0.16053 -0.235805,0.28961 -0.488873,0.33975"
       style="fill:#a97c4f;fill-opacity:1;fill-rule:nonzero;stroke:none;stroke-width:0.0154706"
       id="path4896" />
    <path
       d="m 96.65239,162.20322 c 0.17497,0.099 0.47572,0.11249 0.875805,-0.0555 0.78181,-0.33207 0.924854,-0.68282 0.760025,-0.901 0.323083,0.19198 0.335002,0.61487 -0.626163,1.02066 -0.54121,0.22935 -0.905396,0.12821 -1.009667,-0.0641"
       style="fill:#69381f;fill-opacity:1;fill-rule:nonzero;stroke:none;stroke-width:0.0154706"
       id="path4898" />
    <path
       d="m 96.644855,161.9426 c 0.207304,-0.40683 0.645346,-0.72353 1.047349,-0.79042 0.212784,-0.0351 0.419539,-10e-4 0.56738,0.0763 l 0.02521,0.011 0.0027,0.007 c 0.164282,0.21905 0.02179,0.56999 -0.759342,0.90134 -0.401044,0.16875 -0.699735,0.15373 -0.876348,0.0557 -0.01713,-0.0281 -0.03002,-0.0568 -0.03562,-0.088 -0.01122,-0.0536 -0.0016,-0.11318 0.02851,-0.17275"
       style="fill:#7a492a;fill-opacity:1;fill-rule:nonzero;stroke:none;stroke-width:0.0154706"
       id="path4900" />
    <path
       d="m 96.571003,161.83691 c 0.207307,-0.40682 0.643151,-0.72316 1.045154,-0.79007 0.225803,-0.037 0.44407,0.002 0.594785,0.087 l 0.0027,0.007 c 0.02152,0.0274 0.03643,0.0557 0.04576,0.0879 -0.147841,-0.0774 -0.354597,-0.11143 -0.56738,-0.0763 -0.402004,0.0669 -0.840046,0.38359 -1.047349,0.79042 -0.03002,0.0596 -0.03973,0.11913 -0.02851,0.17275 -0.01371,-0.005 -0.02738,-0.0105 -0.03822,-0.0176 -0.04946,-0.0758 -0.05467,-0.16821 -0.0071,-0.26079"
       style="fill:#936b46;fill-opacity:1;fill-rule:nonzero;stroke:none;stroke-width:0.0154706"
       id="path4902" />
    <path
       d="m 96.644855,161.9426 c 0.207304,-0.40683 0.645346,-0.72353 1.047349,-0.79042 0.212784,-0.0351 0.419539,-10e-4 0.56738,0.0763 0.07385,0.21783 -0.121943,0.52247 -0.805102,0.81349 -0.37282,0.15581 -0.662062,0.15564 -0.838127,0.0734 -0.01122,-0.0536 -0.0016,-0.11318 0.02851,-0.17275"
       style="fill:#8f633f;fill-opacity:1;fill-rule:nonzero;stroke:none;stroke-width:0.0154706"
       id="path4904" />
    <path
       d="m 102.48582,149.68256 c -0.34349,1.65718 -1.47003,1.12615 -1.27671,-0.11285 0.27965,-1.79116 1.43962,-0.67321 1.27671,0.11285"
       style="fill:#b0895b;fill-opacity:1;fill-rule:nonzero;stroke:none;stroke-width:0.0154706"
       id="path4906" />
    <path
       d="m 101.66469,151.35494 c 0.4849,-0.56667 0.83867,0.0316 0.5023,0.47652 -0.48641,0.64335 -0.73235,-0.20769 -0.5023,-0.47652"
       style="fill:#b0895b;fill-opacity:1;fill-rule:nonzero;stroke:none;stroke-width:0.0154706"
       id="path4908" />
    <path
       d="m 100.68654,151.16821 c 0.37172,-0.45836 0.72536,0.14008 0.4716,0.50586 -0.36693,0.52911 -0.64808,-0.28821 -0.4716,-0.50586"
       style="fill:#b0895b;fill-opacity:1;fill-rule:nonzero;stroke:none;stroke-width:0.0154706"
       id="path4910" />
    <path
       d="m 100.57761,152.66695 c 0.24758,-0.30534 0.48298,0.0931 0.31404,0.33678 -0.2443,0.35216 -0.4316,-0.19197 -0.31404,-0.33678"
       style="fill:#b0895b;fill-opacity:1;fill-rule:nonzero;stroke:none;stroke-width:0.0154706"
       id="path4912" />
    <path
       d="m 88.070564,143.53838 c -1.176415,0.17382 -1.178608,-1.4135 -0.318698,-1.62189 1.243416,-0.30149 0.87676,1.53927 0.318698,1.62189"
       style="fill:#dcbe93;fill-opacity:1;fill-rule:nonzero;stroke:none;stroke-width:0.0154706"
       id="path4914" />
    <path
       d="m 87.698155,144.21248 c 0.555049,-0.48072 0.882652,0.31582 0.493532,0.70797 -0.562451,0.56719 -0.756875,-0.48002 -0.493532,-0.70797"
       style="fill:#dcbe93;fill-opacity:1;fill-rule:nonzero;stroke:none;stroke-width:0.0154706"
       id="path4916" />
    <path
       d="m 86.213867,143.97578 c 0.425844,-0.36874 0.677267,0.24247 0.37871,0.54343 -0.431598,0.43496 -0.580808,-0.3684 -0.37871,-0.54343"
       style="fill:#dcbe93;fill-opacity:1;fill-rule:nonzero;stroke:none;stroke-width:0.0154706"
       id="path4918" />
    <path
       d="m 88.356104,145.3706 c 0.29527,-0.25574 0.469552,0.16804 0.262657,0.37678 -0.299239,0.3015 -0.402687,-0.25555 -0.262657,-0.37678"
       style="fill:#dcbe93;fill-opacity:1;fill-rule:nonzero;stroke:none;stroke-width:0.0154706"
       id="path4920" />
    <path
       d="m 89.284796,145.63908 c 0.225799,-0.19529 0.358978,0.12856 0.200728,0.28805 -0.22868,0.23057 -0.307737,-0.19529 -0.200728,-0.28805"
       style="fill:#dcbe93;fill-opacity:1;fill-rule:nonzero;stroke:none;stroke-width:0.0154706"
       id="path4922" />
  </g>
</svg>
