<?xml version="1.0" encoding="UTF-8" standalone="no"?>
<!-- Created with Inkscape (http://www.inkscape.org/) -->

<svg
   width="100"
   height="100"
   viewBox="0 0 26.458332 26.458333"
   version="1.1"
   id="svg8177"
   inkscape:version="1.2.1 (9c6d41e410, 2022-07-14)"
   sodipodi:docname="asteroid-whole-2.svg"
   xmlns:inkscape="http://www.inkscape.org/namespaces/inkscape"
   xmlns:sodipodi="http://sodipodi.sourceforge.net/DTD/sodipodi-0.dtd"
   xmlns="http://www.w3.org/2000/svg"
   xmlns:svg="http://www.w3.org/2000/svg">
  <sodipodi:namedview
     id="namedview8179"
     pagecolor="#505050"
     bordercolor="#ffffff"
     borderopacity="1"
     inkscape:showpageshadow="0"
     inkscape:pageopacity="0"
     inkscape:pagecheckerboard="1"
     inkscape:deskcolor="#505050"
     inkscape:document-units="px"
     showgrid="false"
     inkscape:zoom="2.1089995"
     inkscape:cx="0.23707924"
     inkscape:cy="87.719319"
     inkscape:window-width="1920"
     inkscape:window-height="1017"
     inkscape:window-x="-8"
     inkscape:window-y="-8"
     inkscape:window-maximized="1"
     inkscape:current-layer="layer1" />
  <defs
     id="defs8174" />
  <g
     inkscape:label="Warstwa 1"
     inkscape:groupmode="layer"
     id="layer1"
     transform="translate(-91.870035,-97.293668)">
    <path
       d="m 117.02515,117.00413 c -0.78263,1.7094 -1.17462,1.5591 -2.41782,1.27355 -5.35478,-1.22593 -3.291,7.70362 -12.25881,4.51903 -0.24344,-0.0857 -0.48823,-0.18269 -0.73601,-0.26837 1.25337,-1.57238 1.91062,0.12374 3.82734,-1.90555 3.21794,-3.41118 2.64527,-0.93082 4.49326,-2.2196 0.90801,-0.63376 1.22138,-2.15852 2.0215,-3.00755 2.07693,-2.20614 3.92059,-1.19548 1.19807,-5.64211 -0.80594,-1.31533 2.01431,-2.37379 1.73292,-4.31155 -0.18217,-1.25444 -2.27212,-2.24633 -1.17327,-4.2411 0.27407,-0.49887 0.42859,-0.83381 0.49419,-1.09652 0.3352,0.94799 0.51887,2.0045 0.93851,2.87619 0.60059,1.24311 1.74322,2.06169 2.01282,3.4912 0.34252,1.81226 -0.89351,3.8242 -0.23327,5.48031 0.96778,2.42708 1.93989,1.03739 0.10057,5.05207"
       style="fill:#7e5130;fill-opacity:1;fill-rule:nonzero;stroke:none;stroke-width:0.0154904"
       id="path5158" />
    <path
       d="m 113.15268,109.75353 c 2.72252,4.44663 0.87886,3.43597 -1.19807,5.64211 -0.80012,0.84903 -1.11349,2.37379 -2.0215,3.00755 -1.84799,1.28878 -1.27532,-1.19158 -4.49326,2.2196 -1.91672,2.02929 -2.57397,0.33317 -3.82734,1.90555 -0.42126,-0.14481 -0.84687,-0.24749 -1.27681,-0.18465 l -0.0262,0.006 0.013,-0.0267 c 1.12962,-2.08063 0.65006,-1.993 1.06699,-2.7868 0.95165,-1.80836 1.89178,0.33317 3.08537,-3.98228 0.9503,-3.42446 2.43111,-1.25815 3.49065,-1.85969 1.16595,-0.6644 0.39349,-2.51648 1.35395,-5.19671 0.41977,-1.17264 -1.21976,-4.35528 0.45475,-6.10663 0.4664,-0.48914 1.16594,-0.73486 1.33794,-1.4828 0.27841,-1.2146 -0.82193,-1.738074 -0.35851,-3.346567 2.1935,0.0609 2.97613,1.193534 3.45283,2.543207 -0.0656,0.26271 -0.22012,0.59765 -0.49419,1.09652 -1.09885,1.99477 0.9911,2.98666 1.17327,4.2411 0.28139,1.93776 -2.53887,2.99622 -1.73292,4.31155"
       style="fill:#9e6f43;fill-opacity:1;fill-rule:nonzero;stroke:none;stroke-width:0.0154904"
       id="path5160" />
    <path
       d="m 111.11221,100.90772 c -0.17201,0.74794 -0.87155,0.99366 -1.33795,1.4828 -1.67451,1.75135 -0.035,4.93399 -0.45475,6.10663 -0.96046,2.68023 -0.188,4.53231 -1.35394,5.19671 -1.05954,0.60154 -2.54036,-1.56477 -3.49065,1.85969 -1.1936,4.31545 -2.13372,2.17392 -3.08538,3.98228 -0.41693,0.7938 0.0626,0.70617 -1.06699,2.7868 l -0.013,0.0267 c -1.149944,0.19598 -2.50104,1.95884 -5.061859,-0.67394 -1.658509,-1.70745 -2.782299,-4.26961 -3.086865,-6.99551 0.04812,0.0666 0.09908,0.12941 0.153029,0.19226 3.382754,3.86987 5.121507,-3.12369 8.664605,-2.15304 0.42845,0.11809 0.83955,0.33317 1.2695,0.42842 2.34219,0.52542 1.5231,-2.88399 2.39749,-4.10603 0.41097,-0.57109 1.08435,-0.68723 1.53042,-1.2107 1.15565,-1.34578 -0.13419,-2.71829 -0.0817,-3.67956 0.0176,-0.31405 0.13703,-0.60721 0.15885,-0.92126 0.0554,-0.78619 -0.50855,-1.45997 -0.49256,-2.2481 0.0205,-1.060408 1.56973,-2.025395 1.85979,-3.178919 0.2128,-0.002 0.44743,-0.01151 0.7112,-0.03435 0.26227,-0.02284 0.55234,-0.05523 0.87452,-0.102677 0.58298,-0.08568 1.09601,-0.118079 1.54777,-0.104801 -0.46342,1.608493 0.63692,2.131967 0.35852,3.346567"
       style="fill:#bf9460;fill-opacity:1;fill-rule:nonzero;stroke:none;stroke-width:0.0154904"
       id="path5162" />
    <path
       d="m 105.76041,100.98189 c -0.016,0.78814 0.548,1.46191 0.49257,2.2481 -0.0218,0.31405 -0.14124,0.60721 -0.15886,0.92126 -0.0525,0.96128 1.23738,2.33378 0.0817,3.67956 -0.44607,0.52348 -1.11945,0.63961 -1.53042,1.21071 -0.87439,1.22203 -0.0553,4.63145 -2.39749,4.10602 -0.42994,-0.0952 -0.84104,-0.31033 -1.2695,-0.42841 -3.543097,-0.97065 -5.281849,6.0229 -8.664604,2.15304 -0.05395,-0.0628 -0.10491,-0.1257 -0.153028,-0.19226 -0.0015,-0.0113 -0.003,-0.0228 -0.01166,-0.11224 -0.0043,-0.0343 -0.0073,-0.0705 -0.0087,-0.1048 l -0.003,-0.0418 c -0.0015,-0.0419 -0.0028,-0.082 -0.0028,-0.12375 0,-0.0324 0,-0.0648 0.0013,-0.0972 0.016,-0.45673 0.144354,-0.89842 0.37166,-1.24859 0.05544,-0.082 0.11223,-0.15808 0.172004,-0.23049 l 0.0073,-0.009 0.01152,-0.0135 0.01762,-0.0189 0.03348,-0.0419 0.0028,-0.002 c 0.03212,-0.0381 0.06709,-0.0742 0.100574,-0.11224 0.02047,-0.0209 0.03944,-0.0437 0.05977,-0.0648 l 0.0073,-0.008 0.02779,-0.0285 0.02467,-0.0266 0.016,-0.0172 c 0.03361,-0.0363 0.06858,-0.0743 0.103555,-0.11242 l 0.02047,-0.0209 0.0305,-0.0361 0.03063,-0.0343 c 0.01599,-0.0172 0.03348,-0.0361 0.04961,-0.0552 0.0408,-0.0457 0.0816,-0.0931 0.122395,-0.14463 l 0.02765,-0.0361 c 0.05977,-0.0742 0.12104,-0.15614 0.183661,-0.24554 0.01464,-0.0211 0.02914,-0.0419 0.04364,-0.0629 0.01315,-0.019 0.0263,-0.04 0.03944,-0.0609 0.03063,-0.0457 0.06127,-0.0952 0.0919,-0.14658 0.01166,-0.0209 0.02467,-0.0419 0.03632,-0.0609 0.0145,-0.0228 0.02779,-0.0457 0.0408,-0.0685 l 0.0015,-0.004 0.01017,-0.0189 c 0.01017,-0.0172 0.01898,-0.0324 0.02779,-0.0496 l 0.01749,-0.0324 0.02331,-0.0437 c 0.02182,-0.04 0.04364,-0.0837 0.06696,-0.12941 0.0073,-0.0152 0.01613,-0.0305 0.02331,-0.0476 l 0.02182,-0.0437 0.01166,-0.0248 c 0.01762,-0.0363 0.03511,-0.0724 0.05259,-0.11241 0.0145,-0.0303 0.02914,-0.0607 0.04229,-0.0951 0.01152,-0.0228 0.02182,-0.0457 0.03199,-0.0705 0.0408,-0.0952 0.08309,-0.19597 0.125377,-0.30449 l 0.01898,-0.0457 0.016,-0.0439 c 0.02481,-0.0628 0.04947,-0.12941 0.07428,-0.19987 0.01613,-0.0437 0.03213,-0.0875 0.04812,-0.13331 0.03348,-0.0951 0.06709,-0.19597 0.102064,-0.30077 0.01315,-0.0437 0.02914,-0.0894 0.04365,-0.13702 0.01464,-0.0457 0.02928,-0.0933 0.04378,-0.14074 l 0.0028,-0.01 c 0.0073,-0.0248 0.01464,-0.0476 0.02196,-0.0742 0.0088,-0.0287 0.01749,-0.0572 0.02616,-0.0876 0.03795,-0.12941 0.07726,-0.26466 0.115211,-0.40734 0.01017,-0.0363 0.02033,-0.0744 0.0305,-0.11242 0.02779,-0.10268 0.05544,-0.20748 0.08173,-0.31599 0.01166,-0.0399 0.02182,-0.0798 0.0305,-0.11985 l 0.0045,-0.0133 c 0.0073,-0.0285 0.01315,-0.0572 0.02047,-0.0857 l 0.01017,-0.0437 c 0.01599,-0.0667 0.03212,-0.13331 0.04812,-0.20005 0.01735,-0.0722 0.03348,-0.14658 0.05097,-0.22076 0.756464,-3.3255 1.958872,-2.80768 2.809948,-3.50058 1.058185,-0.86231 1.031893,-2.98861 1.958871,-4.07751 0.967782,-1.136359 2.540352,-0.694668 3.678652,-1.51892 2.20664,-1.599108 1.88161,-0.698736 4.1174,-0.72529 -0.29007,1.153524 -1.83933,2.118511 -1.85979,3.17892"
       style="fill:#d3ae7e;fill-opacity:1;fill-rule:nonzero;stroke:none;stroke-width:0.0154904"
       id="path5164" />
    <path
       d="m 110.69961,115.34536 c 1.34608,-0.27528 2.02827,-3.81463 0.27258,-4.19931 2.18062,-0.14712 1.34906,4.62914 -0.27258,4.19931"
       style="fill:#824a29;fill-opacity:1;fill-rule:nonzero;stroke:none;stroke-width:0.0154904"
       id="path5166" />
    <path
       d="m 109.86345,113.79724 c -0.001,-0.0359 -0.004,-0.0682 -0.002,-0.10179 -0.006,-0.54968 0.1205,-1.09581 0.30362,-1.58902 0.13907,-0.37105 0.32652,-0.73591 0.59151,-0.8855 0.0191,-0.0108 0.0381,-0.0214 0.0573,-0.0306 0.0512,-0.0223 0.10478,-0.0365 0.15899,-0.0448 0.3455,0.0765 0.6704,0.32167 0.87399,0.73556 0.19708,0.39832 0.25631,0.95844 0.13947,1.43996 -0.009,0.0825 -0.0239,0.16694 -0.0388,0.24855 -0.12253,0.63217 -0.40107,1.22451 -0.78968,1.54971 -0.14259,0.11525 -0.29887,0.19368 -0.45759,0.22607 l -0.002,-5e-4 c -0.0698,-0.0202 -0.13798,-0.0501 -0.2025,-0.0906 l -7.7e-4,3.6e-4 c -0.0647,-0.0403 -0.12646,-0.091 -0.18379,-0.15242 -0.27339,-0.29334 -0.42425,-0.79062 -0.44702,-1.30489"
       style="fill:#986339;fill-opacity:1;fill-rule:nonzero;stroke:none;stroke-width:0.0154904"
       id="path5168" />
    <path
       d="m 109.47417,113.76573 c -0.001,-0.0359 -0.003,-0.0685 -0.003,-0.10197 -0.006,-0.54968 0.12063,-1.09564 0.30456,-1.58919 0.13825,-0.37071 0.32652,-0.73592 0.5907,-0.88515 0.069,-0.0416 0.14286,-0.0639 0.21633,-0.0754 0.0786,0.0167 0.15546,0.043 0.23029,0.0763 -0.0192,0.009 -0.0382,0.0198 -0.0573,0.0306 -0.26499,0.14959 -0.45244,0.51445 -0.59151,0.88551 -0.18312,0.4932 -0.30999,1.03934 -0.30362,1.58901 -10e-4,0.0336 0.002,0.0659 0.002,0.10179 0.0228,0.51428 0.17362,1.01155 0.44702,1.30489 0.0573,0.0614 0.11914,0.11206 0.18379,0.15242 -0.0608,0.0276 -0.12185,0.0464 -0.18379,0.0593 l -0.002,-5e-4 c -0.13961,-0.0402 -0.27257,-0.1195 -0.38724,-0.24254 -0.27326,-0.29333 -0.42412,-0.79061 -0.44689,-1.30488"
       style="fill:#af885a;fill-opacity:1;fill-rule:nonzero;stroke:none;stroke-width:0.0154904"
       id="path5170" />
    <path
       d="m 109.86345,113.79724 c -0.001,-0.0359 -0.004,-0.0682 -0.002,-0.10179 -0.006,-0.54968 0.1205,-1.09581 0.30362,-1.58902 0.13907,-0.37105 0.32652,-0.73591 0.59151,-0.8855 0.0191,-0.0108 0.0381,-0.0214 0.0573,-0.0306 0.25713,0.11967 0.4866,0.33848 0.64465,0.6589 0.19708,0.39832 0.25536,0.95879 0.13825,1.43872 -0.008,0.0837 -0.0228,0.16818 -0.0385,0.25014 -0.12158,0.63182 -0.40121,1.22452 -0.78873,1.54936 -0.0876,0.0701 -0.17905,0.12694 -0.27393,0.16677 l -7.7e-4,3.5e-4 c -0.0647,-0.0403 -0.12646,-0.091 -0.1838,-0.15242 -0.27339,-0.29334 -0.42425,-0.79061 -0.44702,-1.30489"
       style="fill:#a97c4f;fill-opacity:1;fill-rule:nonzero;stroke:none;stroke-width:0.0154904"
       id="path5172" />
    <path
       d="m 101.85405,114.48517 c -0.16387,-0.13489 -0.41828,-0.21349 -0.78886,-0.21331 -0.60195,-0.0682 -1.409239,0.58189 -1.436077,2.00875 -0.0054,0.2813 0.02332,0.49887 0.07699,0.66386 -0.182711,-0.13737 -0.29589,-0.44523 -0.285455,-0.98764 0.02697,-1.42669 0.834272,-2.07692 1.436072,-2.00876 0.60819,-0.001 0.90652,0.21598 0.99733,0.5371"
       style="fill:#9b6439;fill-opacity:1;fill-rule:nonzero;stroke:none;stroke-width:0.0154904"
       id="path5174" />
    <path
       d="m 100.40591,116.91155 c -0.2086,0.10922 -0.407714,0.15259 -0.571994,0.0977 -0.04568,-0.0129 -0.08851,-0.0351 -0.127679,-0.0655 -0.05422,-0.16446 -0.08255,-0.38149 -0.07699,-0.6628 0.0267,-1.42703 0.833863,-2.07726 1.435533,-2.00963 0.37139,0 0.625,0.0797 0.78968,0.21349 0.008,0.0275 0.0145,0.0563 0.0182,0.0859 0.1224,0.75114 -0.73261,1.95175 -1.46671,2.34087"
       style="fill:#b78551;fill-opacity:1;fill-rule:nonzero;stroke:none;stroke-width:0.0154904"
       id="path5176" />
    <path
       d="m 100.56314,117.08574 c -0.2654,0.14109 -0.5171,0.17048 -0.699808,0.0336 -0.01137,-0.0343 -0.0214,-0.0713 -0.02943,-0.11011 0.16428,0.0549 0.363398,0.0115 0.571988,-0.0977 0.7341,-0.38911 1.58911,-1.58973 1.46672,-2.34086 0.0518,0.0255 0.098,0.0559 0.13893,0.0898 0.2086,0.74123 -0.68463,2.02186 -1.44842,2.42531"
       style="fill:#caa77a;fill-opacity:1;fill-rule:nonzero;stroke:none;stroke-width:0.0154904"
       id="path5178" />
    <path
       d="m 100.40591,116.91155 c -0.2086,0.10922 -0.407714,0.15259 -0.571994,0.0977 -0.03416,-0.14817 -0.05124,-0.33086 -0.04744,-0.55392 0.02766,-1.42722 0.834674,-2.0762 1.436354,-2.00858 0.27881,-5e-4 0.49175,0.0441 0.64979,0.12392 0.1224,0.75114 -0.73261,1.95175 -1.46671,2.34087"
       style="fill:#c59a69;fill-opacity:1;fill-rule:nonzero;stroke:none;stroke-width:0.0154904"
       id="path5180" />
    <path
       d="m 115.28179,117.56319 c 0.0908,0.0149 0.21524,-0.0258 0.37315,-0.13118 0.64641,-0.33511 1.10075,-1.74303 0.59219,-2.1787 0.0445,0.01 0.0927,0.0237 0.13094,0.0653 0.62011,0.67449 0.1655,1.84837 -0.48281,2.1849 -0.25346,0.1696 -0.52171,0.16729 -0.61347,0.0597"
       style="fill:#69381f;fill-opacity:1;fill-rule:nonzero;stroke:none;stroke-width:0.0154904"
       id="path5182" />
    <path
       d="m 115.74996,115.54753 c 0.14381,-0.18942 0.30294,-0.31139 0.45502,-0.30024 0.0141,1.8e-4 0.0277,0.003 0.042,0.006 0.50869,0.43567 0.0539,1.84429 -0.59192,2.17905 -0.15832,0.10534 -0.28288,0.14677 -0.37342,0.13101 -0.0262,-0.0315 -0.0469,-0.0719 -0.0614,-0.11914 -0.13203,-0.41708 0.15479,-1.39641 0.5297,-1.89635"
       style="fill:#7a492a;fill-opacity:1;fill-rule:nonzero;stroke:none;stroke-width:0.0154904"
       id="path5184" />
    <path
       d="m 115.61062,115.42839 c 0.15669,-0.20695 0.33303,-0.33335 0.4969,-0.29334 0.0378,0.0322 0.0704,0.0696 0.0975,0.11224 -0.15208,-0.0111 -0.31121,0.11082 -0.45502,0.30024 -0.37491,0.49993 -0.66173,1.47926 -0.5297,1.89634 -0.0283,0.005 -0.0541,0.004 -0.0778,-1.7e-4 -0.25902,-0.30467 0.0496,-1.45802 0.46817,-2.01531"
       style="fill:#936b46;fill-opacity:1;fill-rule:nonzero;stroke:none;stroke-width:0.0154904"
       id="path5186" />
    <path
       d="m 115.74996,115.54753 c 0.14381,-0.18942 0.30294,-0.31139 0.45502,-0.30024 0.34197,0.52666 -0.0916,1.75613 -0.68992,2.06576 -0.11629,0.0777 -0.21511,0.12002 -0.2948,0.13082 -0.13203,-0.41708 0.15479,-1.39641 0.5297,-1.89634"
       style="fill:#8f633f;fill-opacity:1;fill-rule:nonzero;stroke:none;stroke-width:0.0154904"
       id="path5188" />
    <path
       d="m 96.489519,117.87193 c -0.177697,-0.048 -0.406763,0.0512 -0.625533,0.36787 -0.112633,0.16269 -0.262816,0.46311 -0.249941,0.72617 0.01195,0.21916 0.08729,0.38186 0.192336,0.47692 -0.176882,-0.0588 -0.425333,-0.29174 -0.442684,-0.61005 -0.01287,-0.26324 0.137169,-0.56366 0.249941,-0.72634 0.288436,-0.41762 0.696559,-0.41691 0.875881,-0.23457"
       style="fill:#9b6439;fill-opacity:1;fill-rule:nonzero;stroke:none;stroke-width:0.0154904"
       id="path5190" />
    <path
       d="m 96.220467,119.31808 c -0.08919,0.10781 -0.204807,0.15738 -0.319204,0.14659 -0.03147,-0.003 -0.0633,-0.009 -0.09448,-0.0211 -0.10518,-0.0956 -0.180271,-0.25811 -0.192335,-0.47727 -0.01287,-0.26307 0.136493,-0.56349 0.249672,-0.726 0.219038,-0.31689 0.44797,-0.41655 0.625667,-0.3684 l 0.0012,0.001 c 0.02194,0.0216 0.04121,0.0471 0.05869,0.0761 0.165363,0.26944 0.13297,0.80619 -0.329098,1.36915"
       style="fill:#b78551;fill-opacity:1;fill-rule:nonzero;stroke:none;stroke-width:0.0154904"
       id="path5192" />
    <path
       d="m 96.37309,119.40554 c -0.113721,0.13719 -0.271899,0.17862 -0.413679,0.1241 -0.02086,-0.0193 -0.0408,-0.0402 -0.05815,-0.065 0.114397,0.0108 0.230016,-0.0388 0.319204,-0.14659 0.462068,-0.56295 0.494461,-1.09971 0.329098,-1.36915 0.03227,-0.002 0.06303,0.003 0.09285,0.0104 l 0.0012,0.001 c 0.225816,0.2335 0.239913,0.82247 -0.270408,1.44509"
       style="fill:#caa77a;fill-opacity:1;fill-rule:nonzero;stroke:none;stroke-width:0.0154904"
       id="path5194" />
    <path
       d="m 96.220467,119.31808 c -0.08919,0.10781 -0.204807,0.15738 -0.319204,0.14659 -0.07468,-0.0956 -0.124836,-0.23474 -0.134188,-0.41089 -0.01287,-0.26307 0.136628,-0.56349 0.249669,-0.72741 0.182172,-0.26431 0.372068,-0.37637 0.532821,-0.37744 0.165363,0.26944 0.13297,0.8062 -0.329098,1.36915"
       style="fill:#c59a69;fill-opacity:1;fill-rule:nonzero;stroke:none;stroke-width:0.0154904"
       id="path5196" />
    <path
       d="m 116.32046,107.34558 c -0.021,-0.42434 -0.17783,-0.69626 -0.30741,-0.743 0.13568,-0.0834 0.44092,0.11772 0.46708,0.64864 0.0175,0.34219 -0.15195,0.59358 -0.26837,0.54065 0.0713,-0.045 0.12104,-0.19898 0.1087,-0.44629"
       style="fill:#69381f;fill-opacity:1;fill-rule:nonzero;stroke:none;stroke-width:0.0154904"
       id="path5198" />
    <path
       d="m 115.97821,107.33902 c -0.0623,-0.28076 -0.0688,-0.47514 -0.0424,-0.59676 l 2.7e-4,-0.001 c 0.0161,-0.0728 0.0432,-0.11737 0.077,-0.13879 0.12944,0.0467 0.2864,0.31971 0.30741,0.74228 0.01,0.19562 -0.0192,0.33424 -0.0675,0.40399 l -3.9e-4,0.001 c -0.0126,0.0182 -0.0262,0.0321 -0.0409,0.0416 -0.0828,-0.0375 -0.17268,-0.18411 -0.2334,-0.45231"
       style="fill:#7a492a;fill-opacity:1;fill-rule:nonzero;stroke:none;stroke-width:0.0154904"
       id="path5200" />
    <path
       d="m 115.93294,107.44967 c -0.0876,-0.39248 -0.0648,-0.61996 0.003,-0.70741 -0.0264,0.12162 -0.0199,0.316 0.0424,0.59676 0.0607,0.2682 0.15059,0.41478 0.2334,0.45231 0.0148,-0.01 0.0283,-0.0234 0.0409,-0.0416 -0.0195,0.0774 -0.0499,0.12888 -0.0858,0.15136 -0.0834,-0.0388 -0.17349,-0.18446 -0.23381,-0.45142"
       style="fill:#936b46;fill-opacity:1;fill-rule:nonzero;stroke:none;stroke-width:0.0154904"
       id="path5202" />
    <path
       d="m 115.97821,107.33902 c -0.0623,-0.28076 -0.0688,-0.47514 -0.0424,-0.59676 l 2.7e-4,-0.001 0.0316,-0.0301 c 0.12945,0.0467 0.28641,0.31954 0.30715,0.74317 0.006,0.12268 -0.003,0.22075 -0.0218,0.2944 l -3.8e-4,0.001 c -0.0126,0.0182 -0.0262,0.0321 -0.0409,0.0416 -0.0828,-0.0375 -0.17268,-0.18411 -0.2334,-0.45231"
       style="fill:#8f633f;fill-opacity:1;fill-rule:nonzero;stroke:none;stroke-width:0.0154904"
       id="path5204" />
    <path
       d="m 108.66416,102.14285 c -0.0327,-0.20907 -0.18814,-0.41371 -0.51249,-0.50312 -0.63611,-0.17083 -0.93593,0.0834 -0.98418,0.40328 -0.0546,-0.39495 0.20657,-0.81876 0.98702,-0.60615 0.44011,0.11861 0.57444,0.45019 0.50965,0.70599"
       style="fill:#9b6439;fill-opacity:1;fill-rule:nonzero;stroke:none;stroke-width:0.0154904"
       id="path5206" />
    <path
       d="m 108.50381,102.40327 c -0.37085,0.2689 -0.80974,0.30218 -1.07066,0.11241 -0.0964,-0.0703 -0.1697,-0.17225 -0.21781,-0.28449 -0.0236,-0.0573 -0.0409,-0.11737 -0.0504,-0.17862 l 0.003,-0.009 c 0.0481,-0.32042 0.34821,-0.57481 0.98404,-0.40433 0.32395,0.0898 0.47956,0.29493 0.51304,0.504 l -0.004,0.0202 c -0.0236,0.0972 -0.0777,0.18234 -0.15642,0.23988"
       style="fill:#b78551;fill-opacity:1;fill-rule:nonzero;stroke:none;stroke-width:0.0154904"
       id="path5208" />
    <path
       d="m 108.55179,102.58631 c -0.37084,0.26891 -0.8096,0.30219 -1.07052,0.11241 -0.14489,-0.10727 -0.23855,-0.28466 -0.26729,-0.46381 l 0.002,-0.004 c 0.0481,0.11224 0.12144,0.21421 0.21781,0.28449 0.26093,0.18977 0.69981,0.15649 1.07066,-0.11241 0.0787,-0.0575 0.13283,-0.14269 0.15642,-0.23988 0.0269,0.0522 0.0445,0.10763 0.0524,0.16287 -0.0202,0.1048 -0.076,0.19986 -0.16089,0.26005"
       style="fill:#caa77a;fill-opacity:1;fill-rule:nonzero;stroke:none;stroke-width:0.0154904"
       id="path5210" />
    <path
       d="m 108.50381,102.40327 c -0.37085,0.2689 -0.80974,0.30218 -1.07066,0.11241 -0.0964,-0.0703 -0.1697,-0.17225 -0.21781,-0.28449 l 0.002,-0.005 c 0.047,-0.31971 0.347,-0.5741 0.98283,-0.40362 0.24018,0.0657 0.38752,0.19438 0.46071,0.34113 -0.0236,0.0972 -0.0777,0.18234 -0.15642,0.23988"
       style="fill:#c59a69;fill-opacity:1;fill-rule:nonzero;stroke:none;stroke-width:0.0154904"
       id="path5212" />
    <path
       d="m 103.36915,102.30253 c -0.13228,-0.10356 -0.31242,-0.17189 -0.54718,-0.19685 -1.42768,-0.15331 -3.460288,2.49027 -2.953082,3.54837 -0.557761,-0.40858 -0.35675,-1.61043 0.306602,-2.49717 0.6281,-0.83965 1.68412,-1.37924 2.44126,-1.29763 0.39105,0.0437 0.63421,0.20447 0.7524,0.44328"
       style="fill:#ad7748;fill-opacity:1;fill-rule:nonzero;stroke:none;stroke-width:0.0154904"
       id="path5214" />
    <path
       d="m 100.57385,105.84578 c -0.18462,0.008 -0.36231,-0.0207 -0.53201,-0.0945 -0.0225,-0.009 -0.04527,-0.0207 -0.06817,-0.0322 -0.03796,-0.0184 -0.07373,-0.0412 -0.104776,-0.0653 -0.507206,-1.0574 1.525406,-3.70187 2.952666,-3.54785 0.23544,0.0246 0.41572,0.0931 0.54746,0.1965 0.0134,0.0256 0.0247,0.0529 0.0359,0.0802 0.40338,1.07279 -1.31937,3.39542 -2.83109,3.46322"
       style="fill:#cb9e69;fill-opacity:1;fill-rule:nonzero;stroke:none;stroke-width:0.0154904"
       id="path5216" />
    <path
       d="m 100.7815,106.02794 c -0.21009,0.01 -0.41124,-0.0285 -0.6014,-0.12551 -0.038,-0.0184 -0.0725,-0.0425 -0.10383,-0.0655 -0.0128,-0.0278 -0.0247,-0.0559 -0.0344,-0.0857 0.1697,0.0738 0.3474,0.10285 0.53201,0.0945 1.51172,-0.0678 3.23447,-2.39043 2.83109,-3.46323 0.0637,0.0292 0.12145,0.0637 0.17147,0.10303 0.52821,1.03031 -1.24457,3.47421 -2.79491,3.54236"
       style="fill:#dcbe93;fill-opacity:1;fill-rule:nonzero;stroke:none;stroke-width:0.0154904"
       id="path5218" />
    <path
       d="m 100.57385,105.84578 c -0.18462,0.008 -0.36231,-0.0207 -0.53201,-0.0945 -0.36732,-1.10821 1.59629,-3.61194 2.98737,-3.46323 0.14558,0.0156 0.27028,0.0478 0.37573,0.0945 0.40338,1.0728 -1.31938,3.39543 -2.83109,3.46323"
       style="fill:#d4ae82;fill-opacity:1;fill-rule:nonzero;stroke:none;stroke-width:0.0154904"
       id="path5220" />
    <path
       d="m 113.17857,99.458908 c -0.0252,-0.355472 -1.19699,-0.73591 -1.43988,-0.466468 -0.0174,-0.540828 1.78619,0.04321 1.43988,0.466468"
       style="fill:#824a29;fill-opacity:1;fill-rule:nonzero;stroke:none;stroke-width:0.0154904"
       id="path5222" />
    <path
       d="m 111.85634,99.282058 c -0.0398,-0.05948 -0.0701,-0.113476 -0.0881,-0.161098 -0.0205,-0.04853 -0.0301,-0.09152 -0.0301,-0.128877 0.24343,-0.268908 1.41534,0.111705 1.44082,0.467005 l -0.0154,0.01646 c -0.0309,0.03237 -0.0746,0.06515 -0.13595,0.09418 -0.32029,0.1588 -0.98852,-0.01736 -1.17123,-0.287671"
       style="fill:#986339;fill-opacity:1;fill-rule:nonzero;stroke:none;stroke-width:0.0154904"
       id="path5224" />
    <path
       d="m 111.88534,99.411642 c -0.0812,-0.120557 -0.1171,-0.214913 -0.11805,-0.29015 l 7.6e-4,-5.02e-4 c 0.018,0.04762 0.0483,0.101618 0.0881,0.161098 0.18271,0.270323 0.85094,0.446471 1.17123,0.287671 0.0614,-0.02905 0.10504,-0.06178 0.13595,-0.09418 0.0266,0.03754 0.0415,0.07559 0.0445,0.112944 -0.0318,0.03789 -0.0794,0.07648 -0.1514,0.110821 -0.32016,0.158795 -0.98839,-0.01736 -1.17124,-0.287676"
       style="fill:#af885a;fill-opacity:1;fill-rule:nonzero;stroke:none;stroke-width:0.0154904"
       id="path5226" />
    <path
       d="m 111.85634,99.282058 c -0.0398,-0.05948 -0.0701,-0.113476 -0.0881,-0.161098 0.21808,-0.239343 1.17705,0.03949 1.39528,0.354593 -0.0309,0.03237 -0.0746,0.06515 -0.13595,0.09418 -0.32029,0.1588 -0.98852,-0.01736 -1.17123,-0.287671"
       style="fill:#a97c4f;fill-opacity:1;fill-rule:nonzero;stroke:none;stroke-width:0.0154904"
       id="path5228" />
    <path
       d="m 94.863136,114.18688 c -0.466947,-0.12817 -0.686934,-1.74392 -0.0085,-2.49647 0.232727,-0.25811 0.58324,-0.242 0.739928,-0.10462 -0.139202,-0.0469 -0.305921,0.0135 -0.480499,0.21969 -0.635833,0.65855 -0.613469,2.04576 -0.25089,2.3814"
       style="fill:#ad7748;fill-opacity:1;fill-rule:nonzero;stroke:none;stroke-width:0.0154904"
       id="path5230" />
    <path
       d="m 95.657692,113.31023 c -0.147066,0.33193 -0.285454,0.55977 -0.413273,0.69909 -0.107215,0.11861 -0.206161,0.17703 -0.293722,0.18588 -0.03036,0.003 -0.05978,0 -0.08729,-0.008 -0.36285,-0.336 -0.384943,-1.72303 0.250619,-2.38193 0.174311,-0.20536 0.341026,-0.26608 0.480367,-0.21916 0.01679,0.0147 0.03373,0.0317 0.04934,0.0501 0.244251,0.28325 0.316357,0.99048 0.01395,1.67399"
       style="fill:#cb9e69;fill-opacity:1;fill-rule:nonzero;stroke:none;stroke-width:0.0154904"
       id="path5232" />
    <path
       d="m 95.79432,113.37502 c -0.147067,0.33211 -0.285593,0.55871 -0.413272,0.69927 -0.144355,0.16004 -0.272579,0.20961 -0.381149,0.17668 -0.01762,-0.0151 -0.03416,-0.034 -0.0492,-0.0558 0.08756,-0.009 0.186507,-0.0673 0.293722,-0.18588 0.127819,-0.13932 0.266207,-0.36716 0.413273,-0.69909 0.302395,-0.68351 0.230289,-1.39074 -0.01395,-1.67399 0.02997,1.7e-4 0.0595,0.005 0.08729,0.0148 0.2822,0.24218 0.384401,0.99721 0.0633,1.72392"
       style="fill:#dcbe93;fill-opacity:1;fill-rule:nonzero;stroke:none;stroke-width:0.0154904"
       id="path5234" />
    <path
       d="m 95.657692,113.31023 c -0.147066,0.33193 -0.285454,0.55977 -0.413273,0.69909 -0.107215,0.11861 -0.206161,0.17703 -0.293722,0.18588 -0.313919,-0.40982 -0.306328,-1.697 0.299957,-2.3251 0.138797,-0.16411 0.273392,-0.23634 0.393076,-0.23386 0.244251,0.28325 0.316357,0.99048 0.01395,1.67399"
       style="fill:#d4ae82;fill-opacity:1;fill-rule:nonzero;stroke:none;stroke-width:0.0154904"
       id="path5236" />
    <path
       d="m 102.43147,120.0524 c 0.095,0.50418 0.75159,0.99473 1.36898,0.88355 0.47535,-0.0853 0.69819,-0.40256 0.71676,-0.74954 0.0672,0.41443 -0.13975,0.84497 -0.70632,0.94676 -0.69818,0.12551 -1.44354,-0.51658 -1.37942,-1.08077"
       style="fill:#824a29;fill-opacity:1;fill-rule:nonzero;stroke:none;stroke-width:0.0154904"
       id="path5238" />
    <path
       d="m 102.88879,119.49777 c 0.0946,-0.0467 0.18868,-0.0837 0.27624,-0.10799 0.70821,-0.19243 1.19197,0.2112 1.32575,0.68068 0.0111,0.0382 0.0211,0.0775 0.0264,0.11631 -0.0187,0.34609 -0.24194,0.66368 -0.71661,0.74883 -0.61754,0.11242 -1.27398,-0.37955 -1.36913,-0.88284 0.005,-0.0395 0.0123,-0.0786 0.0255,-0.11649 0.0541,-0.16623 0.19071,-0.32166 0.43184,-0.4385"
       style="fill:#986339;fill-opacity:1;fill-rule:nonzero;stroke:none;stroke-width:0.0154904"
       id="path5240" />
    <path
       d="m 102.87808,119.25559 c 0.0969,-0.0466 0.18854,-0.0837 0.27746,-0.10675 0.76623,-0.20978 1.27031,0.28131 1.35096,0.79593 -0.003,0.0416 -0.007,0.0832 -0.0157,0.12569 -0.13379,-0.46948 -0.61754,-0.87311 -1.32575,-0.68068 -0.0876,0.0242 -0.18163,0.0612 -0.27624,0.10799 -0.24113,0.11684 -0.37776,0.27227 -0.43184,0.4385 -0.0171,-0.0418 -0.0285,-0.0844 -0.0362,-0.12569 0.0231,-0.21137 0.15981,-0.41088 0.45733,-0.55499"
       style="fill:#af885a;fill-opacity:1;fill-rule:nonzero;stroke:none;stroke-width:0.0154904"
       id="path5242" />
    <path
       d="m 102.88879,119.49777 c 0.0946,-0.0467 0.18868,-0.0837 0.27624,-0.10799 0.70821,-0.19243 1.19197,0.2112 1.32575,0.68068 -0.0606,0.29493 -0.28342,0.5495 -0.69981,0.62421 -0.56617,0.10143 -1.16392,-0.30202 -1.33402,-0.7584 0.0541,-0.16623 0.19071,-0.32166 0.43184,-0.4385"
       style="fill:#a97c4f;fill-opacity:1;fill-rule:nonzero;stroke:none;stroke-width:0.0154904"
       id="path5244" />
    <path
       d="m 107.93914,110.32852 c -0.34225,-1.31232 -2.21343,-0.7175 -2.30966,0.31706 -0.31121,-1.2192 1.91862,-2.08133 2.28783,-0.62297 0.0243,0.0974 0.0301,0.1997 0.0218,0.30591"
       style="fill:#9b6439;fill-opacity:1;fill-rule:nonzero;stroke:none;stroke-width:0.0154904"
       id="path5246" />
    <path
       d="m 107.5771,111.11613 c -0.59287,0.6412 -1.43107,0.69271 -1.8766,-0.27582 l -0.0165,-0.0354 c -0.0249,-0.054 -0.0417,-0.10853 -0.055,-0.15933 0.0968,-1.03474 1.9685,-1.62956 2.30993,-0.31724 l -0.002,0.0174 c -0.0252,0.27227 -0.15831,0.55375 -0.35946,0.77044"
       style="fill:#b78551;fill-opacity:1;fill-rule:nonzero;stroke:none;stroke-width:0.0154904"
       id="path5248" />
    <path
       d="m 107.6446,111.33281 c -0.60019,0.64952 -1.45045,0.69307 -1.89232,-0.31068 -0.0251,-0.0556 -0.0427,-0.10906 -0.0543,-0.16022 l 0.003,-0.0216 c 0.44553,0.96853 1.28373,0.91702 1.8766,0.27582 0.20114,-0.21669 0.33424,-0.49817 0.35946,-0.77044 0.0272,0.0614 0.0511,0.12764 0.0697,0.19934 -0.0207,0.27652 -0.15546,0.56561 -0.36163,0.78778"
       style="fill:#caa77a;fill-opacity:1;fill-rule:nonzero;stroke:none;stroke-width:0.0154904"
       id="path5250" />
    <path
       d="m 107.5771,111.11613 c -0.59287,0.6412 -1.43107,0.69271 -1.8766,-0.27582 0.11128,-0.96445 1.76803,-1.53289 2.23606,-0.49462 -0.0252,0.27227 -0.15831,0.55375 -0.35946,0.77044"
       style="fill:#c59a69;fill-opacity:1;fill-rule:nonzero;stroke:none;stroke-width:0.0154904"
       id="path5252" />
    <path
       d="m 99.916327,120.70936 c -0.552747,0.0837 -0.55383,-0.68033 -0.149637,-0.7807 0.58419,-0.14517 0.41192,0.74105 0.149637,0.7807"
       style="fill:#cba87b;fill-opacity:1;fill-rule:nonzero;stroke:none;stroke-width:0.0154904"
       id="path5254" />
    <path
       d="m 100.17196,118.4926 c 0.61428,-0.5449 0.97686,0.35812 0.54624,0.80282 -0.62241,0.6428 -0.837521,-0.54436 -0.54624,-0.80282"
       style="fill:#cba87b;fill-opacity:1;fill-rule:nonzero;stroke:none;stroke-width:0.0154904"
       id="path5256" />
    <path
       d="m 111.07913,106.97417 c -1.02958,0.15596 -1.03162,-1.26736 -0.27881,-1.4543 1.08828,-0.27032 0.76731,1.3803 0.27881,1.4543"
       style="fill:#b0895b;fill-opacity:1;fill-rule:nonzero;stroke:none;stroke-width:0.0154904"
       id="path5258" />
    <path
       d="m 111.51206,107.65892 c 0.30036,-0.26643 0.47765,0.17508 0.26702,0.39265 -0.30443,0.31422 -0.40961,-0.26625 -0.26702,-0.39265"
       style="fill:#b0895b;fill-opacity:1;fill-rule:nonzero;stroke:none;stroke-width:0.0154904"
       id="path5260" />
    <path
       d="m 110.33338,107.48667 c 0.48578,-0.43089 0.77259,0.28324 0.43197,0.635 -0.49229,0.50843 -0.66254,-0.43053 -0.43197,-0.635"
       style="fill:#b0895b;fill-opacity:1;fill-rule:nonzero;stroke:none;stroke-width:0.0154904"
       id="path5262" />
    <path
       d="m 112.34497,108.27551 c 0.25848,-0.22925 0.41097,0.15083 0.22975,0.33777 -0.26187,0.2705 -0.35241,-0.22889 -0.22975,-0.33777"
       style="fill:#b0895b;fill-opacity:1;fill-rule:nonzero;stroke:none;stroke-width:0.0154904"
       id="path5264" />
    <path
       d="m 102.28779,111.16056 c -1.21379,0.15596 -1.21623,-1.26735 -0.32883,-1.45448 1.28319,-0.27014 0.90476,1.38049 0.32883,1.45448"
       style="fill:#dcbe93;fill-opacity:1;fill-rule:nonzero;stroke:none;stroke-width:0.0154904"
       id="path5266" />
    <path
       d="m 100.15976,110.04386 c 0.42439,-0.50808 0.73411,0.0283 0.43957,0.42735 -0.4256,0.57676 -0.640847,-0.18641 -0.43957,-0.42735"
       style="fill:#dcbe93;fill-opacity:1;fill-rule:nonzero;stroke:none;stroke-width:0.0154904"
       id="path5268" />
    <path
       d="m 100.51082,111.65677 c 0.32544,-0.41106 0.63488,0.12552 0.41273,0.45356 -0.32111,0.47426 -0.56712,-0.25865 -0.41273,-0.45356"
       style="fill:#dcbe93;fill-opacity:1;fill-rule:nonzero;stroke:none;stroke-width:0.0154904"
       id="path5270" />
    <path
       d="m 103.17248,111.18499 c 0.26445,-0.33405 0.51588,0.10197 0.33534,0.36858 -0.26092,0.38539 -0.46085,-0.21014 -0.33534,-0.36858"
       style="fill:#dcbe93;fill-opacity:1;fill-rule:nonzero;stroke:none;stroke-width:0.0154904"
       id="path5272" />
    <path
       d="m 104.55299,101.97822 c 0.26445,-0.33406 0.51602,0.10197 0.33547,0.36857 -0.26092,0.3854 -0.46098,-0.21013 -0.33547,-0.36857"
       style="fill:#dcbe93;fill-opacity:1;fill-rule:nonzero;stroke:none;stroke-width:0.0154904"
       id="path5274" />
    <path
       d="m 104.88494,102.91169 c 0.36027,-0.45497 0.70279,0.13897 0.45691,0.50206 -0.35539,0.52489 -0.6277,-0.28626 -0.45691,-0.50206"
       style="fill:#dcbe93;fill-opacity:1;fill-rule:nonzero;stroke:none;stroke-width:0.0154904"
       id="path5276" />
  </g>
</svg>
