<?xml version="1.0" encoding="UTF-8" standalone="no"?>
<!-- Created with Inkscape (http://www.inkscape.org/) -->

<svg
   width="100"
   height="100"
   viewBox="0 0 26.458332 26.458333"
   version="1.1"
   id="svg7531"
   inkscape:version="1.2.1 (9c6d41e410, 2022-07-14)"
   sodipodi:docname="asteroid-whole-1.svg"
   xmlns:inkscape="http://www.inkscape.org/namespaces/inkscape"
   xmlns:sodipodi="http://sodipodi.sourceforge.net/DTD/sodipodi-0.dtd"
   xmlns="http://www.w3.org/2000/svg"
   xmlns:svg="http://www.w3.org/2000/svg">
  <sodipodi:namedview
     id="namedview7533"
     pagecolor="#505050"
     bordercolor="#ffffff"
     borderopacity="1"
     inkscape:showpageshadow="0"
     inkscape:pageopacity="0"
     inkscape:pagecheckerboard="1"
     inkscape:deskcolor="#505050"
     inkscape:document-units="px"
     showgrid="false"
     inkscape:zoom="2.9825758"
     inkscape:cx="44.759969"
     inkscape:cy="-0.33528067"
     inkscape:window-width="1920"
     inkscape:window-height="1017"
     inkscape:window-x="-8"
     inkscape:window-y="-8"
     inkscape:window-maximized="1"
     inkscape:current-layer="layer1" />
  <defs
     id="defs7528" />
  <g
     inkscape:label="Warstwa 1"
     inkscape:groupmode="layer"
     id="layer1"
     transform="translate(-35.498054,-85.592851)">
    <path
       d="m 61.485671,97.419669 c -1.552109,4.785361 -0.523603,3.321181 -0.647023,6.309481 -0.108756,2.62479 -2.218523,4.74039 -4.504459,5.90673 -6.925927,3.5341 -6.636961,1.98174 -10.725787,0.49747 -1.324755,-0.48002 -2.170688,-0.36099 -3.229999,-0.70466 1.032541,-0.4201 2.102481,-0.64888 3.176457,-0.41346 3.416705,0.74542 3.257557,-1.49001 5.270771,-1.22372 1.220033,0.16058 1.897075,1.36273 3.159331,0.21212 1.638131,-1.49335 -0.948094,-1.76457 1.293948,-4.13055 0.918866,-0.96841 -1.787532,-3.16219 1.582129,-4.96672 2.925581,-1.567384 0.90272,-2.433437 1.420615,-4.977122 0.47646,-2.331059 -2.948316,-1.150904 -2.534356,-4.813416 0.01869,-0.157354 0.0243,-0.304621 0.01869,-0.444827 3.92328,2.291717 6.726228,5.645573 5.71967,8.748674"
       style="fill:#7e5130;fill-opacity:1;fill-rule:nonzero;stroke:none;stroke-width:0.00996366"
       id="path4196" />
    <path
       d="m 56.861039,98.90636 c -3.369661,1.80453 -0.663263,3.99831 -1.582129,4.96672 -2.242042,2.36598 0.344183,2.6372 -1.293948,4.13055 -1.262256,1.15061 -1.939298,-0.0516 -3.159331,-0.21212 -2.013214,-0.26629 -1.854066,1.96914 -5.270771,1.22372 -1.073976,-0.23542 -2.143916,-0.007 -3.176457,0.41346 -0.96522,-0.31279 -2.107304,-1.0108 -3.951725,-2.90258 3.868165,0.36193 3.819446,-2.30947 5.599598,-3.05236 1.448961,-0.604 4.356728,1.01576 5.59064,-1.54165 0.849082,-1.76196 -0.315836,-2.192973 3.389047,-4.011622 4.010976,-1.967832 1.218459,-4.200037 0.78826,-5.580919 -0.638855,-2.047618 0.789832,-1.101477 -0.389652,-3.395213 -0.275187,-0.534599 -0.202157,-1.028852 -0.127456,-1.51907 0.8605,0.365142 1.697379,0.783744 2.488885,1.245719 0.0056,0.140206 0,0.287473 -0.01869,0.444827 -0.413962,3.662512 3.010814,2.482357 2.534355,4.813416 -0.517895,2.543685 1.504965,3.409738 -1.420615,4.977122"
       style="fill:#9e6f43;fill-opacity:1;fill-rule:nonzero;stroke:none;stroke-width:0.00996366"
       id="path4198" />
    <path
       d="m 53.005963,97.920478 c -3.704883,1.818649 -2.539965,2.249662 -3.389047,4.011622 -1.233912,2.55741 -4.141679,0.93765 -5.59064,1.54165 -1.780152,0.74289 -1.731433,3.41429 -5.599598,3.05236 -0.07303,-0.074 -0.146942,-0.15059 -0.222334,-0.22956 -1.883297,-1.96844 -2.383376,-2.80867 -2.438591,-6.567409 -0.03169,-2.160491 0.180997,-3.520289 0.517894,-4.424064 0.353137,0.175509 0.663263,0.487188 0.888945,0.959857 0.65834,1.376846 -0.136413,2.404286 -0.105608,3.093212 0.056,1.275374 3.206477,2.979144 4.498063,0.01078 0.994353,-2.285365 3.148801,-1.540756 4.375331,-1.5923 2.570869,-0.109038 4.187936,-2.762063 4.003593,-3.826221 -0.152555,-0.892679 -1.530948,-0.466009 -2.03339,-0.56486 -2.587109,-0.510391 2.293221,-2.52775 2.844382,-3.80978 0.793968,-1.846891 -0.121746,-2.862631 -1.655154,-3.437577 1.39296,0.265282 2.814364,0.708092 4.177306,1.287075 -0.0747,0.490217 -0.147731,0.984469 0.127456,1.519068 1.179484,2.293738 -0.249203,1.347595 0.389652,3.395215 0.430199,1.38088 3.222716,3.613086 -0.78826,5.580918"
       style="fill:#bf9460;fill-opacity:1;fill-rule:nonzero;stroke:none;stroke-width:0.00996366"
       id="path4200" />
    <path
       d="m 50.754963,89.575779 c -0.551161,1.28203 -5.431491,3.299388 -2.844382,3.809779 0.502442,0.09886 1.880835,-0.327818 2.03339,0.564861 0.184343,1.064157 -1.432724,3.717183 -4.003593,3.826222 -1.22653,0.05154 -3.380978,-0.693065 -4.375331,1.5923 -1.291586,2.968349 -4.442061,1.264579 -4.498063,-0.01079 -0.03081,-0.688927 0.763948,-1.716365 0.105608,-3.093213 -0.225682,-0.472667 -0.535808,-0.784349 -0.888945,-0.959857 0.90351,-2.427893 2.701573,-1.551352 3.043293,-4.069013 0.657555,-4.851745 5.051684,-5.996595 9.772869,-5.097862 1.533408,0.574946 2.449122,1.590687 1.655154,3.437578"
       style="fill:#d3ae7e;fill-opacity:1;fill-rule:nonzero;stroke:none;stroke-width:0.00996366"
       id="path4202" />
    <path
       d="m 48.126616,87.570526 c -1.739798,-1.838822 -4.587527,-0.559817 -4.825708,1.271943 -0.274498,2.300796 -2.381605,1.798474 -2.161042,3.003846 0.152849,0.835188 1.700331,0.210814 1.036773,3.036124 -0.36662,1.560326 1.864302,0.781726 2.398337,-0.685901 0.710308,-1.952803 6.059127,-3.974196 3.55164,-6.626012"
       style="fill:#dbba8e;fill-opacity:1;fill-rule:nonzero;stroke:none;stroke-width:0.00996366"
       id="path4204" />
    <path
       d="m 52.924175,91.098883 c -0.06132,-0.10187 -0.146549,-0.188622 -0.25501,-0.258221 -1.196708,-1.035912 -3.00914,0.429697 -2.744879,1.518062 -0.639838,-1.087356 1.361072,-2.863639 2.645867,-1.750058 0.18523,0.115999 0.298907,0.288483 0.354022,0.490217"
       style="fill:#9b6439;fill-opacity:1;fill-rule:nonzero;stroke:none;stroke-width:0.00996366"
       id="path4206" />
    <path
       d="m 51.09196,93.025462 c -0.367506,-0.0696 -0.646041,-0.182573 -0.847902,-0.323788 l -0.0012,-0.002 c -0.02933,-0.01915 -0.0562,-0.04135 -0.08228,-0.06254 -0.101571,-0.08372 -0.179423,-0.1745 -0.235425,-0.271334 l -6.97e-4,-0.0071 c -0.264557,-1.088367 1.548171,-2.553976 2.744288,-1.517053 0.06889,0.04336 0.128146,0.09483 0.178439,0.152309 0.02953,0.03228 0.05502,0.06757 0.07717,0.104903 0.227551,0.836195 -0.586987,2.172695 -1.832413,1.926577"
       style="fill:#b78551;fill-opacity:1;fill-rule:nonzero;stroke:none;stroke-width:0.00996366"
       id="path4208" />
    <path
       d="m 51.275122,93.182814 c -0.42085,-0.07968 -0.724284,-0.217874 -0.930871,-0.389349 -0.03681,-0.02924 -0.07028,-0.06051 -0.100193,-0.09179 0.201861,0.141216 0.480396,0.254188 0.847902,0.323788 1.245426,0.246117 2.059962,-1.090383 1.832412,-1.926578 -0.02214,-0.03732 -0.04764,-0.07263 -0.07716,-0.104903 l 0.0052,0.004 0.0032,0.002 c 0.178242,0.113981 0.286308,0.318744 0.289753,0.533591 0.01309,0.822072 -0.755484,1.869083 -1.870305,1.649189"
       style="fill:#caa77a;fill-opacity:1;fill-rule:nonzero;stroke:none;stroke-width:0.00996366"
       id="path4210" />
    <path
       d="m 51.09196,93.025462 c -0.367506,-0.0696 -0.646041,-0.182573 -0.847902,-0.323788 l -0.0012,-0.002 c -0.05443,-0.0565 -0.09862,-0.11499 -0.134443,-0.176522 l -6.98e-4,-0.0081 c -0.264558,-1.086345 1.542462,-2.54994 2.739466,-1.521088 0.02953,0.03227 0.05502,0.06758 0.07717,0.104902 0.227551,0.836197 -0.586987,2.172697 -1.832413,1.926579"
       style="fill:#c59a69;fill-opacity:1;fill-rule:nonzero;stroke:none;stroke-width:0.00996366"
       id="path4212" />
    <path
       d="m 47.757633,99.13069 c -0.446144,-0.368873 -1.259795,-0.515636 -2.534749,-0.216561 -1.404968,0.328324 -2.040573,1.931411 -1.393452,2.880281 -1.001734,-0.87756 -0.388766,-2.78466 1.158324,-3.147784 1.549647,-0.362721 2.415855,-0.06758 2.769877,0.484064"
       style="fill:#9b6439;fill-opacity:1;fill-rule:nonzero;stroke:none;stroke-width:0.00996366"
       id="path4214" />
    <path
       d="m 45.391776,102.23086 c -0.02608,9.8e-4 -0.05207,0.002 -0.07893,0.003 -0.632555,0.0152 -1.100156,-0.13829 -1.421305,-0.38834 -0.02165,-0.0167 -0.04232,-0.0343 -0.0623,-0.0514 -0.646531,-0.94915 -0.01102,-2.552141 1.394042,-2.880468 1.274364,-0.299375 2.088015,-0.152109 2.534553,0.216665 0.04675,0.07173 0.08474,0.148175 0.112988,0.227659 0.399985,1.077774 -0.741213,2.787784 -2.479042,2.872504"
       style="fill:#b78551;fill-opacity:1;fill-rule:nonzero;stroke:none;stroke-width:0.00996366"
       id="path4216" />
    <path
       d="m 45.583797,102.51844 c -0.02667,5.7e-4 -0.05285,0.002 -0.07874,0.003 -0.674778,0.0164 -1.161572,-0.15946 -1.483509,-0.43978 -0.05147,-0.0746 -0.09448,-0.15332 -0.130013,-0.23543 0.321149,0.25005 0.78875,0.40348 1.421305,0.38835 0.02687,-9.8e-4 0.05285,-0.002 0.07893,-0.003 1.737829,-0.0848 2.879027,-1.79474 2.479042,-2.872512 0.02746,0.01915 0.05384,0.03883 0.07834,0.05981 0.679501,1.042862 -0.499491,3.009492 -2.365366,3.100282"
       style="fill:#caa77a;fill-opacity:1;fill-rule:nonzero;stroke:none;stroke-width:0.00996366"
       id="path4218" />
    <path
       d="m 45.391776,102.23086 c -0.02608,9.8e-4 -0.05207,0.002 -0.07893,0.003 -0.632555,0.0152 -1.100156,-0.13829 -1.421305,-0.38834 -0.412485,-0.95764 0.228436,-2.342052 1.522974,-2.644555 1.203598,-0.282634 1.996875,-0.167843 2.456307,0.15695 0.399985,1.077775 -0.741213,2.787785 -2.479042,2.872505"
       style="fill:#c59a69;fill-opacity:1;fill-rule:nonzero;stroke:none;stroke-width:0.00996366"
       id="path4220" />
    <path
       d="m 59.121781,102.80339 c 0.102655,0.0545 0.188379,0.16099 0.252648,0.32812 0.391423,1.01634 -1.176924,3.73423 -2.06144,3.81886 0.802136,0.47166 3.006977,-1.93949 2.284364,-3.77246 -0.109344,-0.27718 -0.275285,-0.39086 -0.475572,-0.37452"
       style="fill:#69381f;fill-opacity:1;fill-rule:nonzero;stroke:none;stroke-width:0.00996366"
       id="path4222" />
    <path
       d="m 57.033966,106.4998 c 0.031,0.14948 0.08927,0.27597 0.18326,0.37269 0.0082,0.0103 0.01752,0.0187 0.02698,0.0277 0.02095,0.0205 0.04547,0.0369 0.0686,0.0505 0.884611,-0.0853 2.453155,-2.80282 2.061635,-3.81886 -0.06427,-0.16743 -0.150192,-0.27406 -0.252648,-0.32802 -0.01406,5.7e-4 -0.02854,0.002 -0.0436,0.005 -0.872902,0.13082 -2.290761,2.50252 -2.044214,3.69115"
       style="fill:#7a492a;fill-opacity:1;fill-rule:nonzero;stroke:none;stroke-width:0.00996366"
       id="path4224" />
    <path
       d="m 56.889973,106.42928 c 0.04291,0.16139 0.100883,0.29958 0.210231,0.40045 0.02115,0.021 0.04547,0.037 0.0686,0.0505 0.01565,-9.8e-4 0.0316,-0.003 0.04842,-0.007 -0.09399,-0.0967 -0.152259,-0.22324 -0.18326,-0.37272 -0.246548,-1.18862 1.171312,-3.56034 2.044214,-3.69116 -0.0314,-0.0319 -0.06506,-0.0565 -0.100389,-0.0754 -0.868179,0.0563 -2.528647,2.03714 -2.087818,3.696"
       style="fill:#936b46;fill-opacity:1;fill-rule:nonzero;stroke:none;stroke-width:0.00996366"
       id="path4226" />
    <path
       d="m 57.033966,106.4998 c 0.031,0.14948 0.08927,0.27597 0.18326,0.37269 0.891502,-0.17318 2.39755,-2.813 2.013213,-3.81117 -0.04183,-0.11006 -0.0934,-0.19226 -0.152259,-0.25269 -0.872901,0.13083 -2.290762,2.50254 -2.044214,3.69117"
       style="fill:#8f633f;fill-opacity:1;fill-rule:nonzero;stroke:none;stroke-width:0.00996366"
       id="path4228" />
    <path
       d="m 51.761226,104.79806 c 1.179681,0.39933 2.543902,-1.72758 1.672969,-2.6146 1.19858,0.50282 -0.259242,3.6501 -1.672969,2.6146"
       style="fill:#824a29;fill-opacity:1;fill-rule:nonzero;stroke:none;stroke-width:0.00996366"
       id="path4230" />
    <path
       d="m 52.464645,102.07523 c 0.108559,-0.007 0.209933,-0.009 0.306485,-0.007 0.264065,0.006 0.482265,0.0469 0.663262,0.11509 0.849773,0.86544 -0.427345,2.90994 -1.585275,2.63941 -0.02982,-0.007 -0.05886,-0.0148 -0.08838,-0.0245 -0.123814,-0.11932 -0.244971,-0.27547 -0.353137,-0.47742 -0.498406,-0.92011 0.145466,-2.18539 1.057048,-2.2454"
       style="fill:#986339;fill-opacity:1;fill-rule:nonzero;stroke:none;stroke-width:0.00996366"
       id="path4232" />
    <path
       d="m 52.178829,102.05283 c 0.220858,-0.0229 0.42026,-0.009 0.592301,0.0153 -0.09655,-0.003 -0.197926,1.9e-4 -0.306485,0.007 -0.911581,0.0601 -1.555454,1.3253 -1.057048,2.24542 0.108166,0.20194 0.229323,0.35809 0.353137,0.4774 0.02953,0.0103 0.05856,0.0177 0.08838,0.0245 -1.217672,-0.37875 -1.104093,-2.62125 0.329712,-2.76974"
       style="fill:#af885a;fill-opacity:1;fill-rule:nonzero;stroke:none;stroke-width:0.00996366"
       id="path4234" />
    <path
       d="m 52.464645,102.07523 c 0.108559,-0.007 0.209933,-0.009 0.306485,-0.007 0.140742,0.0196 0.266131,0.0516 0.377446,0.0927 0.780189,0.79444 -0.232274,2.58373 -1.299459,2.66182 -0.02982,-0.007 -0.05886,-0.0148 -0.08838,-0.0245 -0.123814,-0.11931 -0.244971,-0.27547 -0.353137,-0.47742 -0.498406,-0.92011 0.145466,-2.18539 1.057048,-2.2454"
       style="fill:#a97c4f;fill-opacity:1;fill-rule:nonzero;stroke:none;stroke-width:0.00996366"
       id="path4236" />
    <path
       d="m 52.107374,95.353492 c -0.294181,-0.15231 -0.735603,-0.104903 -1.329676,0.326812 -0.683733,0.494251 -0.759911,1.223021 -0.402445,1.612474 -0.572911,-0.308655 -0.601847,-1.202951 0.192907,-1.77689 0.75824,-0.546702 1.265406,-0.474078 1.539214,-0.162396"
       style="fill:#9b6439;fill-opacity:1;fill-rule:nonzero;stroke:none;stroke-width:0.00996366"
       id="path4238" />
    <path
       d="m 51.920078,97.031932 c -0.588462,0.373415 -1.075157,0.435245 -1.415793,0.316625 -0.04567,-0.01504 -0.08888,-0.03429 -0.128835,-0.05597 -0.357762,-0.38925 -0.28119,-1.118021 0.402643,-1.612272 0.593383,-0.431715 1.035198,-0.479121 1.329478,-0.326813 l 0.004,0.004 c 0.02204,0.02422 0.04242,0.05144 0.06112,0.07868 0.314653,0.464999 0.217611,1.298368 -0.252648,1.595727"
       style="fill:#b78551;fill-opacity:1;fill-rule:nonzero;stroke:none;stroke-width:0.00996366"
       id="path4240" />
    <path
       d="m 52.111607,97.164777 c -0.668381,0.423542 -1.203105,0.445229 -1.545415,0.260643 -0.02284,-0.02422 -0.04321,-0.05014 -0.06191,-0.07686 0.340637,0.11862 0.827332,0.05679 1.415794,-0.316625 0.470259,-0.297359 0.567302,-1.130729 0.252649,-1.595727 0.04399,0.01312 0.08641,0.02924 0.125487,0.04942 l 0.0049,0.004 c 0.386404,0.443819 0.306485,1.360204 -0.191528,1.675112"
       style="fill:#caa77a;fill-opacity:1;fill-rule:nonzero;stroke:none;stroke-width:0.00996366"
       id="path4242" />
    <path
       d="m 51.920078,97.031932 c -0.588462,0.373415 -1.075157,0.435245 -1.415793,0.316625 -0.282864,-0.402665 -0.176077,-1.072629 0.464549,-1.536116 0.515139,-0.373213 0.91532,-0.459958 1.203893,-0.376236 0.314653,0.464998 0.21761,1.298368 -0.252649,1.595727"
       style="fill:#c59a69;fill-opacity:1;fill-rule:nonzero;stroke:none;stroke-width:0.00996366"
       id="path4244" />
    <path
       d="m 45.70702,106.0248 c 0.442897,0.73503 -0.489548,2.19125 -1.744718,1.85275 -0.428824,-0.081 -0.682161,-0.34981 -0.76946,-0.67491 0.126373,0.22635 0.353432,0.40044 0.684128,0.46389 1.144347,0.30845 2.020496,-0.87462 1.83005,-1.64173"
       style="fill:#824a29;fill-opacity:1;fill-rule:nonzero;stroke:none;stroke-width:0.00996366"
       id="path4246" />
    <path
       d="m 44.241424,105.68457 c 0.381581,-0.0784 0.685703,-0.0811 0.920538,-0.026 0.151569,0.0352 0.27371,0.0923 0.369867,0.16804 0.07342,0.0569 0.131,0.12397 0.174896,0.1984 0.190741,0.7668 -0.685506,1.95009 -1.829657,1.64143 -0.274104,-0.0526 -0.477246,-0.18127 -0.610608,-0.35254 -0.02746,-0.0353 -0.05236,-0.0723 -0.07382,-0.11135 -0.160033,-0.58221 0.21446,-1.3464 1.048779,-1.51797"
       style="fill:#986339;fill-opacity:1;fill-rule:nonzero;stroke:none;stroke-width:0.00996366"
       id="path4248" />
    <path
       d="m 44.107473,105.54679 c 0.380892,-0.0786 0.685014,-0.0813 0.919455,-0.0255 0.234046,0.0534 0.399493,0.162 0.504901,0.30534 -0.09616,-0.0758 -0.218298,-0.13294 -0.369867,-0.16805 -0.234835,-0.0552 -0.538957,-0.0523 -0.920538,0.026 -0.834319,0.17158 -1.208812,0.93576 -1.048779,1.51797 0.02146,0.0391 0.04636,0.076 0.07382,0.11136 -0.08671,-0.0714 -0.156293,-0.15565 -0.207768,-0.24905 -0.161116,-0.58181 0.214068,-1.34588 1.048781,-1.51806"
       style="fill:#af885a;fill-opacity:1;fill-rule:nonzero;stroke:none;stroke-width:0.00996366"
       id="path4250" />
    <path
       d="m 44.241424,105.68457 c 0.381581,-0.0784 0.685703,-0.0811 0.920538,-0.026 0.151569,0.0352 0.27371,0.0923 0.369867,0.16804 0.01407,0.0194 0.02785,0.0394 0.04025,0.0604 0.190739,0.76681 -0.685507,1.9501 -1.829657,1.64144 -0.194579,-0.0367 -0.352644,-0.11266 -0.475968,-0.21456 -0.02746,-0.0353 -0.05236,-0.0723 -0.07382,-0.11134 -0.160033,-0.58221 0.214461,-1.3464 1.04878,-1.51797"
       style="fill:#a97c4f;fill-opacity:1;fill-rule:nonzero;stroke:none;stroke-width:0.00996366"
       id="path4252" />
    <path
       d="m 40.387236,93.902004 c -0.287489,-0.208797 -0.743476,-0.203753 -1.201628,0.166431 -0.786586,0.557799 -0.876642,1.415175 -0.579114,1.877152 -0.496437,-0.352031 -0.753318,-1.427281 0.174502,-2.08494 0.579899,-0.465001 1.367863,-0.352031 1.60624,0.04135"
       style="fill:#ad7748;fill-opacity:1;fill-rule:nonzero;stroke:none;stroke-width:0.00996366"
       id="path4254" />
    <path
       d="m 40.239014,95.109392 c -0.220268,0.326813 -0.434729,0.5578 -0.639445,0.713136 -0.342606,0.259231 -0.649387,0.294534 -0.88294,0.187613 -0.03917,-0.01715 -0.07559,-0.03933 -0.110233,-0.06456 -0.29743,-0.461977 -0.207178,-1.319353 0.579015,-1.877153 0.458644,-0.370184 0.914139,-0.376235 1.201825,-0.16643 0.01969,0.03328 0.03779,0.0686 0.05236,0.105909 0.11781,0.286464 0.081,0.679851 -0.200583,1.101479"
       style="fill:#cb9e69;fill-opacity:1;fill-rule:nonzero;stroke:none;stroke-width:0.00996366"
       id="path4256" />
    <path
       d="m 40.408594,95.282886 c -0.220169,0.326811 -0.435417,0.557798 -0.639347,0.713133 -0.399493,0.301495 -0.750563,0.299983 -0.993172,0.123058 -0.02205,-0.03429 -0.04193,-0.07061 -0.05945,-0.108936 0.233553,0.106921 0.540334,0.07162 0.88294,-0.187613 0.204716,-0.155336 0.419177,-0.386323 0.639445,-0.713136 0.281583,-0.421627 0.318393,-0.815015 0.200583,-1.101479 0.04212,0.01816 0.081,0.04035 0.11722,0.06758 0.175977,0.2905 0.169482,0.731289 -0.148223,1.207389"
       style="fill:#dcbe93;fill-opacity:1;fill-rule:nonzero;stroke:none;stroke-width:0.00996366"
       id="path4258" />
    <path
       d="m 40.239014,95.109392 c -0.220268,0.326813 -0.434729,0.5578 -0.639445,0.713136 -0.342606,0.259231 -0.649387,0.294534 -0.88294,0.187613 -0.221153,-0.479121 -0.08996,-1.25177 0.638362,-1.768213 0.399788,-0.323788 0.798593,-0.368169 1.084606,-0.234015 0.11781,0.286464 0.081,0.679852 -0.200583,1.101479"
       style="fill:#d4ae82;fill-opacity:1;fill-rule:nonzero;stroke:none;stroke-width:0.00996366"
       id="path4260" />
    <path
       d="m 46.870758,94.297406 c -0.354024,-0.16139 -0.865422,-0.0696 -1.132933,0.309663 -0.293688,0.416586 -0.186114,0.857378 0.07874,1.120644 -0.406482,-0.201737 -0.658244,-0.758527 -0.29369,-1.273963 0.330401,-0.468028 1.027914,-0.494253 1.347883,-0.156344"
       style="fill:#ad7748;fill-opacity:1;fill-rule:nonzero;stroke:none;stroke-width:0.00996366"
       id="path4262" />
    <path
       d="m 46.970064,95.085183 c -0.03346,0.09179 -0.07008,0.174502 -0.112496,0.2441 -0.248613,0.424655 -0.601552,0.533592 -0.902329,0.450879 -0.04724,-0.01312 -0.0937,-0.03126 -0.138479,-0.05345 -0.26495,-0.262257 -0.372525,-0.704059 -0.07914,-1.119635 0.267412,-0.379262 0.779205,-0.470044 1.13303,-0.309663 0.01378,0.01512 0.02766,0.03126 0.03986,0.0474 0.13287,0.171474 0.176864,0.420622 0.05954,0.740371"
       style="fill:#cb9e69;fill-opacity:1;fill-rule:nonzero;stroke:none;stroke-width:0.00996366"
       id="path4264" />
    <path
       d="m 47.150176,95.181008 c -0.03425,0.09079 -0.07086,0.174502 -0.112496,0.244099 -0.288474,0.491228 -0.716411,0.559818 -1.041694,0.398428 -0.01378,-0.01412 -0.02766,-0.02924 -0.04075,-0.04337 0.300776,0.08272 0.653715,-0.02621 0.902328,-0.450879 0.04242,-0.0696 0.07903,-0.15231 0.112496,-0.2441 0.117319,-0.319749 0.07332,-0.568897 -0.05954,-0.740371 0.04892,0.01108 0.09537,0.02824 0.140251,0.04842 0.162198,0.171474 0.228239,0.438772 0.09941,0.787776"
       style="fill:#dcbe93;fill-opacity:1;fill-rule:nonzero;stroke:none;stroke-width:0.00996366"
       id="path4266" />
    <path
       d="m 46.970064,95.085183 c -0.03346,0.09179 -0.07008,0.174502 -0.112496,0.2441 -0.248613,0.424655 -0.601552,0.533592 -0.902329,0.450879 -0.233849,-0.267299 -0.31544,-0.682877 -0.0375,-1.078276 0.233948,-0.330849 0.653716,-0.442812 0.992778,-0.357074 0.13287,0.171474 0.176864,0.420622 0.05954,0.740371"
       style="fill:#d4ae82;fill-opacity:1;fill-rule:nonzero;stroke:none;stroke-width:0.00996366"
       id="path4268" />
    <path
       d="m 60.538954,97.174863 c 0.315933,-0.279505 0.45392,-1.333173 0.192612,-2.156253 -0.200879,-0.633451 -0.484532,-0.849306 -0.727041,-0.773657 0.262884,-0.21384 0.75627,-0.006 0.995829,0.74844 0.295166,0.93101 -0.05679,2.104811 -0.4614,2.18147"
       style="fill:#69381f;fill-opacity:1;fill-rule:nonzero;stroke:none;stroke-width:0.00996366"
       id="path4270" />
    <path
       d="m 60.022339,96.70492 c -0.06005,-0.119831 -0.113283,-0.23714 -0.155604,-0.351828 -0.301072,-0.809969 -0.239558,-1.517052 -0.03149,-1.896315 0.04941,-0.08877 0.10669,-0.16038 0.169186,-0.210815 0.242314,-0.07667 0.526262,0.139197 0.726845,0.772648 0.248022,0.777691 0.137199,1.763273 -0.142222,2.104104 -0.01624,0.01987 -0.03287,0.03671 -0.05,0.05174 -0.150781,0.03046 -0.328629,-0.101172 -0.516713,-0.469539"
       style="fill:#7a492a;fill-opacity:1;fill-rule:nonzero;stroke:none;stroke-width:0.00996366"
       id="path4272" />
    <path
       d="m 59.945768,96.822428 c -0.06014,-0.118518 -0.113973,-0.236432 -0.155508,-0.351825 -0.336896,-0.903271 -0.220759,-1.675919 0.04498,-2.013826 -0.208062,0.379263 -0.269576,1.086346 0.03149,1.896315 0.04232,0.114688 0.09557,0.231997 0.155604,0.351828 0.188085,0.368369 0.365932,0.500002 0.516713,0.469539 0.01713,-0.01503 0.03376,-0.03187 0.05,-0.05174 -0.03818,0.07081 -0.0807,0.129817 -0.127356,0.170064 -0.150094,0.03097 -0.327943,-0.100671 -0.515925,-0.47035"
       style="fill:#936b46;fill-opacity:1;fill-rule:nonzero;stroke:none;stroke-width:0.00996366"
       id="path4274" />
    <path
       d="m 60.022339,96.70492 c -0.06005,-0.119831 -0.113283,-0.23714 -0.155604,-0.351828 -0.301072,-0.809969 -0.239558,-1.517052 -0.03149,-1.896315 0.02943,-0.03631 0.06033,-0.06757 0.09202,-0.09381 0.242907,-0.07565 0.526165,0.140206 0.727535,0.773658 0.223022,0.70204 0.15472,1.571523 -0.06575,1.986088 -0.01624,0.01987 -0.03287,0.03671 -0.05,0.05174 -0.150781,0.03046 -0.328629,-0.101172 -0.516713,-0.469539"
       style="fill:#8f633f;fill-opacity:1;fill-rule:nonzero;stroke:none;stroke-width:0.00996366"
       id="path4276" />
    <path
       d="m 39.063958,102.72583 c -0.894258,-0.68258 -1.909083,0.45683 -1.460675,1.14483 -0.826052,-0.63687 0.306879,-2.09078 1.292867,-1.32761 0.06555,0.0511 0.120664,0.11287 0.167808,0.18278"
       style="fill:#ac7340;fill-opacity:1;fill-rule:nonzero;stroke:none;stroke-width:0.00996366"
       id="path4278" />
    <path
       d="m 39.203323,103.36845 c -0.09704,0.65241 -0.671628,1.02916 -1.481834,0.58058 -0.02284,-0.0125 -0.04321,-0.0251 -0.06279,-0.0384 -0.02038,-0.0134 -0.03829,-0.0268 -0.05541,-0.0402 -0.448311,-0.68741 0.566514,-1.82682 1.460674,-1.14435 0.01624,0.0233 0.031,0.0484 0.04321,0.0743 0.09124,0.16955 0.125487,0.37421 0.09616,0.56798"
       style="fill:#b78551;fill-opacity:1;fill-rule:nonzero;stroke:none;stroke-width:0.00996366"
       id="path4280" />
    <path
       d="m 39.298694,103.48042 c -0.09704,0.65322 -0.671629,1.02916 -1.481836,0.58058 -0.04399,-0.0243 -0.08395,-0.0511 -0.117416,-0.0777 -0.01544,-0.0233 -0.02933,-0.0476 -0.04075,-0.0726 0.01958,0.0133 0.03997,0.0259 0.06279,0.0385 0.810206,0.44857 1.384791,0.0718 1.481834,-0.58059 0.02933,-0.19377 -0.0049,-0.39843 -0.09616,-0.56799 0.01791,0.0117 0.03504,0.0242 0.05295,0.0375 0.123026,0.18297 0.172829,0.41941 0.138578,0.64243"
       style="fill:#caa77a;fill-opacity:1;fill-rule:nonzero;stroke:none;stroke-width:0.00996366"
       id="path4282" />
    <path
       d="m 39.203323,103.36845 c -0.09704,0.65241 -0.671628,1.02916 -1.481834,0.58058 -0.02284,-0.0125 -0.04321,-0.0251 -0.06279,-0.0384 -0.331779,-0.67751 0.599093,-1.68903 1.44847,-1.11015 0.09124,0.16955 0.125488,0.37422 0.09616,0.56798"
       style="fill:#c59a69;fill-opacity:1;fill-rule:nonzero;stroke:none;stroke-width:0.00996366"
       id="path4284" />
    <path
       d="m 49.228446,109.90096 c -0.328532,0.37523 0.526161,0.64384 1.345127,0.57232 0.603422,-0.0511 0.99829,-0.16927 1.221116,-0.30926 -0.168596,0.19297 -0.54742,0.48569 -1.323376,0.55215 -0.907743,0.079 -1.903769,-0.37855 -1.242867,-0.81521"
       style="fill:#69381f;fill-opacity:1;fill-rule:nonzero;stroke:none;stroke-width:0.00996366"
       id="path4286" />
    <path
       d="m 51.872639,110.02009 c -0.01073,0.0481 -0.0372,0.0966 -0.07854,0.14404 -0.222333,0.1397 -0.616414,0.25812 -1.220623,0.30915 -0.792885,0.0689 -1.618248,-0.18014 -1.371504,-0.53691 0.0062,-0.0115 0.01614,-0.0237 0.02648,-0.0356 0.01604,-0.0121 0.03681,-0.0254 0.05777,-0.037 1.404673,-0.79574 2.700885,-0.32479 2.586421,0.15644"
       style="fill:#7a492a;fill-opacity:1;fill-rule:nonzero;stroke:none;stroke-width:0.00996366"
       id="path4288" />
    <path
       d="m 51.872639,110.02009 c 0.114464,-0.48124 -1.181747,-0.9522 -2.58642,-0.15645 -0.02096,0.0117 -0.04173,0.025 -0.05777,0.037 -0.01033,0.0119 -0.02027,0.0241 -0.02648,0.0356 0.0065,-0.0418 0.02884,-0.0858 0.0685,-0.13184 0.01723,-0.0123 0.03691,-0.0254 0.05906,-0.0373 1.498665,-0.84881 2.873909,-0.2556 2.543114,0.25298"
       style="fill:#936b46;fill-opacity:1;fill-rule:nonzero;stroke:none;stroke-width:0.00996366"
       id="path4290" />
    <path
       d="m 51.872639,110.02009 c -0.0093,0.0157 -0.02145,0.0316 -0.03524,0.0475 -0.223515,0.14 -0.617693,0.25831 -1.221805,0.30945 -0.719758,0.0626 -1.465989,-0.13697 -1.413629,-0.44069 0.0062,-0.0115 0.01614,-0.0237 0.02648,-0.0356 0.01604,-0.0121 0.03681,-0.0254 0.05777,-0.037 1.404672,-0.79575 2.700884,-0.3248 2.58642,0.15643"
       style="fill:#8f633f;fill-opacity:1;fill-rule:nonzero;stroke:none;stroke-width:0.00996366"
       id="path4292" />
    <path
       d="m 46.691433,89.110778 c 0.03277,-0.142223 0.03661,-0.266291 0.0248,-0.345977 -0.07874,-0.496269 -0.822509,-1.822683 -2.506797,0.345977 -0.134739,0.174502 -0.235031,0.339925 -0.29812,0.491227 0.129426,-1.829744 1.073878,-2.540861 1.849144,-2.373421 0.530493,0.114989 0.981756,0.757517 1.038742,1.269926 0.01407,0.127094 -0.004,0.360099 -0.107771,0.612268"
       style="fill:#b38050;fill-opacity:1;fill-rule:nonzero;stroke:none;stroke-width:0.00996366"
       id="path4294" />
    <path
       d="m 43.892915,89.801724 c -1.97e-4,-0.04439 0.0032,-0.09079 0.0094,-0.138189 6.96e-4,-0.01816 0.0057,-0.04035 0.0093,-0.06153 1.04563,-3.352849 3.103429,-1.59674 2.780114,-0.491227 -0.01093,0.02622 -0.02077,0.04841 -0.03179,0.07263 l -8.93e-4,0.002 c -0.03425,0.07465 -0.07441,0.147268 -0.120371,0.216867 -1.004982,1.510999 -2.637894,1.36474 -2.645768,0.399436"
       style="fill:#d2a877;fill-opacity:1;fill-rule:nonzero;stroke:none;stroke-width:0.00996366"
       id="path4296" />
    <path
       d="m 43.840061,89.959077 c 6.99e-4,-0.01816 0.0056,-0.04035 0.0085,-0.06052 0.01339,-0.03228 0.02805,-0.06354 0.04439,-0.09684 0.0079,0.965305 1.640785,1.111564 2.645768,-0.399437 0.04596,-0.0696 0.08612,-0.142224 0.12037,-0.216866 -0.0019,0.06456 -0.01161,0.140206 -0.03041,0.221909 -0.01043,0.0252 -0.01998,0.0474 -0.03209,0.07263 -0.03396,0.07465 -0.07382,0.147267 -0.120467,0.217875 -1.050553,1.580601 -2.788776,1.348604 -2.636026,0.261247"
       style="fill:#e4c9a3;fill-opacity:1;fill-rule:nonzero;stroke:none;stroke-width:0.00996366"
       id="path4298" />
    <path
       d="m 43.892915,89.801724 c 0.062,-0.124068 0.170269,-0.241075 0.253631,-0.394395 1.468844,-2.692163 2.428159,-0.843254 2.507388,-0.346985 0.0044,0.03429 0.0065,0.07667 0.0051,0.125077 -0.03425,0.07465 -0.07441,0.147267 -0.12037,0.216866 -1.004982,1.511001 -2.637895,1.364742 -2.645768,0.399437"
       style="fill:#dbb88d;fill-opacity:1;fill-rule:nonzero;stroke:none;stroke-width:0.00996366"
       id="path4300" />
    <path
       d="m 57.278344,97.147729 c -0.964826,0.114687 -0.966695,-0.931816 -0.261405,-1.068997 1.019843,-0.19871 0.719066,1.014528 0.261405,1.068997"
       style="fill:#b0895b;fill-opacity:1;fill-rule:nonzero;stroke:none;stroke-width:0.00996366"
       id="path4302" />
    <path
       d="m 57.042626,94.870334 c 0.455298,-0.316724 0.723987,0.207788 0.404809,0.467019 -0.461302,0.37321 -0.620745,-0.316727 -0.404809,-0.467019"
       style="fill:#b0895b;fill-opacity:1;fill-rule:nonzero;stroke:none;stroke-width:0.00996366"
       id="path4304" />
    <path
       d="m 56.10142,94.854195 c 0.349297,-0.243091 0.55549,0.160381 0.310618,0.358082 -0.354022,0.287473 -0.476359,-0.243091 -0.310618,-0.358082"
       style="fill:#b0895b;fill-opacity:1;fill-rule:nonzero;stroke:none;stroke-width:0.00996366"
       id="path4306" />
    <path
       d="m 56.990856,93.935288 c 0.242217,-0.168447 0.385124,0.110955 0.215347,0.249146 -0.245366,0.19871 -0.330204,-0.168448 -0.215347,-0.249146"
       style="fill:#b0895b;fill-opacity:1;fill-rule:nonzero;stroke:none;stroke-width:0.00996366"
       id="path4308" />
    <path
       d="m 56.336747,92.394028 c 0.185129,-0.129111 0.294379,0.08473 0.164659,0.189631 -0.187592,0.152311 -0.252453,-0.12911 -0.164659,-0.189631"
       style="fill:#b0895b;fill-opacity:1;fill-rule:nonzero;stroke:none;stroke-width:0.00996366"
       id="path4310" />
    <path
       d="m 46.751765,107.50384 c 0.39723,-1.10714 1.478391,-0.54994 1.243359,0.28817 -0.339849,1.21173 -1.431836,0.23714 -1.243359,-0.28817"
       style="fill:#b0895b;fill-opacity:1;fill-rule:nonzero;stroke:none;stroke-width:0.00996366"
       id="path4312" />
    <path
       d="m 48.730825,106.9297 c 0.455299,-0.31683 0.72399,0.20828 0.404908,0.46691 -0.461401,0.37381 -0.620844,-0.31662 -0.404908,-0.46691"
       style="fill:#b0895b;fill-opacity:1;fill-rule:nonzero;stroke:none;stroke-width:0.00996366"
       id="path4314" />
    <path
       d="m 50.047313,106.87693 c 0.349298,-0.24308 0.555491,0.15978 0.310619,0.35819 -0.353924,0.28687 -0.476262,-0.24289 -0.310619,-0.35819"
       style="fill:#b0895b;fill-opacity:1;fill-rule:nonzero;stroke:none;stroke-width:0.00996366"
       id="path4316" />
    <path
       d="m 49.384149,106.03389 c 0.242215,-0.16855 0.385122,0.11076 0.215345,0.24833 -0.245364,0.19892 -0.330204,-0.16844 -0.215345,-0.24833"
       style="fill:#b0895b;fill-opacity:1;fill-rule:nonzero;stroke:none;stroke-width:0.00996366"
       id="path4318" />
    <path
       d="m 46.388688,106.56677 c 0.185131,-0.1288 0.294379,0.0848 0.164561,0.18983 -0.187592,0.15211 -0.252451,-0.12871 -0.164561,-0.18983"
       style="fill:#b0895b;fill-opacity:1;fill-rule:nonzero;stroke:none;stroke-width:0.00996366"
       id="path4320" />
    <path
       d="m 49.989737,106.29221 c 0.18513,-0.12882 0.294378,0.0848 0.164659,0.18983 -0.187691,0.15211 -0.25255,-0.12871 -0.164659,-0.18983"
       style="fill:#b0895b;fill-opacity:1;fill-rule:nonzero;stroke:none;stroke-width:0.00996366"
       id="path4322" />
    <path
       d="m 45.451026,108.34679 c 0.24123,-0.16785 0.383549,0.11034 0.214461,0.24742 -0.244381,0.198 -0.328925,-0.16774 -0.214461,-0.24742"
       style="fill:#b0895b;fill-opacity:1;fill-rule:nonzero;stroke:none;stroke-width:0.00996366"
       id="path4324" />
    <path
       d="m 40.173956,99.480702 c -1.137555,0.114689 -1.139819,-0.931816 -0.308158,-1.0693 1.202319,-0.198809 0.847706,1.014933 0.308158,1.0693"
       style="fill:#dcbe93;fill-opacity:1;fill-rule:nonzero;stroke:none;stroke-width:0.00996366"
       id="path4326" />
    <path
       d="m 49.90224,88.330061 c -0.964828,0.114989 -0.966698,-0.93202 -0.261309,-1.069199 1.019745,-0.19871 0.718969,1.01473 0.261309,1.069199"
       style="fill:#dcbe93;fill-opacity:1;fill-rule:nonzero;stroke:none;stroke-width:0.00996366"
       id="path4328" />
    <path
       d="m 49.240158,88.915095 c 0.455298,-0.316725 0.723988,0.208797 0.404807,0.467018 -0.461301,0.37422 -0.620745,-0.316725 -0.404807,-0.467018"
       style="fill:#dcbe93;fill-opacity:1;fill-rule:nonzero;stroke:none;stroke-width:0.00996366"
       id="path4330" />
    <path
       d="m 40.938692,97.592053 c 0.397722,-0.373614 0.687869,0.02088 0.411993,0.314204 -0.398904,0.424148 -0.600667,-0.136979 -0.411993,-0.314204"
       style="fill:#dcbe93;fill-opacity:1;fill-rule:nonzero;stroke:none;stroke-width:0.00996366"
       id="path4332" />
    <path
       d="m 42.337558,97.108695 c 0.30491,-0.302202 0.594958,0.0923 0.386797,0.333568 -0.300875,0.348701 -0.531477,-0.190135 -0.386797,-0.333568"
       style="fill:#dcbe93;fill-opacity:1;fill-rule:nonzero;stroke:none;stroke-width:0.00996366"
       id="path4334" />
    <path
       d="m 41.586995,96.544337 c 0.203044,-0.201331 0.396147,0.06143 0.25757,0.222012 -0.200387,0.232298 -0.353925,-0.126591 -0.25757,-0.222012"
       style="fill:#dcbe93;fill-opacity:1;fill-rule:nonzero;stroke:none;stroke-width:0.00996366"
       id="path4336" />
  </g>
</svg>
