<?xml version="1.0" encoding="UTF-8" standalone="no"?>
<!-- Created with Inkscape (http://www.inkscape.org/) -->

<svg
   width="100"
   height="100"
   viewBox="0 0 26.458333 26.458333"
   version="1.1"
   id="svg13353"
   sodipodi:docname="asteroid-fragment-4.svg"
   inkscape:version="1.2.1 (9c6d41e410, 2022-07-14)"
   xmlns:inkscape="http://www.inkscape.org/namespaces/inkscape"
   xmlns:sodipodi="http://sodipodi.sourceforge.net/DTD/sodipodi-0.dtd"
   xmlns="http://www.w3.org/2000/svg"
   xmlns:svg="http://www.w3.org/2000/svg">
  <sodipodi:namedview
     id="namedview13355"
     pagecolor="#505050"
     bordercolor="#ffffff"
     borderopacity="1"
     inkscape:showpageshadow="0"
     inkscape:pageopacity="0"
     inkscape:pagecheckerboard="1"
     inkscape:deskcolor="#505050"
     inkscape:document-units="px"
     showgrid="false"
     inkscape:zoom="2.9825758"
     inkscape:cx="49.453898"
     inkscape:cy="95.55499"
     inkscape:window-width="1920"
     inkscape:window-height="1017"
     inkscape:window-x="-8"
     inkscape:window-y="-8"
     inkscape:window-maximized="1"
     inkscape:current-layer="layer1" />
  <defs
     id="defs13350" />
  <g
     inkscape:label="Warstwa 1"
     inkscape:groupmode="layer"
     id="layer1"
     transform="translate(-118.36781,-110.25781)">
    <path
       d="m 142.34215,127.21066 c 2.61586,4.22016 -4.89778,10.57748 -10.39912,8.99258 0.0322,0.0168 0.0461,0.0269 0.0567,0.0371 -0.0319,0 -0.74185,-0.33863 -1.65382,-0.74846 0.24839,-0.0744 0.49677,-0.13893 0.73123,-0.18957 1.18192,-0.25065 2.4202,-0.32533 3.52784,-0.80289 2.35653,-1.01271 3.15873,-3.45811 2.05475,-5.15155 -0.54651,-0.83676 -2.39566,-2.09663 -1.65382,-3.39734 0.49346,-0.86682 3.10933,-1.72731 -1.12852,-3.54957 -3.05228,-1.31051 -2.71866,-3.91192 0.82674,-3.20745 4.99395,0.98233 3.77656,-5.27688 8.92273,-3.89167 0.0497,0.0848 0.0995,0.17944 0.14558,0.27438 2.21825,4.41322 -0.85161,6.30668 -1.74965,7.31939 -1.95924,2.21152 -0.27326,3.35652 0.31935,4.31511"
       style="fill:#7e5130;fill-opacity:1;fill-rule:nonzero;stroke:none;stroke-width:0.0323962"
       id="path3968" />
    <path
       d="m 143.62687,115.30177 c -5.14617,-1.38521 -3.92878,4.874 -8.92273,3.89167 -3.5454,-0.70447 -3.87903,1.89694 -0.82674,3.20745 4.23785,1.82226 1.62198,2.68275 1.12852,3.54957 -0.74184,1.30071 1.10731,2.56058 1.65382,3.39734 1.10398,1.69345 0.30178,4.13884 -2.05475,5.15155 -1.10764,0.47756 -2.34593,0.55224 -3.52784,0.80289 -0.23446,0.0507 -0.48284,0.1152 -0.73123,0.18957 -1.35237,-0.61649 -3.13751,-1.39881 -3.79413,-1.5004 -0.35153,-0.0576 -0.67785,-0.0611 -0.97963,-0.0304 -0.0355,-1.04658 -0.36545,-2.11689 -0.4152,-3.00111 -0.22351,-3.99674 3.78718,-6.56746 4.09923,-7.47826 0.19534,-0.57599 -0.0995,-1.18235 -0.26961,-1.76814 -1.45153,-5.04332 6.43819,-6.72664 7.18003,-8.54225 0.0354,-0.0814 0.064,-0.16267 0.0885,-0.23703 3.02411,0.31488 5.44099,-1.17539 7.37172,2.36753"
       style="fill:#9e6f43;fill-opacity:1;fill-rule:nonzero;stroke:none;stroke-width:0.0323962"
       id="path3970" />
    <path
       d="m 136.25515,112.93423 c -0.0245,0.0744 -0.053,0.15571 -0.0885,0.23704 -0.74184,1.81561 -8.63156,3.49893 -7.18003,8.54225 0.17013,0.58579 0.46495,1.19215 0.26962,1.76813 -0.31206,0.91081 -4.32275,3.48153 -4.09924,7.47827 0.0497,0.88422 0.37972,1.95453 0.4152,3.00111 -2.12241,0.2133 -3.13021,2.18114 -4.57478,0.46743 -2.7117,-3.22138 -3.32919,-11.35348 -0.59626,-14.08685 1.54372,-1.5444 4.014,-1.85264 5.82766,-3.10239 3.96094,-2.71978 1.5865,-9.23659 6.50219,-5.68006 1.25653,0.91112 2.43115,1.25988 3.52418,1.37507"
       style="fill:#bf9460;fill-opacity:1;fill-rule:nonzero;stroke:none;stroke-width:0.0323962"
       id="path3972" />
  </g>
</svg>
