<?xml version="1.0" encoding="UTF-8" standalone="no"?>
<!-- Created with Inkscape (http://www.inkscape.org/) -->

<svg
   width="100"
   height="100"
   viewBox="0 0 26.458333 26.458333"
   version="1.1"
   id="svg13353"
   sodipodi:docname="asteroid-fragment-7.svg"
   inkscape:version="1.2.1 (9c6d41e410, 2022-07-14)"
   xmlns:inkscape="http://www.inkscape.org/namespaces/inkscape"
   xmlns:sodipodi="http://sodipodi.sourceforge.net/DTD/sodipodi-0.dtd"
   xmlns="http://www.w3.org/2000/svg"
   xmlns:svg="http://www.w3.org/2000/svg">
  <sodipodi:namedview
     id="namedview13355"
     pagecolor="#505050"
     bordercolor="#ffffff"
     borderopacity="1"
     inkscape:showpageshadow="0"
     inkscape:pageopacity="0"
     inkscape:pagecheckerboard="1"
     inkscape:deskcolor="#505050"
     inkscape:document-units="px"
     showgrid="false"
     inkscape:zoom="2.9825758"
     inkscape:cx="49.453898"
     inkscape:cy="15.08763"
     inkscape:window-width="1920"
     inkscape:window-height="1017"
     inkscape:window-x="-8"
     inkscape:window-y="-8"
     inkscape:window-maximized="1"
     inkscape:current-layer="layer1" />
  <defs
     id="defs13350" />
  <g
     inkscape:label="Warstwa 1"
     inkscape:groupmode="layer"
     id="layer1"
     transform="translate(-118.36781,-110.25781)">
    <path
       d="m 144.37057,122.8209 c -0.85087,5.28369 -0.52805,3.82894 -2.93719,5.48329 -2.2015,1.51052 -1.70938,4.55847 -4.20066,5.78869 l -5.56687,1.97303 c -4.25718,1.21677 -7.71212,-0.69295 -9.67774,-2.30121 1.26612,0.28783 2.57318,0.26864 3.14218,0.13235 0.98688,-0.23797 1.70435,-0.93271 2.71159,-1.11707 1.34299,-0.24945 7.92979,2.10932 9.16525,-6.03796 0.47153,-3.117 0.78932,-2.72353 1.71706,-4.20339 0.74333,-1.18611 1.12529,-3.4796 0.98161,-4.06315 -0.31515,-1.29748 -1.91701,-1.55267 -1.13799,-4.57748 0.23085,-0.89828 0.58695,-1.80033 1.30467,-2.54115 0,-0.002 0.29719,-0.33195 0.8305,-0.65636 h 0.003 c 0.18703,0.0192 0.38172,0.0384 0.58169,0.0595 3.19605,0.33392 -0.13842,2.26659 1.11739,5.25105 0.96126,2.28022 2.74249,1.98845 1.96587,6.80982"
       style="fill:#7e5130;fill-opacity:1;fill-rule:nonzero;stroke:none;stroke-width:0.0207235"
       id="path3904" />
    <path
       d="m 140.70298,110.70049 c -0.53331,0.32441 -0.8305,0.65438 -0.8305,0.65636 -0.71772,0.74082 -1.07382,1.64287 -1.30467,2.54115 -0.77902,3.02481 0.82284,3.28 1.13799,4.57748 0.14368,0.58355 -0.23828,2.87704 -0.98161,4.06315 -0.92774,1.47986 -1.24553,1.08639 -1.71706,4.20339 -1.23546,8.14728 -7.82226,5.78851 -9.16525,6.03796 -1.00724,0.18436 -1.72471,0.8791 -2.71159,1.11707 -0.569,0.13629 -1.87606,0.15548 -3.14218,-0.13235 -0.24355,-0.1978 -0.46147,-0.39166 -0.65617,-0.57207 -0.93036,-0.86367 -1.63012,-1.85394 -1.84541,-2.15343 0.82285,0.0768 1.61719,-0.0172 2.23241,-0.19763 0.98161,-0.28783 1.85307,-0.83103 2.90389,-0.89828 0.53811,-0.0364 1.07645,0.0576 1.61719,0.0404 2.6091,-0.0864 5.82575,-3.50848 4.85683,-5.42197 -0.55367,-1.0959 -3.65226,-2.65448 0.40256,-5.12462 4.14678,-2.52967 -1.87104,-3.77137 1.0276,-6.43914 0.6279,-0.57584 0.93803,-1.10935 1.10973,-1.6122 1.08411,-0.62964 2.19145,-1.1497 7.06624,-0.68523"
       style="fill:#9e6f43;fill-opacity:1;fill-rule:nonzero;stroke:none;stroke-width:0.0207235"
       id="path3906" />
    <path
       d="m 131.49941,119.43706 c -4.05482,2.47014 -0.95623,4.02872 -0.40256,5.12462 0.96892,1.91349 -2.24773,5.33553 -4.85683,5.42196 -0.54074,0.0172 -1.07908,-0.0768 -1.61719,-0.0404 -1.05082,0.0673 -1.92228,0.61045 -2.90389,0.89828 -0.61522,0.18041 -1.40956,0.27438 -2.23241,0.19763 -1.90168,-2.62167 -0.13578,-3.21867 0.57666,-4.83088 0.34102,-0.77526 0.27684,-1.64664 0.77926,-2.37401 0.40735,-0.59503 1.14303,-1.01933 1.68903,-1.54711 1.66078,-1.60449 1.38896,-3.91341 2.61916,-5.72324 1.59157,-2.34352 5.25412,-3.34725 8.05815,-4.93273 0.14609,-0.0825 0.2869,-0.16302 0.42795,-0.24551 -0.1717,0.50285 -0.48183,1.03636 -1.10973,1.6122 -2.89864,2.66777 3.11918,3.90947 -1.0276,6.43914"
       style="fill:#bf9460;fill-opacity:1;fill-rule:nonzero;stroke:none;stroke-width:0.0207235"
       id="path3908" />
  </g>
</svg>
