<?xml version="1.0" encoding="UTF-8" standalone="no"?>
<!-- Created with Inkscape (http://www.inkscape.org/) -->

<svg
   width="100"
   height="100"
   viewBox="0 0 26.458332 26.458333"
   version="1.1"
   id="svg11223"
   inkscape:version="1.2.1 (9c6d41e410, 2022-07-14)"
   sodipodi:docname="asteroid-whole-7.svg"
   xmlns:inkscape="http://www.inkscape.org/namespaces/inkscape"
   xmlns:sodipodi="http://sodipodi.sourceforge.net/DTD/sodipodi-0.dtd"
   xmlns="http://www.w3.org/2000/svg"
   xmlns:svg="http://www.w3.org/2000/svg">
  <sodipodi:namedview
     id="namedview11225"
     pagecolor="#505050"
     bordercolor="#ffffff"
     borderopacity="1"
     inkscape:showpageshadow="0"
     inkscape:pageopacity="0"
     inkscape:pagecheckerboard="1"
     inkscape:deskcolor="#505050"
     inkscape:document-units="px"
     showgrid="false"
     inkscape:zoom="0.74564394"
     inkscape:cx="201.83896"
     inkscape:cy="315.16383"
     inkscape:window-width="1920"
     inkscape:window-height="1017"
     inkscape:window-x="-8"
     inkscape:window-y="-8"
     inkscape:window-maximized="1"
     inkscape:current-layer="layer1" />
  <defs
     id="defs11220" />
  <g
     inkscape:label="Warstwa 1"
     inkscape:groupmode="layer"
     id="layer1"
     transform="translate(-52.232026,-65.819981)">
    <path
       d="m 78.425776,83.369487 c 0,7.949921 -12.055206,11.994637 -20.770382,5.18427 -1.201131,-0.938293 -2.167086,-1.911827 -2.922528,-2.899338 0.31577,-0.04908 0.633156,-0.06291 0.952009,-0.03525 2.100585,0.171992 4.685763,2.126776 7.616072,2.811674 6.21206,1.451199 6.510801,-3.564141 9.171729,-5.001503 1.072827,-0.580482 2.399327,-0.578881 3.433399,-1.223873 0.903416,-0.563587 1.453924,-1.618526 1.453924,-2.672012 0,-0.167328 -0.01469,-0.334802 -0.04404,-0.500529 0.764839,1.535521 1.10982,2.991376 1.10982,4.336557"
       style="fill:#7e5130;fill-opacity:1;fill-rule:nonzero;stroke:none;stroke-width:0.0146215"
       id="path4532" />
    <path
       d="m 77.359999,79.533459 c 0,1.053486 -0.550508,2.108426 -1.453924,2.672012 -1.034072,0.644993 -2.360572,0.643391 -3.433399,1.223874 -2.660928,1.437361 -2.959669,6.452701 -9.171729,5.001503 -2.930309,-0.684899 -5.515487,-2.639683 -7.616072,-2.811675 -0.318853,-0.02766 -0.636239,-0.01383 -0.952009,0.03525 h -0.0016 c -1.160908,-1.51717 -1.828121,-3.075843 -2.095888,-4.616023 1.928828,2.234396 6.22909,-0.0077 7.300301,0.09219 2.794077,0.25791 2.798775,3.831368 7.506117,2.105219 3.181046,-1.165474 0.704355,-5.706204 3.716725,-6.896434 0.373024,-0.147378 2.529393,-0.0383 3.510762,-1.438239 0.340582,0.57815 0.738411,1.184843 1.208914,1.817604 0.586324,0.78771 1.061961,1.56013 1.437773,2.3142 0.02938,0.165726 0.04404,0.3332 0.04404,0.500529"
       style="fill:#9e6f43;fill-opacity:1;fill-rule:nonzero;stroke:none;stroke-width:0.0146215"
       id="path4534" />
    <path
       d="m 74.669268,74.901127 c -0.981369,1.399938 -3.137738,1.290861 -3.510761,1.438238 -3.012371,1.190231 -0.535679,5.730961 -3.716725,6.896435 -4.707343,1.726149 -4.712041,-1.847309 -7.506117,-2.10522 -1.071212,-0.0999 -5.371474,2.142211 -7.300301,-0.09218 -0.405467,-2.33255 0.103788,-4.629857 1.187332,-6.69503 0.585151,0.690284 1.863794,1.216007 4.128503,1.538431 1.747675,0.247279 4.555551,1.219357 6.300142,-0.358831 0.701272,-0.636401 1.046549,-1.585907 1.743123,-2.223765 1.544794,-1.422801 4.742869,-1.031057 5.442673,-3.21987 0.210513,-0.662615 0.286263,-1.234939 0.233708,-1.735905 1.010729,1.50581 1.320334,3.704817 2.998423,6.557701"
       style="fill:#bf9460;fill-opacity:1;fill-rule:nonzero;stroke:none;stroke-width:0.0146215"
       id="path4536" />
    <path
       d="m 71.437137,70.079331 c -0.699804,2.188813 -3.897879,1.797069 -5.442673,3.21987 -0.696574,0.637858 -1.041851,1.587364 -1.743123,2.223765 -1.744591,1.578188 -4.552467,0.60611 -6.300142,0.358831 -2.264709,-0.322424 -3.543352,-0.848147 -4.128503,-1.538431 2.707316,-5.156745 9.015385,-8.879037 13.708782,-8.172734 2.289519,0.343686 3.400955,1.073291 4.139367,2.172794 0.05255,0.500966 -0.0232,1.07329 -0.233708,1.735905"
       style="fill:#d3ae7e;fill-opacity:1;fill-rule:nonzero;stroke:none;stroke-width:0.0146215"
       id="path4538" />
    <path
       d="m 65.77573,66.330825 c -0.722705,0.12961 -1.423096,0.458733 -1.912239,1.001932 -0.197302,0.219901 -0.361573,0.479121 -0.40943,0.768924 -0.04962,0.30291 0.02818,0.623295 -0.07546,0.910185 -0.235764,0.655333 -1.253246,0.7864 -1.440565,1.457752 -0.08309,0.297085 0.03362,0.61747 0.213596,0.867953 0.179979,0.251939 0.419706,0.454364 0.626403,0.684459 0.357315,0.397569 0.624054,0.932029 0.512485,1.453384 -0.07516,0.350967 -0.311367,0.649508 -0.409871,0.99465 -0.03362,0.11796 -0.04683,0.256308 0.02965,0.350967 0.07898,0.09903 0.230625,0.115047 0.349535,0.0699 0.118762,-0.04369 0.211981,-0.136892 0.298741,-0.228638 0.282887,-0.301453 0.539496,-0.627664 0.765865,-0.972806 0.187465,-0.28689 0.35526,-0.586888 0.576637,-0.849021 0.673819,-0.793681 1.745031,-1.121348 2.764422,-1.357268 0.34381,-0.0801 0.688941,-0.154367 1.035246,-0.222813 0.402383,-0.0801 0.814602,-0.154367 1.173092,-0.35388 0.702446,-0.388831 1.087067,-1.234939 1.006619,-2.02862 -0.08045,-0.793682 -0.556085,-1.556781 -1.253393,-1.95435 -1.453043,-0.830088 -3.128784,-0.722322 -3.851342,-0.592712"
       style="fill:#dbba8e;fill-opacity:1;fill-rule:nonzero;stroke:none;stroke-width:0.0146215"
       id="path4540" />
    <path
       d="m 59.306326,83.632058 c 0.197742,0.417956 0.02481,0.973972 -1.216252,1.40591 -0.855854,0.296648 -1.62348,-0.408928 -1.721397,-1.062953 0.223139,0.569705 0.903858,1.08072 1.651813,0.819169 1.011463,-0.353153 1.313581,-0.787564 1.285836,-1.162126"
       style="fill:#824a29;fill-opacity:1;fill-rule:nonzero;stroke:none;stroke-width:0.0146215"
       id="path4542" />
    <path
       d="m 56.462924,83.443033 c 0.236938,-0.371647 0.865396,-0.608004 2.064325,-0.411986 0.269235,0.04558 0.629046,0.280482 0.778637,0.59839 v 0.0029 c 0.0013,0.01267 10e-4,0.02477 0.0015,0.0386 0.0041,0.36553 -0.310045,0.782322 -1.286423,1.122802 -0.748982,0.261406 -1.429848,-0.249027 -1.651812,-0.818876 -0.0251,-0.146794 -0.0138,-0.292421 0.03934,-0.421597 0.01394,-0.03814 0.03259,-0.07485 0.05446,-0.110385"
       style="fill:#986339;fill-opacity:1;fill-rule:nonzero;stroke:none;stroke-width:0.0146215"
       id="path4544" />
    <path
       d="m 56.514745,83.189928 c 0.235323,-0.372085 0.865396,-0.60786 2.06271,-0.412424 0.269235,0.04558 0.629193,0.280482 0.778637,0.598394 v 0.0029 c 0.0068,0.09524 -0.0075,0.19267 -0.04874,0.292136 -4.57e-4,-0.01383 -1.46e-4,-0.02592 -0.0015,-0.0386 v -0.0029 c -0.149591,-0.317908 -0.509402,-0.552808 -0.778636,-0.59839 -1.19893,-0.196018 -1.827388,0.04033 -2.064326,0.411986 -0.02187,0.03554 -0.04052,0.07223 -0.05446,0.110385 0.003,-0.130047 0.03729,-0.254558 0.106284,-0.36349"
       style="fill:#af885a;fill-opacity:1;fill-rule:nonzero;stroke:none;stroke-width:0.0146215"
       id="path4546" />
    <path
       d="m 56.462924,83.443033 c 0.236938,-0.371647 0.865396,-0.608004 2.064325,-0.411986 0.269235,0.04558 0.629046,0.280482 0.778637,0.59839 v 0.0029 c 0.0013,0.01267 10e-4,0.02477 0.0015,0.0386 -0.120084,0.2965 -0.479894,0.605673 -1.236217,0.869263 -0.747367,0.261985 -1.428234,-0.248444 -1.651665,-0.818875 -0.0094,-0.05621 -0.01468,-0.112866 -0.01101,-0.168059 0.01394,-0.03814 0.03259,-0.07485 0.05446,-0.110385"
       style="fill:#a97c4f;fill-opacity:1;fill-rule:nonzero;stroke:none;stroke-width:0.0146215"
       id="path4548" />
    <path
       d="m 71.620786,72.107951 c -0.321349,-0.289803 0.0828,-0.763099 0.510723,-0.585431 0.101293,0.04951 0.170143,0.112135 0.2111,0.179125 -0.03626,-0.0335 -0.08045,-0.06262 -0.135498,-0.09029 -0.386529,-0.16165 -0.752358,0.209706 -0.586325,0.496596"
       style="fill:#9b6439;fill-opacity:1;fill-rule:nonzero;stroke:none;stroke-width:0.0146215"
       id="path4550" />
    <path
       d="m 71.860072,72.237562 c -0.06136,-0.01602 -0.122726,-0.04369 -0.185557,-0.08738 l -0.01997,-0.01456 -0.03421,-0.02767 c -0.165445,-0.28689 0.199797,-0.658246 0.586473,-0.496597 0.05564,0.02621 0.09982,0.05679 0.135498,0.09029 l 0.0185,0.03641 c 0.124191,0.267959 -0.155463,0.586887 -0.500741,0.499509"
       style="fill:#b78551;fill-opacity:1;fill-rule:nonzero;stroke:none;stroke-width:0.0146215"
       id="path4552" />
    <path
       d="m 71.911453,72.300183 c -0.06136,-0.01602 -0.124194,-0.04223 -0.187025,-0.08592 -0.01997,-0.01311 -0.03699,-0.02767 -0.0527,-0.04369 l -0.01717,-0.03495 0.01997,0.01456 c 0.06283,0.04369 0.124194,0.07136 0.185558,0.08738 0.345277,0.08738 0.624934,-0.231551 0.50074,-0.499509 l 0.03288,0.02621 c 0.165445,0.27524 -0.122725,0.627664 -0.482242,0.535917"
       style="fill:#caa77a;fill-opacity:1;fill-rule:nonzero;stroke:none;stroke-width:0.0146215"
       id="path4554" />
    <path
       d="m 71.860072,72.237562 c -0.06136,-0.01602 -0.122726,-0.04369 -0.185557,-0.08738 l -0.01997,-0.01456 c -0.119791,-0.279609 0.23268,-0.616013 0.603501,-0.460189 0.03861,0.01893 0.07281,0.03932 0.102762,0.06262 0.124194,0.267959 -0.155463,0.586888 -0.500741,0.49951"
       style="fill:#c59a69;fill-opacity:1;fill-rule:nonzero;stroke:none;stroke-width:0.0146215"
       id="path4556" />
    <path
       d="m 59.711645,88.588128 c -0.01086,0.03744 -0.0053,0.08301 0.02084,0.13616 0.0087,0.01775 0.01894,0.03567 0.03068,0.05388 0.173813,0.271744 1.00016,0.693489 1.211261,0.512762 -0.08441,0.339316 -1.064899,-0.14097 -1.254567,-0.439071 -0.01174,-0.01821 -0.02202,-0.03612 -0.03068,-0.05388 -0.04477,-0.09102 -0.03068,-0.161648 0.02246,-0.209851"
       style="fill:#69381f;fill-opacity:1;fill-rule:nonzero;stroke:none;stroke-width:0.0146215"
       id="path4558" />
    <path
       d="m 60.964598,89.141229 c 0.01013,0.04209 0.01541,0.08009 0.01497,0.11126 -7.49e-4,0.0147 -0.0023,0.02667 -0.0053,0.03872 -0.211541,0.180142 -1.03686,-0.2416 -1.211701,-0.513199 -0.01174,-0.01849 -0.0207,-0.03554 -0.03098,-0.05403 -0.0251,-0.05301 -0.03156,-0.0983 -0.02055,-0.136021 0.02114,-0.01924 0.04756,-0.03583 0.08045,-0.04849 0.298741,-0.11971 1.031429,0.06903 1.173092,0.601742"
       style="fill:#7a492a;fill-opacity:1;fill-rule:nonzero;stroke:none;stroke-width:0.0146215"
       id="path4560" />
    <path
       d="m 61.04989,89.067245 c 0.01585,0.06102 0.0185,0.109514 0.0087,0.14869 -0.02084,0.01763 -0.04771,0.02985 -0.07898,0.03653 4.57e-4,-0.03117 -0.0048,-0.06917 -0.01497,-0.11126 -0.141663,-0.532717 -0.874351,-0.721453 -1.173092,-0.601742 l 0.005,-0.02547 c 0.216092,-0.204026 1.096315,-0.03583 1.253393,0.553246"
       style="fill:#936b46;fill-opacity:1;fill-rule:nonzero;stroke:none;stroke-width:0.0146215"
       id="path4562" />
    <path
       d="m 60.964598,89.141229 c 0.01013,0.04209 0.01541,0.08009 0.01497,0.11126 -0.286116,0.06408 -0.973735,-0.303637 -1.131547,-0.548441 -0.01174,-0.01837 -0.02187,-0.03686 -0.02951,-0.05403 -0.0207,-0.04151 -0.02892,-0.07937 -0.02701,-0.110534 0.298741,-0.11971 1.031428,0.06903 1.173092,0.601743"
       style="fill:#8f633f;fill-opacity:1;fill-rule:nonzero;stroke:none;stroke-width:0.0146215"
       id="path4564" />
    <path
       d="m 54.822268,78.899534 c -0.09337,-0.05767 -0.227836,-0.09539 -0.414421,-0.105436 -0.30843,-0.04296 -0.662222,0.19194 -0.560489,0.754216 0.02011,0.110824 0.05212,0.197473 0.09249,0.264026 -0.103055,-0.05913 -0.184824,-0.183639 -0.223433,-0.397423 -0.10188,-0.562276 0.252059,-0.797176 0.560489,-0.75407 0.305935,0.01602 0.473729,0.109513 0.545368,0.238687"
       style="fill:#9b6439;fill-opacity:1;fill-rule:nonzero;stroke:none;stroke-width:0.0146215"
       id="path4566" />
    <path
       d="m 54.289231,79.818456 c -0.09894,0.03947 -0.200384,0.04908 -0.289786,0.01908 -0.02055,-0.006 -0.03978,-0.01427 -0.05916,-0.02505 -0.04096,-0.06713 -0.07237,-0.153348 -0.09293,-0.264755 -0.10144,-0.561693 0.252353,-0.796448 0.560196,-0.753342 0.187172,0.0096 0.321202,0.04791 0.414127,0.105436 0.01336,0.02389 0.0229,0.04908 0.03024,0.07544 0.07957,0.29825 -0.240314,0.715042 -0.56269,0.843195"
       style="fill:#b78551;fill-opacity:1;fill-rule:nonzero;stroke:none;stroke-width:0.0146215"
       id="path4568" />
    <path
       d="m 54.390671,79.931028 c -0.121992,0.04791 -0.246333,0.05272 -0.348947,-0.006 -0.01571,-0.02636 -0.0301,-0.05519 -0.04228,-0.08752 0.0894,0.03 0.190842,0.02039 0.289786,-0.01908 0.322377,-0.128154 0.642258,-0.544946 0.562691,-0.843196 0.02657,0.01078 0.05065,0.02389 0.07237,0.03714 0.164271,0.298249 -0.181007,0.779701 -0.533625,0.918631"
       style="fill:#caa77a;fill-opacity:1;fill-rule:nonzero;stroke:none;stroke-width:0.0146215"
       id="path4570" />
    <path
       d="m 54.289231,79.818456 c -0.09894,0.03947 -0.200384,0.04908 -0.289786,0.01908 -0.02055,-0.05024 -0.03744,-0.10893 -0.04947,-0.176066 -0.102615,-0.562858 0.251177,-0.797613 0.560195,-0.754507 0.142545,0.0071 0.254701,0.03117 0.341754,0.0683 0.07957,0.29825 -0.240314,0.715042 -0.562691,0.843196"
       style="fill:#c59a69;fill-opacity:1;fill-rule:nonzero;stroke:none;stroke-width:0.0146215"
       id="path4572" />
    <path
       d="m 68.384102,67.757995 c -0.813281,-1.047077 -4.014439,-0.200969 -3.931203,1.042708 -0.597483,-0.81407 0.334562,-1.786875 1.441446,-2.079591 1.106885,-0.294172 2.388464,0.09029 2.489757,1.036883"
       style="fill:#b38050;fill-opacity:1;fill-rule:nonzero;stroke:none;stroke-width:0.0146215"
       id="path4574" />
    <path
       d="m 68.383368,67.757995 0.0022,0.02185 c 0.01424,0.167474 -0.0022,0.356792 -0.07105,0.575237 -0.311513,1.038339 -2.050379,1.645614 -3.001213,1.131542 -0.314597,-0.171843 -0.548011,-0.340773 -0.712429,-0.51116 l -0.0038,-0.0044 c -0.05725,-0.05679 -0.103935,-0.11359 -0.143865,-0.170386 -0.16251,-1.706779 3.323296,-2.233958 3.930175,-1.042708"
       style="fill:#d2a877;fill-opacity:1;fill-rule:nonzero;stroke:none;stroke-width:0.0146215"
       id="path4576" />
    <path
       d="m 68.523123,67.9211 c 0.01806,0.171843 -0.06078,0.543199 -0.130507,0.770381 -0.311513,1.038339 -1.628764,1.465034 -2.739172,1.054358 -0.444663,-0.164561 -0.889765,-0.546111 -1.052568,-0.77038 0.164417,0.170386 0.397832,0.339317 0.712428,0.51116 0.950835,0.514072 2.689701,-0.0932 3.001214,-1.131543 0.06885,-0.218444 0.08529,-0.407763 0.07105,-0.575236 0.05226,0.04223 0.09821,0.08883 0.137553,0.14126"
       style="fill:#e4c9a3;fill-opacity:1;fill-rule:nonzero;stroke:none;stroke-width:0.0146215"
       id="path4578" />
    <path
       d="m 68.38557,67.77984 c 0.01424,0.167473 -0.0022,0.356792 -0.07105,0.575236 -0.311513,1.03834 -2.050379,1.645615 -3.001214,1.131543 -0.314596,-0.171843 -0.548011,-0.340774 -0.712428,-0.51116 l -0.0038,-0.0044 -0.0041,-0.0073 c -0.07971,-1.181056 2.809198,-2.005319 3.792622,-1.183968"
       style="fill:#dbb88d;fill-opacity:1;fill-rule:nonzero;stroke:none;stroke-width:0.0146215"
       id="path4580" />
    <path
       d="m 59.967668,77.691682 c -0.192017,-0.175193 -0.538469,-0.235192 -1.082223,-0.04427 -0.625375,0.217862 -0.83721,0.739216 -0.646955,1.103145 -0.371408,-0.350676 -0.204788,-1.016641 0.522027,-1.269308 0.693051,-0.240435 1.064166,-0.0782 1.207151,0.210435"
       style="fill:#9b6439;fill-opacity:1;fill-rule:nonzero;stroke:none;stroke-width:0.0146215"
       id="path4582" />
    <path
       d="m 60.037398,78.090125 c -0.02775,0.349802 -0.248682,0.710235 -0.566214,0.798924 -0.598804,0.170095 -1.011757,0.07063 -1.232694,-0.138931 -0.02422,-0.04558 -0.04228,-0.09466 -0.05314,-0.145047 -0.07722,-0.346016 0.154583,-0.767614 0.700244,-0.958097 0.543313,-0.190484 0.889765,-0.130485 1.081782,0.04427 l 0.0025,0.0036 c 0.05784,0.117377 0.07839,0.256308 0.06753,0.395238"
       style="fill:#b78551;fill-opacity:1;fill-rule:nonzero;stroke:none;stroke-width:0.0146215"
       id="path4584" />
    <path
       d="m 59.480873,79.10225 c -0.598804,0.168785 -1.010583,0.07063 -1.232693,-0.138931 -0.05681,-0.109076 -0.07737,-0.232424 -0.06283,-0.358248 0.01087,0.05039 0.02892,0.09947 0.05314,0.145047 0.220937,0.209561 0.63389,0.309026 1.232694,0.138931 0.317532,-0.08869 0.538469,-0.449122 0.566214,-0.798924 0.07003,0.400044 -0.172638,0.903049 -0.556525,1.012125"
       style="fill:#caa77a;fill-opacity:1;fill-rule:nonzero;stroke:none;stroke-width:0.0146215"
       id="path4586" />
    <path
       d="m 60.037398,78.090125 c -0.02775,0.349802 -0.248682,0.710235 -0.566214,0.798924 -0.598804,0.170095 -1.011757,0.07063 -1.232694,-0.138931 -0.02422,-0.04558 -0.04228,-0.09466 -0.05314,-0.145047 0.03626,-0.290968 0.27173,-0.592859 0.709933,-0.744896 0.544488,-0.190483 0.891086,-0.130484 1.082956,0.04427 l 0.0025,0.0036 c 0.02774,0.05636 0.0458,0.118543 0.05667,0.182038"
       style="fill:#c59a69;fill-opacity:1;fill-rule:nonzero;stroke:none;stroke-width:0.0146215"
       id="path4588" />
    <path
       d="m 70.402625,75.154523 c -0.465655,-0.259221 -0.361866,-1.156299 0.448626,-1.259696 0.266739,-0.05243 0.48885,0.0233 0.633156,0.160192 -0.1377,-0.08155 -0.317239,-0.116503 -0.523202,-0.07718 -0.738999,0.09466 -0.890499,0.84902 -0.55858,1.176687"
       style="fill:#9b6439;fill-opacity:1;fill-rule:nonzero;stroke:none;stroke-width:0.0146215"
       id="path4590" />
    <path
       d="m 71.333201,75.007437 c -0.194366,0.11796 -0.364949,0.18495 -0.514687,0.20825 -0.146802,0.02185 -0.269675,0.0058 -0.369353,-0.03932 -0.0163,-0.0058 -0.032,-0.01311 -0.0458,-0.02185 -0.332065,-0.327666 -0.181447,-1.082028 0.557406,-1.176687 0.20699,-0.03932 0.385795,-0.0044 0.523789,0.07718 0.01894,0.01747 0.03641,0.03495 0.05153,0.05534 0.208899,0.253395 0.189815,0.655333 -0.20288,0.897078"
       style="fill:#b78551;fill-opacity:1;fill-rule:nonzero;stroke:none;stroke-width:0.0146215"
       id="path4592" />
    <path
       d="m 71.428035,75.086077 c -0.193338,0.11796 -0.365389,0.18495 -0.513659,0.20825 -0.169116,0.02621 -0.309311,0 -0.416623,-0.06116 -0.01747,-0.01747 -0.03362,-0.03641 -0.04859,-0.0568 0.09968,0.04515 0.222551,0.06117 0.369353,0.03932 0.149738,-0.0233 0.320321,-0.09029 0.514687,-0.20825 0.392695,-0.241745 0.411779,-0.643683 0.20288,-0.897078 0.01527,0.0073 0.02907,0.01602 0.04287,0.0233 0.261747,0.246115 0.272611,0.691741 -0.150912,0.952418"
       style="fill:#caa77a;fill-opacity:1;fill-rule:nonzero;stroke:none;stroke-width:0.0146215"
       id="path4594" />
    <path
       d="m 71.333201,75.007437 c -0.194366,0.11796 -0.364949,0.18495 -0.514687,0.20825 -0.146802,0.02185 -0.269675,0.0058 -0.369353,-0.03932 -0.265711,-0.349511 -0.09204,-1.031057 0.607466,-1.119891 0.184676,-0.03641 0.348801,-0.01019 0.479454,0.05388 0.208899,0.253395 0.189815,0.655333 -0.20288,0.897078"
       style="fill:#c59a69;fill-opacity:1;fill-rule:nonzero;stroke:none;stroke-width:0.0146215"
       id="path4596" />
    <path
       d="m 57.42565,73.439006 c -0.630514,-0.48349 -0.306522,-2.464053 1.137566,-2.651915 0.486647,-0.09466 1.230932,0.359705 1.390505,0.617469 -0.183061,-0.152911 -0.591757,-0.345142 -0.967129,-0.272327 -1.316664,0.171843 -1.920607,1.695128 -1.560942,2.306773"
       style="fill:#ad7748;fill-opacity:1;fill-rule:nonzero;stroke:none;stroke-width:0.0146215"
       id="path4598" />
    <path
       d="m 59.099629,73.172504 c -0.402236,0.216988 -0.735183,0.339317 -1.004123,0.38155 -0.150766,0.0233 -0.280832,0.02476 -0.391814,0.0044 h -0.0017 c -0.112743,-0.02039 -0.204788,-0.05971 -0.275987,-0.11796 -0.360545,-0.613101 0.222992,-2.196094 1.540097,-2.367937 0.515861,-0.07282 0.935273,0.28689 0.987828,0.330579 0.290081,0.458733 0.02951,1.288822 -0.854239,1.7694"
       style="fill:#cb9e69;fill-opacity:1;fill-rule:nonzero;stroke:none;stroke-width:0.0146215"
       id="path4600" />
    <path
       d="m 59.388682,73.347259 c -0.402384,0.218445 -1.21361,0.423783 -1.68499,0.211163 0.110982,0.02039 0.241048,0.01893 0.391814,-0.0044 0.26894,-0.04223 0.601887,-0.164562 1.004123,-0.38155 0.883746,-0.480578 1.144319,-1.310666 0.854239,-1.769399 -0.05255,-0.04369 -0.113771,-0.08155 -0.183796,-0.10631 0.138435,0.02621 0.254261,0.08155 0.34425,0.158736 0.291695,0.455821 0.156198,1.412607 -0.72564,1.891729"
       style="fill:#dcbe93;fill-opacity:1;fill-rule:nonzero;stroke:none;stroke-width:0.0146215"
       id="path4602" />
    <path
       d="m 59.099629,73.172504 c -0.402236,0.216988 -0.735183,0.339317 -1.004123,0.38155 -0.150766,0.0233 -0.280832,0.02476 -0.391814,0.0044 h -0.0017 c -0.04257,-0.01893 -0.08177,-0.04078 -0.115679,-0.06845 -0.358783,-0.611644 0.370674,-2.012601 1.687632,-2.182988 0.186878,-0.03641 0.494575,-0.01165 0.49619,-0.01019 0.09968,0 0.13124,0.06262 0.183795,0.10631 0.290081,0.458733 0.02951,1.288822 -0.854239,1.769399"
       style="fill:#d4ae82;fill-opacity:1;fill-rule:nonzero;stroke:none;stroke-width:0.0146215"
       id="path4604" />
    <path
       d="m 64.842511,86.426837 c 0.137994,0.121456 0.382859,0.154514 0.557553,0.02638 0.19187,-0.14097 0.205082,-0.349946 0.121992,-0.50344 0.156051,0.14665 0.192017,0.426984 -0.04595,0.601449 -0.215798,0.158155 -0.536119,0.07019 -0.633596,-0.124367"
       style="fill:#824a29;fill-opacity:1;fill-rule:nonzero;stroke:none;stroke-width:0.0146215"
       id="path4606" />
    <path
       d="m 64.908425,86.067132 c 0.02775,-0.03509 0.05652,-0.06655 0.085,-0.09204 0.168969,-0.148103 0.341755,-0.147665 0.466242,-0.0731 0.02246,0.01399 0.04375,0.02898 0.06254,0.04747 0.08324,0.153643 0.06944,0.362912 -0.122139,0.503151 -0.174401,0.128739 -0.419853,0.09612 -0.557259,-0.02563 l -0.01586,-0.03641 c -0.03083,-0.0932 -0.01409,-0.205339 0.08147,-0.323443"
       style="fill:#986339;fill-opacity:1;fill-rule:nonzero;stroke:none;stroke-width:0.0146215"
       id="path4608" />
    <path
       d="m 64.830033,85.984413 c 0.02775,-0.03509 0.05652,-0.06655 0.085,-0.09087 0.200091,-0.174758 0.403264,-0.143302 0.52878,-0.02547 l 0.01585,0.03393 c -0.124487,-0.07456 -0.297273,-0.075 -0.466242,0.0731 -0.02848,0.02547 -0.05725,0.05694 -0.085,0.09204 -0.09557,0.118105 -0.112303,0.23024 -0.08147,0.323444 -0.02246,-0.01399 -0.04375,-0.02898 -0.06254,-0.04514 -0.05006,-0.09859 -0.04243,-0.225434 0.06562,-0.361017"
       style="fill:#af885a;fill-opacity:1;fill-rule:nonzero;stroke:none;stroke-width:0.0146215"
       id="path4610" />
    <path
       d="m 64.908425,86.067132 c 0.02775,-0.03509 0.05652,-0.06655 0.085,-0.09204 0.168969,-0.148103 0.341755,-0.147665 0.466242,-0.0731 0.06415,0.148252 0.03993,0.339172 -0.137993,0.469074 -0.150912,0.111549 -0.353499,0.101794 -0.494722,0.01953 -0.03083,-0.0932 -0.01409,-0.205339 0.08147,-0.323444"
       style="fill:#a97c4f;fill-opacity:1;fill-rule:nonzero;stroke:none;stroke-width:0.0146215"
       id="path4612" />
    <path
       d="m 64.751788,71.290969 c -0.18776,-0.117959 -0.538909,-0.109222 -0.804033,0.07864 -0.291254,0.206794 -0.330744,0.46019 -0.225341,0.627664 -0.211541,-0.14563 -0.23635,-0.474753 0.124929,-0.729604 0.327367,-0.233008 0.782159,-0.190775 0.904445,0.0233"
       style="fill:#ac7340;fill-opacity:1;fill-rule:nonzero;stroke:none;stroke-width:0.0146215"
       id="path4614" />
    <path
       d="m 64.751201,71.290969 0.01189,0.02476 c 0.04595,0.106309 0.01454,0.250483 -0.14093,0.419413 -0.04492,0.04806 -0.0894,0.09175 -0.132562,0.126698 -0.282153,0.228638 -0.550506,0.249026 -0.723439,0.160192 -0.01571,-0.0073 -0.02965,-0.01602 -0.0436,-0.02621 -0.105403,-0.167474 -0.06606,-0.419414 0.225487,-0.626207 0.265124,-0.187863 0.61554,-0.1966 0.803153,-0.07864"
       style="fill:#d2a877;fill-opacity:1;fill-rule:nonzero;stroke:none;stroke-width:0.0146215"
       id="path4616" />
    <path
       d="m 64.809187,71.340483 c 0.06254,0.107766 0.03846,0.260677 -0.129332,0.444171 -0.04463,0.04806 -0.08955,0.09029 -0.132709,0.125241 -0.307109,0.249027 -0.597776,0.251939 -0.767626,0.136892 l -0.01336,-0.02476 c 0.172932,0.08883 0.441286,0.06845 0.723439,-0.160193 0.04316,-0.03495 0.08764,-0.07864 0.132562,-0.126698 0.155463,-0.16893 0.186878,-0.313103 0.140929,-0.419413 0.016,0.0073 0.03215,0.01602 0.0461,0.02476"
       style="fill:#e4c9a3;fill-opacity:1;fill-rule:nonzero;stroke:none;stroke-width:0.0146215"
       id="path4618" />
    <path
       d="m 64.763092,71.315726 c 0.04595,0.10631 0.01453,0.250483 -0.14093,0.419414 -0.04492,0.04806 -0.0894,0.09175 -0.132562,0.126698 -0.282153,0.228638 -0.550506,0.249026 -0.723439,0.160192 -0.08676,-0.167474 -0.03773,-0.406307 0.238847,-0.602907 0.244865,-0.173299 0.562544,-0.195143 0.758084,-0.103397"
       style="fill:#dbb88d;fill-opacity:1;fill-rule:nonzero;stroke:none;stroke-width:0.0146215"
       id="path4620" />
    <path
       d="m 70.632663,82.438188 c 0.235911,0.203882 0.702887,0.165726 0.919273,-0.146795 0.166913,-0.240287 0.137259,-0.48713 0.01027,-0.66247 0.189227,0.171988 0.269528,0.46689 0.07076,0.75349 -0.244865,0.35315 -0.807996,0.355189 -1.000306,0.05577"
       style="fill:#824a29;fill-opacity:1;fill-rule:nonzero;stroke:none;stroke-width:0.0146215"
       id="path4622" />
    <path
       d="m 70.632517,82.43775 c -0.01057,-0.01602 -0.02011,-0.03278 -0.0276,-0.05068 -0.04844,-0.10456 -0.05505,-0.241745 0.004,-0.408635 0.02217,-0.06291 0.04712,-0.119124 0.07575,-0.167621 0.208458,-0.364947 0.537001,-0.395821 0.773938,-0.258781 l 7.49e-4,8.25e-4 c 0.03729,0.02155 0.07105,0.04689 0.103349,0.07616 0.12669,0.175336 0.156197,0.422179 -0.01072,0.661595 -0.216533,0.312958 -0.682775,0.351403 -0.919419,0.146939"
       style="fill:#986339;fill-opacity:1;fill-rule:nonzero;stroke:none;stroke-width:0.0146215"
       id="path4624" />
    <path
       d="m 70.503918,82.32081 c -0.07223,-0.111991 -0.09278,-0.266063 -0.02378,-0.459315 0.02217,-0.06291 0.04654,-0.120144 0.07516,-0.168641 0.241489,-0.422034 0.643432,-0.395966 0.877874,-0.181598 0.0097,0.01238 0.01894,0.02638 0.0254,0.04078 -0.236938,-0.13704 -0.565481,-0.106166 -0.773939,0.258781 -0.02862,0.0485 -0.05358,0.104709 -0.07575,0.167621 -0.05901,0.16689 -0.05241,0.304075 -0.004,0.408635 -0.03626,-0.01804 -0.0709,-0.04004 -0.100999,-0.06626"
       style="fill:#af885a;fill-opacity:1;fill-rule:nonzero;stroke:none;stroke-width:0.0146215"
       id="path4626" />
    <path
       d="m 70.604918,82.38707 c -0.04845,-0.10456 -0.05505,-0.241745 0.004,-0.408635 0.02217,-0.06291 0.04712,-0.119124 0.07575,-0.167621 0.208458,-0.364947 0.537,-0.395821 0.773938,-0.258781 l 7.49e-4,8.25e-4 c 0.103936,0.171551 0.117735,0.398443 -0.03597,0.620819 -0.188787,0.272181 -0.567829,0.335675 -0.81842,0.213199"
       style="fill:#a97c4f;fill-opacity:1;fill-rule:nonzero;stroke:none;stroke-width:0.0146215"
       id="path4628" />
    <path
       d="m 76.044947,84.762146 c 0.305057,-0.06364 0.541406,-0.649071 0.495898,-1.01169 -0.03229,-0.268103 -0.123316,-0.392325 -0.234885,-0.418249 0.157077,-0.0329 0.293606,0.07369 0.336176,0.417956 0.04991,0.402083 -0.246624,1.075914 -0.597189,1.011983"
       style="fill:#69381f;fill-opacity:1;fill-rule:nonzero;stroke:none;stroke-width:0.0146215"
       id="path4630" />
    <path
       d="m 76.30596,83.331769 0.0088,0.0037 c 0.107167,0.03071 0.195245,0.154659 0.226076,0.415628 0.04551,0.3616 -0.190842,0.947032 -0.496045,1.011108 l -0.02921,-0.0069 c -0.0709,-0.0246 -0.128601,-0.05796 -0.175137,-0.09757 -0.409427,-0.352134 0.08764,-1.246735 0.465509,-1.325961"
       style="fill:#7a492a;fill-opacity:1;fill-rule:nonzero;stroke:none;stroke-width:0.0146215"
       id="path4632" />
    <path
       d="m 76.20452,83.264783 c 0.04007,0.0092 0.07942,0.03232 0.11025,0.07063 l -0.0088,-0.0037 c -0.377868,0.07923 -0.874936,0.973827 -0.465509,1.325961 -0.58339,-0.287765 -0.04024,-1.307612 0.364069,-1.392948"
       style="fill:#936b46;fill-opacity:1;fill-rule:nonzero;stroke:none;stroke-width:0.0146215"
       id="path4634" />
    <path
       d="m 76.30596,83.331769 0.0088,0.0037 c 0.05872,0.06481 0.104229,0.176505 0.124781,0.348638 0.04551,0.362912 -0.190987,0.946883 -0.49619,1.012565 l -0.02979,-0.0083 c -0.02626,-0.008 -0.05021,-0.01866 -0.07311,-0.03059 -0.409427,-0.352133 0.08764,-1.246734 0.465509,-1.325961"
       style="fill:#8f633f;fill-opacity:1;fill-rule:nonzero;stroke:none;stroke-width:0.0146215"
       id="path4636" />
    <path
       d="m 67.506815,78.311918 c -1.646675,-0.849457 -5.063484,0.920234 -3.416663,2.555216 -1.295084,-0.85732 -0.672498,-2.185025 0.498539,-2.777009 0.942614,-0.476501 2.28717,-0.404123 2.918124,0.221793"
       style="fill:#9b6439;fill-opacity:1;fill-rule:nonzero;stroke:none;stroke-width:0.0146215"
       id="path4638" />
    <path
       d="m 67.750065,78.774583 c 0.07942,0.403831 -0.126543,0.84873 -0.483711,1.205231 -0.02408,0.02388 -0.0461,0.04646 -0.07296,0.06917 -0.400768,0.365675 -0.945109,0.628684 -1.510883,0.81072 -0.426605,0.136747 -0.902536,0.23199 -1.301103,0.125386 -0.06562,-0.01573 -0.12669,-0.03814 -0.183795,-0.06408 -0.03729,-0.01602 -0.07252,-0.03439 -0.106872,-0.05374 -0.320762,-0.317767 -0.492961,-0.731208 -0.406201,-1.160961 0.0803,-0.415627 0.433799,-0.829798 0.918245,-1.056834 0.07179,-0.04777 0.150472,-0.09262 0.226221,-0.134125 0.603649,-0.32155 1.347493,-0.495578 2.01133,-0.409656 0.240168,0.03466 0.470059,0.104562 0.666333,0.206065 l 0.0019,0.0023 c 0.04199,0.04689 0.08103,0.09641 0.114359,0.148106 l 1.47e-4,8.66e-4 c 0.06122,0.09626 0.105697,0.200241 0.126983,0.311502"
       style="fill:#b78551;fill-opacity:1;fill-rule:nonzero;stroke:none;stroke-width:0.0146215"
       id="path4640" />
    <path
       d="m 67.997279,78.985746 c 0.07971,0.404851 -0.125368,0.848584 -0.483711,1.205377 -0.02422,0.02388 -0.04595,0.04718 -0.07296,0.06918 -0.400621,0.366549 -0.945109,0.628682 -1.511029,0.810718 -0.426459,0.136747 -0.90239,0.23199 -1.300957,0.125387 -0.105257,-0.02576 -0.202146,-0.06816 -0.290814,-0.11796 -0.05035,-0.05039 -0.09762,-0.103396 -0.140195,-0.157425 0.0571,0.02593 0.118175,0.04835 0.183795,0.06408 0.398567,0.106604 0.874498,0.01135 1.301103,-0.125386 0.565774,-0.182036 1.110115,-0.445045 1.510883,-0.81072 0.02687,-0.02272 0.04888,-0.04529 0.07296,-0.06917 0.357168,-0.356501 0.563131,-0.8014 0.483711,-1.205231 -0.02128,-0.11126 -0.06577,-0.21524 -0.126983,-0.311501 0.04536,0.01864 0.08852,0.03874 0.1308,0.06 l 0.0017,0.0023 c 0.12258,0.135144 0.208459,0.288929 0.241636,0.460335"
       style="fill:#caa77a;fill-opacity:1;fill-rule:nonzero;stroke:none;stroke-width:0.0146215"
       id="path4642" />
    <path
       d="m 67.750065,78.774583 c 0.07942,0.403831 -0.126543,0.84873 -0.483711,1.205231 -0.02408,0.02388 -0.0461,0.04646 -0.07296,0.06917 -0.400768,0.365675 -0.945109,0.628684 -1.510883,0.81072 -0.426605,0.136747 -0.902536,0.23199 -1.301103,0.125386 -0.06562,-0.01573 -0.12669,-0.03814 -0.183795,-0.06408 -0.228864,-0.29155 -0.338966,-0.641644 -0.265858,-1.003388 0.0803,-0.415627 0.433798,-0.829797 0.918391,-1.05596 0.07164,-0.04879 0.150325,-0.09349 0.226368,-0.134125 0.603208,-0.322424 1.347052,-0.496451 2.011183,-0.409656 0.188641,0.02651 0.370234,0.07573 0.535239,0.144319 l 1.47e-4,8.67e-4 c 0.06122,0.09626 0.105697,0.200241 0.126983,0.311501"
       style="fill:#c59a69;fill-opacity:1;fill-rule:nonzero;stroke:none;stroke-width:0.0146215"
       id="path4644" />
    <path
       d="m 72.333067,80.328597 c 0.08793,0.05199 0.19143,0.08286 0.308429,0.09044 1.386985,0.290819 2.440578,-1.577316 1.837667,-2.295561 0.925437,0.560965 -0.182769,2.744536 -1.672367,2.430851 -0.19921,-0.01094 -0.356728,-0.09539 -0.473729,-0.225728"
       style="fill:#824a29;fill-opacity:1;fill-rule:nonzero;stroke:none;stroke-width:0.0146215"
       id="path4646" />
    <path
       d="m 73.244557,78.101192 c 0.389465,-0.114319 0.698338,-0.136164 0.935129,-0.09044 0.07736,0.01471 0.146803,0.03437 0.208016,0.06277 0.03125,0.01252 0.06107,0.0284 0.08779,0.045 l 0.0042,0.0044 c 0.602915,0.718245 -0.451414,2.586675 -1.837808,2.295414 -0.116854,-0.007 -0.220645,-0.03728 -0.308724,-0.08913 -0.01879,-0.02171 -0.03655,-0.04398 -0.05329,-0.06699 -0.410898,-0.579461 -0.147095,-1.843235 0.964779,-2.160998"
       style="fill:#986339;fill-opacity:1;fill-rule:nonzero;stroke:none;stroke-width:0.0146215"
       id="path4648" />
    <path
       d="m 73.112436,77.995174 c 0.389615,-0.1133 0.698484,-0.135144 0.934983,-0.09044 0.116704,0.02228 0.214915,0.0584 0.296098,0.108785 l 0.0033,0.0049 c 0.01452,0.01747 0.02834,0.03641 0.04095,0.05505 -0.06121,-0.0284 -0.130652,-0.04806 -0.208015,-0.06277 -0.236791,-0.04573 -0.545664,-0.02389 -0.935129,0.09044 -1.111874,0.317764 -1.375677,1.581538 -0.964779,2.160999 -0.02789,-0.01123 -0.05373,-0.0239 -0.07898,-0.03918 -0.484299,-0.541163 -0.245159,-1.895519 0.911636,-2.227845"
       style="fill:#af885a;fill-opacity:1;fill-rule:nonzero;stroke:none;stroke-width:0.0146215"
       id="path4650" />
    <path
       d="m 73.244557,78.101192 c 0.389465,-0.114319 0.698338,-0.136164 0.935129,-0.09044 0.07736,0.01471 0.146803,0.03437 0.208016,0.06277 0.509843,0.753924 -0.525107,2.52347 -1.877886,2.239784 -0.08426,-0.0045 -0.161041,-0.022 -0.230038,-0.05112 -0.410898,-0.579459 -0.147095,-1.843233 0.964779,-2.160997"
       style="fill:#a97c4f;fill-opacity:1;fill-rule:nonzero;stroke:none;stroke-width:0.0146215"
       id="path4652" />
    <path
       d="m 65.31991,90.860092 c 0.02965,0.0051 0.05916,0.0092 0.09205,0.01251 2.529393,0.265486 3.87395,-0.773875 3.089735,-1.163727 1.400635,0.246843 -0.805795,2.330365 -3.18178,1.151203"
       style="fill:#69381f;fill-opacity:1;fill-rule:nonzero;stroke:none;stroke-width:0.0146215"
       id="path4654" />
    <path
       d="m 66.150514,89.908986 c 0.991646,-0.221793 1.709066,-0.273494 2.18573,-0.223688 0.05652,0.006 0.11157,0.01371 0.162657,0.02258 l 0.0023,8.26e-4 c 0.785536,0.389996 -0.560048,1.429501 -3.089001,1.163727 -0.03274,-0.0037 -0.06327,-0.007 -0.09234,-0.01267 -0.06518,-0.03583 -0.111129,-0.0782 -0.139168,-0.12466 -0.164711,-0.264461 0.239874,-0.663197 0.969772,-0.826302"
       style="fill:#7a492a;fill-opacity:1;fill-rule:nonzero;stroke:none;stroke-width:0.0146215"
       id="path4656" />
    <path
       d="m 65.821238,89.762047 c 1.112463,-0.249027 1.88141,-0.283686 2.348386,-0.201116 l 0.0023,8.26e-4 c 0.07369,0.03596 0.127864,0.07762 0.164271,0.123491 -0.476665,-0.04981 -1.194085,0.0021 -2.18573,0.223689 -0.729899,0.163104 -1.134484,0.56184 -0.969773,0.826301 -0.03259,-0.0029 -0.06518,-0.006 -0.09777,-0.0096 -0.03274,-0.0037 -0.06151,-0.008 -0.09234,-0.01267 -0.434826,-0.242331 -0.02628,-0.759898 0.830604,-0.950962"
       style="fill:#936b46;fill-opacity:1;fill-rule:nonzero;stroke:none;stroke-width:0.0146215"
       id="path4658" />
    <path
       d="m 66.150514,89.908986 c 0.991646,-0.221793 1.709066,-0.273494 2.18573,-0.223688 0.356582,0.440532 -0.922061,1.257075 -3.155502,1.04999 -0.164711,-0.264461 0.239874,-0.663197 0.969772,-0.826302"
       style="fill:#8f633f;fill-opacity:1;fill-rule:nonzero;stroke:none;stroke-width:0.0146215"
       id="path4660" />
    <path
       d="m 73.213585,88.821715 c 0.124048,0.07806 0.412364,0.03538 0.926756,-0.217277 0.566803,-0.27801 0.995023,-0.914994 0.863929,-1.173486 0.272757,0.192525 0.112156,1.115086 -0.512045,1.421782 -0.625082,0.306989 -1.210819,0.121894 -1.27864,-0.031"
       style="fill:#69381f;fill-opacity:1;fill-rule:nonzero;stroke:none;stroke-width:0.0146215"
       id="path4662" />
    <path
       d="m 74.46918,87.458622 0.0298,-0.01094 c 0.09425,-0.03117 0.175428,-0.04908 0.246187,-0.0584 0.11891,-0.01325 0.2042,0.0029 0.25925,0.0418 0.131093,0.25791 -0.214183,0.977175 -0.780691,1.254887 -0.514978,0.253543 -0.886683,0.213786 -1.009699,0.135728 -0.0104,-0.02171 -0.0154,-0.0466 -0.01602,-0.07485 -0.01307,-0.335237 0.612311,-1.05887 1.271158,-1.288238"
       style="fill:#7a492a;fill-opacity:1;fill-rule:nonzero;stroke:none;stroke-width:0.0146215"
       id="path4664" />
    <path
       d="m 74.745166,87.389303 c -0.07076,0.0093 -0.151941,0.02725 -0.246187,0.0584 l -0.0298,0.01094 c -0.658847,0.229368 -1.284221,0.953001 -1.271158,1.288238 -0.178658,0.0089 -0.05828,-0.395384 0.262041,-0.752322 0.358197,-0.398732 0.948192,-0.748682 1.285104,-0.605235"
       style="fill:#936b46;fill-opacity:1;fill-rule:nonzero;stroke:none;stroke-width:0.0146215"
       id="path4666" />
    <path
       d="m 74.46918,87.458622 0.0298,-0.01094 c 0.09425,-0.03117 0.175428,-0.04908 0.246187,-0.0584 0.365388,0.209851 -0.0712,0.744458 -0.59205,1.119164 -0.327957,0.23592 -0.779667,0.339172 -0.955095,0.238393 -0.01307,-0.335237 0.612312,-1.05887 1.271159,-1.288238"
       style="fill:#8f633f;fill-opacity:1;fill-rule:nonzero;stroke:none;stroke-width:0.0146215"
       id="path4668" />
    <path
       d="m 60.748506,84.459235 c 0.548891,-0.180434 0.673526,0.409948 0.278483,0.572177 -0.571059,0.234467 -0.53891,-0.486548 -0.278483,-0.572177"
       style="fill:#b0895b;fill-opacity:1;fill-rule:nonzero;stroke:none;stroke-width:0.0146215"
       id="path4670" />
    <path
       d="m 60.600823,82.562992 c 0.922796,-0.303492 1.132282,0.688973 0.468298,0.961592 -0.960083,0.394219 -0.906061,-0.817712 -0.468298,-0.961592"
       style="fill:#b0895b;fill-opacity:1;fill-rule:nonzero;stroke:none;stroke-width:0.0146215"
       id="path4672" />
    <path
       d="m 59.884871,85.526844 c 0.439525,-0.144606 0.53935,0.328105 0.222992,0.458007 -0.45714,0.187716 -0.43145,-0.389559 -0.222992,-0.458007"
       style="fill:#b0895b;fill-opacity:1;fill-rule:nonzero;stroke:none;stroke-width:0.0146215"
       id="path4674" />
    <path
       d="m 61.848931,83.832737 c 0.305935,-0.100486 0.375519,0.228493 0.155316,0.318927 -0.318413,0.130778 -0.300503,-0.271161 -0.155316,-0.318927"
       style="fill:#b0895b;fill-opacity:1;fill-rule:nonzero;stroke:none;stroke-width:0.0146215"
       id="path4676" />
    <path
       d="m 67.027948,76.252133 c 0.200971,-0.106892 0.294484,0.132814 0.15238,0.22325 -0.205669,0.130776 -0.247654,-0.172571 -0.15238,-0.22325"
       style="fill:#cba87b;fill-opacity:1;fill-rule:nonzero;stroke:none;stroke-width:0.0146215"
       id="path4678" />
    <path
       d="m 66.834463,75.292871 c 0.624054,-0.205338 0.765718,0.466015 0.316651,0.650382 -0.649156,0.266502 -0.61275,-0.55281 -0.316651,-0.650382"
       style="fill:#cba87b;fill-opacity:1;fill-rule:nonzero;stroke:none;stroke-width:0.0146215"
       id="path4680" />
    <path
       d="m 67.801886,75.901894 c 0.478867,-0.157571 0.587648,0.357521 0.243104,0.498927 -0.498098,0.20461 -0.470206,-0.424219 -0.243104,-0.498927"
       style="fill:#cba87b;fill-opacity:1;fill-rule:nonzero;stroke:none;stroke-width:0.0146215"
       id="path4682" />
    <path
       d="m 65.450564,75.709372 c 0.844109,-0.278153 1.035832,0.630284 0.428367,0.879748 -0.878314,0.360724 -0.828989,-0.748682 -0.428367,-0.879748"
       style="fill:#cba87b;fill-opacity:1;fill-rule:nonzero;stroke:none;stroke-width:0.0146215"
       id="path4684" />
    <path
       d="m 62.006156,73.733178 c -0.4131,0.69174 -0.997664,0.267958 -0.725641,-0.259221 0.393282,-0.761643 0.921474,-0.06845 0.725641,0.259221"
       style="fill:#dcbe93;fill-opacity:1;fill-rule:nonzero;stroke:none;stroke-width:0.0146215"
       id="path4686" />
    <path
       d="m 60.500264,73.457938 c 0.19231,-0.345142 0.484152,-0.14563 0.35849,0.116504 -0.181741,0.378637 -0.449801,0.0466 -0.35849,-0.116504"
       style="fill:#dcbe93;fill-opacity:1;fill-rule:nonzero;stroke:none;stroke-width:0.0146215"
       id="path4688" />
    <path
       d="m 60.889582,74.110359 c 0.20978,-0.112135 0.307256,0.138348 0.158839,0.233007 -0.214477,0.136892 -0.258371,-0.180581 -0.158839,-0.233007"
       style="fill:#dcbe93;fill-opacity:1;fill-rule:nonzero;stroke:none;stroke-width:0.0146215"
       id="path4690" />
    <path
       d="m 60.131792,73.816187 c 0.338524,-0.183493 0.506025,0.246114 0.267032,0.401937 -0.345571,0.225726 -0.427633,-0.31456 -0.267032,-0.401937"
       style="fill:#dcbe93;fill-opacity:1;fill-rule:nonzero;stroke:none;stroke-width:0.0146215"
       id="path4692" />
    <path
       d="m 60.800033,72.822993 c 0.182915,-0.09757 0.267913,0.120872 0.138581,0.202425 -0.187172,0.119416 -0.225487,-0.15728 -0.138581,-0.202425"
       style="fill:#dcbe93;fill-opacity:1;fill-rule:nonzero;stroke:none;stroke-width:0.0146215"
       id="path4694" />
    <path
       d="m 59.646172,74.127834 c 0.231066,-0.07718 0.283474,0.171843 0.117294,0.240289 -0.240314,0.09903 -0.226808,-0.205338 -0.117294,-0.240289"
       style="fill:#dcbe93;fill-opacity:1;fill-rule:nonzero;stroke:none;stroke-width:0.0146215"
       id="path4696" />
    <path
       d="m 69.151728,69.906032 c -0.920447,-0.148543 -0.654442,-1.084941 0.03215,-1.023776 0.992527,0.08738 0.404439,1.093678 -0.03215,1.023776"
       style="fill:#e4c9a3;fill-opacity:1;fill-rule:nonzero;stroke:none;stroke-width:0.0146215"
       id="path4698" />
    <path
       d="m 68.179461,69.844867 c 0.501474,-0.164561 0.615245,0.374268 0.254406,0.52281 -0.521586,0.214076 -0.492372,-0.445626 -0.254406,-0.52281"
       style="fill:#e4c9a3;fill-opacity:1;fill-rule:nonzero;stroke:none;stroke-width:0.0146215"
       id="path4700" />
    <path
       d="m 69.823199,67.991003 c 0.288905,-0.09466 0.354379,0.215531 0.146655,0.299996 -0.300504,0.123786 -0.283621,-0.254851 -0.146655,-0.299996"
       style="fill:#e4c9a3;fill-opacity:1;fill-rule:nonzero;stroke:none;stroke-width:0.0146215"
       id="path4702" />
    <path
       d="m 67.595483,70.255543 c 0.266739,-0.08738 0.327368,0.198056 0.135352,0.278152 -0.277456,0.113592 -0.261895,-0.237376 -0.135352,-0.278152"
       style="fill:#e4c9a3;fill-opacity:1;fill-rule:nonzero;stroke:none;stroke-width:0.0146215"
       id="path4704" />
    <path
       d="m 68.963234,70.149233 c 0.288319,-0.09466 0.353793,0.215532 0.146362,0.301454 -0.299916,0.122328 -0.283034,-0.256309 -0.146362,-0.301454"
       style="fill:#e4c9a3;fill-opacity:1;fill-rule:nonzero;stroke:none;stroke-width:0.0146215"
       id="path4706" />
    <path
       d="m 69.150113,67.664792 c 0.198329,-0.06408 0.243397,0.148542 0.100559,0.206794 -0.206256,0.08592 -0.194659,-0.174755 -0.100559,-0.206794"
       style="fill:#e4c9a3;fill-opacity:1;fill-rule:nonzero;stroke:none;stroke-width:0.0146215"
       id="path4708" />
    <path
       d="m 69.212357,68.331776 c 0.243544,-0.0801 0.298888,0.182037 0.123607,0.253395 -0.253526,0.104854 -0.239287,-0.215532 -0.123607,-0.253395"
       style="fill:#e4c9a3;fill-opacity:1;fill-rule:nonzero;stroke:none;stroke-width:0.0146215"
       id="path4710" />
  </g>
</svg>
