<?xml version="1.0" encoding="UTF-8" standalone="no"?>
<!-- Created with Inkscape (http://www.inkscape.org/) -->

<svg
   width="100"
   height="100"
   viewBox="0 0 26.458333 26.458333"
   version="1.1"
   id="svg13353"
   sodipodi:docname="asteroid-bit-5.svg"
   inkscape:version="1.2.1 (9c6d41e410, 2022-07-14)"
   xmlns:inkscape="http://www.inkscape.org/namespaces/inkscape"
   xmlns:sodipodi="http://sodipodi.sourceforge.net/DTD/sodipodi-0.dtd"
   xmlns="http://www.w3.org/2000/svg"
   xmlns:svg="http://www.w3.org/2000/svg">
  <sodipodi:namedview
     id="namedview13355"
     pagecolor="#505050"
     bordercolor="#ffffff"
     borderopacity="1"
     inkscape:showpageshadow="0"
     inkscape:pageopacity="0"
     inkscape:pagecheckerboard="1"
     inkscape:deskcolor="#505050"
     inkscape:document-units="px"
     showgrid="false"
     inkscape:zoom="2.9825758"
     inkscape:cx="49.118618"
     inkscape:cy="14.75235"
     inkscape:window-width="1920"
     inkscape:window-height="1017"
     inkscape:window-x="-8"
     inkscape:window-y="-8"
     inkscape:window-maximized="1"
     inkscape:current-layer="layer1" />
  <defs
     id="defs13350" />
  <g
     inkscape:label="Warstwa 1"
     inkscape:groupmode="layer"
     id="layer1"
     transform="translate(-118.36781,-110.25781)">
    <path
       d="m 141.84627,126.3237 c -0.45094,1.3274 -0.56204,4.44065 -4.37213,7.18448 -6.74446,4.86466 -12.33216,3.07205 -15.61942,-0.84168 1.67958,-0.95108 3.11081,-3.14061 4.87535,-3.95483 0.96068,-0.43791 8.22796,-1.21794 6.76406,-5.7749 -0.65354,-2.02532 -1.1306,-2.73692 2.05862,-3.72903 0,-0.0341 3.73167,-1.58058 4.1434,-3.75644 2.32657,1.85427 4.60741,3.67432 4.62047,3.69486 1.0914,1.8132 -1.7776,5.12486 -2.47035,7.17754"
       style="fill:#7e5130;fill-opacity:1;fill-rule:nonzero;stroke:none;stroke-width:0.0668704"
       id="path3856" />
    <path
       d="m 139.69615,115.4513 c -0.41173,2.17586 -4.1434,3.72222 -4.1434,3.75644 -3.18922,0.99211 -2.71216,1.70371 -2.05862,3.72903 1.4639,4.55696 -5.80338,5.33699 -6.76406,5.7749 -1.76454,0.81422 -3.19577,3.00375 -4.87535,3.95483 -3.60749,-4.28326 -4.47016,-11.10503 -1.12408,-14.54669 0.93455,-0.95793 5.11062,-3.91379 5.37203,-4.11906 l -0.0196,0.0136 c 2.37232,-2.01847 4.5682,-5.10434 8.67891,-2.48374 0.0196,0.0136 2.50303,1.98425 4.93417,3.92061"
       style="fill:#9e6f43;fill-opacity:1;fill-rule:nonzero;stroke:none;stroke-width:0.0668704"
       id="path3858" />
  </g>
</svg>
