<?xml version="1.0" encoding="UTF-8" standalone="no"?>
<!-- Created with Inkscape (http://www.inkscape.org/) -->

<svg
   width="100"
   height="100"
   viewBox="0 0 26.458333 26.458333"
   version="1.1"
   id="svg13353"
   sodipodi:docname="asteroid-bit-4.svg"
   inkscape:version="1.2.1 (9c6d41e410, 2022-07-14)"
   xmlns:inkscape="http://www.inkscape.org/namespaces/inkscape"
   xmlns:sodipodi="http://sodipodi.sourceforge.net/DTD/sodipodi-0.dtd"
   xmlns="http://www.w3.org/2000/svg"
   xmlns:svg="http://www.w3.org/2000/svg">
  <sodipodi:namedview
     id="namedview13355"
     pagecolor="#505050"
     bordercolor="#ffffff"
     borderopacity="1"
     inkscape:showpageshadow="0"
     inkscape:pageopacity="0"
     inkscape:pagecheckerboard="1"
     inkscape:deskcolor="#505050"
     inkscape:document-units="px"
     showgrid="false"
     inkscape:zoom="2.9825758"
     inkscape:cx="49.118618"
     inkscape:cy="14.75235"
     inkscape:window-width="1920"
     inkscape:window-height="1017"
     inkscape:window-x="-8"
     inkscape:window-y="-8"
     inkscape:window-maximized="1"
     inkscape:current-layer="layer1" />
  <defs
     id="defs13350" />
  <g
     inkscape:label="Warstwa 1"
     inkscape:groupmode="layer"
     id="layer1"
     transform="translate(-118.36781,-110.25781)">
    <path
       d="m 120.4599,131.21916 c 1.61298,-0.13306 3.58805,-0.58517 6.04039,-1.03725 8.91247,-1.63563 6.04039,-7.76597 6.2955,-8.47077 0.32096,-0.91089 1.4813,-1.40956 2.45237,-1.94149 -0.10707,0.0865 4.38629,-2.30719 3.76907,-5.88432 -0.0905,-0.52528 -0.21392,-1.01063 -0.36209,-1.46277 1.43193,1.02395 2.72394,2.48672 3.7773,4.46146 9.39798,17.63961 -14.9446,25.62513 -21.97254,14.33514"
       style="fill:#7e5130;fill-opacity:1;fill-rule:nonzero;stroke:none;stroke-width:0.0739709"
       id="path3862" />
    <path
       d="m 135.24816,119.76965 c -0.97107,0.53193 -2.13141,1.0306 -2.45237,1.94149 -0.25511,0.7048 2.61697,6.83514 -6.2955,8.47077 -2.45234,0.45208 -4.42741,0.90427 -6.04039,1.03725 -1.12741,-1.80852 -1.80223,-4.10906 -1.82691,-6.94816 -0.0987,-9.72077 12.12193,-17.4801 20.02215,-11.84844 0.14813,0.45214 0.27157,0.93749 0.36209,1.46277 0.61722,3.57713 -3.87605,5.97076 -3.76907,5.88432"
       style="fill:#9e6f43;fill-opacity:1;fill-rule:nonzero;stroke:none;stroke-width:0.0739709"
       id="path3864" />
  </g>
</svg>
