<?xml version="1.0" encoding="UTF-8" standalone="no"?>
<!-- Created with Inkscape (http://www.inkscape.org/) -->

<svg
   width="100"
   height="100"
   viewBox="0 0 26.458333 26.458333"
   version="1.1"
   id="svg13353"
   sodipodi:docname="asteroid-fragment-2.svg"
   inkscape:version="1.2.1 (9c6d41e410, 2022-07-14)"
   xmlns:inkscape="http://www.inkscape.org/namespaces/inkscape"
   xmlns:sodipodi="http://sodipodi.sourceforge.net/DTD/sodipodi-0.dtd"
   xmlns="http://www.w3.org/2000/svg"
   xmlns:svg="http://www.w3.org/2000/svg">
  <sodipodi:namedview
     id="namedview13355"
     pagecolor="#505050"
     bordercolor="#ffffff"
     borderopacity="1"
     inkscape:showpageshadow="0"
     inkscape:pageopacity="0"
     inkscape:pagecheckerboard="1"
     inkscape:deskcolor="#505050"
     inkscape:document-units="px"
     showgrid="false"
     inkscape:zoom="2.9825758"
     inkscape:cx="49.453898"
     inkscape:cy="95.55499"
     inkscape:window-width="1920"
     inkscape:window-height="1017"
     inkscape:window-x="-8"
     inkscape:window-y="-8"
     inkscape:window-maximized="1"
     inkscape:current-layer="layer1" />
  <defs
     id="defs13350" />
  <g
     inkscape:label="Warstwa 1"
     inkscape:groupmode="layer"
     id="layer1"
     transform="translate(-118.36781,-110.25781)">
    <path
       d="m 141.42349,121.56001 c -1.04083,3.11953 -0.26022,5.60867 -1.39818,7.01273 -1.54389,1.91175 -2.03654,-0.3991 -6.70983,5.29724 -2.28288,2.79043 -4.2188,2.58729 -4.18411,2.57322 -2.83104,0.0668 -2.76512,-2.18458 -4.1286,-2.39821 -0.79449,-0.12594 -2.3245,0.52178 -4.0939,-0.93133 2.08859,-4.01555 5.51289,0.54957 8.49311,-0.10829 4.91962,-1.09589 0.55511,-8.18941 5.79391,-11.33316 2.70267,-1.62453 5.82167,-0.88587 7.22331,-7.85312 0.22205,-1.08183 0.40592,-2.13225 1.03042,-2.97952 3.21614,1.89409 -1.51614,9.17998 -2.02613,10.72044"
       style="fill:#7e5130;fill-opacity:1;fill-rule:nonzero;stroke:none;stroke-width:0.0336891"
       id="path3984" />
    <path
       d="m 143.44962,110.83957 c -0.6245,0.84727 -0.80837,1.89769 -1.03042,2.97952 -1.40164,6.96725 -4.52064,6.22859 -7.22331,7.85312 -5.2388,3.14375 -0.87429,10.23727 -5.79391,11.33316 -2.98022,0.65786 -6.40452,-3.90726 -8.49311,0.10829 -0.14918,-0.12235 -0.3053,-0.26269 -0.45796,-0.41645 -1.08939,-1.10635 -1.6098,-2.09037 -1.76592,-2.96904 2.05388,1.41451 7.0637,-0.21003 7.29269,-1.75049 0.19428,-1.31311 -1.67573,-2.01317 0.21163,-3.80225 3.03574,-2.86404 5.57187,-2.51369 6.85208,-4.22589 0.67654,-0.90322 0.69736,-2.09364 1.09633,-3.12999 1.11369,-2.91279 3.86493,-2.80091 5.41922,-4.21511 0,0 0.51694,-0.81586 0.81878,-1.64906 1.09633,-0.41677 2.01573,-0.56038 2.67491,-0.30817 0.14572,0.0559 0.27756,0.12269 0.39899,0.19236"
       style="fill:#9e6f43;fill-opacity:1;fill-rule:nonzero;stroke:none;stroke-width:0.0336891"
       id="path3986" />
    <path
       d="m 140.37572,110.95538 c -0.30184,0.8332 -0.81878,1.64906 -0.81878,1.64906 -1.55429,1.4142 -4.30553,1.30232 -5.41922,4.21511 -0.39897,1.03635 -0.41979,2.22677 -1.09633,3.12999 -1.28021,1.7122 -3.81634,1.36185 -6.85208,4.22589 -1.88736,1.78908 -0.0173,2.48914 -0.21163,3.80225 -0.22899,1.54046 -5.23881,3.165 -7.29269,1.75049 -0.43715,-2.46821 1.97755,-4.10681 2.56735,-5.26225 1.00613,-1.97456 0.19429,-3.11952 3.00451,-4.21869 4.73575,-1.84863 11.79599,-7.65358 16.11887,-9.29185"
       style="fill:#bf9460;fill-opacity:1;fill-rule:nonzero;stroke:none;stroke-width:0.0336891"
       id="path3988" />
  </g>
</svg>
