<?xml version="1.0" encoding="UTF-8" standalone="no"?>
<!-- Created with Inkscape (http://www.inkscape.org/) -->

<svg
   width="100"
   height="100"
   viewBox="0 0 100 100"
   version="1.1"
   id="svg5872"
   inkscape:version="1.2.1 (9c6d41e410, 2022-07-14)"
   sodipodi:docname="asteroid5.svg"
   xmlns:inkscape="http://www.inkscape.org/namespaces/inkscape"
   xmlns:sodipodi="http://sodipodi.sourceforge.net/DTD/sodipodi-0.dtd"
   xmlns="http://www.w3.org/2000/svg"
   xmlns:svg="http://www.w3.org/2000/svg">
  <sodipodi:namedview
     id="namedview5874"
     pagecolor="#505050"
     bordercolor="#ffffff"
     borderopacity="1"
     inkscape:showpageshadow="0"
     inkscape:pageopacity="0"
     inkscape:pagecheckerboard="1"
     inkscape:deskcolor="#505050"
     inkscape:document-units="mm"
     showgrid="false"
     inkscape:zoom="0.74564394"
     inkscape:cx="365.45593"
     inkscape:cy="347.35077"
     inkscape:window-width="1920"
     inkscape:window-height="1017"
     inkscape:window-x="-8"
     inkscape:window-y="-8"
     inkscape:window-maximized="1"
     inkscape:current-layer="layer1" />
  <defs
     id="defs5869">
    <clipPath
       id="clipPath388"
       clipPathUnits="userSpaceOnUse">
      <path
         id="path386"
         d="m 14741.3,9504.91 c -16.9,0 -30.7,13.76 -30.7,30.67 0,16.92 13.8,30.68 30.7,30.68 16.9,0 30.7,-13.76 30.7,-30.68 0,-16.91 -13.8,-30.67 -30.7,-30.67" />
    </clipPath>
    <radialGradient
       id="radialGradient396"
       spreadMethod="pad"
       gradientTransform="matrix(7356.97,0,0,-4948.95,8500,6000)"
       gradientUnits="userSpaceOnUse"
       r="1"
       cy="0"
       cx="0"
       fy="0"
       fx="0">
      <stop
         id="stop390"
         offset="0"
         style="stop-opacity:1;stop-color:#3175b3" />
      <stop
         id="stop392"
         offset="0.00000013"
         style="stop-opacity:1;stop-color:#3175b3" />
      <stop
         id="stop394"
         offset="1"
         style="stop-opacity:1;stop-color:#2a6496" />
    </radialGradient>
  </defs>
  <g
     inkscape:label="Warstwa 1"
     inkscape:groupmode="layer"
     id="layer1">
    <g
       id="g382"
       transform="matrix(0.03527778,0,0,-0.03527778,-475.2822,389.82132)">
      <g
         clip-path="url(#clipPath388)"
         id="g384">
        <path
           id="path398"
           style="fill:url(#radialGradient396);fill-opacity:1;fill-rule:nonzero;stroke:none"
           d="m 14741.3,9504.91 c -16.9,0 -30.7,13.76 -30.7,30.67 0,16.92 13.8,30.68 30.7,30.68 16.9,0 30.7,-13.76 30.7,-30.68 0,-16.91 -13.8,-30.67 -30.7,-30.67" />
      </g>
    </g>
    <path
       id="path4740"
       style="fill:#7e5130;fill-opacity:1;fill-rule:nonzero;stroke:none;stroke-width:0.0352778"
       d="m 50.032174,70.842808 c -12.80231,-1.00577 -15.10948,-8.22925 -15.01775,-8.22925 -0.254,-0.41981 -0.49037,-0.82797 -0.71967,-1.22872 4.62844,-0.73696 8.91117,5.10681 12.56242,4.31694 1.67216,-0.35913 2.97744,-1.83727 4.68136,-2.02248 1.9438,-0.21166 5.88433,2.29835 7.27075,-3.81388 1.47461,-6.52074 -1.78153,-9.67317 -0.0917,-12.90144 1.62277,-3.09985 6.80155,-2.97109 5.05177,-9.62801 -0.35983,-1.36842 -0.76552,-3.20992 -0.3175,-5.11492 2.7552,3.11503 5.11528,6.36623 6.25123,8.23348 7.39069,12.15672 -0.12348,31.92286 -19.67089,30.38828" />
    <path
       id="path4742"
       style="fill:#9e6f43;fill-opacity:1;fill-rule:nonzero;stroke:none;stroke-width:0.0352778"
       d="m 58.717564,46.963978 c -1.68981,3.22827 1.56633,6.3807 0.0917,12.90144 -1.38642,6.11223 -5.32695,3.60222 -7.27075,3.81388 -1.70392,0.18521 -3.0092,1.66335 -4.68136,2.02248 -3.65125,0.78987 -7.93398,-5.0539 -12.56242,-4.31694 -2.71286,-4.78932 -3.36197,-8.43316 -2.55411,-12.48552 4.68489,0.51047 10.8338,8.1534 14.96483,-2.82363 2.69875,-7.17832 6.1842,-4.6041 8.06097,-8.41446 1.18534,-2.4204 -0.24694,-5.29907 0.35631,-7.85318 0.29281,-1.24178 0.89958,-2.794 1.13242,-4.24039 2.35302,1.55222 4.91066,4.05694 7.19666,6.65339 -0.44802,1.905 -0.0423,3.7465 0.3175,5.11492 1.74978,6.65692 -3.429,6.52816 -5.05177,9.62801" />
    <path
       id="path4744"
       style="fill:#bf9460;fill-opacity:1;fill-rule:nonzero;stroke:none;stroke-width:0.0352778"
       d="m 54.766444,37.661228 c -1.87677,3.81036 -5.36222,1.23614 -8.06097,8.41446 -4.13103,10.97703 -10.27994,3.3341 -14.96483,2.82363 0.53269,-2.68781 1.70744,-5.55272 3.34786,-9.04945 4.318,-9.21279 6.27944,-7.74877 10.61508,-11.49527 1.89442,-1.63336 3.49956,-3.95111 5.97253,-4.32858 1.30175,-0.19756 2.88925,0.42686 4.57906,1.54164 -0.23284,1.44639 -0.83961,2.99861 -1.13242,4.24039 -0.60325,2.55411 0.82903,5.43278 -0.35631,7.85318" />
    <path
       id="path4746"
       style="fill:#824a29;fill-opacity:1;fill-rule:nonzero;stroke:none;stroke-width:0.0352778"
       d="m 35.674114,52.130058 c -0.15875,-0.0783 -0.34219,-0.0988 -0.53975,-0.0455 -0.0635,0.018 -0.13053,0.0413 -0.19756,0.0706 -0.98425,0.43251 -2.15547,3.30271 -1.28763,4.30671 -1.42523,-0.65193 -1.3582,-3.29671 0.65263,-4.50039 0.51506,-0.30656 1.143,-0.0864 1.37231,0.16863" />
    <path
       id="path4748"
       style="fill:#986339;fill-opacity:1;fill-rule:nonzero;stroke:none;stroke-width:0.0352778"
       d="m 34.248894,56.565888 c -0.10584,0.004 -0.20814,-0.005 -0.29986,-0.0187 -0.10936,-0.0169 -0.20814,-0.0483 -0.29634,-0.0861 -0.86783,-1.00366 -0.54327,-3.01837 1.28411,-4.30742 0.06,-0.042 0.13406,-0.0522 0.19756,-0.0681 0.19756,-0.0536 0.381,-0.0353 0.53622,0.0459 l 0.0776,0.0893 c 0.88548,1.13559 0.7232,4.27954 -1.4993,4.34516" />
    <path
       id="path4750"
       style="fill:#af885a;fill-opacity:1;fill-rule:nonzero;stroke:none;stroke-width:0.0352778"
       d="m 34.608724,56.730638 c -0.23989,0.007 -0.43744,-0.0335 -0.59972,-0.10513 l -0.06,-0.0783 c 0.0917,0.0138 0.19402,0.0229 0.29986,0.0187 2.2225,-0.0656 2.38478,-3.20957 1.4993,-4.34516 0.10231,0.004 0.19403,0.0293 0.28223,0.0737 0.96661,1.04739 0.85725,4.36739 -1.4217,4.43618" />
    <path
       id="path4752"
       style="fill:#a97c4f;fill-opacity:1;fill-rule:nonzero;stroke:none;stroke-width:0.0352778"
       d="m 34.248894,56.565888 c -0.10584,0.004 -0.20814,-0.005 -0.29986,-0.0187 -0.75142,-1.06362 -0.39159,-3.21098 1.34408,-4.22874 0.0635,-0.037 0.13406,-0.0526 0.20108,-0.0698 0.0882,-0.0244 0.17286,-0.0342 0.254,-0.0279 0.88548,1.13559 0.7232,4.27954 -1.4993,4.34516" />
    <path
       id="path4754"
       style="fill:#69381f;fill-opacity:1;fill-rule:nonzero;stroke:none;stroke-width:0.0352778"
       d="m 69.025724,52.504358 c 0.64206,-0.55845 1.06539,-1.90676 0.91017,-4.06259 -0.0776,-1.10913 -0.39511,-2.91359 -1.09714,-3.88832 -0.58914,-0.8068 -1.22061,-1.12642 -1.76742,-1.05762 0.66675,-0.51224 1.95087,-0.42087 2.80459,0.75141 0.70203,0.97473 1.01953,2.77919 1.09714,3.88832 0.20461,2.84304 -0.95956,4.32929 -1.94734,4.3688" />
    <path
       id="path4756"
       style="fill:#7a492a;fill-opacity:1;fill-rule:nonzero;stroke:none;stroke-width:0.0352778"
       d="m 66.168224,45.723968 c -0.0106,-0.96132 0.31045,-1.75295 0.81139,-2.16323 l 0.0917,-0.0646 c 0.54681,-0.0691 1.18181,0.25259 1.76742,1.05763 0.70203,0.97543 1.01953,2.78094 1.09714,3.88726 0.15522,2.15441 -0.26811,3.50237 -0.91017,4.064 l -0.007,-3.6e-4 c -0.13406,0.006 -0.27517,-0.018 -0.41628,-0.072 -1.15006,-0.40711 -2.37419,-2.63384 -2.43417,-6.70878" />
    <path
       id="path4758"
       style="fill:#936b46;fill-opacity:1;fill-rule:nonzero;stroke:none;stroke-width:0.0352778"
       d="m 65.632004,45.760658 c -0.0106,-1.016 0.34925,-1.84503 0.90311,-2.22779 0.14464,-0.0205 0.29281,-0.01 0.4445,0.0279 -0.50094,0.41028 -0.82197,1.20191 -0.81139,2.16323 0.06,4.07494 1.28411,6.30167 2.43417,6.70878 -0.0353,0.0392 -0.0741,0.0748 -0.11289,0.10865 h -0.007 c -1.25237,0.0353 -2.77989,-2.20698 -2.85045,-6.78074" />
    <path
       id="path4760"
       style="fill:#8f633f;fill-opacity:1;fill-rule:nonzero;stroke:none;stroke-width:0.0352778"
       d="m 66.168224,45.723968 c -0.0106,-0.96132 0.31045,-1.75295 0.81139,-2.16323 0.43039,0.10195 0.89253,0.43391 1.32292,1.02623 0.70203,0.97543 1.01953,2.7813 1.09714,3.89043 0.14816,2.02742 -0.21872,3.3401 -0.79728,3.95535 -1.15006,-0.40711 -2.37419,-2.63384 -2.43417,-6.70878" />
    <path
       id="path4762"
       style="fill:#69381f;fill-opacity:1;fill-rule:nonzero;stroke:none;stroke-width:0.0352778"
       d="m 58.763424,67.734478 c 0.55033,0.20461 1.45344,0.0512 2.59291,-0.67169 0.58561,-0.37077 1.47109,-1.08267 1.75331,-1.77094 0.22931,-0.57397 0.17286,-1.02976 -0.0706,-1.32398 0.5327,0.23213 0.81139,0.79975 0.47625,1.63372 -0.28222,0.68827 -1.03364,1.53282 -1.61925,1.90394 -1.50283,0.95285 -2.74461,0.78281 -3.13266,0.22895" />
    <path
       id="path4764"
       style="fill:#7a492a;fill-opacity:1;fill-rule:nonzero;stroke:none;stroke-width:0.0352778"
       d="m 61.472754,64.105458 c 0.50094,-0.27482 1.04069,-0.33338 1.44639,-0.1905 0.0423,0.0159 0.0847,0.0317 0.12347,0.0515 0.23636,0.29598 0.29281,0.75318 0.067,1.3261 -0.28222,0.68721 -1.1677,1.39982 -1.75331,1.76882 -1.13947,0.72602 -2.04258,0.87877 -2.59291,0.67451 v -0.007 c -0.0706,-0.10618 -0.11642,-0.22719 -0.13406,-0.36336 -0.10936,-0.79163 0.6985,-2.07998 2.84339,-3.26037" />
    <path
       id="path4766"
       style="fill:#936b46;fill-opacity:1;fill-rule:nonzero;stroke:none;stroke-width:0.0352778"
       d="m 61.172894,63.692358 c 0.56092,-0.30833 1.15358,-0.34432 1.56986,-0.139 0.0847,0.10195 0.14464,0.2226 0.17639,0.3616 -0.4057,-0.14288 -0.94545,-0.0843 -1.44639,0.1905 -2.14489,1.18039 -2.95275,2.46874 -2.84339,3.26037 -0.0564,-0.012 -0.10936,-0.0272 -0.16228,-0.0462 l -0.004,-0.004 c -0.48331,-0.70767 0.19755,-2.24402 2.70933,-3.62373" />
    <path
       id="path4768"
       style="fill:#8f633f;fill-opacity:1;fill-rule:nonzero;stroke:none;stroke-width:0.0352778"
       d="m 61.472754,64.105458 c 0.50094,-0.27482 1.04069,-0.33338 1.44639,-0.1905 0.0706,0.26035 0.0423,0.58737 -0.10936,0.96096 -0.2787,0.69039 -1.16417,1.39983 -1.74978,1.77236 -1.03364,0.65546 -1.87325,0.84067 -2.43064,0.71755 -0.10936,-0.79163 0.6985,-2.07998 2.84339,-3.26037" />
    <path
       id="path4770"
       style="fill:#9b6439;fill-opacity:1;fill-rule:nonzero;stroke:none;stroke-width:0.0352778"
       d="m 48.860944,31.861208 c -2.17663,0.25753 -5.95489,2.88573 -7.35894,5.51604 -1.0795,2.02459 -0.54328,3.05082 0.70908,3.22545 -2.01083,0.32385 -3.556,-3.1295 0.55034,-7.34096 2.12725,-2.17664 5.06941,-2.19075 6.09952,-1.40053" />
    <path
       id="path4772"
       style="fill:#b78551;fill-opacity:1;fill-rule:nonzero;stroke:none;stroke-width:0.0352778"
       d="m 49.256064,32.012908 h 0.004 c 0.44098,0.28575 0.60678,0.89605 0.34573,1.92617 -0.10937,0.41627 -0.23989,0.81491 -0.41275,1.19238 -1.43581,3.19511 -4.62492,5.16291 -6.79803,5.4483 -0.06,0.009 -0.12348,0.0176 -0.18345,0.0215 -1.25236,-0.1725 -1.78858,-1.19838 -0.70908,-3.22262 1.40405,-2.63172 3.85586,-5.78203 7.36247,-5.51745 0.14464,0.0318 0.2787,0.0811 0.39159,0.1517" />
    <path
       id="path4774"
       style="fill:#caa77a;fill-opacity:1;fill-rule:nonzero;stroke:none;stroke-width:0.0352778"
       d="m 42.394534,40.579758 c 5.17525,-1.0107 7.79991,-7.69196 6.86505,-8.56685 2.69523,1.33703 -0.9525,8.88647 -6.86505,8.56685" />
    <path
       id="path4776"
       style="fill:#c59a69;fill-opacity:1;fill-rule:nonzero;stroke:none;stroke-width:0.0352778"
       d="m 49.256064,32.012908 h 0.004 c 0.44098,0.28575 0.60678,0.89605 0.34573,1.92617 -0.10937,0.41627 -0.23989,0.81491 -0.41275,1.19238 -1.43581,3.19511 -4.62492,5.16291 -6.79803,5.4483 -0.88195,-0.36089 -1.13595,-1.36348 -0.2152,-3.09386 1.33703,-2.52024 4.49439,-5.51885 7.07673,-5.47299" />
    <path
       id="path4778"
       style="fill:#824a29;fill-opacity:1;fill-rule:nonzero;stroke:none;stroke-width:0.0352778"
       d="m 49.231364,59.554268 c -1.9438,-1.58573 -1.41817,-6.72465 2.3107,-7.12082 1.24177,-0.23213 2.70933,0.30798 3.27377,1.12572 -0.5715,-0.49883 -1.36172,-0.74366 -2.31775,-0.56727 -3.40077,0.36195 -4.56141,4.61645 -3.26672,6.56237" />
    <path
       id="path4780"
       style="fill:#986339;fill-opacity:1;fill-rule:nonzero;stroke:none;stroke-width:0.0352778"
       d="m 53.528194,58.937618 c -0.94544,0.62759 -1.76388,0.96132 -2.45533,1.06045 -0.54328,0.078 -0.99836,0.0145 -1.38289,-0.16228 -0.1658,-0.0695 -0.32103,-0.16863 -0.45861,-0.28328 -1.29469,-1.94381 -0.13405,-6.20007 3.26672,-6.55814 0.95956,-0.1778 1.74625,0.0649 2.31775,0.56621 0.10936,0.15487 0.20109,0.32385 0.28223,0.5027 0.6738,1.48626 0.28575,3.64632 -1.56987,4.87434" />
    <path
       id="path4782"
       style="fill:#af885a;fill-opacity:1;fill-rule:nonzero;stroke:none;stroke-width:0.0352778"
       d="m 54.265504,59.756058 c -0.9525,0.629 -1.76742,0.96167 -2.45886,1.05657 -0.78317,0.11642 -1.397,-0.0638 -1.84503,-0.44027 -0.10936,-0.16263 -0.19755,-0.34254 -0.27164,-0.53657 0.38453,0.17674 0.83961,0.24024 1.38289,0.16228 0.69145,-0.0991 1.50989,-0.43286 2.45533,-1.06045 1.85562,-1.22802 2.24367,-3.38808 1.56987,-4.87434 0.16227,0.0882 0.31397,0.19297 0.45155,0.31186 1.02658,1.46156 0.7867,4.00438 -1.28411,5.38092" />
    <path
       id="path4784"
       style="fill:#a97c4f;fill-opacity:1;fill-rule:nonzero;stroke:none;stroke-width:0.0352778"
       d="m 53.528194,58.937618 c -0.94544,0.62759 -1.76388,0.96132 -2.45533,1.06045 -0.54328,0.078 -0.99836,0.0145 -1.38289,-0.16228 -0.81139,-2.09303 0.42686,-5.69454 3.54189,-6.02686 0.7232,-0.13264 1.35467,-0.0229 1.8662,0.25435 0.6738,1.48626 0.28575,3.64632 -1.56987,4.87434" />
    <path
       id="path4786"
       style="fill:#824a29;fill-opacity:1;fill-rule:nonzero;stroke:none;stroke-width:0.0352778"
       d="m 60.908314,36.228598 c -0.94898,-0.14816 -2.22603,0.76906 -2.42006,2.00237 -0.14817,0.94862 0.27517,1.57233 0.87489,1.83127 -0.77258,-0.14146 -1.40406,-0.80857 -1.22767,-1.93887 0.2152,-1.39382 1.81681,-2.37807 2.77284,-1.89477" />
    <path
       id="path4788"
       style="fill:#986339;fill-opacity:1;fill-rule:nonzero;stroke:none;stroke-width:0.0352778"
       d="m 61.599754,37.444978 c 0.0212,0.2099 0.0282,0.40958 0.0141,0.59161 -0.0917,1.28587 -0.89605,1.94275 -1.71097,2.04047 -0.18697,0.0261 -0.36689,0.0215 -0.54328,-0.0141 -0.59972,-0.26 -1.016,-0.88407 -0.87136,-1.83092 0.19403,-1.23084 1.47108,-2.14807 2.42006,-1.9999 l 0.0882,0.0494 c 0.31397,0.1905 0.53975,0.56797 0.60325,1.16346" />
    <path
       id="path4790"
       style="fill:#af885a;fill-opacity:1;fill-rule:nonzero;stroke:none;stroke-width:0.0352778"
       d="m 62.188894,37.484848 c 0.0176,0.2099 0.0282,0.40957 0.0141,0.5916 -0.11289,1.57727 -1.29469,2.20628 -2.25425,2.02636 l -0.0459,-0.0257 c 0.81492,-0.0977 1.61925,-0.7546 1.71097,-2.04047 0.0141,-0.18203 0.007,-0.38171 -0.0141,-0.59161 -0.0635,-0.59549 -0.28928,-0.97296 -0.60325,-1.16346 0.17286,-0.0318 0.34219,-0.0388 0.49742,-0.0106 0.3563,0.17639 0.62441,0.56444 0.69497,1.21391" />
    <path
       id="path4792"
       style="fill:#a97c4f;fill-opacity:1;fill-rule:nonzero;stroke:none;stroke-width:0.0352778"
       d="m 61.599754,37.444978 c 0.0212,0.2099 0.0282,0.40958 0.0141,0.59161 -0.0917,1.28587 -0.89605,1.94275 -1.71097,2.04047 -0.57503,-0.26953 -0.97014,-0.87948 -0.8255,-1.80517 0.15875,-1.02623 1.07244,-1.83162 1.91911,-1.99037 0.31397,0.1905 0.53975,0.56797 0.60325,1.16346" />
    <path
       id="path4794"
       style="fill:#946d48;fill-opacity:1;fill-rule:nonzero;stroke:none;stroke-width:0.0352778"
       d="m 67.544064,53.630068 c 0.15522,1.69581 -1.63689,1.65383 -1.83798,0.4117 -0.29633,-1.796 1.76742,-1.21603 1.83798,-0.4117" />
    <path
       id="path4796"
       style="fill:#946d48;fill-opacity:1;fill-rule:nonzero;stroke:none;stroke-width:0.0352778"
       d="m 69.939424,53.518598 c 1.10772,0.30444 0.65616,1.42451 -0.17639,1.25906 -1.20297,-0.23918 -0.34925,-1.4037 0.17639,-1.25906" />
    <path
       id="path4798"
       style="fill:#946d48;fill-opacity:1;fill-rule:nonzero;stroke:none;stroke-width:0.0352778"
       d="m 68.055584,55.325168 c 0.60325,0.16581 0.35984,0.77576 -0.0952,0.68545 -0.65263,-0.13018 -0.1905,-0.76412 0.0952,-0.68545" />
    <path
       id="path4800"
       style="fill:#cba87b;fill-opacity:1;fill-rule:nonzero;stroke:none;stroke-width:0.0352778"
       d="m 53.397674,32.524438 c -1.44639,-0.23636 -1.03011,-1.71803 0.0494,-1.62278 1.5628,0.13758 0.63852,1.73567 -0.0494,1.62278" />
    <path
       id="path4802"
       style="fill:#cba87b;fill-opacity:1;fill-rule:nonzero;stroke:none;stroke-width:0.0352778"
       d="m 53.358864,33.522798 c 0.78317,0.56091 -0.0106,1.40758 -0.62442,1.04069 -0.88547,-0.52916 0.254,-1.30528 0.62442,-1.04069" />
    <path
       id="path4804"
       style="fill:#cba87b;fill-opacity:1;fill-rule:nonzero;stroke:none;stroke-width:0.0352778"
       d="m 35.885784,44.007348 c -1.44639,-0.2353 -1.03011,-1.71908 0.0529,-1.62313 1.55928,0.13864 0.635,1.73461 -0.0529,1.62313" />
    <path
       id="path4806"
       style="fill:#cba87b;fill-opacity:1;fill-rule:nonzero;stroke:none;stroke-width:0.0352778"
       d="m 36.862974,39.833988 c 0.7867,-0.26141 0.96661,0.59373 0.39864,0.82868 -0.81844,0.33972 -0.77258,-0.7045 -0.39864,-0.82868" />
    <path
       id="path4808"
       style="fill:#cba87b;fill-opacity:1;fill-rule:nonzero;stroke:none;stroke-width:0.0352778"
       d="m 37.907194,37.567038 c 0.78317,0.56092 -0.0106,1.409 -0.62441,1.04246 -0.88548,-0.53022 0.254,-1.30845 0.62441,-1.04246" />
    <path
       id="path4810"
       style="fill:#cba87b;fill-opacity:1;fill-rule:nonzero;stroke:none;stroke-width:0.0352778"
       d="m 38.147084,42.438548 c 0.41275,0.40499 -0.06,0.78916 -0.38453,0.51294 -0.47272,-0.3997 0.18698,-0.7052 0.38453,-0.51294" />
    <path
       id="path4812"
       style="fill:#cba87b;fill-opacity:1;fill-rule:nonzero;stroke:none;stroke-width:0.0352778"
       d="m 37.737864,41.225348 c 0.30692,0.29986 -0.0423,0.5842 -0.28575,0.37959 -0.34925,-0.29598 0.14111,-0.52211 0.28575,-0.37959" />
    <path
       id="path4814"
       style="fill:#cba87b;fill-opacity:1;fill-rule:nonzero;stroke:none;stroke-width:0.0352778"
       d="m 36.019834,41.348108 c 0.30339,0.29987 -0.0459,0.58456 -0.28575,0.37995 -0.35278,-0.29598 0.13759,-0.52211 0.28575,-0.37995" />
    <path
       id="path4816"
       style="fill:#cba87b;fill-opacity:1;fill-rule:nonzero;stroke:none;stroke-width:0.0352778"
       d="m 34.464084,45.267828 c 0.52917,-0.17604 0.64911,0.3997 0.26811,0.55774 -0.55033,0.2286 -0.52211,-0.47413 -0.26811,-0.55774" />
    <path
       id="path4818"
       style="fill:#b0895b;fill-opacity:1;fill-rule:nonzero;stroke:none;stroke-width:0.0352778"
       d="m 35.818754,59.842488 c -1.13242,0.9592 -1.99672,-0.33867 -1.21356,-1.10666 1.13242,-1.10984 1.75331,0.65158 1.21356,1.10666" />
    <path
       id="path4820"
       style="fill:#b0895b;fill-opacity:1;fill-rule:nonzero;stroke:none;stroke-width:0.0352778"
       d="m 40.651804,55.598928 c 0.43039,-1.05375 1.48167,-0.47943 1.22062,0.32067 -0.37748,1.15641 -1.4217,0.17921 -1.22062,-0.32067" />
    <path
       id="path4822"
       style="fill:#b0895b;fill-opacity:1;fill-rule:nonzero;stroke:none;stroke-width:0.0352778"
       d="m 37.632034,59.739828 c 0.40922,-1.00788 1.41464,-0.45826 1.16416,0.30692 -0.35983,1.10596 -1.36172,0.17145 -1.16416,-0.30692" />
    <path
       id="path4824"
       style="fill:#b0895b;fill-opacity:1;fill-rule:nonzero;stroke:none;stroke-width:0.0352778"
       d="m 39.272444,59.800158 c 0.22931,-0.56833 0.79728,-0.25859 0.65617,0.17321 -0.20108,0.62371 -0.76553,0.0967 -0.65617,-0.17321" />
    <path
       id="path4826"
       style="fill:#b0895b;fill-opacity:1;fill-rule:nonzero;stroke:none;stroke-width:0.0352778"
       d="m 36.496084,51.761058 c 0.15522,-0.38665 0.54328,-0.17604 0.4445,0.11747 -0.13758,0.42439 -0.51858,0.066 -0.4445,-0.11747" />
    <path
       id="path4828"
       style="fill:#b0895b;fill-opacity:1;fill-rule:nonzero;stroke:none;stroke-width:0.0352778"
       d="m 37.713174,58.192198 c 0.37394,-0.24977 0.58913,0.16862 0.32808,0.37288 -0.37747,0.29528 -0.50447,-0.25435 -0.32808,-0.37288" />
    <path
       id="path4830"
       style="fill:#b0895b;fill-opacity:1;fill-rule:nonzero;stroke:none;stroke-width:0.0352778"
       d="m 37.138144,53.233548 c -0.15522,-0.43709 0.32103,-0.54469 0.45861,-0.23072 0.19403,0.45438 -0.38806,0.43815 -0.45861,0.23072" />
    <path
       id="path4832"
       style="fill:#b0895b;fill-opacity:1;fill-rule:nonzero;stroke:none;stroke-width:0.0352778"
       d="m 54.459534,45.640708 c -2.19781,-0.35701 -1.56281,-2.6102 0.0741,-2.46485 2.37067,0.2106 0.96661,2.63419 -0.0741,2.46485" />
    <path
       id="path4834"
       style="fill:#b0895b;fill-opacity:1;fill-rule:nonzero;stroke:none;stroke-width:0.0352778"
       d="m 59.147944,41.021798 c 1.19592,-0.39688 1.46756,0.90134 0.60678,1.258 -1.2453,0.51576 -1.17475,-1.06997 -0.60678,-1.258" />
    <path
       id="path4836"
       style="fill:#b0895b;fill-opacity:1;fill-rule:nonzero;stroke:none;stroke-width:0.0352778"
       d="m 54.494814,48.968818 c 1.18886,0.85125 -0.0141,2.13925 -0.94898,1.58256 -1.34408,-0.80468 0.38453,-1.98649 0.94898,-1.58256" />
    <path
       id="path4838"
       style="fill:#b0895b;fill-opacity:1;fill-rule:nonzero;stroke:none;stroke-width:0.0352778"
       d="m 49.901644,51.286918 c 0.6985,-0.13829 0.75494,0.72002 0.24694,0.86501 -0.7373,0.20991 -0.57855,-0.79939 -0.24694,-0.86501" />
    <path
       id="path4840"
       style="fill:#b0895b;fill-opacity:1;fill-rule:nonzero;stroke:none;stroke-width:0.0352778"
       d="m 61.377504,40.748748 c 0.80786,-0.26741 0.99131,0.60677 0.40922,0.84701 -0.83608,0.34714 -0.79022,-0.72037 -0.40922,-0.84701" />
    <path
       id="path4842"
       style="fill:#b0895b;fill-opacity:1;fill-rule:nonzero;stroke:none;stroke-width:0.0352778"
       d="m 47.530974,48.937418 c 0.80434,-0.2674 0.98778,0.60678 0.40922,0.84702 -0.83961,0.34714 -0.79375,-0.72037 -0.40922,-0.84702" />
    <path
       id="path4844"
       style="fill:#b0895b;fill-opacity:1;fill-rule:nonzero;stroke:none;stroke-width:0.0352778"
       d="m 48.292974,47.554528 c 0.80786,-0.26705 0.99131,0.60678 0.40922,0.84702 -0.83608,0.34714 -0.79022,-0.72037 -0.40922,-0.84702" />
  </g>
</svg>
