<?xml version="1.0" encoding="UTF-8" standalone="no"?>
<!-- Created with Inkscape (http://www.inkscape.org/) -->

<svg
   width="100"
   height="100"
   viewBox="0 0 26.458333 26.458333"
   version="1.1"
   id="svg13353"
   sodipodi:docname="asteroid-bit-3.svg"
   inkscape:version="1.2.1 (9c6d41e410, 2022-07-14)"
   xmlns:inkscape="http://www.inkscape.org/namespaces/inkscape"
   xmlns:sodipodi="http://sodipodi.sourceforge.net/DTD/sodipodi-0.dtd"
   xmlns="http://www.w3.org/2000/svg"
   xmlns:svg="http://www.w3.org/2000/svg">
  <sodipodi:namedview
     id="namedview13355"
     pagecolor="#505050"
     bordercolor="#ffffff"
     borderopacity="1"
     inkscape:showpageshadow="0"
     inkscape:pageopacity="0"
     inkscape:pagecheckerboard="1"
     inkscape:deskcolor="#505050"
     inkscape:document-units="px"
     showgrid="false"
     inkscape:zoom="2.9825758"
     inkscape:cx="49.118618"
     inkscape:cy="14.75235"
     inkscape:window-width="1920"
     inkscape:window-height="1017"
     inkscape:window-x="-8"
     inkscape:window-y="-8"
     inkscape:window-maximized="1"
     inkscape:current-layer="layer1" />
  <defs
     id="defs13350" />
  <g
     inkscape:label="Warstwa 1"
     inkscape:groupmode="layer"
     id="layer1"
     transform="translate(-118.36781,-110.25781)">
    <path
       d="m 144.3342,120.82839 c -0.82798,3.75253 -3.94438,8.41588 -10.38996,13.82972 -5.07711,4.25514 -8.27977,-0.23311 -10.71195,-1.4863 -1.59272,-0.82352 -2.94967,-0.92553 -3.77765,-2.67429 1.23046,-3.78166 5.76709,-0.19663 7.61853,-1.04925 1.71921,-0.79421 2.52993,-4.33543 6.68707,-4.59774 6.18684,-0.3862 3.81789,-2.76158 6.79631,-3.78897 0.60374,-0.2113 2.26545,0.23317 3.77765,-0.23317"
       style="fill:#7e5130;fill-opacity:1;fill-rule:nonzero;stroke:none;stroke-width:0.0647272"
       id="path3868" />
    <path
       d="m 144.3342,120.82839 c -1.5122,0.46634 -3.17391,0.0219 -3.77765,0.23317 -2.97842,1.02739 -0.60947,3.40277 -6.79631,3.78897 -4.15714,0.26231 -4.96786,3.80353 -6.68707,4.59774 -1.85144,0.85252 -6.38807,-2.73241 -7.61853,1.04925 -0.41399,-0.87437 -0.70724,-2.16408 -0.82224,-4.16784 0,0 0.0173,-6.28823 2.05845,-8.48145 2.48969,-2.68142 6.39957,-6.71083 9.57924,-7.13344 8.38901,-1.12212 15.68556,2.71785 14.06411,10.1136"
       style="fill:#9e6f43;fill-opacity:1;fill-rule:nonzero;stroke:none;stroke-width:0.0647272"
       id="path3870" />
  </g>
</svg>
