<?xml version="1.0" encoding="UTF-8" standalone="no"?>
<!-- Created with Inkscape (http://www.inkscape.org/) -->

<svg
   width="100"
   height="100"
   viewBox="0 0 26.458333 26.458333"
   version="1.1"
   id="svg13353"
   sodipodi:docname="asteroid-fragment-5.svg"
   inkscape:version="1.2.1 (9c6d41e410, 2022-07-14)"
   xmlns:inkscape="http://www.inkscape.org/namespaces/inkscape"
   xmlns:sodipodi="http://sodipodi.sourceforge.net/DTD/sodipodi-0.dtd"
   xmlns="http://www.w3.org/2000/svg"
   xmlns:svg="http://www.w3.org/2000/svg">
  <sodipodi:namedview
     id="namedview13355"
     pagecolor="#505050"
     bordercolor="#ffffff"
     borderopacity="1"
     inkscape:showpageshadow="0"
     inkscape:pageopacity="0"
     inkscape:pagecheckerboard="1"
     inkscape:deskcolor="#505050"
     inkscape:document-units="px"
     showgrid="false"
     inkscape:zoom="2.9825758"
     inkscape:cx="49.789179"
     inkscape:cy="95.89027"
     inkscape:window-width="1920"
     inkscape:window-height="1017"
     inkscape:window-x="-8"
     inkscape:window-y="-8"
     inkscape:window-maximized="1"
     inkscape:current-layer="layer1" />
  <defs
     id="defs13350" />
  <g
     inkscape:label="Warstwa 1"
     inkscape:groupmode="layer"
     id="layer1"
     transform="translate(-118.36781,-110.25781)">
    <path
       d="m 138.36062,131.14 c -1.23719,1.50336 -2.04382,3.61525 -3.57255,4.61526 -2.48252,1.62889 -7.50741,0.15635 -10.46149,-1.91137 0.7496,-2.27871 1.17736,-6.18981 5.18581,-7.46152 1.3953,-0.43884 2.86394,-0.30284 4.29999,-0.43535 5.62451,-0.52367 4.2376,-5.33247 6.36035,-7.68268 0.0517,-0.0613 0.10898,-0.11885 0.16067,-0.16651 0.21795,0.12901 0.43616,0.25834 0.65945,0.38418 8.88363,5.00263 -1.47423,11.26044 -2.63223,12.65799"
       style="fill:#7e5130;fill-opacity:1;fill-rule:nonzero;stroke:none;stroke-width:0.0284446"
       id="path3960" />
    <path
       d="m 140.3334,118.09783 c -0.0517,0.0476 -0.10898,0.10518 -0.16067,0.16651 -2.12275,2.35021 -0.73584,7.15901 -6.36035,7.68268 -1.43605,0.13251 -2.90469,-0.004 -4.29999,0.43535 -4.00845,1.27171 -4.43621,5.18281 -5.18581,7.46152 -0.31598,-0.22117 -0.60777,-0.44901 -0.86926,-0.68002 -2.07922,-1.82654 -3.34899,-3.71058 -4.05759,-5.54348 1.07932,0.10518 2.28086,-0.25167 3.529,-1.19385 4.9704,-3.7681 2.49602,-6.66233 4.29464,-9.59375 1.31332,-2.14621 4.33538,-2.01338 5.26474,-4.44844 0.0191,-0.0512 0.0382,-0.1055 0.0573,-0.15666 2.29437,1.5952 4.7252,4.00643 7.788,5.87014"
       style="fill:#9e6f43;fill-opacity:1;fill-rule:nonzero;stroke:none;stroke-width:0.0284446"
       id="path3962" />
    <path
       d="m 132.5454,112.22769 c -0.0191,0.0512 -0.0382,0.1055 -0.0573,0.15666 -0.92935,2.43506 -3.95141,2.30223 -5.26474,4.44844 -1.79862,2.93142 0.67577,5.82565 -4.29463,9.59375 -1.24814,0.94218 -2.44968,1.29903 -3.52901,1.19385 -2.44967,-6.29181 1.68684,-12.00179 2.39544,-12.88964 4.31909,-5.4278 7.39004,-4.8393 10.75024,-2.50306"
       style="fill:#bf9460;fill-opacity:1;fill-rule:nonzero;stroke:none;stroke-width:0.0284446"
       id="path3964" />
  </g>
</svg>
