<?xml version="1.0" encoding="UTF-8" standalone="no"?>
<!-- Created with Inkscape (http://www.inkscape.org/) -->

<svg
   width="100"
   height="100"
   viewBox="0 0 100 100"
   version="1.1"
   id="svg2446"
   inkscape:version="1.2.1 (9c6d41e410, 2022-07-14)"
   sodipodi:docname="asteroid7.svg"
   xmlns:inkscape="http://www.inkscape.org/namespaces/inkscape"
   xmlns:sodipodi="http://sodipodi.sourceforge.net/DTD/sodipodi-0.dtd"
   xmlns="http://www.w3.org/2000/svg"
   xmlns:svg="http://www.w3.org/2000/svg">
  <sodipodi:namedview
     id="namedview2448"
     pagecolor="#505050"
     bordercolor="#ffffff"
     borderopacity="1"
     inkscape:showpageshadow="0"
     inkscape:pageopacity="0"
     inkscape:pagecheckerboard="1"
     inkscape:deskcolor="#505050"
     inkscape:document-units="mm"
     showgrid="false"
     inkscape:zoom="0.74564394"
     inkscape:cx="365.45593"
     inkscape:cy="240.06096"
     inkscape:window-width="1920"
     inkscape:window-height="1017"
     inkscape:window-x="-8"
     inkscape:window-y="-8"
     inkscape:window-maximized="1"
     inkscape:current-layer="layer1" />
  <defs
     id="defs2443">
    <clipPath
       id="clipPath680"
       clipPathUnits="userSpaceOnUse">
      <path
         id="path678"
         d="m 9924.33,7155.81 c -9.76,0 -17.7,7.94 -17.7,17.71 0,9.76 7.94,17.7 17.7,17.7 9.77,0 17.71,-7.94 17.71,-17.7 0,-9.77 -7.94,-17.71 -17.71,-17.71" />
    </clipPath>
    <radialGradient
       id="radialGradient688"
       spreadMethod="pad"
       gradientTransform="matrix(7356.97,0,0,-4948.95,8500,6000)"
       gradientUnits="userSpaceOnUse"
       r="1"
       cy="0"
       cx="0"
       fy="0"
       fx="0">
      <stop
         id="stop682"
         offset="0"
         style="stop-opacity:1;stop-color:#2e6dae" />
      <stop
         id="stop684"
         offset="0.00000013"
         style="stop-opacity:1;stop-color:#2e6dae" />
      <stop
         id="stop686"
         offset="1"
         style="stop-opacity:1;stop-color:#265b91" />
    </radialGradient>
    <clipPath
       id="clipPath1256"
       clipPathUnits="userSpaceOnUse">
      <path
         id="path1254"
         d="m 8912.89,6477.84 c -12.66,0 -22.96,10.3 -22.96,22.96 0,12.66 10.3,22.97 22.96,22.97 12.67,0 22.97,-10.31 22.97,-22.97 0,-12.66 -10.3,-22.96 -22.97,-22.96" />
    </clipPath>
    <radialGradient
       id="radialGradient1264"
       spreadMethod="pad"
       gradientTransform="matrix(7356.97,0,0,-4948.95,8500,6000)"
       gradientUnits="userSpaceOnUse"
       r="1"
       cy="0"
       cx="0"
       fy="0"
       fx="0">
      <stop
         id="stop1258"
         offset="0"
         style="stop-opacity:1;stop-color:#2e6dae" />
      <stop
         id="stop1260"
         offset="0.00000013"
         style="stop-opacity:1;stop-color:#2e6dae" />
      <stop
         id="stop1262"
         offset="1"
         style="stop-opacity:1;stop-color:#265b91" />
    </radialGradient>
    <clipPath
       id="clipPath1492"
       clipPathUnits="userSpaceOnUse">
      <path
         id="path1490"
         d="m 8213.28,6660.49 c -11.31,0 -20.51,9.21 -20.51,20.51 0,11.32 9.2,20.51 20.51,20.51 11.31,0 20.51,-9.19 20.51,-20.51 0,-11.3 -9.2,-20.51 -20.51,-20.51" />
    </clipPath>
    <radialGradient
       id="radialGradient1500"
       spreadMethod="pad"
       gradientTransform="matrix(7356.97,0,0,-4948.95,8500,6000)"
       gradientUnits="userSpaceOnUse"
       r="1"
       cy="0"
       cx="0"
       fy="0"
       fx="0">
      <stop
         id="stop1494"
         offset="0"
         style="stop-opacity:1;stop-color:#2e6dae" />
      <stop
         id="stop1496"
         offset="0.00000013"
         style="stop-opacity:1;stop-color:#2e6dae" />
      <stop
         id="stop1498"
         offset="1"
         style="stop-opacity:1;stop-color:#265b91" />
    </radialGradient>
  </defs>
  <g
     inkscape:label="Warstwa 1"
     inkscape:groupmode="layer"
     id="layer1">
    <g
       id="g674"
       transform="matrix(0.03527778,0,0,-0.03527778,-263.6235,293.98981)">
      <g
         clip-path="url(#clipPath680)"
         id="g676">
        <path
           id="path690"
           style="fill:url(#radialGradient688);fill-opacity:1;fill-rule:nonzero;stroke:none"
           d="m 9924.33,7155.81 c -9.76,0 -17.7,7.94 -17.7,17.71 0,9.76 7.94,17.7 17.7,17.7 9.77,0 17.71,-7.94 17.71,-17.7 0,-9.77 -7.94,-17.71 -17.71,-17.71" />
      </g>
    </g>
    <g
       id="g1250"
       transform="matrix(0.03527778,0,0,-0.03527778,-263.6235,293.98981)">
      <g
         clip-path="url(#clipPath1256)"
         id="g1252">
        <path
           id="path1266"
           style="fill:url(#radialGradient1264);fill-opacity:1;fill-rule:nonzero;stroke:none"
           d="m 8912.89,6477.84 c -12.66,0 -22.96,10.3 -22.96,22.96 0,12.66 10.3,22.97 22.96,22.97 12.67,0 22.97,-10.31 22.97,-22.97 0,-12.66 -10.3,-22.96 -22.97,-22.96" />
      </g>
    </g>
    <g
       id="g1486"
       transform="matrix(0.03527778,0,0,-0.03527778,-263.6235,293.98981)">
      <g
         clip-path="url(#clipPath1492)"
         id="g1488">
        <path
           id="path1502"
           style="fill:url(#radialGradient1500);fill-opacity:1;fill-rule:nonzero;stroke:none"
           d="m 8213.28,6660.49 c -11.31,0 -20.51,9.21 -20.51,20.51 0,11.32 9.2,20.51 20.51,20.51 11.31,0 20.51,-9.19 20.51,-20.51 0,-11.3 -9.2,-20.51 -20.51,-20.51" />
      </g>
    </g>
    <path
       id="path4952"
       style="fill:#7e5130;fill-opacity:1;fill-rule:nonzero;stroke:none;stroke-width:0.0352778"
       d="m 92.52686,39.539649 c -0.21873,10.58122 -15.8362,16.49977 -16.45109,16.89206 -4.63621,2.95345 -7.71067,8.69491 -13.1311,9.60402 -4.74168,0.79975 -4.68524,-1.55046 -13.23304,0.88653 -0.43357,0.12453 -0.8562,0.24871 -1.26754,0.36583 -0.12417,0.0378 -0.24518,0.0716 -0.36195,0.10936 -0.32067,0.0942 -0.63358,0.18874 -0.94297,0.28293 -0.51329,0.15452 -1.00718,0.30551 -1.48625,0.46002 -0.4378,0.1397 -0.86396,0.27552 -1.27882,0.41134 -0.29422,0.0942 -0.58491,0.19227 -0.86784,0.28681 l -0.004,0.004 c -0.50942,0.17004 -0.99978,0.33584 -1.46756,0.502 l -0.0113,0.007 c -0.56197,0.19614 -1.09749,0.38841 -1.6069,0.57714 -0.2413,0.0903 -0.47167,0.1771 -0.70168,0.26424 -0.2226,0.0825 -0.43744,0.1658 -0.64875,0.25258 -12.82171,4.97558 -8.21197,6.54086 -21.17338,-0.95073 -2.70862,-1.56528 -4.72651,-3.09316 -6.22405,-4.53037 0.61101,-0.17357 1.22943,-0.29422 1.85949,-0.36584 10.67541,-1.26012 6.38633,-3.08186 9.49078,-7.73676 1.98437,-2.97251 7.35224,-3.78355 12.00714,1.81433 7.05027,8.4836 9.15494,-0.4639 15.37159,0.0339 0.9017,0.072 1.75789,0.40358 2.65218,0.54716 2.17629,0.33937 4.34905,-0.47908 6.40116,-1.2827 15.06255,-5.90339 7.58225,-10.95834 15.92615,-13.08559 16.23554,-4.14196 12.58429,-7.42386 11.21516,-11.95423 0.0868,0.0603 0.17709,0.11677 0.27129,0.16969 1.70885,1.02976 5.76156,1.47108 5.66279,6.43537" />
    <path
       id="path4954"
       style="fill:#9e6f43;fill-opacity:1;fill-rule:nonzero;stroke:none;stroke-width:0.0352778"
       d="m 75.37762,44.888819 c -8.3439,2.12725 -0.8636,7.1822 -15.92615,13.08559 -2.05211,0.80362 -4.22487,1.62207 -6.40116,1.2827 -0.89429,-0.14358 -1.75048,-0.4752 -2.65218,-0.54716 -6.21665,-0.49777 -8.32132,8.44973 -15.37159,-0.0339 -4.6549,-5.59788 -10.02277,-4.78684 -12.00714,-1.81433 -3.10445,4.6549 1.18463,6.47664 -9.49078,7.73676 -0.63006,0.0716 -1.24848,0.19227 -1.85949,0.36584 h -0.008 c -0.36195,-0.34714 -0.69038,-0.68651 -0.99589,-1.02235 -0.0639,-0.0677 -0.12453,-0.13582 -0.18097,-0.20356 -0.11712,-0.13194 -0.23001,-0.26423 -0.33937,-0.39617 -0.02646,-0.0339 -0.05292,-0.0642 -0.07938,-0.0981 -0.06032,-0.0716 -0.1206497,-0.15099 -0.1774477,-0.2226 -0.05997,-0.0755 -0.116769,-0.15099 -0.173214,-0.2226 -0.0568,-0.0752 -0.109361,-0.14711 -0.166158,-0.22261 -0.05292,-0.0716 -0.109361,-0.14675 -0.158397,-0.21872 -0.101953,-0.14711 -0.200025,-0.28681 -0.290336,-0.43004 -0.04904,-0.0716 -0.09066,-0.14322 -0.13582,-0.21131 -0.113241,-0.17321 -0.215194,-0.34678 -0.309386,-0.51647 -1.482372,-2.63701 -1.297517,-4.60234 -1.244953,-5.33788 0.460375,-1.59173 1.754364,-2.79153 2.9915617,-3.90031 0.61489,-0.55457 1.19944,-1.07527 1.76177,-1.57303 0.97296,0.36195 1.95015,0.72425 2.92347,1.0862 9.24913,3.429 12.87427,-9.20397 22.99899,-5.88822 1.87466,0.6149 3.52319,1.86338 5.45818,2.23697 7.04638,1.37301 12.40332,-6.45831 14.72671,-7.41645 4.07035,-1.6824 12.38815,2.47086 12.24845,-11.28254 -0.007,-0.88653 0.0342,-1.68628 0.1397,-2.39924 1.35043,0.004 2.79893,0.0265 4.36068,0.0642 7.85354,0.18486 8.60425,4.16455 11.57323,6.14504 1.36913,4.53037 5.02038,7.81227 -11.21516,11.95423" />
    <path
       id="path4956"
       style="fill:#bf9460;fill-opacity:1;fill-rule:nonzero;stroke:none;stroke-width:0.0352778"
       d="m 70.51917,29.124589 c 0.1397,13.7534 -8.1781,9.60014 -12.24845,11.28254 -2.32339,0.95814 -7.68033,8.78946 -14.72671,7.41645 -1.93499,-0.37359 -3.58352,-1.62207 -5.45818,-2.23697 -10.12472,-3.31575 -13.74986,9.31722 -22.99899,5.88822 -0.97332,-0.36195 -1.95051,-0.72425 -2.92347,-1.0862 15.54515,-13.85923 9.15105,-6.99382 17.69886,-11.38838 2.82928,-1.45591 4.96429,-4.06259 7.86518,-5.36398 2.54635,-1.143 5.44724,-1.17334 8.11777,-1.98438 6.33342,-1.91629 5.16431,-5.00168 24.81369,-4.92654 -0.10549,0.71296 -0.14711,1.51271 -0.1397,2.39924" />
    <path
       id="path4958"
       style="fill:#d3ae7e;fill-opacity:1;fill-rule:nonzero;stroke:none;stroke-width:0.0352778"
       d="m 66.694,33.920959 c -1.78859,3.82023 -6.06919,-1.43475 -12.99105,4.84117 -1.98719,1.80163 -7.01604,7.36847 -8.15093,4.89761 -0.36124,-0.78634 1.15288,-3.05082 -2.13466,-3.87491 -3.34398,-0.83855 -8.70691,1.73778 -8.6487,-0.57538 0.0751,-2.97603 11.63179,-2.0821 17.59832,-5.85082 12.7127,-8.02922 16.39006,-3.84493 14.32702,0.56233" />
    <path
       id="path4960"
       style="fill:#cba87b;fill-opacity:1;fill-rule:nonzero;stroke:none;stroke-width:0.0352778"
       d="m 26.21733,45.729839 c 1.24989,0.89465 -0.0155,2.24755 -0.99448,1.66264 -1.41499,-0.84525 0.40146,-2.08703 0.99448,-1.66264" />
    <path
       id="path4962"
       style="fill:#cba87b;fill-opacity:1;fill-rule:nonzero;stroke:none;stroke-width:0.0352778"
       d="m 27.43406,44.044269 c 1.18674,-0.79058 2.01401,0.29069 1.18886,0.92392 -1.19309,0.91617 -1.75154,-0.54892 -1.18886,-0.92392" />
    <path
       id="path4964"
       style="fill:#cba87b;fill-opacity:1;fill-rule:nonzero;stroke:none;stroke-width:0.0352778"
       d="m 26.65407,41.308119 c 0.74401,-0.50447 1.26471,0.18768 0.74718,0.59197 -0.74824,0.58455 -1.10031,-0.35278 -0.74718,-0.59197" />
    <path
       id="path4966"
       style="fill:#cba87b;fill-opacity:1;fill-rule:nonzero;stroke:none;stroke-width:0.0352778"
       d="m 25.29905,44.008289 c 0.52881,-0.35843 0.89852,0.13335 0.53093,0.42086 -0.53164,0.41522 -0.78176,-0.25083 -0.53093,-0.42086" />
    <path
       id="path4968"
       style="fill:#cba87b;fill-opacity:1;fill-rule:nonzero;stroke:none;stroke-width:0.0352778"
       d="m 22.86453,48.753149 c 0.74401,-0.50447 1.26471,0.18803 0.74718,0.59231 -0.74824,0.58455 -1.10031,-0.35278 -0.74718,-0.59231" />
    <path
       id="path4970"
       style="fill:#dcbe93;fill-opacity:1;fill-rule:nonzero;stroke:none;stroke-width:0.0352778"
       d="m 47.66481,42.017209 c -1.44427,-0.23495 -1.02694,-1.71591 0.0505,-1.61996 1.55786,0.13829 0.635,1.73108 -0.0505,1.61996" />
    <path
       id="path4972"
       style="fill:#dcbe93;fill-opacity:1;fill-rule:nonzero;stroke:none;stroke-width:0.0352778"
       d="m 47.42598,38.643589 c 0.629,0.26988 0.27199,0.89465 -0.20638,0.7292 -0.69144,-0.23919 -0.0921,-0.85761 0.20638,-0.7292" />
    <path
       id="path4974"
       style="fill:#dcbe93;fill-opacity:1;fill-rule:nonzero;stroke:none;stroke-width:0.0352778"
       d="m 64.65106,30.661289 c 0.31856,0.38135 -0.0145,0.71191 -0.26423,0.45015 -0.3616,-0.37854 0.11324,-0.63077 0.26423,-0.45015" />
    <path
       id="path4976"
       style="fill:#dcbe93;fill-opacity:1;fill-rule:nonzero;stroke:none;stroke-width:0.0352778"
       d="m 63.26993,31.028889 c -0.42933,0.42298 -0.84631,-0.006 -0.55386,-0.33691 0.42298,-0.47872 0.75742,0.13653 0.55386,0.33691" />
    <path
       id="path4978"
       style="fill:#dcbe93;fill-opacity:1;fill-rule:nonzero;stroke:none;stroke-width:0.0352778"
       d="m 62.52945,30.134239 c -0.2226,0.21908 -0.4385,-0.003 -0.2868,-0.17462 0.21907,-0.24801 0.39228,0.0709 0.2868,0.17462" />
    <path
       id="path4980"
       style="fill:#dcbe93;fill-opacity:1;fill-rule:nonzero;stroke:none;stroke-width:0.0352778"
       d="m 62.39787,31.775719 c -0.1778,0.17533 -0.35066,-0.002 -0.22966,-0.1397 0.17533,-0.19827 0.31397,0.0568 0.22966,0.1397" />
    <path
       id="path4982"
       style="fill:#dcbe93;fill-opacity:1;fill-rule:nonzero;stroke:none;stroke-width:0.0352778"
       d="m 63.73066,29.547219 c 0.66957,0.0413 0.6724,0.68157 0.18274,0.68439 -0.70732,0.004 -0.50024,-0.70379 -0.18274,-0.68439" />
    <path
       id="path4984"
       style="fill:#dcbe93;fill-opacity:1;fill-rule:nonzero;stroke:none;stroke-width:0.0352778"
       d="m 49.56699,39.117019 c 0.56797,0.6664 -0.0314,1.24884 -0.47731,0.79164 -0.64453,-0.66111 0.20814,-1.10773 0.47731,-0.79164" />
    <path
       id="path4986"
       style="fill:#dcbe93;fill-opacity:1;fill-rule:nonzero;stroke:none;stroke-width:0.0352778"
       d="m 64.76889,29.932449 c 0.18168,-0.12312 0.30903,0.0459 0.18274,0.14499 -0.1831,0.14288 -0.26917,-0.0864 -0.18274,-0.14499" />
    <path
       id="path4988"
       style="fill:#cba87b;fill-opacity:1;fill-rule:nonzero;stroke:none;stroke-width:0.0352778"
       d="m 45.80426,32.991039 c 1.39382,0.69144 0.34819,2.24825 -0.72425,1.82245 -1.55117,-0.6156 0.0628,-2.15054 0.72425,-1.82245" />
    <path
       id="path4990"
       style="fill:#cba87b;fill-opacity:1;fill-rule:nonzero;stroke:none;stroke-width:0.0352778"
       d="m 47.8546,32.751149 c 0.66852,-0.62089 1.3014,-0.0226 0.84526,0.46178 -0.6597,0.70027 -1.16205,-0.16757 -0.84526,-0.46178" />
    <path
       id="path4992"
       style="fill:#cba87b;fill-opacity:1;fill-rule:nonzero;stroke:none;stroke-width:0.0352778"
       d="m 41.93076,34.590179 c 0.41804,-0.39476 0.81774,-0.0109 0.53234,0.29739 -0.41275,0.44556 -0.73096,-0.11007 -0.53234,-0.29739" />
    <path
       id="path4994"
       style="fill:#cba87b;fill-opacity:1;fill-rule:nonzero;stroke:none;stroke-width:0.0352778"
       d="m 43.23462,32.887319 c 0.25859,-0.24377 0.50554,-0.007 0.32915,0.18415 -0.25506,0.27552 -0.45191,-0.0681 -0.32915,-0.18415" />
    <path
       id="path4996"
       style="fill:#cba87b;fill-opacity:1;fill-rule:nonzero;stroke:none;stroke-width:0.0352778"
       d="m 39.83208,36.148039 c 0.25894,-0.24412 0.50589,-0.007 0.32914,0.1838 -0.25505,0.27587 -0.4519,-0.0681 -0.32914,-0.1838" />
    <path
       id="path4998"
       style="fill:#cba87b;fill-opacity:1;fill-rule:nonzero;stroke:none;stroke-width:0.0352778"
       d="m 59.15725,38.508829 c -1.44427,-0.23459 -1.02694,-1.71556 0.0504,-1.6196 1.55822,0.13829 0.635,1.73108 -0.0504,1.6196" />
    <path
       id="path5000"
       style="fill:#cba87b;fill-opacity:1;fill-rule:nonzero;stroke:none;stroke-width:0.0352778"
       d="m 55.633,38.721209 c 0.78705,-0.26071 0.96555,0.59266 0.39935,0.82691 -0.8188,0.33902 -0.77259,-0.70309 -0.39935,-0.82691" />
    <path
       id="path5002"
       style="fill:#cba87b;fill-opacity:1;fill-rule:nonzero;stroke:none;stroke-width:0.0352778"
       d="m 62.8332,36.203079 c 0.629,0.26987 0.27199,0.89464 -0.20638,0.72954 -0.69109,-0.23918 -0.0921,-0.8576 0.20638,-0.72954" />
    <path
       id="path5004"
       style="fill:#cba87b;fill-opacity:1;fill-rule:nonzero;stroke:none;stroke-width:0.0352778"
       d="m 56.91429,37.609949 c 0.4131,0.40394 -0.0582,0.78741 -0.38453,0.51153 -0.47166,-0.39864 0.18839,-0.70344 0.38453,-0.51153" />
    <path
       id="path5006"
       style="fill:#cba87b;fill-opacity:1;fill-rule:nonzero;stroke:none;stroke-width:0.0352778"
       d="m 54.88123,39.545999 c 0.30586,0.29951 -0.043,0.58349 -0.28469,0.37924 -0.34925,-0.29563 0.1397,-0.52106 0.28469,-0.37924" />
    <path
       id="path5008"
       style="fill:#cba87b;fill-opacity:1;fill-rule:nonzero;stroke:none;stroke-width:0.0352778"
       d="m 60.84106,36.299029 c 0.36548,0.42898 -0.0205,0.80398 -0.30727,0.50941 -0.41522,-0.42545 0.1337,-0.71296 0.30727,-0.50941" />
    <path
       id="path5010"
       style="fill:#cba87b;fill-opacity:1;fill-rule:nonzero;stroke:none;stroke-width:0.0352778"
       d="m 62.04968,38.029049 c 0.46884,-0.31256 0.79586,0.11466 0.4699,0.36513 -0.47167,0.36195 -0.69251,-0.21696 -0.4699,-0.36513" />
    <path
       id="path5012"
       style="fill:#cba87b;fill-opacity:1;fill-rule:nonzero;stroke:none;stroke-width:0.0352778"
       d="m 57.73732,38.859489 c 0.52987,-0.17568 0.65017,0.399 0.26882,0.55669 -0.55139,0.22824 -0.52035,-0.47343 -0.26882,-0.55669" />
    <path
       id="path5014"
       style="fill:#b0895b;fill-opacity:1;fill-rule:nonzero;stroke:none;stroke-width:0.0352778"
       d="m 79.47972,36.804559 c -2.16288,-0.35136 -1.53811,-2.56892 0.0755,-2.4257 2.33256,0.20744 0.95038,2.59221 -0.0755,2.4257" />
    <path
       id="path5016"
       style="fill:#b0895b;fill-opacity:1;fill-rule:nonzero;stroke:none;stroke-width:0.0352778"
       d="m 78.10177,39.767539 c -1.42804,-0.23177 -1.01529,-1.69615 0.0501,-1.60161 1.54022,0.13688 0.62759,1.71168 -0.0501,1.60161" />
    <path
       id="path5018"
       style="fill:#b0895b;fill-opacity:1;fill-rule:nonzero;stroke:none;stroke-width:0.0352778"
       d="m 74.58317,36.294799 c 1.17827,-0.39053 1.44568,0.88688 0.59795,1.2379 -1.2259,0.50764 -1.15711,-1.05269 -0.59795,-1.2379" />
    <path
       id="path5020"
       style="fill:#b0895b;fill-opacity:1;fill-rule:nonzero;stroke:none;stroke-width:0.0352778"
       d="m 58.06752,52.782219 c 0.82585,-0.27375 1.01353,0.62195 0.4191,0.86784 -0.85937,0.3556 -0.81104,-0.73802 -0.4191,-0.86784" />
    <path
       id="path5022"
       style="fill:#b0895b;fill-opacity:1;fill-rule:nonzero;stroke:none;stroke-width:0.0352778"
       d="m 59.1502,54.656529 c 0.7112,0.30515 0.30762,1.01177 -0.23284,0.8248 -0.78175,-0.27059 -0.10442,-0.96979 0.23284,-0.8248" />
    <path
       id="path5024"
       style="fill:#b0895b;fill-opacity:1;fill-rule:nonzero;stroke:none;stroke-width:0.0352778"
       d="m 80.43575,30.555459 c -0.64276,0.63288 -1.26683,-0.009 -0.82903,-0.50483 0.63324,-0.71684 1.13383,0.20461 0.82903,0.50483" />
    <path
       id="path5026"
       style="fill:#b0895b;fill-opacity:1;fill-rule:nonzero;stroke:none;stroke-width:0.0352778"
       d="m 80.70386,32.561349 c 1.00224,0.0614 1.00648,1.02024 0.27376,1.02447 -1.0594,0.006 -0.7493,-1.05375 -0.27376,-1.02447" />
    <path
       id="path5028"
       style="fill:#b0895b;fill-opacity:1;fill-rule:nonzero;stroke:none;stroke-width:0.0352778"
       d="m 60.16126,53.484249 c 0.96379,-0.69744 1.68839,0.17745 1.02058,0.73201 -0.9652,0.80187 -1.47778,-0.40146 -1.02058,-0.73201" />
    <path
       id="path5030"
       style="fill:#b0895b;fill-opacity:1;fill-rule:nonzero;stroke:none;stroke-width:0.0352778"
       d="m 62.54427,52.304909 c 0.7934,-0.26317 0.97331,0.59726 0.40252,0.83327 -0.8255,0.34184 -0.77893,-0.70874 -0.40252,-0.83327" />
    <path
       id="path5032"
       style="fill:#9b6439;fill-opacity:1;fill-rule:nonzero;stroke:none;stroke-width:0.0352778"
       d="m 23.97155,44.032269 c -0.43815,-0.0444 -1.32715,0.2921 -2.8321,1.28306 -1.73038,1.13735 -2.48885,2.25001 -2.12796,2.60315 -0.84314,-0.10478 -0.47025,-1.83551 1.54023,-3.15596 1.91735,-1.25871 3.15454,-1.02058 3.41983,-0.73025" />
    <path
       id="path5034"
       style="fill:#b78551;fill-opacity:1;fill-rule:nonzero;stroke:none;stroke-width:0.0352778"
       d="m 22.20307,46.600139 c -1.59385,0.9966 -2.62714,1.36102 -3.14678,1.32222 l -0.0452,-0.003 c -0.35984,-0.35348 0.28998,-1.62101 2.02212,-2.75978 1.50319,-0.98919 2.49908,-1.17122 2.93723,-1.12713 l 0.008,0.003 c 0.0547,0.0614 0.0808,0.14252 0.079,0.24271 0.0116,0.56726 -0.8135,1.67393 -1.8542,2.32233" />
    <path
       id="path5036"
       style="fill:#caa77a;fill-opacity:1;fill-rule:nonzero;stroke:none;stroke-width:0.0352778"
       d="m 22.33501,46.849209 c -1.63936,1.02305 -2.68711,1.37936 -3.19088,1.31621 -0.0607,-0.0607 -0.0896,-0.14252 -0.0878,-0.24306 0.51964,0.0388 1.55293,-0.32562 3.14678,-1.32222 1.0407,-0.6484 1.86584,-1.75507 1.8542,-2.32233 l 0.049,0.002 0.005,0.002 c 0.36935,0.41698 -0.55245,1.80446 -1.77624,2.56752" />
    <path
       id="path5038"
       style="fill:#c59a69;fill-opacity:1;fill-rule:nonzero;stroke:none;stroke-width:0.0352778"
       d="m 22.20307,46.600139 c -1.59385,0.9966 -2.62714,1.36102 -3.14678,1.32222 0.0134,-0.48966 0.78141,-1.41535 2.21686,-2.35903 1.45203,-0.95638 2.33257,-1.30422 2.78412,-1.28552 0.0116,0.56726 -0.8135,1.67393 -1.8542,2.32233" />
    <path
       id="path5040"
       style="fill:#824a29;fill-opacity:1;fill-rule:nonzero;stroke:none;stroke-width:0.0352778"
       d="m 47.50041,51.492469 c -0.88406,-0.8883 -2.97744,-1.67323 -6.27027,-0.93169 -3.17641,0.71543 -6.18807,3.39478 -5.16184,5.55343 -1.95369,-2.09762 0.85866,-5.5439 4.83094,-6.33025 4.02413,-0.79657 6.05966,0.45897 6.60117,1.70851" />
    <path
       id="path5042"
       style="fill:#986339;fill-opacity:1;fill-rule:nonzero;stroke:none;stroke-width:0.0352778"
       d="m 47.5879,52.873939 c -0.54645,2.22815 -4.03225,4.77732 -7.89693,4.55154 -0.0639,-0.006 -0.13229,-0.0102 -0.19685,-0.0137 -1.62454,-0.12877 -2.70545,-0.58773 -3.34468,-1.21815 l -0.0801,-0.0804 c -1.02728,-2.15688 1.61996,-4.90326 5.24969,-5.71218 3.3976,-0.75741 5.29767,0.2025 6.17996,1.09256 0.18521,0.42121 0.20849,0.89358 0.0889,1.38041" />
    <path
       id="path5044"
       style="fill:#af885a;fill-opacity:1;fill-rule:nonzero;stroke:none;stroke-width:0.0352778"
       d="m 36.14944,56.193579 c 2.65782,2.62079 10.42035,0.8308 11.43846,-3.31964 0.067,0.0526 0.12524,0.10831 0.18345,0.16405 0.008,4.77167 -10.48103,7.50711 -11.62191,3.15559" />
    <path
       id="path5046"
       style="fill:#a97c4f;fill-opacity:1;fill-rule:nonzero;stroke:none;stroke-width:0.0352778"
       d="m 47.5879,52.873939 c -0.97331,4.6602 -9.00712,5.71747 -11.43846,3.31964 -0.008,-4.26261 8.77711,-7.21818 11.43846,-3.31964" />
    <path
       id="path5048"
       style="fill:#824a29;fill-opacity:1;fill-rule:nonzero;stroke:none;stroke-width:0.0352778"
       d="m 76.95172,30.045339 c 0.0406,-0.1337 0.0402,-0.27446 -0.004,-0.41875 -0.20284,-1.81998 -3.68758,-2.06516 -4.54307,-0.95179 0.44944,-1.41393 4.25062,-1.9491 4.6796,0.68015 0.0783,0.24483 0.0194,0.47943 -0.13229,0.69039" />
    <path
       id="path5050"
       style="fill:#986339;fill-opacity:1;fill-rule:nonzero;stroke:none;stroke-width:0.0352778"
       d="m 72.96356,30.166339 c -0.30092,-0.3309 -0.47625,-0.6297 -0.55597,-0.8957 -0.0169,-0.0593 -0.031,-0.11677 -0.0395,-0.17462 -0.0212,-0.15135 -0.0127,-0.28928 0.0286,-0.41417 l 0.009,-0.007 c 0.85478,-1.11231 4.33881,-0.86784 4.54025,0.9525 0.0462,0.14464 0.0459,0.28363 0.007,0.41945 -0.0236,0.0332 -0.0501,0.0674 -0.0843,0.0974 -0.72319,0.80962 -2.86526,1.18321 -3.9049,0.0226" />
    <path
       id="path5052"
       style="fill:#af885a;fill-opacity:1;fill-rule:nonzero;stroke:none;stroke-width:0.0352778"
       d="m 72.90747,30.828509 c -0.36689,-0.4057 -0.54786,-0.76377 -0.59267,-1.07174 -0.0212,-0.15134 -0.01,-0.28752 0.0286,-0.41416 l 0.009,-0.007 0.0554,-0.0646 c 0.0797,0.266 0.25505,0.5648 0.55597,0.8957 1.03964,1.16064 3.18171,0.78705 3.9049,-0.0226 0.0116,0.0469 0.018,0.0942 0.024,0.14393 0.0466,0.14464 0.0487,0.2854 0.007,0.41945 -0.63182,0.87454 -2.90724,1.3268 -3.99203,0.12136" />
    <path
       id="path5054"
       style="fill:#a97c4f;fill-opacity:1;fill-rule:nonzero;stroke:none;stroke-width:0.0352778"
       d="m 72.96356,30.166339 c -0.30092,-0.3309 -0.47625,-0.6297 -0.55597,-0.8957 0.91122,-1.00859 4.1028,-0.77999 4.46087,0.87313 -0.72319,0.80962 -2.86526,1.18321 -3.9049,0.0226" />
    <path
       id="path5056"
       style="fill:#69381f;fill-opacity:1;fill-rule:nonzero;stroke:none;stroke-width:0.0352778"
       d="m 60.83506,63.088629 c 0.895,0.17709 2.43311,-0.13794 4.43336,-1.18887 1.02976,-0.53975 2.60103,-1.54199 3.15771,-2.43169 0.4565,-0.74154 0.41699,-1.29717 0.048,-1.62737 0.86396,0.21343 1.41358,1.52612 0.75036,2.60315 -0.55633,0.88971 -2.12795,1.89195 -3.15771,2.4317 -2.63772,1.38571 -4.64961,0.8442 -5.2317,0.21308" />
    <path
       id="path5058"
       style="fill:#7a492a;fill-opacity:1;fill-rule:nonzero;stroke:none;stroke-width:0.0352778"
       d="m 65.82052,58.229459 c 0.88865,-0.41557 1.7967,-0.55985 2.46203,-0.43144 0.0656,0.0102 0.12983,0.0247 0.19015,0.0437 0.37112,0.32844 0.41028,0.88442 -0.0473,1.6256 -0.55527,0.89077 -2.12725,1.89265 -3.1563,2.43276 -2.00131,1.05092 -3.53942,1.3656 -4.43407,1.18815 l -0.006,-0.005 c -0.10477,-0.11924 -0.16756,-0.26458 -0.17921,-0.43109 -0.0829,-0.9652 1.43122,-2.66983 5.17067,-4.42243" />
    <path
       id="path5060"
       style="fill:#936b46;fill-opacity:1;fill-rule:nonzero;stroke:none;stroke-width:0.0352778"
       d="m 65.37073,57.757449 c 0.97966,-0.45685 1.97908,-0.5835 2.65465,-0.38806 0.12912,0.11642 0.21837,0.25929 0.25717,0.42863 -0.66533,-0.12841 -1.57338,0.0159 -2.46203,0.43144 -3.73945,1.7526 -5.25357,3.45723 -5.17067,4.42243 -0.0949,-0.007 -0.18309,-0.019 -0.26458,-0.0356 l -0.003,-0.006 c -0.72461,-0.80504 0.60183,-2.79717 4.98863,-4.85316" />
    <path
       id="path5062"
       style="fill:#8f633f;fill-opacity:1;fill-rule:nonzero;stroke:none;stroke-width:0.0352778"
       d="m 65.82052,58.229459 c 0.88865,-0.41557 1.7967,-0.55985 2.46203,-0.43144 0.0766,0.31362 -0.008,0.71755 -0.30515,1.19909 -0.55703,0.88865 -2.12901,1.89054 -3.15807,2.43099 -1.81433,0.95426 -3.25084,1.30069 -4.16948,1.22379 -0.0829,-0.9652 1.43122,-2.66983 5.17067,-4.42243" />
    <path
       id="path5064"
       style="fill:#824a29;fill-opacity:1;fill-rule:nonzero;stroke:none;stroke-width:0.0352778"
       d="m 67.00832,47.064749 c -0.55527,-0.44873 -1.52682,-0.58808 -2.80811,-0.11465 -0.65934,0.24236 -1.67076,0.79446 -2.04364,1.53564 -0.30621,0.61983 -0.29704,1.19909 -0.0751,1.64642 -0.53517,-0.47696 -0.76483,-1.27247 -0.31997,-2.17276 0.37288,-0.74154 1.3843,-1.29364 2.04399,-1.536 1.68945,-0.62406 2.85609,-0.17709 3.20287,0.64135" />
    <path
       id="path5066"
       style="fill:#986339;fill-opacity:1;fill-rule:nonzero;stroke:none;stroke-width:0.0352778"
       d="m 63.75183,50.529379 c -0.59231,0.16546 -1.18675,0.0236 -1.60197,-0.33619 l -0.0691,-0.06 c -0.22154,-0.44732 -0.22895,-1.02623 0.0759,-1.64888 0.37324,-0.74119 1.38218,-1.29011 2.04399,-1.53564 1.28235,-0.47202 2.25319,-0.33267 2.80811,0.11606 l 0.003,0.007 c 0.0469,0.11289 0.0794,0.23425 0.0896,0.36195 0.12312,1.02764 -0.8516,2.39854 -3.34927,3.09527" />
    <path
       id="path5068"
       style="fill:#af885a;fill-opacity:1;fill-rule:nonzero;stroke:none;stroke-width:0.0352778"
       d="m 63.94833,50.974939 c -0.62301,0.17216 -1.25025,0.002 -1.67041,-0.40005 -0.0582,-0.11959 -0.10195,-0.248 -0.12806,-0.3817 0.41522,0.35983 1.00966,0.50165 1.60197,0.33619 2.49767,-0.69673 3.47239,-2.06763 3.34927,-3.09527 0.0384,0.0198 0.072,0.0441 0.10478,0.0723 l 0.003,0.007 c 0.42933,1.03964 -0.45473,2.67476 -3.26037,3.4611" />
    <path
       id="path5070"
       style="fill:#a97c4f;fill-opacity:1;fill-rule:nonzero;stroke:none;stroke-width:0.0352778"
       d="m 63.75183,50.529379 c -0.59231,0.16546 -1.18675,0.0236 -1.60197,-0.33619 -0.0744,-0.37465 -0.0194,-0.81139 0.20391,-1.26718 0.37324,-0.74119 1.38218,-1.29011 2.04435,-1.53564 1.20544,-0.44591 2.13713,-0.34573 2.70298,0.0437 0.12312,1.02764 -0.8516,2.39854 -3.34927,3.09527" />
    <path
       id="path5072"
       style="fill:#69381f;fill-opacity:1;fill-rule:nonzero;stroke:none;stroke-width:0.0352778"
       d="m 21.70142,68.790569 c 0.75424,0.95533 2.39501,1.82704 4.88421,2.16288 1.28094,0.17463 3.33481,0.21908 4.35927,-0.43038 0.84667,-0.54716 1.11796,-1.27106 0.94968,-1.98473 0.7045,0.97543 0.71402,2.12584 -0.51646,2.92064 -1.02412,0.64947 -3.07799,0.60502 -4.35893,0.43075 -3.28295,-0.44309 -5.11351,-1.83621 -5.31777,-3.09916" />
    <path
       id="path5074"
       style="fill:#7a492a;fill-opacity:1;fill-rule:nonzero;stroke:none;stroke-width:0.0352778"
       d="m 29.15174,66.840419 c 1.11795,0.22366 2.09408,0.82973 2.6543,1.56774 0.0307,0.0423 0.0596,0.0875 0.0907,0.13018 0.16827,0.71437 -0.10654,1.43651 -0.95144,1.98508 -1.02659,0.64805 -3.08046,0.60536 -4.35928,0.42968 -2.49026,-0.33478 -4.13244,-1.2072 -4.88244,-2.16358 l -0.004,-0.0106 c -0.0254,-0.17251 -0.0226,-0.34466 0.0159,-0.51117 0.29246,-1.3582 2.69523,-2.35903 7.43586,-1.42734" />
    <path
       id="path5076"
       style="fill:#936b46;fill-opacity:1;fill-rule:nonzero;stroke:none;stroke-width:0.0352778"
       d="m 29.02121,66.151439 c 1.18709,0.23742 2.21333,0.89888 2.74496,1.69757 0.0427,0.18768 0.0568,0.37536 0.0399,0.55915 -0.56022,-0.73801 -1.53635,-1.34408 -2.6543,-1.56774 -4.74063,-0.93169 -7.1434,0.0691 -7.43586,1.42734 -0.0497,-0.0554 -0.0995,-0.11078 -0.14287,-0.16722 l 0.001,-0.009 c -0.24554,-1.59738 2.12548,-2.9845 7.44714,-1.93993" />
    <path
       id="path5078"
       style="fill:#8f633f;fill-opacity:1;fill-rule:nonzero;stroke:none;stroke-width:0.0352778"
       d="m 29.15174,66.840419 c 1.11795,0.22366 2.09408,0.82973 2.6543,1.56774 -0.0522,0.52141 -0.36231,1.02306 -0.99131,1.42628 -1.022,0.64947 -3.07375,0.60396 -4.35928,0.42969 -2.33962,-0.31574 -3.93523,-1.10561 -4.73957,-1.99637 0.29246,-1.3582 2.69523,-2.35903 7.43586,-1.42734" />
    <path
       id="path5080"
       style="fill:#69381f;fill-opacity:1;fill-rule:nonzero;stroke:none;stroke-width:0.0352778"
       d="m 88.84632,44.994649 c 0.39617,0.0423 0.93592,-0.54045 1.17934,-1.50283 0.27164,-1.05728 0.10583,-1.8482 -0.20461,-2.16323 0.45861,0.0811 0.97014,0.98813 0.63853,2.2987 -0.30339,1.1878 -1.23472,1.78858 -1.61326,1.36736" />
    <path
       id="path5082"
       style="fill:#7a492a;fill-opacity:1;fill-rule:nonzero;stroke:none;stroke-width:0.0352778"
       d="m 88.65512,43.509109 c 0.0257,-0.20744 0.0564,-0.40217 0.0945,-0.57539 0.18592,-0.88088 0.47872,-1.36736 0.76447,-1.53528 0.10584,-0.067 0.21167,-0.0896 0.30692,-0.0706 0.31044,0.31433 0.47625,1.10455 0.20461,2.16394 -0.24694,0.96414 -0.78317,1.54552 -1.17898,1.50354 l -0.0515,-0.0713 c -0.1584,-0.23672 -0.23213,-0.69568 -0.14005,-1.41499" />
    <path
       id="path5084"
       style="fill:#936b46;fill-opacity:1;fill-rule:nonzero;stroke:none;stroke-width:0.0352778"
       d="m 88.29352,43.515809 c 0.0275,-0.20955 0.0589,-0.40111 0.0949,-0.57221 0.25612,-1.20438 0.70661,-1.67499 1.0728,-1.60902 l 0.0529,0.0639 c -0.28575,0.16792 -0.57855,0.6544 -0.76447,1.53528 -0.0381,0.17322 -0.0688,0.36795 -0.0945,0.57539 -0.0921,0.71931 -0.0184,1.17827 0.14005,1.41499 -0.10724,0.0635 -0.21237,0.0889 -0.31009,0.078 -0.19297,-0.21414 -0.29104,-0.6918 -0.19156,-1.48625" />
    <path
       id="path5086"
       style="fill:#8f633f;fill-opacity:1;fill-rule:nonzero;stroke:none;stroke-width:0.0352778"
       d="m 88.65512,43.509109 c 0.0257,-0.20744 0.0564,-0.40217 0.0945,-0.57539 0.18592,-0.88088 0.47872,-1.36736 0.76447,-1.53528 0.27517,0.34995 0.4057,1.10772 0.1517,2.10008 -0.18697,0.72637 -0.53764,1.23614 -0.87066,1.42558 -0.1584,-0.23672 -0.23213,-0.69568 -0.14005,-1.41499" />
  </g>
</svg>
