<?xml version="1.0" encoding="UTF-8" standalone="no"?>
<!-- Created with Inkscape (http://www.inkscape.org/) -->

<svg
   width="100"
   height="100"
   viewBox="0 0 26.458332 26.458333"
   version="1.1"
   id="svg12949"
   inkscape:version="1.2.1 (9c6d41e410, 2022-07-14)"
   sodipodi:docname="asteroid-whole-9.svg"
   xmlns:inkscape="http://www.inkscape.org/namespaces/inkscape"
   xmlns:sodipodi="http://sodipodi.sourceforge.net/DTD/sodipodi-0.dtd"
   xmlns="http://www.w3.org/2000/svg"
   xmlns:svg="http://www.w3.org/2000/svg">
  <sodipodi:namedview
     id="namedview12951"
     pagecolor="#505050"
     bordercolor="#ffffff"
     borderopacity="1"
     inkscape:showpageshadow="0"
     inkscape:pageopacity="0"
     inkscape:pagecheckerboard="1"
     inkscape:deskcolor="#505050"
     inkscape:document-units="px"
     showgrid="false"
     inkscape:zoom="0.74564394"
     inkscape:cx="-78.455677"
     inkscape:cy="135.45339"
     inkscape:window-width="1920"
     inkscape:window-height="1017"
     inkscape:window-x="-8"
     inkscape:window-y="-8"
     inkscape:window-maximized="1"
     inkscape:current-layer="layer1" />
  <defs
     id="defs12946" />
  <g
     inkscape:label="Warstwa 1"
     inkscape:groupmode="layer"
     id="layer1"
     transform="translate(-125.96054,-113.27529)">
    <path
       d="m 152.12841,132.09672 c -0.16862,1.19604 -1.12825,1.85481 -1.99604,2.24766 -1.29002,0.58737 -2.62939,0.98041 -3.98521,1.17292 -0.0699,0.0115 -0.13846,0.0193 -0.20838,0.029 -0.9048,0.11364 -1.83564,0.14625 -2.67326,0.61232 -1.15156,0.64529 -1.98233,2.03967 -3.10784,2.75417 -1.55735,0.98623 -3.42178,0.52581 -5.02162,-0.33129 -0.81021,-0.4353 -1.59437,-0.96675 -2.44021,-1.23831 -1.64098,-0.52964 -3.39984,-0.0539 -5.03122,-0.6298 -0.38934,-0.13678 -0.78141,-0.34478 -1.05422,-0.73763 -0.40853,-0.57972 -0.45514,-1.40222 -0.3112,-2.19376 1.34897,0.077 2.86793,-0.62598 3.50266,0.9784 0.28789,0.72798 0.94181,1.02084 1.53678,1.24796 1.81371,0.6992 1.32155,-3.41476 3.74394,-0.93014 3.36283,3.44754 2.45529,0.41799 3.16816,-0.44112 0.38523,-0.46024 1.00899,-0.16938 1.50114,-0.39085 1.25986,-0.57007 0.0836,-1.59673 3.20517,-1.93186 3.76177,-0.4005 3.03244,-4.11778 4.11134,-5.70286 0.24128,-0.35625 0.98157,-0.99953 -0.037,-2.62304 -1.60259,-2.55966 -0.0631,-2.67913 0.30297,-4.14674 0.41264,-1.63516 -0.95552,-2.09158 -0.80061,-4.61846 0.61828,0.19652 1.23382,0.39869 1.85072,0.59903 0.6265,0.20398 1.32429,0.48337 1.61767,1.24613 0.47707,1.25178 -0.49901,2.71174 -0.32902,4.09848 0.17685,1.45977 1.49977,2.1781 1.92749,3.54371 0.42361,1.35013 -0.14394,2.90625 0.0356,4.3489 0.12886,1.03232 0.63746,2.00872 0.49215,3.03721"
       style="fill:#7e5130;fill-opacity:1;fill-rule:nonzero;stroke:none;stroke-width:0.0158014"
       id="path4000" />
    <path
       d="m 147.0684,126.6115 c -1.0789,1.58507 -0.34957,5.30236 -4.11134,5.70286 -3.12155,0.33512 -1.94531,1.36178 -3.20517,1.93185 -0.49215,0.22148 -1.11591,-0.0694 -1.50114,0.39086 -0.71287,0.8591 0.19467,3.88866 -3.16816,0.44112 -2.42239,-2.48463 -1.93023,1.62933 -3.74394,0.93013 -0.59497,-0.22711 -1.24889,-0.51998 -1.53678,-1.24795 -0.63473,-1.60439 -2.15369,-0.90137 -3.50266,-0.9784 0.0822,-0.43147 0.21935,-0.85511 0.39071,-1.22301 0.34958,-0.75693 0.81157,-1.42717 1.15704,-2.18028 1.51348,1.12301 3.37928,1.07093 4.2265,0.30434 1.10906,-1.00336 1.12551,-1.48873 2.36755,-0.36007 3.43274,3.11807 6.28422,-2.58862 6.31164,-2.62323 0.96238,-1.18821 2.69245,-1.76994 2.35932,-3.17981 -1.11043,-4.67237 -0.26458,-0.68754 1.72597,-9.81663 0.56756,0.16755 1.13237,0.34094 1.69581,0.51998 -0.15491,2.52687 1.21325,2.98329 0.80061,4.61846 -0.36603,1.4676 -1.90556,1.58708 -0.30297,4.14674 1.01858,1.6235 0.27829,2.26679 0.037,2.62304"
       style="fill:#9e6f43;fill-opacity:1;fill-rule:nonzero;stroke:none;stroke-width:0.0158014"
       id="path4002" />
    <path
       d="m 143.11197,124.51991 c 0.33313,1.40987 -1.39694,1.9916 -2.35932,3.17981 -0.0274,0.0346 -2.8789,5.7413 -6.31164,2.62323 -1.24204,-1.12866 -1.25849,-0.64329 -2.36755,0.36007 -0.84722,0.76659 -2.71302,0.81867 -4.2265,-0.30434 0.13161,-0.28686 0.24539,-0.58737 0.33039,-0.90701 0.15354,-0.58555 0.19878,-1.21918 0.39208,-1.78342 0.37288,-1.08058 1.21325,-1.71421 1.85346,-2.55201 1.79726,2.16097 3.2134,-0.50851 4.61309,-0.0539 1.37639,0.44677 2.73495,-0.67407 3.90845,-1.74499 1.86991,-1.70638 0.97197,-5.9165 3.89473,-9.17153 0.66764,0.16191 1.33527,0.34477 1.99878,0.53747 -1.99055,9.12909 -2.8364,5.14426 -1.72597,9.81663"
       style="fill:#bf9460;fill-opacity:1;fill-rule:nonzero;stroke:none;stroke-width:0.0158014"
       id="path4004" />
    <path
       d="m 142.83916,114.16581 c -2.92276,3.25503 -2.02482,7.46515 -3.89473,9.17153 -1.1735,1.07092 -2.53206,2.19176 -3.90845,1.74499 -1.39969,-0.4546 -2.81583,2.21488 -4.61309,0.0539 0.19741,-0.25808 0.37563,-0.53546 0.51409,-0.85309 0.4003,-0.91102 0.42772,-2.02821 0.73617,-3.00078 0.47297,-1.5004 1.5409,-2.49027 2.55811,-3.39929 0,0 0.0781,-0.0676 0.20701,-0.18486 0.71698,-0.84945 1.43396,-1.70073 2.15232,-2.55201 0.4661,-0.55276 0.94729,-1.117 1.53678,-1.39238 0.63062,-0.29469 1.32566,-0.2293 1.99192,-0.13114 0.91166,0.13496 1.81782,0.32165 2.71987,0.54312"
       style="fill:#d3ae7e;fill-opacity:1;fill-rule:nonzero;stroke:none;stroke-width:0.0158014"
       id="path4006" />
    <path
       d="m 139.40094,126.86648 c -0.36329,-0.35989 -0.94044,-0.48538 -1.64509,-0.13769 -0.36191,0.17794 -0.90068,0.59156 -1.05285,1.16381 -0.12201,0.47882 -0.0658,0.93105 0.10419,1.2842 -0.3537,-0.38138 -0.55933,-1.00645 -0.37974,-1.70182 0.1508,-0.57244 0.68956,-0.98606 1.05148,-1.16418 0.9281,-0.45824 1.64783,-0.0892 1.92201,0.55568"
       style="fill:#9b6439;fill-opacity:1;fill-rule:nonzero;stroke:none;stroke-width:0.0158014"
       id="path4008" />
    <path
       d="m 137.81618,129.5172 c -0.27556,0.0983 -0.57167,0.03 -0.81981,-0.16246 -0.0672,-0.0503 -0.13023,-0.11183 -0.18918,-0.1783 -0.16862,-0.35315 -0.2262,-0.80502 -0.10419,-1.28457 0.15217,-0.57207 0.69094,-0.98623 1.05422,-1.16327 0.70328,-0.34805 1.28043,-0.22128 1.64372,0.13824 l 0.004,0.005 c 0.0301,0.0736 0.0548,0.15134 0.0727,0.23166 0.19329,0.80811 -0.23991,1.89907 -1.66154,2.41377"
       style="fill:#b78551;fill-opacity:1;fill-rule:nonzero;stroke:none;stroke-width:0.0158014"
       id="path4010" />
    <path
       d="m 138.09035,129.9106 c -0.3482,0.12385 -0.72932,-0.018 -1.00898,-0.3393 -0.0329,-0.0679 -0.0631,-0.14097 -0.085,-0.21656 0.24814,0.19251 0.54425,0.26081 0.81981,0.16246 1.42162,-0.5147 1.85483,-1.60566 1.66153,-2.41377 0.0727,0.0435 0.13846,0.0978 0.19878,0.15663 l 0.002,0.007 c 0.3441,0.81977 -0.026,2.08047 -1.5875,2.64398"
       style="fill:#caa77a;fill-opacity:1;fill-rule:nonzero;stroke:none;stroke-width:0.0158014"
       id="path4012" />
    <path
       d="m 137.81618,129.5172 c -0.27556,0.0983 -0.57167,0.03 -0.81981,-0.16246 -0.10007,-0.31399 -0.11652,-0.68153 -0.0178,-1.06765 0.15081,-0.57188 0.68957,-0.98605 1.05286,-1.16326 0.58812,-0.29087 1.08713,-0.25243 1.4463,-0.0204 0.1933,0.8081 -0.2399,1.89907 -1.66153,2.41377"
       style="fill:#c59a69;fill-opacity:1;fill-rule:nonzero;stroke:none;stroke-width:0.0158014"
       id="path4014" />
    <path
       d="m 132.76165,132.74164 c -0.23442,-0.2681 -0.62924,-0.35989 -1.13511,-0.0969 -0.26047,0.1346 -0.65666,0.44622 -0.79101,0.87532 -0.10967,0.3588 -0.0932,0.6972 0.005,0.96092 -0.2262,-0.28431 -0.33587,-0.75129 -0.17547,-1.27254 0.13434,-0.4291 0.52917,-0.74073 0.78964,-0.8755 0.66762,-0.3466 1.14881,-0.073 1.30647,0.4087"
       style="fill:#824a29;fill-opacity:1;fill-rule:nonzero;stroke:none;stroke-width:0.0158014"
       id="path4016" />
    <path
       d="m 131.5251,134.73177 c -0.24814,0.0942 -0.50587,-0.0107 -0.68409,-0.25152 -0.008,-0.0228 -0.0164,-0.0452 -0.0219,-0.0688 -0.0795,-0.25134 -0.0836,-0.5626 0.0164,-0.89062 0.13571,-0.43019 0.53054,-0.7409 0.79101,-0.87623 0.50723,-0.26318 0.90068,-0.17065 1.13511,0.0971 l 0.002,0.004 c 0.0315,0.10127 0.0507,0.21091 0.0521,0.32674 0.0164,0.58373 -0.36191,1.30114 -1.29002,1.65994"
       style="fill:#986339;fill-opacity:1;fill-rule:nonzero;stroke:none;stroke-width:0.0158014"
       id="path4018" />
    <path
       d="m 131.5813,135.06252 c -0.24813,0.0942 -0.50586,-0.0107 -0.68271,-0.24988 -0.0452,-0.12021 -0.074,-0.25462 -0.0795,-0.40123 0.005,0.0237 0.0137,0.0461 0.0219,0.0688 0.17822,0.24078 0.43595,0.34568 0.68408,0.25152 0.9281,-0.35879 1.30647,-1.0762 1.29002,-1.65993 l 0.002,0.002 0.002,0.004 c 0.19741,0.61214 -0.12338,1.55776 -1.23656,1.98522"
       style="fill:#af885a;fill-opacity:1;fill-rule:nonzero;stroke:none;stroke-width:0.0158014"
       id="path4020" />
    <path
       d="m 131.5251,134.73177 c -0.24814,0.0942 -0.50587,-0.0107 -0.68409,-0.25152 -0.008,-0.0228 -0.0164,-0.0452 -0.0219,-0.0688 -0.01,-0.17394 0.0123,-0.36372 0.0727,-0.55987 0.13435,-0.42874 0.53054,-0.74091 0.79102,-0.87495 0.50449,-0.26191 0.89931,-0.17249 1.13236,0.0953 0.0164,0.58373 -0.36192,1.30114 -1.29002,1.65993"
       style="fill:#a97c4f;fill-opacity:1;fill-rule:nonzero;stroke:none;stroke-width:0.0158014"
       id="path4022" />
    <path
       d="m 143.24495,128.27526 c -0.63472,0.10053 -0.9939,0.72633 -1.01995,1.23575 -0.17273,-0.52781 0.19056,-1.46378 0.98431,-1.5889 0.51135,-0.0834 0.78827,0.30106 0.74714,0.7593 -0.0918,-0.27702 -0.34135,-0.46517 -0.7115,-0.40615"
       style="fill:#824a29;fill-opacity:1;fill-rule:nonzero;stroke:none;stroke-width:0.0158014"
       id="path4024" />
    <path
       d="m 143.35051,129.61501 c -0.5182,0.33147 -0.85681,0.29086 -1.02818,0.079 -0.0425,-0.0512 -0.0754,-0.11365 -0.0973,-0.18304 0.026,-0.50978 0.38523,-1.13522 1.01995,-1.23575 0.36878,-0.059 0.61828,0.12931 0.7115,0.40633 -0.003,0.0268 -0.007,0.0534 -0.011,0.0807 -0.0507,0.30343 -0.24128,0.62434 -0.59497,0.85274"
       style="fill:#986339;fill-opacity:1;fill-rule:nonzero;stroke:none;stroke-width:0.0158014"
       id="path4026" />
    <path
       d="m 143.43962,129.88802 c -0.64432,0.4127 -1.01173,0.24751 -1.12551,-0.10418 0.002,-0.0295 0.004,-0.0597 0.008,-0.0898 0.17136,0.21182 0.50998,0.25243 1.02818,-0.079 0.35369,-0.2284 0.54425,-0.54931 0.59497,-0.85274 0.0425,0.0566 0.0768,0.12112 0.10008,0.1916 -0.0302,0.3262 -0.21935,0.68445 -0.60594,0.93415"
       style="fill:#af885a;fill-opacity:1;fill-rule:nonzero;stroke:none;stroke-width:0.0158014"
       id="path4028" />
    <path
       d="m 143.35051,129.61501 c -0.5182,0.33147 -0.85681,0.29086 -1.02818,0.079 0.0617,-0.49157 0.41539,-1.05217 1.01173,-1.14596 0.27692,-0.0445 0.4853,0.0494 0.61142,0.21418 -0.0507,0.30343 -0.24127,0.62434 -0.59497,0.85274"
       style="fill:#a97c4f;fill-opacity:1;fill-rule:nonzero;stroke:none;stroke-width:0.0158014"
       id="path4030" />
    <path
       d="m 148.34472,133.68544 c 0.27006,0.10326 0.75537,-0.0332 1.40929,-0.53565 0.33724,-0.25808 0.85681,-0.74237 1.05833,-1.18494 0.16725,-0.36899 0.17411,-0.6513 0.0713,-0.82432 0.2591,0.12148 0.35918,0.46352 0.11653,0.99953 -0.20153,0.44258 -0.7211,0.92686 -1.05834,1.18512 -0.8623,0.66259 -1.43945,0.689 -1.5971,0.36026"
       style="fill:#69381f;fill-opacity:1;fill-rule:nonzero;stroke:none;stroke-width:0.0158014"
       id="path4032" />
    <path
       d="m 150.05149,131.29698 c 0.28789,-0.19615 0.57304,-0.25553 0.77456,-0.18231 0.0206,0.007 0.0398,0.0156 0.0576,0.0255 0.10282,0.17339 0.0946,0.45551 -0.0699,0.82396 -0.20289,0.44367 -0.72246,0.92704 -1.0597,1.18603 -0.65392,0.50177 -1.13923,0.63819 -1.40929,0.53528 l -0.002,-0.003 c -0.0288,-0.0617 -0.0425,-0.13641 -0.0411,-0.22074 0.007,-0.48956 0.53465,-1.3321 1.74927,-2.16461"
       style="fill:#7a492a;fill-opacity:1;fill-rule:nonzero;stroke:none;stroke-width:0.0158014"
       id="path4034" />
    <path
       d="m 149.92948,131.0511 c 0.31805,-0.21619 0.63062,-0.26609 0.83214,-0.15681 0.0356,0.0607 0.059,0.13387 0.0644,0.22038 -0.20152,-0.0732 -0.48667,-0.0138 -0.77456,0.18231 -1.21462,0.83252 -1.74242,1.67505 -1.74927,2.16462 -0.0288,-0.005 -0.0548,-0.0118 -0.0795,-0.0218 l -0.002,-0.003 c -0.19467,-0.41945 0.28378,-1.40896 1.70815,-2.38536"
       style="fill:#936b46;fill-opacity:1;fill-rule:nonzero;stroke:none;stroke-width:0.0158014"
       id="path4036" />
    <path
       d="m 150.05149,131.29698 c 0.28789,-0.19615 0.57304,-0.25553 0.77456,-0.18231 0.0137,0.161 -0.0274,0.36462 -0.13572,0.60504 -0.20152,0.44203 -0.72246,0.92685 -1.05834,1.18457 -0.5936,0.45587 -1.04737,0.6105 -1.32977,0.55732 0.007,-0.48957 0.53465,-1.3321 1.74927,-2.16462"
       style="fill:#8f633f;fill-opacity:1;fill-rule:nonzero;stroke:none;stroke-width:0.0158014"
       id="path4038" />
    <path
       d="m 141.08989,135.46539 c 0.23168,0.16939 0.56893,0.27921 0.94593,0.21 0.7348,-0.13969 0.75674,-0.50104 0.48941,-0.80538 0.43183,0.32365 0.61005,0.81703 -0.29475,0.98569 -0.5086,0.0964 -0.95003,-0.13496 -1.14059,-0.39031"
       style="fill:#69381f;fill-opacity:1;fill-rule:nonzero;stroke:none;stroke-width:0.0158014"
       id="path4040" />
    <path
       d="m 140.98159,135.1627 0.003,-0.006 c 0.0713,-0.40306 0.4291,-0.63017 0.84448,-0.58264 0.23442,0.0288 0.49079,0.1417 0.69094,0.28722 l 0.007,0.009 0.0137,0.016 c 0.25225,0.30215 0.21661,0.65312 -0.50449,0.78917 -0.37563,0.0705 -0.71287,-0.0393 -0.9473,-0.20963 -0.0823,-0.10273 -0.12338,-0.21164 -0.10692,-0.30252"
       style="fill:#7a492a;fill-opacity:1;fill-rule:nonzero;stroke:none;stroke-width:0.0158014"
       id="path4042" />
    <path
       d="m 140.95143,134.97273 c 0.0713,-0.40706 0.43183,-0.63527 0.84859,-0.58737 0.23443,0.0273 0.6457,0.37646 0.6457,0.37646 0.0356,0.0421 0.0685,0.0841 0.0946,0.12385 l -0.0137,-0.016 -0.007,-0.009 c -0.20015,-0.14552 -0.45651,-0.25844 -0.69093,-0.28722 -0.41538,-0.0475 -0.77319,0.17958 -0.84448,0.58264 -0.0329,-0.0643 -0.0439,-0.12658 -0.0329,-0.18359"
       style="fill:#936b46;fill-opacity:1;fill-rule:nonzero;stroke:none;stroke-width:0.0158014"
       id="path4044" />
    <path
       d="m 140.98433,135.15632 c 0.0713,-0.40306 0.4291,-0.63017 0.84448,-0.58264 0.23442,0.0288 0.49078,0.1417 0.69093,0.28722 l 0.007,0.009 0.0137,0.016 c 0.16588,0.25589 0.0987,0.48064 -0.53328,0.60067 -0.377,0.069 -0.71561,-0.0408 -0.94729,-0.20945 -0.0315,-0.0392 -0.059,-0.0805 -0.0754,-0.12057"
       style="fill:#8f633f;fill-opacity:1;fill-rule:nonzero;stroke:none;stroke-width:0.0158014"
       id="path4046" />
    <path
       d="m 146.36924,117.66216 c -0.29611,-0.17503 -0.72383,-0.0759 -0.94729,0.3353 -0.24676,0.45205 -0.15628,0.93033 0.0658,1.21609 -0.33998,-0.21856 -0.5511,-0.82232 -0.24676,-1.38237 0.27692,-0.50742 0.86093,-0.53656 1.12825,-0.16902"
       style="fill:#824a29;fill-opacity:1;fill-rule:nonzero;stroke:none;stroke-width:0.0158014"
       id="path4048" />
    <path
       d="m 146.45287,118.51617 c -0.0274,0.0993 -0.0589,0.18942 -0.0932,0.26591 -0.17411,0.38302 -0.40716,0.52873 -0.62514,0.51379 -0.0877,-0.003 -0.16999,-0.0331 -0.24676,-0.0827 -0.22208,-0.28539 -0.31256,-0.76312 -0.0658,-1.21517 0.22346,-0.41161 0.65118,-0.51069 0.94729,-0.33658 0.0178,0.0257 0.0356,0.0526 0.0507,0.0812 0.0973,0.18614 0.12612,0.44604 0.0329,0.77351"
       style="fill:#986339;fill-opacity:1;fill-rule:nonzero;stroke:none;stroke-width:0.0158014"
       id="path4050" />
    <path
       d="m 146.7531,118.67553 c -0.0288,0.0991 -0.0603,0.18924 -0.0946,0.26573 -0.24128,0.53328 -0.60045,0.60704 -0.87052,0.43129 -0.0192,-0.0241 -0.0384,-0.0497 -0.0535,-0.0767 0.21798,0.0149 0.45103,-0.13077 0.62514,-0.51379 0.0343,-0.0765 0.0658,-0.16665 0.0932,-0.26591 0.0932,-0.32747 0.0644,-0.58737 -0.0329,-0.77351 0.0877,0.006 0.17274,0.033 0.24951,0.0781 0.13709,0.18778 0.19056,0.47608 0.0836,0.85473"
       style="fill:#af885a;fill-opacity:1;fill-rule:nonzero;stroke:none;stroke-width:0.0158014"
       id="path4052" />
    <path
       d="m 146.45287,118.51617 c -0.0274,0.0993 -0.0589,0.18942 -0.0932,0.26591 -0.17411,0.38302 -0.40716,0.52873 -0.62514,0.51379 -0.18096,-0.28995 -0.23853,-0.72561 -0.0137,-1.13868 0.16588,-0.30489 0.44554,-0.43857 0.69916,-0.41453 0.0973,0.18614 0.12612,0.44604 0.0329,0.77351"
       style="fill:#a97c4f;fill-opacity:1;fill-rule:nonzero;stroke:none;stroke-width:0.0158014"
       id="path4054" />
    <path
       d="m 138.77718,117.11377 c -0.007,-0.0182 -0.0151,-0.0342 -0.0247,-0.0504 -0.77045,-1.2476 -2.50738,0.22074 -2.61431,1.16308 -0.31531,-0.87113 1.14059,-3.15541 2.58552,-1.44866 0.0658,0.0778 0.0727,0.2089 0.0535,0.33603"
       style="fill:#ad7748;fill-opacity:1;fill-rule:nonzero;stroke:none;stroke-width:0.0158014"
       id="path4056" />
    <path
       d="m 137.35692,118.57828 c -0.54973,0.0823 -0.89109,0.0125 -1.07616,-0.14498 l -0.002,-0.001 c -0.0672,-0.0574 -0.11242,-0.1264 -0.14121,-0.20344 v -0.003 c 0.10556,-1.60894 1.73282,-2.3167 2.53617,-1.27418 l 0.002,0.001 c 0.026,0.0344 0.0521,0.0712 0.0768,0.11037 0.01,0.0159 0.0178,0.0322 0.0247,0.0503 -0.0877,0.56971 -0.8431,1.38073 -1.42025,1.46451"
       style="fill:#cb9e69;fill-opacity:1;fill-rule:nonzero;stroke:none;stroke-width:0.0158014"
       id="path4058" />
    <path
       d="m 137.45974,118.82834 c -0.66626,0.0989 -1.03229,-0.16282 -1.17898,-0.39504 0.18507,0.15755 0.52643,0.2273 1.07616,0.14498 0.57715,-0.0838 1.33252,-0.89481 1.42026,-1.46451 -0.007,-0.018 -0.0151,-0.0344 -0.0247,-0.0503 -0.0247,-0.0391 -0.0507,-0.076 -0.0768,-0.11037 0.0617,0.061 0.12064,0.13442 0.17273,0.22075 0.011,0.0166 0.0178,0.033 0.026,0.051 0.0315,0.7105 -0.83762,1.51897 -1.41477,1.60348"
       style="fill:#dcbe93;fill-opacity:1;fill-rule:nonzero;stroke:none;stroke-width:0.0158014"
       id="path4060" />
    <path
       d="m 137.35692,118.57828 c -0.54973,0.0823 -0.89109,0.0125 -1.07616,-0.14498 l -0.002,-0.001 c -0.0178,-0.0295 -0.0329,-0.0606 -0.0439,-0.0931 l -0.002,-0.002 c 0.10008,-0.87695 1.60944,-2.20924 2.44021,-1.38528 l 0.002,0.001 c 0.026,0.0344 0.0521,0.0712 0.0768,0.11037 0.01,0.0159 0.0178,0.0322 0.0247,0.0503 -0.0877,0.5697 -0.84311,1.38073 -1.42026,1.46451"
       style="fill:#d4ae82;fill-opacity:1;fill-rule:nonzero;stroke:none;stroke-width:0.0158014"
       id="path4062" />
    <path
       d="m 145.88668,128.6703 c -0.16862,0.85218 -0.7252,0.57899 -0.62924,-0.0581 0.13709,-0.92104 0.71013,-0.34623 0.62924,0.0581"
       style="fill:#b0895b;fill-opacity:1;fill-rule:nonzero;stroke:none;stroke-width:0.0158014"
       id="path4064" />
    <path
       d="m 144.77762,130.40418 c 0.28378,-0.34569 0.49079,0.0193 0.29475,0.29067 -0.28515,0.39232 -0.42909,-0.12676 -0.29475,-0.29067"
       style="fill:#b0895b;fill-opacity:1;fill-rule:nonzero;stroke:none;stroke-width:0.0158014"
       id="path4066" />
    <path
       d="m 143.78509,131.11722 c 0.19741,-0.24096 0.34136,0.0135 0.20426,0.20271 -0.19878,0.27356 -0.29885,-0.0883 -0.20426,-0.20271"
       style="fill:#b0895b;fill-opacity:1;fill-rule:nonzero;stroke:none;stroke-width:0.0158014"
       id="path4068" />
    <path
       d="m 138.30559,124.99509 c 0.26732,-0.34277 0.52094,0.10472 0.33861,0.37828 -0.26321,0.39541 -0.46474,-0.21564 -0.33861,-0.37828"
       style="fill:#cba87b;fill-opacity:1;fill-rule:nonzero;stroke:none;stroke-width:0.0158014"
       id="path4070" />
    <path
       d="m 135.31565,126.66249 c 0.45788,-0.41398 0.72932,0.2721 0.40715,0.60996 -0.46473,0.48847 -0.62513,-0.41362 -0.40715,-0.60996"
       style="fill:#cba87b;fill-opacity:1;fill-rule:nonzero;stroke:none;stroke-width:0.0158014"
       id="path4072" />
    <path
       d="m 140.03155,114.8477 c 0.40168,-0.5147 0.78142,0.15718 0.50861,0.56789 -0.39482,0.59392 -0.69779,-0.32365 -0.50861,-0.56789"
       style="fill:#dcbe93;fill-opacity:1;fill-rule:nonzero;stroke:none;stroke-width:0.0158014"
       id="path4074" />
    <path
       d="m 139.20627,121.73678 c -1.26808,0.19525 -1.27083,-1.5869 -0.3441,-1.82094 1.33938,-0.33858 0.94456,1.72823 0.3441,1.82094"
       style="fill:#dcbe93;fill-opacity:1;fill-rule:nonzero;stroke:none;stroke-width:0.0158014"
       id="path4076" />
    <path
       d="m 136.65502,120.32436 c 0.59771,-0.53947 0.95141,0.35479 0.53191,0.795 -0.60594,0.63672 -0.81569,-0.53893 -0.53191,-0.795"
       style="fill:#dcbe93;fill-opacity:1;fill-rule:nonzero;stroke:none;stroke-width:0.0158014"
       id="path4078" />
    <path
       d="m 140.68822,116.56865 c 0.31942,-0.28703 0.50723,0.18869 0.28377,0.42309 -0.32216,0.33858 -0.43457,-0.28686 -0.28377,-0.42309"
       style="fill:#dcbe93;fill-opacity:1;fill-rule:nonzero;stroke:none;stroke-width:0.0158014"
       id="path4080" />
    <path
       d="m 137.36103,122.09795 c 0.24403,-0.21947 0.38797,0.14424 0.21661,0.32328 -0.24677,0.2588 -0.33176,-0.21929 -0.21661,-0.32328"
       style="fill:#dcbe93;fill-opacity:1;fill-rule:nonzero;stroke:none;stroke-width:0.0158014"
       id="path4082" />
  </g>
</svg>
