<?xml version="1.0" encoding="UTF-8" standalone="no"?>
<!-- Created with Inkscape (http://www.inkscape.org/) -->

<svg
   width="20"
   height="20"
   viewBox="0 0 20 20"
   version="1.1"
   id="svg2996"
   inkscape:version="1.2.1 (9c6d41e410, 2022-07-14)"
   sodipodi:docname="asteroid_bit3.svg"
   xmlns:inkscape="http://www.inkscape.org/namespaces/inkscape"
   xmlns:sodipodi="http://sodipodi.sourceforge.net/DTD/sodipodi-0.dtd"
   xmlns="http://www.w3.org/2000/svg"
   xmlns:svg="http://www.w3.org/2000/svg">
  <sodipodi:namedview
     id="namedview2998"
     pagecolor="#505050"
     bordercolor="#ffffff"
     borderopacity="1"
     inkscape:showpageshadow="0"
     inkscape:pageopacity="0"
     inkscape:pagecheckerboard="1"
     inkscape:deskcolor="#505050"
     inkscape:document-units="mm"
     showgrid="false"
     inkscape:zoom="11.930303"
     inkscape:cx="40.275591"
     inkscape:cy="19.530099"
     inkscape:window-width="1920"
     inkscape:window-height="1017"
     inkscape:window-x="-8"
     inkscape:window-y="-8"
     inkscape:window-maximized="1"
     inkscape:current-layer="layer1" />
  <defs
     id="defs2993" />
  <g
     inkscape:label="Warstwa 1"
     inkscape:groupmode="layer"
     id="layer1">
    <path
       id="path3888"
       style="fill:#7e5130;fill-opacity:1;fill-rule:nonzero;stroke:none;stroke-width:0.0352778"
       d="m 5.1109614,14.032411 c 0.69145,-0.0706 1.5381197,-0.31048 2.5893897,-0.55034 3.8205899,-0.86783 2.5893899,-4.1204395 2.6987499,-4.4943895 0.13759,-0.4833 0.635,-0.74788 1.05128,-1.0301098 -0.0459,0.0459 1.88031,-1.22414 1.61572,-3.12208 -0.0388,-0.2787 -0.0917,-0.53622 -0.15522,-0.77611 0.61384,0.54328 1.1677,1.31939 1.61925,2.36714 4.02872,9.3591593 -6.4064399,13.5960893 -9.4191696,7.6058893" />
    <path
       id="path3890"
       style="fill:#9e6f43;fill-opacity:1;fill-rule:nonzero;stroke:none;stroke-width:0.0352778"
       d="m 11.450381,7.9575717 c -0.41628,0.2822298 -0.91369,0.5468098 -1.05128,1.0301098 -0.10936,0.37395 1.12184,3.6265595 -2.6987499,4.4943895 -1.05127,0.23986 -1.8979397,0.47978 -2.5893897,0.55034 -0.4833,-0.95956 -0.77258,-2.18017 -0.78316,-3.68653 -0.0423,-5.1576093 5.1964197,-9.2745293 8.5830796,-6.2864993 0.0635,0.23989 0.11642,0.49741 0.15522,0.77611 0.26459,1.89794 -1.66158,3.16794 -1.61572,3.12208" />
  </g>
</svg>
