<?xml version="1.0" encoding="UTF-8" standalone="no"?>
<!-- Created with Inkscape (http://www.inkscape.org/) -->

<svg
   width="100"
   height="100"
   viewBox="0 0 26.458332 26.458333"
   version="1.1"
   id="svg9372"
   inkscape:version="1.2.1 (9c6d41e410, 2022-07-14)"
   sodipodi:docname="asteroid-whole-4.svg"
   xmlns:inkscape="http://www.inkscape.org/namespaces/inkscape"
   xmlns:sodipodi="http://sodipodi.sourceforge.net/DTD/sodipodi-0.dtd"
   xmlns="http://www.w3.org/2000/svg"
   xmlns:svg="http://www.w3.org/2000/svg">
  <sodipodi:namedview
     id="namedview9374"
     pagecolor="#505050"
     bordercolor="#ffffff"
     borderopacity="1"
     inkscape:showpageshadow="0"
     inkscape:pageopacity="0"
     inkscape:pagecheckerboard="1"
     inkscape:deskcolor="#505050"
     inkscape:document-units="px"
     showgrid="false"
     inkscape:zoom="4.2179991"
     inkscape:cx="19.559037"
     inkscape:cy="72.072087"
     inkscape:window-width="1920"
     inkscape:window-height="1017"
     inkscape:window-x="-8"
     inkscape:window-y="-8"
     inkscape:window-maximized="1"
     inkscape:current-layer="layer1" />
  <defs
     id="defs9369" />
  <g
     inkscape:label="Warstwa 1"
     inkscape:groupmode="layer"
     id="layer1"
     transform="translate(-119.26625,-80.144241)">
    <path
       d="m 131.28059,106.29141 c -8.08056,-0.55561 -9.5368,-4.54601 -9.4789,-4.54601 -0.16032,-0.23192 -0.30951,-0.45739 -0.45424,-0.67878 2.92138,-0.40711 5.62455,2.82111 7.92915,2.38477 1.05543,-0.19839 1.8793,-1.01494 2.95478,-1.11726 1.22689,-0.11692 3.71407,1.26966 4.58915,-2.10686 0.93075,-3.602196 -1.12446,-5.343665 -0.0579,-7.127029 1.02426,-1.712423 4.29301,-1.641293 3.18858,-5.318714 -0.22712,-0.755947 -0.48318,-1.773231 -0.2004,-2.825594 1.73903,1.720808 3.22866,3.51684 3.94565,4.54835 4.66486,6.715629 -0.0779,17.634857 -12.41587,16.787127"
       style="fill:#7e5130;fill-opacity:1;fill-rule:nonzero;stroke:none;stroke-width:0.0208312"
       id="path4714" />
    <path
       d="m 136.76264,93.100241 c -1.06657,1.783364 0.98864,3.524833 0.0579,7.127029 -0.87508,3.37652 -3.36227,1.98994 -4.58915,2.10686 -1.07548,0.10232 -1.89935,0.91887 -2.95479,1.11726 -2.30459,0.43634 -5.00777,-2.79188 -7.92915,-2.38477 -1.7123,-2.645713 -2.122,-4.658647 -1.6121,-6.897256 2.95701,0.281994 6.83808,4.50411 9.4455,-1.559833 1.7034,-3.965457 3.90335,-2.543404 5.08793,-4.648323 0.74816,-1.337085 -0.15586,-2.927321 0.2249,-4.338267 0.18481,-0.685984 0.56779,-1.543464 0.71476,-2.34248 1.48518,0.85748 3.09951,2.241142 4.54239,3.675472 -0.28279,1.052363 -0.0267,2.069647 0.2004,2.825594 1.10442,3.677421 -2.16432,3.606291 -3.18858,5.318714"
       style="fill:#9e6f43;fill-opacity:1;fill-rule:nonzero;stroke:none;stroke-width:0.0208312"
       id="path4716" />
    <path
       d="m 134.26877,87.961208 c -1.18458,2.104919 -3.38452,0.682866 -5.08792,4.648323 -2.60743,6.063943 -6.4885,1.841827 -9.44551,1.559833 0.33623,-1.484803 1.07771,-3.06744 2.11311,-4.999109 2.72543,-5.089341 3.96345,-4.280581 6.70002,-6.350227 1.19572,-0.902303 2.20886,-2.182678 3.76975,-2.391201 0.82164,-0.109134 1.82363,0.235807 2.89021,0.851634 -0.14696,0.799016 -0.52995,1.656496 -0.71476,2.34248 -0.38076,1.410946 0.52327,3.001182 -0.2249,4.338267"
       style="fill:#bf9460;fill-opacity:1;fill-rule:nonzero;stroke:none;stroke-width:0.0208312"
       id="path4718" />
    <path
       d="m 122.21807,95.954093 c -0.1002,-0.04326 -0.21598,-0.05458 -0.34068,-0.02514 -0.0401,0.0099 -0.0824,0.02282 -0.12469,0.039 -0.62124,0.238928 -1.36049,1.824487 -0.81273,2.379118 -0.89958,-0.36014 -0.85727,-1.821172 0.41193,-2.486111 0.32509,-0.16935 0.72144,-0.04773 0.86617,0.09316"
       style="fill:#824a29;fill-opacity:1;fill-rule:nonzero;stroke:none;stroke-width:0.0208312"
       id="path4720" />
    <path
       d="m 121.3185,98.404539 c -0.0668,0.0022 -0.13137,-0.0028 -0.18926,-0.01033 -0.069,-0.0093 -0.13138,-0.02668 -0.18705,-0.04756 -0.54776,-0.554443 -0.3429,-1.667411 0.81051,-2.37951 0.0379,-0.0232 0.0846,-0.02884 0.12469,-0.03762 0.1247,-0.02961 0.24048,-0.0195 0.33845,0.02536 l 0.049,0.04933 c 0.5589,0.627324 0.45647,2.364108 -0.94633,2.400358"
       style="fill:#986339;fill-opacity:1;fill-rule:nonzero;stroke:none;stroke-width:0.0208312"
       id="path4722" />
    <path
       d="m 121.54562,98.49555 c -0.15142,0.0039 -0.2761,-0.01851 -0.37853,-0.05808 l -0.0379,-0.04325 c 0.0579,0.0076 0.12246,0.01265 0.18926,0.01033 1.4028,-0.03624 1.50523,-1.773034 0.94633,-2.400358 0.0646,0.0022 0.12247,0.01619 0.17814,0.04071 0.6101,0.5786 0.54108,2.412639 -0.89735,2.45064"
       style="fill:#af885a;fill-opacity:1;fill-rule:nonzero;stroke:none;stroke-width:0.0208312"
       id="path4724" />
    <path
       d="m 121.3185,98.404539 c -0.0668,0.0022 -0.13137,-0.0028 -0.18926,-0.01033 -0.47429,-0.587566 -0.24717,-1.773813 0.84835,-2.336045 0.0401,-0.02049 0.0846,-0.02906 0.12692,-0.03861 0.0557,-0.01342 0.10911,-0.01889 0.16032,-0.01541 0.5589,0.627324 0.45647,2.364109 -0.94633,2.400359"
       style="fill:#a97c4f;fill-opacity:1;fill-rule:nonzero;stroke:none;stroke-width:0.0208312"
       id="path4726" />
    <path
       d="m 143.26895,96.160864 c 0.40525,-0.3085 0.67245,-1.053335 0.57448,-2.244261 -0.049,-0.612706 -0.24939,-1.609528 -0.69249,-2.14799 -0.37186,-0.445693 -0.77043,-0.622256 -1.11556,-0.584254 0.42083,-0.282968 1.23135,-0.232494 1.7702,0.415097 0.4431,0.538462 0.6435,1.535284 0.69249,2.14799 0.12915,1.570556 -0.60566,2.391592 -1.22912,2.413418"
       style="fill:#69381f;fill-opacity:1;fill-rule:nonzero;stroke:none;stroke-width:0.0208312"
       id="path4728" />
    <path
       d="m 141.46535,92.415233 c -0.007,-0.531053 0.19595,-0.968366 0.51213,-1.195015 l 0.0579,-0.03567 c 0.34514,-0.0382 0.74594,0.139536 1.11556,0.584259 0.44311,0.538848 0.64351,1.53625 0.6925,2.147405 0.098,1.190141 -0.16923,1.934783 -0.57449,2.245039 l -0.004,-1.99e-4 c -0.0846,0.0033 -0.17369,-0.0099 -0.26275,-0.03977 -0.7259,-0.224896 -1.49854,-1.454989 -1.5364,-3.706072"
       style="fill:#7a492a;fill-opacity:1;fill-rule:nonzero;stroke:none;stroke-width:0.0208312"
       id="path4730" />
    <path
       d="m 141.1269,92.435502 c -0.007,-0.56126 0.22044,-1.019234 0.57002,-1.23068 0.0913,-0.0113 0.18482,-0.0052 0.28056,0.0154 -0.31618,0.226649 -0.51881,0.663962 -0.51213,1.195015 0.0379,2.251083 0.8105,3.481176 1.5364,3.706072 -0.0223,0.0216 -0.0468,0.04132 -0.0712,0.06002 h -0.004 c -0.79047,0.0195 -1.75461,-1.219183 -1.79915,-3.745824"
       style="fill:#936b46;fill-opacity:1;fill-rule:nonzero;stroke:none;stroke-width:0.0208312"
       id="path4732" />
    <path
       d="m 141.46535,92.415233 c -0.007,-0.531053 0.19595,-0.968366 0.51213,-1.195015 0.27166,0.05632 0.56335,0.239702 0.835,0.566912 0.44311,0.538849 0.64351,1.536449 0.6925,2.149156 0.0935,1.11999 -0.13805,1.845142 -0.50323,2.185019 -0.7259,-0.224896 -1.49854,-1.454989 -1.5364,-3.706072"
       style="fill:#8f633f;fill-opacity:1;fill-rule:nonzero;stroke:none;stroke-width:0.0208312"
       id="path4734" />
    <path
       d="m 136.79159,104.5743 c 0.34735,0.11303 0.91738,0.0283 1.63659,-0.37106 0.36963,-0.20482 0.92852,-0.59809 1.10665,-0.9783 0.14474,-0.31707 0.10911,-0.56886 -0.0446,-0.7314 0.33623,0.12824 0.51214,0.4418 0.3006,0.90251 -0.17813,0.38021 -0.65241,0.84676 -1.02204,1.05177 -0.94855,0.52638 -1.73234,0.43244 -1.97727,0.12648"
       style="fill:#69381f;fill-opacity:1;fill-rule:nonzero;stroke:none;stroke-width:0.0208312"
       id="path4736" />
    <path
       d="m 138.50166,102.56955 c 0.31619,-0.15181 0.65687,-0.18416 0.91293,-0.10523 0.0267,0.009 0.0535,0.0176 0.0779,0.0284 0.14918,0.1635 0.18481,0.41607 0.0423,0.73256 -0.17814,0.37963 -0.73703,0.77329 -1.10666,0.97714 -0.71921,0.40106 -1.28923,0.48545 -1.63659,0.37261 v -0.004 c -0.0446,-0.0587 -0.0735,-0.1255 -0.0846,-0.20073 -0.069,-0.43731 0.44088,-1.14902 1.79469,-1.80109"
       style="fill:#7a492a;fill-opacity:1;fill-rule:nonzero;stroke:none;stroke-width:0.0208312"
       id="path4738" />
    <path
       d="m 138.3124,102.34135 c 0.35404,-0.17033 0.72811,-0.19021 0.99086,-0.0768 0.0535,0.0563 0.0913,0.12297 0.11133,0.19976 -0.25606,-0.0789 -0.59674,-0.0466 -0.91293,0.10523 -1.35381,0.65207 -1.86372,1.36379 -1.79469,1.8011 -0.0356,-0.007 -0.069,-0.015 -0.10243,-0.0255 l -0.003,-0.002 c -0.30506,-0.39093 0.12469,-1.23965 1.71007,-2.00183"
       style="fill:#936b46;fill-opacity:1;fill-rule:nonzero;stroke:none;stroke-width:0.0208312"
       id="path4740" />
    <path
       d="m 138.50166,102.56955 c 0.31619,-0.15181 0.65687,-0.18416 0.91293,-0.10523 0.0446,0.14382 0.0267,0.32447 -0.069,0.53085 -0.17591,0.38139 -0.7348,0.7733 -1.10443,0.97909 -0.65241,0.36209 -1.18236,0.4644 -1.53417,0.39639 -0.069,-0.43731 0.44088,-1.14903 1.79469,-1.8011"
       style="fill:#8f633f;fill-opacity:1;fill-rule:nonzero;stroke:none;stroke-width:0.0208312"
       id="path4742" />
    <path
       d="m 130.54134,84.757154 c -1.37385,0.142264 -3.75861,1.594134 -4.64482,3.047174 -0.68136,1.118427 -0.34291,1.685338 0.44756,1.781805 -1.2692,0.178901 -2.24448,-1.728798 0.34736,-4.055298 1.34268,-1.202421 3.19971,-1.210216 3.8499,-0.773681"
       style="fill:#9b6439;fill-opacity:1;fill-rule:nonzero;stroke:none;stroke-width:0.0208312"
       id="path4744" />
    <path
       d="m 130.79073,84.840954 h 0.003 c 0.27834,0.157854 0.38299,0.494999 0.21822,1.064054 -0.069,0.229961 -0.15141,0.450178 -0.26052,0.658701 -0.90625,1.765046 -2.91916,2.852097 -4.29078,3.009757 -0.0379,0.0049 -0.0779,0.0097 -0.11579,0.01189 -0.79046,-0.0953 -1.12892,-0.662014 -0.44756,-1.780246 0.88621,-1.453819 2.43375,-3.194115 4.64705,-3.047953 0.0913,0.01754 0.17591,0.04482 0.24716,0.0838"
       style="fill:#b78551;fill-opacity:1;fill-rule:nonzero;stroke:none;stroke-width:0.0208312"
       id="path4746" />
    <path
       d="m 126.45987,89.573466 c 3.26651,-0.558337 4.92315,-4.249205 4.33308,-4.732512 1.70118,0.738602 -0.6012,4.909074 -4.33308,4.732512"
       style="fill:#caa77a;fill-opacity:1;fill-rule:nonzero;stroke:none;stroke-width:0.0208312"
       id="path4748" />
    <path
       d="m 130.79073,84.840954 h 0.003 c 0.27834,0.157854 0.38299,0.494999 0.21822,1.064054 -0.069,0.229961 -0.15141,0.450178 -0.26052,0.658701 -0.90625,1.765046 -2.91916,2.852097 -4.29078,3.009757 -0.55667,-0.199365 -0.71699,-0.753219 -0.13583,-1.709115 0.84391,-1.392236 2.83677,-3.048732 4.46669,-3.023397"
       style="fill:#c59a69;fill-opacity:1;fill-rule:nonzero;stroke:none;stroke-width:0.0208312"
       id="path4750" />
    <path
       d="m 130.77514,100.05538 c -1.22689,-0.875988 -0.89512,-3.714836 1.45847,-3.933688 0.78378,-0.128234 1.71007,0.170134 2.06634,0.621871 -0.36072,-0.275564 -0.85949,-0.410813 -1.46292,-0.313372 -2.1465,0.199949 -2.87907,2.550225 -2.06189,3.625189"
       style="fill:#824a29;fill-opacity:1;fill-rule:nonzero;stroke:none;stroke-width:0.0208312"
       id="path4752" />
    <path
       d="m 133.48721,99.714733 c -0.59674,0.346697 -1.11332,0.531057 -1.54975,0.585807 -0.34291,0.0431 -0.63015,0.008 -0.87286,-0.0896 -0.10464,-0.0384 -0.20262,-0.0931 -0.28946,-0.15649 -0.81718,-1.073798 -0.0846,-3.425046 2.06189,-3.622851 0.60565,-0.09822 1.1022,0.03585 1.46292,0.312786 0.069,0.08555 0.12692,0.178902 0.17813,0.277702 0.42529,0.821042 0.18036,2.014304 -0.99087,2.692689"
       style="fill:#986339;fill-opacity:1;fill-rule:nonzero;stroke:none;stroke-width:0.0208312"
       id="path4754" />
    <path
       d="m 133.95259,100.16686 c -0.6012,0.34746 -1.11556,0.53124 -1.55198,0.58366 -0.49433,0.0643 -0.88176,-0.0353 -1.16455,-0.24321 -0.069,-0.0898 -0.12469,-0.18923 -0.17146,-0.29641 0.24271,0.0976 0.52995,0.13271 0.87286,0.0896 0.43643,-0.0547 0.95301,-0.23919 1.54975,-0.585885 1.17123,-0.678385 1.41616,-1.871647 0.99087,-2.692689 0.10243,0.04872 0.19818,0.106601 0.28501,0.172278 0.64796,0.807397 0.49655,2.212104 -0.8105,2.972536"
       style="fill:#af885a;fill-opacity:1;fill-rule:nonzero;stroke:none;stroke-width:0.0208312"
       id="path4756" />
    <path
       d="m 133.48721,99.714733 c -0.59674,0.346697 -1.11332,0.531057 -1.54975,0.585807 -0.34291,0.0431 -0.63015,0.008 -0.87286,-0.0896 -0.51213,-1.15623 0.26943,-3.145781 2.23558,-3.329361 0.45647,-0.07327 0.85504,-0.01265 1.1779,0.140508 0.42529,0.821042 0.18036,2.014304 -0.99087,2.692689"
       style="fill:#a97c4f;fill-opacity:1;fill-rule:nonzero;stroke:none;stroke-width:0.0208312"
       id="path4758" />
    <path
       d="m 138.1454,87.169792 c -0.59898,-0.08185 -1.40503,0.424843 -1.5275,1.10615 -0.0935,0.524038 0.17369,0.868589 0.55222,1.011632 -0.48764,-0.07815 -0.88622,-0.446669 -0.77488,-1.071071 0.13583,-0.769978 1.14673,-1.313699 1.75016,-1.046711"
       style="fill:#824a29;fill-opacity:1;fill-rule:nonzero;stroke:none;stroke-width:0.0208312"
       id="path4760" />
    <path
       d="m 138.58182,87.841745 c 0.0134,0.115955 0.0178,0.226258 0.009,0.326817 -0.0579,0.710345 -0.56557,1.073215 -1.07993,1.127197 -0.11801,0.01442 -0.23157,0.01189 -0.34291,-0.0078 -0.37853,-0.143628 -0.64128,-0.488374 -0.54998,-1.011437 0.12247,-0.679943 0.92852,-1.186636 1.52749,-1.104785 l 0.0557,0.02728 c 0.19817,0.105236 0.34068,0.313759 0.38076,0.64272"
       style="fill:#986339;fill-opacity:1;fill-rule:nonzero;stroke:none;stroke-width:0.0208312"
       id="path4762" />
    <path
       d="m 138.95368,87.863767 c 0.0111,0.115954 0.0178,0.226258 0.009,0.326816 -0.0713,0.871318 -0.81719,1.218792 -1.42284,1.119402 l -0.029,-0.01422 c 0.51436,-0.05398 1.02203,-0.416852 1.07993,-1.127196 0.009,-0.10056 0.004,-0.210863 -0.009,-0.326817 -0.0401,-0.328961 -0.18259,-0.537485 -0.38076,-0.642721 0.1091,-0.01754 0.21598,-0.02144 0.31396,-0.0058 0.22489,0.09744 0.39411,0.31181 0.43865,0.670588"
       style="fill:#af885a;fill-opacity:1;fill-rule:nonzero;stroke:none;stroke-width:0.0208312"
       id="path4764" />
    <path
       d="m 138.58182,87.841745 c 0.0134,0.115955 0.0178,0.226258 0.009,0.326817 -0.0579,0.710345 -0.56557,1.073215 -1.07993,1.127197 -0.36295,-0.14889 -0.61233,-0.485841 -0.52104,-0.997211 0.1002,-0.566911 0.67691,-1.011827 1.21131,-1.099524 0.19817,0.105237 0.34068,0.31376 0.38076,0.642721"
       style="fill:#a97c4f;fill-opacity:1;fill-rule:nonzero;stroke:none;stroke-width:0.0208312"
       id="path4766" />
    <path
       d="m 142.33375,96.78273 c 0.098,0.936801 -1.03317,0.91361 -1.16009,0.227432 -0.18704,-0.992149 1.11556,-0.671761 1.16009,-0.227432"
       style="fill:#946d48;fill-opacity:1;fill-rule:nonzero;stroke:none;stroke-width:0.0208312"
       id="path4768" />
    <path
       d="m 143.84566,96.721151 c 0.69917,0.16818 0.41415,0.78693 -0.11134,0.695532 -0.75929,-0.132128 -0.22044,-0.775434 0.11134,-0.695532"
       style="fill:#946d48;fill-opacity:1;fill-rule:nonzero;stroke:none;stroke-width:0.0208312"
       id="path4770" />
    <path
       d="m 142.65661,97.719139 c 0.38076,0.0916 0.22713,0.428546 -0.0601,0.378657 -0.41192,-0.07191 -0.12024,-0.422116 0.0601,-0.378657"
       style="fill:#946d48;fill-opacity:1;fill-rule:nonzero;stroke:none;stroke-width:0.0208312"
       id="path4772" />
    <path
       d="m 133.40483,85.123532 c -0.91293,-0.130571 -0.65018,-0.949075 0.0312,-0.896456 0.98641,0.076 0.40302,0.958818 -0.0312,0.896456"
       style="fill:#cba87b;fill-opacity:1;fill-rule:nonzero;stroke:none;stroke-width:0.0208312"
       id="path4774" />
    <path
       d="m 133.38034,85.675048 c 0.49432,0.309862 -0.007,0.777579 -0.39413,0.574902 -0.55889,-0.292323 0.16032,-0.721064 0.39413,-0.574902"
       style="fill:#cba87b;fill-opacity:1;fill-rule:nonzero;stroke:none;stroke-width:0.0208312"
       id="path4776" />
    <path
       d="m 122.35167,91.466936 c -0.91293,-0.129984 -0.65018,-0.949657 0.0334,-0.89665 0.98419,0.07659 0.4008,0.958234 -0.0334,0.89665"
       style="fill:#cba87b;fill-opacity:1;fill-rule:nonzero;stroke:none;stroke-width:0.0208312"
       id="path4778" />
    <path
       d="m 122.96846,89.161485 c 0.49655,-0.144407 0.6101,0.327986 0.25161,0.457778 -0.51658,0.187671 -0.48764,-0.389179 -0.25161,-0.457778"
       style="fill:#cba87b;fill-opacity:1;fill-rule:nonzero;stroke:none;stroke-width:0.0208312"
       id="path4780" />
    <path
       d="m 123.62755,87.909174 c 0.49432,0.309862 -0.007,0.778359 -0.39412,0.575876 -0.5589,-0.292907 0.16032,-0.722817 0.39412,-0.575876"
       style="fill:#cba87b;fill-opacity:1;fill-rule:nonzero;stroke:none;stroke-width:0.0208312"
       id="path4782" />
    <path
       d="m 123.77896,90.600298 c 0.26052,0.223725 -0.0379,0.435951 -0.24271,0.283359 -0.29837,-0.220801 0.11802,-0.389569 0.24271,-0.283359"
       style="fill:#cba87b;fill-opacity:1;fill-rule:nonzero;stroke:none;stroke-width:0.0208312"
       id="path4784" />
    <path
       d="m 123.52067,89.930099 c 0.19372,0.16565 -0.0267,0.322725 -0.18036,0.209693 -0.22044,-0.163506 0.0891,-0.288425 0.18036,-0.209693"
       style="fill:#cba87b;fill-opacity:1;fill-rule:nonzero;stroke:none;stroke-width:0.0208312"
       id="path4786" />
    <path
       d="m 122.43628,89.997919 c 0.1915,0.165649 -0.029,0.322919 -0.18036,0.209887 -0.22266,-0.163506 0.0869,-0.288425 0.18036,-0.209887"
       style="fill:#cba87b;fill-opacity:1;fill-rule:nonzero;stroke:none;stroke-width:0.0208312"
       id="path4788" />
    <path
       d="m 121.45432,92.163252 c 0.33401,-0.09725 0.40971,0.220803 0.16923,0.308107 -0.34736,0.126284 -0.32955,-0.261919 -0.16923,-0.308107"
       style="fill:#cba87b;fill-opacity:1;fill-rule:nonzero;stroke:none;stroke-width:0.0208312"
       id="path4790" />
    <path
       d="m 122.30937,100.2146 c -0.71477,0.52988 -1.26029,-0.18709 -0.76598,-0.611341 0.71476,-0.613099 1.10665,0.359947 0.76598,0.611341"
       style="fill:#b0895b;fill-opacity:1;fill-rule:nonzero;stroke:none;stroke-width:0.0208312"
       id="path4792" />
    <path
       d="m 125.35989,97.87037 c 0.27165,-0.582114 0.9352,-0.264848 0.77043,0.177145 -0.23826,0.638825 -0.89735,0.099 -0.77043,-0.177145"
       style="fill:#b0895b;fill-opacity:1;fill-rule:nonzero;stroke:none;stroke-width:0.0208312"
       id="path4794" />
    <path
       d="m 123.45387,100.15789 c 0.25829,-0.556774 0.89289,-0.253152 0.7348,0.16955 -0.22712,0.61095 -0.85949,0.0947 -0.7348,-0.16955"
       style="fill:#b0895b;fill-opacity:1;fill-rule:nonzero;stroke:none;stroke-width:0.0208312"
       id="path4796" />
    <path
       d="m 124.48927,100.19122 c 0.14473,-0.31396 0.50322,-0.14285 0.41416,0.0957 -0.12692,0.34455 -0.48319,0.0534 -0.41416,-0.0957"
       style="fill:#b0895b;fill-opacity:1;fill-rule:nonzero;stroke:none;stroke-width:0.0208312"
       id="path4798" />
    <path
       d="m 122.73688,95.750249 c 0.098,-0.213593 0.34291,-0.09725 0.28056,0.06489 -0.0868,0.234442 -0.32732,0.03646 -0.28056,-0.06489"
       style="fill:#b0895b;fill-opacity:1;fill-rule:nonzero;stroke:none;stroke-width:0.0208312"
       id="path4800" />
    <path
       d="m 123.50509,99.302947 c 0.23602,-0.137978 0.37184,0.09315 0.20707,0.205987 -0.23825,0.163118 -0.31841,-0.140509 -0.20707,-0.205987"
       style="fill:#b0895b;fill-opacity:1;fill-rule:nonzero;stroke:none;stroke-width:0.0208312"
       id="path4802" />
    <path
       d="m 123.14214,96.563684 c -0.098,-0.241458 0.20263,-0.300898 0.28946,-0.127455 0.12247,0.251009 -0.24493,0.242044 -0.28946,0.127455"
       style="fill:#b0895b;fill-opacity:1;fill-rule:nonzero;stroke:none;stroke-width:0.0208312"
       id="path4804" />
    <path
       d="m 134.07506,92.369239 c -1.38722,-0.19722 -0.98642,-1.441929 0.0468,-1.361638 1.49632,0.116345 0.6101,1.455185 -0.0468,1.361638"
       style="fill:#b0895b;fill-opacity:1;fill-rule:nonzero;stroke:none;stroke-width:0.0208312"
       id="path4806" />
    <path
       d="m 137.03429,89.817652 c 0.75484,-0.219242 0.92629,0.497924 0.38299,0.69495 -0.78601,0.284917 -0.74148,-0.591077 -0.38299,-0.69495"
       style="fill:#b0895b;fill-opacity:1;fill-rule:nonzero;stroke:none;stroke-width:0.0208312"
       id="path4808" />
    <path
       d="m 134.09732,94.207757 c 0.75039,0.470248 -0.009,1.181767 -0.59897,0.874239 -0.84836,-0.444522 0.24271,-1.097379 0.59897,-0.874239"
       style="fill:#b0895b;fill-opacity:1;fill-rule:nonzero;stroke:none;stroke-width:0.0208312"
       id="path4810" />
    <path
       d="m 131.19821,95.488324 c 0.44088,-0.07639 0.4765,0.397755 0.15586,0.47785 -0.46537,0.115959 -0.36517,-0.4416 -0.15586,-0.47785"
       style="fill:#b0895b;fill-opacity:1;fill-rule:nonzero;stroke:none;stroke-width:0.0208312"
       id="path4812" />
    <path
       d="m 138.44154,89.666814 c 0.50991,-0.14772 0.6257,0.335197 0.25829,0.467912 -0.52771,0.191763 -0.49877,-0.39795 -0.25829,-0.467912"
       style="fill:#b0895b;fill-opacity:1;fill-rule:nonzero;stroke:none;stroke-width:0.0208312"
       id="path4814" />
    <path
       d="m 129.70189,94.190411 c 0.50768,-0.147718 0.62346,0.335198 0.25829,0.467912 -0.52995,0.191767 -0.501,-0.397948 -0.25829,-0.467912"
       style="fill:#b0895b;fill-opacity:1;fill-rule:nonzero;stroke:none;stroke-width:0.0208312"
       id="path4816" />
    <path
       d="m 130.18285,93.426473 c 0.5099,-0.147524 0.62569,0.335198 0.25829,0.467912 -0.52772,0.191767 -0.49877,-0.397948 -0.25829,-0.467912"
       style="fill:#b0895b;fill-opacity:1;fill-rule:nonzero;stroke:none;stroke-width:0.0208312"
       id="path4818" />
  </g>
</svg>
