<?xml version="1.0" encoding="UTF-8" standalone="no"?>
<!-- Created with Inkscape (http://www.inkscape.org/) -->

<svg
   width="40"
   height="40"
   viewBox="0 0 40 40"
   version="1.1"
   id="svg2619"
   inkscape:version="1.2.1 (9c6d41e410, 2022-07-14)"
   sodipodi:docname="asteroid_fragment2.svg"
   xmlns:inkscape="http://www.inkscape.org/namespaces/inkscape"
   xmlns:sodipodi="http://sodipodi.sourceforge.net/DTD/sodipodi-0.dtd"
   xmlns="http://www.w3.org/2000/svg"
   xmlns:svg="http://www.w3.org/2000/svg">
  <sodipodi:namedview
     id="namedview2621"
     pagecolor="#505050"
     bordercolor="#ffffff"
     borderopacity="1"
     inkscape:showpageshadow="0"
     inkscape:pageopacity="0"
     inkscape:pagecheckerboard="1"
     inkscape:deskcolor="#505050"
     inkscape:document-units="mm"
     showgrid="false"
     inkscape:zoom="5.9651515"
     inkscape:cx="67.978156"
     inkscape:cy="60.518161"
     inkscape:window-width="1920"
     inkscape:window-height="1017"
     inkscape:window-x="-8"
     inkscape:window-y="-8"
     inkscape:window-maximized="1"
     inkscape:current-layer="layer1" />
  <defs
     id="defs2616" />
  <g
     inkscape:label="Warstwa 1"
     inkscape:groupmode="layer"
     id="layer1">
    <path
       id="path3994"
       style="fill:#7e5130;fill-opacity:1;fill-rule:nonzero;stroke:none;stroke-width:0.0352778"
       d="m 32.589048,22.575035 c 2.78271,4.70429 -5.21017,11.79089 -11.0624,10.02418 0.0342,0.0187 0.049,0.03 0.0603,0.0413 -0.0339,0 -0.78916,-0.37748 -1.7593,-0.83432 0.26423,-0.0829 0.52846,-0.15487 0.77787,-0.21132 1.2573,-0.2794 2.57457,-0.36265 3.75285,-0.89499 2.50684,-1.12889 3.36021,-3.85481 2.18581,-5.74252 -0.58137,-0.93275 -2.54846,-2.33715 -1.7593,-3.78707 0.52493,-0.96626 3.30765,-1.92546 -1.2005,-3.95676 -3.24697,-1.46085 -2.89207,-4.36068 0.87947,-3.5754 5.31248,1.09502 4.01744,-5.8822203 9.49184,-4.33811 0.0529,0.0945 0.10584,0.20003 0.15487,0.30586 2.35973,4.91949 -0.90593,7.03016 -1.86125,8.15904 -2.08421,2.46522 -0.29069,3.74157 0.33972,4.81013" />
    <path
       id="path3996"
       style="fill:#9e6f43;fill-opacity:1;fill-rule:nonzero;stroke:none;stroke-width:0.0352778"
       d="m 33.955708,9.300005 c -5.4744,-1.5441103 -4.17936,5.43313 -9.49184,4.33811 -3.77154,-0.78528 -4.12644,2.11455 -0.87947,3.5754 4.50815,2.0313 1.72543,2.9905 1.2005,3.95676 -0.78916,1.44992 1.17793,2.85432 1.7593,3.78707 1.1744,1.88771 0.32103,4.61363 -2.18581,5.74252 -1.17828,0.53234 -2.49555,0.61559 -3.75285,0.89499 -0.24941,0.0565 -0.51364,0.12841 -0.77787,0.21132 -1.43863,-0.68721 -3.33763,-1.55928 -4.03613,-1.67252 -0.37395,-0.0642 -0.72108,-0.0681 -1.04211,-0.0339 -0.0378,-1.16664 -0.38876,-2.35973 -0.44168,-3.34539 -0.23777,-4.45523 4.02873,-7.32085 4.36069,-8.33614 0.20779,-0.64206 -0.10583,-1.31798 -0.28681,-1.97097 -1.54411,-5.62187 6.84883,-7.49829 7.63799,-9.5221803 0.0378,-0.0907 0.0681,-0.18133 0.0942,-0.26423 3.21699,0.35101 5.78803,-1.31022 7.8419,2.6391303" />
    <path
       id="path3998"
       style="fill:#bf9460;fill-opacity:1;fill-rule:nonzero;stroke:none;stroke-width:0.0352778"
       d="m 26.113808,6.6608747 c -0.0261,0.0829 -0.0564,0.17357 -0.0942,0.26423 -0.78916,2.0238903 -9.1821,3.9003103 -7.63799,9.5221803 0.18098,0.65299 0.4946,1.32891 0.28681,1.97097 -0.33196,1.01529 -4.59846,3.88091 -4.36069,8.33614 0.0529,0.98566 0.40393,2.17875 0.44168,3.34539 -2.25778,0.23777 -3.32987,2.43135 -4.8665694,0.52105 -2.884664,-3.59092 -3.541536,-12.6559 -0.634294,-15.70284 1.6421834,-1.72156 4.2700234,-2.06516 6.1993634,-3.45828 4.21358,-3.03178 1.68769,-10.2961803 6.91692,-6.3316603 1.33667,1.01565 2.58621,1.40441 3.74896,1.53282" />
  </g>
</svg>
