<?xml version="1.0" encoding="UTF-8" standalone="no"?>
<!-- Created with Inkscape (http://www.inkscape.org/) -->

<svg
   width="100"
   height="100"
   viewBox="0 0 26.458333 26.458333"
   version="1.1"
   id="svg13353"
   sodipodi:docname="asteroid-fragment-3.svg"
   inkscape:version="1.2.1 (9c6d41e410, 2022-07-14)"
   xmlns:inkscape="http://www.inkscape.org/namespaces/inkscape"
   xmlns:sodipodi="http://sodipodi.sourceforge.net/DTD/sodipodi-0.dtd"
   xmlns="http://www.w3.org/2000/svg"
   xmlns:svg="http://www.w3.org/2000/svg">
  <sodipodi:namedview
     id="namedview13355"
     pagecolor="#505050"
     bordercolor="#ffffff"
     borderopacity="1"
     inkscape:showpageshadow="0"
     inkscape:pageopacity="0"
     inkscape:pagecheckerboard="1"
     inkscape:deskcolor="#505050"
     inkscape:document-units="px"
     showgrid="false"
     inkscape:zoom="2.9825758"
     inkscape:cx="49.453898"
     inkscape:cy="95.55499"
     inkscape:window-width="1920"
     inkscape:window-height="1017"
     inkscape:window-x="-8"
     inkscape:window-y="-8"
     inkscape:window-maximized="1"
     inkscape:current-layer="layer1" />
  <defs
     id="defs13350" />
  <g
     inkscape:label="Warstwa 1"
     inkscape:groupmode="layer"
     id="layer1"
     transform="translate(-118.36781,-110.25781)">
    <path
       d="m 127.66584,135.52816 c 0.9645,-0.44651 1.98928,-1.11627 3.05927,-2.04443 6.25042,-5.40166 6.38983,-3.25512 6.83816,-7.8183 0.29765,-2.99673 2.27186,-4.64955 3.696,-7.11341 0.22229,-0.38392 0.41067,-0.76382 0.56514,-1.132 0.9758,1.08881 1.78207,2.10334 2.04203,2.72626 3.21752,7.61847 -5.16913,19.74962 -16.2006,15.38188"
       style="fill:#7e5130;fill-opacity:1;fill-rule:nonzero;stroke:none;stroke-width:0.0371336"
       id="path3976" />
    <path
       d="m 141.82441,117.42002 c -0.15447,0.36818 -0.34285,0.74808 -0.56514,1.132 -1.42414,2.46386 -3.39835,4.11668 -3.696,7.11341 -0.44833,4.56318 -0.58774,2.41664 -6.83816,7.8183 -1.06999,0.92816 -2.09477,1.59792 -3.05927,2.04443 -0.94944,-0.37588 -1.91771,-0.87325 -2.89728,-1.50386 -0.60281,-0.38795 -1.14535,-0.78358 -1.64643,-1.19496 0.62919,-1.10859 0.30517,-2.5967 0.97957,-3.70127 0.59151,-0.97536 1.91016,-1.55143 2.0797,-2.67539 0.11304,-0.78725 -1.71048,-4.89623 5.1955,-3.92489 3.98234,0.55631 -3.50762,-5.45619 0.88162,-7.91237 0.44834,-0.12919 3.161,-0.91277 4.55877,-2.22852 0.1394,0.11346 0.28634,0.23863 0.42197,0.36782 0.74975,0.7093 2.91611,2.79289 4.58515,4.6653"
       style="fill:#9e6f43;fill-opacity:1;fill-rule:nonzero;stroke:none;stroke-width:0.0371336"
       id="path3978" />
    <path
       d="m 131.3769,122.52779 c -6.90598,-0.97134 -5.08246,3.13764 -5.1955,3.92489 -0.16954,1.12396 -1.48819,1.70003 -2.0797,2.67539 -0.6744,1.10457 -0.35038,2.59268 -0.97957,3.70127 -12.63271,-10.34071 4.45328,-28.10409 13.69516,-20.44244 -1.39777,1.31575 -4.11043,2.09933 -4.55877,2.22852 -4.38924,2.45618 3.10072,8.46868 -0.88162,7.91237"
       style="fill:#bf9460;fill-opacity:1;fill-rule:nonzero;stroke:none;stroke-width:0.0371336"
       id="path3980" />
  </g>
</svg>
