<?xml version="1.0" encoding="UTF-8" standalone="no"?>
<!-- Created with Inkscape (http://www.inkscape.org/) -->

<svg
   width="20"
   height="20"
   viewBox="0 0 20 20"
   version="1.1"
   id="svg3467"
   inkscape:version="1.2.1 (9c6d41e410, 2022-07-14)"
   sodipodi:docname="asteroid_bit6.svg"
   xmlns:inkscape="http://www.inkscape.org/namespaces/inkscape"
   xmlns:sodipodi="http://sodipodi.sourceforge.net/DTD/sodipodi-0.dtd"
   xmlns="http://www.w3.org/2000/svg"
   xmlns:svg="http://www.w3.org/2000/svg">
  <sodipodi:namedview
     id="namedview3469"
     pagecolor="#505050"
     bordercolor="#ffffff"
     borderopacity="1"
     inkscape:showpageshadow="0"
     inkscape:pageopacity="0"
     inkscape:pagecheckerboard="1"
     inkscape:deskcolor="#505050"
     inkscape:document-units="mm"
     showgrid="false"
     inkscape:zoom="16.871996"
     inkscape:cx="22.315083"
     inkscape:cy="13.098628"
     inkscape:window-width="1920"
     inkscape:window-height="1017"
     inkscape:window-x="-8"
     inkscape:window-y="-8"
     inkscape:window-maximized="1"
     inkscape:current-layer="layer1" />
  <defs
     id="defs3464" />
  <g
     inkscape:label="Warstwa 1"
     inkscape:groupmode="layer"
     id="layer1">
    <path
       id="path3858"
       style="fill:#7e5130;fill-opacity:1;fill-rule:nonzero;stroke:none;stroke-width:0.0352778"
       d="m 16.534936,13.038423 c -1.34161,1.91911 -3.56164,3.62649 -5.89809,4.09226 -1.9117003,0.38089 -4.4139533,-0.18341 -4.9639343,-2.3072 -0.13088,-0.49742 -0.139347,-1.03717 -0.220839,-1.54517 0.168628,-0.0847 0.322792,-0.19756 0.453673,-0.33161 0.576086,-0.59972 0.68968,-1.62983 1.440391,-1.97908 0.954264,-0.4445 1.981553,0.59972 3.0317693,0.55033 0.66922,-0.0318 1.28023,-0.57856 1.39101,-1.24178 0.18591,-1.1465299 -0.95744,-2.0990298 -1.0855,-3.2561398 -0.11642,-1.05128 0.62265,-2.00025 0.8061,-3.04094 0.061,-0.34925 0.0522,-0.69498 -0.0148,-1.03011 0.68121,-0.0247 1.37654,0.0988 1.90606,0.51505 0.63147,0.49742 0.90487,1.30881 1.25695,2.032 0.39264,0.80786 0.92216,1.5487 1.55963,2.18017 0.32879,0.33161 0.6925,0.635 0.94862,1.02305 0.85513,1.2982299 0.27622,3.0656398 -0.61102,4.3391698" />
    <path
       id="path3860"
       style="fill:#9e6f43;fill-opacity:1;fill-rule:nonzero;stroke:none;stroke-width:0.0352778"
       d="m 11.768916,10.276173 c -0.11078,0.66322 -0.72179,1.21003 -1.39101,1.24178 -1.0502163,0.0494 -2.0775053,-0.99483 -3.0317693,-0.55033 -0.750711,0.34925 -0.864305,1.37936 -1.440391,1.97908 -0.130881,0.13405 -0.285045,0.24694 -0.453673,0.33161 -0.05256,-0.33514 -0.1397,-0.65969 -0.314325,-0.94897 -0.526697,-0.87842 -1.67005,-1.1677 -2.362553,-1.92264 -1.030111,-1.1218299 -0.771172,-2.9033598 -0.267758,-4.3426998 0.38982,-1.10772 0.971903,-2.26836 2.042584,-2.74814 1.268588,-0.56797 2.731911,0.0106 4.120091,-0.0176 0.805744,-0.0141 1.5973743,-0.23637 2.4003043,-0.32103 0.1337,-0.0141 0.26775,-0.0282 0.40428,-0.0282 0.067,0.33513 0.0759,0.68086 0.0148,1.03011 -0.18345,1.04069 -0.92252,1.98966 -0.8061,3.04094 0.12806,1.15711 1.27141,2.1096099 1.0855,3.2561398" />
  </g>
</svg>
