<?xml version="1.0" encoding="UTF-8" standalone="no"?>
<!-- Created with Inkscape (http://www.inkscape.org/) -->

<svg
   width="100"
   height="100"
   viewBox="0 0 100 100"
   version="1.1"
   id="svg3162"
   inkscape:version="1.2.1 (9c6d41e410, 2022-07-14)"
   sodipodi:docname="asteroid8.svg"
   xmlns:inkscape="http://www.inkscape.org/namespaces/inkscape"
   xmlns:sodipodi="http://sodipodi.sourceforge.net/DTD/sodipodi-0.dtd"
   xmlns="http://www.w3.org/2000/svg"
   xmlns:svg="http://www.w3.org/2000/svg">
  <sodipodi:namedview
     id="namedview3164"
     pagecolor="#505050"
     bordercolor="#ffffff"
     borderopacity="1"
     inkscape:showpageshadow="0"
     inkscape:pageopacity="0"
     inkscape:pagecheckerboard="1"
     inkscape:deskcolor="#505050"
     inkscape:document-units="mm"
     showgrid="false"
     inkscape:zoom="0.74564394"
     inkscape:cx="365.45593"
     inkscape:cy="240.06096"
     inkscape:window-width="1920"
     inkscape:window-height="1017"
     inkscape:window-x="-8"
     inkscape:window-y="-8"
     inkscape:window-maximized="1"
     inkscape:current-layer="layer1" />
  <defs
     id="defs3159">
    <clipPath
       id="clipPath1600"
       clipPathUnits="userSpaceOnUse">
      <path
         id="path1598"
         d="m 11664.9,7372.24 c -13.1,0 -23.7,10.63 -23.7,23.7 0,13.07 10.6,23.7 23.7,23.7 13,0 23.7,-10.63 23.7,-23.7 0,-13.07 -10.7,-23.7 -23.7,-23.7" />
    </clipPath>
    <radialGradient
       id="radialGradient1608"
       spreadMethod="pad"
       gradientTransform="matrix(7356.97,0,0,-4948.95,8500,6000)"
       gradientUnits="userSpaceOnUse"
       r="1"
       cy="0"
       cx="0"
       fy="0"
       fx="0">
      <stop
         id="stop1602"
         offset="0"
         style="stop-opacity:1;stop-color:#357cb6" />
      <stop
         id="stop1604"
         offset="0.00000013"
         style="stop-opacity:1;stop-color:#357cb6" />
      <stop
         id="stop1606"
         offset="1"
         style="stop-opacity:1;stop-color:#2c6d9d" />
    </radialGradient>
    <clipPath
       id="clipPath3552"
       clipPathUnits="userSpaceOnUse">
      <path
         id="path3550"
         d="m 12482.1,7700.16 c -6.4,0 -11.6,5.2 -11.6,11.6 0,6.39 5.2,11.59 11.6,11.59 6.3,0 11.5,-5.2 11.5,-11.59 0,-6.4 -5.2,-11.6 -11.5,-11.6" />
    </clipPath>
    <radialGradient
       id="radialGradient3560"
       spreadMethod="pad"
       gradientTransform="matrix(7356.97,0,0,-4948.95,8500,6000)"
       gradientUnits="userSpaceOnUse"
       r="1"
       cy="0"
       cx="0"
       fy="0"
       fx="0">
      <stop
         id="stop3554"
         offset="0"
         style="stop-opacity:1;stop-color:#3175b3" />
      <stop
         id="stop3556"
         offset="0.00000013"
         style="stop-opacity:1;stop-color:#3175b3" />
      <stop
         id="stop3558"
         offset="1"
         style="stop-opacity:1;stop-color:#2a6496" />
    </radialGradient>
  </defs>
  <g
     inkscape:label="Warstwa 1"
     inkscape:groupmode="layer"
     id="layer1">
    <g
       id="g1594"
       transform="matrix(0.03527778,0,0,-0.03527778,-379.14416,300.23221)">
      <g
         clip-path="url(#clipPath1600)"
         id="g1596">
        <path
           id="path1610"
           style="fill:url(#radialGradient1608);fill-opacity:1;fill-rule:nonzero;stroke:none"
           d="m 11664.9,7372.24 c -13.1,0 -23.7,10.63 -23.7,23.7 0,13.07 10.6,23.7 23.7,23.7 13,0 23.7,-10.63 23.7,-23.7 0,-13.07 -10.7,-23.7 -23.7,-23.7" />
      </g>
    </g>
    <g
       id="g3546"
       transform="matrix(0.03527778,0,0,-0.03527778,-379.14416,300.23221)">
      <g
         clip-path="url(#clipPath3552)"
         id="g3548">
        <path
           id="path3562"
           style="fill:url(#radialGradient3560);fill-opacity:1;fill-rule:nonzero;stroke:none"
           d="m 12482.1,7700.16 c -6.4,0 -11.6,5.2 -11.6,11.6 0,6.39 5.2,11.59 11.6,11.59 6.3,0 11.5,-5.2 11.5,-11.59 0,-6.4 -5.2,-11.6 -11.5,-11.6" />
      </g>
    </g>
    <path
       id="path4026"
       style="fill:#7e5130;fill-opacity:1;fill-rule:nonzero;stroke:none;stroke-width:0.0352778"
       d="m 83.883757,61.336376 c -0.43392,2.31669 -2.90336,3.59268 -5.13645,4.35363 -3.31964,1.1377 -6.76627,1.899 -10.25525,2.27189 -0.17991,0.0222 -0.3563,0.0374 -0.53622,0.0561 -2.32833,0.22013 -4.72369,0.28328 -6.87917,1.18604 -2.96333,1.24989 -5.10116,3.95075 -7.99747,5.3347 -4.00756,1.91029 -8.80533,1.01847 -12.92225,-0.6417 -2.08492,-0.84314 -4.10281,-1.87255 -6.27945,-2.39854 -4.22275,-1.02588 -8.74888,-0.10442 -12.94694,-1.2199 -1.001889,-0.26494 -2.010834,-0.66781 -2.712862,-1.42875 -1.051277,-1.12289 -1.171222,-2.71604 -0.800805,-4.24921 3.471333,0.14922 7.380107,-1.2125 9.013477,1.89512 0.74083,1.41005 2.42358,1.97732 3.95463,2.41723 4.66725,1.35432 3.40078,-6.61423 9.63437,-1.80163 8.65364,6.67773 6.31825,0.80962 8.15269,-0.85443 0.99131,-0.89147 2.59645,-0.32808 3.86292,-0.75706 3.24203,-1.1042 0.21519,-3.0928 8.24794,-3.74192 9.68023,-0.77575 7.80345,-7.97595 10.57981,-11.04617 0.62089,-0.69004 2.52589,-1.93605 -0.0953,-5.08071 -4.12397,-4.95794 -0.16228,-5.18936 0.77964,-8.03204 1.06186,-3.16724 -2.45886,-4.0513 -2.06022,-8.94574 1.59102,0.38064 3.175,0.77223 4.7625,1.16028 1.61219,0.39511 3.40783,0.93627 4.16277,2.41371 1.22767,2.42464 -1.28411,5.25251 -0.84666,7.93856 0.45508,2.82751 3.85939,4.21887 4.96005,6.86399 1.09009,2.61515 -0.37041,5.62928 0.0917,8.42363 0.33161,1.99955 1.64041,3.89079 1.26647,5.88293" />
    <path
       id="path4028"
       style="fill:#9e6f43;fill-opacity:1;fill-rule:nonzero;stroke:none;stroke-width:0.0352778"
       d="m 70.862727,50.711766 c -2.77636,3.07022 -0.89958,10.27042 -10.57981,11.04617 -8.03275,0.64912 -5.00591,2.63772 -8.24794,3.74192 -1.26647,0.42898 -2.87161,-0.13441 -3.86292,0.75706 -1.83444,1.66405 0.50095,7.53216 -8.15269,0.85443 -6.23359,-4.8126 -4.96712,3.15595 -9.63437,1.80163 -1.53105,-0.43991 -3.2138,-1.00718 -3.95463,-2.41723 -1.63337,-3.10762 -5.542144,-1.7459 -9.013477,-1.89512 0.211666,-0.83573 0.564444,-1.65629 1.005416,-2.3689 0.899584,-1.46615 2.088445,-2.76437 2.977445,-4.22311 3.894666,2.17523 8.695976,2.07434 10.876136,0.58949 2.85398,-1.94345 2.89631,-2.8836 6.09248,-0.69744 8.83355,6.03956 16.17133,-5.01403 16.24189,-5.08106 2.4765,-2.30152 6.92855,-3.42829 6.0713,-6.15914 -2.8575,-9.05017 -0.68086,-1.33174 4.44147,-19.01437 1.4605,0.32455 2.91395,0.6604 4.36387,1.00718 -0.39864,4.89444 3.12208,5.7785 2.06022,8.94574 -0.94192,2.84268 -4.90361,3.0741 -0.77964,8.03204 2.62114,3.14466 0.71614,4.39067 0.0953,5.08071" />
    <path
       id="path4030"
       style="fill:#bf9460;fill-opacity:1;fill-rule:nonzero;stroke:none;stroke-width:0.0352778"
       d="m 60.681557,46.660466 c 0.85725,2.73085 -3.5948,3.85762 -6.0713,6.15914 -0.0706,0.067 -7.40834,11.12062 -16.24189,5.08106 -3.19617,-2.18616 -3.2385,-1.24601 -6.09248,0.69744 -2.18016,1.48485 -6.98147,1.58574 -10.876136,-0.58949 0.338667,-0.55562 0.631472,-1.13771 0.850195,-1.75683 0.395111,-1.13418 0.511527,-2.3615 1.008944,-3.4544 0.959557,-2.09303 3.122087,-3.32035 4.769557,-4.94312 4.62492,4.1857 8.26911,-0.98496 11.87097,-0.10443 3.54189,0.86537 7.03792,-1.30563 10.0577,-3.37996 4.81189,-3.30518 2.50119,-11.45999 10.02241,-17.76483 1.71803,0.31362 3.43606,0.66781 5.1435,1.04105 -5.12233,17.68263 -7.29897,9.9642 -4.44147,19.01437" />
    <path
       id="path4032"
       style="fill:#d3ae7e;fill-opacity:1;fill-rule:nonzero;stroke:none;stroke-width:0.0352778"
       d="m 59.979527,26.605046 c -7.52122,6.30484 -5.21052,14.45965 -10.02241,17.76483 -3.01978,2.07433 -6.51581,4.24533 -10.0577,3.37996 -3.60186,-0.88053 -7.24605,4.29013 -11.87097,0.10443 0.508,-0.49989 0.96661,-1.03717 1.32292,-1.65241 1.03011,-1.7646 1.10066,-3.92854 1.89441,-5.81237 1.21709,-2.90619 3.96522,-4.82353 6.58284,-6.58425 0,0 0.20108,-0.13088 0.53269,-0.35807 1.84503,-1.64535 3.69006,-3.29424 5.53861,-4.94312 1.19945,-1.07068 2.4377,-2.16359 3.95464,-2.69699 1.62278,-0.57079 3.41136,-0.44414 5.12586,-0.254 2.34598,0.26141 4.67784,0.62301 6.99911,1.05199" />
    <path
       id="path4034"
       style="fill:#9b6439;fill-opacity:1;fill-rule:nonzero;stroke:none;stroke-width:0.0352778"
       d="m 51.131867,51.205656 c -0.93486,-0.69709 -2.42006,-0.94016 -4.23334,-0.2667 -0.93133,0.34466 -2.31775,1.14582 -2.70933,2.25425 -0.31397,0.92745 -0.16933,1.8034 0.26811,2.48743 -0.91017,-0.73871 -1.43933,-1.94945 -0.97719,-3.29635 0.38805,-1.10878 1.77447,-1.90994 2.7058,-2.25496 2.38831,-0.88759 4.24039,-0.17286 4.94595,1.07633" />
    <path
       id="path4036"
       style="fill:#b78551;fill-opacity:1;fill-rule:nonzero;stroke:none;stroke-width:0.0352778"
       d="m 47.053757,56.339976 c -0.70909,0.1905 -1.47109,0.0582 -2.10962,-0.31467 -0.17286,-0.0974 -0.33513,-0.21661 -0.48683,-0.34537 -0.43392,-0.68404 -0.58208,-1.55928 -0.26811,-2.48815 0.39158,-1.10807 1.778,-1.91029 2.71286,-2.25319 1.80975,-0.67416 3.29495,-0.42862 4.22981,0.26776 l 0.0106,0.01 c 0.0776,0.14252 0.14111,0.29315 0.18697,0.44873 0.49742,1.56527 -0.61736,3.67841 -4.27566,4.67536" />
    <path
       id="path4038"
       style="fill:#caa77a;fill-opacity:1;fill-rule:nonzero;stroke:none;stroke-width:0.0352778"
       d="m 47.759307,57.101976 c -0.89605,0.23989 -1.87678,-0.0349 -2.59644,-0.65722 -0.0847,-0.13159 -0.16228,-0.27305 -0.21873,-0.41945 0.63853,0.37288 1.40053,0.50517 2.10962,0.31467 3.6583,-0.99695 4.77308,-3.11009 4.27566,-4.67536 0.18697,0.0843 0.35631,0.18944 0.51153,0.30339 l 0.004,0.0127 c 0.88547,1.58785 -0.067,4.02978 -4.08517,5.12127" />
    <path
       id="path4040"
       style="fill:#c59a69;fill-opacity:1;fill-rule:nonzero;stroke:none;stroke-width:0.0352778"
       d="m 47.053757,56.339976 c -0.70909,0.1905 -1.47109,0.0582 -2.10962,-0.31467 -0.25752,-0.60819 -0.29986,-1.3201 -0.0459,-2.06799 0.38806,-1.10772 1.77448,-1.90994 2.70934,-2.25319 1.51341,-0.56339 2.79752,-0.48895 3.7218,-0.0395 0.49742,1.56527 -0.61736,3.67841 -4.27566,4.67536" />
    <path
       id="path4042"
       style="fill:#824a29;fill-opacity:1;fill-rule:nonzero;stroke:none;stroke-width:0.0352778"
       d="m 34.046837,62.585556 c -0.60325,-0.51929 -1.61925,-0.69709 -2.921,-0.18768 -0.67028,0.26071 -1.68981,0.86431 -2.03553,1.69545 -0.28222,0.69498 -0.23989,1.35044 0.0141,1.86126 -0.58208,-0.55069 -0.8643,-1.45521 -0.45155,-2.46486 0.34572,-0.83114 1.36172,-1.43475 2.032,-1.6958 1.71802,-0.67134 2.95627,-0.14147 3.36197,0.79163" />
    <path
       id="path4044"
       style="fill:#986339;fill-opacity:1;fill-rule:nonzero;stroke:none;stroke-width:0.0352778"
       d="m 30.864777,66.440356 c -0.63853,0.18239 -1.30175,-0.0208 -1.76036,-0.48718 -0.0212,-0.0441 -0.0423,-0.0875 -0.0564,-0.13335 -0.20461,-0.48683 -0.2152,-1.08973 0.0423,-1.72508 0.34925,-0.83327 1.36525,-1.4351 2.03553,-1.69722 1.30528,-0.50976 2.31775,-0.33055 2.921,0.18803 l 0.004,0.007 c 0.0811,0.19615 0.13052,0.40852 0.13405,0.63289 0.0423,1.13065 -0.93133,2.52024 -3.31964,3.21521" />
    <path
       id="path4046"
       style="fill:#af885a;fill-opacity:1;fill-rule:nonzero;stroke:none;stroke-width:0.0352778"
       d="m 31.009417,67.081006 c -0.63853,0.18239 -1.30175,-0.0208 -1.75683,-0.48401 -0.11642,-0.23284 -0.1905,-0.49319 -0.20461,-0.77717 0.0141,0.0459 0.0353,0.0893 0.0564,0.13335 0.45861,0.46637 1.12183,0.66957 1.76036,0.48718 2.38831,-0.69497 3.36197,-2.08456 3.31964,-3.21521 l 0.004,0.004 0.004,0.007 c 0.508,1.18569 -0.3175,3.01731 -3.18206,3.84528" />
    <path
       id="path4048"
       style="fill:#a97c4f;fill-opacity:1;fill-rule:nonzero;stroke:none;stroke-width:0.0352778"
       d="m 30.864777,66.440356 c -0.63853,0.18239 -1.30175,-0.0208 -1.76036,-0.48718 -0.0212,-0.0441 -0.0423,-0.0875 -0.0564,-0.13335 -0.0247,-0.3369 0.0318,-0.7045 0.18697,-1.08444 0.34572,-0.83044 1.36525,-1.4351 2.03553,-1.69474 1.29822,-0.5073 2.31422,-0.33409 2.91394,0.1845 0.0423,1.13065 -0.93133,2.52024 -3.31964,3.21521" />
    <path
       id="path4050"
       style="fill:#824a29;fill-opacity:1;fill-rule:nonzero;stroke:none;stroke-width:0.0352778"
       d="m 61.023757,53.934386 c -1.63336,0.19474 -2.55764,1.40688 -2.62467,2.3936 -0.4445,-1.02235 0.49036,-2.83528 2.53294,-3.07763 1.31587,-0.16158 2.02848,0.58314 1.92264,1.47073 -0.23636,-0.53658 -0.87841,-0.901 -1.83091,-0.7867" />
    <path
       id="path4052"
       style="fill:#986339;fill-opacity:1;fill-rule:nonzero;stroke:none;stroke-width:0.0352778"
       d="m 61.295397,56.529426 c -1.3335,0.64205 -2.20487,0.56338 -2.64584,0.1531 -0.10936,-0.0991 -0.19403,-0.22013 -0.25047,-0.35454 0.067,-0.98743 0.99131,-2.19886 2.62467,-2.3936 0.94897,-0.1143 1.59102,0.25047 1.83091,0.78705 -0.007,0.0519 -0.0176,0.10336 -0.0282,0.15628 -0.13053,0.58773 -0.62089,1.20932 -1.53105,1.65171" />
    <path
       id="path4054"
       style="fill:#af885a;fill-opacity:1;fill-rule:nonzero;stroke:none;stroke-width:0.0352778"
       d="m 61.524697,57.058236 c -1.65805,0.79939 -2.6035,0.47942 -2.8963,-0.20179 0.004,-0.0571 0.0106,-0.11571 0.0212,-0.17392 0.44097,0.41028 1.31234,0.48895 2.64584,-0.1531 0.91016,-0.44239 1.40052,-1.06398 1.53105,-1.65171 0.10936,0.10971 0.19756,0.2346 0.25753,0.37112 -0.0776,0.63183 -0.56445,1.32574 -1.55928,1.8094" />
    <path
       id="path4056"
       style="fill:#a97c4f;fill-opacity:1;fill-rule:nonzero;stroke:none;stroke-width:0.0352778"
       d="m 61.295397,56.529426 c -1.3335,0.64205 -2.20487,0.56338 -2.64584,0.1531 0.15875,-0.95215 1.06892,-2.038 2.6035,-2.21968 0.71261,-0.0861 1.24884,0.0956 1.57339,0.41487 -0.13053,0.58773 -0.62089,1.20932 -1.53105,1.65171" />
    <path
       id="path4058"
       style="fill:#69381f;fill-opacity:1;fill-rule:nonzero;stroke:none;stroke-width:0.0352778"
       d="m 74.147087,64.413656 c 0.69497,0.20002 1.94381,-0.0642 3.62656,-1.03752 0.86783,-0.49989 2.20486,-1.43793 2.72344,-2.29518 0.43039,-0.71472 0.44803,-1.26153 0.18345,-1.59667 0.66675,0.2353 0.92427,0.89782 0.29986,1.93605 -0.51859,0.85725 -1.85561,1.79528 -2.72345,2.29552 -2.21897,1.28341 -3.70416,1.33456 -4.10986,0.6978" />
    <path
       id="path4060"
       style="fill:#7a492a;fill-opacity:1;fill-rule:nonzero;stroke:none;stroke-width:0.0352778"
       d="m 78.539167,59.787326 c 0.74084,-0.37994 1.47462,-0.49495 1.9932,-0.35313 0.0529,0.0138 0.1023,0.0303 0.14817,0.0494 0.26458,0.33584 0.24341,0.88229 -0.17992,1.59596 -0.52211,0.85937 -1.85914,1.79564 -2.72697,2.29729 -1.68275,0.97191 -2.93159,1.23614 -3.62656,1.03682 l -0.004,-0.006 c -0.0741,-0.11959 -0.10936,-0.26423 -0.10583,-0.42757 0.0176,-0.94826 1.37583,-2.58021 4.50144,-4.19276" />
    <path
       id="path4062"
       style="fill:#936b46;fill-opacity:1;fill-rule:nonzero;stroke:none;stroke-width:0.0352778"
       d="m 78.225197,59.311076 c 0.81845,-0.41875 1.62278,-0.51541 2.14136,-0.30374 0.0917,0.11747 0.1517,0.25929 0.16581,0.42686 -0.51858,-0.14182 -1.25236,-0.0268 -1.9932,0.35313 -3.12561,1.61255 -4.4838,3.2445 -4.50144,4.19276 -0.0741,-0.009 -0.14111,-0.0229 -0.20461,-0.0423 l -0.004,-0.006 c -0.50094,-0.81245 0.73025,-2.72909 4.39561,-4.62033" />
    <path
       id="path4064"
       style="fill:#8f633f;fill-opacity:1;fill-rule:nonzero;stroke:none;stroke-width:0.0352778"
       d="m 78.539167,59.787326 c 0.74084,-0.37994 1.47462,-0.49495 1.9932,-0.35313 0.0353,0.31185 -0.0706,0.70626 -0.34925,1.17193 -0.51858,0.85619 -1.85914,1.79528 -2.72345,2.29446 -1.52752,0.88301 -2.69522,1.18251 -3.42194,1.0795 0.0176,-0.94826 1.37583,-2.58021 4.50144,-4.19276" />
    <path
       id="path4066"
       style="fill:#69381f;fill-opacity:1;fill-rule:nonzero;stroke:none;stroke-width:0.0352778"
       d="m 55.478087,67.861346 c 0.59619,0.32809 1.46403,0.54081 2.43417,0.40676 1.89089,-0.27058 1.94733,-0.9705 1.25941,-1.55999 1.11125,0.62689 1.56986,1.58256 -0.75847,1.90924 -1.3088,0.18662 -2.44475,-0.26141 -2.93511,-0.75601" />
    <path
       id="path4068"
       style="fill:#7a492a;fill-opacity:1;fill-rule:nonzero;stroke:none;stroke-width:0.0352778"
       d="m 55.199397,67.275036 0.007,-0.0123 c 0.18345,-0.7807 1.1042,-1.22061 2.17311,-1.12854 0.60325,0.0557 1.26295,0.27446 1.778,0.55633 l 0.0176,0.0169 0.0353,0.031 c 0.64911,0.58526 0.55739,1.26506 -1.29822,1.52859 -0.96661,0.13652 -1.83445,-0.0762 -2.4377,-0.40605 -0.21166,-0.19897 -0.3175,-0.40993 -0.27516,-0.58596" />
    <path
       id="path4070"
       style="fill:#936b46;fill-opacity:1;fill-rule:nonzero;stroke:none;stroke-width:0.0352778"
       d="m 55.121777,66.907086 c 0.18345,-0.78846 1.11125,-1.23049 2.1837,-1.13771 0.60325,0.0529 1.66158,0.72919 1.66158,0.72919 0.0917,0.0815 0.17639,0.16299 0.24342,0.23989 l -0.0353,-0.031 -0.0176,-0.0169 c -0.51505,-0.28187 -1.17475,-0.50059 -1.778,-0.55633 -1.06891,-0.0921 -1.98966,0.34784 -2.17311,1.12854 -0.0847,-0.12453 -0.11289,-0.24518 -0.0847,-0.3556" />
    <path
       id="path4072"
       style="fill:#8f633f;fill-opacity:1;fill-rule:nonzero;stroke:none;stroke-width:0.0352778"
       d="m 55.206447,67.262686 c 0.18345,-0.7807 1.1042,-1.22061 2.17311,-1.12854 0.60325,0.0557 1.26295,0.27446 1.778,0.55633 l 0.0176,0.0169 0.0353,0.031 c 0.42686,0.49565 0.254,0.93098 -1.37231,1.16346 -0.97014,0.13371 -1.8415,-0.079 -2.43769,-0.40569 -0.0811,-0.0759 -0.1517,-0.15593 -0.19403,-0.23354" />
    <path
       id="path4074"
       style="fill:#824a29;fill-opacity:1;fill-rule:nonzero;stroke:none;stroke-width:0.0352778"
       d="m 69.063557,33.377316 c -0.762,-0.33902 -1.86266,-0.1471 -2.43769,0.64947 -0.635,0.87559 -0.40217,1.80199 0.16933,2.3555 -0.87489,-0.42334 -1.41817,-1.5928 -0.635,-2.67759 0.71261,-0.98284 2.21545,-1.03928 2.90336,-0.32738" />
    <path
       id="path4076"
       style="fill:#986339;fill-opacity:1;fill-rule:nonzero;stroke:none;stroke-width:0.0352778"
       d="m 69.278757,35.031496 c -0.0706,0.19226 -0.1517,0.36689 -0.23989,0.51505 -0.44803,0.7419 -1.04775,1.02412 -1.60867,0.99519 -0.22578,-0.006 -0.43744,-0.0642 -0.635,-0.16016 -0.5715,-0.5528 -0.80433,-1.47814 -0.16933,-2.35373 0.57503,-0.79728 1.67569,-0.98919 2.43769,-0.65194 0.0459,0.0497 0.0917,0.10196 0.13053,0.15734 0.25047,0.36054 0.32456,0.86395 0.0847,1.49825" />
    <path
       id="path4078"
       style="fill:#af885a;fill-opacity:1;fill-rule:nonzero;stroke:none;stroke-width:0.0352778"
       d="m 70.051337,35.340176 c -0.0741,0.19191 -0.15522,0.36654 -0.24342,0.5147 -0.62089,1.03294 -1.54516,1.17581 -2.24014,0.83538 -0.0494,-0.0466 -0.0988,-0.0963 -0.13758,-0.14852 0.56092,0.0289 1.16064,-0.25329 1.60867,-0.99519 0.0882,-0.14816 0.16933,-0.32279 0.23989,-0.51505 0.23989,-0.6343 0.1658,-1.13771 -0.0847,-1.49825 0.22578,0.0116 0.4445,0.0639 0.64206,0.15134 0.35277,0.36372 0.49036,0.92216 0.21519,1.65559" />
    <path
       id="path4080"
       style="fill:#a97c4f;fill-opacity:1;fill-rule:nonzero;stroke:none;stroke-width:0.0352778"
       d="m 69.278757,35.031496 c -0.0706,0.19226 -0.1517,0.36689 -0.23989,0.51505 -0.44803,0.7419 -1.04775,1.02412 -1.60867,0.99519 -0.46567,-0.56162 -0.61383,-1.40547 -0.0353,-2.20557 0.42686,-0.59055 1.14653,-0.84949 1.79917,-0.80292 0.25047,0.36054 0.32456,0.86395 0.0847,1.49825" />
    <path
       id="path4082"
       style="fill:#ad7748;fill-opacity:1;fill-rule:nonzero;stroke:none;stroke-width:0.0352778"
       d="m 49.526727,32.315106 c -0.0176,-0.0353 -0.0388,-0.0663 -0.0635,-0.0977 -1.98261,-2.41653 -6.45231,0.42757 -6.72747,2.25284 -0.81139,-1.68734 2.93511,-6.11188 6.65338,-2.806 0.16934,0.15064 0.18698,0.40464 0.13759,0.65088" />
    <path
       id="path4084"
       style="fill:#cb9e69;fill-opacity:1;fill-rule:nonzero;stroke:none;stroke-width:0.0352778"
       d="m 45.871947,35.151796 c -1.41464,0.15945 -2.29306,0.0243 -2.76931,-0.28082 l -0.004,-0.002 c -0.17286,-0.11112 -0.28928,-0.24483 -0.36336,-0.39405 v -0.005 c 0.27163,-3.11644 4.45911,-4.48733 6.52638,-2.46803 l 0.004,0.002 c 0.067,0.0667 0.13406,0.13794 0.19756,0.21378 0.0247,0.0307 0.0459,0.0624 0.0635,0.0974 -0.22578,1.10349 -2.16959,2.67441 -3.65478,2.83669" />
    <path
       id="path4086"
       style="fill:#dcbe93;fill-opacity:1;fill-rule:nonzero;stroke:none;stroke-width:0.0352778"
       d="m 46.136527,35.636156 c -1.7145,0.19156 -2.65641,-0.31538 -3.03389,-0.76518 0.47625,0.30516 1.35467,0.44027 2.76931,0.28082 1.48519,-0.16228 3.429,-1.7332 3.65478,-2.83669 -0.0176,-0.0349 -0.0388,-0.0667 -0.0635,-0.0974 -0.0635,-0.0758 -0.13053,-0.14711 -0.19756,-0.21378 0.15875,0.11818 0.31045,0.26035 0.4445,0.42757 0.0282,0.0321 0.0459,0.0639 0.067,0.0988 0.0811,1.37619 -2.15547,2.94217 -3.64067,3.10586" />
    <path
       id="path4088"
       style="fill:#d4ae82;fill-opacity:1;fill-rule:nonzero;stroke:none;stroke-width:0.0352778"
       d="m 45.871947,35.151796 c -1.41464,0.15945 -2.29306,0.0243 -2.76931,-0.28082 l -0.004,-0.002 c -0.0459,-0.0572 -0.0847,-0.11747 -0.11289,-0.18027 l -0.004,-0.004 c 0.25753,-1.69862 4.14161,-4.27919 6.27944,-2.68322 l 0.004,0.002 c 0.067,0.0667 0.13406,0.13794 0.19756,0.21378 0.0247,0.0307 0.0459,0.0624 0.0635,0.0974 -0.22578,1.10349 -2.16959,2.67441 -3.65478,2.83669" />
    <path
       id="path4090"
       style="fill:#b0895b;fill-opacity:1;fill-rule:nonzero;stroke:none;stroke-width:0.0352778"
       d="m 67.821777,54.699566 c -0.43391,1.65064 -1.86619,1.12148 -1.61925,-0.11254 0.35278,-1.784 1.82739,-0.67063 1.61925,0.11254" />
    <path
       id="path4092"
       style="fill:#b0895b;fill-opacity:1;fill-rule:nonzero;stroke:none;stroke-width:0.0352778"
       d="m 64.967807,58.058006 c 0.73025,-0.66957 1.26295,0.0374 0.75847,0.56303 -0.73377,0.75989 -1.10419,-0.24553 -0.75847,-0.56303" />
    <path
       id="path4094"
       style="fill:#b0895b;fill-opacity:1;fill-rule:nonzero;stroke:none;stroke-width:0.0352778"
       d="m 62.413697,59.439136 c 0.508,-0.46673 0.87842,0.0261 0.52564,0.39264 -0.51153,0.52987 -0.76906,-0.1711 -0.52564,-0.39264" />
    <path
       id="path4096"
       style="fill:#cba87b;fill-opacity:1;fill-rule:nonzero;stroke:none;stroke-width:0.0352778"
       d="m 48.313167,47.580856 c 0.68792,-0.66392 1.34056,0.20285 0.87136,0.73272 -0.67733,0.76588 -1.19591,-0.41769 -0.87136,-0.73272" />
    <path
       id="path4098"
       style="fill:#cba87b;fill-opacity:1;fill-rule:nonzero;stroke:none;stroke-width:0.0352778"
       d="m 40.619087,50.810536 c 1.17828,-0.80186 1.87678,0.52705 1.04775,1.18146 -1.19592,0.94615 -1.60867,-0.80116 -1.04775,-1.18146" />
    <path
       id="path4100"
       style="fill:#dcbe93;fill-opacity:1;fill-rule:nonzero;stroke:none;stroke-width:0.0352778"
       d="m 52.754637,27.925846 c 1.03364,-0.99695 2.01084,0.30445 1.30881,1.09996 -1.016,1.15041 -1.79564,-0.62689 -1.30881,-1.09996" />
    <path
       id="path4102"
       style="fill:#dcbe93;fill-opacity:1;fill-rule:nonzero;stroke:none;stroke-width:0.0352778"
       d="m 50.630917,41.269666 c -3.26319,0.37818 -3.27025,-3.07375 -0.88547,-3.52707 3.44664,-0.65582 2.43064,3.3475 0.88547,3.52707" />
    <path
       id="path4104"
       style="fill:#dcbe93;fill-opacity:1;fill-rule:nonzero;stroke:none;stroke-width:0.0352778"
       d="m 44.065727,38.533876 c 1.53811,-1.04493 2.44828,0.68721 1.36878,1.53987 -1.55928,1.23331 -2.09903,-1.04387 -1.36878,-1.53987" />
    <path
       id="path4106"
       style="fill:#dcbe93;fill-opacity:1;fill-rule:nonzero;stroke:none;stroke-width:0.0352778"
       d="m 54.444447,31.259246 c 0.82197,-0.55598 1.30528,0.36547 0.73025,0.8195 -0.82903,0.65581 -1.1183,-0.55563 -0.73025,-0.8195" />
    <path
       id="path4108"
       style="fill:#dcbe93;fill-opacity:1;fill-rule:nonzero;stroke:none;stroke-width:0.0352778"
       d="m 45.882527,41.969226 c 0.62795,-0.4251 0.99836,0.2794 0.55739,0.62618 -0.635,0.50129 -0.85372,-0.42475 -0.55739,-0.62618" />
  </g>
</svg>
