<?xml version="1.0" encoding="UTF-8" standalone="no"?>
<!-- Created with Inkscape (http://www.inkscape.org/) -->

<svg
   width="100"
   height="100"
   viewBox="0 0 100 100"
   version="1.1"
   id="svg6417"
   inkscape:version="1.2.1 (9c6d41e410, 2022-07-14)"
   sodipodi:docname="asteroid6.svg"
   xmlns:inkscape="http://www.inkscape.org/namespaces/inkscape"
   xmlns:sodipodi="http://sodipodi.sourceforge.net/DTD/sodipodi-0.dtd"
   xmlns="http://www.w3.org/2000/svg"
   xmlns:svg="http://www.w3.org/2000/svg">
  <sodipodi:namedview
     id="namedview6419"
     pagecolor="#505050"
     bordercolor="#ffffff"
     borderopacity="1"
     inkscape:showpageshadow="0"
     inkscape:pageopacity="0"
     inkscape:pagecheckerboard="1"
     inkscape:deskcolor="#505050"
     inkscape:document-units="mm"
     showgrid="false"
     inkscape:zoom="0.74564394"
     inkscape:cx="365.45593"
     inkscape:cy="132.77115"
     inkscape:window-width="1920"
     inkscape:window-height="1017"
     inkscape:window-x="-8"
     inkscape:window-y="-8"
     inkscape:window-maximized="1"
     inkscape:current-layer="layer1" />
  <defs
     id="defs6414">
    <clipPath
       id="clipPath806"
       clipPathUnits="userSpaceOnUse">
      <path
         id="path804"
         d="m 1647.59,6712.4 c -8.87,0 -16.08,7.2 -16.08,16.06 0,8.87 7.21,16.08 16.08,16.08 8.86,0 16.07,-7.21 16.07,-16.08 0,-8.86 -7.21,-16.06 -16.07,-16.06" />
    </clipPath>
    <radialGradient
       id="radialGradient814"
       spreadMethod="pad"
       gradientTransform="matrix(7356.97,0,0,-4948.95,8500,6000)"
       gradientUnits="userSpaceOnUse"
       r="1"
       cy="0"
       cx="0"
       fy="0"
       fx="0">
      <stop
         id="stop808"
         offset="0"
         style="stop-opacity:1;stop-color:#2e6dae" />
      <stop
         id="stop810"
         offset="0.00000013"
         style="stop-opacity:1;stop-color:#2e6dae" />
      <stop
         id="stop812"
         offset="1"
         style="stop-opacity:1;stop-color:#265b91" />
    </radialGradient>
    <clipPath
       id="clipPath1112"
       clipPathUnits="userSpaceOnUse">
      <path
         id="path1110"
         d="m 3366.86,7505.59 c -4.31,0 -7.81,3.51 -7.81,7.81 0,4.3 3.5,7.8 7.81,7.8 4.3,0 7.8,-3.5 7.8,-7.8 0,-4.3 -3.5,-7.81 -7.8,-7.81" />
    </clipPath>
    <radialGradient
       id="radialGradient1120"
       spreadMethod="pad"
       gradientTransform="matrix(7356.97,0,0,-4948.95,8500,6000)"
       gradientUnits="userSpaceOnUse"
       r="1"
       cy="0"
       cx="0"
       fy="0"
       fx="0">
      <stop
         id="stop1114"
         offset="0"
         style="stop-opacity:1;stop-color:#3175b3" />
      <stop
         id="stop1116"
         offset="0.00000013"
         style="stop-opacity:1;stop-color:#3175b3" />
      <stop
         id="stop1118"
         offset="1"
         style="stop-opacity:1;stop-color:#2a6496" />
    </radialGradient>
    <clipPath
       id="clipPath1960"
       clipPathUnits="userSpaceOnUse">
      <path
         id="path1958"
         d="m 3502.17,6710.22 c -7.71,0 -13.98,6.27 -13.98,13.98 0,7.71 6.27,13.98 13.98,13.98 7.71,0 13.98,-6.27 13.98,-13.98 0,-7.71 -6.27,-13.98 -13.98,-13.98" />
    </clipPath>
    <radialGradient
       id="radialGradient1968"
       spreadMethod="pad"
       gradientTransform="matrix(7356.97,0,0,-4948.95,8500,6000)"
       gradientUnits="userSpaceOnUse"
       r="1"
       cy="0"
       cx="0"
       fy="0"
       fx="0">
      <stop
         id="stop1962"
         offset="0"
         style="stop-opacity:1;stop-color:#2e6dae" />
      <stop
         id="stop1964"
         offset="0.00000013"
         style="stop-opacity:1;stop-color:#2e6dae" />
      <stop
         id="stop1966"
         offset="1"
         style="stop-opacity:1;stop-color:#265b91" />
    </radialGradient>
    <clipPath
       id="clipPath2266"
       clipPathUnits="userSpaceOnUse">
      <path
         id="path2264"
         d="m 2413.23,6867.39 c -8.68,0 -15.74,7.06 -15.74,15.73 0,8.68 7.06,15.74 15.74,15.74 8.67,0 15.73,-7.06 15.73,-15.74 0,-8.67 -7.06,-15.73 -15.73,-15.73" />
    </clipPath>
    <radialGradient
       id="radialGradient2274"
       spreadMethod="pad"
       gradientTransform="matrix(7356.97,0,0,-4948.95,8500,6000)"
       gradientUnits="userSpaceOnUse"
       r="1"
       cy="0"
       cx="0"
       fy="0"
       fx="0">
      <stop
         id="stop2268"
         offset="0"
         style="stop-opacity:1;stop-color:#3175b3" />
      <stop
         id="stop2270"
         offset="0.00000013"
         style="stop-opacity:1;stop-color:#3175b3" />
      <stop
         id="stop2272"
         offset="1"
         style="stop-opacity:1;stop-color:#2a6496" />
    </radialGradient>
  </defs>
  <g
     inkscape:label="Warstwa 1"
     inkscape:groupmode="layer"
     id="layer1">
    <g
       id="g800"
       transform="matrix(0.03527778,0,0,-0.03527778,-40.984502,295.38628)">
      <g
         clip-path="url(#clipPath806)"
         id="g802">
        <path
           id="path816"
           style="fill:url(#radialGradient814);fill-opacity:1;fill-rule:nonzero;stroke:none"
           d="m 1647.59,6712.4 c -8.87,0 -16.08,7.2 -16.08,16.06 0,8.87 7.21,16.08 16.08,16.08 8.86,0 16.07,-7.21 16.07,-16.08 0,-8.86 -7.21,-16.06 -16.07,-16.06" />
      </g>
    </g>
    <g
       id="g1106"
       transform="matrix(0.03527778,0,0,-0.03527778,-40.984502,295.38628)">
      <g
         clip-path="url(#clipPath1112)"
         id="g1108">
        <path
           id="path1122"
           style="fill:url(#radialGradient1120);fill-opacity:1;fill-rule:nonzero;stroke:none"
           d="m 3366.86,7505.59 c -4.31,0 -7.81,3.51 -7.81,7.81 0,4.3 3.5,7.8 7.81,7.8 4.3,0 7.8,-3.5 7.8,-7.8 0,-4.3 -3.5,-7.81 -7.8,-7.81" />
      </g>
    </g>
    <g
       id="g1954"
       transform="matrix(0.03527778,0,0,-0.03527778,-40.984502,295.38628)">
      <g
         clip-path="url(#clipPath1960)"
         id="g1956">
        <path
           id="path1970"
           style="fill:url(#radialGradient1968);fill-opacity:1;fill-rule:nonzero;stroke:none"
           d="m 3502.17,6710.22 c -7.71,0 -13.98,6.27 -13.98,13.98 0,7.71 6.27,13.98 13.98,13.98 7.71,0 13.98,-6.27 13.98,-13.98 0,-7.71 -6.27,-13.98 -13.98,-13.98" />
      </g>
    </g>
    <g
       id="g2260"
       transform="matrix(0.03527778,0,0,-0.03527778,-40.984502,295.38628)">
      <g
         clip-path="url(#clipPath2266)"
         id="g2262">
        <path
           id="path2276"
           style="fill:url(#radialGradient2274);fill-opacity:1;fill-rule:nonzero;stroke:none"
           d="m 2413.23,6867.39 c -8.68,0 -15.74,7.06 -15.74,15.73 0,8.68 7.06,15.74 15.74,15.74 8.67,0 15.73,-7.06 15.73,-15.74 0,-8.67 -7.06,-15.73 -15.73,-15.73" />
      </g>
    </g>
    <path
       id="path5184"
       style="fill:#7e5130;fill-opacity:1;fill-rule:nonzero;stroke:none;stroke-width:0.0352778"
       d="m 80.663871,62.372308 c -2.03694,3.40642 -3.05718,3.10691 -6.29285,2.53788 -13.936844,-2.44298 -8.56545,15.35148 -31.905934,9.00536 -0.633589,-0.17074 -1.270706,-0.36406 -1.915584,-0.53481 3.262136,-3.13337 4.972756,0.24659 9.961387,-3.7973 8.375298,-6.79767 6.884811,-1.8549 11.694584,-4.42313 2.363258,-1.26294 3.178881,-4.30142 5.261328,-5.99334 5.405619,-4.39632 10.204099,-2.38231 3.118199,-11.243381 -2.097613,-2.621139 5.24263,-4.730397 4.51027,-8.591903 -0.47414,-2.499783 -5.913616,-4.476397 -3.05365,-8.451498 0.71332,-0.994128 1.11549,-1.661583 1.28623,-2.185105 0.87242,1.889125 1.35043,3.994503 2.44263,5.731581 1.56316,2.477205 4.53708,4.10845 5.23876,6.957131 0.89146,3.611386 -2.32552,7.620706 -0.60714,10.920945 2.51884,4.83658 5.04896,2.06727 0.26177,10.06757" />
    <path
       id="path5186"
       style="fill:#9e6f43;fill-opacity:1;fill-rule:nonzero;stroke:none;stroke-width:0.0352778"
       d="m 70.585001,47.923587 c 7.0859,8.861071 2.28742,6.847061 -3.118199,11.243381 -2.082447,1.69192 -2.89807,4.7304 -5.261328,5.99334 -4.809773,2.56823 -3.319286,-2.37454 -11.694584,4.42313 -4.988631,4.04389 -6.699251,0.66393 -9.961387,3.7973 -1.096433,-0.28857 -2.204156,-0.49318 -3.323167,-0.36795 l -0.06809,0.0113 0.03387,-0.0533 c 2.94005,-4.14619 1.691922,-3.97157 2.777067,-5.55342 2.476853,-3.60363 4.923719,0.66392 8.030281,-7.93574 2.473325,-6.82414 6.327422,-2.50719 9.085086,-3.70593 3.034595,-1.32398 1.024114,-5.01474 3.523898,-10.355795 1.092553,-2.3368 -3.174648,-8.679039 1.183569,-12.16907 1.213909,-0.974725 3.034595,-1.46438 3.48227,-2.954867 0.724606,-2.420408 -2.139245,-3.463572 -0.933097,-6.668911 5.709003,0.121355 7.745941,2.378428 8.986661,5.068006 -0.17074,0.523522 -0.57291,1.190977 -1.28623,2.185105 -2.859967,3.975101 2.57951,5.951715 3.05365,8.451498 0.73236,3.861506 -6.607884,5.970764 -4.51027,8.591903" />
    <path
       id="path5188"
       style="fill:#bf9460;fill-opacity:1;fill-rule:nonzero;stroke:none;stroke-width:0.0352778"
       d="m 65.274288,30.295986 c -0.447675,1.490487 -2.268361,1.980142 -3.48227,2.954867 -4.358217,3.490031 -0.09102,9.83227 -1.183569,12.16907 -2.499784,5.341055 -0.489303,9.031815 -3.523898,10.355795 -2.757664,1.19874 -6.611761,-3.11821 -9.085086,3.70593 -3.106562,8.59966 -5.553428,4.33211 -8.030281,7.93574 -1.085145,1.58185 0.162983,1.40723 -2.777067,5.55342 l -0.03387,0.0533 c -2.992967,0.39053 -6.509456,3.90349 -13.174487,-1.34302 -4.316589,-3.40254 -7.24147,-8.5083 -8.034161,-13.94037 0.125236,0.13264 0.25788,0.25788 0.398286,0.38312 8.804275,7.71172 13.329709,-6.22477 22.551321,-4.29049 1.11513,0.23531 2.185105,0.66393 3.304116,0.85373 6.096001,1.04704 3.964165,-5.747108 6.239934,-8.182333 1.069622,-1.138061 2.822223,-1.369483 3.983214,-2.412647 3.007784,-2.681817 -0.34925,-5.416903 -0.212725,-7.332487 0.04586,-0.625828 0.356659,-1.210028 0.413456,-1.835856 0.144286,-1.566686 -1.323622,-2.909358 -1.281995,-4.479925 0.05327,-2.113139 4.08552,-4.036131 4.840465,-6.334831 0.553861,-0.0039 1.164519,-0.02293 1.851025,-0.06844 0.682625,-0.04551 1.437569,-0.110066 2.276122,-0.204611 1.517297,-0.170744 2.852561,-0.235303 4.02837,-0.208844 -1.206148,3.205339 1.657703,4.248503 0.933097,6.668911" />
    <path
       id="path5190"
       style="fill:#d3ae7e;fill-opacity:1;fill-rule:nonzero;stroke:none;stroke-width:0.0352778"
       d="m 51.345209,30.4438 c -0.04163,1.570567 1.426281,2.913239 1.281995,4.479925 -0.0568,0.625828 -0.367595,1.210028 -0.413456,1.835856 -0.136525,1.915584 3.220509,4.65067 0.212725,7.332487 -1.160991,1.043164 -2.913592,1.274586 -3.983214,2.412647 -2.275769,2.435225 -0.143933,9.229373 -6.239934,8.182333 -1.119011,-0.1898 -2.188986,-0.61842 -3.304116,-0.85373 -9.221612,-1.93428 -13.747046,12.00221 -22.551321,4.29049 -0.140406,-0.12524 -0.27305,-0.25048 -0.398286,-0.38312 -0.0039,-0.0226 -0.0078,-0.0455 -0.03034,-0.22366 -0.01129,-0.0684 -0.01905,-0.14041 -0.02258,-0.20885 l -0.0078,-0.0833 c -0.0039,-0.0836 -0.0074,-0.16334 -0.0074,-0.24659 0,-0.0646 0,-0.12912 0.0035,-0.19368 0.04163,-0.91016 0.375709,-1.79035 0.967317,-2.48814 0.144286,-0.16334 0.2921,-0.31503 0.447675,-0.45932 l 0.01905,-0.0187 0.02999,-0.0268 0.04586,-0.0378 0.08714,-0.0836 0.0074,-0.004 c 0.08361,-0.0759 0.174625,-0.14781 0.261761,-0.22366 0.05327,-0.0416 0.102658,-0.0871 0.155575,-0.12912 l 0.01905,-0.0152 0.07232,-0.0568 0.06421,-0.0529 0.04163,-0.0342 c 0.08749,-0.0723 0.178505,-0.14817 0.269522,-0.22402 l 0.05327,-0.0416 0.07937,-0.072 0.07973,-0.0684 c 0.04163,-0.0342 0.08714,-0.072 0.129117,-0.11007 0.106186,-0.091 0.212372,-0.18556 0.318558,-0.28821 l 0.07197,-0.072 c 0.155575,-0.14782 0.31503,-0.31115 0.478014,-0.4893 0.0381,-0.042 0.07585,-0.0836 0.113594,-0.12524 0.03422,-0.0378 0.06844,-0.0797 0.102658,-0.12136 0.07973,-0.091 0.159456,-0.18979 0.239184,-0.2921 0.03034,-0.0416 0.06421,-0.0836 0.09454,-0.12135 0.03775,-0.0455 0.07232,-0.091 0.106186,-0.13653 l 0.0039,-0.008 0.02646,-0.0377 c 0.02646,-0.0342 0.04939,-0.0646 0.07232,-0.0988 l 0.04551,-0.0646 0.06068,-0.0871 c 0.0568,-0.0797 0.113594,-0.16686 0.174272,-0.25788 0.01905,-0.0303 0.04198,-0.0607 0.06068,-0.0949 l 0.0568,-0.0871 0.03034,-0.0494 c 0.04586,-0.0723 0.09137,-0.14429 0.136878,-0.22401 0.03775,-0.0603 0.07585,-0.12101 0.110066,-0.18945 0.02999,-0.0455 0.0568,-0.091 0.08326,-0.1404 0.106186,-0.1898 0.216253,-0.39053 0.326319,-0.60678 l 0.04939,-0.09102 0.04163,-0.08749 c 0.06456,-0.125237 0.128764,-0.257881 0.193322,-0.398287 0.04198,-0.08714 0.08361,-0.174272 0.125237,-0.265641 0.08714,-0.189442 0.174625,-0.390525 0.265641,-0.59937 0.03422,-0.08714 0.07585,-0.178153 0.113595,-0.27305 0.0381,-0.09102 0.0762,-0.185914 0.113947,-0.280458 l 0.0074,-0.01905 c 0.01905,-0.04939 0.0381,-0.0949 0.05715,-0.147814 0.02293,-0.05715 0.04551,-0.113947 0.06809,-0.174625 0.09878,-0.257881 0.201084,-0.527403 0.299861,-0.811742 0.02646,-0.07232 0.05292,-0.148166 0.07937,-0.224014 0.07232,-0.204611 0.144287,-0.413455 0.212725,-0.629708 0.03034,-0.07937 0.0568,-0.159103 0.07938,-0.238831 l 0.01164,-0.02646 c 0.01905,-0.0568 0.03422,-0.113947 0.05327,-0.170744 l 0.02646,-0.08714 c 0.04163,-0.132998 0.08361,-0.265642 0.125236,-0.398639 0.04516,-0.143934 0.08714,-0.2921 0.132645,-0.439914 1.968852,-6.626931 5.098344,-5.595056 7.313436,-6.975829 2.754136,-1.71838 2.685697,-5.955594 5.098345,-8.125531 2.518833,-2.26448 6.611761,-1.3843 9.574389,-3.026833 5.743223,-3.186642 4.897262,-1.392414 10.716332,-1.445331 -0.754945,2.2987 -4.787195,4.221692 -4.840465,6.334831" />
    <path
       id="path5192"
       style="fill:#824a29;fill-opacity:1;fill-rule:nonzero;stroke:none;stroke-width:0.0352778"
       d="m 64.200432,59.066778 c 3.503437,-0.54857 5.278967,-7.60165 0.709437,-8.36824 5.675492,-0.29316 3.511197,9.22479 -0.709437,8.36824" />
    <path
       id="path5194"
       style="fill:#986339;fill-opacity:1;fill-rule:nonzero;stroke:none;stroke-width:0.0352778"
       d="m 62.024146,55.981738 c -0.0028,-0.0716 -0.0095,-0.13582 -0.0063,-0.20285 -0.01658,-1.09537 0.31362,-2.18369 0.790222,-3.16653 0.36195,-0.73942 0.849842,-1.4665 1.539523,-1.7646 0.04974,-0.0215 0.09913,-0.0427 0.149225,-0.061 0.13335,-0.0445 0.272697,-0.0727 0.413808,-0.0893 0.899231,0.1524 1.744839,0.641 2.274711,1.46579 0.512939,0.79375 0.667103,1.90994 0.363009,2.8695 -0.02469,0.16439 -0.06209,0.33267 -0.100895,0.4953 -0.318911,1.25977 -1.043869,2.44016 -2.055283,3.08821 -0.371122,0.22966 -0.777875,0.38594 -1.190978,0.4505 l -0.0056,-10e-4 c -0.181681,-0.0402 -0.359128,-0.0998 -0.527051,-0.18062 l -0.0025,7.1e-4 c -0.168275,-0.0804 -0.329142,-0.18133 -0.478367,-0.30374 -0.711552,-0.58456 -1.104194,-1.57551 -1.163461,-2.60033" />
    <path
       id="path5196"
       style="fill:#af885a;fill-opacity:1;fill-rule:nonzero;stroke:none;stroke-width:0.0352778"
       d="m 61.010968,55.918948 c -0.0028,-0.0716 -0.0074,-0.13653 -0.0067,-0.2032 -0.01623,-1.09538 0.313972,-2.18335 0.792691,-3.16689 0.359834,-0.73872 0.849842,-1.4665 1.537406,-1.76389 0.179564,-0.0829 0.371828,-0.12735 0.563033,-0.15028 0.204611,0.0332 0.404636,0.0857 0.59937,0.15204 -0.05009,0.0183 -0.09948,0.0395 -0.149225,0.061 -0.689681,0.2981 -1.177573,1.02518 -1.539523,1.7646 -0.476602,0.98284 -0.806802,2.07116 -0.790222,3.16653 -0.0032,0.067 0.0035,0.13124 0.0063,0.20285 0.05927,1.02482 0.451909,2.01577 1.163461,2.60033 0.149225,0.12241 0.310092,0.2233 0.478367,0.30374 -0.158397,0.055 -0.317147,0.0924 -0.478367,0.11818 l -0.0056,-10e-4 c -0.363361,-0.0801 -0.709436,-0.23813 -1.007886,-0.48331 -0.7112,-0.58455 -1.103842,-1.57551 -1.163109,-2.60032" />
    <path
       id="path5198"
       style="fill:#a97c4f;fill-opacity:1;fill-rule:nonzero;stroke:none;stroke-width:0.0352778"
       d="m 62.024146,55.981738 c -0.0028,-0.0716 -0.0095,-0.13582 -0.0063,-0.20285 -0.01658,-1.09537 0.31362,-2.18369 0.790222,-3.16653 0.36195,-0.73942 0.849842,-1.4665 1.539523,-1.7646 0.04974,-0.0215 0.09913,-0.0427 0.149225,-0.061 0.669219,0.23848 1.266472,0.67452 1.677811,1.31304 0.512939,0.79375 0.664633,1.91065 0.359833,2.86703 -0.02152,0.16686 -0.05927,0.33514 -0.100189,0.49847 -0.316441,1.25907 -1.044222,2.44017 -2.052814,3.08751 -0.227894,0.1397 -0.466019,0.25295 -0.712964,0.33232 l -0.0025,7.1e-4 c -0.168275,-0.0804 -0.329142,-0.18133 -0.478367,-0.30374 -0.711552,-0.58456 -1.104194,-1.57551 -1.163461,-2.60033" />
    <path
       id="path5200"
       style="fill:#9b6439;fill-opacity:1;fill-rule:nonzero;stroke:none;stroke-width:0.0352778"
       d="m 41.178153,57.352628 c -0.426508,-0.26881 -1.088672,-0.42545 -2.053167,-0.42509 -1.566686,-0.13582 -3.66783,1.15958 -3.73768,4.00297 -0.01411,0.56056 0.06068,0.99412 0.200377,1.32291 -0.475544,-0.27375 -0.770114,-0.88723 -0.74295,-1.96814 0.0702,-2.84304 2.171348,-4.13879 3.737681,-4.00297 1.582914,-0.002 2.359378,0.43039 2.595739,1.07032" />
    <path
       id="path5202"
       style="fill:#b78551;fill-opacity:1;fill-rule:nonzero;stroke:none;stroke-width:0.0352778"
       d="m 37.409075,62.187808 c -0.542925,0.21766 -1.061155,0.30409 -1.488722,0.19473 -0.118886,-0.0258 -0.230364,-0.0699 -0.332317,-0.13053 -0.141111,-0.32773 -0.214842,-0.76023 -0.200378,-1.3208 0.0695,-2.84374 2.170289,-4.13949 3.73627,-4.00473 0.966611,0 1.626658,0.15875 2.055284,0.42545 0.02046,0.0547 0.03775,0.11218 0.04727,0.1711 0.318558,1.49683 -1.906764,3.88937 -3.817409,4.66478" />
    <path
       id="path5204"
       style="fill:#caa77a;fill-opacity:1;fill-rule:nonzero;stroke:none;stroke-width:0.0352778"
       d="m 37.818297,62.534938 c -0.690739,0.28116 -1.345847,0.33973 -1.821391,0.067 -0.02963,-0.0684 -0.05574,-0.14217 -0.07655,-0.21943 0.427567,0.10936 0.945797,0.0229 1.488722,-0.19473 1.910645,-0.77541 4.135967,-3.16795 3.817409,-4.66478 0.134761,0.0508 0.255058,0.11147 0.361597,0.17885 0.542925,1.47709 -1.781881,4.02908 -3.769784,4.83306" />
    <path
       id="path5206"
       style="fill:#c59a69;fill-opacity:1;fill-rule:nonzero;stroke:none;stroke-width:0.0352778"
       d="m 37.409075,62.187808 c -0.542925,0.21766 -1.061155,0.30409 -1.488722,0.19473 -0.0889,-0.29527 -0.13335,-0.65934 -0.123472,-1.10384 0.07197,-2.8441 2.172405,-4.13738 3.738386,-4.00262 0.725664,-10e-4 1.279878,0.0878 1.691217,0.24695 0.318558,1.49683 -1.906764,3.88937 -3.817409,4.66478" />
    <path
       id="path5208"
       style="fill:#69381f;fill-opacity:1;fill-rule:nonzero;stroke:none;stroke-width:0.0352778"
       d="m 76.126441,63.486378 c 0.23636,0.0296 0.56021,-0.0515 0.97119,-0.26141 1.6824,-0.6678 2.86491,-3.47345 1.54129,-4.34163 0.11571,0.019 0.2413,0.0473 0.34078,0.13017 1.61396,1.34409 0.43075,3.68336 -1.25659,4.35399 -0.65969,0.33796 -1.35784,0.33337 -1.59667,0.11888" />
    <path
       id="path5210"
       style="fill:#7a492a;fill-opacity:1;fill-rule:nonzero;stroke:none;stroke-width:0.0352778"
       d="m 77.344931,59.469648 c 0.3743,-0.37747 0.78846,-0.62053 1.18428,-0.59831 0.0367,3.6e-4 0.072,0.006 0.10936,0.0113 1.32397,0.86819 0.1404,3.67524 -1.54058,4.34234 -0.41205,0.20991 -0.73625,0.29246 -0.97191,0.26106 -0.0681,-0.0628 -0.12206,-0.14323 -0.1598,-0.23742 -0.34361,-0.83114 0.40287,-2.78271 1.37865,-3.77896" />
    <path
       id="path5212"
       style="fill:#936b46;fill-opacity:1;fill-rule:nonzero;stroke:none;stroke-width:0.0352778"
       d="m 76.982281,59.232228 c 0.40781,-0.41239 0.86677,-0.66428 1.29328,-0.58455 0.0984,0.0642 0.18309,0.13864 0.25365,0.22366 -0.39582,-0.0222 -0.80998,0.22084 -1.18428,0.59831 -0.97578,0.99625 -1.72226,2.94782 -1.37865,3.77896 -0.0737,0.01 -0.14076,0.008 -0.2025,-3.5e-4 -0.67416,-0.60713 0.12912,-2.90548 1.2185,-4.01603" />
    <path
       id="path5214"
       style="fill:#8f633f;fill-opacity:1;fill-rule:nonzero;stroke:none;stroke-width:0.0352778"
       d="m 77.344931,59.469648 c 0.3743,-0.37747 0.78846,-0.62053 1.18428,-0.59831 0.89006,1.04952 -0.23848,3.49956 -1.79564,4.11657 -0.30269,0.15487 -0.55986,0.23918 -0.76729,0.2607 -0.34361,-0.83114 0.40287,-2.78271 1.37865,-3.77896" />
    <path
       id="path5216"
       style="fill:#9b6439;fill-opacity:1;fill-rule:nonzero;stroke:none;stroke-width:0.0352778"
       d="m 27.215913,64.101628 c -0.462491,-0.0956 -1.058686,0.10195 -1.628069,0.73307 -0.293158,0.3242 -0.684036,0.92287 -0.650522,1.44709 0.03104,0.43674 0.227189,0.76095 0.500591,0.95039 -0.460375,-0.11713 -1.107016,-0.58138 -1.152172,-1.21568 -0.03351,-0.52458 0.357011,-1.12324 0.650522,-1.44744 0.750711,-0.83221 1.812925,-0.83079 2.27965,-0.46743" />
    <path
       id="path5218"
       style="fill:#b78551;fill-opacity:1;fill-rule:nonzero;stroke:none;stroke-width:0.0352778"
       d="m 26.515649,66.983468 c -0.232127,0.21484 -0.533047,0.31362 -0.830791,0.2921 -0.08185,-0.005 -0.164747,-0.0173 -0.245886,-0.042 -0.273756,-0.1905 -0.469195,-0.51435 -0.500592,-0.95109 -0.03351,-0.52423 0.355247,-1.12289 0.649817,-1.44674 0.570089,-0.63148 1.16593,-0.83009 1.628422,-0.73413 l 0.0028,0.002 c 0.05715,0.043 0.107245,0.0938 0.152753,0.15169 0.430389,0.53693 0.346075,1.60655 -0.856545,2.72839" />
    <path
       id="path5220"
       style="fill:#caa77a;fill-opacity:1;fill-rule:nonzero;stroke:none;stroke-width:0.0352778"
       d="m 26.912877,67.157738 c -0.29598,0.2734 -0.707672,0.35595 -1.076678,0.2473 -0.05433,-0.0384 -0.106186,-0.0801 -0.151341,-0.12947 0.297744,0.0215 0.598664,-0.0773 0.830791,-0.2921 1.20262,-1.12184 1.286934,-2.19146 0.856545,-2.72839 0.08396,-0.005 0.164042,0.006 0.241653,0.0208 l 0.0028,0.002 c 0.587728,0.46531 0.624417,1.639 -0.703792,2.87972" />
    <path
       id="path5222"
       style="fill:#c59a69;fill-opacity:1;fill-rule:nonzero;stroke:none;stroke-width:0.0352778"
       d="m 26.515649,66.983468 c -0.232127,0.21484 -0.533047,0.31362 -0.830791,0.2921 -0.194381,-0.1905 -0.324909,-0.46778 -0.34925,-0.8188 -0.03351,-0.52423 0.3556,-1.12289 0.649816,-1.44956 0.474134,-0.5267 0.968376,-0.75001 1.38677,-0.75213 0.430389,0.53693 0.346075,1.60655 -0.856545,2.72839" />
    <path
       id="path5224"
       style="fill:#69381f;fill-opacity:1;fill-rule:nonzero;stroke:none;stroke-width:0.0352778"
       d="m 78.829771,43.125104 c -0.0547,-0.845609 -0.46284,-1.387475 -0.8001,-1.480609 0.35313,-0.166158 1.14759,0.234598 1.21568,1.292578 0.0455,0.68192 -0.39547,1.182864 -0.6985,1.077384 0.18556,-0.08961 0.31503,-0.396523 0.28292,-0.889353" />
    <path
       id="path5226"
       style="fill:#7a492a;fill-opacity:1;fill-rule:nonzero;stroke:none;stroke-width:0.0352778"
       d="m 77.939011,43.112051 c -0.16228,-0.559506 -0.17921,-0.946856 -0.11042,-1.189214 l 7.1e-4,-0.0018 c 0.042,-0.144992 0.11253,-0.233892 0.20037,-0.276578 0.33691,0.09313 0.74542,0.637117 0.8001,1.479198 0.0251,0.389819 -0.0501,0.666044 -0.17568,0.805039 l -10e-4,0.0018 c -0.0328,0.03634 -0.0681,0.06385 -0.10654,0.0829 -0.21554,-0.07479 -0.44944,-0.366889 -0.60748,-0.901347" />
    <path
       id="path5228"
       style="fill:#936b46;fill-opacity:1;fill-rule:nonzero;stroke:none;stroke-width:0.0352778"
       d="m 77.821181,43.332537 c -0.22789,-0.782108 -0.16863,-1.235428 0.007,-1.4097 -0.0688,0.242358 -0.0519,0.629708 0.11042,1.189214 0.15804,0.534458 0.39194,0.826558 0.60748,0.901347 0.0385,-0.01905 0.0737,-0.04657 0.10654,-0.0829 -0.0508,0.154164 -0.12982,0.256823 -0.22331,0.301626 -0.21695,-0.07726 -0.45155,-0.367595 -0.60854,-0.899584" />
    <path
       id="path5230"
       style="fill:#8f633f;fill-opacity:1;fill-rule:nonzero;stroke:none;stroke-width:0.0352778"
       d="m 77.939011,43.112051 c -0.16228,-0.559506 -0.17921,-0.946856 -0.11042,-1.189214 l 7.1e-4,-0.0018 0.0822,-0.05997 c 0.33691,0.09313 0.74542,0.636764 0.7994,1.480961 0.0169,0.244475 -0.007,0.439914 -0.0568,0.58667 l -10e-4,0.0018 c -0.0328,0.03634 -0.0681,0.06385 -0.10654,0.0829 -0.21554,-0.07479 -0.44944,-0.366889 -0.60748,-0.901347" />
    <path
       id="path5232"
       style="fill:#9b6439;fill-opacity:1;fill-rule:nonzero;stroke:none;stroke-width:0.0352778"
       d="m 58.902768,32.757317 c -0.08502,-0.416631 -0.489655,-0.824442 -1.333853,-1.002594 -1.655586,-0.340431 -2.43593,0.166158 -2.561519,0.803627 -0.14217,-0.787047 0.537633,-1.631597 2.568928,-1.207911 1.145469,0.236361 1.495072,0.897114 1.326444,1.406878" />
    <path
       id="path5234"
       style="fill:#b78551;fill-opacity:1;fill-rule:nonzero;stroke:none;stroke-width:0.0352778"
       d="m 58.485432,33.276253 c -0.9652,0.53587 -2.107495,0.602192 -2.786592,0.224014 -0.250825,-0.140053 -0.441678,-0.343253 -0.566914,-0.566914 -0.06138,-0.1143 -0.106539,-0.233892 -0.131233,-0.355953 l 0.0067,-0.01799 c 0.125236,-0.638528 0.906286,-1.14547 2.561167,-0.805745 0.843138,0.178859 1.248127,0.587728 1.335264,1.004359 l -0.01129,0.04022 c -0.06138,0.193675 -0.202142,0.363361 -0.407106,0.478014" />
    <path
       id="path5236"
       style="fill:#caa77a;fill-opacity:1;fill-rule:nonzero;stroke:none;stroke-width:0.0352778"
       d="m 58.610315,33.641025 c -0.9652,0.53587 -2.107141,0.602192 -2.786239,0.224014 -0.377119,-0.213783 -0.620889,-0.567266 -0.695678,-0.924278 l 0.0035,-0.0074 c 0.125236,0.223661 0.316089,0.426861 0.566914,0.566914 0.679097,0.378178 1.821392,0.311856 2.786592,-0.224014 0.204964,-0.114653 0.345722,-0.284339 0.407106,-0.478014 0.06985,0.10407 0.115711,0.214489 0.136525,0.324556 -0.05256,0.208844 -0.197909,0.398286 -0.418748,0.51823" />
    <path
       id="path5238"
       style="fill:#c59a69;fill-opacity:1;fill-rule:nonzero;stroke:none;stroke-width:0.0352778"
       d="m 58.485432,33.276253 c -0.9652,0.53587 -2.107495,0.602192 -2.786592,0.224014 -0.250825,-0.140053 -0.441678,-0.343253 -0.566914,-0.566914 l 0.0035,-0.01058 c 0.122414,-0.637117 0.903111,-1.144059 2.557992,-0.804334 0.625122,0.130881 1.008592,0.38735 1.199092,0.679803 -0.06138,0.193675 -0.202142,0.363361 -0.407106,0.478014" />
    <path
       id="path5240"
       style="fill:#ad7748;fill-opacity:1;fill-rule:nonzero;stroke:none;stroke-width:0.0352778"
       d="m 45.121503,33.075523 c -0.344311,-0.206375 -0.813152,-0.342548 -1.424164,-0.392289 -3.715808,-0.305506 -9.006064,4.962525 -7.685969,7.071078 -1.451681,-0.814211 -0.928512,-3.20922 0.797983,-4.976284 1.634772,-1.673225 4.383264,-2.748492 6.353881,-2.585861 1.017764,0.08714 1.650647,0.407458 1.958269,0.883356" />
    <path
       id="path5242"
       style="fill:#cb9e69;fill-opacity:1;fill-rule:nonzero;stroke:none;stroke-width:0.0352778"
       d="m 37.846167,40.13637 c -0.480484,0.01658 -0.942975,-0.04127 -1.384653,-0.188383 -0.05856,-0.0187 -0.117828,-0.04128 -0.177447,-0.06421 -0.09878,-0.03669 -0.191911,-0.0822 -0.272697,-0.130175 -1.320095,-2.107141 3.970161,-7.376936 7.684911,-7.07002 0.612775,0.04904 1.08197,0.185562 1.42487,0.391584 0.03493,0.05115 0.06421,0.10548 0.09349,0.159808 1.049866,2.137834 -3.433939,6.766278 -7.36847,6.901392" />
    <path
       id="path5244"
       style="fill:#dcbe93;fill-opacity:1;fill-rule:nonzero;stroke:none;stroke-width:0.0352778"
       d="m 38.386622,40.499379 c -0.546805,0.0194 -1.070327,-0.0568 -1.565275,-0.25012 -0.09878,-0.03669 -0.188736,-0.08467 -0.270227,-0.130528 -0.03316,-0.05539 -0.06421,-0.111477 -0.08961,-0.170744 0.441678,0.147108 0.904169,0.204964 1.384653,0.188383 3.934531,-0.135114 8.418336,-4.763558 7.36847,-6.901392 0.165805,0.05821 0.316089,0.127 0.446264,0.205317 1.374775,2.053167 -3.239206,6.923264 -7.274279,7.059084" />
    <path
       id="path5246"
       style="fill:#d4ae82;fill-opacity:1;fill-rule:nonzero;stroke:none;stroke-width:0.0352778"
       d="m 37.846167,40.13637 c -0.480484,0.01658 -0.942975,-0.04127 -1.384653,-0.188383 -0.956028,-2.208389 4.154664,-7.197726 7.775223,-6.901392 0.378883,0.03104 0.703439,0.09525 0.9779,0.188383 1.049866,2.137834 -3.433939,6.766278 -7.36847,6.901392" />
    <path
       id="path5248"
       style="fill:#824a29;fill-opacity:1;fill-rule:nonzero;stroke:none;stroke-width:0.0352778"
       d="m 70.652381,27.408853 c -0.0656,-0.708378 -3.115376,-1.466498 -3.747554,-0.92957 -0.04516,-1.077736 4.648904,0.08608 3.747554,0.92957" />
    <path
       id="path5250"
       style="fill:#986339;fill-opacity:1;fill-rule:nonzero;stroke:none;stroke-width:0.0352778"
       d="m 67.211038,27.056428 c -0.103717,-0.118534 -0.182386,-0.226131 -0.229305,-0.321028 -0.05327,-0.09666 -0.07832,-0.182386 -0.07832,-0.256822 0.633589,-0.53587 3.683708,0.222603 3.750028,0.930628 l -0.0402,0.03281 c -0.0804,0.06456 -0.194035,0.129822 -0.353843,0.187678 -0.833614,0.316441 -2.572808,-0.03457 -3.048353,-0.573264" />
    <path
       id="path5252"
       style="fill:#af885a;fill-opacity:1;fill-rule:nonzero;stroke:none;stroke-width:0.0352778"
       d="m 67.286533,27.314661 c -0.211314,-0.240242 -0.3048,-0.428272 -0.30727,-0.578203 l 0.0025,-0.0011 c 0.04692,0.0949 0.125588,0.202494 0.229305,0.321028 0.475545,0.538691 2.214739,0.889705 3.048353,0.573264 0.159808,-0.05786 0.2734,-0.12312 0.35384,-0.187678 0.0691,0.07479 0.10795,0.150636 0.11571,0.225072 -0.0829,0.07549 -0.20673,0.1524 -0.394055,0.220839 -0.833262,0.316442 -2.572456,-0.03457 -3.048353,-0.573264" />
    <path
       id="path5254"
       style="fill:#a97c4f;fill-opacity:1;fill-rule:nonzero;stroke:none;stroke-width:0.0352778"
       d="m 67.211038,27.056428 c -0.103717,-0.118534 -0.182386,-0.226131 -0.229305,-0.321028 0.567619,-0.476956 3.063522,0.07867 3.631498,0.706614 -0.0804,0.06456 -0.194032,0.129822 -0.35384,0.187678 -0.833614,0.316441 -2.572808,-0.03457 -3.048353,-0.573264" />
    <path
       id="path5256"
       style="fill:#ad7748;fill-opacity:1;fill-rule:nonzero;stroke:none;stroke-width:0.0352778"
       d="m 22.982933,56.758198 c -1.21532,-0.25541 -1.787878,-3.47521 -0.02222,-4.97487 0.605719,-0.51435 1.518002,-0.48225 1.925814,-0.20849 -0.362303,-0.0935 -0.79622,0.0268 -1.250598,0.4378 -1.65488,1.31233 -1.596672,4.0767 -0.652991,4.74556" />
    <path
       id="path5258"
       style="fill:#cb9e69;fill-opacity:1;fill-rule:nonzero;stroke:none;stroke-width:0.0352778"
       d="m 25.050916,55.011248 c -0.382764,0.66146 -0.74295,1.11548 -1.075619,1.39312 -0.279048,0.23636 -0.536575,0.35278 -0.76447,0.37041 -0.07902,0.006 -0.155575,0 -0.227189,-0.0159 -0.944386,-0.66957 -1.001889,-3.43359 0.652286,-4.74663 0.453673,-0.40922 0.887589,-0.53022 1.250245,-0.43673 0.04374,0.0293 0.08784,0.0631 0.128411,0.0998 0.635706,0.56445 0.823383,1.97379 0.03634,3.33587" />
    <path
       id="path5260"
       style="fill:#dcbe93;fill-opacity:1;fill-rule:nonzero;stroke:none;stroke-width:0.0352778"
       d="m 25.406516,55.140358 c -0.382764,0.66182 -0.743303,1.11337 -1.075619,1.39348 -0.375709,0.31891 -0.709437,0.41769 -0.992012,0.35207 -0.04586,-0.03 -0.0889,-0.0677 -0.128058,-0.11113 0.227895,-0.0176 0.485422,-0.13405 0.76447,-0.37041 0.332669,-0.27764 0.692855,-0.73166 1.075619,-1.39312 0.787047,-1.36208 0.59937,-2.77142 -0.03634,-3.33587 0.07796,3.5e-4 0.154869,0.009 0.227189,0.0296 0.734483,0.4826 1.000478,1.9872 0.164747,3.43535" />
    <path
       id="path5262"
       style="fill:#d4ae82;fill-opacity:1;fill-rule:nonzero;stroke:none;stroke-width:0.0352778"
       d="m 25.050916,55.011248 c -0.382764,0.66146 -0.74295,1.11548 -1.075619,1.39312 -0.279048,0.23636 -0.536575,0.35278 -0.76447,0.37041 -0.817033,-0.81668 -0.797278,-3.38172 0.780697,-4.63338 0.361245,-0.32702 0.711553,-0.47096 1.023056,-0.46602 0.635706,0.56445 0.823383,1.97379 0.03634,3.33587" />
    <path
       id="path5264"
       style="fill:#824a29;fill-opacity:1;fill-rule:nonzero;stroke:none;stroke-width:0.0352778"
       d="m 42.680987,68.446788 c 0.247297,1.00471 1.956153,1.98226 3.563055,1.76071 1.237192,-0.17003 1.817159,-0.80221 1.865489,-1.49366 0.174978,0.82586 -0.363714,1.68381 -1.838325,1.88666 -1.817158,0.25012 -3.757083,-1.02941 -3.590219,-2.15371" />
    <path
       id="path5266"
       style="fill:#986339;fill-opacity:1;fill-rule:nonzero;stroke:none;stroke-width:0.0352778"
       d="m 43.871259,67.341538 c 0.246239,-0.0931 0.491067,-0.16687 0.718961,-0.2152 1.843264,-0.38347 3.102328,0.42087 3.45052,1.35643 0.02893,0.0762 0.05503,0.15452 0.06879,0.23178 -0.04868,0.68968 -0.629708,1.32256 -1.865136,1.49225 -1.607255,0.22401 -3.315758,-0.75636 -3.563408,-1.7593 0.01305,-0.0787 0.0321,-0.15664 0.06632,-0.23213 0.140758,-0.33126 0.496358,-0.641 1.12395,-0.87383" />
    <path
       id="path5268"
       style="fill:#af885a;fill-opacity:1;fill-rule:nonzero;stroke:none;stroke-width:0.0352778"
       d="m 43.843389,66.858938 c 0.252237,-0.0928 0.490714,-0.16687 0.722137,-0.21273 1.994253,-0.41804 3.306233,0.56057 3.516136,1.58609 -0.0067,0.0829 -0.0194,0.16581 -0.04092,0.25047 -0.348192,-0.93556 -1.607256,-1.7399 -3.45052,-1.35643 -0.227894,0.0483 -0.472722,0.12206 -0.718961,0.2152 -0.627592,0.23283 -0.983192,0.54257 -1.12395,0.87383 -0.04445,-0.0833 -0.07408,-0.16828 -0.09419,-0.25047 0.05997,-0.42122 0.415925,-0.8188 1.190272,-1.10596" />
    <path
       id="path5270"
       style="fill:#a97c4f;fill-opacity:1;fill-rule:nonzero;stroke:none;stroke-width:0.0352778"
       d="m 43.871259,67.341538 c 0.246239,-0.0931 0.491067,-0.16687 0.718961,-0.2152 1.843264,-0.38347 3.102328,0.42087 3.45052,1.35643 -0.157692,0.58773 -0.737659,1.09503 -1.821392,1.2439 -1.473553,0.20214 -3.029303,-0.60184 -3.472039,-1.5113 0.140758,-0.33126 0.496358,-0.641 1.12395,-0.87383" />
    <path
       id="path5272"
       style="fill:#9b6439;fill-opacity:1;fill-rule:nonzero;stroke:none;stroke-width:0.0352778"
       d="m 57.01576,49.069408 c -0.890764,-2.61514 -5.760862,-1.429807 -6.011334,0.63183 -0.809978,-2.429584 4.99357,-4.147612 5.954537,-1.241428 0.06315,0.194027 0.07832,0.397933 0.0568,0.609598" />
    <path
       id="path5274"
       style="fill:#b78551;fill-opacity:1;fill-rule:nonzero;stroke:none;stroke-width:0.0352778"
       d="m 56.07349,50.638918 c -1.54305,1.27776 -3.724628,1.38042 -4.884208,-0.54963 l -0.04304,-0.0706 c -0.06491,-0.1076 -0.108656,-0.21626 -0.143228,-0.3175 0.251883,-2.061989 5.123392,-3.247323 6.012039,-0.63218 l -0.006,0.0346 c -0.06562,0.54257 -0.412045,1.10349 -0.935567,1.53529" />
    <path
       id="path5276"
       style="fill:#caa77a;fill-opacity:1;fill-rule:nonzero;stroke:none;stroke-width:0.0352778"
       d="m 56.249174,51.070718 c -1.562101,1.29434 -3.775076,1.38113 -4.925131,-0.61912 -0.06526,-0.11078 -0.111125,-0.21732 -0.141464,-0.31927 l 0.0067,-0.043 c 1.15958,1.93005 3.341158,1.82739 4.884208,0.54963 0.523522,-0.4318 0.86995,-0.99272 0.935567,-1.53529 0.07091,0.12242 0.132997,0.25435 0.181328,0.39723 -0.05397,0.55104 -0.404636,1.12712 -0.941211,1.56986" />
    <path
       id="path5278"
       style="fill:#c59a69;fill-opacity:1;fill-rule:nonzero;stroke:none;stroke-width:0.0352778"
       d="m 56.07349,50.638918 c -1.54305,1.27776 -3.724628,1.38042 -4.884208,-0.54963 0.28963,-1.921931 4.601633,-3.054701 5.819775,-0.98566 -0.06562,0.54257 -0.412045,1.10349 -0.935567,1.53529" />
    <path
       id="path5280"
       style="fill:#cba87b;fill-opacity:1;fill-rule:nonzero;stroke:none;stroke-width:0.0352778"
       d="m 36.134842,69.755948 c -1.438628,0.16686 -1.44145,-1.35573 -0.389467,-1.55575 1.520472,-0.28928 1.072092,1.47673 0.389467,1.55575" />
    <path
       id="path5282"
       style="fill:#cba87b;fill-opacity:1;fill-rule:nonzero;stroke:none;stroke-width:0.0352778"
       d="m 36.800181,65.338468 c 1.598789,-1.08585 2.542469,0.71366 1.421694,1.59984 -1.619955,1.28094 -2.179814,-1.08479 -1.421694,-1.59984" />
    <path
       id="path5284"
       style="fill:#b0895b;fill-opacity:1;fill-rule:nonzero;stroke:none;stroke-width:0.0352778"
       d="m 65.18821,42.384976 c -2.6797,0.310797 -2.684992,-2.525536 -0.725664,-2.89807 2.832453,-0.538691 1.997075,2.750609 0.725664,2.89807" />
    <path
       id="path5286"
       style="fill:#b0895b;fill-opacity:1;fill-rule:nonzero;stroke:none;stroke-width:0.0352778"
       d="m 66.314983,43.74952 c 0.781755,-0.53093 1.243189,0.348898 0.694972,0.782462 -0.792339,0.62618 -1.066095,-0.530578 -0.694972,-0.782462" />
    <path
       id="path5288"
       style="fill:#b0895b;fill-opacity:1;fill-rule:nonzero;stroke:none;stroke-width:0.0352778"
       d="m 63.247227,43.406268 c 1.264355,-0.858661 2.010833,0.564444 1.124303,1.265414 -1.281289,1.013177 -1.724378,-0.857956 -1.124303,-1.265414" />
    <path
       id="path5290"
       style="fill:#b0895b;fill-opacity:1;fill-rule:nonzero;stroke:none;stroke-width:0.0352778"
       d="m 68.482802,44.978246 c 0.672747,-0.456848 1.069622,0.300566 0.597958,0.6731 -0.681566,0.539044 -0.917222,-0.456142 -0.597958,-0.6731" />
    <path
       id="path5292"
       style="fill:#dcbe93;fill-opacity:1;fill-rule:nonzero;stroke:none;stroke-width:0.0352778"
       d="m 42.307042,50.727468 c -3.159125,0.31079 -3.165475,-2.525539 -0.855839,-2.898425 3.339748,-0.538339 2.354792,2.750965 0.855839,2.898425" />
    <path
       id="path5294"
       style="fill:#dcbe93;fill-opacity:1;fill-rule:nonzero;stroke:none;stroke-width:0.0352778"
       d="m 36.768431,48.502143 c 1.104547,-1.012472 1.910644,0.05644 1.144058,0.851605 -1.107722,1.14935 -1.667933,-0.371474 -1.144058,-0.851605" />
    <path
       id="path5296"
       style="fill:#dcbe93;fill-opacity:1;fill-rule:nonzero;stroke:none;stroke-width:0.0352778"
       d="m 37.682125,51.716298 c 0.84702,-0.81915 1.652411,0.25012 1.074209,0.90382 -0.835731,0.94509 -1.476023,-0.51541 -1.074209,-0.90382" />
    <path
       id="path5298"
       style="fill:#dcbe93;fill-opacity:1;fill-rule:nonzero;stroke:none;stroke-width:0.0352778"
       d="m 44.609623,50.776148 c 0.688269,-0.66569 1.342672,0.2032 0.872772,0.73448 -0.679097,0.768 -1.199444,-0.41874 -0.872772,-0.73448" />
    <path
       id="path5300"
       style="fill:#dcbe93;fill-opacity:1;fill-rule:nonzero;stroke:none;stroke-width:0.0352778"
       d="m 48.202665,32.429234 c 0.688269,-0.665692 1.343025,0.2032 0.873125,0.734483 -0.679097,0.767997 -1.199798,-0.418747 -0.873125,-0.734483" />
    <path
       id="path5302"
       style="fill:#dcbe93;fill-opacity:1;fill-rule:nonzero;stroke:none;stroke-width:0.0352778"
       d="m 49.066618,34.289431 c 0.937683,-0.906639 1.829152,0.276931 1.189214,1.000478 -0.924984,1.045986 -1.633714,-0.570442 -1.189214,-1.000478" />
  </g>
</svg>
