<?xml version="1.0" encoding="UTF-8" standalone="no"?>
<!-- Created with Inkscape (http://www.inkscape.org/) -->

<svg
   width="40"
   height="40"
   viewBox="0 0 40 40"
   version="1.1"
   id="svg2782"
   inkscape:version="1.2.1 (9c6d41e410, 2022-07-14)"
   sodipodi:docname="asteroid_fragment3.svg"
   xmlns:inkscape="http://www.inkscape.org/namespaces/inkscape"
   xmlns:sodipodi="http://sodipodi.sourceforge.net/DTD/sodipodi-0.dtd"
   xmlns="http://www.w3.org/2000/svg"
   xmlns:svg="http://www.w3.org/2000/svg">
  <sodipodi:namedview
     id="namedview2784"
     pagecolor="#505050"
     bordercolor="#ffffff"
     borderopacity="1"
     inkscape:showpageshadow="0"
     inkscape:pageopacity="0"
     inkscape:pagecheckerboard="1"
     inkscape:deskcolor="#505050"
     inkscape:document-units="mm"
     showgrid="false"
     inkscape:zoom="5.9651515"
     inkscape:cx="67.978156"
     inkscape:cy="36.210312"
     inkscape:window-width="1920"
     inkscape:window-height="1017"
     inkscape:window-x="-8"
     inkscape:window-y="-8"
     inkscape:window-maximized="1"
     inkscape:current-layer="layer1" />
  <defs
     id="defs2779" />
  <g
     inkscape:label="Warstwa 1"
     inkscape:groupmode="layer"
     id="layer1">
    <path
       id="path4010"
       style="fill:#7e5130;fill-opacity:1;fill-rule:nonzero;stroke:none;stroke-width:0.0352778"
       d="m 30.35454,17.729188 c -1.05834,3.36409 -0.26459,6.04837 -1.4217,7.5625 -1.56986,2.06163 -2.0708,-0.43039 -6.82272,5.71253 -2.32128,3.00919 -4.28978,2.79012 -4.2545,2.77495 -2.87867,0.072 -2.81164,-2.35585 -4.19806,-2.58622 -0.80786,-0.13582 -2.36361,0.56268 -4.1627802,-1.00435 2.1237302,-4.33035 5.6056402,0.59266 8.6360002,-0.11677 5.00239,-1.18181 0.56445,-8.83144 5.89139,-12.22164 2.74814,-1.75189 5.91962,-0.95532 7.34484,-8.46878 0.22578,-1.16664 0.41275,-2.2994099 1.04775,-3.2130999 3.27025,2.0425799 -1.54164,9.8996499 -2.06022,11.5608799" />
    <path
       id="path4012"
       style="fill:#9e6f43;fill-opacity:1;fill-rule:nonzero;stroke:none;stroke-width:0.0352778"
       d="m 32.41476,6.1683081 c -0.635,0.91369 -0.82197,2.0464599 -1.04775,3.2130999 -1.42522,7.51346 -4.5967,6.71689 -7.34484,8.46878 -5.32694,3.3902 -0.889,11.03983 -5.89139,12.22164 -3.03036,0.70943 -6.51227,-4.21358 -8.6360002,0.11677 -0.15169,-0.13194 -0.31044,-0.28328 -0.46566,-0.44909 -1.10772,-1.19309 -1.63689,-2.25425 -1.79564,-3.20181 2.08844,1.52541 7.1825502,-0.22649 7.4153902,-1.88772 0.19755,-1.41605 -1.70392,-2.17099 0.21519,-4.10033 3.08681,-3.08857 5.66561,-2.71075 6.96736,-4.55719 0.68792,-0.97402 0.70909,-2.25777 1.11478,-3.37537 1.13242,-3.14114 3.92995,-3.02049 5.51039,-4.54555 0,0 0.52564,-0.8798199 0.83256,-1.7783499 1.11477,-0.44944 2.04964,-0.60431 2.71991,-0.33232 0.14817,0.0603 0.28223,0.1323 0.4057,0.20744" />
    <path
       id="path4014"
       style="fill:#bf9460;fill-opacity:1;fill-rule:nonzero;stroke:none;stroke-width:0.0352778"
       d="m 29.28915,6.2931881 c -0.30692,0.89853 -0.83256,1.7783499 -0.83256,1.7783499 -1.58044,1.52506 -4.37797,1.40441 -5.51039,4.54555 -0.40569,1.1176 -0.42686,2.40135 -1.11478,3.37537 -1.30175,1.84644 -3.88055,1.46862 -6.96736,4.55719 -1.91911,1.92934 -0.0176,2.68428 -0.21519,4.10033 -0.23284,1.66123 -5.3269502,3.41313 -7.4153902,1.88772 -0.4445,-2.66171 2.01083,-4.42877 2.61055,-5.67479 1.0230602,-2.12936 0.1975602,-3.36408 3.0550602,-4.54942 4.81542,-1.99355 11.99445,-8.25359 16.39006,-10.0202999" />
  </g>
</svg>
