<?xml version="1.0" encoding="UTF-8" standalone="no"?>
<!-- Created with Inkscape (http://www.inkscape.org/) -->

<svg
   width="100"
   height="100"
   viewBox="0 0 100 100"
   version="1.1"
   id="svg3574"
   inkscape:version="1.2.1 (9c6d41e410, 2022-07-14)"
   sodipodi:docname="asteroid2.svg"
   xmlns:inkscape="http://www.inkscape.org/namespaces/inkscape"
   xmlns:sodipodi="http://sodipodi.sourceforge.net/DTD/sodipodi-0.dtd"
   xmlns="http://www.w3.org/2000/svg"
   xmlns:svg="http://www.w3.org/2000/svg">
  <sodipodi:namedview
     id="namedview3576"
     pagecolor="#505050"
     bordercolor="#ffffff"
     borderopacity="1"
     inkscape:showpageshadow="0"
     inkscape:pageopacity="0"
     inkscape:pagecheckerboard="1"
     inkscape:deskcolor="#505050"
     inkscape:document-units="mm"
     showgrid="false"
     inkscape:zoom="0.74564394"
     inkscape:cx="365.45593"
     inkscape:cy="240.06096"
     inkscape:window-width="1920"
     inkscape:window-height="1017"
     inkscape:window-x="-8"
     inkscape:window-y="-8"
     inkscape:window-maximized="1"
     inkscape:current-layer="layer1" />
  <defs
     id="defs3571" />
  <g
     inkscape:label="Warstwa 1"
     inkscape:groupmode="layer"
     id="layer1">
    <path
       id="path4366"
       style="fill:#7e5130;fill-opacity:1;fill-rule:nonzero;stroke:none;stroke-width:0.0352778"
       d="m 81.423075,66.702249 c -6.93173,12.22692 -21.35611,22.93443 -31.90205,20.80401 -11.362615,-2.29623 -20.519669,-8.8258 -25.55028,-20.27132 8.328731,-1.22308 19.928065,10.78653 25.51077,10.38825 3.42442,-0.24483 5.91009,-3.26284 7.83943,-6.10376 6.71125,-9.91059 9.06639,-5.8547 13.11028,-7.77205 4.90009,-2.32798 2.91959,-9.97409 6.83754,-13.3156 2.00025,-1.7085 7.99712,-2.59221 5.53932,-10.5604 3.94935,6.54791 5.19994,15.22765 -1.38501,26.83087" />
    <path
       id="path4368"
       style="fill:#9e6f43;fill-opacity:1;fill-rule:nonzero;stroke:none;stroke-width:0.0352778"
       d="m 77.268765,50.431779 c -3.91795,3.34151 -1.93745,10.98762 -6.83754,13.3156 -4.04389,1.91735 -6.39903,-2.13854 -13.11028,7.77205 -1.92934,2.84092 -4.41501,5.85893 -7.83943,6.10376 -5.582705,0.39828 -17.182039,-11.61133 -25.51077,-10.38825 -1.637242,-3.7204 -2.832806,-7.95796 -3.530953,-12.73563 -0.232834,-1.60585 -0.532695,-3.31012 -0.820914,-5.10152 4.726517,3.054 6.742995,2.79753 10.743495,1.7914 17.758132,-4.47004 14.163676,-3.97686 23.254052,0.1263 9.48443,4.27672 10.13954,-4.32435 11.83993,-7.14904 2.92735,-4.85599 7.38576,-3.4089 9.7215,-4.54555 1.72014,-0.83608 2.96263,-3.0233 3.12067,-5.47158 1.67287,1.70039 3.23145,3.59833 4.50956,5.72206 2.4578,7.96819 -3.53907,8.8519 -5.53932,10.5604" />
    <path
       id="path4370"
       style="fill:#bf9460;fill-opacity:1;fill-rule:nonzero;stroke:none;stroke-width:0.0352778"
       d="m 78.298525,34.149319 c -0.15804,2.44828 -1.40053,4.6355 -3.12067,5.47158 -2.33574,1.13665 -6.79415,-0.31044 -9.7215,4.54555 -1.70039,2.82469 -2.3555,11.42576 -11.83993,7.14904 -9.090376,-4.10316 -5.49592,-4.59634 -23.254052,-0.1263 -4.0005,1.00613 -6.016978,1.2626 -10.743495,-1.7914 -0.761295,-4.76991 -1.420284,-10.17552 -0.457553,-16.00694 h 0.0039 c 3.334103,-0.66322 6.932083,-2.14489 9.895064,-1.08656 3.199695,1.13948 5.464528,4.90714 8.849431,4.64609 3.176059,-0.25048 4.785784,-3.77473 6.644217,-6.36059 4.260848,-5.90903 13.761158,-6.30414 15.745528,-11.500554 1.90571,1.693334 3.66537,3.351394 5.23981,4.758974 2.56046,2.30011 8.08779,5.53508 12.75927,10.30111" />
    <path
       id="path4372"
       style="fill:#d3ae7e;fill-opacity:1;fill-rule:nonzero;stroke:none;stroke-width:0.0352778"
       d="m 60.299445,19.085708 v 0.0035 c -1.98437,5.196411 -11.48468,5.591521 -15.745527,11.500551 -1.858433,2.58586 -3.468158,6.11011 -6.644217,6.36059 -3.384903,0.26105 -5.649736,-3.50661 -8.849431,-4.64609 -2.962981,-1.05833 -6.560961,0.42334 -9.895064,1.08656 0.868186,-5.26345 3.057878,-10.86909 7.68985,-16.661694 11.689998,-14.6191119 24.283459,-5.764389 33.444389,2.356556" />
    <path
       id="path4374"
       style="fill:#dbba8e;fill-opacity:1;fill-rule:nonzero;stroke:none;stroke-width:0.0352778"
       d="m 32.85122,30.773239 c 5.417962,-1.5487 2.130426,4.74133 5.941131,3.11855 1.915937,-0.81491 3.967339,-1.87677 6.154209,-5.59153 1.642886,-2.79047 1.353256,-6.02191 1.613253,-8.1915 0.355247,-2.970385 2.566462,-3.393718 2.566462,-5.926663 0,-3.654778 -9.295699,-6.8403609 -11.964463,-1.732139 -1.728258,3.309056 0.0441,4.085167 -6.255103,6.226528 -9.707739,3.305524 -9.07027,15.243534 1.944511,12.096754" />
    <path
       id="path4376"
       style="fill:#9b6439;fill-opacity:1;fill-rule:nonzero;stroke:none;stroke-width:0.0352778"
       d="m 28.86342,44.569319 c -0.205669,-0.10725 -0.446617,-0.1771 -0.700617,-0.20567 -0.699911,-0.0695 -1.490133,0.16192 -2.134658,0.55598 -0.0822,0.0504 -0.165806,0.10512 -0.242711,0.16298 -0.517878,0.28011 -0.899231,0.76906 -0.993775,1.24672 -0.100895,0.49494 0.07197,0.9592 0.40393,1.30845 -0.06914,-0.0392 -0.135114,-0.0797 -0.195791,-0.12665 -0.479778,-0.35983 -0.759531,-0.91687 -0.640645,-1.51412 0.09419,-0.47766 0.479425,-0.96837 0.992011,-1.24883 0.08185,-0.0575 0.162278,-0.11042 0.24765,-0.16263 0.644525,-0.39406 1.429809,-0.62618 2.131484,-0.55422 0.464255,0.048 0.880533,0.24236 1.133122,0.53799" />
    <path
       id="path4378"
       style="fill:#b78551;fill-opacity:1;fill-rule:nonzero;stroke:none;stroke-width:0.0352778"
       d="m 29.111423,45.085429 c 0.07408,0.45897 -0.152753,0.97649 -0.539045,1.39877 l -0.07549,0.0825 c -0.434975,0.43674 -1.014589,0.75882 -1.616075,0.99201 -0.454378,0.17603 -0.95885,0.30586 -1.381831,0.20038 -0.05362,-0.0106 -0.104775,-0.0272 -0.153458,-0.048 l -0.0039,-0.002 c -0.05256,-0.0222 -0.101247,-0.0455 -0.147461,-0.0727 -0.331964,-0.3489 -0.502708,-0.81139 -0.40393,-1.30598 0.0949,-0.47907 0.479072,-0.96732 0.993422,-1.24742 0.08043,-0.0582 0.161219,-0.1136 0.243417,-0.16369 0.646289,-0.3937 1.435453,-0.62689 2.135364,-0.55598 0.255764,0.0268 0.4953,0.0988 0.701322,0.20673 l 3.53e-4,0.002 c 0.08643,0.0995 0.1524,0.20743 0.195086,0.32808 0.02681,0.0589 0.04304,0.12065 0.05221,0.1845" />
    <path
       id="path4380"
       style="fill:#caa77a;fill-opacity:1;fill-rule:nonzero;stroke:none;stroke-width:0.0352778"
       d="m 29.513237,45.506649 c 0.07444,0.45861 -0.149225,0.97543 -0.535517,1.3977 l -0.07902,0.0836 c -0.431447,0.43533 -1.014589,0.75883 -1.616075,0.99201 -0.454378,0.17604 -0.959203,0.30269 -1.378303,0.19932 -0.111831,-0.0254 -0.212725,-0.0684 -0.304447,-0.12241 -0.102659,-0.10619 -0.188384,-0.22013 -0.254353,-0.34572 0.04868,0.0208 0.09984,0.0374 0.153458,0.048 0.422981,0.10548 0.927453,-0.0243 1.381831,-0.20038 0.601486,-0.23319 1.1811,-0.55527 1.616075,-0.99201 l 0.07549,-0.0825 c 0.386292,-0.42228 0.613128,-0.9398 0.539045,-1.39877 -0.0092,-0.0639 -0.0254,-0.12559 -0.05221,-0.1845 0.07161,0.0254 0.140053,0.0547 0.205669,0.0878 l 0.0042,0.001 c 0.126294,0.15134 0.212372,0.32315 0.244122,0.51647" />
    <path
       id="path4382"
       style="fill:#c59a69;fill-opacity:1;fill-rule:nonzero;stroke:none;stroke-width:0.0352778"
       d="m 29.111423,45.085429 c 0.07408,0.45897 -0.152753,0.97649 -0.539045,1.39877 l -0.07549,0.0825 c -0.434975,0.43674 -1.014589,0.75882 -1.616075,0.99201 -0.454378,0.17603 -0.95885,0.30586 -1.381831,0.20038 -0.05362,-0.0106 -0.104775,-0.0272 -0.153458,-0.048 l -0.0039,-0.002 c -0.153811,-0.28786 -0.216605,-0.61665 -0.146402,-0.96132 0.09525,-0.47625 0.475544,-0.96625 0.994127,-1.2446 0.07655,-0.0572 0.16122,-0.11359 0.243064,-0.16368 0.642761,-0.393 1.432278,-0.62583 2.131837,-0.55492 0.173213,0.0191 0.339372,0.0572 0.494947,0.11606 0.02681,0.0589 0.04304,0.12065 0.05221,0.1845" />
    <path
       id="path4384"
       style="fill:#824a29;fill-opacity:1;fill-rule:nonzero;stroke:none;stroke-width:0.0352778"
       d="m 46.14036,71.014949 c 0.02646,0.036 0.05433,0.0681 0.08643,0.1009 2.468735,2.5333 5.068715,0.22295 4.638675,-1.51554 1.25801,1.71168 -1.64042,4.86516 -4.381853,2.05776 -0.181681,-0.18768 -0.294217,-0.40958 -0.343253,-0.64312" />
    <path
       id="path4386"
       style="fill:#986339;fill-opacity:1;fill-rule:nonzero;stroke:none;stroke-width:0.0352778"
       d="m 48.083815,68.630529 c 1.20615,-0.0162 2.01013,0.25329 2.49273,0.66287 0.11183,0.0928 0.20567,0.19579 0.28504,0.30268 l 0.004,0.003 c 0.42968,1.74026 -2.17099,4.05025 -4.638674,1.51589 -0.0314,-0.0321 -0.05891,-0.0646 -0.08643,-0.10019 l -0.0064,-0.0522 c -0.171803,-1.0354 0.824795,-2.31987 1.949804,-2.33186" />
    <path
       id="path4388"
       style="fill:#af885a;fill-opacity:1;fill-rule:nonzero;stroke:none;stroke-width:0.0352778"
       d="m 47.785015,68.279509 c 1.48307,-0.0183 2.36043,0.39229 2.77777,0.9652 l 0.004,0.006 0.01,0.0427 c -0.4826,-0.40958 -1.28658,-0.6791 -2.49273,-0.66287 -1.12501,0.012 -2.121608,1.29646 -1.949805,2.33186 -0.0695,-0.061 -0.1397,-0.12841 -0.205669,-0.19579 -0.0314,-0.0353 -0.05891,-0.0677 -0.08678,-0.10337 -0.212725,-1.04281 0.8001,-2.37066 1.943454,-2.38372" />
    <path
       id="path4390"
       style="fill:#a97c4f;fill-opacity:1;fill-rule:nonzero;stroke:none;stroke-width:0.0352778"
       d="m 48.083815,68.630529 c 1.20615,-0.0162 2.01013,0.25329 2.49273,0.66287 0.36759,1.68486 -2.0627,3.85974 -4.442535,1.66899 -0.171803,-1.0354 0.824795,-2.31987 1.949805,-2.33186" />
    <path
       id="path4392"
       style="fill:#9b6439;fill-opacity:1;fill-rule:nonzero;stroke:none;stroke-width:0.0352778"
       d="m 54.232025,45.995599 c -1.57551,-1.88842 1.31339,-3.83681 3.63643,-2.39325 0.54187,0.38065 0.87948,0.78458 1.0474,1.18463 -0.17709,-0.21731 -0.40499,-0.42545 -0.69921,-0.63253 -2.09867,-1.30492 -4.65031,0.16052 -3.98462,1.84115" />
    <path
       id="path4394"
       style="fill:#b78551;fill-opacity:1;fill-rule:nonzero;stroke:none;stroke-width:0.0352778"
       d="m 55.496025,46.954449 c -0.30586,-0.14288 -0.61736,-0.33267 -0.90946,-0.5909 l -0.0868,-0.0787 c -0.10442,-0.0938 -0.19332,-0.18803 -0.26988,-0.2914 -0.66357,-1.68028 1.88807,-3.14395 3.98569,-1.84009 0.29704,0.20955 0.52281,0.41593 0.6992,0.635 l 0.0155,0.0487 c 0.62513,1.59244 -1.42945,3.02224 -3.43429,2.11737" />
    <path
       id="path4396"
       style="fill:#caa77a;fill-opacity:1;fill-rule:nonzero;stroke:none;stroke-width:0.0352778"
       d="m 55.869265,47.370019 c -0.33902,-0.15769 -0.68121,-0.37288 -1.00118,-0.67063 -0.10442,-0.0938 -0.19332,-0.18838 -0.26494,-0.29069 l -0.0166,-0.0451 c 0.2921,0.25823 0.6036,0.44802 0.90946,0.5909 2.00484,0.90487 4.05942,-0.52493 3.43429,-2.11737 0.14041,0.12029 0.25506,0.23883 0.35843,0.36301 0.67698,1.61466 -1.39489,3.07869 -3.41948,2.16993" />
    <path
       id="path4398"
       style="fill:#c59a69;fill-opacity:1;fill-rule:nonzero;stroke:none;stroke-width:0.0352778"
       d="m 55.496025,46.954449 c -0.30586,-0.14288 -0.61736,-0.33267 -0.90946,-0.5909 -0.60572,-1.66053 1.9177,-3.08857 4.00227,-1.79458 0.12629,0.0868 0.242,0.17533 0.34148,0.26811 0.62513,1.59244 -1.42945,3.02224 -3.43429,2.11737" />
    <path
       id="path4400"
       style="fill:#69381f;fill-opacity:1;fill-rule:nonzero;stroke:none;stroke-width:0.0352778"
       d="m 37.547751,79.431529 c -0.04339,0.13793 -0.02999,0.30444 0.05539,0.49812 0.02858,0.0646 0.06209,0.12982 0.101248,0.19614 0.578908,0.98743 3.447344,2.49308 4.219575,1.82034 -0.34537,1.24777 -3.669595,0.27022 -4.422423,-0.73308 -0.446264,-0.59443 -0.148166,-1.60267 0.04621,-1.78152" />
    <path
       id="path4402"
       style="fill:#7a492a;fill-opacity:1;fill-rule:nonzero;stroke:none;stroke-width:0.0352778"
       d="m 41.91126,81.397909 c 0.02152,0.1016 0.03351,0.19367 0.03457,0.27905 0.0046,0.10019 -0.0053,0.18909 -0.02223,0.26811 -0.772583,0.67345 -3.043061,-0.40746 -3.850217,-1.21497 -0.730955,-0.7306 -0.570089,-1.16028 -0.526344,-1.29857 l 0.07408,-0.0579 c 0.890411,-0.66534 3.829756,-0.0649 4.290131,2.02424" />
    <path
       id="path4404"
       style="fill:#936b46;fill-opacity:1;fill-rule:nonzero;stroke:none;stroke-width:0.0352778"
       d="m 41.998749,81.085349 c 0.01376,0.22825 0.04727,0.40463 0.01235,0.54716 l -0.06526,0.0444 c -0.0011,-0.0854 -0.01305,-0.17745 -0.03457,-0.27905 -0.460375,-2.08915 -3.39972,-2.68958 -4.290131,-2.02424 -0.01905,-0.0942 -0.01235,-0.17992 0.01341,-0.2547 0.796219,-0.75812 4.205111,-0.64912 4.364214,1.96638" />
    <path
       id="path4406"
       style="fill:#8f633f;fill-opacity:1;fill-rule:nonzero;stroke:none;stroke-width:0.0352778"
       d="m 41.91126,81.397909 c 0.02152,0.1016 0.03351,0.19367 0.03457,0.27905 -0.851253,0.55351 -3.589161,-0.90241 -4.154311,-1.86514 -0.03881,-0.0667 -0.07338,-0.13088 -0.100542,-0.19579 -0.0381,-0.0875 -0.06315,-0.16792 -0.06985,-0.24236 0.890411,-0.66534 3.829756,-0.0649 4.290131,2.02424" />
    <path
       id="path4408"
       style="fill:#9b6439;fill-opacity:1;fill-rule:nonzero;stroke:none;stroke-width:0.0352778"
       d="m 45.480666,39.814929 c -0.562328,-0.47625 -1.441098,-0.69144 -2.492728,-0.34925 -0.541867,0.17639 -1.343731,0.61736 -1.55187,1.29576 -0.16898,0.56691 -0.06703,1.12148 0.201436,1.56845 -0.548922,-0.50165 -0.880886,-1.282 -0.634647,-2.10538 0.208139,-0.67769 1.00965,-1.11866 1.551517,-1.29505 1.387122,-0.45156 2.487789,0.0741 2.926292,0.88547" />
    <path
       id="path4410"
       style="fill:#b78551;fill-opacity:1;fill-rule:nonzero;stroke:none;stroke-width:0.0352778"
       d="m 43.176674,42.854109 c -0.4953,0.10478 -1.043164,-0.0829 -1.467909,-0.46143 l -0.07055,-0.0614 c -0.267759,-0.44944 -0.372534,-1.0033 -0.2032,-1.56951 0.209197,-0.67875 1.012472,-1.11972 1.553986,-1.29611 1.049161,-0.34572 1.929342,-0.13053 2.492375,0.34925 l 0.0032,0.007 c 0.05856,0.11289 0.104775,0.2293 0.138642,0.3489 0.27693,0.99095 -0.357011,2.22496 -2.446514,2.68322" />
    <path
       id="path4412"
       style="fill:#caa77a;fill-opacity:1;fill-rule:nonzero;stroke:none;stroke-width:0.0352778"
       d="m 43.419738,43.294379 c -0.519995,0.11077 -1.104548,-0.10478 -1.535642,-0.52634 -0.07056,-0.11677 -0.132292,-0.24307 -0.175331,-0.37536 0.424745,0.37853 0.972609,0.56621 1.467909,0.46143 2.089503,-0.45826 2.723444,-1.69227 2.446514,-2.68322 0.03669,0.0279 0.07055,0.0554 0.104422,0.0833 l 0.0032,0.006 c 0.547864,1.03399 0.03387,2.52024 -2.311047,3.03424" />
    <path
       id="path4414"
       style="fill:#c59a69;fill-opacity:1;fill-rule:nonzero;stroke:none;stroke-width:0.0352778"
       d="m 43.176674,42.854109 c -0.4953,0.10478 -1.043164,-0.0829 -1.467909,-0.46143 -0.129116,-0.36301 -0.150636,-0.77541 -0.02752,-1.19098 0.209197,-0.67698 1.009297,-1.11866 1.550811,-1.29505 0.990953,-0.32455 1.827742,-0.15522 2.391128,0.26424 0.27693,0.99095 -0.357011,2.22496 -2.446514,2.68322" />
    <path
       id="path4416"
       style="fill:#69381f;fill-opacity:1;fill-rule:nonzero;stroke:none;stroke-width:0.0352778"
       d="m 79.967875,62.141179 c 0.64946,-0.2099 1.36383,-1.12959 1.87572,-2.90336 0.26458,-0.91228 0.55209,-2.46486 0.30621,-3.49709 -0.2092,-0.85725 -0.59408,-1.34232 -1.02906,-1.48766 0.65511,-0.16404 1.52259,0.11889 1.82633,1.36419 0.24589,1.03223 -0.0416,2.58516 -0.30585,3.49744 -0.67522,2.33927 -1.91559,3.35527 -2.67335,3.02648" />
    <path
       id="path4418"
       style="fill:#7a492a;fill-opacity:1;fill-rule:nonzero;stroke:none;stroke-width:0.0352778"
       d="m 79.789015,55.699109 c 0.26176,-0.73766 0.70908,-1.24319 1.18639,-1.40194 0.0448,-0.0243 0.0945,-0.0346 0.14429,-0.0448 0.43709,0.14817 0.82091,0.63359 1.0294,1.48837 0.24659,1.03435 -0.0413,2.58586 -0.30656,3.49991 -0.51118,1.77095 -1.22379,2.68958 -1.87466,2.9023 l -0.007,-0.003 c -0.13864,-0.0656 -0.26917,-0.16968 -0.38453,-0.31468 -0.67698,-0.83326 -0.883,-3.00108 0.21308,-6.12633" />
    <path
       id="path4420"
       style="fill:#936b46;fill-opacity:1;fill-rule:nonzero;stroke:none;stroke-width:0.0352778"
       d="m 79.212925,55.459569 c 0.28928,-0.81315 0.80151,-1.34444 1.33421,-1.4478 0.15063,0.0515 0.2928,0.14146 0.42827,0.2854 -0.47731,0.15875 -0.92463,0.66428 -1.18639,1.40194 -1.09608,3.12525 -0.89006,5.29307 -0.21308,6.12633 -0.061,0.0293 -0.12171,0.0586 -0.18415,0.078 l -0.004,-0.004 c -0.95744,-0.4311 -1.46085,-2.7753 -0.17498,-6.43996" />
    <path
       id="path4422"
       style="fill:#8f633f;fill-opacity:1;fill-rule:nonzero;stroke:none;stroke-width:0.0352778"
       d="m 79.789015,55.699109 c 0.26176,-0.73766 0.70908,-1.24319 1.18639,-1.40194 0.25188,0.242 0.4639,0.64629 0.60113,1.20297 0.24342,1.0354 -0.0416,2.58586 -0.30691,3.49991 -0.46497,1.6069 -1.09397,2.51001 -1.69369,2.82539 -0.67698,-0.83326 -0.883,-3.00108 0.21308,-6.12633" />
    <path
       id="path4424"
       style="fill:#9b6439;fill-opacity:1;fill-rule:nonzero;stroke:none;stroke-width:0.0352778"
       d="m 74.516745,34.092879 c -1.01071,0.0882 -1.37266,0.85019 -1.22978,1.48519 -0.47801,-0.67028 -0.22437,-1.82033 1.04105,-1.92617 0.81386,-0.0741 1.41217,0.42334 1.51341,0.99484 -0.254,-0.35278 -0.73554,-0.60325 -1.32468,-0.55386" />
    <path
       id="path4426"
       style="fill:#b78551;fill-opacity:1;fill-rule:nonzero;stroke:none;stroke-width:0.0352778"
       d="m 75.856955,34.812539 c 0,0.35631 -0.20144,0.71614 -0.67028,0.96309 -0.85655,0.44802 -1.49613,0.27164 -1.83727,-0.11995 l -0.0621,-0.0776 c -0.14323,-0.635 0.21696,-1.397 1.22873,-1.48519 0.58914,-0.0494 1.06962,0.20108 1.32538,0.55033 0.008,0.0564 0.0155,0.11642 0.0155,0.16933" />
    <path
       id="path4428"
       style="fill:#caa77a;fill-opacity:1;fill-rule:nonzero;stroke:none;stroke-width:0.0352778"
       d="m 75.271695,36.033149 c -0.91476,0.47625 -1.57727,0.24695 -1.89901,-0.19755 -0.0116,-0.06 -0.0194,-0.11642 -0.0233,-0.17992 0.34114,0.39159 0.98072,0.56797 1.83727,0.11995 0.46884,-0.24695 0.67028,-0.60678 0.67028,-0.96309 l 0.0699,0.0917 c 0.0737,0.40569 -0.10831,0.84313 -0.65511,1.12888" />
    <path
       id="path4430"
       style="fill:#c59a69;fill-opacity:1;fill-rule:nonzero;stroke:none;stroke-width:0.0352778"
       d="m 75.856955,34.812539 c 0,0.35631 -0.20144,0.71614 -0.67028,0.96309 -0.85655,0.44802 -1.49613,0.27164 -1.83727,-0.11995 -0.0427,-0.59266 0.33726,-1.22766 1.25589,-1.30528 0.53869,-0.0494 0.98425,0.15875 1.25166,0.46214" />
    <path
       id="path4432"
       style="fill:#b38050;fill-opacity:1;fill-rule:nonzero;stroke:none;stroke-width:0.0352778"
       d="m 43.287799,12.319429 c -0.132292,0.04939 -0.289278,0.01764 -0.446617,0.01411 -1.899356,-0.384528 -3.734858,3.1115 -3.126317,4.459111 -1.664053,-1.661583 0.160514,-6.335889 3.572934,-4.473223" />
    <path
       id="path4434"
       style="fill:#d2a877;fill-opacity:1;fill-rule:nonzero;stroke:none;stroke-width:0.0352778"
       d="m 41.389149,16.73268 c -0.564798,0.254 -0.989895,0.321028 -1.299281,0.254 h -0.0127 C 39.930413,16.9514 39.811526,16.89143 39.718746,16.803235 l -0.0049,-0.0071 c -0.908756,-2.077861 0.711553,-5.161139 3.572934,-4.476751 0.02258,0.04233 0.03951,0.09172 0.0568,0.137584 0.379941,1.097139 -0.354895,3.563056 -1.954389,4.275667" />
    <path
       id="path4436"
       style="fill:#e4c9a3;fill-opacity:1;fill-rule:nonzero;stroke:none;stroke-width:0.0352778"
       d="m 41.787082,17.014902 c -0.564797,0.257528 -0.992717,0.328083 -1.30175,0.261056 -0.152047,-0.03175 -0.273403,-0.09878 -0.371122,-0.186973 l -0.0025,-0.01058 c -0.01235,-0.02822 -0.02469,-0.05997 -0.03457,-0.09172 h 0.0127 c 0.309386,0.06703 0.734483,0 1.299281,-0.254 1.599494,-0.712611 2.33433,-3.178528 1.954389,-4.275667 0.134761,0.01058 0.248355,0.05997 0.341136,0.144639 0.498122,1.012472 -0.226483,3.672417 -1.897592,4.41325" />
    <path
       id="path4438"
       style="fill:#dbb88d;fill-opacity:1;fill-rule:nonzero;stroke:none;stroke-width:0.0352778"
       d="m 41.387032,16.887902 c -0.564797,0.254 -0.989894,0.321028 -1.298928,0.254 l -0.0127,-0.0035 c -0.487892,-1.414639 1.449917,-4.970639 3.2131,-4.529667 l 0.09913,0.0035 c 0.379942,1.093611 -0.400756,3.563056 -2.000603,4.275667" />
    <path
       id="path4440"
       style="fill:#824a29;fill-opacity:1;fill-rule:nonzero;stroke:none;stroke-width:0.0352778"
       d="m 54.707925,61.956329 c 0.58737,0.39793 1.58503,0.53198 3.0741,0.1471 1.64112,-0.42262 2.18017,-2.24895 1.27036,-3.29106 1.32573,0.94827 0.85654,3.11573 -0.95074,3.58281 -1.8101,0.46673 -2.89137,0.16792 -3.39372,-0.43885" />
    <path
       id="path4442"
       style="fill:#986339;fill-opacity:1;fill-rule:nonzero;stroke:none;stroke-width:0.0352778"
       d="m 57.115275,58.379859 0.0928,-0.005 c 0.77647,-0.0444 1.37337,0.1203 1.79776,0.40746 l 0.0473,0.0286 c 0.90911,1.04211 0.36901,2.86985 -1.27212,3.29107 -1.48801,0.38452 -2.48426,0.25294 -3.07269,-0.1457 -0.0561,-0.0699 -0.10619,-0.14076 -0.14781,-0.21802 -0.67169,-1.19203 0.45931,-3.1937 2.55481,-3.3588" />
    <path
       id="path4444"
       style="fill:#af885a;fill-opacity:1;fill-rule:nonzero;stroke:none;stroke-width:0.0352778"
       d="m 56.900085,58.120219 0.0921,-0.007 c 0.81069,-0.0437 1.41923,0.13547 1.84538,0.43851 0.0632,0.0744 0.11995,0.14957 0.16828,0.23107 -0.42439,-0.28716 -1.02129,-0.45191 -1.79776,-0.40746 l -0.0928,0.005 c -2.0955,0.1651 -3.2265,2.16677 -2.55481,3.3588 l -0.0681,-0.0441 c -0.96026,-1.14476 0.17956,-3.40183 2.40771,-3.57434" />
    <path
       id="path4446"
       style="fill:#a97c4f;fill-opacity:1;fill-rule:nonzero;stroke:none;stroke-width:0.0352778"
       d="m 57.115275,58.379859 0.0928,-0.005 c 0.77647,-0.0444 1.37337,0.1203 1.79776,0.40746 0.65969,1.06009 0.0868,2.6677 -1.44039,3.06034 -1.43122,0.36866 -2.40912,0.25859 -3.00496,-0.10442 -0.67169,-1.19203 0.45931,-3.1937 2.55481,-3.3588" />
    <path
       id="path4448"
       style="fill:#b38050;fill-opacity:1;fill-rule:nonzero;stroke:none;stroke-width:0.0352778"
       d="m 32.67977,21.287039 c -0.822677,-0.21519 -2.279297,0.13053 -4.086225,1.94381 -2.079625,2.07786 -2.276122,4.52614 -1.316214,5.41514 -1.6002,-0.46214 -2.376311,-3.84175 0.04057,-6.25475 2.305403,-2.30011 4.62915,-1.82386 5.361869,-1.1042" />
    <path
       id="path4450"
       style="fill:#d2a877;fill-opacity:1;fill-rule:nonzero;stroke:none;stroke-width:0.0352778"
       d="m 31.806645,26.557539 c -1.900766,1.7392 -3.38843,2.30011 -4.352925,2.12725 -0.06068,-0.0106 -0.119239,-0.0247 -0.174978,-0.0388 -0.960614,-0.88548 -0.966611,-3.53836 1.113014,-5.61975 1.807634,-1.80975 3.464631,-1.95439 4.286956,-1.73567 l 0.01482,0.004 c 0.09596,0.0988 0.180975,0.21166 0.252941,0.33866 0.691445,1.21709 0.225073,3.67595 -1.139825,4.92478" />
    <path
       id="path4452"
       style="fill:#e4c9a3;fill-opacity:1;fill-rule:nonzero;stroke:none;stroke-width:0.0352778"
       d="m 32.24797,26.935009 c -2.018594,1.84856 -3.573639,2.36714 -4.528255,2.08845 -0.103717,-0.0988 -0.194381,-0.20814 -0.265995,-0.33867 0.964495,0.17286 2.452159,-0.38805 4.352925,-2.12725 1.364898,-1.24883 1.83127,-3.70769 1.139825,-4.92478 0.05997,0.007 0.117475,0.0176 0.173567,0.0353 l 0.01482,0.004 c 1.030464,1.03011 0.619125,3.88761 -0.886884,5.26344" />
    <path
       id="path4454"
       style="fill:#dbb88d;fill-opacity:1;fill-rule:nonzero;stroke:none;stroke-width:0.0352778"
       d="m 31.830634,26.666899 c -1.901119,1.7392 -3.388431,2.30364 -4.353278,2.13078 -0.595842,-1.04422 -0.10548,-3.05858 1.749073,-4.91067 1.684513,-1.6898 2.917825,-2.25072 3.74403,-2.14136 0.691445,1.21709 0.22472,3.67595 -1.139825,4.92125" />
    <path
       id="path4456"
       style="fill:#b38050;fill-opacity:1;fill-rule:nonzero;stroke:none;stroke-width:0.0352778"
       d="m 39.76249,29.577319 c -1.002947,-0.43039 -0.93098,-3.17853 0.989189,-3.96522 0.63747,-0.31045 1.581856,-0.0388 1.875014,0.254 -0.294922,-0.14111 -0.957791,-0.13053 -1.449917,0.10583 -1.750483,0.71967 -2.084211,2.89983 -1.414286,3.60539" />
    <path
       id="path4458"
       style="fill:#d2a877;fill-opacity:1;fill-rule:nonzero;stroke:none;stroke-width:0.0352778"
       d="m 41.97476,28.593069 c -0.487892,0.44803 -0.906992,0.73731 -1.261181,0.89253 -0.279047,0.12347 -0.51823,0.16933 -0.715433,0.15169 -0.08643,-0.007 -0.166158,-0.0282 -0.23495,-0.0635 -0.669572,-0.70203 -0.724606,-2.85044 1.399822,-3.71828 0.625122,-0.24694 1.169811,-0.13052 1.463322,0.0106 0.0575,0.0529 0.106539,0.11994 0.147462,0.1905 0.348544,0.58914 0.151694,1.66158 -0.799042,2.53647" />
    <path
       id="path4460"
       style="fill:#e4c9a3;fill-opacity:1;fill-rule:nonzero;stroke:none;stroke-width:0.0352778"
       d="m 42.352585,28.857649 c -0.487892,0.44803 -0.907345,0.73731 -1.261181,0.89253 -0.401814,0.17992 -0.719666,0.19403 -0.949678,0.0917 -0.05503,-0.06 -0.104422,-0.127 -0.14358,-0.20461 0.197203,0.0176 0.436386,-0.0282 0.715433,-0.15169 0.354189,-0.15522 0.773289,-0.4445 1.261181,-0.89253 0.950736,-0.87489 1.147586,-1.94733 0.799042,-2.53647 0.08149,0.0141 0.15875,0.0423 0.231069,0.0741 0.530931,0.51858 0.414514,1.74978 -0.652286,2.72697" />
    <path
       id="path4462"
       style="fill:#dbb88d;fill-opacity:1;fill-rule:nonzero;stroke:none;stroke-width:0.0352778"
       d="m 42.004746,28.741239 c -0.487892,0.44802 -0.907345,0.73377 -1.261533,0.89252 -0.278695,0.12348 -0.518231,0.16934 -0.715081,0.14817 -0.4191,-0.85019 -0.107244,-2.87867 1.493308,-3.53483 0.375003,-0.18345 1.016706,-0.0917 1.281995,-0.0423 0.348897,0.58562 0.151694,1.66159 -0.798689,2.53648" />
    <path
       id="path4464"
       style="fill:#824a29;fill-opacity:1;fill-rule:nonzero;stroke:none;stroke-width:0.0352778"
       d="m 75.580725,45.933159 c 0.61031,0.34607 1.54764,0.27552 2.0948,-0.34361 0.60078,-0.68086 0.48295,-1.47496 0.0512,-1.98473 0.69779,0.42616 1.05551,1.44886 0.31009,2.292 -0.67592,0.76377 -1.93781,0.68827 -2.45604,0.0363" />
    <path
       id="path4466"
       style="fill:#986339;fill-opacity:1;fill-rule:nonzero;stroke:none;stroke-width:0.0352778"
       d="m 75.538395,44.532629 c 0.0773,-0.15875 0.15346,-0.2981 0.24412,-0.41099 0.44203,-0.59619 0.97825,-0.78034 1.45203,-0.69709 0.17357,0.0265 0.33902,0.0882 0.49107,0.18169 0.43497,0.50976 0.54998,1.30457 -0.0512,1.98296 -0.54434,0.61983 -1.48273,0.68827 -2.0948,0.34537 -0.0258,-0.0342 -0.0511,-0.0681 -0.067,-0.10372 -0.20849,-0.3242 -0.24024,-0.76729 0.0258,-1.29822" />
    <path
       id="path4468"
       style="fill:#af885a;fill-opacity:1;fill-rule:nonzero;stroke:none;stroke-width:0.0352778"
       d="m 74.976065,44.253229 c 0.0737,-0.15346 0.15452,-0.29351 0.24412,-0.41099 0.60643,-0.80962 1.38501,-0.85372 1.94416,-0.51117 0.0247,0.0293 0.0494,0.0589 0.0702,0.0935 -0.47378,-0.0832 -1.01,0.1009 -1.45203,0.69709 -0.0907,0.11289 -0.16686,0.25224 -0.24412,0.41099 -0.266,0.53093 -0.23425,0.97402 -0.0258,1.29822 -0.17921,-0.0303 -0.34501,-0.0921 -0.4953,-0.17603 -0.26211,-0.32879 -0.33443,-0.80822 -0.0413,-1.40159" />
    <path
       id="path4470"
       style="fill:#a97c4f;fill-opacity:1;fill-rule:nonzero;stroke:none;stroke-width:0.0352778"
       d="m 75.538395,44.532629 c 0.0773,-0.15875 0.15346,-0.2981 0.24412,-0.41099 0.44203,-0.59619 0.97825,-0.78034 1.45203,-0.69709 0.37148,0.5073 0.44274,1.24707 -0.12135,1.88984 -0.41699,0.47095 -1.05022,0.62441 -1.60056,0.51646 -0.20849,-0.3242 -0.24024,-0.76729 0.0258,-1.29822" />
    <path
       id="path4472"
       style="fill:#ad7748;fill-opacity:1;fill-rule:nonzero;stroke:none;stroke-width:0.0352778"
       d="m 34.063365,13.550624 c -0.446617,-0.155222 -1.357489,0.09878 -2.105378,0.723194 -0.821972,0.680862 -1.007533,1.308806 -0.790222,1.633362 -0.499534,-0.201084 -1.147939,-1.658056 -0.129117,-2.504723 0.923572,-0.765528 2.779184,-0.275166 3.024717,0.148167" />
    <path
       id="path4474"
       style="fill:#cb9e69;fill-opacity:1;fill-rule:nonzero;stroke:none;stroke-width:0.0352778"
       d="m 33.579354,14.690096 c -0.131586,0.141111 -0.255411,0.271639 -0.384175,0.388056 -0.7747,0.702028 -1.449564,0.938389 -1.873603,0.867833 -0.05397,-0.0071 -0.105833,-0.02117 -0.153106,-0.03881 -0.21978,-0.324556 -0.239183,-1.160639 0.582084,-1.8415 0.745066,-0.624417 1.865489,-0.670278 2.313869,-0.515056 0.03034,0.04939 0.04445,0.109361 0.04798,0.179917 0.0018,0.22225 -0.153458,0.53975 -0.533047,0.959555" />
    <path
       id="path4476"
       style="fill:#dcbe93;fill-opacity:1;fill-rule:nonzero;stroke:none;stroke-width:0.0352778"
       d="m 33.798429,14.905291 c -0.131586,0.141111 -0.26035,0.271639 -0.384175,0.388055 -0.875948,0.79375 -1.631245,0.991306 -2.026709,0.829028 -0.03422,-0.04939 -0.0575,-0.109361 -0.06597,-0.176389 0.424039,0.07056 1.098903,-0.165805 1.873603,-0.867833 0.128764,-0.116417 0.252589,-0.246945 0.384175,-0.388056 0.379589,-0.419805 0.534811,-0.737305 0.533047,-0.959555 0.06244,0.0071 0.115358,0.01764 0.166511,0.03528 0.129117,0.211667 0.01799,0.589139 -0.480483,1.139473" />
    <path
       id="path4478"
       style="fill:#d4ae82;fill-opacity:1;fill-rule:nonzero;stroke:none;stroke-width:0.0352778"
       d="m 33.579354,14.690096 c -0.131586,0.141111 -0.255411,0.271639 -0.384175,0.388056 -0.7747,0.702028 -1.449564,0.938389 -1.873603,0.867833 -0.08185,-0.345722 0.160514,-0.881944 0.856897,-1.464028 0.661811,-0.546805 1.455914,-0.811389 1.933928,-0.751416 0.0018,0.22225 -0.153458,0.53975 -0.533047,0.959555" />
    <path
       id="path4480"
       style="fill:#ad7748;fill-opacity:1;fill-rule:nonzero;stroke:none;stroke-width:0.0352778"
       d="m 54.742145,17.759263 c -0.8562,-0.232833 -2.31952,0.504472 -2.84375,1.647472 -0.40428,0.878414 -0.18097,1.509894 0.31398,1.813274 -0.69145,-0.21166 -1.10067,-0.89958 -0.61913,-1.947329 0.59337,-1.291167 2.38125,-2.06375 3.1489,-1.513417" />
    <path
       id="path4482"
       style="fill:#cb9e69;fill-opacity:1;fill-rule:nonzero;stroke:none;stroke-width:0.0352778"
       d="m 54.819045,17.815708 c 0.23601,0.218722 0.34572,0.596194 0.23777,1.160639 -0.0367,0.194027 -0.084,0.384527 -0.14957,0.553861 -0.44521,1.210031 -1.40441,1.749781 -2.19358,1.749781 -0.18591,0.0106 -0.34713,-0.0106 -0.50235,-0.06 -0.49107,-0.30691 -0.71755,-0.93133 -0.31186,-1.813274 0.52317,-1.143 1.98896,-1.880305 2.83951,-1.647472 l 0.0801,0.05644" />
    <path
       id="path4484"
       style="fill:#dcbe93;fill-opacity:1;fill-rule:nonzero;stroke:none;stroke-width:0.0352778"
       d="m 55.601865,19.068069 c -0.0385,0.201083 -0.0889,0.391583 -0.15452,0.55739 -0.54434,1.47461 -1.83762,1.95439 -2.69064,1.6898 l -0.043,-0.0353 c 0.78917,0 1.74837,-0.53975 2.19358,-1.749781 0.0656,-0.169334 0.11289,-0.359834 0.14957,-0.553861 0.10795,-0.564445 -0.002,-0.941917 -0.23777,-1.160639 0.16687,-0.01058 0.32703,0 0.46814,0.0388 0.28328,0.204611 0.42933,0.596195 0.31468,1.213556" />
    <path
       id="path4486"
       style="fill:#d4ae82;fill-opacity:1;fill-rule:nonzero;stroke:none;stroke-width:0.0352778"
       d="m 54.819045,17.815708 c 0.23601,0.218722 0.34572,0.596194 0.23777,1.160639 -0.0367,0.194027 -0.084,0.384527 -0.14957,0.553861 -0.44521,1.210031 -1.40441,1.749781 -2.19358,1.749781 -0.46707,-0.30692 -0.66322,-0.92428 -0.27128,-1.774476 0.43533,-0.948972 1.52717,-1.626305 2.37666,-1.689805" />
    <path
       id="path4488"
       style="fill:#824a29;fill-opacity:1;fill-rule:nonzero;stroke:none;stroke-width:0.0352778"
       d="m 29.702326,62.371539 c 1.090083,1.65242 4.499328,2.45005 6.915856,1.1684 1.861255,-0.9853 2.351617,-2.43134 1.950861,-3.68864 0.850547,1.37372 0.582436,3.19828 -1.635831,4.37339 -2.732617,1.4478 -6.720417,0.24059 -7.230886,-1.85315" />
    <path
       id="path4490"
       style="fill:#986339;fill-opacity:1;fill-rule:nonzero;stroke:none;stroke-width:0.0352778"
       d="m 29.64694,61.884709 v -0.003 c 0.01199,-0.6597 0.365477,-1.38853 1.193094,-2.13536 0.334786,-0.30092 0.669925,-0.56833 1.002242,-0.77717 2.82822,-1.79212 5.530497,-0.88054 6.63822,0.74965 0.02893,0.0444 0.05821,0.0889 0.08749,0.133 0.402872,1.2573 -0.09031,2.70368 -1.948745,3.68864 -2.418292,1.28058 -5.82542,0.48225 -6.915503,-1.16769 -0.04127,-0.15875 -0.05786,-0.32068 -0.0568,-0.48825" />
    <path
       id="path4492"
       style="fill:#af885a;fill-opacity:1;fill-rule:nonzero;stroke:none;stroke-width:0.0352778"
       d="m 30.634012,59.053669 c 0.334786,-0.30092 0.666044,-0.56833 1.002242,-0.77435 2.90583,-1.84361 5.677606,-0.82973 6.725708,0.87983 0.05962,0.18344 0.09772,0.37042 0.118534,0.55986 -1.107723,-1.63019 -3.81,-2.54177 -6.63822,-0.74965 -0.332317,0.20884 -0.667456,0.47625 -1.002242,0.77717 -0.827617,0.74683 -1.1811,1.47566 -1.193094,2.13536 -0.05433,-0.0663 -0.105481,-0.13265 -0.149225,-0.20179 -0.196498,-0.77999 0.09737,-1.68663 1.136297,-2.62643" />
    <path
       id="path4494"
       style="fill:#a97c4f;fill-opacity:1;fill-rule:nonzero;stroke:none;stroke-width:0.0352778"
       d="m 29.64694,61.884709 v -0.003 c 0.01199,-0.6597 0.365477,-1.38853 1.193094,-2.13536 0.334786,-0.30092 0.669925,-0.56833 1.002242,-0.77717 2.82822,-1.79212 5.530497,-0.88054 6.63822,0.74965 0.11183,1.10807 -0.477661,2.28741 -2.067278,3.12878 -2.315634,1.22591 -5.539317,0.5454 -6.766278,-0.96308" />
    <path
       id="path4496"
       style="fill:#e4c9a3;fill-opacity:1;fill-rule:nonzero;stroke:none;stroke-width:0.0352778"
       d="m 36.632293,23.223789 c -1.485195,-0.23989 -1.056217,-1.76389 0.05151,-1.66511 1.601612,0.14111 0.652639,1.778 -0.05151,1.66511" />
    <path
       id="path4498"
       style="fill:#e4c9a3;fill-opacity:1;fill-rule:nonzero;stroke:none;stroke-width:0.0352778"
       d="m 43.768282,24.215099 c -1.393825,-0.22578 -0.990953,-1.65453 0.04868,-1.56281 1.503186,0.13406 0.612422,1.67217 -0.04868,1.56281" />
    <path
       id="path4500"
       style="fill:#e4c9a3;fill-opacity:1;fill-rule:nonzero;stroke:none;stroke-width:0.0352778"
       d="m 44.769113,25.121739 c 0.763058,-0.55034 1.246364,0.31044 0.712964,0.75847 -0.77082,0.64558 -1.075267,-0.50095 -0.712964,-0.75847" />
    <path
       id="path4502"
       style="fill:#e4c9a3;fill-opacity:1;fill-rule:nonzero;stroke:none;stroke-width:0.0352778"
       d="m 37.074323,23.862319 c 0.80892,-0.26811 0.992717,0.61031 0.410281,0.85019 -0.841728,0.34925 -0.794103,-0.72319 -0.410281,-0.85019" />
    <path
       id="path4504"
       style="fill:#e4c9a3;fill-opacity:1;fill-rule:nonzero;stroke:none;stroke-width:0.0352778"
       d="m 39.71804,24.888899 c 0.193675,0.58209 -0.439561,0.71614 -0.61348,0.29634 -0.251531,-0.60678 0.521758,-0.5715 0.61348,-0.29634" />
    <path
       id="path4506"
       style="fill:#e4c9a3;fill-opacity:1;fill-rule:nonzero;stroke:none;stroke-width:0.0352778"
       d="m 41.569771,23.823509 c 0.212019,-0.0705 0.26035,0.15875 0.107597,0.22225 -0.220486,0.0917 -0.208139,-0.1905 -0.107597,-0.22225" />
    <path
       id="path4508"
       style="fill:#e4c9a3;fill-opacity:1;fill-rule:nonzero;stroke:none;stroke-width:0.0352778"
       d="m 38.995551,23.142649 c 0.620536,-0.20461 0.761648,0.46567 0.315031,0.65264 -0.645936,0.26811 -0.6096,-0.55386 -0.315031,-0.65264" />
    <path
       id="path4510"
       style="fill:#e4c9a3;fill-opacity:1;fill-rule:nonzero;stroke:none;stroke-width:0.0352778"
       d="m 40.557299,23.340209 c 0.430389,-0.14464 0.528108,0.32455 0.218369,0.45155 -0.447675,0.18698 -0.422628,-0.38452 -0.218369,-0.45155" />
    <path
       id="path4512"
       style="fill:#e4c9a3;fill-opacity:1;fill-rule:nonzero;stroke:none;stroke-width:0.0352778"
       d="m 46.433518,11.938429 c 1.095023,-0.09172 1.034345,1.231195 0.230717,1.365251 -1.161697,0.197555 -0.750005,-1.319389 -0.230717,-1.365251" />
    <path
       id="path4514"
       style="fill:#e4c9a3;fill-opacity:1;fill-rule:nonzero;stroke:none;stroke-width:0.0352778"
       d="m 46.477263,13.638818 c 0.578203,-0.04939 0.546453,0.649112 0.122061,0.719667 -0.613833,0.105833 -0.396169,-0.6985 -0.122061,-0.719667" />
    <path
       id="path4516"
       style="fill:#b0895b;fill-opacity:1;fill-rule:nonzero;stroke:none;stroke-width:0.0352778"
       d="m 45.617896,58.649739 c -1.650647,-0.26811 -1.173692,-1.96039 0.05786,-1.85103 1.780117,0.15805 0.725311,1.97838 -0.05786,1.85103" />
    <path
       id="path4518"
       style="fill:#b0895b;fill-opacity:1;fill-rule:nonzero;stroke:none;stroke-width:0.0352778"
       d="m 69.693215,55.759079 c 0.89959,-0.2981 1.10384,0.67698 0.4565,0.94509 -0.93557,0.38735 -0.88301,-0.80363 -0.4565,-0.94509" />
    <path
       id="path4520"
       style="fill:#b0895b;fill-opacity:1;fill-rule:nonzero;stroke:none;stroke-width:0.0352778"
       d="m 45.574152,59.787449 c 0.893586,0.63958 -0.01129,1.6069 -0.710848,1.18886 -1.011766,-0.60431 0.286809,-1.49225 0.710848,-1.18886" />
    <path
       id="path4522"
       style="fill:#b0895b;fill-opacity:1;fill-rule:nonzero;stroke:none;stroke-width:0.0352778"
       d="m 71.429235,58.597179 c 0.60572,-0.20074 0.74295,0.45578 0.30727,0.63605 -0.62971,0.26071 -0.59443,-0.5408 -0.30727,-0.63605" />
    <path
       id="path4524"
       style="fill:#cba87b;fill-opacity:1;fill-rule:nonzero;stroke:none;stroke-width:0.0352778"
       d="m 69.542935,30.974319 c -1.651,-0.26811 -1.17405,-1.96144 0.0575,-1.85208 1.78047,0.15875 0.72567,1.97908 -0.0575,1.85208" />
    <path
       id="path4526"
       style="fill:#cba87b;fill-opacity:1;fill-rule:nonzero;stroke:none;stroke-width:0.0352778"
       d="m 71.332225,34.653789 c 0.89958,-0.29633 1.10384,0.67734 0.45649,0.94545 -0.93592,0.38805 -0.883,-0.80434 -0.45649,-0.94545" />
    <path
       id="path4528"
       style="fill:#cba87b;fill-opacity:1;fill-rule:nonzero;stroke:none;stroke-width:0.0352778"
       d="m 72.127385,32.283129 c 0.89359,0.63852 -0.0109,1.60866 -0.71085,1.18886 -1.01141,-0.60325 0.28681,-1.49225 0.71085,-1.18886" />
    <path
       id="path4530"
       style="fill:#cba87b;fill-opacity:1;fill-rule:nonzero;stroke:none;stroke-width:0.0352778"
       d="m 69.697095,34.230459 c 0.60537,-0.20108 0.74295,0.45508 0.30727,0.635 -0.63006,0.26106 -0.59443,-0.53975 -0.30727,-0.635" />
    <path
       id="path4532"
       style="fill:#cba87b;fill-opacity:1;fill-rule:nonzero;stroke:none;stroke-width:0.0352778"
       d="m 62.693405,40.416769 c 0.96237,1.1931 -0.39864,2.05634 -1.17229,1.22837 -1.1183,-1.19732 0.71544,-1.79493 1.17229,-1.22837" />
    <path
       id="path4534"
       style="fill:#cba87b;fill-opacity:1;fill-rule:nonzero;stroke:none;stroke-width:0.0352778"
       d="m 64.431535,39.134069 c 0.98108,-0.32455 1.20368,0.74083 0.49777,1.03364 -1.02094,0.42122 -0.96344,-0.87842 -0.49777,-1.03364" />
    <path
       id="path4536"
       style="fill:#cba87b;fill-opacity:1;fill-rule:nonzero;stroke:none;stroke-width:0.0352778"
       d="m 59.526165,40.979799 c 0.36583,-0.12135 0.44873,0.27552 0.18556,0.38418 -0.38065,0.15769 -0.35913,-0.32667 -0.18556,-0.38418" />
    <path
       id="path4538"
       style="fill:#cba87b;fill-opacity:1;fill-rule:nonzero;stroke:none;stroke-width:0.0352778"
       d="m 63.924245,41.429949 c 0.5341,-0.1771 0.65546,0.40217 0.27093,0.56127 -0.55562,0.23001 -0.52423,-0.47731 -0.27093,-0.56127" />
    <path
       id="path4540"
       style="fill:#69381f;fill-opacity:1;fill-rule:nonzero;stroke:none;stroke-width:0.0352778"
       d="m 58.217005,81.789489 c 3.72039,0.7486 12.36662,-5.35799 8.86319,-7.80062 6.93243,3.05365 -5.56543,10.48773 -8.86319,7.80062" />
    <path
       id="path4542"
       style="fill:#7a492a;fill-opacity:1;fill-rule:nonzero;stroke:none;stroke-width:0.0352778"
       d="m 59.231945,78.018299 c 0.067,-0.0702 0.12312,-0.133 0.19473,-0.20038 1.05763,-1.05833 2.43205,-1.98825 3.83434,-2.75802 1.0594,-0.57961 2.22497,-1.10031 3.15172,-1.13382 0.0949,-0.005 0.18415,-0.004 0.27023,0.002 0.14146,0.009 0.27411,0.031 0.39829,0.0603 0.68333,0.47554 0.9846,1.25765 0.66533,2.24614 -0.3048,0.95356 -1.25835,2.08456 -2.48038,2.89807 -0.18591,0.15063 -0.38347,0.29915 -0.57996,0.43956 -1.52894,1.09678 -3.35704,1.96744 -4.92549,2.22003 -0.56903,0.0864 -1.09784,0.0854 -1.54305,-0.004 l -0.004,-0.003 c -0.16228,-0.13123 -0.28681,-0.28963 -0.36477,-0.47484 -0.0487,-0.11042 -0.0794,-0.23107 -0.0917,-0.36054 -0.0857,-0.82515 0.52528,-1.92264 1.47496,-2.93158" />
    <path
       id="path4544"
       style="fill:#936b46;fill-opacity:1;fill-rule:nonzero;stroke:none;stroke-width:0.0352778"
       d="m 62.454215,74.587889 c 1.21285,-0.66534 2.67229,-1.33386 3.78531,-1.06398 0.17956,0.12488 0.32914,0.26035 0.44344,0.40464 -0.0861,-0.006 -0.17533,-0.007 -0.27023,-0.002 -0.92675,0.0335 -2.09232,0.55421 -3.15172,1.13382 -1.40229,0.76977 -2.77671,1.69969 -3.83434,2.75802 -0.0716,0.0674 -0.1277,0.13018 -0.19473,0.20038 -0.94968,1.00894 -1.56069,2.10643 -1.47496,2.93158 0.0123,0.12947 0.043,0.25012 0.0917,0.36054 -0.139,-0.009 -0.26952,-0.0279 -0.39652,-0.0526 0,-0.0406 -2.65078,-2.4758 5.00203,-6.66997" />
    <path
       id="path4546"
       style="fill:#8f633f;fill-opacity:1;fill-rule:nonzero;stroke:none;stroke-width:0.0352778"
       d="m 59.231945,78.018299 c 0.067,-0.0702 0.12312,-0.133 0.19473,-0.20038 1.05763,-1.05833 2.43205,-1.98825 3.83434,-2.75802 1.0594,-0.57961 2.22497,-1.10031 3.15172,-1.13382 0.0949,-0.005 0.18415,-0.004 0.27023,0.002 2.08315,2.53294 -5.14244,7.6581 -8.83426,7.38187 -0.0487,-0.11042 -0.0794,-0.23107 -0.0917,-0.36054 -0.0857,-0.82515 0.52528,-1.92264 1.47496,-2.93158" />
    <path
       id="path4548"
       style="fill:#9b6439;fill-opacity:1;fill-rule:nonzero;stroke:none;stroke-width:0.0352778"
       d="m 64.608985,28.282629 c -0.29775,-0.1517 -0.61489,-0.28575 -0.94792,-0.39864 -2.59856,-0.87136 -6.13268,-0.45861 -8.01581,2.19427 -2.87655,4.03931 -2.73262,6.38176 -1.48061,7.59531 -2.05035,-0.889 -2.84692,-3.34786 0.68686,-8.30439 2.3502,-3.28436 6.98888,-3.08328 9.47561,-1.30528 0.0988,0.0706 0.19156,0.14111 0.28187,0.21873" />
    <path
       id="path4550"
       style="fill:#b78551;fill-opacity:1;fill-rule:nonzero;stroke:none;stroke-width:0.0352778"
       d="m 65.861345,30.378129 c 0.21343,1.9438 -1.52647,4.51555 -6.81143,7.18255 -0.9391,0.47625 -2.46063,0.69497 -3.82623,0.43745 l -0.01,-0.004 c -0.36265,-0.067 -0.71331,-0.17286 -1.03999,-0.31397 l -0.01,-0.007 c -1.25201,-1.21355 -1.39594,-3.556 1.48061,-7.59531 1.88313,-2.65288 5.41725,-3.06563 8.01581,-2.19427 0.33303,0.11289 0.65017,0.24694 0.94792,0.39864 0.70379,0.56797 1.16205,1.28763 1.25236,2.0955" />
    <path
       id="path4552"
       style="fill:#caa77a;fill-opacity:1;fill-rule:nonzero;stroke:none;stroke-width:0.0352778"
       d="m 66.650155,30.596849 c 0.21378,1.9438 -1.52612,4.51555 -6.80791,7.18255 -1.12959,0.5715 -3.09103,0.76906 -4.61856,0.21873 1.3656,0.25752 2.88713,0.0388 3.82623,-0.43745 5.28496,-2.667 7.02486,-5.23875 6.81143,-7.18255 -0.0903,-0.80787 -0.54857,-1.52753 -1.25236,-2.0955 -0.0903,-0.0776 -0.18309,-0.14817 -0.28187,-0.21873 0.37888,0.11995 0.73872,0.26459 1.07103,0.43745 0.70662,0.56444 1.16205,1.28764 1.25201,2.0955" />
    <path
       id="path4554"
       style="fill:#c59a69;fill-opacity:1;fill-rule:nonzero;stroke:none;stroke-width:0.0352778"
       d="m 65.861345,30.378129 c 0.21343,1.9438 -1.52647,4.51555 -6.81143,7.18255 -0.9391,0.47625 -2.46063,0.69497 -3.82623,0.43745 l -0.01,-0.004 c -0.0836,-0.0318 -0.16721,-0.0635 -0.248,-0.0988 l -0.0124,-0.004 c -1.25201,-1.21355 -1.39594,-3.556 1.48061,-7.59883 1.70039,-2.39183 4.74133,-2.96333 7.22665,-2.40947 0.22614,0.0529 0.45015,0.10936 0.66605,0.17991 0.0988,0.0706 0.19156,0.14111 0.28187,0.21873 0.70379,0.56797 1.16205,1.28763 1.25236,2.0955" />
  </g>
</svg>
