<?xml version="1.0" encoding="UTF-8" standalone="no"?>
<!-- Created with Inkscape (http://www.inkscape.org/) -->

<svg
   width="100"
   height="100"
   viewBox="0 0 100 100"
   version="1.1"
   id="svg2495"
   inkscape:version="1.2.1 (9c6d41e410, 2022-07-14)"
   sodipodi:docname="asteroid3.svg"
   xmlns:inkscape="http://www.inkscape.org/namespaces/inkscape"
   xmlns:sodipodi="http://sodipodi.sourceforge.net/DTD/sodipodi-0.dtd"
   xmlns="http://www.w3.org/2000/svg"
   xmlns:svg="http://www.w3.org/2000/svg">
  <sodipodi:namedview
     id="namedview2497"
     pagecolor="#505050"
     bordercolor="#ffffff"
     borderopacity="1"
     inkscape:showpageshadow="0"
     inkscape:pageopacity="0"
     inkscape:pagecheckerboard="1"
     inkscape:deskcolor="#505050"
     inkscape:document-units="mm"
     showgrid="false"
     inkscape:zoom="0.74564394"
     inkscape:cx="365.45593"
     inkscape:cy="347.35077"
     inkscape:window-width="1920"
     inkscape:window-height="1017"
     inkscape:window-x="-8"
     inkscape:window-y="-8"
     inkscape:window-maximized="1"
     inkscape:current-layer="layer1" />
  <defs
     id="defs2492" />
  <g
     inkscape:label="Warstwa 1"
     inkscape:groupmode="layer"
     id="layer1">
    <path
       id="path4558"
       style="fill:#7e5130;fill-opacity:1;fill-rule:nonzero;stroke:none;stroke-width:0.0352778"
       d="m 83.503557,59.098184 c 0,19.25814 -28.969756,29.05619 -49.913116,12.55854 -2.886428,-2.27295 -5.207706,-4.63127 -7.023101,-7.02345 0.758825,-0.11889 1.521531,-0.1524 2.287764,-0.0854 5.047898,0.41664 11.260315,5.15197 18.302113,6.81109 14.928145,3.51543 15.646048,-8.63389 22.040498,-12.1158 2.5781,-1.40618 5.765801,-1.4023 8.250768,-2.96475 2.170994,-1.36525 3.493914,-3.920772 3.493914,-6.472767 0,-0.405341 -0.0353,-0.811036 -0.10584,-1.212497 1.83798,3.719689 2.667,7.246409 2.667,10.505014" />
    <path
       id="path4560"
       style="fill:#9e6f43;fill-opacity:1;fill-rule:nonzero;stroke:none;stroke-width:0.0352778"
       d="m 80.942397,49.805667 c 0,2.551995 -1.32292,5.107517 -3.493914,6.472767 -2.484967,1.56245 -5.672668,1.55857 -8.250768,2.96475 -6.39445,3.48191 -7.112353,15.63123 -22.040498,12.1158 -7.041798,-1.65912 -13.254215,-6.39445 -18.302113,-6.81109 -0.766233,-0.067 -1.528939,-0.0335 -2.287764,0.0854 h -0.0039 c -2.789767,-3.67524 -4.393142,-7.45102 -5.036609,-11.182001 4.635148,5.412671 14.969068,-0.0187 17.543287,0.223308 6.71442,0.62477 6.725709,9.281233 18.037882,5.099753 7.644342,-2.823277 1.692628,-13.822889 8.931628,-16.706142 0.896409,-0.357011 6.078362,-0.09278 8.436682,-3.484034 0.818444,1.400528 1.774472,2.8702 2.905125,4.40302 1.408992,1.908175 2.551992,3.779309 3.455102,5.605992 0.0706,0.401461 0.10584,0.807156 0.10584,1.212497" />
    <path
       id="path4562"
       style="fill:#bf9460;fill-opacity:1;fill-rule:nonzero;stroke:none;stroke-width:0.0352778"
       d="m 74.47633,38.584158 c -2.35832,3.391253 -7.540273,3.127023 -8.436682,3.484034 -7.239,2.883253 -1.287286,13.882865 -8.931628,16.706142 -11.312173,4.18148 -11.323462,-4.474983 -18.037882,-5.099753 -2.574219,-0.242005 -12.908139,5.189363 -17.543287,-0.223308 -0.974372,-5.650442 0.249414,-11.215512 2.853267,-16.218254 1.406172,1.672167 4.478867,2.945695 9.92117,3.726745 4.19982,0.599017 10.947401,2.953809 15.139812,-0.869244 1.68522,-1.541639 2.514953,-3.841751 4.188884,-5.386918 3.712281,-3.446639 11.397545,-2.497666 13.079237,-7.799917 0.505883,-1.605139 0.687916,-2.991555 0.561622,-4.205111 2.428875,3.647722 3.172884,8.974667 7.205487,15.885584" />
    <path
       id="path4564"
       style="fill:#d3ae7e;fill-opacity:1;fill-rule:nonzero;stroke:none;stroke-width:0.0352778"
       d="m 66.709221,26.903685 c -1.681692,5.302251 -9.366956,4.353278 -13.079237,7.799917 -1.673931,1.545167 -2.503664,3.845279 -4.188884,5.386918 -4.192411,3.823053 -10.939992,1.468261 -15.139812,0.869244 -5.442303,-0.78105 -8.514998,-2.054578 -9.92117,-3.726745 6.505928,-12.491862 21.66479,-21.508862 32.943449,-19.79789 5.501923,0.832556 8.172804,2.599973 9.947276,5.263445 0.126294,1.213556 -0.05574,2.599972 -0.561622,4.205111" />
    <path
       id="path4566"
       style="fill:#dbba8e;fill-opacity:1;fill-rule:nonzero;stroke:none;stroke-width:0.0352778"
       d="m 53.104345,17.823185 c -1.736725,0.313972 -3.419828,1.11125 -4.595284,2.427111 -0.474133,0.532695 -0.868891,1.160639 -0.983897,1.862667 -0.119239,0.733778 0.06773,1.509889 -0.181328,2.204861 -0.566561,1.5875 -3.011664,1.905 -3.461808,3.531306 -0.199673,0.719667 0.08079,1.495778 0.513291,2.102556 0.432506,0.610305 1.008592,1.100666 1.505303,1.658055 0.858661,0.963084 1.499659,2.257778 1.231547,3.520723 -0.180622,0.850194 -0.748241,1.573389 -0.984955,2.409472 -0.08079,0.28575 -0.112536,0.620889 0.07126,0.850195 0.189794,0.239888 0.554214,0.278694 0.839964,0.169333 0.285397,-0.105833 0.509411,-0.331611 0.717903,-0.553861 0.679803,-0.73025 1.296458,-1.520473 1.840442,-2.356556 0.450497,-0.694972 0.853722,-1.421695 1.385711,-2.056695 1.61925,-1.922639 4.193469,-2.716389 6.643158,-3.287889 0.826206,-0.194027 1.655587,-0.373944 2.48779,-0.53975 0.966963,-0.194027 1.957564,-0.373944 2.819047,-0.85725 1.688042,-0.941916 2.61232,-2.991556 2.418997,-4.914195 -0.193321,-1.922639 -1.336321,-3.771194 -3.012016,-4.734278 -3.491794,-2.010833 -7.518753,-1.749777 -9.255125,-1.435805" />
    <path
       id="path4568"
       style="fill:#824a29;fill-opacity:1;fill-rule:nonzero;stroke:none;stroke-width:0.0352778"
       d="m 37.55778,59.734244 c 0.475192,1.01247 0.05962,2.35938 -2.922764,3.40572 -2.056695,0.71861 -3.90137,-0.9906 -4.136673,-2.57493 0.536223,1.38007 2.172053,2.61797 3.969456,1.98438 2.430639,-0.85549 3.156656,-1.90782 3.089981,-2.81517" />
    <path
       id="path4570"
       style="fill:#986339;fill-opacity:1;fill-rule:nonzero;stroke:none;stroke-width:0.0352778"
       d="m 30.724827,59.276344 c 0.569383,-0.90029 2.079625,-1.47285 4.960761,-0.99801 0.646995,0.11042 1.511653,0.67945 1.871134,1.44956 v 0.007 c 0.0032,0.0307 0.0025,0.06 0.0035,0.0935 0.0099,0.88547 -0.745066,1.89512 -3.091391,2.71991 -1.799873,0.63324 -3.436056,-0.60325 -3.969456,-1.98367 -0.06033,-0.3556 -0.03316,-0.70837 0.09454,-1.02129 0.03351,-0.0924 0.07832,-0.18133 0.130881,-0.2674" />
    <path
       id="path4572"
       style="fill:#af885a;fill-opacity:1;fill-rule:nonzero;stroke:none;stroke-width:0.0352778"
       d="m 30.849357,58.663214 c 0.565503,-0.90135 2.079625,-1.4725 4.956881,-0.99907 0.646995,0.11042 1.512006,0.67945 1.871134,1.44957 v 0.007 c 0.01623,0.23072 -0.01799,0.46673 -0.117123,0.70768 -0.0011,-0.0335 -3.52e-4,-0.0628 -0.0035,-0.0935 v -0.007 c -0.359481,-0.77011 -1.224139,-1.33914 -1.871134,-1.44956 -2.881136,-0.47484 -4.391378,0.0977 -4.960761,0.99801 -0.05256,0.0861 -0.09737,0.17497 -0.130881,0.2674 0.0071,-0.31503 0.08961,-0.61665 0.255411,-0.88053" />
    <path
       id="path4574"
       style="fill:#a97c4f;fill-opacity:1;fill-rule:nonzero;stroke:none;stroke-width:0.0352778"
       d="m 30.724827,59.276344 c 0.569383,-0.90029 2.079625,-1.47285 4.960761,-0.99801 0.646995,0.11042 1.511653,0.67945 1.871134,1.44956 v 0.007 c 0.0032,0.0307 0.0025,0.06 0.0035,0.0935 -0.288572,0.71825 -1.15323,1.4672 -2.970741,2.10573 -1.795992,0.63464 -3.432176,-0.60184 -3.969103,-1.98367 -0.02258,-0.13617 -0.03528,-0.27341 -0.02646,-0.40711 0.03351,-0.0924 0.07832,-0.18133 0.130881,-0.2674" />
    <path
       id="path4576"
       style="fill:#9b6439;fill-opacity:1;fill-rule:nonzero;stroke:none;stroke-width:0.0352778"
       d="m 67.150546,31.81788 c -0.772231,-0.702028 0.198966,-1.848556 1.227314,-1.418167 0.243416,0.119945 0.408869,0.271639 0.507294,0.433917 -0.08714,-0.08114 -0.193322,-0.151694 -0.325614,-0.218722 -0.928864,-0.391584 -1.807986,0.508 -1.408994,1.202972" />
    <path
       id="path4578"
       style="fill:#b78551;fill-opacity:1;fill-rule:nonzero;stroke:none;stroke-width:0.0352778"
       d="m 67.725574,32.131852 c -0.147462,-0.0388 -0.294923,-0.105833 -0.445912,-0.211666 l -0.04798,-0.03528 -0.0822,-0.06703 c -0.39758,-0.694972 0.480131,-1.594556 1.409348,-1.202972 0.133703,0.0635 0.239889,0.137583 0.325614,0.218722 l 0.04445,0.08819 c 0.29845,0.649112 -0.373592,1.421695 -1.203325,1.210028" />
    <path
       id="path4580"
       style="fill:#caa77a;fill-opacity:1;fill-rule:nonzero;stroke:none;stroke-width:0.0352778"
       d="m 67.849046,32.283547 c -0.147461,-0.03881 -0.29845,-0.102306 -0.449439,-0.208139 -0.04798,-0.03175 -0.0889,-0.06703 -0.126647,-0.105833 l -0.04127,-0.08467 0.04798,0.03528 c 0.150989,0.105833 0.29845,0.172861 0.445912,0.211666 0.829733,0.211667 1.501775,-0.560916 1.203325,-1.210028 l 0.07902,0.0635 c 0.39758,0.666751 -0.294922,1.520473 -1.158875,1.298223" />
    <path
       id="path4582"
       style="fill:#c59a69;fill-opacity:1;fill-rule:nonzero;stroke:none;stroke-width:0.0352778"
       d="m 67.725574,32.131852 c -0.147462,-0.0388 -0.294923,-0.105833 -0.445912,-0.211666 l -0.04798,-0.03528 c -0.287867,-0.677334 0.559152,-1.49225 1.450269,-1.114778 0.09278,0.04586 0.174978,0.09525 0.246945,0.151694 0.29845,0.649112 -0.373592,1.421695 -1.203325,1.210028" />
    <path
       id="path4584"
       style="fill:#69381f;fill-opacity:1;fill-rule:nonzero;stroke:none;stroke-width:0.0352778"
       d="m 38.531799,71.739984 c -0.02611,0.0907 -0.0127,0.20108 0.05009,0.32984 0.02081,0.043 0.04551,0.0864 0.07373,0.13053 0.417688,0.65828 2.403475,1.67993 2.910769,1.24213 -0.202847,0.82197 -2.55905,-0.34149 -3.014839,-1.06362 -0.02822,-0.0441 -0.05292,-0.0875 -0.07373,-0.13053 -0.107597,-0.22049 -0.07373,-0.39158 0.05398,-0.50835" />
    <path
       id="path4586"
       style="fill:#7a492a;fill-opacity:1;fill-rule:nonzero;stroke:none;stroke-width:0.0352778"
       d="m 41.542758,73.079834 c 0.02434,0.10195 0.03704,0.19402 0.03598,0.26952 -0.0018,0.0356 -0.0056,0.0646 -0.0127,0.0938 -0.508352,0.43638 -2.491669,-0.58526 -2.911828,-1.24319 -0.02822,-0.0448 -0.04974,-0.0861 -0.07444,-0.13088 -0.06032,-0.12841 -0.07585,-0.23813 -0.04939,-0.3295 0.0508,-0.0466 0.1143,-0.0868 0.193323,-0.11747 0.717902,-0.28999 2.478616,0.16721 2.819047,1.45768" />
    <path
       id="path4588"
       style="fill:#936b46;fill-opacity:1;fill-rule:nonzero;stroke:none;stroke-width:0.0352778"
       d="m 41.747722,72.900614 c 0.0381,0.14782 0.04445,0.26529 0.02081,0.36019 -0.05009,0.0427 -0.114653,0.0723 -0.189795,0.0885 0.0011,-0.0755 -0.01164,-0.16757 -0.03598,-0.26952 -0.340431,-1.29047 -2.101145,-1.74767 -2.819047,-1.45768 l 0.01199,-0.0617 c 0.519289,-0.49424 2.634545,-0.0868 3.012017,1.3402" />
    <path
       id="path4590"
       style="fill:#8f633f;fill-opacity:1;fill-rule:nonzero;stroke:none;stroke-width:0.0352778"
       d="m 41.542758,73.079834 c 0.02434,0.10195 0.03704,0.19402 0.03598,0.26952 -0.687564,0.15522 -2.339975,-0.73554 -2.719211,-1.32856 -0.02822,-0.0444 -0.05256,-0.0893 -0.07091,-0.13088 -0.04974,-0.10055 -0.0695,-0.19227 -0.06491,-0.26776 0.717902,-0.28999 2.478616,0.16721 2.819047,1.45768" />
    <path
       id="path4592"
       style="fill:#9b6439;fill-opacity:1;fill-rule:nonzero;stroke:none;stroke-width:0.0352778"
       d="m 26.782182,48.270026 c -0.224367,-0.1397 -0.547511,-0.23107 -0.995892,-0.255412 -0.741186,-0.104069 -1.59138,0.464962 -1.346905,1.827037 0.04833,0.268464 0.125236,0.478366 0.22225,0.639586 -0.24765,-0.143228 -0.444148,-0.444853 -0.536928,-0.962731 -0.244828,-1.362075 0.605719,-1.931105 1.346906,-1.826683 0.735188,0.0388 1.138414,0.265289 1.310569,0.578203" />
    <path
       id="path4594"
       style="fill:#b78551;fill-opacity:1;fill-rule:nonzero;stroke:none;stroke-width:0.0352778"
       d="m 25.501246,50.496053 c -0.237772,0.0956 -0.481542,0.118887 -0.696383,0.04621 -0.04939,-0.01446 -0.0956,-0.03457 -0.14217,-0.06068 -0.09842,-0.162631 -0.173919,-0.371475 -0.223308,-0.64135 -0.24377,-1.360664 0.606425,-1.929342 1.3462,-1.82492 0.449791,0.02328 0.771878,0.116064 0.995186,0.255411 0.0321,0.05786 0.05503,0.118886 0.07267,0.182739 0.191206,0.722489 -0.577497,1.732139 -1.352197,2.042583" />
    <path
       id="path4596"
       style="fill:#caa77a;fill-opacity:1;fill-rule:nonzero;stroke:none;stroke-width:0.0352778"
       d="m 25.745015,50.768751 c -0.293158,0.116064 -0.591961,0.127705 -0.838552,-0.01446 -0.03775,-0.06385 -0.07232,-0.133703 -0.1016,-0.21202 0.214841,0.07267 0.458611,0.04939 0.696383,-0.04621 0.7747,-0.310444 1.543403,-1.320094 1.352197,-2.042583 0.06385,0.02611 0.121709,0.05786 0.17392,0.08996 0.394758,0.722489 -0.434975,1.888773 -1.282348,2.225323" />
    <path
       id="path4598"
       style="fill:#c59a69;fill-opacity:1;fill-rule:nonzero;stroke:none;stroke-width:0.0352778"
       d="m 25.501246,50.496053 c -0.237772,0.0956 -0.481542,0.118887 -0.696383,0.04621 -0.04939,-0.121708 -0.08996,-0.263877 -0.118887,-0.426508 -0.246591,-1.363486 0.603603,-1.932164 1.3462,-1.827742 0.342548,0.01729 0.61207,0.0755 0.821267,0.165453 0.191206,0.722489 -0.577497,1.732139 -1.352197,2.042583" />
    <path
       id="path4600"
       style="fill:#b38050;fill-opacity:1;fill-rule:nonzero;stroke:none;stroke-width:0.0352778"
       d="m 59.372501,21.280407 c -1.954389,-2.536472 -9.647062,-0.486833 -9.447037,2.525889 -1.435806,-1.972028 0.803981,-4.328583 3.463925,-5.037667 2.659945,-0.712611 5.739695,0.218723 5.983112,2.511778" />
    <path
       id="path4602"
       style="fill:#d2a877;fill-opacity:1;fill-rule:nonzero;stroke:none;stroke-width:0.0352778"
       d="m 59.370737,21.280407 0.0053,0.05292 c 0.03422,0.405694 -0.0053,0.864305 -0.170745,1.393472 -0.748594,2.515306 -4.927247,3.986389 -7.212189,2.741084 -0.756003,-0.416278 -1.31692,-0.8255 -1.712031,-1.23825 l -0.0092,-0.01058 c -0.137583,-0.137583 -0.249767,-0.275166 -0.345722,-0.41275 -0.390525,-4.134556 7.986183,-5.411611 9.444567,-2.525889" />
    <path
       id="path4604"
       style="fill:#e4c9a3;fill-opacity:1;fill-rule:nonzero;stroke:none;stroke-width:0.0352778"
       d="m 59.706581,21.675518 c 0.04339,0.416278 -0.14605,1.315862 -0.313619,1.866195 -0.748595,2.515306 -3.91407,3.548945 -6.582481,2.554111 -1.068564,-0.398639 -2.138186,-1.322917 -2.529417,-1.866194 0.395111,0.41275 0.956028,0.821972 1.712031,1.23825 2.284942,1.245305 6.463595,-0.225778 7.212189,-2.741084 0.165453,-0.529167 0.204964,-0.987778 0.170745,-1.393472 0.125588,0.102305 0.236008,0.215194 0.330552,0.342194" />
    <path
       id="path4606"
       style="fill:#dbb88d;fill-opacity:1;fill-rule:nonzero;stroke:none;stroke-width:0.0352778"
       d="m 59.376029,21.333324 c 0.03422,0.405694 -0.0053,0.864305 -0.170745,1.393472 -0.748594,2.515306 -4.927247,3.986389 -7.212189,2.741084 -0.756003,-0.416278 -1.31692,-0.8255 -1.712031,-1.23825 l -0.0092,-0.01058 -0.0099,-0.01764 c -0.191558,-2.861028 6.750756,-4.85775 9.114015,-2.868083" />
    <path
       id="path4608"
       style="fill:#9b6439;fill-opacity:1;fill-rule:nonzero;stroke:none;stroke-width:0.0352778"
       d="m 39.147044,45.344087 c -0.461433,-0.424392 -1.293989,-0.569737 -2.600678,-0.107245 -1.502833,0.527756 -2.011892,1.7907 -1.554692,2.672292 -0.892528,-0.849489 -0.492125,-2.462742 1.254478,-3.074811 1.665464,-0.582437 2.557286,-0.189442 2.900892,0.509764" />
    <path
       id="path4610"
       style="fill:#b78551;fill-opacity:1;fill-rule:nonzero;stroke:none;stroke-width:0.0352778"
       d="m 39.314613,46.309287 c -0.06668,0.847372 -0.597605,1.720497 -1.360664,1.935339 -1.43898,0.412044 -2.431344,0.171097 -2.962275,-0.33655 -0.05821,-0.11042 -0.1016,-0.229306 -0.127705,-0.351367 -0.185561,-0.8382 0.371475,-1.859492 1.68275,-2.320925 1.30563,-0.461434 2.138186,-0.316089 2.599619,0.107244 l 0.006,0.0088 c 0.138994,0.284339 0.188383,0.620889 0.162277,0.957439" />
    <path
       id="path4612"
       style="fill:#caa77a;fill-opacity:1;fill-rule:nonzero;stroke:none;stroke-width:0.0352778"
       d="m 37.977233,48.761092 c -1.438981,0.40887 -2.428523,0.171098 -2.962275,-0.33655 -0.136525,-0.26423 -0.185914,-0.563033 -0.150989,-0.867833 0.02611,0.122061 0.0695,0.240947 0.127705,0.351367 0.530931,0.507647 1.523295,0.748594 2.962275,0.33655 0.763059,-0.214842 1.293989,-1.087967 1.360664,-1.935339 0.168275,0.96908 -0.414866,2.187575 -1.33738,2.451805" />
    <path
       id="path4614"
       style="fill:#c59a69;fill-opacity:1;fill-rule:nonzero;stroke:none;stroke-width:0.0352778"
       d="m 39.314613,46.309287 c -0.06668,0.847372 -0.597605,1.720497 -1.360664,1.935339 -1.43898,0.412044 -2.431344,0.171097 -2.962275,-0.33655 -0.05821,-0.11042 -0.1016,-0.229306 -0.127705,-0.351367 0.08714,-0.70485 0.652991,-1.436159 1.706033,-1.804459 1.308453,-0.461433 2.141361,-0.316088 2.602442,0.107245 l 0.006,0.0088 c 0.06668,0.136525 0.110067,0.287161 0.136172,0.440973" />
    <path
       id="path4616"
       style="fill:#9b6439;fill-opacity:1;fill-rule:nonzero;stroke:none;stroke-width:0.0352778"
       d="m 64.223196,39.197992 c -1.119012,-0.627945 -0.869598,-2.801056 1.078089,-3.051528 0.640997,-0.127 1.17475,0.05644 1.52153,0.388055 -0.330905,-0.197555 -0.762353,-0.282222 -1.2573,-0.186972 -1.775883,0.229306 -2.13995,2.056695 -1.342319,2.850445" />
    <path
       id="path4618"
       style="fill:#b78551;fill-opacity:1;fill-rule:nonzero;stroke:none;stroke-width:0.0352778"
       d="m 66.459454,38.841686 c -0.467078,0.28575 -0.877006,0.448028 -1.236839,0.504472 -0.352778,0.05292 -0.648053,0.01411 -0.887589,-0.09525 -0.03916,-0.01411 -0.07691,-0.03175 -0.110067,-0.05292 -0.797983,-0.79375 -0.436033,-2.621139 1.339498,-2.850445 0.497416,-0.09525 0.9271,-0.01058 1.258711,0.186972 0.04551,0.04233 0.08749,0.08467 0.123825,0.134056 0.502003,0.613833 0.456142,1.5875 -0.487539,2.173111" />
    <path
       id="path4620"
       style="fill:#caa77a;fill-opacity:1;fill-rule:nonzero;stroke:none;stroke-width:0.0352778"
       d="m 66.687348,39.032186 c -0.464608,0.28575 -0.878063,0.448028 -1.234369,0.504472 -0.4064,0.0635 -0.743303,0 -1.001183,-0.148166 -0.04198,-0.04233 -0.08079,-0.08819 -0.11677,-0.137584 0.239536,0.109361 0.534811,0.148167 0.887589,0.09525 0.359833,-0.05644 0.769761,-0.218722 1.236839,-0.504472 0.943681,-0.585611 0.989542,-1.559278 0.487539,-2.173111 0.03669,0.01764 0.06985,0.0388 0.103011,0.05644 0.629003,0.596195 0.655108,1.675695 -0.362656,2.307167" />
    <path
       id="path4622"
       style="fill:#c59a69;fill-opacity:1;fill-rule:nonzero;stroke:none;stroke-width:0.0352778"
       d="m 66.459454,38.841686 c -0.467078,0.28575 -0.877006,0.448028 -1.236839,0.504472 -0.352778,0.05292 -0.648053,0.01411 -0.887589,-0.09525 -0.638528,-0.846666 -0.221192,-2.497666 1.459795,-2.712861 0.443794,-0.08819 0.8382,-0.02469 1.152172,0.130528 0.502003,0.613833 0.456142,1.5875 -0.487539,2.173111" />
    <path
       id="path4624"
       style="fill:#ad7748;fill-opacity:1;fill-rule:nonzero;stroke:none;stroke-width:0.0352778"
       d="m 33.038344,35.042269 c -1.515181,-1.171222 -0.7366,-5.969 2.733675,-6.424084 1.169458,-0.229305 2.958042,0.871362 3.341511,1.495778 -0.439914,-0.370416 -1.422047,-0.836083 -2.3241,-0.659694 -3.164064,0.416278 -4.615392,4.106333 -3.751086,5.588" />
    <path
       id="path4626"
       style="fill:#cb9e69;fill-opacity:1;fill-rule:nonzero;stroke:none;stroke-width:0.0352778"
       d="m 37.061069,34.396686 c -0.966611,0.525639 -1.766711,0.821972 -2.413,0.924278 -0.362303,0.05644 -0.674864,0.05997 -0.941564,0.01058 h -0.0042 c -0.270933,-0.04939 -0.492125,-0.144639 -0.663222,-0.28575 -0.866422,-1.485195 0.53587,-5.319889 3.700992,-5.736167 1.239661,-0.176389 2.247547,0.694972 2.373842,0.800806 0.697089,1.11125 0.07091,3.122083 -2.052814,4.28625" />
    <path
       id="path4628"
       style="fill:#dcbe93;fill-opacity:1;fill-rule:nonzero;stroke:none;stroke-width:0.0352778"
       d="m 37.755688,34.820019 c -0.966964,0.529167 -2.916414,1.026584 -4.049183,0.511528 0.2667,0.04939 0.579261,0.04586 0.941564,-0.01058 0.646289,-0.102306 1.446389,-0.398639 2.413,-0.924278 2.123722,-1.164167 2.749903,-3.175 2.052814,-4.28625 -0.126295,-0.105834 -0.273403,-0.197556 -0.441678,-0.257528 0.33267,0.0635 0.611011,0.197555 0.827264,0.384528 0.700969,1.104194 0.375356,3.421944 -1.743781,4.582583" />
    <path
       id="path4630"
       style="fill:#d4ae82;fill-opacity:1;fill-rule:nonzero;stroke:none;stroke-width:0.0352778"
       d="m 37.061069,34.396686 c -0.966611,0.525639 -1.766711,0.821972 -2.413,0.924278 -0.362303,0.05644 -0.674864,0.05997 -0.941564,0.01058 h -0.0042 C 33.6,35.285684 33.505808,35.232764 33.424317,35.165738 c -0.862189,-1.481666 0.890763,-4.875389 4.055533,-5.288139 0.449086,-0.08819 1.188509,-0.02822 1.192389,-0.02469 0.239536,0 0.315383,0.151694 0.441678,0.257528 0.697089,1.11125 0.07091,3.122083 -2.052814,4.28625" />
    <path
       id="path4632"
       style="fill:#824a29;fill-opacity:1;fill-rule:nonzero;stroke:none;stroke-width:0.0352778"
       d="m 50.861736,66.504404 c 0.331612,0.29422 0.920045,0.3743 1.33985,0.0638 0.461081,-0.34149 0.492831,-0.84772 0.293159,-1.21955 0.375003,0.35525 0.461433,1.03434 -0.11042,1.45697 -0.518583,0.38312 -1.288344,0.17004 -1.522589,-0.30127" />
    <path
       id="path4634"
       style="fill:#986339;fill-opacity:1;fill-rule:nonzero;stroke:none;stroke-width:0.0352778"
       d="m 51.020134,65.633044 c 0.06667,-0.085 0.135819,-0.16122 0.204258,-0.22296 0.406047,-0.35877 0.821267,-0.35771 1.120422,-0.17709 0.05397,0.0339 0.105128,0.0702 0.150284,0.115 0.200025,0.37219 0.166863,0.87913 -0.293512,1.21885 -0.4191,0.31186 -1.008944,0.23284 -1.339144,-0.0621 l -0.0381,-0.0882 c -0.07408,-0.22578 -0.03387,-0.49742 0.195792,-0.78352" />
    <path
       id="path4636"
       style="fill:#af885a;fill-opacity:1;fill-rule:nonzero;stroke:none;stroke-width:0.0352778"
       d="m 50.83175,65.432664 c 0.06667,-0.085 0.13582,-0.16122 0.204259,-0.22013 0.480836,-0.42334 0.96908,-0.34714 1.270705,-0.0617 l 0.0381,0.0822 c -0.299155,-0.18062 -0.714375,-0.18168 -1.120422,0.17709 -0.06844,0.0617 -0.137583,0.13794 -0.204258,0.22296 -0.229659,0.2861 -0.269875,0.55774 -0.195792,0.78352 -0.05397,-0.0339 -0.105128,-0.0702 -0.150283,-0.10936 -0.120298,-0.23883 -0.101953,-0.5461 0.157691,-0.87454" />
    <path
       id="path4638"
       style="fill:#a97c4f;fill-opacity:1;fill-rule:nonzero;stroke:none;stroke-width:0.0352778"
       d="m 51.020134,65.633044 c 0.06667,-0.085 0.135819,-0.16122 0.204258,-0.22296 0.406047,-0.35877 0.821267,-0.35771 1.120422,-0.17709 0.154164,0.35913 0.09596,0.82162 -0.331611,1.1363 -0.362655,0.27022 -0.849489,0.24659 -1.188861,0.0473 -0.07408,-0.22578 -0.03387,-0.49742 0.195792,-0.78352" />
    <path
       id="path4640"
       style="fill:#ac7340;fill-opacity:1;fill-rule:nonzero;stroke:none;stroke-width:0.0352778"
       d="m 50.64372,29.838797 c -0.451203,-0.28575 -1.295048,-0.264584 -1.932164,0.1905 -0.699911,0.500944 -0.794809,1.114777 -0.541514,1.520472 -0.508353,-0.352778 -0.567972,-1.150056 0.300214,-1.767417 0.786694,-0.564444 1.8796,-0.462139 2.173464,0.05644" />
    <path
       id="path4642"
       style="fill:#d2a877;fill-opacity:1;fill-rule:nonzero;stroke:none;stroke-width:0.0352778"
       d="m 50.642309,29.838797 0.02857,0.05997 c 0.110419,0.257528 0.03493,0.606778 -0.338667,1.016 -0.10795,0.116417 -0.214842,0.22225 -0.318558,0.306917 -0.678039,0.553861 -1.322917,0.60325 -1.738489,0.388055 -0.03775,-0.01764 -0.07126,-0.0388 -0.104775,-0.0635 -0.253295,-0.405694 -0.15875,-1.016 0.541866,-1.516944 0.637117,-0.455084 1.479198,-0.47625 1.930048,-0.1905" />
    <path
       id="path4644"
       style="fill:#e4c9a3;fill-opacity:1;fill-rule:nonzero;stroke:none;stroke-width:0.0352778"
       d="m 50.781656,29.958741 c 0.150283,0.261056 0.09243,0.631472 -0.310797,1.075972 -0.107245,0.116417 -0.215195,0.218723 -0.318912,0.303389 -0.738011,0.60325 -1.436511,0.610306 -1.844675,0.331611 l -0.0321,-0.05997 c 0.415572,0.215195 1.06045,0.165806 1.738489,-0.388055 0.103716,-0.08467 0.210608,-0.1905 0.318558,-0.306917 0.373592,-0.409222 0.449086,-0.758472 0.338667,-1.016 0.03845,0.01764 0.07726,0.0388 0.110772,0.05997" />
    <path
       id="path4646"
       style="fill:#dbb88d;fill-opacity:1;fill-rule:nonzero;stroke:none;stroke-width:0.0352778"
       d="m 50.670884,29.898769 c 0.110419,0.257528 0.03493,0.606778 -0.338667,1.016 -0.10795,0.116417 -0.214842,0.22225 -0.318558,0.306917 -0.678039,0.553861 -1.322917,0.60325 -1.738489,0.388055 -0.208492,-0.405694 -0.09066,-0.98425 0.573969,-1.4605 0.588433,-0.419805 1.351845,-0.472722 1.821745,-0.250472" />
    <path
       id="path4648"
       style="fill:#824a29;fill-opacity:1;fill-rule:nonzero;stroke:none;stroke-width:0.0352778"
       d="m 64.775998,56.842173 c 0.566914,0.493891 1.6891,0.401461 2.209095,-0.3556 0.401108,-0.582083 0.329847,-1.180041 0.02469,-1.604786 0.454731,0.416631 0.6477,1.131006 0.170039,1.825272 -0.588433,0.855485 -1.941689,0.860425 -2.403828,0.135114" />
    <path
       id="path4650"
       style="fill:#986339;fill-opacity:1;fill-rule:nonzero;stroke:none;stroke-width:0.0352778"
       d="m 64.775646,56.841115 c -0.0254,-0.03881 -0.04833,-0.07937 -0.06632,-0.122767 -0.116416,-0.253294 -0.132291,-0.585611 0.0095,-0.989894 0.05327,-0.1524 0.113242,-0.288572 0.182034,-0.406047 0.500944,-0.884062 1.290461,-0.95885 1.859844,-0.626887 l 0.0018,0.0025 c 0.08961,0.05221 0.170745,0.113594 0.248356,0.184503 0.304447,0.424744 0.375355,1.022703 -0.02575,1.602669 -0.520347,0.758122 -1.64077,0.851252 -2.209447,0.355953" />
    <path
       id="path4652"
       style="fill:#af885a;fill-opacity:1;fill-rule:nonzero;stroke:none;stroke-width:0.0352778"
       d="m 64.466612,56.557834 c -0.173566,-0.271286 -0.222955,-0.644525 -0.05715,-1.112661 0.05327,-0.1524 0.111831,-0.291041 0.180622,-0.408516 0.58032,-1.022351 1.546226,-0.959203 2.109612,-0.439914 0.02328,0.02999 0.04551,0.06385 0.06103,0.09878 -0.569383,-0.331963 -1.3589,-0.257175 -1.859844,0.626887 -0.06879,0.117475 -0.128764,0.253647 -0.182034,0.406047 -0.141816,0.404283 -0.125941,0.7366 -0.0095,0.989894 -0.08714,-0.04374 -0.170391,-0.09701 -0.242711,-0.160514" />
    <path
       id="path4654"
       style="fill:#a97c4f;fill-opacity:1;fill-rule:nonzero;stroke:none;stroke-width:0.0352778"
       d="m 64.709323,56.718348 c -0.116416,-0.253294 -0.132291,-0.585611 0.0095,-0.989894 0.05327,-0.1524 0.113242,-0.288572 0.182034,-0.406047 0.500944,-0.884062 1.290461,-0.95885 1.859844,-0.626887 l 0.0018,0.0025 c 0.249767,0.415572 0.282928,0.9652 -0.08643,1.503892 -0.453673,0.659341 -1.364545,0.813152 -1.966737,0.516466" />
    <path
       id="path4656"
       style="fill:#69381f;fill-opacity:1;fill-rule:nonzero;stroke:none;stroke-width:0.0352778"
       d="m 77.78221,62.471804 c 0.733073,-0.15417 1.301047,-1.57233 1.191687,-2.45075 -0.0776,-0.64946 -0.29634,-0.95038 -0.564448,-1.01318 0.377468,-0.0797 0.705558,0.17851 0.807858,1.01247 0.11995,0.97402 -0.59266,2.60633 -1.435097,2.45146" />
    <path
       id="path4658"
       style="fill:#7a492a;fill-opacity:1;fill-rule:nonzero;stroke:none;stroke-width:0.0352778"
       d="m 78.409449,59.006814 0.02117,0.009 c 0.257528,0.0744 0.469188,0.37465 0.543278,1.00683 0.10936,0.87595 -0.458611,2.29412 -1.192036,2.44934 l -0.0702,-0.0166 c -0.170392,-0.0596 -0.309034,-0.14041 -0.420864,-0.23636 -0.983897,-0.85302 0.210608,-3.02013 1.118658,-3.21205" />
    <path
       id="path4660"
       style="fill:#936b46;fill-opacity:1;fill-rule:nonzero;stroke:none;stroke-width:0.0352778"
       d="m 78.16568,58.844544 c 0.09631,0.0222 0.190853,0.0783 0.264936,0.17109 l -0.02117,-0.009 c -0.90805,0.19192 -2.102555,2.35903 -1.118658,3.21205 -1.401939,-0.69709 -0.09666,-3.1676 0.874889,-3.37432" />
    <path
       id="path4662"
       style="fill:#8f633f;fill-opacity:1;fill-rule:nonzero;stroke:none;stroke-width:0.0352778"
       d="m 78.409449,59.006814 0.02117,0.009 c 0.141108,0.15699 0.250468,0.42757 0.299858,0.84455 0.10936,0.87913 -0.458961,2.29376 -1.192386,2.45287 l -0.07161,-0.0201 c -0.06315,-0.0194 -0.12065,-0.0452 -0.175683,-0.0741 -0.983897,-0.85302 0.210608,-3.02013 1.118658,-3.21205" />
    <path
       id="path4664"
       style="fill:#9b6439;fill-opacity:1;fill-rule:nonzero;stroke:none;stroke-width:0.0352778"
       d="m 57.264301,46.846567 c -3.957109,-2.057753 -12.168012,2.229203 -8.210551,6.189839 -3.112206,-2.076802 -1.616075,-5.293078 1.198034,-6.727119 2.265186,-1.154289 5.496278,-0.978959 7.012517,0.53728" />
    <path
       id="path4666"
       style="fill:#b78551;fill-opacity:1;fill-rule:nonzero;stroke:none;stroke-width:0.0352778"
       d="m 57.848853,47.967342 c 0.190853,0.978253 -0.304094,2.055989 -1.162402,2.919589 -0.05786,0.05786 -0.110773,0.112536 -0.175331,0.16757 -0.963083,0.885825 -2.271183,1.522942 -3.630789,1.963914 -1.025172,0.331258 -2.168878,0.561975 -3.12667,0.303741 -0.157691,-0.0381 -0.304447,-0.09243 -0.441677,-0.155222 -0.08961,-0.0388 -0.174273,-0.08325 -0.256823,-0.130175 -0.770819,-0.769761 -1.184628,-1.771297 -0.976136,-2.812344 0.19297,-1.006828 1.042458,-2.010128 2.206625,-2.560109 0.172509,-0.115711 0.361597,-0.224367 0.543631,-0.324908 1.450622,-0.778934 3.238147,-1.200503 4.833408,-0.992364 0.577145,0.08396 1.129595,0.253294 1.601259,0.49918 l 0.0046,0.0056 c 0.100894,0.113594 0.194733,0.233539 0.274814,0.358775 l 3.53e-4,0.0021 c 0.147108,0.233186 0.254,0.485069 0.305152,0.754591" />
    <path
       id="path4668"
       style="fill:#caa77a;fill-opacity:1;fill-rule:nonzero;stroke:none;stroke-width:0.0352778"
       d="m 58.442931,48.47887 c 0.191559,0.980722 -0.301272,2.055636 -1.162403,2.919942 -0.05821,0.05785 -0.110419,0.1143 -0.17533,0.167569 -0.962731,0.887942 -2.271184,1.522942 -3.631142,1.963914 -1.02482,0.331259 -2.168525,0.561975 -3.126317,0.303742 -0.252942,-0.06244 -0.485775,-0.1651 -0.698853,-0.28575 -0.121002,-0.122061 -0.234597,-0.250472 -0.336902,-0.381353 0.13723,0.0628 0.283986,0.117122 0.441677,0.155222 0.957792,0.258234 2.101498,0.02752 3.12667,-0.303741 1.359606,-0.440972 2.667706,-1.078089 3.630789,-1.963914 0.06456,-0.05503 0.117475,-0.109714 0.175331,-0.16757 0.858308,-0.8636 1.353255,-1.941336 1.162402,-2.919589 -0.05115,-0.269522 -0.158044,-0.521405 -0.305152,-0.754591 0.109008,0.04516 0.212725,0.09384 0.314325,0.145344 l 0.0042,0.0056 c 0.29457,0.327378 0.500945,0.699912 0.580672,1.115131" />
    <path
       id="path4670"
       style="fill:#c59a69;fill-opacity:1;fill-rule:nonzero;stroke:none;stroke-width:0.0352778"
       d="m 57.848853,47.967342 c 0.190853,0.978253 -0.304094,2.055989 -1.162402,2.919589 -0.05786,0.05786 -0.110773,0.112536 -0.175331,0.16757 -0.963083,0.885825 -2.271183,1.522942 -3.630789,1.963914 -1.025172,0.331258 -2.168878,0.561975 -3.12667,0.303741 -0.157691,-0.0381 -0.304447,-0.09243 -0.441677,-0.155222 -0.549981,-0.706261 -0.814564,-1.554339 -0.638881,-2.430639 0.192969,-1.006828 1.042458,-2.010128 2.206978,-2.557992 0.172155,-0.11818 0.361244,-0.226483 0.543983,-0.324908 1.449564,-0.78105 3.237089,-1.20262 4.833056,-0.992364 0.45332,0.06421 0.889706,0.183444 1.286228,0.349603 l 3.53e-4,0.0021 c 0.147108,0.233186 0.254,0.485069 0.305152,0.754591" />
    <path
       id="path4672"
       style="fill:#824a29;fill-opacity:1;fill-rule:nonzero;stroke:none;stroke-width:0.0352778"
       d="m 68.862224,51.731834 c 0.211314,0.125942 0.460022,0.200731 0.741186,0.219075 3.333044,0.704497 5.864931,-3.820936 4.416072,-5.560836 2.223912,1.3589 -0.439208,6.64845 -4.018844,5.888567 -0.47872,-0.02646 -0.85725,-0.23107 -1.138414,-0.546806" />
    <path
       id="path4674"
       style="fill:#986339;fill-opacity:1;fill-rule:nonzero;stroke:none;stroke-width:0.0352778"
       d="m 71.052621,46.336098 c 0.935919,-0.276931 1.678164,-0.329848 2.247195,-0.219075 0.185913,0.03563 0.352777,0.08325 0.499886,0.152047 0.07514,0.03034 0.146755,0.06879 0.210961,0.109008 l 0.0099,0.01058 c 1.448858,1.7399 -1.084792,6.266039 -4.416426,5.560483 -0.280811,-0.01693 -0.530225,-0.09031 -0.741891,-0.2159 -0.04516,-0.05256 -0.08784,-0.106539 -0.128059,-0.162278 -0.987425,-1.403702 -0.353483,-4.465108 2.318456,-5.234869" />
    <path
       id="path4676"
       style="fill:#af885a;fill-opacity:1;fill-rule:nonzero;stroke:none;stroke-width:0.0352778"
       d="m 70.735121,46.079275 c 0.936272,-0.274461 1.678517,-0.327377 2.246842,-0.219075 0.280458,0.05397 0.516466,0.141464 0.711553,0.263525 l 0.0078,0.01199 c 0.03493,0.04233 0.06809,0.08819 0.09843,0.13335 -0.147109,-0.06879 -0.313973,-0.116417 -0.499886,-0.152047 -0.569031,-0.110773 -1.311276,-0.05786 -2.247195,0.219075 -2.671939,0.769761 -3.305881,3.831167 -2.318456,5.234869 -0.06703,-0.02716 -0.129116,-0.05785 -0.189794,-0.0949 -1.163814,-1.310922 -0.589139,-4.591756 2.19075,-5.396795" />
    <path
       id="path4678"
       style="fill:#a97c4f;fill-opacity:1;fill-rule:nonzero;stroke:none;stroke-width:0.0352778"
       d="m 71.052621,46.336098 c 0.935919,-0.276931 1.678164,-0.329848 2.247195,-0.219075 0.185913,0.03563 0.352777,0.08325 0.499886,0.152047 1.225197,1.826331 -1.261886,6.112934 -4.512734,5.425722 -0.202494,-0.01094 -0.386997,-0.05327 -0.552803,-0.123825 -0.987425,-1.403702 -0.353483,-4.465108 2.318456,-5.234869" />
    <path
       id="path4680"
       style="fill:#69381f;fill-opacity:1;fill-rule:nonzero;stroke:none;stroke-width:0.0352778"
       d="m 52.00897,77.243664 c 0.07126,0.0124 0.142169,0.0222 0.221191,0.0303 6.078362,0.64312 9.309454,-1.87466 7.424915,-2.81905 3.365853,0.59796 -1.936398,5.64515 -7.646106,2.78871" />
    <path
       id="path4682"
       style="fill:#7a492a;fill-opacity:1;fill-rule:nonzero;stroke:none;stroke-width:0.0352778"
       d="m 54.004987,74.939674 c 2.383014,-0.53728 4.107039,-0.66252 5.252508,-0.54187 0.13582,0.0145 0.268111,0.0332 0.390878,0.0547 l 0.0056,0.002 c 1.887714,0.94474 -1.345847,3.46287 -7.42315,2.81905 -0.07867,-0.009 -0.152047,-0.0169 -0.221897,-0.0307 -0.156634,-0.0868 -0.267053,-0.18944 -0.334434,-0.30198 -0.395816,-0.64064 0.576439,-1.60655 2.330451,-2.00166" />
    <path
       id="path4684"
       style="fill:#936b46;fill-opacity:1;fill-rule:nonzero;stroke:none;stroke-width:0.0352778"
       d="m 53.213706,74.583724 c 2.67335,-0.60325 4.5212,-0.68721 5.643386,-0.48719 l 0.0056,0.002 c 0.177094,0.0871 0.307269,0.18803 0.394758,0.29915 -1.145469,-0.12065 -2.869494,0.005 -5.252508,0.54187 -1.754012,0.39511 -2.726267,1.36102 -2.330451,2.00166 -0.07832,-0.007 -0.156633,-0.0145 -0.23495,-0.0233 -0.07867,-0.009 -0.147813,-0.0194 -0.221897,-0.0307 -1.044928,-0.58703 -0.06315,-1.8408 1.996017,-2.30364" />
    <path
       id="path4686"
       style="fill:#8f633f;fill-opacity:1;fill-rule:nonzero;stroke:none;stroke-width:0.0352778"
       d="m 54.004987,74.939674 c 2.383014,-0.53728 4.107039,-0.66252 5.252508,-0.54187 0.856898,1.06716 -2.215797,3.04518 -7.582959,2.54353 -0.395816,-0.64064 0.576439,-1.60655 2.330451,-2.00166" />
    <path
       id="path4688"
       style="fill:#69381f;fill-opacity:1;fill-rule:nonzero;stroke:none;stroke-width:0.0352778"
       d="m 70.978185,72.305834 c 0.298097,0.18909 0.990953,0.0857 2.227086,-0.52634 1.362075,-0.67346 2.391128,-2.21651 2.076097,-2.84269 0.655462,0.46638 0.269523,2.70122 -1.230488,3.44417 -1.502128,0.74366 -2.909712,0.29528 -3.072695,-0.0751" />
    <path
       id="path4690"
       style="fill:#7a492a;fill-opacity:1;fill-rule:nonzero;stroke:none;stroke-width:0.0352778"
       d="m 73.995493,69.003834 0.07161,-0.0265 c 0.226484,-0.0755 0.42157,-0.11888 0.591609,-0.14146 0.28575,-0.0321 0.490714,0.007 0.623005,0.10125 0.315031,0.62477 -0.514703,2.36714 -1.876072,3.03988 -1.237545,0.61419 -2.130778,0.51788 -2.426406,0.32879 -0.02505,-0.0526 -0.03704,-0.11289 -0.03845,-0.18133 -0.0314,-0.81209 1.471437,-2.56504 3.054703,-3.12067" />
    <path
       id="path4692"
       style="fill:#936b46;fill-opacity:1;fill-rule:nonzero;stroke:none;stroke-width:0.0352778"
       d="m 74.658716,68.835914 c -0.170039,0.0226 -0.365125,0.066 -0.591609,0.14146 l -0.07161,0.0265 c -1.583266,0.55563 -3.0861,2.30858 -3.054703,3.12067 -0.42933,0.0215 -0.140052,-0.95779 0.629709,-1.82245 0.860778,-0.9659 2.278592,-1.81363 3.088217,-1.46614" />
    <path
       id="path4694"
       style="fill:#8f633f;fill-opacity:1;fill-rule:nonzero;stroke:none;stroke-width:0.0352778"
       d="m 73.995493,69.003834 0.07161,-0.0265 c 0.226484,-0.0755 0.42157,-0.11888 0.591609,-0.14146 0.878064,0.50835 -0.171098,1.8034 -1.422753,2.7111 -0.788106,0.5715 -1.873603,0.82162 -2.295173,0.57749 -0.0314,-0.81209 1.471437,-2.56504 3.054703,-3.12067" />
    <path
       id="path4696"
       style="fill:#b0895b;fill-opacity:1;fill-rule:nonzero;stroke:none;stroke-width:0.0352778"
       d="m 41.023469,61.738024 c 1.319036,-0.43709 1.618545,0.99307 0.66922,1.38606 -1.372306,0.56798 -1.295048,-1.17863 -0.66922,-1.38606" />
    <path
       id="path4698"
       style="fill:#b0895b;fill-opacity:1;fill-rule:nonzero;stroke:none;stroke-width:0.0352778"
       d="m 40.668575,57.144504 c 2.217561,-0.735189 2.720975,1.66899 1.125361,2.32939 -2.307167,0.95497 -2.177345,-1.98085 -1.125361,-2.32939" />
    <path
       id="path4700"
       style="fill:#b0895b;fill-opacity:1;fill-rule:nonzero;stroke:none;stroke-width:0.0352778"
       d="m 38.948077,64.324234 c 1.056217,-0.3503 1.296106,0.79481 0.53587,1.10949 -1.09855,0.45473 -1.036814,-0.94368 -0.53587,-1.10949" />
    <path
       id="path4702"
       style="fill:#b0895b;fill-opacity:1;fill-rule:nonzero;stroke:none;stroke-width:0.0352778"
       d="m 43.667891,60.220374 c 0.735189,-0.24342 0.902406,0.55351 0.373239,0.77258 -0.765175,0.3168 -0.722136,-0.65687 -0.373239,-0.77258" />
    <path
       id="path4704"
       style="fill:#cba87b;fill-opacity:1;fill-rule:nonzero;stroke:none;stroke-width:0.0352778"
       d="m 56.113539,41.856878 c 0.482953,-0.258939 0.707673,0.321733 0.366184,0.540808 -0.494242,0.316795 -0.595136,-0.418041 -0.366184,-0.540808" />
    <path
       id="path4706"
       style="fill:#cba87b;fill-opacity:1;fill-rule:nonzero;stroke:none;stroke-width:0.0352778"
       d="m 55.648578,39.533131 c 1.499659,-0.497417 1.840089,1.128889 0.760942,1.575505 -1.559983,0.645584 -1.472494,-1.339144 -0.760942,-1.575505" />
    <path
       id="path4708"
       style="fill:#cba87b;fill-opacity:1;fill-rule:nonzero;stroke:none;stroke-width:0.0352778"
       d="m 57.973384,41.008447 c 1.150761,-0.381705 1.41217,0.86607 0.5842,1.208617 -1.196975,0.495653 -1.129947,-1.027642 -0.5842,-1.208617" />
    <path
       id="path4710"
       style="fill:#cba87b;fill-opacity:1;fill-rule:nonzero;stroke:none;stroke-width:0.0352778"
       d="m 52.322942,40.542075 c 2.028472,-0.673806 2.4892,1.526822 1.029406,2.131131 -2.11067,0.87383 -1.992137,-1.813631 -1.029406,-2.131131" />
    <path
       id="path4712"
       style="fill:#dcbe93;fill-opacity:1;fill-rule:nonzero;stroke:none;stroke-width:0.0352778"
       d="m 44.045717,35.75488 c -0.992717,1.675695 -2.397478,0.649111 -1.743781,-0.627944 0.945092,-1.845028 2.214386,-0.165806 1.743781,0.627944" />
    <path
       id="path4714"
       style="fill:#dcbe93;fill-opacity:1;fill-rule:nonzero;stroke:none;stroke-width:0.0352778"
       d="m 40.426922,35.08813 c 0.462139,-0.836083 1.163461,-0.352778 0.861483,0.282223 -0.436739,0.917222 -1.080911,0.112888 -0.861483,-0.282223" />
    <path
       id="path4716"
       style="fill:#dcbe93;fill-opacity:1;fill-rule:nonzero;stroke:none;stroke-width:0.0352778"
       d="m 41.362489,36.668575 c 0.504119,-0.271639 0.738363,0.335139 0.381705,0.564444 -0.515408,0.331611 -0.620889,-0.437444 -0.381705,-0.564444" />
    <path
       id="path4718"
       style="fill:#dcbe93;fill-opacity:1;fill-rule:nonzero;stroke:none;stroke-width:0.0352778"
       d="m 39.54145,35.955964 c 0.813505,-0.4445 1.216025,0.596194 0.641702,0.973666 -0.830439,0.546806 -1.027641,-0.762 -0.641702,-0.973666" />
    <path
       id="path4720"
       style="fill:#dcbe93;fill-opacity:1;fill-rule:nonzero;stroke:none;stroke-width:0.0352778"
       d="m 41.147294,33.550019 c 0.439561,-0.236361 0.64382,0.292806 0.333022,0.490361 -0.449791,0.289278 -0.541866,-0.381 -0.333022,-0.490361" />
    <path
       id="path4722"
       style="fill:#dcbe93;fill-opacity:1;fill-rule:nonzero;stroke:none;stroke-width:0.0352778"
       d="m 38.374461,36.710908 c 0.555272,-0.186972 0.681214,0.416278 0.281869,0.582084 -0.577497,0.239888 -0.545042,-0.497417 -0.281869,-0.582084" />
    <path
       id="path4724"
       style="fill:#e4c9a3;fill-opacity:1;fill-rule:nonzero;stroke:none;stroke-width:0.0352778"
       d="m 61.217176,26.48388 c -2.211917,-0.359834 -1.572684,-2.628195 0.07726,-2.480028 2.385131,0.211667 0.971903,2.649361 -0.07726,2.480028" />
    <path
       id="path4726"
       style="fill:#e4c9a3;fill-opacity:1;fill-rule:nonzero;stroke:none;stroke-width:0.0352778"
       d="m 58.880729,26.335713 c 1.205089,-0.398639 1.478491,0.906639 0.611363,1.266472 -1.253419,0.518584 -1.183216,-1.0795 -0.611363,-1.266472" />
    <path
       id="path4728"
       style="fill:#e4c9a3;fill-opacity:1;fill-rule:nonzero;stroke:none;stroke-width:0.0352778"
       d="m 62.830782,21.844852 c 0.694266,-0.229306 0.851605,0.522111 0.352425,0.726722 -0.722137,0.299861 -0.681567,-0.617361 -0.352425,-0.726722" />
    <path
       id="path4730"
       style="fill:#e4c9a3;fill-opacity:1;fill-rule:nonzero;stroke:none;stroke-width:0.0352778"
       d="m 57.477378,27.330546 c 0.640998,-0.211666 0.786695,0.479778 0.325262,0.673806 -0.66675,0.275167 -0.629356,-0.575028 -0.325262,-0.673806" />
    <path
       id="path4732"
       style="fill:#e4c9a3;fill-opacity:1;fill-rule:nonzero;stroke:none;stroke-width:0.0352778"
       d="m 60.764209,27.073019 c 0.692856,-0.229306 0.850195,0.522111 0.35172,0.73025 -0.720725,0.296333 -0.680156,-0.620889 -0.35172,-0.73025" />
    <path
       id="path4734"
       style="fill:#e4c9a3;fill-opacity:1;fill-rule:nonzero;stroke:none;stroke-width:0.0352778"
       d="m 61.213295,21.054629 c 0.476603,-0.155222 0.584906,0.359834 0.241653,0.500945 -0.495653,0.208139 -0.467783,-0.423333 -0.241653,-0.500945" />
    <path
       id="path4736"
       style="fill:#e4c9a3;fill-opacity:1;fill-rule:nonzero;stroke:none;stroke-width:0.0352778"
       d="m 61.362873,22.670352 c 0.585259,-0.194028 0.718256,0.440972 0.297039,0.613833 -0.609247,0.254 -0.575028,-0.522111 -0.297039,-0.613833" />
  </g>
</svg>
