<?xml version="1.0" encoding="UTF-8" standalone="no"?>
<!-- Created with Inkscape (http://www.inkscape.org/) -->

<svg
   inkscape:version="1.2.1 (9c6d41e410, 2022-07-14)"
   sodipodi:docname="asteroid1.svg"
   id="svg3716"
   version="1.1"
   viewBox="0 0 100 100"
   height="100"
   width="100"
   xmlns:inkscape="http://www.inkscape.org/namespaces/inkscape"
   xmlns:sodipodi="http://sodipodi.sourceforge.net/DTD/sodipodi-0.dtd"
   xmlns="http://www.w3.org/2000/svg"
   xmlns:svg="http://www.w3.org/2000/svg">
  <sodipodi:namedview
     id="namedview3718"
     pagecolor="#505050"
     bordercolor="#ffffff"
     borderopacity="1"
     inkscape:showpageshadow="0"
     inkscape:pageopacity="0"
     inkscape:pagecheckerboard="1"
     inkscape:deskcolor="#505050"
     inkscape:document-units="px"
     showgrid="true"
     inkscape:zoom="5.6568542"
     inkscape:cx="18.119611"
     inkscape:cy="61.695067"
     inkscape:window-width="1920"
     inkscape:window-height="1017"
     inkscape:window-x="-8"
     inkscape:window-y="1072"
     inkscape:window-maximized="1"
     inkscape:current-layer="layer1" />
  <defs
     id="defs3713">
    <clipPath
       id="clipPath316"
       clipPathUnits="userSpaceOnUse">
      <path
         id="path314"
         d="m 920.543,10678.9 c -0.688,0 -1.375,0.5 -1.477,1.4 -9.953,88.9 -13.257,92.4 -79.046,106.5 -1.559,0.4 -1.559,2.6 0,2.9 65.789,14.1 69.093,17.6 79.046,106.5 0.102,0.9 0.789,1.4 1.477,1.4 0.687,0 1.375,-0.5 1.473,-1.4 9.922,-88.9 13.234,-92.4 79.014,-106.5 1.57,-0.3 1.57,-2.5 0,-2.9 -65.78,-14.1 -69.092,-17.6 -79.014,-106.5 -0.098,-0.9 -0.786,-1.4 -1.473,-1.4" />
    </clipPath>
    <radialGradient
       id="radialGradient324"
       spreadMethod="pad"
       gradientTransform="matrix(7356.97,0,0,-4948.95,8500,6000)"
       gradientUnits="userSpaceOnUse"
       r="1"
       cy="0"
       cx="0"
       fy="0"
       fx="0">
      <stop
         id="stop318"
         offset="0"
         style="stop-opacity:1;stop-color:#e1eb7c" />
      <stop
         id="stop320"
         offset="0.00000013"
         style="stop-opacity:1;stop-color:#e1eb7c" />
      <stop
         id="stop322"
         offset="1"
         style="stop-opacity:1;stop-color:#e1eb78" />
    </radialGradient>
    <clipPath
       id="clipPath824"
       clipPathUnits="userSpaceOnUse">
      <path
         id="path822"
         d="m 2291.85,10216.4 c -4.48,0.9 -8.86,1.7 -13.35,2.4 h -0.08 c -1.29,1.7 -2.05,3.8 -2.05,6.1 0,5.5 4.52,10.1 10.07,10.1 5.55,0 10.07,-4.6 10.07,-10.1 0,-3.6 -1.86,-6.7 -4.66,-8.5" />
    </clipPath>
    <radialGradient
       id="radialGradient832"
       spreadMethod="pad"
       gradientTransform="matrix(7356.97,0,0,-4948.95,8500,6000)"
       gradientUnits="userSpaceOnUse"
       r="1"
       cy="0"
       cx="0"
       fy="0"
       fx="0">
      <stop
         id="stop826"
         offset="0"
         style="stop-opacity:1;stop-color:#2e6dae" />
      <stop
         id="stop828"
         offset="0.00000013"
         style="stop-opacity:1;stop-color:#2e6dae" />
      <stop
         id="stop830"
         offset="1"
         style="stop-opacity:1;stop-color:#265b91" />
    </radialGradient>
    <clipPath
       id="clipPath842"
       clipPathUnits="userSpaceOnUse">
      <path
         id="path840"
         d="m 2286.44,10214.8 c -3.27,0 -6.17,1.6 -8.02,4 h 0.08 c 4.49,-0.7 8.87,-1.5 13.35,-2.4 -1.56,-1 -3.42,-1.6 -5.41,-1.6" />
    </clipPath>
    <radialGradient
       id="radialGradient850"
       spreadMethod="pad"
       gradientTransform="matrix(7356.97,0,0,-4948.95,8500,6000)"
       gradientUnits="userSpaceOnUse"
       r="1"
       cy="0"
       cx="0"
       fy="0"
       fx="0">
      <stop
         id="stop844"
         offset="0"
         style="stop-opacity:1;stop-color:#3175b3" />
      <stop
         id="stop846"
         offset="0.00000013"
         style="stop-opacity:1;stop-color:#3175b3" />
      <stop
         id="stop848"
         offset="1"
         style="stop-opacity:1;stop-color:#2a6496" />
    </radialGradient>
    <clipPath
       id="clipPath860"
       clipPathUnits="userSpaceOnUse">
      <path
         id="path858"
         d="m 2145.13,9492.27 c -5.54,0 -10.06,4.52 -10.06,10.07 0,5.56 4.52,10.08 10.06,10.08 5.56,0 10.08,-4.52 10.08,-10.08 0,-5.55 -4.52,-10.07 -10.08,-10.07" />
    </clipPath>
    <radialGradient
       id="radialGradient868"
       spreadMethod="pad"
       gradientTransform="matrix(7356.97,0,0,-4948.95,8500,6000)"
       gradientUnits="userSpaceOnUse"
       r="1"
       cy="0"
       cx="0"
       fy="0"
       fx="0">
      <stop
         id="stop862"
         offset="0"
         style="stop-opacity:1;stop-color:#357cb6" />
      <stop
         id="stop864"
         offset="0.00000013"
         style="stop-opacity:1;stop-color:#357cb6" />
      <stop
         id="stop866"
         offset="1"
         style="stop-opacity:1;stop-color:#2c6d9d" />
    </radialGradient>
    <clipPath
       id="clipPath986"
       clipPathUnits="userSpaceOnUse">
      <path
         id="path984"
         d="m 1275.2,10826.7 c -6.06,0 -10.98,4.9 -10.98,11 0,6 4.92,10.9 10.98,10.9 6.05,0 10.97,-4.9 10.97,-10.9 0,-6.1 -4.92,-11 -10.97,-11" />
    </clipPath>
    <radialGradient
       id="radialGradient994"
       spreadMethod="pad"
       gradientTransform="matrix(7356.97,0,0,-4948.95,8500,6000)"
       gradientUnits="userSpaceOnUse"
       r="1"
       cy="0"
       cx="0"
       fy="0"
       fx="0">
      <stop
         id="stop988"
         offset="0"
         style="stop-opacity:1;stop-color:#2e6dae" />
      <stop
         id="stop990"
         offset="0.00000013"
         style="stop-opacity:1;stop-color:#2e6dae" />
      <stop
         id="stop992"
         offset="1"
         style="stop-opacity:1;stop-color:#265b91" />
    </radialGradient>
    <clipPath
       id="clipPath1004"
       clipPathUnits="userSpaceOnUse">
      <path
         id="path1002"
         d="m 2030.53,10724.3 c -15.17,0 -27.5,12.4 -27.5,27.5 0,15.2 12.33,27.5 27.5,27.5 15.16,0 27.5,-12.3 27.5,-27.5 0,-15.1 -12.34,-27.5 -27.5,-27.5" />
    </clipPath>
    <radialGradient
       id="radialGradient1012"
       spreadMethod="pad"
       gradientTransform="matrix(7356.97,0,0,-4948.95,8500,6000)"
       gradientUnits="userSpaceOnUse"
       r="1"
       cy="0"
       cx="0"
       fy="0"
       fx="0">
      <stop
         id="stop1006"
         offset="0"
         style="stop-opacity:1;stop-color:#2e6dae" />
      <stop
         id="stop1008"
         offset="0.00000013"
         style="stop-opacity:1;stop-color:#2e6dae" />
      <stop
         id="stop1010"
         offset="1"
         style="stop-opacity:1;stop-color:#265b91" />
    </radialGradient>
    <clipPath
       id="clipPath1022"
       clipPathUnits="userSpaceOnUse">
      <path
         id="path1020"
         d="m 2596.44,8364.17 c -15.17,0 -27.5,12.33 -27.5,27.5 0,15.16 12.33,27.49 27.5,27.49 15.16,0 27.49,-12.33 27.49,-27.49 0,-15.17 -12.33,-27.5 -27.49,-27.5" />
    </clipPath>
    <radialGradient
       id="radialGradient1030"
       spreadMethod="pad"
       gradientTransform="matrix(7356.97,0,0,-4948.95,8500,6000)"
       gradientUnits="userSpaceOnUse"
       r="1"
       cy="0"
       cx="0"
       fy="0"
       fx="0">
      <stop
         id="stop1024"
         offset="0"
         style="stop-opacity:1;stop-color:#3175b3" />
      <stop
         id="stop1026"
         offset="0.00000013"
         style="stop-opacity:1;stop-color:#3175b3" />
      <stop
         id="stop1028"
         offset="1"
         style="stop-opacity:1;stop-color:#2a6496" />
    </radialGradient>
    <clipPath
       id="clipPath1130"
       clipPathUnits="userSpaceOnUse">
      <path
         id="path1128"
         d="m 3622.72,9721.63 c -19.31,0 -35.04,15.72 -35.04,35.03 0,19.32 15.73,35.04 35.04,35.04 19.32,0 35.04,-15.72 35.04,-35.04 0,-19.31 -15.72,-35.03 -35.04,-35.03" />
    </clipPath>
    <radialGradient
       id="radialGradient1138"
       spreadMethod="pad"
       gradientTransform="matrix(7356.97,0,0,-4948.95,8500,6000)"
       gradientUnits="userSpaceOnUse"
       r="1"
       cy="0"
       cx="0"
       fy="0"
       fx="0">
      <stop
         id="stop1132"
         offset="0"
         style="stop-opacity:1;stop-color:#2e6dae" />
      <stop
         id="stop1134"
         offset="0.00000013"
         style="stop-opacity:1;stop-color:#2e6dae" />
      <stop
         id="stop1136"
         offset="1"
         style="stop-opacity:1;stop-color:#265b91" />
    </radialGradient>
    <clipPath
       id="clipPath1906"
       clipPathUnits="userSpaceOnUse">
      <path
         id="path1904"
         d="m 933.496,8945.47 c -2.519,0 -4.57,2.05 -4.57,4.57 0,2.52 2.051,4.57 4.57,4.57 2.52,0 4.57,-2.05 4.57,-4.57 0,-2.52 -2.05,-4.57 -4.57,-4.57" />
    </clipPath>
    <radialGradient
       id="radialGradient1914"
       spreadMethod="pad"
       gradientTransform="matrix(7356.97,0,0,-4948.95,8500,6000)"
       gradientUnits="userSpaceOnUse"
       r="1"
       cy="0"
       cx="0"
       fy="0"
       fx="0">
      <stop
         id="stop1908"
         offset="0"
         style="stop-opacity:1;stop-color:#3175b3" />
      <stop
         id="stop1910"
         offset="0.00000013"
         style="stop-opacity:1;stop-color:#3175b3" />
      <stop
         id="stop1912"
         offset="1"
         style="stop-opacity:1;stop-color:#2a6496" />
    </radialGradient>
    <clipPath
       id="clipPath1924"
       clipPathUnits="userSpaceOnUse">
      <path
         id="path1922"
         d="m 3141.41,9918.75 c -14.81,0 -26.86,12.05 -26.86,26.85 0,14.81 12.05,26.86 26.86,26.86 14.8,0 26.84,-12.05 26.84,-26.86 0,-14.8 -12.04,-26.85 -26.84,-26.85" />
    </clipPath>
    <radialGradient
       id="radialGradient1932"
       spreadMethod="pad"
       gradientTransform="matrix(7356.97,0,0,-4948.95,8500,6000)"
       gradientUnits="userSpaceOnUse"
       r="1"
       cy="0"
       cx="0"
       fy="0"
       fx="0">
      <stop
         id="stop1926"
         offset="0"
         style="stop-opacity:1;stop-color:#2e6dae" />
      <stop
         id="stop1928"
         offset="0.00000013"
         style="stop-opacity:1;stop-color:#2e6dae" />
      <stop
         id="stop1930"
         offset="1"
         style="stop-opacity:1;stop-color:#265b91" />
    </radialGradient>
    <clipPath
       id="clipPath2302"
       clipPathUnits="userSpaceOnUse">
      <path
         id="path2300"
         d="m 3240.77,10953.2 c -7.04,0 -12.77,5.7 -12.77,12.8 0,7 5.73,12.7 12.77,12.7 7.03,0 12.76,-5.7 12.76,-12.7 0,-7.1 -5.73,-12.8 -12.76,-12.8" />
    </clipPath>
    <radialGradient
       id="radialGradient2310"
       spreadMethod="pad"
       gradientTransform="matrix(7356.97,0,0,-4948.95,8500,6000)"
       gradientUnits="userSpaceOnUse"
       r="1"
       cy="0"
       cx="0"
       fy="0"
       fx="0">
      <stop
         id="stop2304"
         offset="0"
         style="stop-opacity:1;stop-color:#2e6dae" />
      <stop
         id="stop2306"
         offset="0.00000013"
         style="stop-opacity:1;stop-color:#2e6dae" />
      <stop
         id="stop2308"
         offset="1"
         style="stop-opacity:1;stop-color:#265b91" />
    </radialGradient>
    <clipPath
       id="clipPath3390"
       clipPathUnits="userSpaceOnUse">
      <path
         id="path3388"
         d="m 3965.01,9169.75 c -18.64,0 -33.8,15.16 -33.8,33.79 0,18.64 15.16,33.8 33.8,33.8 18.63,0 33.79,-15.16 33.79,-33.8 0,-18.63 -15.16,-33.79 -33.79,-33.79" />
    </clipPath>
    <radialGradient
       id="radialGradient3398"
       spreadMethod="pad"
       gradientTransform="matrix(7356.97,0,0,-4948.95,8500,6000)"
       gradientUnits="userSpaceOnUse"
       r="1"
       cy="0"
       cx="0"
       fy="0"
       fx="0">
      <stop
         id="stop3392"
         offset="0"
         style="stop-opacity:1;stop-color:#2e6dae" />
      <stop
         id="stop3394"
         offset="0.00000013"
         style="stop-opacity:1;stop-color:#2e6dae" />
      <stop
         id="stop3396"
         offset="1"
         style="stop-opacity:1;stop-color:#265b91" />
    </radialGradient>
    <clipPath
       id="clipPath3426"
       clipPathUnits="userSpaceOnUse">
      <path
         id="path3424"
         d="m 1921.7,9902.9 h -0.05 c 0.21,6.95 5.94,12.55 12.93,12.55 5.96,0 10.99,-4.05 12.49,-9.54 -0.02,-0.01 -0.05,-0.01 -0.07,-0.01 -8.5,-0.8 -16.9,-1.8 -25.3,-3" />
    </clipPath>
    <radialGradient
       id="radialGradient3434"
       spreadMethod="pad"
       gradientTransform="matrix(7356.97,0,0,-4948.95,8500,6000)"
       gradientUnits="userSpaceOnUse"
       r="1"
       cy="0"
       cx="0"
       fy="0"
       fx="0">
      <stop
         id="stop3428"
         offset="0"
         style="stop-opacity:1;stop-color:#3175b3" />
      <stop
         id="stop3430"
         offset="0.00000013"
         style="stop-opacity:1;stop-color:#3175b3" />
      <stop
         id="stop3432"
         offset="1"
         style="stop-opacity:1;stop-color:#2a6496" />
    </radialGradient>
    <clipPath
       id="clipPath3444"
       clipPathUnits="userSpaceOnUse">
      <path
         id="path3442"
         d="m 1934.58,9889.55 c -7.13,0 -12.94,5.81 -12.94,12.95 0,0.13 0.01,0.27 0.01,0.4 h 0.05 c 8.4,1.2 16.8,2.2 25.3,3 0.02,0 0.05,0 0.07,0.01 0.3,-1.09 0.46,-2.23 0.46,-3.41 0,-7.14 -5.81,-12.95 -12.95,-12.95" />
    </clipPath>
    <radialGradient
       id="radialGradient3452"
       spreadMethod="pad"
       gradientTransform="matrix(7356.97,0,0,-4948.95,8500,6000)"
       gradientUnits="userSpaceOnUse"
       r="1"
       cy="0"
       cx="0"
       fy="0"
       fx="0">
      <stop
         id="stop3446"
         offset="0"
         style="stop-opacity:1;stop-color:#357cb6" />
      <stop
         id="stop3448"
         offset="0.00000013"
         style="stop-opacity:1;stop-color:#357cb6" />
      <stop
         id="stop3450"
         offset="1"
         style="stop-opacity:1;stop-color:#2c6d9d" />
    </radialGradient>
    <clipPath
       id="clipPath3462"
       clipPathUnits="userSpaceOnUse">
      <path
         id="path3460"
         d="m 2530.63,9821.31 c -7.13,0 -12.94,5.81 -12.94,12.94 0,7.14 5.81,12.95 12.94,12.95 7.13,0 12.94,-5.81 12.94,-12.95 0,-7.13 -5.81,-12.94 -12.94,-12.94" />
    </clipPath>
    <radialGradient
       id="radialGradient3470"
       spreadMethod="pad"
       gradientTransform="matrix(7356.97,0,0,-4948.95,8500,6000)"
       gradientUnits="userSpaceOnUse"
       r="1"
       cy="0"
       cx="0"
       fy="0"
       fx="0">
      <stop
         id="stop3464"
         offset="0"
         style="stop-opacity:1;stop-color:#3175b3" />
      <stop
         id="stop3466"
         offset="0.00000013"
         style="stop-opacity:1;stop-color:#3175b3" />
      <stop
         id="stop3468"
         offset="1"
         style="stop-opacity:1;stop-color:#2a6496" />
    </radialGradient>
    <clipPath
       id="clipPath3480"
       clipPathUnits="userSpaceOnUse">
      <path
         id="path3478"
         d="m 963.996,9705.76 c -10.262,0 -18.605,8.35 -18.605,18.61 0,10.27 8.343,18.62 18.605,18.62 10.27,0 18.613,-8.35 18.613,-18.62 0,-10.26 -8.343,-18.61 -18.613,-18.61" />
    </clipPath>
    <radialGradient
       id="radialGradient3488"
       spreadMethod="pad"
       gradientTransform="matrix(7356.97,0,0,-4948.95,8500,6000)"
       gradientUnits="userSpaceOnUse"
       r="1"
       cy="0"
       cx="0"
       fy="0"
       fx="0">
      <stop
         id="stop3482"
         offset="0"
         style="stop-opacity:1;stop-color:#2e6dae" />
      <stop
         id="stop3484"
         offset="0.00000013"
         style="stop-opacity:1;stop-color:#2e6dae" />
      <stop
         id="stop3486"
         offset="1"
         style="stop-opacity:1;stop-color:#265b91" />
    </radialGradient>
  </defs>
  <g
     inkscape:label="Warstwa 1"
     inkscape:groupmode="layer"
     id="layer1"
     style="display:inline"
     transform="translate(-12.559563,-10.045651)">
    <g
       id="g854"
       transform="matrix(0.03527778,0,0,-0.03527778,19.446776,471.21016)">
      <g
         clip-path="url(#clipPath860)"
         id="g856" />
    </g>
    <g
       id="g998"
       transform="matrix(0.03527778,0,0,-0.03527778,19.446776,471.21016)">
      <g
         clip-path="url(#clipPath1004)"
         id="g1000" />
    </g>
    <g
       id="g1124"
       transform="matrix(0.03527778,0,0,-0.03527778,19.446776,471.21016)">
      <g
         clip-path="url(#clipPath1130)"
         id="g1126" />
    </g>
    <g
       id="g3438"
       transform="matrix(0.03527778,0,0,-0.03527778,19.446776,471.21016)">
      <g
         clip-path="url(#clipPath3444)"
         id="g3440" />
    </g>
    <g
       id="g3456"
       transform="matrix(0.03527778,0,0,-0.03527778,19.446776,471.21016)">
      <g
         clip-path="url(#clipPath3462)"
         id="g3458" />
    </g>
    <path
       id="path4222"
       style="fill:#7e5130;fill-opacity:1;fill-rule:nonzero;stroke:none;stroke-width:0.0352778"
       d="m 108.26004,55.48366 c -5.56331,16.73648 -1.87678,11.61556 -2.31916,22.06696 -0.38982,9.17998 -7.95197,16.57914 -16.14559,20.65831 -24.82497,12.36028 -23.78921,6.93103 -38.44501,1.7399 -4.748393,-1.67887 -7.780519,-1.26259 -11.577466,-2.4645 3.700992,-1.46932 7.536039,-2.26942 11.385546,-1.44604 12.24669,2.60703 11.67624,-5.21123 18.89231,-4.2799 4.37304,0.56162 6.7998,4.76603 11.32417,0.74189 5.87164,-5.22287 -3.39831,-6.17149 4.63797,-14.44625 3.29353,-3.38702 -6.40715,-11.05958 5.6709,-17.37078 10.48632,-5.48181 3.23568,-8.51076 5.092,-17.40711 1.7078,-8.1527 -10.56781,-4.0252 -9.08403,-16.834559 0.067,-0.550334 0.0871,-1.065389 0.067,-1.55575 14.06243,8.015111 24.10919,19.744969 20.50133,30.597829"
       sodipodi:nodetypes="cccccccccccccc" />
    <path
       id="path4224"
       style="fill:#9e6f43;fill-opacity:1;fill-rule:nonzero;stroke:none;stroke-width:0.0352778"
       d="m 91.68371,60.68325 c -12.07805,6.3112 -2.37737,13.98376 -5.6709,17.37078 -8.03628,8.27476 1.23367,9.22338 -4.63797,14.44625 -4.52437,4.02414 -6.95113,-0.18027 -11.32417,-0.74189 -7.21607,-0.93133 -6.64562,6.88693 -18.89231,4.2799 -3.849507,-0.82338 -7.684554,-0.0233 -11.385546,1.44604 -3.459692,-1.09397 -7.553326,-3.53519 -14.164382,-10.15154 13.864874,1.26577 13.690249,-8.0772 20.070941,-10.67541 5.193597,-2.11243 15.616057,3.55248 20.038837,-5.39185 3.04341,-6.16232 -1.13206,-7.66974 12.14755,-14.03033 14.37675,-6.88234 4.36739,-14.68931 2.8254,-19.51884 -2.28988,-7.16139 2.83104,-3.85233 -1.39665,-11.874502 -0.98637,-1.869722 -0.7246,-3.598333 -0.45685,-5.312833 3.08434,1.277055 6.08401,2.741083 8.92105,4.356806 0.0201,0.490361 0,1.005416 -0.067,1.55575 -1.48378,12.809359 10.79183,8.681859 9.08403,16.834559 -1.85632,8.89635 5.39432,11.9253 -5.092,17.40711"
       sodipodi:nodetypes="ccccccccccccccccc" />
    <path
       id="path4226"
       style="fill:#bf9460;fill-opacity:1;fill-rule:nonzero;stroke:none;stroke-width:0.0352778"
       d="m 77.86576,57.2352 c -13.27961,6.36059 -9.10414,7.86801 -12.14755,14.03033 -4.42278,8.94433 -14.84524,3.27942 -20.038837,5.39185 -6.380692,2.59821 -6.206067,11.94118 -20.070941,10.67541 -0.261761,-0.25894 -0.526697,-0.52669 -0.796925,-0.80292 -6.750403,-6.88446 -8.542867,-9.8231 -8.740775,-22.96901 -0.113595,-7.55615 0.648758,-12.31194 1.856317,-15.47283 1.265766,0.61383 2.377369,1.70391 3.186289,3.35703 2.35973,4.81542 -0.48895,8.40881 -0.378531,10.81828 0.200731,4.46053 11.493148,10.4193 16.122651,0.0377 3.564114,-7.99289 11.286422,-5.38868 15.682742,-5.56895 9.2149,-0.38135 15.01104,-9.66011 14.35029,-13.38192 -0.5468,-3.12208 -5.48746,-1.62983 -7.28839,-1.97556 -9.27312,-1.78505 8.21972,-8.840607 10.19528,-13.324413 2.84586,-6.459361 -0.43639,-10.011834 -5.93266,-12.022667 4.99286,0.927806 10.08768,2.4765 14.97294,4.501445 -0.26775,1.7145 -0.52952,3.443111 0.45685,5.312833 4.22769,8.022172 -0.89323,4.713112 1.39665,11.874502 1.54199,4.82953 11.55135,12.6365 -2.8254,19.51884"
       sodipodi:nodetypes="ccccccccccccccccccc" />
    <path
       id="path4228"
       style="fill:#d3ae7e;fill-opacity:1;fill-rule:nonzero;stroke:none;stroke-width:0.0352778"
       d="M 69.79738,28.050247 C 67.82182,32.534053 50.32898,39.58961 59.6021,41.37466 c 1.80093,0.34573 6.74159,-1.14652 7.28839,1.97556 0.66075,3.72181 -5.13539,13.00057 -14.35029,13.38192 -4.39632,0.18027 -12.118628,-2.42394 -15.682742,5.56895 -4.629503,10.38155 -15.92192,4.42278 -16.122651,-0.0377 -0.110419,-2.40947 2.738261,-6.00286 0.378531,-10.81828 -0.80892,-1.65312 -1.920523,-2.7432 -3.186289,-3.35703 3.2385,-8.49137 9.683397,-5.42573 10.908242,-14.23106 2.356908,-16.968612 18.107026,-20.972641 35.029429,-17.82939 5.49627,2.010833 8.77852,5.563306 5.93266,12.022667"
       sodipodi:nodetypes="ccccccccccc" />
    <path
       id="path4230"
       style="fill:#dbba8e;fill-opacity:1;fill-rule:nonzero;stroke:none;stroke-width:0.0352778"
       d="M 60.37645,21.037025 C 54.1404,14.605884 43.933123,19.079108 43.0794,25.485553 c -0.983897,8.046857 -8.536517,6.290028 -7.745942,10.505727 0.547864,2.921 6.094589,0.7373 3.716161,10.61861 -1.314097,5.45712 6.682318,2.73403 8.596491,-2.39889 2.546,-6.82978 21.71806,-13.899447 12.73034,-23.173975"
       sodipodi:nodetypes="cccccc" />
    <path
       id="path4232"
       style="fill:#9b6439;fill-opacity:1;fill-rule:nonzero;stroke:none;stroke-width:0.0352778"
       d="m 77.5726,33.37719 c -0.21978,-0.3563 -0.52528,-0.659692 -0.91404,-0.903109 -4.28943,-3.623028 -10.78583,1.502829 -9.83862,5.309309 -2.29341,-3.80295 4.87856,-10.015365 9.48372,-6.120698 0.66393,0.405695 1.07139,1.008945 1.26894,1.714498"
       sodipodi:nodetypes="ccccc" />
    <path
       id="path4234"
       style="fill:#b78551;fill-opacity:1;fill-rule:nonzero;stroke:none;stroke-width:0.0352778"
       d="m 71.00529,40.11525 c -1.31727,-0.24342 -2.31563,-0.63853 -3.03918,-1.13242 l -0.004,-0.007 c -0.10513,-0.067 -0.20144,-0.14464 -0.29493,-0.21873 -0.36406,-0.2928 -0.64311,-0.6103 -0.84384,-0.94897 l -0.002,-0.0247 c -0.94827,-3.80648 5.5492,-8.932337 9.8365,-5.305781 0.24695,0.151694 0.45932,0.331611 0.63959,0.532691 0.10583,0.11289 0.1972,0.23636 0.27658,0.36689 0.81562,2.92453 -2.10397,7.59884 -6.56802,6.73806"
       sodipodi:nodetypes="cccccccccc" />
    <path
       id="path4236"
       style="fill:#caa77a;fill-opacity:1;fill-rule:nonzero;stroke:none;stroke-width:0.0352778"
       d="m 71.66181,40.66558 c -1.50848,-0.27869 -2.59609,-0.762 -3.33657,-1.36172 -0.13194,-0.10231 -0.25189,-0.21167 -0.35913,-0.32103 0.72355,0.49389 1.72191,0.889 3.03918,1.13242 4.46405,0.86078 7.38364,-3.81353 6.56802,-6.73806 -0.0794,-0.13053 -0.17075,-0.254 -0.27658,-0.36689 l 0.0187,0.0141 0.0116,0.007 c 0.63888,0.39864 1.02623,1.11478 1.03858,1.86619 0.0469,2.87514 -2.70793,6.53698 -6.70384,5.76792"
       sodipodi:nodetypes="cccccccccc" />
    <path
       id="path4238"
       style="fill:#c59a69;fill-opacity:1;fill-rule:nonzero;stroke:none;stroke-width:0.0352778"
       d="m 71.00529,40.11525 c -1.31727,-0.24342 -2.31563,-0.63853 -3.03918,-1.13242 l -0.004,-0.007 c -0.19509,-0.19756 -0.35349,-0.40217 -0.4819,-0.61737 l -0.002,-0.0282 c -0.94826,-3.79941 5.52874,-8.91822 9.81922,-5.31989 0.10583,0.11289 0.1972,0.23636 0.27658,0.36689 0.81562,2.92453 -2.10397,7.59884 -6.56802,6.73806"
       sodipodi:nodetypes="cccccccc" />
    <path
       id="path4240"
       style="fill:#9b6439;fill-opacity:1;fill-rule:nonzero;stroke:none;stroke-width:0.0352778"
       d="m 59.05388,61.46783 c -1.59914,-1.29011 -4.51555,-1.8034 -9.08543,-0.75741 -5.035908,1.14829 -7.314147,6.75499 -4.994633,10.07357 -3.590572,-3.06917 -1.393472,-9.73914 4.151843,-11.00914 5.55449,-1.26859 8.65928,-0.23636 9.92822,1.69298"
       sodipodi:nodetypes="ccccc" />
    <path
       id="path4242"
       style="fill:#b78551;fill-opacity:1;fill-rule:nonzero;stroke:none;stroke-width:0.0352778"
       d="m 50.57381,72.31046 c -0.0935,0.005 -0.18662,0.007 -0.28293,0.012 -2.2673,0.0529 -3.943346,-0.48366 -5.09446,-1.35819 -0.07761,-0.0589 -0.151695,-0.1196 -0.223309,-0.17992 -2.317397,-3.31964 -0.03951,-8.92598 4.996749,-10.07428 4.56776,-1.04704 7.48418,-0.53199 9.08473,0.75777 0.16757,0.25083 0.30374,0.51823 0.40499,0.79622 1.43369,3.76943 -2.65677,9.75007 -8.88577,10.04641"
       sodipodi:nodetypes="cccccccc" />
    <path
       id="path4244"
       style="fill:#caa77a;fill-opacity:1;fill-rule:nonzero;stroke:none;stroke-width:0.0352778"
       d="m 51.26208,73.31623 c -0.0956,0.002 -0.18944,0.007 -0.28222,0.01 -2.41865,0.0575 -4.163485,-0.55774 -5.317421,-1.53811 -0.184502,-0.26106 -0.338666,-0.53622 -0.466019,-0.82338 1.151114,0.87453 2.82716,1.41111 5.09446,1.35819 0.0963,-0.005 0.18945,-0.007 0.28293,-0.012 6.229,-0.29634 10.31946,-6.27698 8.88577,-10.04641 0.0984,0.067 0.19297,0.13582 0.28081,0.2092 2.43558,3.64737 -1.79035,10.52548 -8.47831,10.84298"
       sodipodi:nodetypes="ccccccccc" />
    <path
       id="path4246"
       style="fill:#c59a69;fill-opacity:1;fill-rule:nonzero;stroke:none;stroke-width:0.0352778"
       d="m 50.57381,72.31046 c -0.0935,0.005 -0.18662,0.007 -0.28293,0.012 -2.2673,0.0529 -3.943346,-0.48366 -5.09446,-1.35819 -1.478492,-3.34928 0.818797,-8.19115 5.45888,-9.24913 4.31412,-0.98849 7.15751,-0.58702 8.80428,0.54892 1.43369,3.76943 -2.65677,9.75007 -8.88577,10.04641"
       sodipodi:nodetypes="cccccc" />
    <path
       id="path4248"
       style="fill:#69381f;fill-opacity:1;fill-rule:nonzero;stroke:none;stroke-width:0.0352778"
       d="m 99.78702,74.31282 c 0.36795,0.1905 0.67522,0.56304 0.90558,1.14759 1.403,3.55459 -4.21852,13.06019 -7.38893,13.35617 2.87514,1.64959 10.77807,-6.78322 8.18797,-13.19389 -0.39193,-0.96944 -0.98672,-1.36702 -1.70462,-1.30987"
       sodipodi:nodetypes="ccccc" />
    <path
       id="path4250"
       style="fill:#7a492a;fill-opacity:1;fill-rule:nonzero;stroke:none;stroke-width:0.0352778"
       d="m 92.30355,87.24072 c 0.11112,0.52281 0.31996,0.9652 0.65687,1.30351 0.0293,0.0353 0.0628,0.0653 0.0967,0.097 0.0751,0.0716 0.16298,0.12947 0.24588,0.17638 3.17077,-0.29809 8.79299,-9.80263 7.38964,-13.35616 -0.23036,-0.58561 -0.53834,-0.9585 -0.90558,-1.14724 -0.0505,0.002 -0.10231,0.008 -0.15628,0.0169 -3.12879,0.45755 -8.2109,8.75241 -7.32719,12.90955"
       sodipodi:nodetypes="cccccccc" />
    <path
       id="path4252"
       style="fill:#936b46;fill-opacity:1;fill-rule:nonzero;stroke:none;stroke-width:0.0352778"
       d="m 91.78743,86.99413 c 0.15381,0.56444 0.3616,1.04775 0.75353,1.40052 0.0758,0.0734 0.16299,0.12983 0.24589,0.17639 0.0561,-0.004 0.11324,-0.012 0.17357,-0.0268 -0.33691,-0.33831 -0.54575,-0.7807 -0.65687,-1.30351 -0.88371,-4.15714 4.1984,-12.452 7.32719,-12.90955 -0.11254,-0.11148 -0.23319,-0.19791 -0.35983,-0.26353 -3.11186,0.1972 -9.06357,7.1247 -7.48348,12.92649"
       sodipodi:nodetypes="cccccccc" />
    <path
       id="path4254"
       style="fill:#8f633f;fill-opacity:1;fill-rule:nonzero;stroke:none;stroke-width:0.0352778"
       d="m 92.30355,87.24072 c 0.11112,0.52281 0.31996,0.9652 0.65687,1.30351 3.19546,-0.60572 8.59366,-9.83827 7.21607,-13.32935 -0.14993,-0.38489 -0.33479,-0.6724 -0.54575,-0.88371 -3.12879,0.45755 -8.2109,8.75241 -7.32719,12.90955"
       sodipodi:nodetypes="ccccc" />
    <path
       id="path4256"
       style="fill:#824a29;fill-opacity:1;fill-rule:nonzero;stroke:none;stroke-width:0.0352778"
       d="m 73.40418,81.289 c 4.22839,1.39665 9.11825,-6.04202 5.99652,-9.14435 4.29613,1.7586 -0.92922,12.76597 -5.99652,9.14435"
       sodipodi:nodetypes="ccc" />
    <path
       id="path4258"
       style="fill:#986339;fill-opacity:1;fill-rule:nonzero;stroke:none;stroke-width:0.0352778"
       d="m 75.92548,71.76612 c 0.38912,-0.0243 0.75248,-0.0339 1.09855,-0.025 0.94651,0.0222 1.72861,0.16404 2.37737,0.40252 3.04589,3.02684 -1.53176,10.17729 -5.68219,9.23114 -0.10689,-0.0236 -0.21096,-0.0515 -0.31679,-0.0857 -0.4438,-0.41733 -0.87807,-0.96343 -1.26577,-1.66969 -1.78647,-3.21804 0.5214,-7.64329 3.78883,-7.85319"
       sodipodi:nodetypes="ccccccc" />
    <path
       id="path4260"
       style="fill:#af885a;fill-opacity:1;fill-rule:nonzero;stroke:none;stroke-width:0.0352778"
       d="m 74.90102,71.6878 c 0.79163,-0.0801 1.50636,-0.0307 2.12301,0.0533 -0.34607,-0.009 -0.70943,7.1e-4 -1.09855,0.025 -3.26743,0.2099 -5.5753,4.63515 -3.78883,7.85319 0.3877,0.70626 0.82197,1.25236 1.26577,1.66969 0.10583,0.0342 0.2099,0.0621 0.31679,0.0857 -4.36457,-1.32468 -3.95746,-9.16764 1.18181,-9.68693"
       sodipodi:nodetypes="ccccccc" />
    <path
       id="path4262"
       style="fill:#a97c4f;fill-opacity:1;fill-rule:nonzero;stroke:none;stroke-width:0.0352778"
       d="m 75.92548,71.76612 c 0.38912,-0.0243 0.75248,-0.0339 1.09855,-0.025 0.50448,0.0684 0.95391,0.18062 1.35291,0.32421 2.79647,2.77847 -0.83256,9.0364 -4.65773,9.30945 -0.10689,-0.0236 -0.21096,-0.0515 -0.31679,-0.0857 -0.4438,-0.41733 -0.87807,-0.96343 -1.26577,-1.66969 -1.78647,-3.21804 0.5214,-7.64329 3.78883,-7.85319"
       sodipodi:nodetypes="ccccccc" />
    <path
       id="path4264"
       style="fill:#9b6439;fill-opacity:1;fill-rule:nonzero;stroke:none;stroke-width:0.0352778"
       d="m 74.6449,48.25736 c -1.05445,-0.53269 -2.63666,-0.36689 -4.76603,1.143 -2.45075,1.72861 -2.7238,4.27743 -1.44251,5.63951 -2.05352,-1.0795 -2.15723,-4.20723 0.69145,-6.21454 2.7178,-1.91205 4.53566,-1.65805 5.51709,-0.56797"
       sodipodi:nodetypes="ccccc" />
    <path
       id="path4266"
       style="fill:#b78551;fill-opacity:1;fill-rule:nonzero;stroke:none;stroke-width:0.0352778"
       d="m 73.97356,54.12758 c -2.10926,1.30599 -3.85374,1.52224 -5.07471,1.10737 -0.16368,-0.0526 -0.31855,-0.11994 -0.46178,-0.19579 -1.28235,-1.36137 -1.00789,-3.91019 1.44321,-5.6388 2.1269,-1.50989 3.71052,-1.67569 4.76533,-1.143 l 0.0145,0.0141 c 0.079,0.0847 0.15205,0.17992 0.21907,0.27517 1.12783,1.6263 0.78,4.54095 -0.90558,5.58094"
       sodipodi:nodetypes="cccccccc" />
    <path
       id="path4268"
       style="fill:#caa77a;fill-opacity:1;fill-rule:nonzero;stroke:none;stroke-width:0.0352778"
       d="m 74.66007,54.59219 c -2.39572,1.48131 -4.31236,1.55716 -5.53932,0.91158 -0.0818,-0.0847 -0.15487,-0.17533 -0.2219,-0.26882 1.22097,0.41487 2.96545,0.19862 5.07471,-1.10737 1.68558,-1.03999 2.03341,-3.95464 0.90558,-5.58094 0.1577,0.0459 0.30974,0.1023 0.4498,0.17286 l 0.0176,0.0141 c 1.38501,1.55222 1.09855,4.75721 -0.6865,5.85858"
       sodipodi:nodetypes="cccccccc" />
    <path
       id="path4270"
       style="fill:#c59a69;fill-opacity:1;fill-rule:nonzero;stroke:none;stroke-width:0.0352778"
       d="m 73.97356,54.12758 c -2.10926,1.30599 -3.85374,1.52224 -5.07471,1.10737 -1.01388,-1.40829 -0.63111,-3.75144 1.66512,-5.37245 1.84643,-1.30528 3.28083,-1.60867 4.31517,-1.31586 1.12783,1.6263 0.78,4.54095 -0.90558,5.58094"
       sodipodi:nodetypes="ccccc" />
    <path
       id="path4272"
       style="fill:#824a29;fill-opacity:1;fill-rule:nonzero;stroke:none;stroke-width:0.0352778"
       d="m 51.70376,85.57949 c 1.5875,2.57069 -1.75472,7.66374 -6.253693,6.47982 -1.537053,-0.28328 -2.445103,-1.22343 -2.758017,-2.36044 0.452967,0.79164 1.266825,1.40053 2.452159,1.62243 4.101751,1.07879 7.242171,-3.05894 6.559551,-5.74181"
       sodipodi:nodetypes="ccccc" />
    <path
       id="path4274"
       style="fill:#986339;fill-opacity:1;fill-rule:nonzero;stroke:none;stroke-width:0.0352778"
       d="m 46.450545,84.38957 c 1.367715,-0.27411 2.457805,-0.28399 3.299535,-0.091 0.54327,0.12277 0.98107,0.32279 1.32573,0.58773 0.26318,0.19932 0.46955,0.43356 0.62689,0.69391 0.68368,2.68182 -2.4571,6.82026 -6.558139,5.74076 -0.982486,-0.18415 -1.710619,-0.63395 -2.188633,-1.23296 -0.09843,-0.12347 -0.187678,-0.25294 -0.264583,-0.38947 -0.573617,-2.03623 0.768702,-4.70888 3.7592,-5.30895"
       sodipodi:nodetypes="cccccccc" />
    <path
       id="path4276"
       style="fill:#af885a;fill-opacity:1;fill-rule:nonzero;stroke:none;stroke-width:0.0352778"
       d="m 45.970414,83.90767 c 1.36525,-0.27481 2.455336,-0.28469 3.295646,-0.0892 0.83891,0.18662 1.43193,0.56656 1.80975,1.06786 -0.34466,-0.26494 -0.78246,-0.46496 -1.32573,-0.58773 -0.84173,-0.19297 -1.93182,-0.18309 -3.299535,0.091 -2.990498,0.60007 -4.332817,3.27272 -3.7592,5.30895 0.0769,0.13653 0.166158,0.266 0.264583,0.38947 -0.310797,-0.24977 -0.560211,-0.54434 -0.744714,-0.87101 -0.577497,-2.03482 0.767292,-4.70712 3.7592,-5.30931"
       sodipodi:nodetypes="ccccccccc" />
    <path
       id="path4278"
       style="fill:#a97c4f;fill-opacity:1;fill-rule:nonzero;stroke:none;stroke-width:0.0352778"
       d="m 46.450545,84.38957 c 1.367715,-0.27411 2.457805,-0.28399 3.299535,-0.091 0.54327,0.12277 0.98107,0.32279 1.32573,0.58773 0.0504,0.0677 0.0998,0.13758 0.14429,0.21131 0.68368,2.68182 -2.4571,6.82026 -6.558139,5.74076 -0.697441,-0.12842 -1.264002,-0.39406 -1.706033,-0.75036 -0.09843,-0.12347 -0.187678,-0.25294 -0.264583,-0.38947 -0.573617,-2.03623 0.768702,-4.70888 3.7592,-5.30895"
       sodipodi:nodetypes="cccccccc" />
    <path
       id="path4280"
       style="fill:#ad7748;fill-opacity:1;fill-rule:nonzero;stroke:none;stroke-width:0.0352778"
       d="m 32.635766,43.18089 c -1.030464,-0.73025 -2.664883,-0.71261 -4.307064,0.58208 -2.8194,1.95086 -3.142192,4.94947 -2.075744,6.5652 -1.779412,-1.2312 -2.700162,-4.99181 0.625475,-7.29192 2.078566,-1.62631 4.902905,-1.2312 5.757333,0.14464"
       sodipodi:nodetypes="ccccc" />
    <path
       id="path4282"
       style="fill:#cb9e69;fill-opacity:1;fill-rule:nonzero;stroke:none;stroke-width:0.0352778"
       d="m 32.104483,47.40364 c -0.789517,1.143 -1.55822,1.95086 -2.291997,2.49414 -1.22802,0.90664 -2.327628,1.03011 -3.16477,0.65616 -0.140406,-0.06 -0.270933,-0.13758 -0.395111,-0.22577 -1.066095,-1.61573 -0.742598,-4.61434 2.075392,-6.5652 1.643944,-1.29469 3.2766,-1.31586 4.307769,-0.58208 0.07056,0.11641 0.135467,0.23989 0.187678,0.37041 0.422275,1.00189 0.290336,2.37773 -0.718961,3.85234"
       sodipodi:nodetypes="cccccccc" />
    <path
       id="path4284"
       style="fill:#dcbe93;fill-opacity:1;fill-rule:nonzero;stroke:none;stroke-width:0.0352778"
       d="m 32.712319,48.01042 c -0.789164,1.143 -1.560689,1.95086 -2.291645,2.49413 -1.431925,1.05446 -2.690283,1.04917 -3.55988,0.43039 -0.07902,-0.11994 -0.150284,-0.24694 -0.213078,-0.381 0.837142,0.37395 1.93675,0.25048 3.16477,-0.65616 0.733777,-0.54328 1.50248,-1.35114 2.291997,-2.49414 1.009297,-1.47461 1.141236,-2.85045 0.718961,-3.85234 0.150989,0.0635 0.290336,0.14112 0.420158,0.23637 0.630767,1.016 0.607484,2.55763 -0.531283,4.22275"
       sodipodi:nodetypes="ccccccccc" />
    <path
       id="path4286"
       style="fill:#d4ae82;fill-opacity:1;fill-rule:nonzero;stroke:none;stroke-width:0.0352778"
       d="m 32.104483,47.40364 c -0.789517,1.143 -1.55822,1.95086 -2.291997,2.49414 -1.22802,0.90664 -2.327628,1.03011 -3.16477,0.65616 -0.792692,-1.67569 -0.322439,-4.37797 2.288117,-6.18419 1.432983,-1.13242 2.862439,-1.28764 3.887611,-0.81845 0.422275,1.00189 0.290336,2.37773 -0.718961,3.85234"
       sodipodi:nodetypes="cccccc" />
    <path
       id="path4288"
       style="fill:#ad7748;fill-opacity:1;fill-rule:nonzero;stroke:none;stroke-width:0.0352778"
       d="m 55.875,44.56378 c -1.26894,-0.56445 -3.10197,-0.24342 -4.06082,1.08302 -1.05269,1.45698 -0.6671,2.99862 0.28222,3.91937 -1.45697,-0.70556 -2.35938,-2.65289 -1.05269,-4.45559 1.18428,-1.63689 3.68441,-1.72861 4.83129,-0.5468"
       sodipodi:nodetypes="ccccc" />
    <path
       id="path4290"
       style="fill:#cb9e69;fill-opacity:1;fill-rule:nonzero;stroke:none;stroke-width:0.0352778"
       d="m 56.23096,47.31897 c -0.11995,0.32103 -0.25118,0.61031 -0.40323,0.85372 -0.89112,1.4852 -2.15618,1.8662 -3.23427,1.57692 -0.16933,-0.0459 -0.33584,-0.10936 -0.49635,-0.18697 -0.94968,-0.91722 -1.33527,-2.46239 -0.28364,-3.91584 0.9585,-1.32644 2.79294,-1.64394 4.06118,-1.08302 0.0494,0.0529 0.0991,0.10936 0.14288,0.1658 0.47625,0.59972 0.63394,1.47109 0.21343,2.58939"
       sodipodi:nodetypes="cccccccc" />
    <path
       id="path4292"
       style="fill:#dcbe93;fill-opacity:1;fill-rule:nonzero;stroke:none;stroke-width:0.0352778"
       d="m 56.87654,47.65411 c -0.12277,0.3175 -0.254,0.61031 -0.40323,0.85372 -1.03399,1.71803 -2.56786,1.95792 -3.7338,1.39347 -0.0494,-0.0494 -0.0991,-0.1023 -0.14605,-0.15169 1.07809,0.28928 2.34315,-0.0917 3.23427,-1.57692 0.15205,-0.24341 0.28328,-0.53269 0.40323,-0.85372 0.42051,-1.1183 0.26282,-1.98967 -0.21343,-2.58939 0.17533,0.0388 0.34184,0.0988 0.5027,0.16934 0.58138,0.59972 0.8181,1.53458 0.35631,2.75519"
       sodipodi:nodetypes="ccccccccc" />
    <path
       id="path4294"
       style="fill:#d4ae82;fill-opacity:1;fill-rule:nonzero;stroke:none;stroke-width:0.0352778"
       d="m 56.23096,47.31897 c -0.11995,0.32103 -0.25118,0.61031 -0.40323,0.85372 -0.89112,1.4852 -2.15618,1.8662 -3.23427,1.57692 -0.8382,-0.93486 -1.13065,-2.38831 -0.1344,-3.77119 0.83855,-1.15712 2.34315,-1.5487 3.55847,-1.24884 0.47625,0.59972 0.63394,1.47109 0.21343,2.58939"
       sodipodi:nodetypes="cccccc" />
    <path
       id="path4296"
       style="fill:#69381f;fill-opacity:1;fill-rule:nonzero;stroke:none;stroke-width:0.0352778"
       d="m 104.86667,54.62747 c 1.13241,-0.97755 1.62701,-4.66267 0.69038,-7.54133 -0.72002,-2.21545 -1.73672,-2.97039 -2.60597,-2.70581 0.94227,-0.74789 2.71075,-0.0212 3.56941,2.61761 1.05798,3.25614 -0.20355,7.36142 -1.65382,7.62953"
       sodipodi:nodetypes="ccccc" />
    <path
       id="path4298"
       style="fill:#7a492a;fill-opacity:1;fill-rule:nonzero;stroke:none;stroke-width:0.0352778"
       d="m 103.01494,52.98388 c -0.2152,-0.4191 -0.40605,-0.82938 -0.55774,-1.23049 -1.07915,-2.83281 -0.85867,-5.30578 -0.11289,-6.63222 0.17709,-0.31045 0.38241,-0.56092 0.60642,-0.73731 0.86854,-0.26811 1.8863,0.48683 2.60527,2.70228 0.889,2.71991 0.49177,6.16691 -0.50977,7.35894 -0.0582,0.0695 -0.11783,0.12841 -0.17921,0.18098 -0.54045,0.10654 -1.17792,-0.35384 -1.85208,-1.64218"
       sodipodi:nodetypes="cccccccc" />
    <path
       id="path4300"
       style="fill:#936b46;fill-opacity:1;fill-rule:nonzero;stroke:none;stroke-width:0.0352778"
       d="m 102.74048,53.39486 c -0.21555,-0.41451 -0.40852,-0.82691 -0.55739,-1.23049 -1.20756,-3.15912 -0.79128,-5.8614 0.16122,-7.0432 -0.74578,1.32644 -0.96626,3.79941 0.11289,6.63222 0.15169,0.40111 0.34254,0.81139 0.55774,1.23049 0.67416,1.28834 1.31163,1.74872 1.85208,1.64218 0.0614,-0.0526 0.121,-0.11148 0.17921,-0.18098 -0.13688,0.24765 -0.28928,0.45403 -0.45649,0.59479 -0.53799,0.1083 -1.17546,-0.35208 -1.84926,-1.64501"
       sodipodi:nodetypes="ccccccccc" />
    <path
       id="path4302"
       style="fill:#8f633f;fill-opacity:1;fill-rule:nonzero;stroke:none;stroke-width:0.0352778"
       d="m 103.01494,52.98388 c -0.2152,-0.4191 -0.40605,-0.82938 -0.55774,-1.23049 -1.07915,-2.83281 -0.85867,-5.30578 -0.11289,-6.63222 0.10548,-0.127 0.21625,-0.23637 0.32984,-0.32809 0.87066,-0.26458 1.88595,0.49036 2.60774,2.70581 0.79939,2.45533 0.55456,5.49628 -0.23566,6.94619 -0.0582,0.0695 -0.11783,0.12841 -0.17921,0.18098 -0.54045,0.10654 -1.17792,-0.35384 -1.85208,-1.64218"
       sodipodi:nodetypes="cccccccc" />
    <path
       id="path4304"
       style="fill:#ac7340;fill-opacity:1;fill-rule:nonzero;stroke:none;stroke-width:0.0352778"
       d="m 27.892669,74.04154 c -3.205339,-2.38725 -6.842831,1.59773 -5.235576,4.00402 -2.960864,-2.22743 1.099962,-7.31237 4.63409,-4.64326 0.23495,0.17851 0.432505,0.39476 0.601486,0.63924"
       sodipodi:nodetypes="cccc" />
    <path
       id="path4306"
       style="fill:#b78551;fill-opacity:1;fill-rule:nonzero;stroke:none;stroke-width:0.0352778"
       d="m 28.392202,76.28908 c -0.347839,2.28177 -2.407356,3.5994 -5.311422,2.03059 -0.08185,-0.0437 -0.15487,-0.0878 -0.225073,-0.13441 -0.07303,-0.0469 -0.13723,-0.0935 -0.198614,-0.1404 -1.606902,-2.40418 2.030589,-6.38916 5.235576,-4.00227 0.05821,0.0815 0.111125,0.16934 0.154869,0.26 0.327025,0.59302 0.449792,1.30881 0.344664,1.98649"
       sodipodi:nodetypes="ccccccc" />
    <path
       id="path4308"
       style="fill:#caa77a;fill-opacity:1;fill-rule:nonzero;stroke:none;stroke-width:0.0352778"
       d="m 28.734044,76.68067 c -0.347839,2.28459 -2.407356,3.59939 -5.311423,2.03059 -0.157691,-0.085 -0.300919,-0.17851 -0.420864,-0.272 -0.05539,-0.0815 -0.105127,-0.16651 -0.14605,-0.254 0.0702,0.0466 0.143228,0.0907 0.225073,0.13441 2.904066,1.56881 4.963583,0.25118 5.311422,-2.03059 0.105128,-0.67768 -0.01764,-1.39347 -0.344664,-1.98649 0.06421,0.0409 0.125589,0.0847 0.189795,0.13124 0.440972,0.63993 0.619477,1.46685 0.496711,2.24684"
       sodipodi:nodetypes="ccccccccc" />
    <path
       id="path4310"
       style="fill:#c59a69;fill-opacity:1;fill-rule:nonzero;stroke:none;stroke-width:0.0352778"
       d="m 28.392202,76.28908 c -0.347839,2.28177 -2.407356,3.5994 -5.311422,2.03059 -0.08185,-0.0437 -0.15487,-0.0878 -0.225073,-0.13441 -1.189214,-2.3696 2.147359,-5.90726 5.191831,-3.88267 0.327025,0.59302 0.449792,1.30881 0.344664,1.98649"
       sodipodi:nodetypes="ccccc" />
    <path
       id="path4312"
       style="fill:#69381f;fill-opacity:1;fill-rule:nonzero;stroke:none;stroke-width:0.0352778"
       d="m 64.3258,99.13603 c -1.17758,1.31234 1.88595,2.25178 4.82141,2.00166 2.16288,-0.1785 3.57823,-0.59196 4.37691,-1.08161 -0.6043,0.67486 -1.96215,1.69862 -4.74345,1.9311 -3.25367,0.27587 -6.82378,-1.32397 -4.45487,-2.85115"
       sodipodi:nodetypes="ccccc" />
    <path
       id="path4314"
       style="fill:#7a492a;fill-opacity:1;fill-rule:nonzero;stroke:none;stroke-width:0.0352778"
       d="m 73.80352,99.55266 c -0.0385,0.16793 -0.13335,0.33796 -0.28151,0.50377 -0.79693,0.4886 -2.20945,0.90276 -4.37515,1.08126 -2.84198,0.24095 -5.80038,-0.63006 -4.91596,-1.87783 0.0222,-0.0402 0.0578,-0.0829 0.0949,-0.12453 0.0575,-0.0423 0.13193,-0.0889 0.20708,-0.12983 5.03484,-2.78306 9.68092,-1.13594 9.27064,0.54716"
       sodipodi:nodetypes="ccccccc" />
    <path
       id="path4316"
       style="fill:#936b46;fill-opacity:1;fill-rule:nonzero;stroke:none;stroke-width:0.0352778"
       d="m 73.80352,99.55266 c 0.41028,-1.6831 -4.2358,-3.33022 -9.27064,-0.54716 -0.0752,0.0409 -0.14958,0.0875 -0.20708,0.12983 -0.0371,0.0416 -0.0727,0.0843 -0.0949,0.12453 0.0233,-0.14641 0.10336,-0.30022 0.24553,-0.46108 0.0617,-0.0434 0.13229,-0.0889 0.21167,-0.13088 5.37175,-2.96863 10.30111,-0.89394 9.11542,0.88476"
       sodipodi:nodetypes="ccccccc" />
    <path
       id="path4318"
       style="fill:#8f633f;fill-opacity:1;fill-rule:nonzero;stroke:none;stroke-width:0.0352778"
       d="m 73.80352,99.55266 c -0.0335,0.055 -0.0769,0.11078 -0.12629,0.16616 -0.80116,0.48966 -2.21403,0.90347 -4.37938,1.08232 -2.57987,0.21908 -5.25463,-0.47907 -5.06695,-1.54128 0.0222,-0.0402 0.0578,-0.0829 0.0949,-0.12453 0.0575,-0.0423 0.13193,-0.0889 0.20708,-0.12983 5.03484,-2.78306 9.68092,-1.13594 9.27064,0.54716"
       sodipodi:nodetypes="ccccccc" />
    <path
       id="path4320"
       style="fill:#b38050;fill-opacity:1;fill-rule:nonzero;stroke:none;stroke-width:0.0352778"
       d="m 55.23224,26.423942 c 0.11748,-0.497417 0.13124,-0.931334 0.0889,-1.210028 -0.28222,-1.735667 -2.94816,-6.374695 -8.985248,1.210028 -0.482953,0.610305 -0.842433,1.188861 -1.068564,1.718028 0.463903,-6.39939 3.849162,-8.886473 6.627992,-8.300862 1.90147,0.402167 3.51896,2.649361 3.72321,4.441473 0.0504,0.4445 -0.0145,1.259416 -0.38629,2.141361"
       sodipodi:nodetypes="ccccccc" />
    <path
       id="path4322"
       style="fill:#d2a877;fill-opacity:1;fill-rule:nonzero;stroke:none;stroke-width:0.0352778"
       d="m 45.201359,28.84047 c -7.06e-4,-0.155223 0.01164,-0.3175 0.03387,-0.483306 0.0025,-0.0635 0.02046,-0.141111 0.03316,-0.215194 3.747911,-11.726334 11.123791,-5.584473 9.964911,-1.718028 -0.0392,0.09172 -0.0744,0.169333 -0.11395,0.254 l -0.003,0.0071 c -0.12277,0.261056 -0.2667,0.515056 -0.43145,0.758473 -3.60221,5.284611 -9.455146,4.773083 -9.483368,1.397"
       sodipodi:nodetypes="cccccccc" />
    <path
       id="path4324"
       style="fill:#e4c9a3;fill-opacity:1;fill-rule:nonzero;stroke:none;stroke-width:0.0352778"
       d="m 45.011917,29.390803 c 0.0025,-0.0635 0.02011,-0.141111 0.03034,-0.211667 0.04798,-0.112889 0.100542,-0.22225 0.159103,-0.338666 0.02822,3.376083 5.88116,3.887611 9.48337,-1.397 0.16475,-0.243417 0.30868,-0.497417 0.43145,-0.758473 -0.007,0.225778 -0.0416,0.490361 -0.10901,0.776111 -0.0374,0.08819 -0.0716,0.165806 -0.11501,0.254001 -0.1217,0.261055 -0.26458,0.515055 -0.4318,0.762 -3.76555,5.528031 -9.995953,4.716641 -9.448442,0.913694"
       sodipodi:nodetypes="ccccccccc" />
    <path
       id="path4326"
       style="fill:#dbb88d;fill-opacity:1;fill-rule:nonzero;stroke:none;stroke-width:0.0352778"
       d="m 45.201359,28.84047 c 0.22225,-0.433917 0.610305,-0.843139 0.909108,-1.379362 5.264853,-9.415639 8.703383,-2.949222 8.987363,-1.213555 0.0159,0.119944 0.0233,0.268111 0.0183,0.437444 -0.12277,0.261056 -0.2667,0.515056 -0.43145,0.758473 -3.60221,5.284611 -9.455149,4.773083 -9.483371,1.397"
       sodipodi:nodetypes="cccccc" />
    <path
       id="path4328"
       style="fill:#b0895b;fill-opacity:1;fill-rule:nonzero;stroke:none;stroke-width:0.0352778"
       d="m 93.17949,54.53257 c -3.45828,0.40111 -3.46498,-3.25896 -0.93698,-3.73874 3.65549,-0.69497 2.5774,3.54824 0.93698,3.73874"
       sodipodi:nodetypes="ccc" />
    <path
       id="path4330"
       style="fill:#b0895b;fill-opacity:1;fill-rule:nonzero;stroke:none;stroke-width:0.0352778"
       d="m 92.33459,46.56755 c 1.63195,-1.10772 2.59503,0.72673 1.45097,1.63337 -1.65347,1.30527 -2.22497,-1.10773 -1.45097,-1.63337"
       sodipodi:nodetypes="ccc" />
    <path
       id="path4332"
       style="fill:#b0895b;fill-opacity:1;fill-rule:nonzero;stroke:none;stroke-width:0.0352778"
       d="m 88.96098,46.51111 c 1.252,-0.85019 1.99107,0.56092 1.11336,1.25236 -1.26894,1.00542 -1.70744,-0.85019 -1.11336,-1.25236"
       sodipodi:nodetypes="ccc" />
    <path
       id="path4334"
       style="fill:#b0895b;fill-opacity:1;fill-rule:nonzero;stroke:none;stroke-width:0.0352778"
       d="m 92.14903,43.2973 c 0.86818,-0.58913 1.38042,0.38806 0.77188,0.87137 -0.87948,0.69497 -1.18357,-0.58914 -0.77188,-0.87137"
       sodipodi:nodetypes="ccc" />
    <path
       id="path4336"
       style="fill:#b0895b;fill-opacity:1;fill-rule:nonzero;stroke:none;stroke-width:0.0352778"
       d="m 89.80447,37.90686 c 0.66357,-0.45156 1.05516,0.29633 0.59019,0.66322 -0.67239,0.5327 -0.90487,-0.45155 -0.59019,-0.66322"
       sodipodi:nodetypes="ccc" />
    <path
       id="path4338"
       style="fill:#b0895b;fill-opacity:1;fill-rule:nonzero;stroke:none;stroke-width:0.0352778"
       d="m 55.4485,90.75227 c 1.42381,-3.87209 5.29907,-1.92335 4.45664,1.00788 -1.21814,4.23792 -5.13221,0.82938 -4.45664,-1.00788"
       sodipodi:nodetypes="ccc" />
    <path
       id="path4340"
       style="fill:#b0895b;fill-opacity:1;fill-rule:nonzero;stroke:none;stroke-width:0.0352778"
       d="m 62.54215,88.74426 c 1.63195,-1.10808 2.59503,0.72848 1.45133,1.63301 -1.65382,1.30739 -2.22532,-1.10737 -1.45133,-1.63301"
       sodipodi:nodetypes="ccc" />
    <path
       id="path4342"
       style="fill:#b0895b;fill-opacity:1;fill-rule:nonzero;stroke:none;stroke-width:0.0352778"
       d="m 67.26091,88.55975 c 1.25201,-0.85019 1.99108,0.5588 1.11336,1.25272 -1.26858,1.0033 -1.70709,-0.84949 -1.11336,-1.25272"
       sodipodi:nodetypes="ccc" />
    <path
       id="path4344"
       style="fill:#b0895b;fill-opacity:1;fill-rule:nonzero;stroke:none;stroke-width:0.0352778"
       d="m 64.88389,85.61124 c 0.86819,-0.58949 1.38042,0.38735 0.77188,0.86854 -0.87948,0.69567 -1.18357,-0.58914 -0.77188,-0.86854"
       sodipodi:nodetypes="ccc" />
    <path
       id="path4346"
       style="fill:#b0895b;fill-opacity:1;fill-rule:nonzero;stroke:none;stroke-width:0.0352778"
       d="m 54.1471,87.47496 c 0.66357,-0.45049 1.05516,0.29634 0.58984,0.66393 -0.67239,0.53199 -0.90487,-0.45014 -0.58984,-0.66393"
       sodipodi:nodetypes="ccc" />
    <path
       id="path4348"
       style="fill:#b0895b;fill-opacity:1;fill-rule:nonzero;stroke:none;stroke-width:0.0352778"
       d="m 67.05453,86.5147 c 0.66358,-0.4505 1.05516,0.29633 0.5902,0.66393 -0.67275,0.53199 -0.90523,-0.45015 -0.5902,-0.66393"
       sodipodi:nodetypes="ccc" />
    <path
       id="path4350"
       style="fill:#b0895b;fill-opacity:1;fill-rule:nonzero;stroke:none;stroke-width:0.0352778"
       d="m 50.78618,93.70043 c 0.86466,-0.58702 1.37478,0.38594 0.76871,0.86537 -0.87595,0.6925 -1.17899,-0.58667 -0.76871,-0.86537"
       sodipodi:nodetypes="ccc" />
    <path
       id="path4352"
       style="fill:#dcbe93;fill-opacity:1;fill-rule:nonzero;stroke:none;stroke-width:0.0352778"
       d="m 31.871297,62.69197 c -4.077406,0.40111 -4.08552,-3.25896 -1.104548,-3.7398 4.309534,-0.69532 3.038476,3.54965 1.104548,3.7398"
       sodipodi:nodetypes="ccc" />
    <path
       id="path4354"
       style="fill:#dcbe93;fill-opacity:1;fill-rule:nonzero;stroke:none;stroke-width:0.0352778"
       d="m 66.74091,23.693442 c -3.45828,0.402166 -3.46498,-3.259667 -0.93662,-3.739445 3.65513,-0.694972 2.57704,3.548945 0.93662,3.739445"
       sodipodi:nodetypes="ccc" />
    <path
       id="path4356"
       style="fill:#dcbe93;fill-opacity:1;fill-rule:nonzero;stroke:none;stroke-width:0.0352778"
       d="m 64.36778,25.739553 c 1.63195,-1.107722 2.59503,0.73025 1.45097,1.633361 -1.65347,1.308806 -2.22497,-1.107722 -1.45097,-1.633361"
       sodipodi:nodetypes="ccc" />
    <path
       id="path4358"
       style="fill:#dcbe93;fill-opacity:1;fill-rule:nonzero;stroke:none;stroke-width:0.0352778"
       d="m 34.61238,56.08656 c 1.425575,-1.30669 2.465564,0.073 1.476728,1.0989 -1.429808,1.48343 -2.153003,-0.47907 -1.476728,-1.0989"
       sodipodi:nodetypes="ccc" />
    <path
       id="path4360"
       style="fill:#dcbe93;fill-opacity:1;fill-rule:nonzero;stroke:none;stroke-width:0.0352778"
       d="m 39.626411,54.39605 c 1.092906,-1.05693 2.132542,0.32279 1.386417,1.16663 -1.078442,1.21956 -1.905,-0.66498 -1.386417,-1.16663"
       sodipodi:nodetypes="ccc" />
    <path
       id="path4362"
       style="fill:#dcbe93;fill-opacity:1;fill-rule:nonzero;stroke:none;stroke-width:0.0352778"
       d="m 36.936128,52.42225 c 0.72778,-0.70414 1.41993,0.21485 0.923219,0.77647 -0.718255,0.81245 -1.268589,-0.44274 -0.923219,-0.77647"
       sodipodi:nodetypes="ccc" />
  </g>
</svg>
