<?xml version="1.0" encoding="UTF-8" standalone="no"?>
<!-- Created with Inkscape (http://www.inkscape.org/) -->

<svg
   width="100"
   height="100"
   viewBox="0 0 100 100"
   version="1.1"
   id="svg5357"
   inkscape:version="1.2.1 (9c6d41e410, 2022-07-14)"
   sodipodi:docname="asteroid4.svg"
   xmlns:inkscape="http://www.inkscape.org/namespaces/inkscape"
   xmlns:sodipodi="http://sodipodi.sourceforge.net/DTD/sodipodi-0.dtd"
   xmlns="http://www.w3.org/2000/svg"
   xmlns:svg="http://www.w3.org/2000/svg">
  <sodipodi:namedview
     id="namedview5359"
     pagecolor="#505050"
     bordercolor="#ffffff"
     borderopacity="1"
     inkscape:showpageshadow="0"
     inkscape:pageopacity="0"
     inkscape:pagecheckerboard="1"
     inkscape:deskcolor="#505050"
     inkscape:document-units="mm"
     showgrid="false"
     inkscape:zoom="0.74564394"
     inkscape:cx="365.45593"
     inkscape:cy="240.06096"
     inkscape:window-width="1920"
     inkscape:window-height="1017"
     inkscape:window-x="-8"
     inkscape:window-y="-8"
     inkscape:window-maximized="1"
     inkscape:current-layer="layer1" />
  <defs
     id="defs5354">
    <clipPath
       id="clipPath1382"
       clipPathUnits="userSpaceOnUse">
      <path
         id="path1380"
         d="m 12519.7,9827.08 c -21.2,0 -38.5,17.29 -38.5,38.55 0,21.26 17.3,38.55 38.5,38.55 21.3,0 38.6,-17.29 38.6,-38.55 0,-21.26 -17.3,-38.55 -38.6,-38.55" />
    </clipPath>
    <radialGradient
       id="radialGradient1390"
       spreadMethod="pad"
       gradientTransform="matrix(7356.97,0,0,-4948.95,8500,6000)"
       gradientUnits="userSpaceOnUse"
       r="1"
       cy="0"
       cx="0"
       fy="0"
       fx="0">
      <stop
         id="stop1384"
         offset="0"
         style="stop-opacity:1;stop-color:#2e6dae" />
      <stop
         id="stop1386"
         offset="0.00000013"
         style="stop-opacity:1;stop-color:#2e6dae" />
      <stop
         id="stop1388"
         offset="1"
         style="stop-opacity:1;stop-color:#265b91" />
    </radialGradient>
    <clipPath
       id="clipPath1528"
       clipPathUnits="userSpaceOnUse">
      <path
         id="path1526"
         d="m 12166.8,9565.8 c -10.6,0 -19.2,8.62 -19.2,19.22 0,10.6 8.6,19.23 19.2,19.23 10.6,0 19.3,-8.63 19.3,-19.23 0,-10.6 -8.7,-19.22 -19.3,-19.22" />
    </clipPath>
    <radialGradient
       id="radialGradient1536"
       spreadMethod="pad"
       gradientTransform="matrix(7356.97,0,0,-4948.95,8500,6000)"
       gradientUnits="userSpaceOnUse"
       r="1"
       cy="0"
       cx="0"
       fy="0"
       fx="0">
      <stop
         id="stop1530"
         offset="0"
         style="stop-opacity:1;stop-color:#2e6dae" />
      <stop
         id="stop1532"
         offset="0.00000013"
         style="stop-opacity:1;stop-color:#2e6dae" />
      <stop
         id="stop1534"
         offset="1"
         style="stop-opacity:1;stop-color:#265b91" />
    </radialGradient>
  </defs>
  <g
     inkscape:label="Warstwa 1"
     inkscape:groupmode="layer"
     id="layer1">
    <g
       id="g1376"
       transform="matrix(0.03527778,0,0,-0.03527778,-384.30464,391.83278)">
      <g
         clip-path="url(#clipPath1382)"
         id="g1378">
        <path
           id="path1392"
           style="fill:url(#radialGradient1390);fill-opacity:1;fill-rule:nonzero;stroke:none"
           d="m 12519.7,9827.08 c -21.2,0 -38.5,17.29 -38.5,38.55 0,21.26 17.3,38.55 38.5,38.55 21.3,0 38.6,-17.29 38.6,-38.55 0,-21.26 -17.3,-38.55 -38.6,-38.55" />
      </g>
    </g>
    <g
       id="g1522"
       transform="matrix(0.03527778,0,0,-0.03527778,-384.30464,391.83278)">
      <g
         clip-path="url(#clipPath1528)"
         id="g1524">
        <path
           id="path1538"
           style="fill:url(#radialGradient1536);fill-opacity:1;fill-rule:nonzero;stroke:none"
           d="m 12166.8,9565.8 c -10.6,0 -19.2,8.62 -19.2,19.22 0,10.6 8.6,19.23 19.2,19.23 10.6,0 19.3,-8.63 19.3,-19.23 0,-10.6 -8.7,-19.22 -19.3,-19.22" />
      </g>
    </g>
    <path
       id="path5090"
       style="fill:#7e5130;fill-opacity:1;fill-rule:nonzero;stroke:none;stroke-width:0.0352778"
       d="m 67.727194,71.383544 c -5.08,5.33259 -11.12661,7.08766 -17.15911,6.38916 1.86972,-1.89689 0.81492,-5.90374 4.56847,-8.21126 5.21053,-3.21169 2.09198,-3.17041 3.93348,-5.7023 1.72155,-2.37102 6.06072,-0.15311 7.5318,-5.72453 1.85209,-7.03509 -1.25589,-6.87458 -2.25072,-7.8306 -1.25589,-1.21744 -0.54681,-3.43535 -1.40406,-4.959 -1.54869,-2.74073 -6.74511,-1.48978 -4.58963,-8.55839 2.12725,-6.96736 1.23472,-10.23409 -0.0635,-12.4707 9.35566,4.40973 17.145,11.71223 18.86302,16.30927 2.30717,6.17608 0.19403,20.65761 -9.42975,30.75835" />
    <path
       id="path5092"
       style="fill:#9e6f43;fill-opacity:1;fill-rule:nonzero;stroke:none;stroke-width:0.0352778"
       d="m 66.601834,58.134614 c -1.47108,5.57142 -5.81025,3.35351 -7.5318,5.72453 -1.8415,2.53189 1.27705,2.49061 -3.93348,5.7023 -3.75355,2.30752 -2.69875,6.31437 -4.56847,8.21126 -4.09222,-0.47414 -8.17386,-2.07998 -11.94153,-4.46229 0.0564,-0.57115 0.06,-1.28446 0.0741,-2.17311 0.0811,-5.19818 3.80647,-6.48265 5.24227,-9.04452 2.17312,-3.86468 -0.84666,-7.33002 1.29823,-11.24338 0.98777,-1.79987 -0.0459,-6.67314 1.30527,-10.01148 2.27542,-5.62116 6.49112,-5.4483 3.47134,-9.80158 -2.04258,-2.94922 -3.01272,-6.60753 -2.79047,-10.181167 3.75002,0.536223 7.51769,1.788587 11.06664,3.460747 1.29822,2.23661 2.19075,5.50334 0.0635,12.4707 -2.15548,7.06861 3.04094,5.81766 4.58963,8.55839 0.85725,1.52365 0.14817,3.74156 1.40406,4.959 0.99483,0.95602 4.10281,0.79551 2.25072,7.8306" />
    <path
       id="path5094"
       style="fill:#bf9460;fill-opacity:1;fill-rule:nonzero;stroke:none;stroke-width:0.0352778"
       d="m 46.546414,40.837924 c -1.35113,3.33834 -0.3175,8.21161 -1.30527,10.01148 -2.14489,3.91336 0.87489,7.3787 -1.29823,11.24338 -1.4358,2.56187 -5.16113,3.84634 -5.24227,9.04452 -0.0141,0.88865 -0.0176,1.60196 -0.0741,2.17311 -7.20372,-4.5593 -13.24328,-11.9754 -15.96672,-19.79472 1.25589,0.14182 2.18369,-0.21307 3.13267,-0.15345 2.63172,0.16439 7.77522,6.56484 13.54314,-3.69288 0.94191,-1.67675 -0.49036,-3.97334 0.46214,-5.65009 0.73025,-1.27706 2.65641,-1.74731 2.92805,-3.19617 0.27164,-1.42663 -1.31233,-2.69593 -1.09008,-4.1282 0.38805,-2.51884 1.48872,0.0847 0.12347,-4.94948 -1.26647,-4.66372 3.72181,-5.31283 3.66536,-11.087802 0.59972,0.04586 1.19945,0.112889 1.8027,0.197555 -0.22225,3.573637 0.74789,7.231947 2.79047,10.181167 3.01978,4.35328 -1.19592,4.18042 -3.47134,9.80158" />
    <path
       id="path5096"
       style="fill:#d3ae7e;fill-opacity:1;fill-rule:nonzero;stroke:none;stroke-width:0.0352778"
       d="m 42.725834,40.823104 c -0.27164,1.44886 -2.1978,1.91911 -2.92805,3.19617 -0.9525,1.67675 0.47977,3.97334 -0.46214,5.65009 -5.76792,10.25772 -10.91142,3.85727 -13.54314,3.69288 -0.94898,-0.0596 -1.87678,0.29527 -3.13267,0.15345 -1.72508,-4.95158 -2.11667,-10.06757 -0.63853,-14.72529 4.62845,-14.55914 13.81478,-18.887727 23.40328,-18.132782 0.0565,5.774972 -4.93183,6.424082 -3.66536,11.087802 1.36525,5.03414 0.26458,2.43064 -0.12347,4.94948 -0.22225,1.43227 1.36172,2.70157 1.09008,4.1282" />
    <path
       id="path5098"
       style="fill:#824a29;fill-opacity:1;fill-rule:nonzero;stroke:none;stroke-width:0.0352778"
       d="m 54.296944,61.019634 c 6.05367,-0.8315 8.92528,-13.01856 0.71967,-14.50834 9.16517,-0.4953 7.493,16.40346 -0.71967,14.50834" />
    <path
       id="path5100"
       style="fill:#986339;fill-opacity:1;fill-rule:nonzero;stroke:none;stroke-width:0.0352778"
       d="m 50.261174,55.595324 c -0.0106,-0.12206 -0.0247,-0.23213 -0.0247,-0.35384 -0.0952,-1.899 0.41275,-3.78248 1.19592,-5.47017 0.58914,-1.27423 1.40405,-2.52412 2.59997,-3.01801 0.30692,-0.13688 0.63853,-0.20532 0.97014,-0.2413 l 0.0141,-7.1e-4 c 1.59808,0.28963 3.12208,1.16205 4.10633,2.61267 0.95603,1.39171 1.2947,3.33481 0.82198,4.99252 -0.0317,0.28716 -0.0882,0.57961 -0.14464,0.8583 -0.48331,2.17735 -1.68981,4.20512 -3.429,5.29943 -0.63853,0.387 -1.35114,0.64594 -2.07434,0.74648 l -0.0106,-0.003 c -0.25047,-0.0603 -0.50094,-0.13864 -0.74083,-0.23777 -0.37748,-0.15557 -0.73378,-0.36618 -1.06892,-0.63359 -1.29117,-1.03646 -2.04258,-2.77001 -2.21544,-4.55083" />
    <path
       id="path5102"
       style="fill:#af885a;fill-opacity:1;fill-rule:nonzero;stroke:none;stroke-width:0.0352778"
       d="m 49.379224,55.379774 c -0.0106,-0.12206 -0.0247,-0.2353 -0.0247,-0.35419 -0.0988,-1.899 0.41275,-3.78248 1.19239,-5.47017 0.58913,-1.27423 1.40758,-2.52412 2.6035,-3.01801 0.31044,-0.13794 0.64558,-0.20779 0.98425,-0.24201 0.2928,0.0536 0.58208,0.12524 0.86783,0.21661 -0.33161,0.036 -0.66322,0.10442 -0.97014,0.2413 -1.19592,0.49389 -2.01083,1.74378 -2.59997,3.01801 -0.78317,1.68769 -1.29117,3.57117 -1.19592,5.47017 0,0.12171 0.0141,0.23178 0.0247,0.35384 0.17286,1.78082 0.92427,3.51437 2.21544,4.55083 0.33514,0.26741 0.69144,0.47802 1.06892,0.63359 -0.0423,0.0102 -0.0882,0.0152 -0.13053,0.0222 l -0.0106,-3.6e-4 c -0.64912,-0.15169 -1.26648,-0.43321 -1.80975,-0.87136 -1.29117,-1.03646 -2.04612,-2.77001 -2.21545,-4.55048" />
    <path
       id="path5104"
       style="fill:#a97c4f;fill-opacity:1;fill-rule:nonzero;stroke:none;stroke-width:0.0352778"
       d="m 50.261174,55.595324 c -0.0106,-0.12206 -0.0247,-0.23213 -0.0247,-0.35384 -0.0952,-1.899 0.41275,-3.78248 1.19592,-5.47017 0.58914,-1.27423 1.40405,-2.52412 2.59997,-3.01801 0.30692,-0.13688 0.63853,-0.20532 0.97014,-0.2413 1.27,0.41345 2.43417,1.21249 3.23497,2.39606 0.95956,1.39136 1.29822,3.33517 0.82197,4.99252 -0.0317,0.28716 -0.0847,0.57961 -0.14464,0.8583 -0.4833,2.17735 -1.68627,4.20512 -3.42547,5.29626 -0.59972,0.36583 -1.26294,0.61665 -1.9438,0.7246 -0.37748,-0.15557 -0.73378,-0.36618 -1.06892,-0.63359 -1.29117,-1.03646 -2.04258,-2.77001 -2.21544,-4.55083" />
    <path
       id="path5106"
       style="fill:#ad7748;fill-opacity:1;fill-rule:nonzero;stroke:none;stroke-width:0.0352778"
       d="m 29.807114,40.762074 c -2.78342,-0.99518 -5.00945,6.49499 -2.7305,9.2068 -4.24745,-1.67041 -0.82903,-13.20342 2.7305,-9.2068" />
    <path
       id="path5108"
       style="fill:#cb9e69;fill-opacity:1;fill-rule:nonzero;stroke:none;stroke-width:0.0352778"
       d="m 29.281474,50.052484 c -0.74083,0.1718 -1.36172,0.16898 -1.88736,0.0233 -0.10936,-0.0289 -0.2152,-0.067 -0.3175,-0.1076 -2.27895,-2.71145 -0.0529,-10.20233 2.7305,-9.20644 0.13405,0.14852 0.26458,0.3175 0.39864,0.51259 0.1905,0.27657 0.38453,0.60007 0.57503,0.98142 1.46402,2.927 0.51152,7.3339 -1.49931,7.79675" />
    <path
       id="path5110"
       style="fill:#dcbe93;fill-opacity:1;fill-rule:nonzero;stroke:none;stroke-width:0.0352778"
       d="m 29.923524,50.629274 c -0.89605,0.2039 -1.61572,0.15734 -2.20486,-0.0847 -0.11994,-0.14252 -0.2293,-0.29986 -0.32455,-0.46884 0.52564,0.1457 1.14653,0.14852 1.88736,-0.0233 2.01083,-0.46285 2.96333,-4.86975 1.49931,-7.79675 -0.1905,-0.38135 -0.38453,-0.70485 -0.57503,-0.98142 0.0811,0.0116 0.16228,0.0349 0.24341,0.0642 0.32456,0.36089 0.65264,0.84737 0.97367,1.49119 1.46403,2.92982 0.51153,7.33637 -1.49931,7.79957" />
    <path
       id="path5112"
       style="fill:#d4ae82;fill-opacity:1;fill-rule:nonzero;stroke:none;stroke-width:0.0352778"
       d="m 29.281474,50.052484 c -0.74083,0.1718 -1.36172,0.16898 -1.88736,0.0233 -1.66511,-2.91536 0.28928,-9.2703 2.81164,-8.80145 0.1905,0.27657 0.38453,0.60007 0.57503,0.98142 1.46402,2.927 0.51152,7.3339 -1.49931,7.79675" />
    <path
       id="path5114"
       style="fill:#69381f;fill-opacity:1;fill-rule:nonzero;stroke:none;stroke-width:0.0352778"
       d="m 69.286474,41.076404 c 0.0141,-0.36619 0.9525,-3.12914 0.85725,-3.54189 -0.76905,-5.11175 -5.29167,-5.41514 -5.96194,-3.45017 0.16227,-3.86644 5.99369,-2.94922 6.81919,2.54353 0.21167,1.77447 -0.60678,4.25309 -1.7145,4.44853" />
    <path
       id="path5116"
       style="fill:#7a492a;fill-opacity:1;fill-rule:nonzero;stroke:none;stroke-width:0.0352778"
       d="m 65.303614,38.342374 c -0.57856,-1.19239 -0.90664,-2.2225 -1.04775,-3.09033 -0.0459,-0.26459 -0.0706,-0.508 -0.0811,-0.73731 -0.007,-0.14111 -0.007,-0.27869 0,-0.41275 l 0.007,-0.0176 c 1.76389,-3.94758 8.07155,1.2947 5.90197,6.09036 -0.84314,1.87042 -3.22439,1.41922 -4.78014,-1.83233" />
    <path
       id="path5118"
       style="fill:#936b46;fill-opacity:1;fill-rule:nonzero;stroke:none;stroke-width:0.0352778"
       d="m 65.127224,39.255714 c -0.57855,-1.19204 -0.91017,-2.22567 -1.05128,-3.09351 -0.0705,-0.42686 -0.0952,-0.80433 -0.0776,-1.14653 l 0.004,-0.0176 c 0.0459,-0.17639 0.10231,-0.33514 0.17286,-0.48331 0.0106,0.22931 0.0353,0.47272 0.0811,0.73731 0.14111,0.86783 0.46919,1.89794 1.04775,3.09033 1.55575,3.25155 3.96522,2.80529 4.78014,0.9211 0.0106,0.11995 0.0106,0.23883 0.007,0.35349 -0.54328,2.32903 -3.26673,3.18875 -4.96359,-0.36125" />
    <path
       id="path5120"
       style="fill:#8f633f;fill-opacity:1;fill-rule:nonzero;stroke:none;stroke-width:0.0352778"
       d="m 65.303614,38.342374 c -0.57856,-1.19239 -0.90664,-2.2225 -1.04775,-3.09033 -0.0459,-0.26459 -0.0706,-0.508 -0.0811,-0.73731 1.09714,-2.30717 5.06589,-0.87842 5.79261,3.92994 0.0635,0.28223 0.10584,0.55387 0.11642,0.8188 -0.81492,1.88419 -3.22439,2.33045 -4.78014,-0.9211" />
    <path
       id="path5122"
       style="fill:#ad7748;fill-opacity:1;fill-rule:nonzero;stroke:none;stroke-width:0.0352778"
       d="m 38.330224,25.903424 c -0.40217,-0.10583 -1.06892,0.14111 -2.05669,1.01248 -1.13595,0.99836 -1.4217,2.0955 -0.98425,2.52588 -0.77612,-0.22577 -0.97014,-1.64394 0.34925,-2.80458 1.25941,-1.10419 2.36008,-1.0795 2.69169,-0.73378" />
    <path
       id="path5124"
       style="fill:#cb9e69;fill-opacity:1;fill-rule:nonzero;stroke:none;stroke-width:0.0352778"
       d="m 37.652894,28.439904 c -0.81845,0.66322 -1.47109,0.96661 -1.94381,1.02658 -0.15875,0.0176 -0.29986,0.007 -0.4198,-0.0282 -0.43745,-0.42686 -0.1517,-1.524 0.98425,-2.52236 0.98777,-0.87137 1.65805,-1.11831 2.05669,-1.01248 l 0.007,0.004 c 0.0529,0.06 0.0988,0.127 0.13052,0.20814 0.254,0.59972 -0.0917,1.73919 -0.81491,2.32481" />
    <path
       id="path5126"
       style="fill:#dcbe93;fill-opacity:1;fill-rule:nonzero;stroke:none;stroke-width:0.0352778"
       d="m 38.196164,28.648034 c -1.09361,0.88548 -1.89794,1.13595 -2.36008,0.99837 -0.0529,-0.0494 -0.0953,-0.11289 -0.127,-0.17992 0.47272,-0.06 1.12536,-0.36336 1.94381,-1.02658 0.72319,-0.58562 1.06891,-1.72509 0.81491,-2.32481 0.15875,-0.0353 0.29281,-0.0353 0.4057,-0.004 l 0.007,0.004 c 0.4692,0.49389 0.13053,1.86972 -0.68439,2.53294" />
    <path
       id="path5128"
       style="fill:#d4ae82;fill-opacity:1;fill-rule:nonzero;stroke:none;stroke-width:0.0352778"
       d="m 37.652894,28.439904 c -0.81845,0.66322 -1.47109,0.96661 -1.94381,1.02658 -0.23283,-0.508 0.10936,-1.46756 1.10772,-2.34245 0.70909,-0.62794 1.25236,-0.9278 1.651,-1.00894 0.254,0.59972 -0.0917,1.73919 -0.81491,2.32481" />
    <path
       id="path5130"
       style="fill:#9b6439;fill-opacity:1;fill-rule:nonzero;stroke:none;stroke-width:0.0352778"
       d="m 35.631474,64.319874 c -1.08303,1.143 -3.77472,-0.17886 -3.59481,-2.78836 0.004,-0.87912 0.37395,-1.47814 0.88548,-1.76847 -0.33867,0.33196 -0.55739,0.8449 -0.56092,1.52329 -0.16228,2.37913 2.05669,3.68794 3.27025,3.03354" />
    <path
       id="path5132"
       style="fill:#b78551;fill-opacity:1;fill-rule:nonzero;stroke:none;stroke-width:0.0352778"
       d="m 35.751414,61.295504 c 0.24342,0.72637 0.33867,1.3268 0.3175,1.80975 -0.0141,0.39547 -0.0988,0.7112 -0.24341,0.95427 -0.0564,0.0988 -0.12347,0.18344 -0.19756,0.25964 -1.21003,0.65687 -3.429,-0.65193 -3.26672,-3.03283 0.004,-0.68015 0.22225,-1.19027 0.55739,-1.52329 0.0988,-0.0554 0.19755,-0.0967 0.29633,-0.133 0.89606,-0.28716 2.04964,0.23354 2.53647,1.66546" />
    <path
       id="path5134"
       style="fill:#caa77a;fill-opacity:1;fill-rule:nonzero;stroke:none;stroke-width:0.0352778"
       d="m 36.245304,60.920154 c 0.24695,0.7246 0.3422,1.32856 0.32103,1.81151 -0.0176,0.55139 -0.18344,0.94862 -0.43744,1.21426 -0.0952,0.0519 -0.19756,0.0914 -0.30339,0.1136 0.14464,-0.24307 0.2293,-0.5588 0.24341,-0.95427 0.0212,-0.48295 -0.0741,-1.08338 -0.3175,-1.80975 -0.48683,-1.43192 -1.64041,-1.95262 -2.53647,-1.66546 0.06,-0.0882 0.13053,-0.16757 0.20461,-0.24024 0.9137,-0.53058 2.28953,-0.0631 2.82575,1.53035" />
    <path
       id="path5136"
       style="fill:#c59a69;fill-opacity:1;fill-rule:nonzero;stroke:none;stroke-width:0.0352778"
       d="m 35.751414,61.295504 c 0.24342,0.72637 0.33867,1.3268 0.3175,1.80975 -0.0141,0.39547 -0.0988,0.7112 -0.24341,0.95427 -1.24178,0.32667 -3.11856,-0.95497 -2.96686,-3.14643 0.004,-0.5334 0.14111,-0.96026 0.3563,-1.28305 0.89606,-0.28716 2.04964,0.23354 2.53647,1.66546" />
    <path
       id="path5138"
       style="fill:#69381f;fill-opacity:1;fill-rule:nonzero;stroke:none;stroke-width:0.0352778"
       d="m 72.140444,55.595674 c 0.9137,0.83362 2.4765,0.28222 3.04448,-1.44356 0.43744,-1.32821 0.20108,-2.53577 -0.32456,-3.31188 0.73731,0.71155 1.47108,2.08809 0.9525,3.67136 -0.64205,1.95086 -2.8575,2.42852 -3.67242,1.08408" />
    <path
       id="path5140"
       style="fill:#7a492a;fill-opacity:1;fill-rule:nonzero;stroke:none;stroke-width:0.0352778"
       d="m 71.812364,53.321314 c 0.0388,-0.32843 0.0952,-0.63358 0.16228,-0.89182 0.32103,-1.26259 0.889,-1.88806 1.48167,-2.04399 0.48683,-0.13229 0.9913,0.0497 1.40405,0.45226 0.52564,0.77787 0.762,1.9879 0.32456,3.31223 -0.56798,1.7279 -2.13431,2.28 -3.04448,1.44639 -0.30691,-0.5013 -0.45508,-1.25166 -0.32808,-2.27507" />
    <path
       id="path5142"
       style="fill:#936b46;fill-opacity:1;fill-rule:nonzero;stroke:none;stroke-width:0.0352778"
       d="m 71.177364,53.322734 c 0.0388,-0.32844 0.0917,-0.63359 0.16228,-0.89183 0.44097,-1.70885 1.31939,-2.25037 2.11667,-2.0454 -0.59267,0.15593 -1.16064,0.7814 -1.48167,2.04399 -0.067,0.25824 -0.12347,0.56339 -0.16228,0.89182 -0.127,1.02341 0.0212,1.77377 0.32808,2.27507 -0.31397,-0.16334 -0.58561,-0.4819 -0.77611,-0.88512 -0.1658,-0.3422 -0.26811,-0.75953 -0.18697,-1.38853" />
    <path
       id="path5144"
       style="fill:#8f633f;fill-opacity:1;fill-rule:nonzero;stroke:none;stroke-width:0.0352778"
       d="m 71.812364,53.321314 c 0.0388,-0.32843 0.0952,-0.63358 0.16228,-0.89182 0.32103,-1.26259 0.889,-1.88806 1.48167,-2.04399 0.27163,0.0698 0.53622,0.22895 0.76905,0.45367 0.52564,0.77787 0.762,1.9879 0.32103,3.31188 -0.45861,1.40405 -1.44286,1.83762 -2.28953,1.50142 -0.0388,-0.0138 -0.0776,-0.0325 -0.11642,-0.0561 -0.30691,-0.5013 -0.45508,-1.25166 -0.32808,-2.27507" />
    <path
       id="path5146"
       style="fill:#b0895b;fill-opacity:1;fill-rule:nonzero;stroke:none;stroke-width:0.0352778"
       d="m 64.781504,57.237154 c -0.61383,2.32621 -2.63172,1.5808 -2.28247,-0.1584 0.49741,-2.51425 2.57527,-0.94509 2.28247,0.1584" />
    <path
       id="path5148"
       style="fill:#b0895b;fill-opacity:1;fill-rule:nonzero;stroke:none;stroke-width:0.0352778"
       d="m 60.594034,59.655444 c 1.03011,-0.94368 1.78152,0.0526 1.06539,0.7934 -1.03364,1.07103 -1.55575,-0.34608 -1.06539,-0.7934" />
    <path
       id="path5150"
       style="fill:#b0895b;fill-opacity:1;fill-rule:nonzero;stroke:none;stroke-width:0.0352778"
       d="m 57.810614,61.748474 c 0.71614,-0.65793 1.24178,0.0367 0.74436,0.55316 -0.72319,0.74683 -1.08655,-0.24095 -0.74436,-0.55316" />
    <path
       id="path5152"
       style="fill:#b0895b;fill-opacity:1;fill-rule:nonzero;stroke:none;stroke-width:0.0352778"
       d="m 63.462114,52.349414 c 0.97014,-0.93557 1.88736,0.28575 1.22767,1.03223 -0.9525,1.0795 -1.68628,-0.58843 -1.22767,-1.03223" />
    <path
       id="path5154"
       style="fill:#b0895b;fill-opacity:1;fill-rule:nonzero;stroke:none;stroke-width:0.0352778"
       d="m 60.047224,45.910164 c -0.91722,0.10654 -0.92075,-0.86713 -0.24694,-0.99519 0.97014,-0.18485 0.68439,0.94439 0.24694,0.99519" />
    <path
       id="path5156"
       style="fill:#cba87b;fill-opacity:1;fill-rule:nonzero;stroke:none;stroke-width:0.0352778"
       d="m 37.504724,59.356994 c 0.86078,-0.58702 1.37231,0.38559 0.76553,0.86466 -0.87489,0.69215 -1.17828,-0.58632 -0.76553,-0.86466" />
    <path
       id="path5158"
       style="fill:#cba87b;fill-opacity:1;fill-rule:nonzero;stroke:none;stroke-width:0.0352778"
       d="m 37.896304,60.986474 c 0.5327,-0.36301 0.8502,0.23883 0.47625,0.53516 -0.54327,0.42828 -0.73025,-0.363 -0.47625,-0.53516" />
    <path
       id="path5160"
       style="fill:#dcbe93;fill-opacity:1;fill-rule:nonzero;stroke:none;stroke-width:0.0352778"
       d="m 38.291414,30.994014 c 0.81845,-0.79023 1.59809,0.24341 1.0407,0.87489 -0.80786,0.91369 -1.42875,-0.49742 -1.0407,-0.87489" />
    <path
       id="path5162"
       style="fill:#dcbe93;fill-opacity:1;fill-rule:nonzero;stroke:none;stroke-width:0.0352778"
       d="m 36.905004,46.839374 c 1.38994,-0.94368 2.20839,0.62019 1.23472,1.3903 -1.40758,1.11337 -1.89442,-0.94262 -1.23472,-1.3903" />
    <path
       id="path5164"
       style="fill:#dcbe93;fill-opacity:1;fill-rule:nonzero;stroke:none;stroke-width:0.0352778"
       d="m 40.048254,29.716954 c 0.43039,-0.28928 0.68439,0.19403 0.381,0.43039 -0.43392,0.34572 -0.58561,-0.28928 -0.381,-0.43039" />
    <path
       id="path5166"
       style="fill:#dcbe93;fill-opacity:1;fill-rule:nonzero;stroke:none;stroke-width:0.0352778"
       d="m 40.284614,27.840174 c 0.56444,-0.38452 0.89605,0.25048 0.50094,0.56445 -0.5715,0.45155 -0.76905,-0.38453 -0.50094,-0.56445" />
    <path
       id="path5168"
       style="fill:#dcbe93;fill-opacity:1;fill-rule:nonzero;stroke:none;stroke-width:0.0352778"
       d="m 34.206254,50.306124 c 0.88194,-0.59901 1.40405,0.3937 0.78316,0.88265 -0.89252,0.70662 -1.20297,-0.59831 -0.78316,-0.88265" />
    <path
       id="path5170"
       style="fill:#946d48;fill-opacity:1;fill-rule:nonzero;stroke:none;stroke-width:0.0352778"
       d="m 66.915814,67.543904 c 0.53269,-0.363 0.85019,0.23883 0.47625,0.53517 -0.54328,0.42827 -0.73025,-0.36301 -0.47625,-0.53517" />
    <path
       id="path5172"
       style="fill:#946d48;fill-opacity:1;fill-rule:nonzero;stroke:none;stroke-width:0.0352778"
       d="m 74.892114,48.720744 c 1.05833,-0.71755 1.68275,0.47131 0.94192,1.05692 -1.07245,0.84632 -1.44286,-0.71684 -0.94192,-1.05692" />
    <path
       id="path5174"
       style="fill:#946d48;fill-opacity:1;fill-rule:nonzero;stroke:none;stroke-width:0.0352778"
       d="m 75.918694,50.564004 c 0.51153,-0.34713 0.81139,0.22825 0.45156,0.51153 -0.51506,0.40958 -0.69497,-0.34678 -0.45156,-0.51153" />
    <path
       id="path5176"
       style="fill:#946d48;fill-opacity:1;fill-rule:nonzero;stroke:none;stroke-width:0.0352778"
       d="m 58.484424,72.374144 c 0.53622,-0.36301 0.85019,0.23883 0.47625,0.53516 -0.53975,0.42827 -0.73025,-0.36301 -0.47625,-0.53516" />
    <path
       id="path5178"
       style="fill:#946d48;fill-opacity:1;fill-rule:nonzero;stroke:none;stroke-width:0.0352778"
       d="m 59.722674,74.597704 c 0.88194,-0.59902 1.40052,0.3937 0.78316,0.88229 -0.89605,0.70697 -1.20297,-0.59831 -0.78316,-0.88229" />
    <path
       id="path5180"
       style="fill:#946d48;fill-opacity:1;fill-rule:nonzero;stroke:none;stroke-width:0.0352778"
       d="m 63.606754,71.570864 c -0.61383,2.32657 -2.63172,1.5808 -2.286,-0.15839 0.50094,-2.51425 2.57528,-0.9451 2.286,0.15839" />
  </g>
</svg>
