<svg xmlns="http://www.w3.org/2000/svg" xmlns:xlink="http://www.w3.org/1999/xlink" width="800" height="800" version="1.0"><defs><linearGradient id="e"><stop offset="0" style="stop-color:#8f5902;stop-opacity:1"/><stop offset="1" style="stop-color:#c4a000;stop-opacity:1"/></linearGradient><linearGradient id="d"><stop offset="0" style="stop-color:#fff;stop-opacity:1"/><stop offset=".073" style="stop-color:#fff;stop-opacity:1"/><stop offset=".727" style="stop-color:#c17d11;stop-opacity:1"/><stop offset="1" style="stop-color:#e9b96e;stop-opacity:1"/></linearGradient><linearGradient id="b"><stop offset="0" style="stop-color:#c4a000;stop-opacity:1"/><stop offset=".618" style="stop-color:#fce94f;stop-opacity:1"/><stop offset="1" style="stop-color:#c4a000;stop-opacity:1"/></linearGradient><linearGradient id="f"><stop offset="0" style="stop-color:#fff;stop-opacity:1"/><stop offset="1" style="stop-color:#fff;stop-opacity:0"/></linearGradient><linearGradient id="i"><stop offset="0" style="stop-color:#000;stop-opacity:1"/><stop offset="1" style="stop-color:#000;stop-opacity:0"/></linearGradient><linearGradient id="a"><stop offset="0" style="stop-color:#fff;stop-opacity:1"/><stop offset="1" style="stop-color:#fff;stop-opacity:0"/></linearGradient><linearGradient id="g"><stop offset="0" style="stop-color:#fff;stop-opacity:1"/><stop offset="1" style="stop-color:#fff;stop-opacity:0"/></linearGradient><linearGradient id="h"><stop offset="0" style="stop-color:#d3bc00;stop-opacity:1"/><stop offset="1" style="stop-color:#fdf188;stop-opacity:1"/></linearGradient><linearGradient id="c"><stop offset="0" style="stop-color:#fff;stop-opacity:1"/><stop offset="1" style="stop-color:#fff;stop-opacity:0"/></linearGradient><linearGradient xlink:href="#b" id="l" x1="43.3" x2="5.254" y1="11.686" y2="11.686" gradientTransform="matrix(0 -9.65517 12.1891 0 457.544 631.35)" gradientUnits="userSpaceOnUse"/><linearGradient xlink:href="#h" id="m" x1="26.965" x2="15.96" y1="10.081" y2="20.609" gradientTransform="matrix(0 -9.32931 10.1593 0 476.847 623.879)" gradientUnits="userSpaceOnUse"/><linearGradient xlink:href="#f" id="n" x1="18.247" x2="46.328" y1="16.375" y2="16.375" gradientTransform="matrix(0 -9.65517 12.1891 0 457.544 631.35)" gradientUnits="userSpaceOnUse"/><linearGradient xlink:href="#f" id="q" x1="16.205" x2="21" y1="1003.106" y2="1018.362" gradientTransform="matrix(0 -10.2941 12.19115 0 -12164.876 605.881)" gradientUnits="userSpaceOnUse"/><linearGradient xlink:href="#f" id="r" x1="10.895" x2="38.514" y1="8.662" y2="23.963" gradientTransform="matrix(0 -10.28397 12.1805 0 91.88 646.813)" gradientUnits="userSpaceOnUse"/><linearGradient xlink:href="#b" id="s" x1="45.631" x2="6.123" y1="17.86" y2="17.86" gradientTransform="matrix(0 -9.5748 12.1805 0 92.102 629.31)" gradientUnits="userSpaceOnUse"/><linearGradient xlink:href="#f" id="t" x1="18.87" x2="42.269" y1="39.25" y2="39.25" gradientTransform="matrix(0 -9.52203 12.24375 0 89.354 628.53)" gradientUnits="userSpaceOnUse"/><linearGradient xlink:href="#b" id="u" x1="45.631" x2="6.123" y1="17.86" y2="17.86" gradientTransform="matrix(0 -10.28372 12.1805 0 92.102 646.81)" gradientUnits="userSpaceOnUse"/><linearGradient xlink:href="#f" id="v" x1="18.87" x2="42.269" y1="39.25" y2="39.25" gradientTransform="matrix(0 -10.28377 12.23042 0 90.131 646.81)" gradientUnits="userSpaceOnUse"/><radialGradient xlink:href="#i" id="j" cx="24" cy="18.468" r="14" fx="24" fy="18.468" gradientTransform="matrix(0 -12.50345 4.66397 0 598.59 700)" gradientUnits="userSpaceOnUse"/><radialGradient xlink:href="#i" id="k" cx="24" cy="18.468" r="14" fx="24" fy="18.468" gradientTransform="matrix(0 -9.65517 3.70198 0 508.04 631.35)" gradientUnits="userSpaceOnUse"/><radialGradient xlink:href="#f" id="o" cx="18.034" cy="27.858" r="15.447" fx="18.034" fy="27.858" gradientTransform="matrix(-2.72977 -11.37017 3.3039 -.49603 626.244 660.596)" gradientUnits="userSpaceOnUse"/><radialGradient xlink:href="#d" id="p" cx="16.686" cy="13.116" r="17.012" fx="16.686" fy="13.116" gradientTransform="matrix(23.8673 5.39965 -6.07412 19.14138 -271.062 58.835)" gradientUnits="userSpaceOnUse"/></defs><path d="M619.449 410.156c1.187 71.029 14.701 132.315 33.894 164.844h62.767C736.227 540.91 750 475.37 750 400s-13.78-140.91-33.89-175h-62.767c-20.124 34.09-33.894 99.63-33.894 175 0 3.45-.055 6.75 0 10.156z" style="opacity:.55;fill:url(#j);stroke-width:13.2733"/><path d="M524.595 407.824c.935 54.777 11.666 102.04 26.903 127.127h49.82c15.968-26.329 26.903-76.835 26.903-134.951 0-58.133-10.935-108.62-26.902-134.968h-49.821C535.53 291.38 524.595 341.867 524.595 400c0 2.654-.044 5.198 0 7.825z" style="opacity:.55;fill:url(#k);stroke-width:13.2733"/><path d="M536.897 415.23c3.747 75.333 35.012 134.2 72.86 134.2h36.621c40.376 0 73.242-66.78 73.242-149.278 0-82.498-32.865-149.58-73.242-149.58h-36.62c-40.376 0-72.86 67.082-72.86 149.58 0 5.157-.252 10.057-.022 15.08z" style="fill:url(#l);stroke:#c4a000;stroke-width:10.8841;stroke-linecap:round"/><path d="M605.991 255.393c33.646 0 58.802 64.78 58.802 144.607 0 79.81-27.306 144.59-60.956 144.59-33.645 0-60.955-64.78-60.955-144.59 0-79.827 36.983-144.607 63.11-144.607z" style="fill:url(#m);stroke-width:13.2733"/><path d="M548.977 414.165c3.273 70.508 30.445 125.606 63.369 125.606h31.847c35.113 0 63.697-62.504 63.697-139.771 0-77.163-28.586-139.948-63.697-139.948h-31.847c-35.117 0-63.369 62.707-63.369 139.948 0 4.88-.218 9.465 0 14.166z" style="opacity:.55;fill:none;stroke:url(#n);stroke-width:10.8841;stroke-linecap:round"/><path d="M599.868 259.901c34.836 0 63.081 62.651 63.081 139.935 0 77.285-28.24 139.935-63.08 139.935s-62.994-62.65-62.994-139.935c0-77.284 28.154-139.935 62.993-139.935z" style="fill:none;stroke:url(#o);stroke-width:10.8841;stroke-linecap:round"/><path d="M304.771 250.71c137.499 0 249.16 66.882 249.16 149.29 0 82.407-111.661 149.288-249.16 149.288-137.669 0-249.329-66.881-249.329-149.288 0-82.408 111.66-149.29 249.244-149.29z" style="fill:url(#p);stroke:url(#rg2-9);stroke-width:10.8841;stroke-linecap:round"/><path d="M86.783 400c.002 31.14 20.919 60.612 59.816 83.96 38.967 23.349 95.45 43.639 140.04 18.98 74.288-35.618-38.77-150.172 18.064-225.828-62.793 0-119.136 15.575-158.103 38.925-38.897 23.348-59.816 52.82-59.816 83.962z" style="fill:url(#q);stroke-width:13.2733"/><path d="M67.733 400c0 76.638 104.95 138.793 234.682 138.97 20.8 5.148 51.276-56.618 51.276-138.97 0-82.354-30.477-144.118-51.276-138.971-129.68.122-234.682 62.32-234.682 138.971z" style="opacity:.71;fill:none;stroke:url(#r);stroke-width:10.8841;stroke-linecap:round"/><path d="M402.454 538.97h170.678c33.685 0 60.955-61.805 60.955-138.671 0-76.867-27.27-139.271-60.955-139.271H402.454c33.718 0 60.955 62.328 60.956 139.27 0 76.943-27.241 138.673-60.956 138.673z" style="fill:url(#s);stroke:#c4a000;stroke-width:10.8841;stroke-linecap:round"/><path d="M439.571 528.377c90.332.1 132.734.292 133.305.292 24.486 0 49.018-61.17 49.018-128.377 0-69.428-24.533-128.972-49.018-128.972-.432 0-44.071-.007-133.848 0 21.667 24.789 35.982 70.534 35.81 128.972-.165 57.633-13.585 103.805-35.267 128.08z" style="opacity:.71;fill:none;stroke:url(#t);stroke-width:10.8841;stroke-linecap:round"/><path d="M304.924 549.262h219.44c33.686 0 60.955-66.382 60.955-148.941s-27.266-149.584-60.954-149.584h-219.44c33.717 0 60.952 66.944 60.953 149.584 0 82.64-27.24 148.94-60.954 148.94z" style="fill:url(#u);stroke:#c4a000;stroke-width:10.8841;stroke-linecap:round"/><path d="M342.04 538.647c84.552.102 165.327.292 176.23.32h5.893c24.458 0 48.965-66.063 48.965-138.646 0-74.982-24.504-139.29-48.965-139.29-.431 0-92.987-.007-182.666 0 21.645 26.772 35.944 76.177 35.775 139.29-.166 62.234-13.572 112.109-35.232 138.325z" style="opacity:.71;fill:none;stroke:url(#v);stroke-width:10.8841;stroke-linecap:round"/></svg>