<?xml version="1.0" encoding="UTF-8" standalone="no"?>
<svg
   version="1.0"
   width="800"
   height="800"
   id="svg2"
   sodipodi:docname="bullet-empty.svg"
   inkscape:version="1.2.1 (9c6d41e410, 2022-07-14)"
   xmlns:inkscape="http://www.inkscape.org/namespaces/inkscape"
   xmlns:sodipodi="http://sodipodi.sourceforge.net/DTD/sodipodi-0.dtd"
   xmlns:xlink="http://www.w3.org/1999/xlink"
   xmlns="http://www.w3.org/2000/svg"
   xmlns:svg="http://www.w3.org/2000/svg">
  <sodipodi:namedview
     id="namedview95"
     pagecolor="#505050"
     bordercolor="#ffffff"
     borderopacity="1"
     inkscape:showpageshadow="0"
     inkscape:pageopacity="0"
     inkscape:pagecheckerboard="1"
     inkscape:deskcolor="#505050"
     showgrid="false"
     inkscape:zoom="0.54492188"
     inkscape:cx="197.27598"
     inkscape:cy="627.6129"
     inkscape:window-width="1920"
     inkscape:window-height="1017"
     inkscape:window-x="-8"
     inkscape:window-y="-8"
     inkscape:window-maximized="1"
     inkscape:current-layer="svg2" />
  <defs
     id="defs4">
    <linearGradient
       id="lg1">
      <stop
         style="stop-color:#8f5902;stop-opacity:1"
         offset="0"
         id="stop2" />
      <stop
         style="stop-color:#c4a000;stop-opacity:1"
         offset="1"
         id="stop4" />
    </linearGradient>
    <linearGradient
       id="lg2">
      <stop
         style="stop-color:#ffffff;stop-opacity:1"
         offset="0"
         id="stop7" />
      <stop
         style="stop-color:#ffffff;stop-opacity:1"
         offset="0.0727"
         id="stop9" />
      <stop
         style="stop-color:#c17d11;stop-opacity:1"
         offset="0.727"
         id="stop11" />
      <stop
         style="stop-color:#e9b96e;stop-opacity:1"
         offset="1"
         id="stop13" />
    </linearGradient>
    <linearGradient
       id="lg3">
      <stop
         style="stop-color:#c4a000;stop-opacity:1"
         offset="0"
         id="stop16" />
      <stop
         style="stop-color:#fce94f;stop-opacity:1"
         offset="0.618"
         id="stop18" />
      <stop
         style="stop-color:#c4a000;stop-opacity:1"
         offset="1"
         id="stop20" />
    </linearGradient>
    <linearGradient
       id="lg4">
      <stop
         style="stop-color:#ffffff;stop-opacity:1"
         offset="0"
         id="stop23" />
      <stop
         style="stop-color:#ffffff;stop-opacity:0"
         offset="1"
         id="stop25" />
    </linearGradient>
    <linearGradient
       id="lg5">
      <stop
         style="stop-color:#000000;stop-opacity:1"
         offset="0"
         id="stop28" />
      <stop
         style="stop-color:#000000;stop-opacity:0"
         offset="1"
         id="stop30" />
    </linearGradient>
    <linearGradient
       id="lg6">
      <stop
         style="stop-color:#ffffff;stop-opacity:1"
         offset="0"
         id="stop33" />
      <stop
         style="stop-color:#ffffff;stop-opacity:0"
         offset="1"
         id="stop35" />
    </linearGradient>
    <linearGradient
       id="lg7">
      <stop
         style="stop-color:#ffffff;stop-opacity:1"
         offset="0"
         id="stop38" />
      <stop
         style="stop-color:#ffffff;stop-opacity:0"
         offset="1"
         id="stop40" />
    </linearGradient>
    <linearGradient
       id="lg8">
      <stop
         style="stop-color:#d3bc00;stop-opacity:1"
         offset="0"
         id="stop43" />
      <stop
         style="stop-color:#fdf188;stop-opacity:1"
         offset="1"
         id="stop45" />
    </linearGradient>
    <linearGradient
       id="lg9">
      <stop
         style="stop-color:#ffffff;stop-opacity:1"
         offset="0"
         id="stop48" />
      <stop
         style="stop-color:#ffffff;stop-opacity:0"
         offset="1"
         id="stop50" />
    </linearGradient>
    <linearGradient
       x1="18.870001"
       y1="39.25"
       x2="42.268871"
       y2="39.25"
       id="lg62"
       xlink:href="#lg6"
       gradientUnits="userSpaceOnUse"
       gradientTransform="matrix(0.8814662,0,0,0.87294807,-1.1551725,12.901563)" />
    <linearGradient
       x1="45.631165"
       y1="17.859573"
       x2="6.12321"
       y2="17.859573"
       id="lg32"
       xlink:href="#lg3"
       gradientUnits="userSpaceOnUse"
       gradientTransform="matrix(0.88146206,0,0,0.86938472,-1.1551725,13.042253)" />
    <linearGradient
       x1="18.870001"
       y1="39.25"
       x2="42.268871"
       y2="39.25"
       id="lg63"
       xlink:href="#lg6"
       gradientUnits="userSpaceOnUse"
       gradientTransform="matrix(0.81617379,0,0,0.87389934,0.4117689,12.846133)" />
    <linearGradient
       x1="45.631165"
       y1="17.859573"
       x2="6.1232162"
       y2="17.859573"
       id="lg33"
       xlink:href="#lg3"
       gradientUnits="userSpaceOnUse"
       gradientTransform="matrix(0.82069654,0,0,0.86938472,0.3448276,13.042253)" />
    <linearGradient
       x1="10.8952"
       y1="8.661705"
       x2="38.514122"
       y2="23.9629"
       id="lg64"
       xlink:href="#lg6"
       gradientUnits="userSpaceOnUse"
       gradientTransform="matrix(0.88148275,0,0,0.86938472,-1.1554621,13.026384)" />
    <linearGradient
       x1="16.205299"
       y1="1003.1057"
       x2="21"
       y2="1018.3622"
       id="lg92"
       xlink:href="#lg9"
       gradientUnits="userSpaceOnUse"
       gradientTransform="matrix(0.88235171,0,0,0.87014531,2.3530069,-861.80162)" />
    <radialGradient
       cx="16.686159"
       cy="13.116223"
       r="17.011629"
       fx="16.686159"
       fy="13.116223"
       id="rg1"
       xlink:href="#lg2"
       gradientUnits="userSpaceOnUse"
       gradientTransform="matrix(-0.46282758,1.7035319,-1.6406896,-0.43354104,49.242718,-12.878615)" />
    <radialGradient
       cx="31.578047"
       cy="1008.6027"
       r="15"
       fx="31.578047"
       fy="1008.6027"
       id="rg2"
       xlink:href="#lg1"
       gradientUnits="userSpaceOnUse"
       gradientTransform="matrix(0,0.34217547,-1.2319035,0,1262.4912,13.860281)" />
    <radialGradient
       cx="18.033701"
       cy="27.857864"
       r="15.44688"
       fx="18.033707"
       fy="27.857864"
       id="rg3"
       xlink:href="#lg4"
       gradientUnits="userSpaceOnUse"
       gradientTransform="matrix(0.97458619,-0.1948382,0.04251725,0.23581674,-2.336831,51.166743)" />
    <linearGradient
       x1="18.247496"
       y1="16.375"
       x2="46.327831"
       y2="16.375"
       id="lg72"
       xlink:href="#lg7"
       gradientUnits="userSpaceOnUse"
       gradientTransform="matrix(0.8275862,0,0,0.86999944,0.1699999,39.125773)" />
    <linearGradient
       x1="26.965128"
       y1="10.0805"
       x2="15.96048"
       y2="20.609072"
       id="lg82"
       xlink:href="#lg8"
       gradientUnits="userSpaceOnUse"
       gradientTransform="matrix(0.79965517,0,0,0.72512109,0.8103448,40.503467)" />
    <linearGradient
       x1="43.299999"
       y1="11.686158"
       x2="5.2540002"
       y2="11.686158"
       id="lg34"
       xlink:href="#lg3"
       gradientUnits="userSpaceOnUse"
       gradientTransform="matrix(0.8275862,0,0,0.86999944,0.1699999,39.125773)" />
    <radialGradient
       cx="24"
       cy="18.467501"
       r="14"
       fx="24"
       fy="18.467501"
       id="rg4"
       xlink:href="#lg5"
       gradientUnits="userSpaceOnUse"
       gradientTransform="matrix(0.8275862,0,0,0.26422978,0.1699999,42.729833)" />
    <radialGradient
       cx="24"
       cy="18.467501"
       r="14"
       fx="24"
       fy="18.467501"
       id="rg5"
       xlink:href="#lg5"
       gradientUnits="userSpaceOnUse"
       gradientTransform="matrix(1.0717241,0,0,0.33289201,-5.714283,49.192908)" />
    <radialGradient
       cx="24"
       cy="18.467501"
       r="14"
       fx="24"
       fy="18.467501"
       id="rg5-6"
       xlink:href="#lg5"
       gradientUnits="userSpaceOnUse"
       gradientTransform="matrix(0,-12.503447,4.6639745,0,598.58973,699.99961)" />
    <radialGradient
       cx="24"
       cy="18.467501"
       r="14"
       fx="24"
       fy="18.467501"
       id="rg4-5"
       xlink:href="#lg5"
       gradientUnits="userSpaceOnUse"
       gradientTransform="matrix(0,-9.655173,3.7019832,0,508.03912,631.34971)" />
    <linearGradient
       x1="43.299999"
       y1="11.686158"
       x2="5.2540002"
       y2="11.686158"
       id="lg34-6"
       xlink:href="#lg3"
       gradientUnits="userSpaceOnUse"
       gradientTransform="matrix(0,-9.655173,12.189109,0,457.54446,631.34971)" />
    <linearGradient
       x1="26.965128"
       y1="10.0805"
       x2="15.96048"
       y2="20.609072"
       id="lg82-0"
       xlink:href="#lg8"
       gradientUnits="userSpaceOnUse"
       gradientTransform="matrix(0,-9.3293115,10.159292,0,476.84676,623.87901)" />
    <linearGradient
       x1="18.247496"
       y1="16.375"
       x2="46.327831"
       y2="16.375"
       id="lg72-0"
       xlink:href="#lg4"
       gradientUnits="userSpaceOnUse"
       gradientTransform="matrix(0,-9.655173,12.189109,0,457.54446,631.34971)" />
    <radialGradient
       cx="18.033701"
       cy="27.857864"
       r="15.44688"
       fx="18.033707"
       fy="27.857864"
       id="rg3-6"
       xlink:href="#lg4"
       gradientUnits="userSpaceOnUse"
       gradientTransform="matrix(-2.7297748,-11.370173,3.3039037,-0.49603457,626.24412,660.59601)" />
    <radialGradient
       cx="16.686159"
       cy="13.116223"
       r="17.011629"
       fx="16.686159"
       fy="13.116223"
       id="rg1-8"
       xlink:href="#lg2"
       gradientUnits="userSpaceOnUse"
       gradientTransform="matrix(23.867294,5.3996535,-6.0741175,19.141377,-271.06177,58.8346)" />
    <radialGradient
       cx="31.578047"
       cy="1008.6027"
       r="15"
       fx="31.578047"
       fy="1008.6027"
       id="rg2-9"
       xlink:href="#lg1"
       gradientUnits="userSpaceOnUse"
       gradientTransform="matrix(4.7940432,0,0,14.372208,103.56265,-14095.73)" />
    <linearGradient
       x1="16.205299"
       y1="1003.1057"
       x2="21"
       y2="1018.3622"
       id="lg92-0"
       xlink:href="#lg4"
       gradientUnits="userSpaceOnUse"
       gradientTransform="matrix(0,-10.294104,12.191148,0,-12164.876,605.88146)" />
    <linearGradient
       x1="10.8952"
       y1="8.661705"
       x2="38.514122"
       y2="23.9629"
       id="lg64-2"
       xlink:href="#lg4"
       gradientUnits="userSpaceOnUse"
       gradientTransform="matrix(0,-10.283966,12.180495,0,91.87949,646.81331)" />
    <linearGradient
       x1="45.631165"
       y1="17.859573"
       x2="6.1232162"
       y2="17.859573"
       id="lg33-1"
       xlink:href="#lg3"
       gradientUnits="userSpaceOnUse"
       gradientTransform="matrix(0,-9.5747925,12.180495,0,92.10173,629.31011)" />
    <linearGradient
       x1="18.870001"
       y1="39.25"
       x2="42.268871"
       y2="39.25"
       id="lg63-2"
       xlink:href="#lg4"
       gradientUnits="userSpaceOnUse"
       gradientTransform="matrix(0,-9.522027,12.243745,0,89.35391,628.52906)" />
    <linearGradient
       x1="45.631165"
       y1="17.859573"
       x2="6.12321"
       y2="17.859573"
       id="lg32-7"
       xlink:href="#lg3"
       gradientUnits="userSpaceOnUse"
       gradientTransform="matrix(0,-10.283724,12.180495,0,92.10173,646.81011)" />
    <linearGradient
       x1="18.870001"
       y1="39.25"
       x2="42.268871"
       y2="39.25"
       id="lg62-2"
       xlink:href="#lg4"
       gradientUnits="userSpaceOnUse"
       gradientTransform="matrix(0,-10.283773,12.230418,0,90.13105,646.81011)" />
    <filter
       style="color-interpolation-filters:sRGB;"
       inkscape:label="Greyscale"
       id="filter305"
       x="0"
       y="0"
       width="1"
       height="1">
      <feColorMatrix
         values="0.21 0.72 0.072 0 0 0.21 0.72 0.072 0 0 0.21 0.72 0.072 0 0 0 0 0 1 0 "
         id="feColorMatrix303" />
    </filter>
    <filter
       style="color-interpolation-filters:sRGB;"
       inkscape:label="Greyscale"
       id="filter309"
       x="0"
       y="0"
       width="1"
       height="1">
      <feColorMatrix
         values="0.21 0.72 0.072 0 0 0.21 0.72 0.072 0 0 0.21 0.72 0.072 0 0 0 0 0 1 0 "
         id="feColorMatrix307" />
    </filter>
    <filter
       style="color-interpolation-filters:sRGB;"
       inkscape:label="Greyscale"
       id="filter313"
       x="-0.029778131"
       y="-0.018209503"
       width="1.059542"
       height="1.036419">
      <feColorMatrix
         values="0.21 0.72 0.072 0 0 0.21 0.72 0.072 0 0 0.21 0.72 0.072 0 0 0 0 0 1 0 "
         id="feColorMatrix311" />
    </filter>
    <filter
       style="color-interpolation-filters:sRGB;"
       inkscape:label="Greyscale"
       id="filter317"
       x="0"
       y="0"
       width="1"
       height="1">
      <feColorMatrix
         values="0.21 0.72 0.072 0 0 0.21 0.72 0.072 0 0 0.21 0.72 0.072 0 0 0 0 0 1 0 "
         id="feColorMatrix315" />
    </filter>
    <filter
       style="color-interpolation-filters:sRGB;"
       inkscape:label="Greyscale"
       id="filter321"
       x="-0.034240557"
       y="-0.019455409"
       width="1.0684652"
       height="1.0389108">
      <feColorMatrix
         values="0.21 0.72 0.072 0 0 0.21 0.72 0.072 0 0 0.21 0.72 0.072 0 0 0 0 0 1 0 "
         id="feColorMatrix319" />
    </filter>
    <filter
       style="color-interpolation-filters:sRGB;"
       inkscape:label="Greyscale"
       id="filter325"
       x="-0.04316535"
       y="-0.019444949"
       width="1.0863307"
       height="1.0388899">
      <feColorMatrix
         values="0.21 0.72 0.072 0 0 0.21 0.72 0.072 0 0 0.21 0.72 0.072 0 0 0 0 0 1 0 "
         id="feColorMatrix323" />
    </filter>
    <filter
       style="color-interpolation-filters:sRGB;"
       inkscape:label="Greyscale"
       id="filter329"
       x="-0.010917097"
       y="-0.018226545"
       width="1.0218342"
       height="1.0364531">
      <feColorMatrix
         values="0.21 0.72 0.072 0 0 0.21 0.72 0.072 0 0 0.21 0.72 0.072 0 0 0 0 0 1 0 "
         id="feColorMatrix327" />
    </filter>
    <filter
       style="color-interpolation-filters:sRGB;"
       inkscape:label="Greyscale"
       id="filter333"
       x="0"
       y="0"
       width="1"
       height="1">
      <feColorMatrix
         values="0.21 0.72 0.072 0 0 0.21 0.72 0.072 0 0 0.21 0.72 0.072 0 0 0 0 0 1 0 "
         id="feColorMatrix331" />
    </filter>
    <filter
       style="color-interpolation-filters:sRGB;"
       inkscape:label="Greyscale"
       id="filter337"
       x="-0.019030955"
       y="-0.019567427"
       width="1.0380619"
       height="1.0391348">
      <feColorMatrix
         values="0.21 0.72 0.072 0 0 0.21 0.72 0.072 0 0 0.21 0.72 0.072 0 0 0 0 0 1 0 "
         id="feColorMatrix335" />
    </filter>
    <filter
       style="color-interpolation-filters:sRGB;"
       inkscape:label="Greyscale"
       id="filter341"
       x="-2.4540308e-16"
       y="-0.019579743"
       width="1.0234943"
       height="1.0391595">
      <feColorMatrix
         values="0.21 0.72 0.072 0 0 0.21 0.72 0.072 0 0 0.21 0.72 0.072 0 0 0 0 0 1 0 "
         id="feColorMatrix339" />
    </filter>
    <filter
       style="color-interpolation-filters:sRGB;"
       inkscape:label="Greyscale"
       id="filter345"
       x="-0.065532885"
       y="-0.021146305"
       width="1.0952928"
       height="1.0422926">
      <feColorMatrix
         values="0.21 0.72 0.072 0 0 0.21 0.72 0.072 0 0 0.21 0.72 0.072 0 0 0 0 0 1 0 "
         id="feColorMatrix343" />
    </filter>
    <filter
       style="color-interpolation-filters:sRGB;"
       inkscape:label="Greyscale"
       id="filter349"
       x="0"
       y="-0.01822982"
       width="1.0194085"
       height="1.0364596">
      <feColorMatrix
         values="0.21 0.72 0.072 0 0 0.21 0.72 0.072 0 0 0.21 0.72 0.072 0 0 0 0 0 1 0 "
         id="feColorMatrix347" />
    </filter>
    <filter
       style="color-interpolation-filters:sRGB;"
       inkscape:label="Greyscale"
       id="filter353"
       x="-0.049204967"
       y="-0.019579971"
       width="1.0726995"
       height="1.0391599">
      <feColorMatrix
         values="0.21 0.72 0.072 0 0 0.21 0.72 0.072 0 0 0.21 0.72 0.072 0 0 0 0 0 1 0 "
         id="feColorMatrix351" />
    </filter>
  </defs>
  <path
     d="M 619.44903,410.15612 C 620.63553,481.18483 634.15008,542.4707 653.34268,575 h 62.76724 c 20.1168,-34.09 33.89005,-99.62925 33.89005,-174.99997 0,-75.37078 -13.7804,-140.91003 -33.89005,-175.00003 h -62.76724 c -20.12405,34.09 -33.89365,99.63071 -33.89365,175.00003 0,3.45038 -0.0554,6.74913 0,10.15609 z"
     style="opacity:0.55;fill:url(#rg5-6);stroke-width:13.2733;filter:url(#filter305)"
     id="path68" />
  <path
     d="m 524.59518,407.82425 c 0.9348,54.77675 11.66595,102.04015 26.9028,127.12665 h 49.8207 c 15.96695,-26.3287 26.90275,-76.83486 26.90275,-134.95087 0,-58.1327 -10.9358,-108.62075 -26.90275,-134.96759 h -49.82105 c -15.9669,26.34622 -26.9028,76.83489 -26.9028,134.96759 0,2.65417 -0.0435,5.19747 0,7.82541 z"
     style="opacity:0.55;fill:url(#rg4-5);stroke-width:13.2733;filter:url(#filter309)"
     id="path70" />
  <path
     d="m 536.89728,415.23083 c 3.74715,75.33196 35.0121,134.19932 72.86015,134.19932 h 36.6206 c 40.37575,0 73.24174,-66.77999 73.24174,-149.2779 0,-82.49818 -32.86524,-149.57979 -73.24174,-149.57979 h -36.6206 c -40.3754,0 -72.86015,67.08161 -72.86015,149.57979 0,5.15666 -0.25085,10.05666 -0.0215,15.07916 z"
     style="fill:url(#lg34-6);stroke:#c4a000;stroke-width:10.8841;stroke-linecap:round;filter:url(#filter313)"
     id="path72" />
  <path
     d="m 605.99148,255.39257 c 33.6456,0 58.8014,64.78034 58.8014,144.60746 0,79.81047 -27.3056,144.59082 -60.95545,144.59082 -33.6456,0 -60.95545,-64.78035 -60.95545,-144.59082 0,-79.82712 36.9828,-144.60746 63.1095,-144.60746 z"
     style="fill:url(#lg82-0);stroke-width:13.2733;filter:url(#filter317)"
     id="path74" />
  <path
     d="m 548.97748,414.16537 c 3.27245,70.50809 30.4449,125.60538 63.36805,125.60538 h 31.84745 c 35.11285,0 63.69719,-62.50329 63.69719,-139.77072 0,-77.16275 -28.58579,-139.94841 -63.69719,-139.94841 h -31.84745 c -35.1164,0 -63.36805,62.7069 -63.36805,139.94841 0,4.87955 -0.21875,9.46455 0,14.16622 z"
     style="opacity:0.55;fill:none;stroke:url(#lg72-0);stroke-width:10.8841;stroke-linecap:round;filter:url(#filter321)"
     id="path76" />
  <path
     d="m 599.86833,259.90145 c 34.83585,0 63.08115,62.65087 63.08115,139.93463 0,77.28467 -28.24055,139.93497 -63.08115,139.93497 -34.83945,0 -62.99335,-62.6503 -62.99335,-139.93497 0,-77.28376 28.15425,-139.93463 62.99335,-139.93463 z"
     style="fill:none;stroke:url(#rg3-6);stroke-width:10.8841;stroke-linecap:round;filter:url(#filter325)"
     id="path78" />
  <path
     d="m 304.77131,250.71015 c 137.49872,0 249.15947,66.88147 249.15947,149.28988 0,82.40688 -111.66075,149.28837 -249.15947,149.28837 -137.66887,0 -249.32926,-66.88149 -249.32926,-149.28837 0,-82.40841 111.66039,-149.28988 249.24433,-149.28988 z"
     style="fill:url(#rg1-8);stroke:url(#rg2-9);stroke-width:10.8841;stroke-linecap:round;filter:url(#filter329)"
     id="path80" />
  <path
     d="m 86.78319,400.00003 c 0.002,31.14063 20.9188,60.61209 59.8158,83.96059 38.96716,23.34793 95.45077,43.63833 140.04086,18.97873 74.28744,-35.61685 -38.77152,-150.17153 18.06347,-225.82727 -62.7938,0 -119.1361,15.57502 -158.10323,38.92467 -38.89702,23.34795 -59.81582,52.81996 -59.81582,83.96208 z"
     style="fill:url(#lg92-0);stroke-width:13.2733;filter:url(#filter333)"
     id="path82" />
  <path
     d="m 67.73332,400.00003 c 0,76.63801 104.95033,138.79307 234.68179,138.96982 20.80011,5.1479 51.27601,-56.61777 51.27601,-138.96982 0,-82.35383 -30.47732,-144.11833 -51.27601,-138.97132 -129.68037,0.1225 -234.68179,62.32074 -234.68179,138.97132 z"
     style="opacity:0.71;fill:none;stroke:url(#lg64-2);stroke-width:10.8841;stroke-linecap:round;filter:url(#filter337)"
     id="path84" />
  <path
     d="m 402.45421,538.9707 c 82.87355,0 147.90922,0 170.67752,0 33.6851,0 60.95535,-61.80533 60.95535,-138.67204 0,-76.86638 -27.26955,-139.27083 -60.95535,-139.27083 -22.0732,0 -87.86828,0 -170.67752,0 33.71745,0 60.95437,62.32829 60.95544,139.27083 0,76.94284 -27.24087,138.67204 -60.95544,138.67204 z"
     style="fill:url(#lg33-1);stroke:#c4a000;stroke-width:10.8841;stroke-linecap:round;filter:url(#filter341)"
     id="path86" />
  <path
     d="m 439.57109,528.37735 c 90.33204,0.0992 132.73419,0.2917 133.30459,0.2917 24.48615,0 49.018,-61.17039 49.018,-128.3768 0,-69.42775 -24.53295,-128.97238 -49.018,-128.97238 -0.43195,0 -44.0708,-0.007 -133.84723,0 21.66677,24.78875 35.98198,70.5343 35.81048,128.97238 -0.16625,57.63275 -13.5863,103.80445 -35.26749,128.0793 z"
     style="opacity:0.71;fill:none;stroke:url(#lg63-2);stroke-width:10.8841;stroke-linecap:round;filter:url(#filter345)"
     id="path88" />
  <path
     d="m 304.92411,549.2616 c 82.87364,0 196.67157,0 219.44057,0 33.68515,0 60.9544,-66.38189 60.9544,-148.94077 0,-82.55858 -27.26605,-149.58385 -60.9544,-149.58385 -22.0732,0 -136.6313,0 -219.44057,0 33.71748,0 60.95329,66.9436 60.95436,149.58385 0,82.64054 -27.24081,148.94077 -60.95436,148.94077 z"
     style="fill:url(#lg32-7);stroke:#c4a000;stroke-width:10.8841;stroke-linecap:round;filter:url(#filter349)"
     id="path90" />
  <path
     d="m 342.03995,538.64695 c 84.55227,0.1021 165.32718,0.29165 176.22928,0.32085 0.71925,0 5.8581,0 5.89405,0 24.4574,0 48.96445,-66.06403 48.96445,-138.6467 0,-74.98196 -24.50415,-139.28983 -48.96445,-139.28983 -0.4317,0 -92.98772,-0.007 -182.66598,0 21.6452,26.77214 35.94348,76.17698 35.77449,139.29012 -0.16625,62.23321 -13.57183,112.10821 -35.23147,138.32461 z"
     style="opacity:0.71;fill:none;stroke:url(#lg62-2);stroke-width:10.8841;stroke-linecap:round;filter:url(#filter353)"
     id="path92" />
</svg>
