<svg xmlns="http://www.w3.org/2000/svg" width="400" height="600" viewBox="0 0 105.833 158.75"><path d="M91.902 33.565c-.846.987-6.594 6.894-8.812 8.904-2.484 2.25-6.727 2.049-9.873.982-2.044-.693-7.865-3.113-10.434-4.247l.534 9.087s6.933 14.339 19.14 10.342c.039-.035.075-.072.113-.108l.05.026c9-4.733 13.879-10.438 13.879-10.438l1.69-2.057s.351-20.238-6.287-12.491" style="fill:#dcf4ff;fill-opacity:1;fill-rule:nonzero;stroke:none;stroke-width:.0347662" transform="translate(-58.597 23.894)"/><path d="M85.22 52.444c-4.728-1.495-5.978 3.42-5.978 3.42s-2.876-1.464-6.689.026c-.818.32-1.334.758-1.648 1.24 3.418 1.885 7.385 2.868 11.552 1.503l.164-.082a56.191 56.191 0 0 0 5.93-3.604c-.824-1.126-1.932-2.06-3.332-2.503" style="fill:#41535d;fill-opacity:1;fill-rule:nonzero;stroke:none;stroke-width:.0347662" transform="translate(-58.597 23.894)"/><path d="M87.407 98.77s.429 23.306 2.704 34.546c0 0 5.828 2.116 14.825 1.386 0 0 .912-14.216 3.116-20.566 2.205-6.35-20.645-15.365-20.645-15.365" style="fill:#dcf4ff;fill-opacity:1;fill-rule:nonzero;stroke:none;stroke-width:.0347662" transform="translate(-58.597 23.894)"/><path d="M89.278 128.12c.246 1.897.522 3.66.833 5.196 0 0 5.828 2.116 14.825 1.387 0 0 .018-2.391.483-5.653l-16.14-.93" style="fill:#ffc255;fill-opacity:1;fill-rule:nonzero;stroke:none;stroke-width:.0347662" transform="translate(-58.597 23.894)"/><path d="M147.294 98.77s-.43 23.306-2.705 34.546c0 0-5.828 2.116-14.824 1.386 0 0-.913-14.216-3.117-20.566-2.204-6.35 20.646-15.365 20.646-15.365" style="fill:#dcf4ff;fill-opacity:1;fill-rule:nonzero;stroke:none;stroke-width:.0347662" transform="translate(-58.597 23.894)"/><path d="M145.422 128.12c-.245 1.897-.522 3.66-.833 5.196 0 0-5.828 2.116-14.824 1.387 0 0-.018-2.391-.483-5.653l16.14-.93" style="fill:#ffc255;fill-opacity:1;fill-rule:nonzero;stroke:none;stroke-width:.0347662" transform="translate(-58.597 23.894)"/><path d="M151.949 96.594c1.514-7.514.492-15.447-.178-20.637-3.094-23.951-18.378-41.86-18.378-41.86l-12.415 4.038c-13.017 6.92-9.155.888-21.844-6.646l-3.101-1.841S86.415 61.355 84.874 79.18c-.755 8.733.262 22.413 9.599 30.707 12.656 11.243 31.255 7.444 32.771 7.114 24.572-5.356 24.705-20.407 24.705-20.407" style="fill:#dcf4ff;fill-opacity:1;fill-rule:nonzero;stroke:none;stroke-width:.0347662" transform="translate(-58.597 23.894)"/><path d="M100.428 68.421a.861.861 0 0 0 1.237.22c.976-.736 2.617-1.62 3.773-.41 1.745 1.829-4.259 10.833-7.327 9.348-3.067-1.486-2.279-7.896-.635-9.316 1.263-1.09 2.342-.737 2.952.158M138.348 40.959c-1.115 2.727-1.979 7.657 1.102 14.827 2.047 4.761 6.165 8.048 10.316 10.269-2.914-10.623-7.754-19.435-11.418-25.096M151.949 96.594c1.514-7.514.492-15.447-.178-20.637a68.061 68.061 0 0 0-.283-1.954c-1.416.033-2.998.842-4.546 3.218-4.569 7.011-.042 18.793-.042 18.793s-5.289.959-4.094 7.077c.334 1.71 1.32 3.646 2.567 5.548 6.52-5.854 6.576-12.045 6.576-12.045M103.524 53.795c-.962 1.205-2.414 1.618-3.242.922-.828-.696-.72-2.238.243-3.444.962-1.205 2.413-1.619 3.241-.923.828.697.72 2.239-.242 3.445M98.842 58.532c-.25-6.023-7.137-3.652-7.137-3.652s5.717-9.341 2.874-14.995c-.347-.69-.737-1.048-1.152-1.155-2.892 10.472-7.306 27.754-8.47 39.558 7.977-3.978 14.089-14.855 13.885-19.756M84.677 83.984c-.663 4.44.24 14.757 2.894 20.406.757-4.058 2.064-12.337 1.582-15.501-.512-3.362-2.721-4.522-4.476-4.905M139.483 62.82c1.23 2.188 1.262 4.534.07 5.24-1.193.707-3.157-.493-4.388-2.68-1.23-2.188-1.261-4.534-.069-5.241 1.193-.707 3.157.494 4.387 2.681" style="fill:#41535d;fill-opacity:1;fill-rule:nonzero;stroke:none;stroke-width:.0347662" transform="translate(-58.597 23.894)"/><path d="M157.344 71.277s-12.203-17.932-19.734-24.765c-7.531-6.832 4.294-16.34 4.294-16.34l7.304 7.514s11.815 10.697 15.223 29.617l-7.087 3.974" style="fill:#dcf4ff;fill-opacity:1;fill-rule:nonzero;stroke:none;stroke-width:.0347662" transform="translate(-58.597 23.894)"/><path d="M155.316 68.362a231.573 231.573 0 0 1 2.028 2.915l7.087-3.974a57.098 57.098 0 0 0-.723-3.41l-8.392 4.47" style="fill:#ffc255;fill-opacity:1;fill-rule:nonzero;stroke:none;stroke-width:.0347662" transform="translate(-58.597 23.894)"/><path d="M163.417 62.755c-.974.328-2.254.287-3.353-1.321-2.343-3.429-1.667-6.65-1.667-6.65s-4.948-.036-4.696-5.107c.082-1.666.822-3.126 1.837-4.284a58.09 58.09 0 0 1 7.879 17.362" style="fill:#41535d;fill-opacity:1;fill-rule:nonzero;stroke:none;stroke-width:.0347662" transform="translate(-58.597 23.894)"/><path d="M95.665 36.698s11.743 11.03 26.39 8.987c14.648-2.044 21.19-16.777 21.19-16.777l-47.58 7.79" style="fill:#b1ecfc;fill-opacity:1;fill-rule:nonzero;stroke:none;stroke-width:.0347662" transform="translate(-58.597 23.894)"/><path d="M103.84-23.238s-1.931 11.896 1.13 16.785L95.716-3.46s-3.375-14.45 8.124-19.778" style="fill:#ffc255;fill-opacity:1;fill-rule:nonzero;stroke:none;stroke-width:.0347662" transform="translate(-58.597 23.894)"/><path d="m95.716-3.46 9.255-2.992c-.492-.785-.853-1.752-1.116-2.82-3.24 1.637-6.381 2.107-8.575 2.208.097 2.152.436 3.604.436 3.604" style="fill:#f9a832;fill-opacity:1;fill-rule:nonzero;stroke:none;stroke-width:.0347662" transform="translate(-58.597 23.894)"/><path d="M98.766-19.367c-.158.193-.308.388-.453.587l4.994.872c.012-.223.024-.443.038-.659l-4.579-.8M96.228-14.675l7.037.67a34.89 34.89 0 0 1-.019-.661l-6.79-.647c-.08.212-.157.425-.228.638M95.308-9.809l8.287-.73a21.149 21.149 0 0 1-.099-.65l-8.133.716c-.022.224-.04.446-.055.664" style="fill:#ffd085;fill-opacity:1;fill-rule:nonzero;stroke:none;stroke-width:.0347662" transform="translate(-58.597 23.894)"/><path d="M126.099-23.894s1.93 11.896-1.13 16.786l9.254 2.992s3.375-14.45-8.124-19.778" style="fill:#ffc255;fill-opacity:1;fill-rule:nonzero;stroke:none;stroke-width:.0347662" transform="translate(-58.597 23.894)"/><path d="m134.223-4.116-9.255-2.992c.492-.785.853-1.752 1.116-2.82 3.24 1.638 6.38 2.107 8.574 2.209-.097 2.151-.435 3.603-.435 3.603" style="fill:#f9a832;fill-opacity:1;fill-rule:nonzero;stroke:none;stroke-width:.0347662" transform="translate(-58.597 23.894)"/><path d="M131.173-20.023c.157.193.308.389.453.587l-4.994.873a58.456 58.456 0 0 0-.038-.66l4.579-.8M133.71-15.33l-7.036.67c.008-.222.014-.442.019-.662l6.79-.647c.08.212.157.425.227.638M134.631-10.464l-8.287-.73c.036-.215.07-.432.1-.651l8.132.717c.022.224.04.445.055.664" style="fill:#ffd085;fill-opacity:1;fill-rule:nonzero;stroke:none;stroke-width:.0347662" transform="translate(-58.597 23.894)"/><path d="M97.181-2.341S85.213-5.211 78.394 8.363c0 0 9.32 1.726 15.261 0C99.597 6.637 97.181-2.34 97.181-2.34M135.312-2.341s11.969-2.87 18.788 10.704c0 0-9.32 1.726-15.262 0S135.312-2.34 135.312-2.34" style="fill:#b1ecfc;fill-opacity:1;fill-rule:nonzero;stroke:none;stroke-width:.0347662" transform="translate(-58.597 23.894)"/><path d="M145.01 19.983c-.62-1.99-1.474-3.74-2.229-5.112-3.896-7.09-.835-15.293-8.35-19.546-6.575-3.722-15.566-3.8-17.71-3.76-.261.004-.687.004-.947 0-2.146-.04-11.136.038-17.712 3.76-7.515 4.253-4.453 12.457-8.35 19.546-.76 1.384-1.623 3.151-2.243 5.163-1.884 6.107.685 12.781 5.88 15.55 2.3 1.226 5.48 2.524 9.785 3.566a55.59 55.59 0 0 0 26.161.016c4.394-1.058 7.62-2.383 9.939-3.63 5.162-2.773 7.664-9.481 5.775-15.553" style="fill:#dcf4ff;fill-opacity:1;fill-rule:nonzero;stroke:none;stroke-width:.0347662" transform="translate(-58.597 23.894)"/><path d="M99.262 18.055c0 1.115-1.449 2.02-3.235 2.02-1.787 0-3.235-.905-3.235-2.02s1.448-2.02 3.235-2.02c1.786 0 3.235.905 3.235 2.02M132.748 18.159c0 1.115 1.448 2.019 3.235 2.019s3.235-.904 3.235-2.02c0-1.115-1.448-2.019-3.235-2.019s-3.235.904-3.235 2.02" style="fill:#f6a7ba;fill-opacity:1;fill-rule:nonzero;stroke:none;stroke-width:.0347662" transform="translate(-58.597 23.894)"/><path d="M128.854 13.594c-2.88-3.832-6.293-2.774-10.63-1.387-4.333 1.385-5.977 1.385-10.31 0-4.338-1.387-7.75-2.445-10.63 1.387-2.88 3.831.141 15.509 15.785 15.654 15.643-.145 18.665-11.823 15.785-15.654" style="fill:#ea7f9d;fill-opacity:1;fill-rule:nonzero;stroke:none;stroke-width:.0347662" transform="translate(-58.597 23.894)"/><path d="m128.149 12.767-.002-.003c-2.73-2.826-5.936-2.084-9.924-.81-4.333 1.386-5.976 1.386-10.31 0-3.993-1.276-7.202-2.019-9.933.82-.125.203-2.78 4.815 12.754 5.812 1.552.1 3.113.1 4.665 0 15.882-1.02 12.75-5.82 12.75-5.82" style="fill:#f6a7ba;fill-opacity:1;fill-rule:nonzero;stroke:none;stroke-width:.0347662" transform="translate(-58.597 23.894)"/><path d="M103.691 17.371c.75.77 1.06 1.7.692 2.078-.368.377-1.274.06-2.024-.71s-1.06-1.7-.691-2.077c.367-.378 1.274-.06 2.023.71M122.446 17.371c-.75.77-1.059 1.7-.691 2.078.368.377 1.274.06 2.023-.71.75-.77 1.06-1.7.692-2.077-.368-.378-1.274-.06-2.024.71" style="fill:#e56282;fill-opacity:1;fill-rule:nonzero;stroke:none;stroke-width:.0347662" transform="translate(-58.597 23.894)"/><path d="M124.816 11.98c.041.346-.824.74-1.934.88-1.109.14-2.042-.028-2.083-.375-.041-.346.824-.741 1.934-.88 1.109-.14 2.041.028 2.083.374" style="fill:#fcbbce;fill-opacity:1;fill-rule:nonzero;stroke:none;stroke-width:.0347662" transform="translate(-58.597 23.894)"/><path d="M134.431-4.675c-5.499-3.112-12.684-3.676-16.144-3.755 1.748 3.376 5.961 9.952 11.646 8.4 0 0 3.386 5.602 9.93 3.567-.675-3.268-1.855-6.188-5.432-8.212M90.052 14.215c-.107.22-.22.438-.34.656-.76 1.384-1.623 3.151-2.243 5.163-1.884 6.107.685 12.781 5.88 15.55 1.38.736 3.082 1.498 5.149 2.215 2.762-6.882-6.197-16.494-6.197-16.494.525-2.99-.963-5.528-2.25-7.09M104.133-4.616c2.134-.004 3.713 2.58 1.715 4.123-1.304 1.07-3.131.935-4.56 1.732-.515.294-1.022.742-1.547 1.148-2.168 1.675-5.05-1.027-3.637-3.432 1.424-2.424 5.593-4.228 8.029-3.571" style="fill:#41535d;fill-opacity:1;fill-rule:nonzero;stroke:none;stroke-width:.0347662" transform="translate(-58.597 23.894)"/><path d="M136.626 94.604c-.988-13.805-10.87-24.352-22.074-23.557-11.203.795-19.483 12.63-18.495 26.436.019.264.082.92.108 1.183 1.17 12.068 10.018 19.824 22.194 20.002.103.001 2.03-1.958 2.133-1.957 3.026.026 4.584.46 6.874-1.51 5.571-4.792 9.91-11.51 9.26-20.597" style="fill:#f6a7ba;fill-opacity:1;fill-rule:nonzero;stroke:none;stroke-width:.0347662" transform="translate(-58.597 23.894)"/><path d="M136.626 94.604c-.316-4.412-1.543-8.489-3.43-11.972-.945 12.066-4.086 29.143-18.509 29.88-8.954.457-14.815-5.73-17.955-10.445l.044.194c2.26 9.728 10.775 16.756 20.786 17.356l.175.01c5.212.293 10.308-1.872 13.508-5.977 3.793-4.866 5.909-11.674 5.381-19.046" style="fill:#ea7f9d;fill-opacity:1;fill-rule:nonzero;stroke:none;stroke-width:.0347662" transform="translate(-58.597 23.894)"/><path d="M126.733 82.31c-.733.459-2.184-.523-3.24-2.193-1.057-1.67-1.32-3.397-.587-3.857.733-.46 2.184.522 3.24 2.192 1.058 1.67 1.32 3.397.587 3.857M128.608 86.109c-.255.16-.76-.183-1.129-.764-.367-.582-.459-1.183-.204-1.343.256-.16.76.182 1.129.763.368.582.46 1.183.204 1.344" style="fill:#fcbbce;fill-opacity:1;fill-rule:nonzero;stroke:none;stroke-width:.0347662" transform="translate(-58.597 23.894)"/><path d="M84.547 46.334c-1.311 2.382-3.693 3.784-6.402 3.784l-.21-.002.064-2.542c2.681.076 3.965-1.719 4.39-2.492.141-.254.259-.52.352-.784.402-1.14.37-2.322-.126-3.12-.777-1.251-2.345-1.512-3.396-1.535a6.503 6.503 0 0 0-1.049.053l-.406-2.507c.196-.033 4.826-.782 6.94 2.623 1.106 1.78 1.044 4.342-.157 6.522" style="fill:#247fb2;fill-opacity:1;fill-rule:nonzero;stroke:none;stroke-width:.0347662" transform="translate(-58.597 23.894)"/><path d="M78.246 52.291H62.404l-1.376-17.88h18.594l-1.376 17.88" style="fill:#3ea5dd;fill-opacity:1;fill-rule:nonzero;stroke:none;stroke-width:.0347662" transform="translate(-58.597 23.894)"/><path d="M78.351 50.923C66.775 47.496 66.09 35.288 66.09 35.288s-.454-.343-1.166-.876h-3.895l1.376 17.88h15.842l.105-1.369" style="fill:#247fb2;fill-opacity:1;fill-rule:nonzero;stroke:none;stroke-width:.0347662" transform="translate(-58.597 23.894)"/><path d="M79.622 34.412c0 .547-4.162.991-9.297.991-5.134 0-9.297-.444-9.297-.991 0-.548 4.163-.992 9.297-.992 5.135 0 9.297.444 9.297.992" style="fill:#247fb2;fill-opacity:1;fill-rule:nonzero;stroke:none;stroke-width:.0347662" transform="translate(-58.597 23.894)"/><path d="M70.325 35.403c3.532 0 6.603-.21 8.177-.519-1.23-.378-4.426-.648-8.177-.648-3.75 0-6.947.27-8.177.648 1.574.31 4.646.52 8.177.52" style="fill:#41535d;fill-opacity:1;fill-rule:nonzero;stroke:none;stroke-width:.0347662" transform="translate(-58.597 23.894)"/><path d="M61.54 34.412c.911.314 4.06.673 8.785.673 4.724 0 7.874-.36 8.785-.673-.911-.314-4.06-.674-8.785-.674-4.724 0-7.874.36-8.785.674zm8.785 1.31c-2.493 0-4.84-.105-6.606-.293-2.769-.295-3-.664-3-1.017 0-.353.231-.722 3-1.018 1.766-.188 4.112-.292 6.606-.292 2.494 0 4.84.104 6.606.292 2.77.296 3 .665 3 1.018s-.23.722-3 1.017c-1.766.188-4.112.292-6.606.292" style="fill:#3ea5dd;fill-opacity:1;fill-rule:nonzero;stroke:none;stroke-width:.0347662" transform="translate(-58.597 23.894)"/><path d="M77.018 44.958h-.009c-.376-.023-.598-1.499-.495-3.297.102-1.783.486-3.214.86-3.214h.008c.376.023.598 1.499.495 3.297-.102 1.784-.485 3.214-.859 3.214M76.863 47.574h-.003c-.124-.008-.204-.376-.179-.822.025-.442.145-.795.267-.795h.004c.124.008.204.376.179.822-.026.442-.145.795-.268.795" style="fill:#61b5e8;fill-opacity:1;fill-rule:nonzero;stroke:none;stroke-width:.0347662" transform="translate(-58.597 23.894)"/><path d="m60.369 38.895 1.33 10.533s1.194-.148 2.414-.46l-1.391-10.216-2.353.143" style="fill:#ffc255;fill-opacity:1;fill-rule:nonzero;stroke:none;stroke-width:.0347662" transform="translate(-58.597 23.894)"/><path d="M60.369 38.895s-1.675.537-1.77 3.48c-.094 2.944 3.1 7.053 3.1 7.053l-1.33-10.533M68.237 21.74c-1.853.98-1.974 3.16-.418 4.512.951.857 1.215 2.307.462 3.386-.36.542-.953.933-1.181 1.579-.553 1.307-.116 3.284 1.35 3.603-.904-.683-.902-2.209-.346-3.07.787-.854 1.833-1.571 1.988-2.856.301-1.4-.387-2.88-1.517-3.67-1.347-.89-1.214-2.255-.338-3.484M72.701 26.362c-1.19.316-1.566 1.897-.69 2.772.284.316.657.608.771 1.033.066.234.059.482-.02.711-.205.625-.908.943-1.065 1.609-.312.868.158 2.2 1.154 2.23-.52-.466-.523-1.346-.099-1.85.513-.415 1.086-.776 1.33-1.448.537-1.205-.147-2.6-1.25-3.161-.733-.416-.524-1.279-.13-1.896" style="fill:#dcf4ff;fill-opacity:1;fill-rule:nonzero;stroke:none;stroke-width:.0347662" transform="translate(-58.597 23.894)"/><path d="M99.9 9.965c1.14-3.261 6.605-3.232 7.371.268-1.567-2.703-5.53-2.631-7.371-.268M125.566 9.965c-1.14-3.261-6.606-3.232-7.372.268 1.567-2.703 5.531-2.631 7.372-.268" style="fill:#41535d;fill-opacity:1;fill-rule:nonzero;stroke:none;stroke-width:.0347662" transform="translate(-58.597 23.894)"/></svg>