<svg xmlns="http://www.w3.org/2000/svg" width="400" height="600" viewBox="0 0 105.833 158.75"><path d="M133.2 161.306s-.38 22.871-2.402 33.901c0 0-5.607-3.47-13.598-4.187 0 0-.817-13.977-2.775-20.208-1.958-6.231 18.776-9.506 18.776-9.506M101.624 161.823s-12.361 25.875-18.413 34.79c0 0-5.45-.688-12.358-5.277 0 0 8.157-29.459 8.79-36.026.632-6.567 21.98 6.513 21.98 6.513" style="fill:#dcf4ff;fill-opacity:1;fill-rule:nonzero;stroke:none;stroke-width:.0334959" transform="translate(-54.449 -37.864)"/><path d="M85.834 192.396a73.246 73.246 0 0 1-2.623 4.218s-5.45-.689-12.358-5.278l1.634-5.725 13.347 6.785" style="fill:#ffc255;fill-opacity:1;fill-rule:nonzero;stroke:none;stroke-width:.0334959" transform="translate(-54.449 -37.864)"/><path d="M80.95 93.028c-1.003.61-3.786 1.862-6.24 2.93-2.748 1.195-5.844.641-8.14-1.446a82.21 82.21 0 0 1-5.069-5.017l-7.052 3.079s3.852 18.529 15.22 19.15l.128-.06.034.04c8.92-1.184 14.708-4.714 14.708-4.714l2.029-1.296s2.249-17.454-5.619-12.666" style="fill:#dcf4ff;fill-opacity:1;fill-rule:nonzero;stroke:none;stroke-width:.0334959" transform="translate(-54.449 -37.864)"/><path d="M73.84 107.004c-3.482-3.038-6.009 1.04-6.009 1.04s-1.95-2.357-5.575-2.329c-.778.006-1.34.228-1.747.56 2.275 2.937 5.28 5.236 9.16 5.448l.162-.018a44.866 44.866 0 0 0 6.025-1.227c-.345-1.326-.984-2.575-2.016-3.474" style="fill:#41535d;fill-opacity:1;fill-rule:nonzero;stroke:none;stroke-width:.0334959" transform="translate(-54.449 -37.864)"/><path d="M63.701 91.779a76.349 76.349 0 0 1-2.2-2.284l-7.052 3.079s.24 1.158.78 2.904l8.472-3.7" style="fill:#ffc255;fill-opacity:1;fill-rule:nonzero;stroke:none;stroke-width:.0334959" transform="translate(-54.449 -37.864)"/><path d="M137.047 151.533c.966-7.45-.337-15.162-1.192-20.208-3.943-23.284-18.395-39.938-18.395-39.938l-10.807 4.68c-11.198 7.538-8.075 1.403-19.706-5.238l-2.842-1.623s-6.94 31.624-7.415 49.176c-.232 8.6 1.355 21.943 10.05 29.525 11.788 10.277 28.092 5.47 29.42 5.058 21.524-6.678 20.887-21.432 20.887-21.432" style="fill:#dcf4ff;fill-opacity:1;fill-rule:nonzero;stroke:none;stroke-width:.0334959" transform="translate(-54.449 -37.864)"/><path d="M87.244 131.848c.333.478.94.563 1.354.175 1.011-.95 2.733-2.125 4.059-.759 2.001 2.063-3.948 13.26-7.36 11.702-3.413-1.56-2.951-9.282-1.258-11.097 1.3-1.395 2.49-1.049 3.205-.021" style="fill:#41535d;fill-opacity:1;fill-rule:nonzero;stroke:none;stroke-width:.0334959" transform="translate(-54.449 -37.864)"/><path d="M82.905 94.678s7.796 11.003 20.921 11.46c16.899.586 20.921-12.104 20.921-12.104l-41.842.644" style="fill:#b1ecfc;fill-opacity:1;fill-rule:nonzero;stroke:none;stroke-width:.0334959" transform="translate(-54.449 -37.864)"/><path d="M121.105 148.068c-1.59-13.886-10.899-23.963-20.793-22.507-9.894 1.456-16.627 13.893-15.037 27.78.976 8.523 4.862 15.607 10.006 19.473 5.862 2.015 11.739 1.81 15.772 1.24 7.054-4.175 11.356-14.59 10.052-25.986" style="fill:#f6a7ba;fill-opacity:1;fill-rule:nonzero;stroke:none;stroke-width:.0334959" transform="translate(-54.449 -37.864)"/><path d="M121.105 148.068c-.508-4.438-1.808-8.484-3.66-11.892-.215 12.242-2.12 29.674-14.872 31.26-7.917.983-13.434-4.925-16.463-9.504 1.63 6.454 4.983 11.734 9.17 14.882 5.863 2.015 11.74 1.81 15.773 1.24 7.054-4.175 11.356-14.59 10.052-25.986" style="fill:#ea7f9d;fill-opacity:1;fill-rule:nonzero;stroke:none;stroke-width:.0334959" transform="translate(-54.449 -37.864)"/><path d="M111.696 136.226c-.626.507-1.963-.4-2.987-2.026-1.024-1.625-1.346-3.354-.72-3.861.627-.507 1.964.4 2.988 2.025 1.023 1.626 1.345 3.355.72 3.862M113.555 139.954c-.218.177-.684-.14-1.04-.705-.356-.566-.469-1.168-.25-1.345.218-.176.683.14 1.04.705.356.567.468 1.169.25 1.345" style="fill:#fcbbce;fill-opacity:1;fill-rule:nonzero;stroke:none;stroke-width:.0334959" transform="translate(-54.449 -37.864)"/><path d="M122.198 97.82c-.852 2.737-1.371 7.617 1.72 14.462 2.054 4.546 5.871 7.525 9.663 9.459-3.116-10.237-7.85-18.588-11.383-23.92M91.958 112.425c-.793 1.238-2.06 1.727-2.829 1.093-.769-.634-.75-2.15.043-3.388.793-1.237 2.059-1.726 2.828-1.093.77.634.75 2.151-.042 3.388M88.044 117.34c-.524-5.887-6.513-3.163-6.513-3.163s4.602-9.484 1.797-14.858c-.342-.655-.705-.983-1.079-1.064-2.04 10.428-5.089 27.617-5.53 39.25 6.875-4.363 11.75-15.376 11.325-20.165M76.756 143.1c.285 5.287 1.345 11.415 3.98 16.795.469-4.02.822-9.178.235-12.25-.623-3.263-2.64-4.271-4.215-4.545M137.047 151.533c.966-7.45-.337-15.162-1.192-20.208a74.802 74.802 0 0 0-.348-1.898c-1.255.116-2.618 1-3.871 3.418-3.7 7.136.904 18.414.904 18.414s-4.642 1.248-3.276 7.172c.382 1.657 1.354 3.495 2.554 5.286 5.49-6.115 5.229-12.184 5.229-12.184" style="fill:#41535d;fill-opacity:1;fill-rule:nonzero;stroke:none;stroke-width:.0334959" transform="translate(-54.449 -37.864)"/><path d="M143.327 120.461c-3.87-.46-7.35 2.735-7.757 7.124-.407 4.389 2.411 8.335 6.282 8.796 3.87.462 7.351-2.734 7.758-7.123.407-4.39-2.412-8.335-6.283-8.797zm-1.624 17.523c-4.65-.554-8.036-5.295-7.547-10.568.489-5.273 4.67-9.111 9.32-8.557 4.65.554 8.036 5.295 7.547 10.567-.488 5.273-4.67 9.113-9.32 8.558" style="fill:#41535d;fill-opacity:1;fill-rule:nonzero;stroke:none;stroke-width:.0334959" transform="translate(-54.449 -37.864)"/><path d="m159.518 129.61-33.704-4.016c-.47-.056-.89.33-.939.861l-2.251 24.287c-.049.531.291 1.007.76 1.063l33.704 4.017c.469.056.889-.33.938-.862l2.251-24.286c.05-.532-.29-1.008-.76-1.064" style="fill:#83c5f2;fill-opacity:1;fill-rule:nonzero;stroke:none;stroke-width:.0334959" transform="translate(-54.449 -37.864)"/><path d="m128.302 137.748 26.553 3.165 1.087-11.73-26.553-3.164-1.087 11.73" style="fill:#83c5f2;fill-opacity:1;fill-rule:nonzero;stroke:none;stroke-width:.0334959" transform="translate(-54.449 -37.864)"/><path d="M154.603 140.329c-.03.051-.217.16-.504.126l-24.973-2.976c-.288-.034-.451-.185-.469-.214l1.04-11.21-.906-.107-1.039 11.21c-.061.663.5 1.255 1.279 1.348l24.972 2.976c.779.093 1.437-.354 1.498-1.018l1.04-11.21-.906-.107-1.032 11.182" style="fill:#247fb2;fill-opacity:1;fill-rule:nonzero;stroke:none;stroke-width:.0334959" transform="translate(-54.449 -37.864)"/><path d="M132.587 140.528c1.54.183 2.92-1.084 3.081-2.83l-5.577-.665c-.162 1.747.955 3.311 2.496 3.495M149.93 142.595c1.54.183 2.92-1.084 3.082-2.83l-5.577-.665c-.162 1.747.955 3.311 2.495 3.495" style="fill:#dcf4ff;fill-opacity:1;fill-rule:nonzero;stroke:none;stroke-width:.0334959" transform="translate(-54.449 -37.864)"/><path d="M131.153 196.568c.135-2.48.256-5.359.385-6.46l-14.338.912.43 5.548h13.523" style="fill:#ffc255;fill-opacity:1;fill-rule:nonzero;stroke:none;stroke-width:.0334959" transform="translate(-54.449 -37.864)"/><path d="M124.14 108.232c1.137.012 4.108.434 6.712.839 2.916.452 5.395 2.628 6.52 5.711a96.734 96.734 0 0 1 2.312 7.164l7.489 1.152s4.492-18.342-5.208-25.093c-.046-.007-.092-.011-.137-.018l-.012-.054c-8.323-3.832-14.893-3.899-14.893-3.899l-3.066-.526s-8.646 14.624.282 14.724" style="fill:#dcf4ff;fill-opacity:1;fill-rule:nonzero;stroke:none;stroke-width:.0334959" transform="translate(-54.449 -37.864)"/><path d="M136.305 99.864c1.762 4.564 5.709 2.368 5.709 2.368s.708 3.132 3.897 5.086c.685.42 1.27.532 1.769.463-.747-3.816-2.404-7.472-5.715-9.776l-.15-.072a46.188 46.188 0 0 0-5.801-2.215c-.26 1.35-.23 2.795.291 4.146" style="fill:#41535d;fill-opacity:1;fill-rule:nonzero;stroke:none;stroke-width:.0334959" transform="translate(-54.449 -37.864)"/><path d="M138.726 118.743c.325 1.02.648 2.092.958 3.203l7.489 1.152s.28-1.146.55-2.97l-8.997-1.385M98.13 37.864s-3.04 11.33-.818 16.488L88.65 56.06s-1.457-14.507 9.48-18.196" style="fill:#ffc255;fill-opacity:1;fill-rule:nonzero;stroke:none;stroke-width:.0334959" transform="translate(-54.449 -37.864)"/><path d="m88.651 56.06 8.66-1.708c-.356-.828-.575-1.816-.695-2.89-3.097 1.172-5.977 1.22-7.963 1.033-.148 2.108-.002 3.565-.002 3.565" style="fill:#f9a832;fill-opacity:1;fill-rule:nonzero;stroke:none;stroke-width:.0334959" transform="translate(-54.449 -37.864)"/><path d="M93.139 40.972c-.163.167-.32.338-.473.512l4.402 1.5c.035-.216.07-.429.106-.637l-4.035-1.375M90.34 45.21l6.262 1.568c.017-.217.036-.432.056-.647l-6.044-1.513c-.095.196-.187.393-.274.591M88.978 49.827l7.542.367a22.61 22.61 0 0 1-.018-.645l-7.401-.361c-.045.215-.085.428-.123.639" style="fill:#ffd085;fill-opacity:1;fill-rule:nonzero;stroke:none;stroke-width:.0334959" transform="translate(-54.449 -37.864)"/><path d="M116.09 40.46s.436 11.832-2.856 16.194l8.006 4.117s4.62-13.628-5.15-20.31" style="fill:#ffc255;fill-opacity:1;fill-rule:nonzero;stroke:none;stroke-width:.0334959" transform="translate(-54.449 -37.864)"/><path d="m121.24 60.771-8.006-4.117c.528-.7.96-1.594 1.313-2.6a18.674 18.674 0 0 0 7.48 3.266c-.324 2.082-.787 3.451-.787 3.451" style="fill:#f9a832;fill-opacity:1;fill-rule:nonzero;stroke:none;stroke-width:.0334959" transform="translate(-54.449 -37.864)"/><path d="M120.234 44.89c.121.208.236.418.344.63l-4.592.199c.014-.22.026-.435.038-.647l4.21-.183M122.006 49.787l-6.41-.264c.032-.213.062-.427.09-.641l6.185.255c.05.217.094.434.135.65M122.302 54.644l-7.382-1.79a22 22 0 0 0 .16-.62l7.245 1.757c-.004.22-.012.439-.023.653" style="fill:#ffd085;fill-opacity:1;fill-rule:nonzero;stroke:none;stroke-width:.0334959" transform="translate(-54.449 -37.864)"/><path d="M116.995 65.38s1.915-12.448 15.144-13.762c0 0-1.898 9.5-5.364 14.484-3.465 4.983-9.78-.722-9.78-.722" style="fill:#b1ecfc;fill-opacity:1;fill-rule:nonzero;stroke:none;stroke-width:.0334959" transform="translate(-54.449 -37.864)"/><path d="M121.144 64.042s3.777-7.886 9.53-10.947c0 0-1.553 7.288-4.846 11.002-3.294 3.714-4.684-.055-4.684-.055" style="fill:#f6a7ba;fill-opacity:1;fill-rule:nonzero;stroke:none;stroke-width:.0334959" transform="translate(-54.449 -37.864)"/><path d="M91.86 60.657s.901-12.596-11.614-17.632c0 0-.264 9.737 1.987 15.547 2.252 5.81 9.628 2.085 9.628 2.085" style="fill:#b1ecfc;fill-opacity:1;fill-rule:nonzero;stroke:none;stroke-width:.0334959" transform="translate(-54.449 -37.864)"/><path d="M88.14 58.18s-1.911-8.708-6.802-13.308c0 0-.11 7.496 2.256 12.029 2.367 4.532 4.546 1.28 4.546 1.28" style="fill:#f6a7ba;fill-opacity:1;fill-rule:nonzero;stroke:none;stroke-width:.0334959" transform="translate(-54.449 -37.864)"/><path d="M128.223 85.478c-.34-2.018-.918-3.833-1.447-5.267-2.733-7.408.922-14.995-5.38-20.114-5.513-4.479-13.6-5.724-15.536-5.966-.235-.03-.618-.085-.852-.123-1.928-.317-10.032-1.412-16.36 1.355-7.233 3.162-5.374 11.546-9.658 17.94-.837 1.248-1.807 2.857-2.586 4.734-2.365 5.7-.783 12.532 3.593 15.903 1.937 1.494 4.658 3.17 8.42 4.746 7.53 3.152 15.569 4.32 23.556 3.42 4.072-.458 7.122-1.328 9.347-2.239 4.952-2.028 7.94-8.232 6.903-14.389" style="fill:#dcf4ff;fill-opacity:1;fill-rule:nonzero;stroke:none;stroke-width:.0334959" transform="translate(-54.449 -37.864)"/><path d="M87.356 75.238c-.122 1.086-1.497 1.781-3.071 1.554-1.575-.228-2.752-1.293-2.63-2.378.122-1.086 1.497-1.782 3.072-1.554 1.574.227 2.751 1.292 2.63 2.378" style="fill:#f6a7ba;fill-opacity:1;fill-rule:nonzero;stroke:none;stroke-width:.0334959" transform="translate(-54.449 -37.864)"/><path d="M113.359 95.895c2.247-1.41 2.998-4.744 1.679-7.445l-8.135 5.109c1.319 2.7 4.21 3.747 6.456 2.336" style="fill:#fcbbce;fill-opacity:1;fill-rule:nonzero;stroke:none;stroke-width:.0334959" transform="translate(-54.449 -37.864)"/><path d="M112.539 94.216c1.743-1.095 2.403-3.523 1.475-5.423l-6.312 3.963c.928 1.9 3.094 2.554 4.837 1.46" style="fill:#e56282;fill-opacity:1;fill-rule:nonzero;stroke:none;stroke-width:.0334959" transform="translate(-54.449 -37.864)"/><path d="M100.756 71.747c-.459 4.081-3.748 6.967-7.347 6.447-3.6-.52-6.145-4.25-5.686-8.33.459-4.082 3.748-6.968 7.347-6.447 3.6.52 6.145 4.25 5.686 8.33" style="fill:#41535d;fill-opacity:1;fill-rule:nonzero;stroke:none;stroke-width:.0334959" transform="translate(-54.449 -37.864)"/><path d="M101.294 72.62c-.458 4.08-3.748 6.966-7.347 6.446-3.599-.52-6.144-4.25-5.685-8.33.458-4.082 3.748-6.968 7.347-6.447 3.599.52 6.144 4.25 5.686 8.33" style="fill:#fff;fill-opacity:1;fill-rule:nonzero;stroke:none;stroke-width:.0334959" transform="translate(-54.449 -37.864)"/><path d="M100.628 72.311c-.196 1.74-1.598 2.971-3.133 2.749-1.535-.222-2.62-1.812-2.425-3.553.196-1.74 1.599-2.97 3.134-2.749 1.534.222 2.62 1.813 2.424 3.553" style="fill:#1d1d1b;fill-opacity:1;fill-rule:nonzero;stroke:none;stroke-width:.0334959" transform="translate(-54.449 -37.864)"/><path d="m86.364 64.646 2.978 1.798-.308.541zM85.526 68.323l3.313-.72.06.64z" style="fill:#41535d;fill-opacity:1;fill-rule:nonzero;stroke:none;stroke-width:.0334959" transform="translate(-54.449 -37.864)"/><path d="M98.025 70.346c-.056.496-.456.847-.893.784-.438-.063-.747-.517-.691-1.013.055-.496.455-.847.893-.784.437.064.747.517.69 1.013M96.362 71.565c-.027.246-.225.42-.442.389-.217-.031-.371-.256-.343-.503.027-.246.226-.42.443-.388.217.031.37.256.342.502" style="fill:#fff;fill-opacity:1;fill-rule:nonzero;stroke:none;stroke-width:.0334959" transform="translate(-54.449 -37.864)"/><path d="M118.249 79.704c-.122 1.086 1.055 2.15 2.63 2.378 1.574.227 2.95-.468 3.071-1.554.122-1.086-1.055-2.15-2.63-2.378-1.574-.227-2.95.468-3.071 1.554" style="fill:#f6a7ba;fill-opacity:1;fill-rule:nonzero;stroke:none;stroke-width:.0334959" transform="translate(-54.449 -37.864)"/><path d="M121.397 60.097c-4.61-3.745-11.02-5.229-14.127-5.756 1.204 3.514 4.279 10.464 9.568 9.693 0 0 2.436 5.894 8.551 4.764-.25-3.269-.993-6.265-3.992-8.7M79.367 72.709c-.12.2-.246.398-.377.594-.837 1.248-1.807 2.857-2.586 4.734-2.365 5.7-.783 12.532 3.593 15.903 1.163.897 2.61 1.86 4.394 2.826 3.24-6.339-3.775-16.862-3.775-16.862.8-2.842-.262-5.507-1.249-7.195M94.108 56.21c1.922.274 3.06 2.996 1.093 4.238-1.292.872-2.922.502-4.296 1.092-.496.219-1.001.59-1.518.916-2.136 1.349-4.436-1.657-2.9-3.814 1.548-2.175 5.5-3.388 7.62-2.431M106.039 72.519c-.459 4.08 2.087 7.81 5.686 8.33 3.599.52 6.888-2.365 7.347-6.446.459-4.08-2.087-7.811-5.686-8.331-3.599-.52-6.888 2.366-7.347 6.447" style="fill:#41535d;fill-opacity:1;fill-rule:nonzero;stroke:none;stroke-width:.0334959" transform="translate(-54.449 -37.864)"/><path d="M105.325 73.21c-.46 4.08 2.086 7.81 5.685 8.33 3.599.52 6.889-2.365 7.347-6.446.46-4.081-2.086-7.81-5.685-8.331-3.599-.52-6.888 2.366-7.347 6.446" style="fill:#fff;fill-opacity:1;fill-rule:nonzero;stroke:none;stroke-width:.0334959" transform="translate(-54.449 -37.864)"/><path d="M105.975 73.091c-.196 1.74.89 3.331 2.424 3.553 1.535.222 2.938-1.009 3.133-2.749.196-1.74-.89-3.331-2.424-3.553-1.535-.222-2.938 1.01-3.133 2.75" style="fill:#1d1d1b;fill-opacity:1;fill-rule:nonzero;stroke:none;stroke-width:.0334959" transform="translate(-54.449 -37.864)"/><path d="m121.542 69.739-3.281.893.179.612zM121.54 73.537l-3.049-1.64-.2.604z" style="fill:#41535d;fill-opacity:1;fill-rule:nonzero;stroke:none;stroke-width:.0334959" transform="translate(-54.449 -37.864)"/><path d="M108.93 71.93c-.056.496.253.95.69 1.013.438.063.838-.288.893-.784.056-.496-.253-.95-.69-1.013-.438-.063-.838.288-.894.784M110.269 73.583c-.028.246.125.471.343.502.217.032.415-.142.443-.388.027-.246-.126-.471-.343-.503-.217-.031-.416.143-.443.389" style="fill:#fff;fill-opacity:1;fill-rule:nonzero;stroke:none;stroke-width:.0334959" transform="translate(-54.449 -37.864)"/><path d="m87.357 72.268 2.621-.175 6.522.757 5.108 1.479-.615 2.167s-2.452 2.263-2.561 2.247c-.11-.016-8.727-1.532-8.736-1.588-.01-.055-2.011-2.36-2.048-2.46-.037-.097-.291-2.427-.291-2.427" style="fill:#dcf4ff;fill-opacity:1;fill-rule:nonzero;stroke:none;stroke-width:.0334959" transform="translate(-54.449 -37.864)"/><path d="M87.357 72.268c4.776-.915 9.775.07 14.251 2.06-4.692-1.124-9.437-2.082-14.251-2.06" style="fill:#41535d;fill-opacity:1;fill-rule:nonzero;stroke:none;stroke-width:.0334959" transform="translate(-54.449 -37.864)"/><path d="m118.897 76.828-2.5-.915-6.48-1.123-5.272-.022.116 2.273s1.872 2.888 1.982 2.904c.11.015 8.786.999 8.808.948.021-.051 2.47-1.713 2.526-1.798.058-.085.82-2.267.82-2.267" style="fill:#dcf4ff;fill-opacity:1;fill-rule:nonzero;stroke:none;stroke-width:.0334959" transform="translate(-54.449 -37.864)"/><path d="M118.897 76.828c-4.422-2.245-9.478-2.714-14.252-2.06 4.791.246 9.597.669 14.252 2.06" style="fill:#41535d;fill-opacity:1;fill-rule:nonzero;stroke:none;stroke-width:.0334959" transform="translate(-54.449 -37.864)"/><path d="M116.475 81.599c-2.119-4.097-5.242-3.502-9.216-2.705-3.97.797-5.419.587-9.085-1.313-3.67-1.903-6.562-3.367-9.52-.004-2.956 3.363-1.572 15.115 12.197 17.25 13.8 1.85 17.742-9.132 15.624-13.228" style="fill:#ea7f9d;fill-opacity:1;fill-rule:nonzero;stroke:none;stroke-width:.0334959" transform="translate(-54.449 -37.864)"/><path d="M115.943 80.704V80.7c-2.096-3.098-5.003-2.784-8.656-2.051-3.97.796-5.419.587-9.086-1.313-3.379-1.752-6.125-2.884-8.843-.468-.131.18-2.976 4.333 10.603 7.282 1.357.295 2.732.494 4.11.594 14.108 1.03 11.872-4.04 11.872-4.04" style="fill:#f6a7ba;fill-opacity:1;fill-rule:nonzero;stroke:none;stroke-width:.0334959" transform="translate(-54.449 -37.864)"/><path d="M93.888 82.07c.576.845.747 1.79.382 2.11-.366.321-1.13-.104-1.706-.948-.576-.845-.748-1.79-.382-2.11.366-.321 1.13.104 1.706.948M110.414 84.46c-.745.653-1.119 1.519-.836 1.934.283.414 1.116.22 1.86-.433.746-.654 1.12-1.52.837-1.935-.283-.414-1.116-.22-1.86.433" style="fill:#e56282;fill-opacity:1;fill-rule:nonzero;stroke:none;stroke-width:.0334959" transform="translate(-54.449 -37.864)"/><path d="M113.093 79.512c-.001.343-.808.617-1.8.611-.993-.005-1.797-.287-1.795-.63.002-.343.807-.616 1.8-.61.993.004 1.796.287 1.795.63" style="fill:#fcbbce;fill-opacity:1;fill-rule:nonzero;stroke:none;stroke-width:.0334959" transform="translate(-54.449 -37.864)"/></svg>