<svg xmlns="http://www.w3.org/2000/svg" width="400" height="600" viewBox="0 0 105.833 158.75"><path d="M168.725 74.675s-18.616 9.819-28.125 12.016c-9.508 2.197 3.107 14.788 3.107 14.788l2.49-.516s14.908-3.426 26.61-18.862l-4.082-7.426" style="fill:#dcf4ff;fill-opacity:1;fill-rule:nonzero;stroke:none;stroke-width:.0350368" transform="translate(-66.974 -16.892)"/><path d="M165.661 76.247a207.88 207.88 0 0 0 3.064-1.572l4.082 7.426a56.878 56.878 0 0 1-2.2 2.722l-4.946-8.576" style="fill:#ffc255;fill-opacity:1;fill-rule:nonzero;stroke:none;stroke-width:.0350368" transform="translate(-66.974 -16.892)"/><path d="M169.831 85.706c-.663-.822-1.755-1.47-3.428-.592-3.568 1.872-4.507 5.173-4.507 5.173s-4.166-2.618-6.326 2.143c-.71 1.565-.772 3.293-.462 4.893 4.327-2.322 9.673-5.988 14.723-11.617" style="fill:#41535d;fill-opacity:1;fill-rule:nonzero;stroke:none;stroke-width:.0350368" transform="translate(-66.974 -16.892)"/><path d="M87.267 47.791s8.96 20.705 15.121 29.088c6.162 8.383-6.05 17.56-6.05 17.56l-6.331-10.385s-9.67-13.13-10.092-33.352l7.352-2.91" style="fill:#dcf4ff;fill-opacity:1;fill-rule:nonzero;stroke:none;stroke-width:.0350368" transform="translate(-66.974 -16.892)"/><path d="M88.767 51.164c-.938-2.076-1.5-3.373-1.5-3.373l-7.352 2.911c.026 1.248.087 2.47.18 3.663l8.672-3.201" style="fill:#ffc255;fill-opacity:1;fill-rule:nonzero;stroke:none;stroke-width:.0350368" transform="translate(-66.974 -16.892)"/><path d="M80.202 55.596c.978-.174 2.192.088 3 1.946 1.723 3.96.596 7.188.596 7.188s4.714.886 3.716 6.107c-.327 1.715-1.251 3.103-2.392 4.131a65.797 65.797 0 0 1-4.92-19.372" style="fill:#41535d;fill-opacity:1;fill-rule:nonzero;stroke:none;stroke-width:.0350368" transform="translate(-66.974 -16.892)"/><path d="M139.413 139.34s9.846 23.447 12.597 34.753c0 0-4.699 2.13-13.71 1.395 0 0-3.08-6.926-8.005-13.313-4.925-6.388 9.118-22.834 9.118-22.834M94.127 137.405s-15.75-2.633-23.298 3.248c-7.547 5.88-2 26.179-.192 34.835l12.057-1.61-.507-18.942s6.892.23 12.988 3.08c2.739 1.282 6.833-18.225-1.048-20.611" style="fill:#dcf4ff;fill-opacity:1;fill-rule:nonzero;stroke:none;stroke-width:.0350368" transform="translate(-66.974 -16.892)"/><path d="M69.348 169.613c.5 2.315.945 4.231 1.289 5.875h12.1l-.152-5.668-13.237-.207" style="fill:#ffc255;fill-opacity:1;fill-rule:nonzero;stroke:none;stroke-width:.0350368" transform="translate(-66.974 -16.892)"/><path d="M141.802 148.373c3.02-7.328 3.744-15.702 4.215-21.181 2.174-25.285-8.406-47.35-8.406-47.35l-12.54 1.114c-13.721 3.917-8.805-1.32-19.147-12.127l-2.527-2.64s-15.785 30.133-21.021 48.014c-2.566 8.761-4.513 23.02 2.512 33.789 5.57 8.537 14.765 10.478 21.409 12.033 4.716 1.104 7.95 2.835 8.568 2.912 20.968 2.613 26.937-14.564 26.937-14.564" style="fill:#dcf4ff;fill-opacity:1;fill-rule:nonzero;stroke:none;stroke-width:.0350368" transform="translate(-66.974 -16.892)"/><path d="M96.985 112.325c.217.604.828.9 1.364.643 1.312-.63 3.427-1.25 4.441.609 1.53 2.805-7.702 12.28-10.841 9.51-3.14-2.77-.571-10.55 1.685-11.837 1.734-.989 2.882-.226 3.35 1.075" style="fill:#41535d;fill-opacity:1;fill-rule:nonzero;stroke:none;stroke-width:.0350368" transform="translate(-66.974 -16.892)"/><path d="M100.05 73.323s7.724 15.398 21.541 19.424c13.818 4.026 22.913-5.924 22.913-5.924l-44.455-13.5" style="fill:#b1ecfc;fill-opacity:1;fill-rule:nonzero;stroke:none;stroke-width:.0350368" transform="translate(-66.974 -16.892)"/><path d="M140.817 88.077c-1.628 2.522-3.488 7.36-2.111 15.455.914 5.375 4.093 9.744 7.527 13.03-.486-11.59-3.17-21.795-5.416-28.485M105.318 92.744c-1.161 1-2.615 1.07-3.246.156-.632-.915-.202-2.468.96-3.469 1.16-1 2.614-1.07 3.246-.155.632.914.202 2.467-.96 3.468M99.906 96.457c1.044-6.23-5.94-5.48-5.94-5.48s7.363-8.175 5.888-14.658c-.18-.79-.47-1.252-.839-1.463-4.945 10.021-12.769 26.648-16.372 38.454 8.352-2.132 16.414-11.784 17.263-16.853M81.17 119.076c-1.13 5.532-1.68 12.194-.382 18.626 1.574-3.972 3.335-9.154 3.553-12.512.232-3.568-1.6-5.294-3.171-6.114M141.802 148.373c3.02-7.328 3.744-15.702 4.215-21.181.06-.693.108-1.383.149-2.07-1.34-.311-3.001.132-4.962 2.188-5.789 6.07-4.03 19.24-4.03 19.24s-5.182-.307-5.356 6.25c-.05 1.834.468 4.057 1.237 6.308 7.38-4.408 8.746-10.735 8.746-10.735" style="fill:#41535d;fill-opacity:1;fill-rule:nonzero;stroke:none;stroke-width:.0350368" transform="translate(-66.974 -16.892)"/><path d="m100.947 17.39-4.661-.498-1.686 5.186c-.282-.077-.637-.063-1 .06-.726.248-1.208.841-1.076 1.326.133.483.829.675 1.555.428.554-.19.964-.58 1.07-.968l1.644-5.058 3.11.202-1.28 3.936c-.282-.078-.638-.065-1.002.06-.727.247-1.208.84-1.076 1.324.132.484.828.676 1.554.428.543-.185.947-.561 1.064-.942l1.784-5.485M170.36 39.115l-2.788 2.315 1.379 3.792c-.19.114-.379.318-.523.588-.29.54-.292 1.134-.004 1.327.288.193.757-.088 1.046-.627.221-.412.274-.854.159-1.127l-1.345-3.698 1.802-1.615 1.047 2.878c-.19.114-.38.319-.526.59-.29.539-.291 1.133-.004 1.326.288.193.757-.087 1.047-.627.216-.403.271-.835.166-1.11h.001l-1.458-4.012M100.843 36.314l-2.984-1.987-2.604 2.878a1.352 1.352 0 0 0-.687-.313c-.558-.092-1.05.135-1.098.506-.05.371.363.747.92.84.425.069.81-.047.992-.27l2.54-2.808 2.028 1.238-1.977 2.185a1.359 1.359 0 0 0-.689-.316c-.557-.091-1.049.136-1.098.507-.049.371.363.747.92.839.416.068.795-.04.981-.255h.001l2.755-3.044M166.402 54.052l-4.021 2.679 1.386 5.295c-.267.124-.546.37-.773.709-.455.68-.529 1.476-.166 1.779.363.303 1.026-.003 1.48-.682.347-.518.47-1.103.35-1.487l-1.352-5.165 2.613-1.892 1.053 4.02c-.269.123-.55.369-.777.71-.454.68-.529 1.476-.166 1.779.363.303 1.026-.002 1.48-.682.34-.508.467-1.08.359-1.463l-1.466-5.6" style="fill:#203351;fill-opacity:1;fill-rule:nonzero;stroke:none;stroke-width:.0350368" transform="translate(-66.974 -16.892)"/><path d="M131.487 127.07c-2.864-16.566-14.85-18.824-14.853-18.825-.005 0-11.99-2.255-19.556 12.348-7.565 14.602-7.675 31.52-3.333 36.367 1.782 1.988 8.8 3.88 14.785 5.007 5.985 1.126 13.17 1.908 15.437.682 5.524-2.99 10.383-19.014 7.52-35.579" style="fill:#f6a7ba;fill-opacity:1;fill-rule:nonzero;stroke:none;stroke-width:.0350368" transform="translate(-66.974 -16.892)"/><path d="M110.288 150.314c-9.019-1.697-15.533-10.627-16.648-21.507-4.014 12.21-3.437 24.199.105 28.153 1.782 1.988 8.8 3.88 14.785 5.007 5.985 1.126 13.17 1.908 15.437.682 4.507-2.44 8.57-13.554 8.358-26.56-4.245 9.871-13.02 15.923-22.037 14.225" style="fill:#ea7f9d;fill-opacity:1;fill-rule:nonzero;stroke:none;stroke-width:.0350368" transform="translate(-66.974 -16.892)"/><path d="M100.758 51.69c-2.006-1.28-2.703-4.135-1.557-6.376l4.24-8.287c1.146-2.24 3.702-3.02 5.709-1.739 1.022.653 1.377 2.108.792 3.25l-6.275 12.267c-.584 1.142-1.887 1.539-2.909.886" style="fill:#247fb2;fill-opacity:1;fill-rule:nonzero;stroke:none;stroke-width:.0350368" transform="translate(-66.974 -16.892)"/><path d="M101.835 54.499c-1.022-.653-1.377-2.107-.793-3.25l7.91-15.463c.585-1.142 1.888-1.539 2.91-.887 1.022.653 1.377 2.108.793 3.25l-7.911 15.464c-.584 1.142-1.887 1.539-2.909.886" style="fill:#83c5f2;fill-opacity:1;fill-rule:nonzero;stroke:none;stroke-width:.0350368" transform="translate(-66.974 -16.892)"/><path d="M129.317 19.767s-5.6 11.028-4.405 16.992l-9.363-.479s1.614-15.519 13.768-16.513" style="fill:#ffc255;fill-opacity:1;fill-rule:nonzero;stroke:none;stroke-width:.0350368" transform="translate(-66.974 -16.892)"/><path d="m115.549 36.28 9.363.479c-.192-.957-.207-2.046-.1-3.197-3.469.414-6.47-.288-8.493-1.001-.607 2.16-.77 3.719-.77 3.719" style="fill:#f9a832;fill-opacity:1;fill-rule:nonzero;stroke:none;stroke-width:.0350368" transform="translate(-66.974 -16.892)"/><path d="M123.462 21.707c-.206.132-.405.269-.6.41l4.247 2.715c.083-.216.166-.429.248-.637l-3.895-2.488M119.642 25.398l6.166 3.271c.064-.22.13-.44.197-.66l-5.95-3.157c-.142.18-.28.362-.413.546M117.233 29.861l7.753 2.353c.037-.225.077-.451.12-.68l-7.609-2.308c-.092.213-.18.425-.264.635" style="fill:#ffd085;fill-opacity:1;fill-rule:nonzero;stroke:none;stroke-width:.0350368" transform="translate(-66.974 -16.892)"/><path d="M149.722 27.376s-2.097 12.461-6.457 16.153l7.427 6.388s7.737-13.016-.97-22.541" style="fill:#ffc255;fill-opacity:1;fill-rule:nonzero;stroke:none;stroke-width:.0350368" transform="translate(-66.974 -16.892)"/><path d="m150.692 49.917-7.427-6.388c.7-.592 1.34-1.413 1.924-2.369a20.982 20.982 0 0 0 7.064 5.36c-.784 2.089-1.56 3.397-1.56 3.397" style="fill:#f9a832;fill-opacity:1;fill-rule:nonzero;stroke:none;stroke-width:.0350368" transform="translate(-66.974 -16.892)"/><path d="M153.072 33.08c.08.249.154.498.22.747l-4.812-.99c.062-.225.122-.448.179-.665l4.413.908M153.856 38.654l-6.6-1.949c.079-.215.156-.43.23-.646l6.37 1.881c.004.24.005.477 0 .714M153.116 43.8l-7.28-3.795c.101-.199.201-.4.3-.605l7.145 3.724c-.052.23-.107.455-.165.676" style="fill:#ffd085;fill-opacity:1;fill-rule:nonzero;stroke:none;stroke-width:.0350368" transform="translate(-66.974 -16.892)"/><path d="M151.603 77.125c.082-2.195-.127-4.24-.367-5.874-1.241-8.445 4.19-15.408-1.251-22.395-4.761-6.113-12.891-9.525-14.85-10.282-.238-.093-.624-.25-.859-.352-1.933-.834-10.114-4.092-17.283-2.857-8.194 1.412-8.07 10.646-13.898 16.2-1.138 1.084-2.493 2.51-3.706 4.265-3.685 5.331-3.514 12.874.303 17.535 1.69 2.064 4.155 4.524 7.723 7.15 7.141 5.256 15.238 8.573 23.727 9.72 4.328.585 7.683.473 10.19.103 5.58-.824 10.02-6.518 10.271-13.213" style="fill:#dcf4ff;fill-opacity:1;fill-rule:nonzero;stroke:none;stroke-width:.0350368" transform="translate(-66.974 -16.892)"/><path d="M110.727 58.251c-.36 1.102-1.967 1.457-3.588.794-1.62-.663-2.642-2.092-2.281-3.194.36-1.1 1.967-1.456 3.588-.793 1.62.662 2.642 2.092 2.281 3.193M141.07 70.775c-.36 1.101.661 2.531 2.282 3.194 1.62.663 3.227.307 3.588-.794.36-1.101-.66-2.53-2.281-3.194-1.621-.663-3.227-.307-3.588.794" style="fill:#f6a7ba;fill-opacity:1;fill-rule:nonzero;stroke:none;stroke-width:.0350368" transform="translate(-66.974 -16.892)"/><path d="M139.015 64.824c-1.372-4.851-4.811-5.073-9.195-5.312-4.378-.24-5.87-.85-9.352-3.825-3.486-2.978-6.24-5.289-10.092-2.574-3.852 2.715-4.889 15.365 9.255 21.311 14.238 5.659 20.757-4.749 19.384-9.6" style="fill:#ea7f9d;fill-opacity:1;fill-rule:nonzero;stroke:none;stroke-width:.0350368" transform="translate(-66.974 -16.892)"/><path d="M138.643 63.746v-.004c-1.562-3.802-4.71-4.259-8.74-4.48-4.38-.239-5.871-.849-9.354-3.824-3.21-2.742-5.88-4.665-9.276-2.875-.178.153-4.079 3.722 9.69 10.468a33.74 33.74 0 0 0 4.231 1.73c14.738 4.886 13.449-1.015 13.449-1.015" style="fill:#f6a7ba;fill-opacity:1;fill-rule:nonzero;stroke:none;stroke-width:.0350368" transform="translate(-66.974 -16.892)"/><path d="M114.967 59.22c.43 1.037.41 2.07-.045 2.307-.456.236-1.175-.414-1.606-1.452-.432-1.037-.412-2.07.044-2.307.456-.236 1.175.414 1.607 1.451M131.98 66.176c-.929.482-1.51 1.285-1.299 1.795.212.51 1.136.532 2.065.05.93-.482 1.51-1.285 1.3-1.794-.212-.51-1.137-.532-2.066-.05" style="fill:#e56282;fill-opacity:1;fill-rule:nonzero;stroke:none;stroke-width:.0350368" transform="translate(-66.974 -16.892)"/><path d="M135.874 61.732c-.074.358-.987.426-2.039.152-1.05-.273-1.843-.785-1.768-1.143.074-.357.987-.426 2.038-.152 1.052.274 1.844.785 1.77 1.143" style="fill:#fcbbce;fill-opacity:1;fill-rule:nonzero;stroke:none;stroke-width:.0350368" transform="translate(-66.974 -16.892)"/><path d="M149.985 48.856c-3.981-5.112-10.317-8.334-13.431-9.695.493 3.981 2.188 12.036 7.847 12.613 0 0 1.26 6.787 7.855 7.204.444-3.477.318-6.796-2.271-10.122M103.615 51.044a14.53 14.53 0 0 1-.52.521c-1.138 1.084-2.493 2.51-3.706 4.265-3.685 5.331-3.514 12.874.303 17.535 1.015 1.238 2.311 2.62 3.955 4.096 4.732-5.77-.286-18.583-.286-18.583 1.444-2.756.915-5.815.254-7.834M122.48 37.676c1.938.787 2.534 3.924.223 4.706-1.53.573-3.144-.238-4.698.018-.561.1-1.166.354-1.774.56-2.51.85-4.25-2.887-2.19-4.737 2.077-1.865 6.443-2.1 8.44-.547M134.412 57.413c1.585-.393 3.314.01 4.645 1.08-1.699-2.11-4.63-2.244-6.78-.891 2.176.443 4.382 1.081 6.28 2.405-1.072-1.348-2.586-2.137-4.145-2.594M118.109 50.932c-1.071-1.363-2.68-2.177-4.32-2.19 2.486-.584 4.924 1.24 5.945 3.75-1.992-1.077-4.11-2.016-6.341-2.2 1.578-.38 3.216-.02 4.716.64" style="fill:#41535d;fill-opacity:1;fill-rule:nonzero;stroke:none;stroke-width:.0350368" transform="translate(-66.974 -16.892)"/><path d="m153.042 57.245 2.769.293c.042-.504 1.006-12.452-2.812-22.403l-2.556 1.224c3.533 9.208 2.609 20.77 2.6 20.886" style="fill:#5f5f8e;fill-opacity:1;fill-rule:nonzero;stroke:none;stroke-width:.0350368" transform="translate(-66.974 -16.892)"/><path d="M153.58 72.766c2.287.377 4.414-1.386 4.752-3.94l1.25-9.442c.338-2.553-1.242-4.93-3.528-5.307-1.164-.192-2.248.706-2.42 2.008l-1.85 13.977c-.173 1.301.632 2.512 1.797 2.704" style="fill:#247fb2;fill-opacity:1;fill-rule:nonzero;stroke:none;stroke-width:.0350368" transform="translate(-66.974 -16.892)"/><path d="M151.18 74.23c1.165.193 2.25-.706 2.422-2.007l2.332-17.62c.172-1.3-.633-2.511-1.797-2.704-1.165-.192-2.249.707-2.421 2.008l-2.332 17.619c-.173 1.301.632 2.512 1.797 2.705" style="fill:#83c5f2;fill-opacity:1;fill-rule:nonzero;stroke:none;stroke-width:.0350368" transform="translate(-66.974 -16.892)"/><path d="M109.15 35.288c.03.02.06.043.089.064.658-.797 1.744-1.014 2.623-.453.174.112.327.247.46.4 2.429-3.162 6.011-7.146 10.227-9.718l-1.333-2.726c-5.504 3.358-9.894 8.752-12.375 12.259.104.054.207.11.308.174" style="fill:#5f5f8e;fill-opacity:1;fill-rule:nonzero;stroke:none;stroke-width:.0350368" transform="translate(-66.974 -16.892)"/><path d="M154.158 35.436c-1.179-1.712-2.563-3.26-4.005-4.635-6.643-6.33-15.221-9.643-23.945-9.251-1.894.085-3.839.347-5.713.88-.575.163-.891.854-.686 1.476l1.298 3.927c.174.529.67.832 1.162.707 2.221-.56 8.478-1.737 14.976.656 6.433 2.603 10.701 7.848 12.139 9.82.318.438.875.542 1.305.247l3.192-2.193c.505-.347.64-1.11.277-1.634" style="fill:#203351;fill-opacity:1;fill-rule:nonzero;stroke:none;stroke-width:.0350368" transform="translate(-66.974 -16.892)"/><path d="M152.753 175.488c-.376-1.545-1.628-4.714-2.226-6.622l-15.183.936c1.886 3.281 2.956 5.686 2.956 5.686h14.453" style="fill:#ffc255;fill-opacity:1;fill-rule:nonzero;stroke:none;stroke-width:.0350368" transform="translate(-66.974 -16.892)"/><path d="M124.436 125.677c-.79.307-1.941-1.083-2.57-3.104-.629-2.021-.498-3.909.292-4.216.79-.306 1.941 1.084 2.57 3.105.629 2.021.498 3.908-.292 4.215M125.368 130.146c-.275.107-.675-.377-.895-1.081-.219-.704-.173-1.361.102-1.468.275-.107.676.377.895 1.081.219.704.174 1.36-.102 1.468" style="fill:#fcbbce;fill-opacity:1;fill-rule:nonzero;stroke:none;stroke-width:.0350368" transform="translate(-66.974 -16.892)"/></svg>