<?xml version="1.0" encoding="UTF-8" standalone="no"?>
<!-- Created with Inkscape (http://www.inkscape.org/) -->

<svg
   width="400"
   height="600"
   viewBox="0 0 400 600"
   version="1.1"
   id="svg1095"
   inkscape:version="1.2.1 (9c6d41e410, 2022-07-14)"
   sodipodi:docname="cow4.svg"
   xmlns:inkscape="http://www.inkscape.org/namespaces/inkscape"
   xmlns:sodipodi="http://sodipodi.sourceforge.net/DTD/sodipodi-0.dtd"
   xmlns="http://www.w3.org/2000/svg"
   xmlns:svg="http://www.w3.org/2000/svg">
  <sodipodi:namedview
     id="namedview1097"
     pagecolor="#505050"
     bordercolor="#ffffff"
     borderopacity="1"
     inkscape:showpageshadow="0"
     inkscape:pageopacity="0"
     inkscape:pagecheckerboard="1"
     inkscape:deskcolor="#505050"
     inkscape:document-units="mm"
     showgrid="false"
     inkscape:zoom="0.74564394"
     inkscape:cx="323.88113"
     inkscape:cy="262.86005"
     inkscape:window-width="1920"
     inkscape:window-height="1017"
     inkscape:window-x="-8"
     inkscape:window-y="-8"
     inkscape:window-maximized="1"
     inkscape:current-layer="layer1" />
  <defs
     id="defs1092" />
  <g
     inkscape:label="Warstwa 1"
     inkscape:groupmode="layer"
     id="layer1"
     transform="translate(-74.109468,-84.244511)">
    <g
       id="g478"
       transform="matrix(1.3417371,0,0,1.4195203,-831.15787,-784.71626)">
		<path
   style="fill:#dcf4ff"
   d="M 917.609,892.006 C 914.257,840.701 893.89,756.654 893.89,756.654 l -9.265,5.075 c -37.915,20.77 -83.805,20.77 -121.721,0 l -9.265,-5.075 c 0,0 -20.367,84.047 -23.719,135.352 -1.69,25.873 -1.676,43.419 -1.246,54.457 0.611,15.699 7.608,30.56 19.577,40.738 13.607,11.571 37.61,22.573 75.512,21.197 37.902,1.376 61.906,-9.626 75.512,-21.197 11.969,-10.178 18.966,-25.039 19.577,-40.738 0.432,-11.038 0.447,-28.584 -1.243,-54.457 z"
   id="path284" />

		<path
   style="fill:#b1ecfc"
   d="m 823.765,776.12 -62.804,-8.535 c 0,0 4.758,6.533 14.987,13.694 28.932,20.254 66.701,20.254 95.633,0 10.229,-7.161 14.987,-13.694 14.987,-13.694 z"
   id="path286" />

		<path
   style="fill:#dcf4ff"
   d="m 849.503,1002.747 c 0,0 74.865,26.592 104.738,32.082 0,0 11.154,-12.548 18.578,-35.903 0,0 -46.461,-26.24 -59.764,-38.119 -13.302,-11.879 -63.552,41.94 -63.552,41.94 z"
   id="path288" />

		<path
   style="fill:#ffc255"
   d="m 940.655,1031.74 c 4.9,1.275 9.503,2.338 13.586,3.089 0,0 11.154,-12.547 18.578,-35.903 l -14.061,-8.138 z"
   id="path290" />

		<path
   style="fill:#dcf4ff"
   d="m 798.014,1002.747 c 0,0 -74.865,26.592 -104.738,32.082 0,0 -11.154,-12.548 -18.578,-35.903 0,0 46.461,-26.24 59.764,-38.119 13.302,-11.879 63.552,41.94 63.552,41.94 z"
   id="path292" />

		<path
   style="fill:#ffc255"
   d="m 706.862,1031.74 c -4.9,1.275 -9.503,2.338 -13.586,3.089 0,0 -11.154,-12.547 -18.578,-35.903 l 14.061,-8.138 z"
   id="path294" />

		<path
   style="fill:#f6a7ba"
   d="m 872.878,911.858 c -14.886,-39.825 -49.102,-39.832 -49.113,-39.832 v 0 0 0 c -0.012,0 -34.227,0.007 -49.113,39.832 -14.885,39.822 -8.106,81.914 5.977,91.927 5.779,4.109 26.05,5.527 43.136,5.527 0,0 0,0 0,0 17.086,0 37.357,-1.418 43.136,-5.527 14.084,-10.013 20.862,-52.105 5.977,-91.927 z"
   id="path296" />

		<path
   style="fill:#ea7f9d"
   d="m 823.765,979.534 c -25.744,0 -47.566,-19.143 -55.218,-45.657 -6.03,32.219 0.592,61.739 12.082,69.907 5.779,4.109 26.05,5.527 43.136,5.527 0,0 0,0 0,0 17.086,0 37.357,-1.418 43.136,-5.527 11.49,-8.168 18.112,-37.688 12.082,-69.907 -7.652,26.514 -29.474,45.657 -55.218,45.657 z"
   id="path298" />

		<path
   style="fill:#fcbbce"
   d="m 857.905,900.506 c -1.763,1.562 -6.091,-0.445 -9.666,-4.483 -3.575,-4.037 -5.043,-8.576 -3.28,-10.137 1.763,-1.562 6.091,0.445 9.666,4.483 3.575,4.037 5.044,8.576 3.28,10.137 z"
   id="path300" />

		<path
   style="fill:#fcbbce"
   d="m 864.617,909.922 c -0.614,0.544 -2.121,-0.155 -3.366,-1.561 -1.245,-1.406 -1.756,-2.986 -1.142,-3.53 0.614,-0.544 2.121,0.155 3.366,1.561 1.244,1.405 1.756,2.986 1.142,3.53 z"
   id="path302" />

		<path
   style="fill:#41535d"
   d="m 755.743,896.076 c 1.146,1.176 3.02,1.21 4.168,0.037 2.812,-2.873 7.724,-6.581 12.145,-3.336 6.674,4.898 -8.279,36.867 -19.107,33.773 -10.828,-3.094 -11.602,-23.977 -6.961,-29.391 3.568,-4.161 7.288,-3.614 9.755,-1.083 z"
   id="path304" />

		<path
   style="fill:#41535d"
   d="m 729.355,901.517 c 21.56,-11.648 30.469,-39.236 28.861,-52.426 -1.934,-15.856 -14.032,-11.653 -14.032,-11.653 0,0 1.52,-27.776 -7.366,-42.101 -1.162,-1.873 9.652,-0.857 8.417,-0.962 -6.03,28.86 -13.411,68.516 -15.313,97.632 -0.217,3.306 -0.404,6.472 -0.567,9.51 z"
   id="path306" />

		<path
   style="fill:#41535d"
   d="m 728.699,916.854 c -0.27,8.652 -0.311,15.893 -0.224,21.848 -0.028,-0.021 -0.043,-0.031 -0.043,-0.031 0,0 0.295,9.346 1.141,26.078 12.079,-6.667 9.057,-22.945 9.024,-28.527 -0.038,-6.201 -5.549,-14.095 -9.898,-19.368 z"
   id="path308" />

		<path
   style="fill:#41535d"
   d="m 919.098,938.671 c 0,0 -0.015,0.011 -0.043,0.031 0.16,-10.949 -0.108,-26.201 -1.447,-46.695 -0.517,-7.918 -1.441,-16.617 -2.631,-25.665 -4.857,-0.698 -10.477,1.181 -14.705,10.479 -9.251,20.343 7.95,49.154 7.95,49.154 0,0 -13.781,4.834 -7.95,20.303 2.672,7.088 8.57,14.028 17.897,18.64 0.829,-16.516 0.929,-26.247 0.929,-26.247 z"
   id="path310" />

		<path
   style="fill:#41535d"
   d="m 875.006,824.945 c 3.346,5.796 3.43,12.011 0.187,13.884 -3.243,1.872 -8.584,-1.308 -11.93,-7.104 -3.346,-5.796 -3.43,-12.011 -0.187,-13.884 3.243,-1.872 8.584,1.309 11.93,7.104 z"
   id="path312" />

		<g
   id="g356">
			<g
   id="g326">
				<g
   id="g318">
					<path
   style="fill:#edc19a"
   d="m 757.72,805.823 c 0,0 0.08,6.823 3.68,10.111 3.6,3.288 13.388,-1.508 13.388,-1.508 0,0 -15.267,-2.735 -17.068,-8.603 z"
   id="path314" />

					<path
   style="fill:#f7e4d7"
   d="m 798.744,818.443 c -15.971,-7.954 -28.095,-0.166 -44.464,-7.772 l 30.958,30.257 c 0,0 25.249,9.651 26.188,9.651 0.939,0 11.9,-6.434 11.9,-6.434 v -3.217 c 0.002,0 -8.61,-14.53 -24.582,-22.485 z"
   id="path316" />

				</g>

				<g
   id="g324">
					<path
   style="fill:#edc19a"
   d="m 871.868,814.426 c 0,0 9.788,4.796 13.388,1.508 3.6,-3.288 3.68,-10.111 3.68,-10.111 -1.801,5.868 -17.068,8.603 -17.068,8.603 z"
   id="path320" />

					<path
   style="fill:#f7e4d7"
   d="m 847.911,818.443 c -15.971,7.955 -24.583,22.485 -24.583,22.485 v 3.217 c 0,0 10.961,6.434 11.9,6.434 0.939,0 26.188,-9.651 26.188,-9.651 l 30.958,-30.257 c -16.368,7.607 -28.492,-0.182 -44.463,7.772 z"
   id="path322" />

				</g>

			</g>

			<g
   id="g340">
				<g
   id="g332">
					<polygon
   style="fill:#247fb2"
   points="750.478,811.019 812.964,845.177 815.42,843.509 752.592,809.11 "
   id="polygon328" />

					<polygon
   style="fill:#3ea5dd"
   points="768.446,882.079 816.947,897.245 822.254,848.416 750.478,811.019 "
   id="polygon330" />

				</g>

				<g
   id="g338">
					<polygon
   style="fill:#247fb2"
   points="831.235,843.509 833.691,845.177 896.177,811.019 894.064,809.11 "
   id="polygon334" />

					<polygon
   style="fill:#83c5f2"
   points="829.708,897.245 878.21,882.079 896.177,811.019 824.741,848.238 "
   id="polygon336" />

				</g>

			</g>

			<polygon
   style="fill:#247fb2"
   points="833.819,843.509 823.328,843.509 812.837,843.509 816.947,897.246 823.328,897.246 829.708,897.246 "
   id="polygon342" />

			<g
   style="opacity:0.5"
   id="g352">
				<g
   id="g346">
					<path
   style="fill:#ffffff"
   d="m 882.363,829.84 c -1.584,-1.048 -2.313,-2.776 -1.902,-4.511 l 0.371,-1.563 -41.544,21.355 -0.023,0.391 c -0.09,1.515 -1.016,2.868 -2.477,3.619 l -0.376,0.193 -2.138,35.917 1.132,-0.379 c 1.558,-0.521 3.286,-0.302 4.623,0.588 1.337,0.889 2.083,2.315 1.993,3.813 l -0.065,1.088 32.69,-10.944 0.092,-0.385 c 0.354,-1.493 1.512,-2.701 3.098,-3.232 l 0.408,-0.137 10.992,-46.328 -1.538,0.79 c -1.707,0.88 -3.752,0.773 -5.336,-0.275 z m -5.49,44.762 c -1.75,0.709 -3.05,2.066 -3.577,3.732 l -29.732,9.954 c -0.22,-1.581 -1.144,-3.024 -2.595,-3.989 -1.136,-0.756 -2.484,-1.146 -3.85,-1.146 -0.38,0 -0.761,0.03 -1.139,0.091 l 1.969,-33.077 c 1.591,-0.95 2.63,-2.469 2.86,-4.179 l 37.956,-19.511 c 0.061,1.774 1.009,3.426 2.661,4.519 1.652,1.093 3.681,1.412 5.573,0.928 z"
   id="path344" />

				</g>

				<g
   id="g350">
					<path
   style="fill:#ffffff"
   d="m 809.868,849.132 c -1.461,-0.751 -2.387,-2.104 -2.477,-3.619 l -0.023,-0.391 -41.544,-21.355 0.371,1.563 c 0.411,1.734 -0.317,3.463 -1.901,4.511 -1.585,1.049 -3.629,1.154 -5.336,0.277 l -1.538,-0.79 10.992,46.328 0.408,0.137 c 1.586,0.531 2.744,1.739 3.098,3.232 l 0.091,0.385 32.69,10.944 -0.065,-1.088 c -0.089,-1.498 0.656,-2.923 1.993,-3.813 1.337,-0.89 3.065,-1.109 4.623,-0.588 l 1.132,0.379 -2.138,-35.917 z m -4.181,35.166 c -1.451,0.965 -2.375,2.408 -2.595,3.989 l -29.732,-9.954 c -0.527,-1.666 -1.827,-3.023 -3.577,-3.732 l -10.126,-42.678 c 1.892,0.484 3.922,0.164 5.573,-0.928 1.652,-1.093 2.601,-2.745 2.661,-4.519 l 37.956,19.511 c 0.229,1.71 1.269,3.229 2.86,4.179 l 1.969,33.077 c -1.738,-0.28 -3.538,0.089 -4.989,1.055 z"
   id="path348" />

				</g>

			</g>

			<path
   style="fill:#d78e6d"
   d="m 812.837,843.509 h 10.491 10.491 c 0,0 -5.785,-3.217 -10.491,-3.217 -4.706,0 -10.491,3.217 -10.491,3.217 z"
   id="path354" />

		</g>

		<g
   id="g368">
			<path
   style="fill:#dcf4ff"
   d="m 870.081,851.85 c 6.465,-4.01 12.303,-8.129 16.996,-11.642 7.206,-5.393 11.023,-14.208 9.995,-23.15 -0.139,-1.219 -0.283,-2.463 -0.431,-3.709 -1.158,-9.759 -3.343,-19.368 -6.515,-28.669 l -9.966,-29.222 7.254,-3.305 c 0,0 22.918,6.06 38.602,34.236 0.039,0.07 0.077,0.139 0.116,0.209 6.564,11.859 9.73,25.303 9.474,38.855 l -0.004,0.212 c -0.47,25.847 -20.844,46.941 -46.659,48.31 -9.242,0.49 -16.194,0.859 -16.194,0.859 z"
   id="path358" />

			<path
   style="fill:#ffc255"
   d="m 877.737,846.87 c -2.423,1.646 -4.981,3.323 -7.653,4.981 l 2.661,22.982 c 0,0 3.211,0.067 8.188,-0.353 z"
   id="path360" />

			<path
   style="fill:#41535d"
   d="m 926.126,786.589 c 5.484,9.906 8.591,20.913 9.319,32.167 -2.938,-0.411 -5.807,-1.456 -8.304,-3.387 -10.642,-8.228 -1.956,-18.505 -1.956,-18.505 0,0 -7.674,-4.159 -10.42,-14.91 -1.121,-4.39 0.388,-7.012 2.37,-8.571 3.076,3.701 6.093,7.998 8.881,13.006 0.036,0.067 0.073,0.133 0.11,0.2 z"
   id="path362" />

			<path
   style="fill:#41535d"
   d="m 924.277,785.297 c 28.172,45.848 4.559,94.239 -51.529,89.537 55.622,1.342 76.491,-42.693 51.529,-89.537 z"
   id="path364" />

			<path
   style="fill:#41535d"
   d="m 870.085,851.851 c 28.791,-18.375 36.63,-39.82 22.541,-71.5 16.933,30.269 7.798,55.873 -22.541,71.5 z"
   id="path366" />

		</g>

		<g
   id="g380">
			<path
   style="fill:#dcf4ff"
   d="m 776.352,851.85 c -6.465,-4.01 -12.303,-8.129 -16.996,-11.642 -7.206,-5.393 -11.023,-14.208 -9.995,-23.15 0.139,-1.219 0.283,-2.463 0.431,-3.709 1.158,-9.759 3.343,-19.368 6.516,-28.669 l 9.966,-29.222 -7.254,-3.305 c 0,0 -22.918,6.06 -38.602,34.236 -0.039,0.07 -0.078,0.139 -0.116,0.209 -6.564,11.859 -9.729,25.303 -9.474,38.855 l 0.004,0.212 c 0.469,25.847 20.844,46.941 46.659,48.31 9.242,0.49 16.194,0.859 16.194,0.859 z"
   id="path370" />

			<path
   style="fill:#ffc255"
   d="m 768.696,846.87 c 2.423,1.646 4.981,3.323 7.653,4.981 l -2.661,22.982 c 0,0 -3.211,0.067 -8.188,-0.353 z"
   id="path372" />

			<path
   style="fill:#41535d"
   d="m 720.307,786.589 c -5.484,9.906 -8.591,20.913 -9.319,32.167 2.938,-0.411 5.807,-1.456 8.304,-3.387 10.642,-8.228 1.956,-18.505 1.956,-18.505 0,0 7.674,-4.159 10.42,-14.91 1.121,-4.39 -0.388,-7.012 -2.37,-8.571 -3.076,3.701 -6.093,7.998 -8.881,13.006 -0.036,0.067 -0.073,0.133 -0.11,0.2 z"
   id="path374" />

			<path
   style="fill:#41535d"
   d="m 722.156,785.297 c -28.172,45.848 -4.559,94.239 51.529,89.537 -55.622,1.342 -76.491,-42.693 -51.529,-89.537 z"
   id="path376" />

			<path
   style="fill:#41535d"
   d="m 776.348,851.851 c -28.791,-18.375 -36.63,-39.82 -22.541,-71.5 -16.933,30.269 -7.798,55.873 22.541,71.5 z"
   id="path378" />

		</g>

		<g
   id="g476">
			<g
   id="g392">
				<path
   style="fill:#ffc255"
   d="m 796.056,612.151 c 0,0 -5.366,31.518 3.142,44.473 l -25.717,7.928 c 0,-10e-4 -9.378,-38.286 22.575,-52.401 z"
   id="path382" />

				<path
   style="fill:#f9a832"
   d="m 773.481,664.551 25.717,-7.928 c -1.365,-2.079 -2.37,-4.64 -3.1,-7.469 -9.003,4.337 -17.732,5.58 -23.827,5.849 0.27,5.702 1.21,9.548 1.21,9.548 z"
   id="path384" />

				<path
   style="fill:#ffd085"
   d="m 781.957,622.407 c -0.438,0.511 -0.857,1.03 -1.259,1.554 l 13.877,2.313 c 0.032,-0.593 0.068,-1.176 0.106,-1.747 z"
   id="path386" />

				<path
   style="fill:#ffd085"
   d="m 774.905,634.839 19.552,1.775 c -0.022,-0.585 -0.04,-1.169 -0.051,-1.752 l -18.871,-1.713 c -0.222,0.562 -0.434,1.125 -0.63,1.69 z"
   id="path388" />

				<path
   style="fill:#ffd085"
   d="m 772.348,647.732 23.027,-1.935 c -0.1,-0.568 -0.192,-1.143 -0.275,-1.723 l -22.6,1.899 c -0.06,0.592 -0.111,1.18 -0.152,1.759 z"
   id="path390" />

			</g>

			<g
   id="g404">
				<path
   style="fill:#ffc255"
   d="m 851.474,612.151 c 0,0 5.366,31.518 -3.142,44.473 l 25.717,7.928 c 0,-10e-4 9.378,-38.286 -22.575,-52.401 z"
   id="path394" />

				<path
   style="fill:#f9a832"
   d="m 874.049,664.551 -25.717,-7.928 c 1.365,-2.079 2.37,-4.64 3.1,-7.469 9.003,4.337 17.732,5.58 23.827,5.849 -0.269,5.702 -1.21,9.548 -1.21,9.548 z"
   id="path396" />

				<path
   style="fill:#ffd085"
   d="m 865.573,622.407 c 0.438,0.511 0.857,1.03 1.259,1.554 l -13.877,2.313 c -0.032,-0.593 -0.068,-1.176 -0.106,-1.747 z"
   id="path398" />

				<path
   style="fill:#ffd085"
   d="m 872.625,634.839 -19.552,1.775 c 0.022,-0.585 0.04,-1.169 0.051,-1.752 l 18.871,-1.713 c 0.222,0.562 0.434,1.125 0.63,1.69 z"
   id="path400" />

				<path
   style="fill:#ffd085"
   d="m 875.182,647.732 -23.027,-1.935 c 0.1,-0.568 0.192,-1.143 0.275,-1.723 l 22.6,1.899 c 0.06,0.592 0.111,1.18 0.152,1.759 z"
   id="path402" />

			</g>

			<path
   style="fill:#b1ecfc"
   d="m 770.784,668.87 c 0,0 -33.258,-7.606 -52.207,28.359 0,0 25.899,4.572 42.41,0 16.512,-4.572 9.797,-28.359 9.797,-28.359 z"
   id="path406" />

			<path
   style="fill:#f6a7ba"
   d="m 762.534,679.182 c 0,0 -24.106,2.419 -38.543,15.454 0,0 19.981,3.238 33.129,-2.176 13.149,-5.415 5.414,-13.278 5.414,-13.278 z"
   id="path408" />

			<path
   style="fill:#b1ecfc"
   d="m 876.745,668.87 c 0,0 33.258,-7.606 52.207,28.359 0,0 -25.899,4.572 -42.41,0 -16.511,-4.572 -9.797,-28.359 -9.797,-28.359 z"
   id="path410" />

			<path
   style="fill:#f6a7ba"
   d="m 884.995,679.182 c 0,0 24.106,2.419 38.543,15.454 0,0 -19.981,3.238 -33.129,-2.176 -13.148,-5.415 -5.414,-13.278 -5.414,-13.278 z"
   id="path412" />

			<path
   style="fill:#dcf4ff"
   d="m 903.69,728.014 c -1.721,-5.273 -4.095,-9.909 -6.191,-13.545 -10.828,-18.781 -2.32,-40.514 -23.203,-51.784 -18.272,-9.86 -43.254,-10.066 -49.216,-9.963 -0.724,0.013 -1.907,0.013 -2.631,0 -5.961,-0.103 -30.944,0.103 -49.216,9.963 -20.883,11.269 -12.375,33.002 -23.203,51.784 -2.114,3.666 -4.511,8.35 -6.235,13.679 -5.235,16.181 1.903,33.864 16.34,41.2 6.394,3.249 15.229,6.687 27.191,9.448 23.942,5.527 48.749,5.541 72.697,0.041 12.208,-2.804 21.173,-6.314 27.618,-9.616 14.345,-7.349 21.299,-25.12 16.049,-41.207 z"
   id="path414" />

			<path
   style="fill:#f6a7ba"
   d="m 776.098,716.412 c 0,2.955 -3.938,5.35 -8.797,5.35 -4.858,0 -8.797,-2.395 -8.797,-5.35 0,-2.955 3.939,-5.35 8.797,-5.35 4.859,-10e-4 8.797,2.395 8.797,5.35 z"
   id="path416" />

			<g
   id="g432">
				
					<circle
   transform="matrix(0.2898,-0.9571,0.9571,0.2898,-106.5788,1259.6786)"
   style="fill:#41535d"
   cx="795.48602"
   cy="701.65198"
   id="ellipse418"
   r="20.108999" />

				<circle
   style="fill:#ffffff"
   cx="797.41998"
   cy="703.77899"
   r="20.108999"
   id="circle420" />

				<circle
   style="fill:#1d1d1b"
   cx="805.56799"
   cy="712.10498"
   r="8.5749998"
   id="circle422" />

				<polygon
   style="fill:#41535d"
   points="779.126,691.868 778.374,693.438 769.469,688.206 "
   id="polygon424" />

				<polygon
   style="fill:#41535d"
   points="777.995,695.167 778.395,696.86 768.179,698.378 "
   id="polygon426" />

				<path
   style="fill:#ffffff"
   d="m 805.568,707.851 c 0,1.35 -1.094,2.445 -2.444,2.445 -1.35,0 -2.444,-1.094 -2.444,-2.445 0,-1.35 1.094,-2.444 2.444,-2.444 1.349,0 2.444,1.094 2.444,2.444 z"
   id="path428" />

				<path
   style="fill:#ffffff"
   d="m 800.936,711.759 c 0,0.67 -0.543,1.213 -1.213,1.213 -0.67,0 -1.213,-0.543 -1.213,-1.213 0,-0.67 0.543,-1.213 1.213,-1.213 0.67,0 1.213,0.543 1.213,1.213 z"
   id="path430" />

			</g>

			<path
   style="fill:#f6a7ba"
   d="m 871.432,716.412 c 0,2.955 3.938,5.35 8.797,5.35 4.858,0 8.797,-2.395 8.797,-5.35 0,-2.955 -3.939,-5.35 -8.797,-5.35 -4.859,-10e-4 -8.797,2.395 -8.797,5.35 z"
   id="path434" />

			<g
   id="g440">
				<path
   style="fill:#fcbbce"
   d="m 853.938,767.725 c 6.877,-3.809 9.178,-12.807 5.14,-20.1 l -24.904,13.792 c 4.038,7.293 12.886,10.117 19.764,6.308 z"
   id="path436" />

				<path
   style="fill:#e56282"
   d="m 851.427,763.192 c 5.336,-2.955 7.358,-9.509 4.516,-14.64 l -19.322,10.701 c 2.842,5.13 9.47,6.894 14.806,3.939 z"
   id="path438" />

			</g>

			<g
   id="g458">
				
					<circle
   transform="matrix(0.9239,-0.3827,0.3827,0.9239,-203.6526,379.4724)"
   style="fill:#41535d"
   cx="852.04401"
   cy="701.65198"
   id="ellipse442"
   r="20.108999" />

				<circle
   style="fill:#ffffff"
   cx="850.10999"
   cy="703.77899"
   r="20.108999"
   id="circle444" />

				<polygon
   style="fill:#41535d"
   points="868.403,691.868 869.155,693.438 878.061,688.206 "
   id="polygon446" />

				<polygon
   style="fill:#41535d"
   points="869.535,695.167 869.135,696.86 879.351,698.378 "
   id="polygon448" />

				<g
   id="g456">
					<circle
   style="fill:#1d1d1b"
   cx="842.20398"
   cy="712.10498"
   r="8.5749998"
   id="circle450" />

					<path
   style="fill:#ffffff"
   d="m 842.204,707.851 c 0,1.35 1.094,2.445 2.444,2.445 1.35,0 2.444,-1.094 2.444,-2.445 0,-1.35 -1.094,-2.444 -2.444,-2.444 -1.35,0 -2.444,1.094 -2.444,2.444 z"
   id="path452" />

					<path
   style="fill:#ffffff"
   d="m 846.836,711.759 c 0,0.67 0.543,1.213 1.213,1.213 0.67,0 1.213,-0.543 1.213,-1.213 0,-0.67 -0.543,-1.213 -1.213,-1.213 -0.671,0 -1.213,0.543 -1.213,1.213 z"
   id="path454" />

				</g>

			</g>

			<path
   style="fill:#ea7f9d"
   d="m 866.69,722.172 c -7.831,-10.151 -17.112,-7.348 -28.907,-3.674 -11.783,3.67 -16.254,3.67 -28.037,0 -11.795,-3.674 -21.076,-6.477 -28.907,3.674 -7.831,10.151 0.387,41.089 42.926,41.476 v 0 c 0,0 0,0 0,0 0,0 0,0 0,0 v 0 c 42.539,-0.387 50.757,-31.324 42.925,-41.476 z"
   id="path460" />

			<path
   style="fill:#f6a7ba"
   d="m 864.772,719.982 -0.004,-0.009 c -7.421,-7.486 -16.14,-5.521 -26.984,-2.143 -11.783,3.67 -16.254,3.67 -28.037,0 -10.859,-3.382 -19.586,-5.35 -27.013,2.172 -0.338,0.536 -7.557,12.755 34.684,15.397 4.219,0.264 8.464,0.264 12.683,0 43.19,-2.701 34.671,-15.417 34.671,-15.417 z"
   id="path462" />

			<path
   style="fill:#e56282"
   d="m 798.265,732.181 c 2.039,2.039 2.881,4.503 1.88,5.503 -1,1.001 -3.464,0.159 -5.503,-1.88 -2.039,-2.039 -2.88,-4.503 -1.88,-5.503 1,-1.001 3.464,-0.159 5.503,1.88 z"
   id="path464" />

			<path
   style="fill:#e56282"
   d="m 849.265,732.181 c -2.039,2.039 -2.88,4.503 -1.88,5.503 1.001,1.001 3.464,0.159 5.503,-1.88 2.039,-2.039 2.88,-4.503 1.88,-5.503 -1,-1.001 -3.464,-0.159 -5.503,1.88 z"
   id="path466" />

			<path
   style="fill:#fcbbce"
   d="m 855.709,717.895 c 0.113,0.919 -2.241,1.963 -5.258,2.333 -3.016,0.37 -5.553,-0.075 -5.666,-0.993 -0.113,-0.919 2.241,-1.963 5.258,-2.333 3.017,-0.37 5.554,0.075 5.666,0.993 z"
   id="path468" />

			<path
   style="fill:#41535d"
   d="m 874.296,662.686 c -15.28,-8.246 -35.246,-9.739 -44.863,-9.947 4.857,8.944 16.567,26.366 32.363,22.254 0,0 9.409,14.842 27.595,9.448 -1.878,-8.657 -5.156,-16.392 -15.095,-21.755 z"
   id="path470" />

			<path
   style="fill:#41535d"
   d="m 750.974,712.732 c -0.297,0.582 -0.61,1.161 -0.943,1.738 -2.114,3.666 -4.511,8.35 -6.235,13.679 -5.235,16.181 1.903,33.864 16.34,41.2 3.838,1.95 8.563,3.967 14.308,5.867 7.676,-18.232 -17.221,-43.696 -17.221,-43.696 1.461,-7.923 -2.674,-14.649 -6.249,-18.788 z"
   id="path472" />

			<path
   style="fill:#41535d"
   d="m 790.102,662.843 c 5.931,-0.012 10.317,6.836 4.766,10.923 -3.625,2.835 -8.702,2.477 -12.673,4.588 -1.429,0.779 -2.837,1.966 -4.296,3.041 -6.026,4.439 -14.034,-2.72 -10.107,-9.092 3.958,-6.422 15.542,-11.203 22.31,-9.46 z"
   id="path474" />

		</g>

	</g>
  </g>
</svg>
