<svg xmlns="http://www.w3.org/2000/svg" width="35" height="35" class="svg-icon" style="overflow:hidden;fill:currentColor"><path d="M33.25 15.75h-1.872A14 14 0 0 0 19.25 3.622V1.749a1.75 1.75 0 0 0-3.5 0v1.873A14 14 0 0 0 3.623 15.75H1.75a1.75 1.75 0 0 0 0 3.5h1.873A14 14 0 0 0 15.75 31.378v1.873a1.75 1.75 0 0 0 3.5 0v-1.873A14 14 0 0 0 31.378 19.25h1.872a1.75 1.75 0 0 0 0-3.5zm-7 3.5h1.593a10.5 10.5 0 0 1-8.593 8.593V26.25a1.75 1.75 0 0 0-3.5 0v1.593a10.5 10.5 0 0 1-8.592-8.593H8.75a1.75 1.75 0 0 0 0-3.5H7.158a10.5 10.5 0 0 1 8.592-8.593V8.75a1.75 1.75 0 0 0 3.5 0V7.157a10.5 10.5 0 0 1 8.593 8.593H26.25a1.75 1.75 0 0 0 0 3.5zm-8.75-3.5a1.75 1.75 0 1 0 1.75 1.75 1.75 1.75 0 0 0-1.75-1.75z" style="fill:red;fill-opacity:1;stroke-width:.0410163"/></svg>