<svg xmlns="http://www.w3.org/2000/svg" xml:space="preserve" width="800" height="800" viewBox="0 0 32 32"><defs><linearGradient id="a"><stop offset="0" style="stop-color:#000;stop-opacity:1"/><stop offset="1" style="stop-color:#000;stop-opacity:0"/></linearGradient><linearGradient id="b"><stop offset="0" style="stop-color:#c4a000;stop-opacity:1"/><stop offset=".618" style="stop-color:#fce94f;stop-opacity:1"/><stop offset="1" style="stop-color:#c4a000;stop-opacity:1"/></linearGradient><linearGradient id="c"><stop offset="0" style="stop-color:#d3bc00;stop-opacity:1"/><stop offset="1" style="stop-color:#fdf188;stop-opacity:1"/></linearGradient><linearGradient id="d"><stop offset="0" style="stop-color:#fff;stop-opacity:1"/><stop offset="1" style="stop-color:#fff;stop-opacity:0"/></linearGradient><linearGradient id="e"><stop offset="0" style="stop-color:#fff;stop-opacity:1"/><stop offset=".073" style="stop-color:#fff;stop-opacity:1"/><stop offset=".727" style="stop-color:#c17d11;stop-opacity:1"/><stop offset="1" style="stop-color:#e9b96e;stop-opacity:1"/></linearGradient><linearGradient id="f"><stop offset="0" style="stop-color:#8f5902;stop-opacity:1"/><stop offset="1" style="stop-color:#c4a000;stop-opacity:1"/></linearGradient></defs><path fill="#B83B5E" d="M16 7.073c-2.98-2.751-7.81-2.751-10.79 0-2.979 2.752-2.979 7.212 0 9.963L16 27l10.79-9.963c2.979-2.751 2.979-7.211 0-9.963-2.98-2.751-7.81-2.75-10.79 0z" style="fill:#5a3b5e;fill-opacity:1;stroke-width:1.00065"/><path fill="#8A2C47" d="M7.214 16.037c-2.98-2.752-2.98-7.212 0-9.963.258-.237.532-.447.815-.643A7.703 7.703 0 0 0 5.21 7.073c-2.98 2.752-2.98 7.212 0 9.963L16 27l1.543-1.425Z" style="fill:#4b2c47;fill-opacity:1;stroke-width:1.00065"/><path fill="#C6627E" d="M26.79 7.073c-2.98-2.751-7.81-2.751-10.79 0-2.98-2.751-7.81-2.751-10.79 0a6.934 6.934 0 0 0-1.895 2.91c3.01-2.657 8.738-2.63 11.683.089 2.98-2.752 6.808-2.752 9.788 0 2.073 1.914 2.699 4.653 1.888 7.07l.115-.106c2.979-2.75 2.979-7.211 0-9.963z" style="fill:#80627e;fill-opacity:1;stroke-width:1.00065"/><path fill="none" stroke="#200f60" stroke-linecap="round" stroke-linejoin="round" stroke-miterlimit="10" stroke-width="2.002" d="M16 7.073c-2.98-2.751-7.81-2.751-10.79 0-2.979 2.752-2.979 7.212 0 9.963L16 27l10.79-9.963c2.979-2.751 2.979-7.211 0-9.963-2.98-2.751-7.81-2.75-10.79 0z"/><path fill="none" stroke="#fff" stroke-linecap="round" stroke-linejoin="round" stroke-miterlimit="10" stroke-width="2.002" d="M22.01 9.052c.786.113 1.5.443 2.057.956.612.565.95 1.292.95 2.047"/></svg>