<?xml version="1.0" encoding="UTF-8" standalone="no"?>
<!-- Uploaded to: SVG Repo, www.svgrepo.com, Generator: SVG Repo Mixer Tools -->

<svg
   width="800px"
   height="800px"
   viewBox="0 0 32 32"
   enable-background="new 0 0 32 32"
   id="Filled_Line"
   version="1.1"
   xml:space="preserve"
   sodipodi:docname="empty-ufo-life.svg"
   inkscape:version="1.2.1 (9c6d41e410, 2022-07-14)"
   xmlns:inkscape="http://www.inkscape.org/namespaces/inkscape"
   xmlns:sodipodi="http://sodipodi.sourceforge.net/DTD/sodipodi-0.dtd"
   xmlns="http://www.w3.org/2000/svg"
   xmlns:svg="http://www.w3.org/2000/svg"><defs
     id="defs10" /><sodipodi:namedview
     id="namedview8"
     pagecolor="#505050"
     bordercolor="#ffffff"
     borderopacity="1"
     inkscape:showpageshadow="0"
     inkscape:pageopacity="0"
     inkscape:pagecheckerboard="1"
     inkscape:deskcolor="#505050"
     showgrid="false"
     inkscape:zoom="1.04625"
     inkscape:cx="399.5221"
     inkscape:cy="400.4779"
     inkscape:window-width="1920"
     inkscape:window-height="1017"
     inkscape:window-x="-8"
     inkscape:window-y="-8"
     inkscape:window-maximized="1"
     inkscape:current-layer="Filled_Line" /><path
     d="M16,8.064c-2.974-2.753-7.796-2.753-10.77,0s-2.974,7.215,0,9.968L16,28l10.77-9.968  c2.974-2.753,2.974-7.215,0-9.968S18.974,5.312,16,8.064z"
     fill="#B83B5E"
     id="XMLID_1338_"
     style="fill:#5a3b5e;fill-opacity:1" /><path
     d="M7.23,17.032c-2.974-2.753-2.974-7.215,0-9.968c0.257-0.237,0.531-0.447,0.813-0.643  C7.017,6.761,6.052,7.304,5.23,8.064c-2.974,2.753-2.974,7.215,0,9.968L16,28l1.54-1.426L7.23,17.032z"
     fill="#8A2C47"
     id="XMLID_1344_"
     style="fill:#4b2c47;fill-opacity:1" /><path
     d="M26.77,8.064c-2.974-2.753-7.796-2.753-10.77,0c-2.974-2.753-7.796-2.753-10.77,0  c-0.91,0.843-1.539,1.846-1.892,2.911C6.342,8.317,12.06,8.343,15,11.064c2.974-2.753,6.796-2.753,9.77,0  c2.069,1.915,2.694,4.656,1.885,7.074l0.115-0.106C29.743,15.28,29.743,10.817,26.77,8.064z"
     fill="#C6627E"
     id="XMLID_1342_"
     style="fill:#80627e;fill-opacity:1" /><path
     d="  M16,8.064c-2.974-2.753-7.796-2.753-10.77,0s-2.974,7.215,0,9.968L16,28l10.77-9.968c2.974-2.753,2.974-7.215,0-9.968  S18.974,5.312,16,8.064z"
     fill="none"
     id="XMLID_818_"
     stroke="#200F60"
     stroke-linecap="round"
     stroke-linejoin="round"
     stroke-miterlimit="10"
     stroke-width="2" /><path
     d="  M22,10.044c0.784,0.113,1.497,0.443,2.052,0.956C24.663,11.565,25,12.293,25,13.048"
     fill="none"
     id="XMLID_1340_"
     stroke="#FFFFFF"
     stroke-linecap="round"
     stroke-linejoin="round"
     stroke-miterlimit="10"
     stroke-width="2" /></svg>
