<svg xmlns="http://www.w3.org/2000/svg" xml:space="preserve" width="270.682" height="401.839" viewBox="0 0 71.618 106.32"><path d="M117.996 194.794c-2.205-.986-2.771-1.192-2.907-1.056-.066.066.076 4.624.316 10.128.853 19.571 1.206 28.058 1.358 32.628.085 2.546.217 5.136.293 5.754l.14 1.125-9.848 26.619-10.558-26.607.007-.596c.004-.327.461-11.49 1.016-24.805.555-13.315.964-24.257.91-24.316-.055-.058-1.051.323-2.213.848-1.162.525-2.171.86-2.242.746-.272-.44 1.947-6.212 3.18-8.265 6.013-10.024 14.421-9.62 19.567.94 1.236 2.537 2.502 6.182 2.502 7.206 0 .227-.484.116-1.521-.348z" style="fill:#89ecfd;fill-opacity:1;stroke-width:.264583" transform="translate(-71.145 -163.672)"/><path d="M139.843 212.933c-.063 0-2.369-2.912-5.125-6.47-4.457-5.754-5.673-7.092-5.673-6.24 0 .136.475 3.261 1.054 6.944 2.699 17.148 5.585 35.726 5.585 35.949 0 .147-7.792-8.09-9.777-10.748l-2.502 23.424-6.349-13.544c-.076-.618-.208-3.208-.293-5.754-.152-4.57-.505-13.057-1.358-32.629-.24-5.503-.376-10.066-.303-10.14.073-.073 1.067.277 2.208.78 1.141.502 2.113.813 2.16.69.21-.552-1.16-4.606-2.454-7.259-5.15-10.56-13.555-10.964-19.569-.94-1.232 2.053-3.451 7.825-3.179 8.265.071.114 1.08-.221 2.242-.746 1.162-.524 2.158-.906 2.212-.848.055.059-.354 11-.91 24.316-.554 13.316-1.01 24.478-1.015 24.806l-5.507 13.547-3.405-24.124-9.616 11.182v-.56c0-.587 6.254-41.204 6.504-42.24.371-1.536-.967-.139-5.618 5.863-2.752 3.552-5.034 6.379-5.072 6.281-.037-.097 2.182-7.259 4.933-15.914 2.75-8.656 4.953-15.785 4.894-15.844-2.303.098-4.432.992-6.9 1.144-.258-.259 7.081-4.424 10-5.818 16.12-7.7 33.917-6.189 46.899 3.985.838.657 3.753 1.894 3.712 1.935-2.577-.188-5.149-1.135-7.705-1.214-.087.087 9.139 29.47 9.92 31.59.066.182.07.33.007.33z" style="fill:#6edafd;fill-opacity:1;stroke-width:.264583" transform="translate(-71.145 -163.672)"/><path d="M142.593 183.127c-.11.068-1.688-.176-3.506-.542-3.125-.63-3.392-.734-4.893-1.924-14.662-11.616-36.043-11.882-52.917-.658-2.85 1.894-2.973 1.947-5.952 2.51-1.673.316-3.31.633-3.638.705-2.381.52 3.563-6.9 8.363-10.44 20.143-14.854 48.984-11.09 61.56 8.034 1.22 1.856 1.325 2.103.983 2.315z" style="fill:#6ebdfd;fill-opacity:1;stroke-width:.264583" transform="translate(-71.145 -163.672)"/></svg>