<?xml version="1.0" encoding="UTF-8" standalone="no"?>
<!-- Created with Inkscape (http://www.inkscape.org/) -->

<svg
   width="270.68198"
   height="401.83905"
   viewBox="0 0 71.617941 106.31991"
   version="1.1"
   id="svg331"
   xml:space="preserve"
   inkscape:version="1.2.1 (9c6d41e410, 2022-07-14)"
   sodipodi:docname="fire.svg"
   xmlns:inkscape="http://www.inkscape.org/namespaces/inkscape"
   xmlns:sodipodi="http://sodipodi.sourceforge.net/DTD/sodipodi-0.dtd"
   xmlns="http://www.w3.org/2000/svg"
   xmlns:svg="http://www.w3.org/2000/svg"><sodipodi:namedview
     id="namedview333"
     pagecolor="#505050"
     bordercolor="#ffffff"
     borderopacity="1"
     inkscape:showpageshadow="0"
     inkscape:pageopacity="0"
     inkscape:pagecheckerboard="1"
     inkscape:deskcolor="#505050"
     inkscape:document-units="mm"
     showgrid="false"
     inkscape:zoom="1.0544998"
     inkscape:cx="-229.01854"
     inkscape:cy="60.692284"
     inkscape:window-width="1920"
     inkscape:window-height="1017"
     inkscape:window-x="-8"
     inkscape:window-y="-8"
     inkscape:window-maximized="1"
     inkscape:current-layer="g365" /><defs
     id="defs328" /><g
     inkscape:label="Warstwa 1"
     inkscape:groupmode="layer"
     id="layer1"
     transform="translate(-69.725233,-122.15554)"><g
       id="g365"
       transform="translate(-1.4193574,-41.516129)"><path
         style="fill:#89ecfd;fill-opacity:1;stroke-width:0.264583"
         d="m 117.9958,194.79448 c -2.2049,-0.98622 -2.77117,-1.19203 -2.90664,-1.05641 -0.0663,0.0664 0.0757,4.62381 0.31565,10.12754 0.85326,19.57146 1.20664,28.05889 1.35849,32.62816 0.0846,2.54656 0.2165,5.1361 0.29303,5.75452 l 0.13916,1.1244 -9.84783,26.6189 -10.557511,-26.6069 0.0071,-0.59532 c 0.0039,-0.32742 0.46095,-11.48979 1.015627,-24.80525 0.554674,-13.31547 0.963834,-24.25762 0.909245,-24.31588 -0.05459,-0.0583 -1.05012,0.32323 -2.21229,0.84777 -1.162167,0.52453 -2.170873,0.86023 -2.241565,0.74599 -0.272674,-0.44065 1.947123,-6.21224 3.178839,-8.26515 6.014025,-10.02363 14.422355,-9.61976 19.567585,0.93987 1.23611,2.53691 2.50206,6.18217 2.50263,7.20629 1.3e-4,0.22679 -0.48429,0.11601 -1.52155,-0.34794 z"
         id="path371"
         sodipodi:nodetypes="csssscccsssssssscc" /><path
         style="fill:#6edafd;fill-opacity:1;stroke-width:0.264583"
         d="m 139.84293,212.93295 c -0.0626,3e-5 -2.36896,-2.91152 -5.12516,-6.47011 -4.45655,-5.75398 -5.67306,-7.09226 -5.67258,-6.24041 8e-5,0.13642 0.47435,3.26155 1.05394,6.94472 2.69837,17.14754 5.5845,35.72582 5.58462,35.94876 9e-5,0.1475 -7.79183,-8.09019 -9.77632,-10.74839 l -2.50226,23.42435 -6.34884,-13.54375 c -0.0765,-0.61842 -0.2084,-3.20796 -0.29303,-5.75452 -0.15185,-4.56927 -0.50523,-13.0567 -1.35849,-32.62816 -0.23994,-5.50373 -0.37622,-10.0669 -0.30284,-10.14036 0.0734,-0.0735 1.06713,0.27736 2.20833,0.77962 1.1412,0.50225 2.11306,0.81291 2.15969,0.69034 0.21004,-0.55209 -1.1605,-4.60578 -2.45425,-7.25908 -5.14903,-10.55984 -13.55455,-10.96355 -19.568612,-0.93987 -1.231716,2.05291 -3.451513,7.8245 -3.178839,8.26515 0.07069,0.11424 1.079398,-0.22146 2.241565,-0.74599 1.162169,-0.52454 2.157697,-0.90604 2.212289,-0.84777 0.05459,0.0583 -0.35457,11.00041 -0.909244,24.31588 -0.554677,13.31546 -1.011706,24.47783 -1.015627,24.80525 l -5.5071,13.54693 -3.405576,-24.12403 -9.615254,11.18242 -3.13e-4,-0.56031 c -3.28e-4,-0.58662 6.254066,-41.20396 6.504209,-42.23968 0.370828,-1.53544 -0.967337,-0.13886 -5.61795,5.86318 -2.752213,3.55199 -5.034686,6.37845 -5.07216,6.28103 -0.03747,-0.0974 2.182226,-7.25886 4.932666,-15.9143 2.75044,-8.65544 4.95292,-15.78499 4.894404,-15.84344 -2.30306,0.0973 -4.432476,0.9915 -6.899536,1.1434 -0.258841,-0.25855 7.080824,-4.42426 9.998572,-5.81797 16.121246,-7.70054 33.917616,-6.18835 46.899306,3.98513 0.83867,0.65725 3.75356,1.89375 3.71275,1.9346 -2.57709,-0.18802 -5.14892,-1.13486 -7.70534,-1.21352 -0.0873,0.0874 9.13871,29.46952 9.91918,31.58965 0.0669,0.18186 0.0705,0.33069 0.008,0.33073 z"
         id="path369"
         sodipodi:nodetypes="csssscccssssscsssssscccsssssccssccccc" /><path
         style="fill:#6ebdfd;fill-opacity:1;stroke-width:0.264583"
         d="m 142.59292,183.12652 c -0.11055,0.0684 -1.68826,-0.17526 -3.50604,-0.54147 -3.12481,-0.62952 -3.39165,-0.73445 -4.89325,-1.92407 -14.66161,-11.6155 -36.043046,-11.88151 -52.91704,-0.65834 -2.848861,1.89483 -2.972575,1.947 -5.951722,2.51016 -1.673313,0.31632 -3.310245,0.63367 -3.637627,0.70522 -2.381372,0.5205 3.562406,-6.8995 8.362314,-10.43921 20.142955,-14.8545 48.984745,-11.09067 61.560945,8.03364 1.22001,1.85525 1.32484,2.10217 0.98242,2.31407 z"
         id="path367" /></g></g></svg>
