<svg xmlns="http://www.w3.org/2000/svg" width="800" height="600"><path d="m5991.56 4245.144-50.086-7.182-41.743 7.182V5401.9h91.829V4245.144" style="fill:#863d36;fill-opacity:1;fill-rule:nonzero;stroke:none;stroke-width:1.03907" transform="matrix(.13333 0 0 -.13333 -171.335 823.08)"/><path d="M5924.786 4245.144 5991.56 5401.9V4245.144h-66.774" style="fill:#391d17;fill-opacity:1;fill-rule:nonzero;stroke:none;stroke-width:1.03907" transform="matrix(.13333 0 0 -.13333 -171.335 823.08)"/><path d="m5524.096 5049.842 267.119-244.274h325.56l233.733 179.62 58.43 431.085-442.421 352.058-459.12-287.384 16.699-431.105" style="fill:#4c732a;fill-opacity:1;fill-rule:nonzero;stroke:none;stroke-width:1.03907" transform="matrix(.13333 0 0 -.13333 -171.335 823.08)"/><path d="m5507.397 5480.947 459.12 287.384 25.043-366.43-484.163 79.046" style="fill:#73a23e;fill-opacity:1;fill-rule:nonzero;stroke:none;stroke-width:1.03907" transform="matrix(.13333 0 0 -.13333 -171.335 823.08)"/><path d="m5507.397 5480.947 484.163-79.047-467.464-352.058-16.7 431.105" style="fill:#5d8533;fill-opacity:1;fill-rule:nonzero;stroke:none;stroke-width:1.03907" transform="matrix(.13333 0 0 -.13333 -171.335 823.08)"/><path d="m5791.215 4805.568 559.292 179.62-233.731-179.62h-325.561" style="fill:#2e3f1a;fill-opacity:1;fill-rule:nonzero;stroke:none;stroke-width:1.03907" transform="matrix(.13333 0 0 -.13333 -171.335 823.08)"/><path d="M6350.507 4985.188 5991.56 5401.9l417.378 14.373-58.43-431.085" style="fill:#415f24;fill-opacity:1;fill-rule:nonzero;stroke:none;stroke-width:1.03907" transform="matrix(.13333 0 0 -.13333 -171.335 823.08)"/><path d="m5899.015 4840.194-92.4 11.221 9.52 28.322 4.603 2.468-2.934 2.497L5991.56 5401.9l358.947-416.712-451.492-144.994" style="fill:#476927;fill-opacity:1;fill-rule:nonzero;stroke:none;stroke-width:1.03907" transform="matrix(.13333 0 0 -.13333 -171.335 823.08)"/><path d="m3087.387 4257.474-61.522-6.739-51.262 6.739v1085.97h112.784v-1085.97" style="fill:#783631;fill-opacity:1;fill-rule:nonzero;stroke:none;stroke-width:1.03907" transform="matrix(.13333 0 0 -.13333 -171.335 823.08)"/><path d="m3005.347 4257.474 82.04 1085.97v-1085.97h-82.04" style="fill:#2d1713;fill-opacity:1;fill-rule:nonzero;stroke:none;stroke-width:1.03907" transform="matrix(.13333 0 0 -.13333 -171.335 823.08)"/><path d="m3026.784 5668.857-578.938-542.908 531.08-132.008 401.911 71.45 314.585 137.966-668.638 465.5" style="fill:#375020;fill-opacity:1;fill-rule:nonzero;stroke:none;stroke-width:1.03907" transform="matrix(.13333 0 0 -.13333 -171.335 823.08)"/><path d="m2447.846 5125.95 531.08-132.01 47.858 674.917-578.938-542.908" style="fill:#699238;fill-opacity:1;fill-rule:nonzero;stroke:none;stroke-width:1.03907" transform="matrix(.13333 0 0 -.13333 -171.335 823.08)"/><path d="m3256.73 5276.92-64.523 109.98 105.145 18.692 49.157 21.565-89.779-150.238" style="fill:#273318;fill-opacity:1;fill-rule:nonzero;stroke:none;stroke-width:1.03907" transform="matrix(.13333 0 0 -.13333 -171.335 823.08)"/><path d="m2447.846 5125.95 531.08-132.01 401.911 71.452 314.585 137.965-266.739-221.331-401.9-63.527-356.393 95.473-222.544 111.977" style="fill:#253119;fill-opacity:1;fill-rule:nonzero;stroke:none;stroke-width:1.03907" transform="matrix(.13333 0 0 -.13333 -171.335 823.08)"/><path d="m2991.448 5926.975-500.19-469.077 458.85-114.059 347.244 61.753 271.79 119.207-577.694 402.176" style="fill:#375020;fill-opacity:1;fill-rule:nonzero;stroke:none;stroke-width:1.03907" transform="matrix(.13333 0 0 -.13333 -171.335 823.08)"/><path d="m2491.257 5457.898 458.852-114.059 41.339 583.136-500.19-469.077" style="fill:#699238;fill-opacity:1;fill-rule:nonzero;stroke:none;stroke-width:1.03907" transform="matrix(.13333 0 0 -.13333 -171.335 823.08)"/><path d="M3297.352 5405.592 3126.9 5696.13l116.715 20.745 35.874 9.572 173.621-120.874-106.6-178.415-49.158-21.565" style="fill:#2c3c19;fill-opacity:1;fill-rule:nonzero;stroke:none;stroke-width:1.03907" transform="matrix(.13333 0 0 -.13333 -171.335 823.08)"/><path d="m2491.257 5457.898 458.852-114.059 347.243 61.753 271.79 119.207-230.462-191.236-347.232-54.899-314.16 61.753-186.03 117.481" style="fill:#253119;fill-opacity:1;fill-rule:nonzero;stroke:none;stroke-width:1.03907" transform="matrix(.13333 0 0 -.13333 -171.335 823.08)"/><path d="m2975.947 6173.1-412.35-426.198 376.185-84.05 303.833 54.022 202.563 54.031-470.231 402.195" style="fill:#375020;fill-opacity:1;fill-rule:nonzero;stroke:none;stroke-width:1.03907" transform="matrix(.13333 0 0 -.13333 -171.335 823.08)"/><path d="m2563.598 5746.902 376.184-84.05 36.165 510.248-412.35-426.198" style="fill:#699238;fill-opacity:1;fill-rule:nonzero;stroke:none;stroke-width:1.03907" transform="matrix(.13333 0 0 -.13333 -171.335 823.08)"/><path d="M3243.615 5716.874 2975.947 6173.1l470.23-402.195-202.562-54.031" style="fill:#32451c;fill-opacity:1;fill-rule:nonzero;stroke:none;stroke-width:1.03907" transform="matrix(.13333 0 0 -.13333 -171.335 823.08)"/><path d="m2563.598 5746.902 193.871-64.558 182.313-19.492 303.833 54.022 202.563 54.031-166.398-138.062-303.822-48.026-274.903 54.031-137.457 108.054" style="fill:#253119;fill-opacity:1;fill-rule:nonzero;stroke:none;stroke-width:1.03907" transform="matrix(.13333 0 0 -.13333 -171.335 823.08)"/><path d="m2563.598 5746.902 412.36 426.198-217.022-486.235ZM2491.257 5463.904l195.328 174.944 267.657-288.135z" style="fill:#7dad3f;fill-opacity:1;fill-rule:nonzero;stroke:none;stroke-width:1.03907" transform="matrix(.13333 0 0 -.13333 -171.335 823.08)"/><path d="m1285.01 3890.271 839.997-1166.425 671.998-86.759 313.6-404.874 1713.594-404.875 851.197 443.434 627.198 684.431 772.798 462.714 112 472.354H1285.01" style="fill:#443019;fill-opacity:1;fill-rule:nonzero;stroke:none;stroke-width:1.03907" transform="matrix(.13333 0 0 -.13333 -171.335 823.08)"/><path d="m2125.007 2723.846 481.599 713.351 190.4-800.11z" style="fill:#271d14;fill-opacity:1;fill-rule:nonzero;stroke:none;stroke-width:1.03907" transform="matrix(.13333 0 0 -.13333 -171.335 823.08)"/><path d="m2125.007 2723.846 481.599 713.351-1321.596 453.074Z" style="fill:#6f4a31;fill-opacity:1;fill-rule:nonzero;stroke:none;stroke-width:1.03907" transform="matrix(.13333 0 0 -.13333 -171.335 823.08)"/><path d="m1285.01 3890.271 996.797-48.199 324.799-404.875-1321.596 453.074" style="fill:#583926;fill-opacity:1;fill-rule:nonzero;stroke:none;stroke-width:1.03907" transform="matrix(.13333 0 0 -.13333 -171.335 823.08)"/><path d="m2606.606 3437.197 190.4-800.11 313.598-404.874z" style="fill:#40271e;fill-opacity:1;fill-rule:nonzero;stroke:none;stroke-width:1.03907" transform="matrix(.13333 0 0 -.13333 -171.335 823.08)"/><path d="m2606.606 3437.197 503.998-1204.984 907.197 944.707z" style="fill:#583926;fill-opacity:1;fill-rule:nonzero;stroke:none;stroke-width:1.03907" transform="matrix(.13333 0 0 -.13333 -171.335 823.08)"/><path d="m4017.801 3176.92 447.999 366.316 1355.196 163.878Z" style="fill:#322618;fill-opacity:1;fill-rule:nonzero;stroke:none;stroke-width:1.03907" transform="matrix(.13333 0 0 -.13333 -171.335 823.08)"/><path d="m3121.804 2241.853 907.197 963.987L4835.4 1846.618z" style="fill:#40271e;fill-opacity:1;fill-rule:nonzero;stroke:none;stroke-width:1.03907" transform="matrix(.13333 0 0 -.13333 -171.335 823.08)"/><path d="M4017.801 3176.92 4824.2 1827.339l851.197 443.434z" style="fill:#322618;fill-opacity:1;fill-rule:nonzero;stroke:none;stroke-width:1.03907" transform="matrix(.13333 0 0 -.13333 -171.335 823.08)"/><path d="M5675.396 2270.772c0 28.92 89.6 1436.342 89.6 1436.342l548.798-722.991-638.398-713.35" style="fill:#271d14;fill-opacity:1;fill-rule:nonzero;stroke:none;stroke-width:1.03907" transform="matrix(.13333 0 0 -.13333 -171.335 823.08)"/><path d="m4017.801 3176.92 1747.195 530.194-89.6-1436.342z" style="fill:#3d2916;fill-opacity:1;fill-rule:nonzero;stroke:none;stroke-width:1.03907" transform="matrix(.13333 0 0 -.13333 -171.335 823.08)"/><path d="m4824.199 1836.978 436.799 655.511 414.398-221.717z" style="fill:#271d14;fill-opacity:1;fill-rule:nonzero;stroke:none;stroke-width:1.03907" transform="matrix(.13333 0 0 -.13333 -171.335 823.08)"/><path d="m5260.998 2492.49 436.798 154.237-22.4-375.955z" style="fill:#322618;fill-opacity:1;fill-rule:nonzero;stroke:none;stroke-width:1.03907" transform="matrix(.13333 0 0 -.13333 -171.335 823.08)"/><path d="M3099.404 2241.853 4185.801 1673.1l627.198 163.878zM7075.392 3417.917l112 472.354-537.599-231.357z" style="fill:#271d14;fill-opacity:1;fill-rule:nonzero;stroke:none;stroke-width:1.03907" transform="matrix(.13333 0 0 -.13333 -171.335 823.08)"/><path d="m6313.794 2984.123 335.999 674.791-884.797 48.2z" style="fill:#322618;fill-opacity:1;fill-rule:nonzero;stroke:none;stroke-width:1.03907" transform="matrix(.13333 0 0 -.13333 -171.335 823.08)"/><path d="m1285.01 3890.271 1187.196-212.077 1842.383-269.916 1455.996 240.996 879.208 9.64 537.598 231.357-907.197 366.316L4544.2 4459.024l-1982.394-106.039-1276.796-462.714" style="fill:#407b30;fill-opacity:1;fill-rule:nonzero;stroke:none;stroke-width:1.03907" transform="matrix(.13333 0 0 -.13333 -171.335 823.08)"/><path d="m6151.383 3842.072-548.798-48.2-1052.797-192.797-1198.396 212.077-524.293 305.575-91.705 195.699 224-67.48 492.798-279.556 1119.996-183.157 972.796 166.885 292.8 6.633 313.6-115.679" style="fill:#a47346;fill-opacity:1;fill-rule:nonzero;stroke:none;stroke-width:1.03907" transform="matrix(.13333 0 0 -.13333 -171.335 823.08)"/><path d="m3172.193 4169.828 1097.596-183.158 604.798 154.238 1142.397 86.759-182.772 335.901-870.025 859.444-190.4 481.993-1164.796-38.56-403.198-674.79-470.399-877.23 436.799-144.597" style="fill:#583926;fill-opacity:1;fill-rule:nonzero;stroke:none;stroke-width:1.03907" transform="matrix(.13333 0 0 -.13333 -171.335 823.08)"/><path d="m4157.79 4651.822 851.197 106.038 828.797-192.797-873.597 857.949-190.4 481.993-1164.796-38.56-403.198-674.79 951.997-539.833" style="fill:#407b30;fill-opacity:1;fill-rule:nonzero;stroke:none;stroke-width:1.03907" transform="matrix(.13333 0 0 -.13333 -171.335 823.08)"/><path d="m4269.79 3986.67-112 665.151 761.597-510.913z" style="fill:#271d14;fill-opacity:1;fill-rule:nonzero;stroke:none;stroke-width:1.03907" transform="matrix(.13333 0 0 -.13333 -171.335 823.08)"/><path d="m4269.79 3986.67-112 665.151-985.597-481.993 615.998-212.078 481.598 28.92" style="fill:#583926;fill-opacity:1;fill-rule:nonzero;stroke:none;stroke-width:1.03907" transform="matrix(.13333 0 0 -.13333 -171.335 823.08)"/><path d="m4157.79 4651.822 44.8-28.92 716.797-481.994 89.6 616.952-851.197-106.039" style="fill:#40271e;fill-opacity:1;fill-rule:nonzero;stroke:none;stroke-width:1.03907" transform="matrix(.13333 0 0 -.13333 -171.335 823.08)"/><path d="M3205.793 5191.655h1545.595L3989.79 5557.97l-380.799 308.476-403.198-674.791" style="fill:#5aaf34;fill-opacity:1;fill-rule:nonzero;stroke:none;stroke-width:1.03907" transform="matrix(.13333 0 0 -.13333 -171.335 823.08)"/><path d="m4157.79 4651.822 783.997 443.434 67.2-337.396z" style="fill:#33662b;fill-opacity:1;fill-rule:nonzero;stroke:none;stroke-width:1.03907" transform="matrix(.13333 0 0 -.13333 -171.335 823.08)"/><path d="m4941.787 5085.616 67.2-327.756 828.797-192.797-895.997 520.553" style="fill:#294e23;fill-opacity:1;fill-rule:nonzero;stroke:none;stroke-width:1.03907" transform="matrix(.13333 0 0 -.13333 -171.335 823.08)"/><path d="m4952.987 5085.616 11.2 337.396 873.597-857.95-884.797 520.554" style="fill:#33662b;fill-opacity:1;fill-rule:nonzero;stroke:none;stroke-width:1.03907" transform="matrix(.13333 0 0 -.13333 -171.335 823.08)"/><path d="m3172.193 4169.828 33.6 1021.827 951.997-539.833-985.597-481.994" style="fill:#6f4a31;fill-opacity:1;fill-rule:nonzero;stroke:none;stroke-width:1.03907" transform="matrix(.13333 0 0 -.13333 -171.335 823.08)"/><path d="m5302.292 4002.354-61.522-6.044-51.25 6.044v973.676h112.772v-973.676" style="fill:#803a34;fill-opacity:1;fill-rule:nonzero;stroke:none;stroke-width:1.03907" transform="matrix(.13333 0 0 -.13333 -171.335 823.08)"/><path d="m5220.263 4002.354 82.029 973.676v-973.676z" style="fill:#331a15;fill-opacity:1;fill-rule:nonzero;stroke:none;stroke-width:1.03907" transform="matrix(.13333 0 0 -.13333 -171.335 823.08)"/><path d="m5236.133 5379.729-506.17-580.273 464.327-141.08 351.4 76.368 275.048 147.46-584.605 497.525" style="fill:#3c5722;fill-opacity:1;fill-rule:nonzero;stroke:none;stroke-width:1.03907" transform="matrix(.13333 0 0 -.13333 -171.335 823.08)"/><path d="m4729.962 4799.456 464.328-141.08 41.843 721.353-506.17-580.273" style="fill:#6e9a3b;fill-opacity:1;fill-rule:nonzero;stroke:none;stroke-width:1.03907" transform="matrix(.13333 0 0 -.13333 -171.335 823.08)"/><path d="m5545.69 4734.744-164.92 343.623 91.918 19.983 57.713 30.944 290.337-247.09-4.603-2.467-44.822-24.032-4.357.53-33.835-21.005-110.242-59.102-75.263-40.353-1.927-1.031" style="fill:#2d3b18;fill-opacity:1;fill-rule:nonzero;stroke:none;stroke-width:1.03907" transform="matrix(.13333 0 0 -.13333 -171.335 823.08)"/><path d="m4729.962 4799.447 464.328-141.07 351.4 76.367 275.048 147.451-233.217-236.572-351.387-67.884-311.606 102.038-194.566 119.67" style="fill:#2a3919;fill-opacity:1;fill-rule:nonzero;stroke:none;stroke-width:1.03907" transform="matrix(.13333 0 0 -.13333 -171.335 823.08)"/><path d="m5205.244 5655.622-437.336-501.36 401.182-121.906 303.598 65.994 237.64 127.41-505.084 429.862" style="fill:#3c5722;fill-opacity:1;fill-rule:nonzero;stroke:none;stroke-width:1.03907" transform="matrix(.13333 0 0 -.13333 -171.335 823.08)"/><path d="m4767.908 5154.261 401.182-121.905 36.154 623.266-437.336-501.36" style="fill:#6e9a3b;fill-opacity:1;fill-rule:nonzero;stroke:none;stroke-width:1.03907" transform="matrix(.13333 0 0 -.13333 -171.335 823.08)"/><path d="m5472.688 5098.35-149.027 310.53 102.054 22.18 31.371 10.229 253.243-215.528-237.641-127.41" style="fill:#31431c;fill-opacity:1;fill-rule:nonzero;stroke:none;stroke-width:1.03907" transform="matrix(.13333 0 0 -.13333 -171.335 823.08)"/><path d="m4767.919 5154.261 401.171-121.905 303.598 65.994 237.64 127.41-201.498-204.403-303.586-58.669-274.68 65.995-162.645 125.578" style="fill:#2a3919;fill-opacity:1;fill-rule:nonzero;stroke:none;stroke-width:1.03907" transform="matrix(.13333 0 0 -.13333 -171.335 823.08)"/><path d="m5191.68 5918.675-360.515-455.533 328.898-89.824 265.652 57.743 177.094 57.743-411.128 429.87" style="fill:#3c5722;fill-opacity:1;fill-rule:nonzero;stroke:none;stroke-width:1.03907" transform="matrix(.13333 0 0 -.13333 -171.335 823.08)"/><path d="m4831.165 5463.142 328.898-89.824 31.618 545.357-360.516-455.533" style="fill:#6e9a3b;fill-opacity:1;fill-rule:nonzero;stroke:none;stroke-width:1.03907" transform="matrix(.13333 0 0 -.13333 -171.335 823.08)"/><path d="m5425.715 5431.06-234.034 487.615 411.128-429.871-47.891-15.617-46.636-15.202-82.567-26.924" style="fill:#364c1f;fill-opacity:1;fill-rule:nonzero;stroke:none;stroke-width:1.03907" transform="matrix(.13333 0 0 -.13333 -171.335 823.08)"/><path d="m4831.165 5463.142 169.5-68.992 159.398-20.832 265.652 57.743 177.105 57.743-145.487-147.567-265.641-51.323-240.34 57.743-120.187 115.485" style="fill:#2a3919;fill-opacity:1;fill-rule:nonzero;stroke:none;stroke-width:1.03907" transform="matrix(.13333 0 0 -.13333 -171.335 823.08)"/><path d="m4831.165 5463.142 360.527 455.533-189.75-519.696zM4767.919 5160.682l170.766 186.975 234.023-307.965z" style="fill:#83b541;fill-opacity:1;fill-rule:nonzero;stroke:none;stroke-width:1.03907" transform="matrix(.13333 0 0 -.13333 -171.335 823.08)"/><path d="m2074.025 3989.63-61.521-6.748-51.251 6.748V5075.6h112.772V3989.63" style="fill:#9b473e;fill-opacity:1;fill-rule:nonzero;stroke:none;stroke-width:1.03907" transform="matrix(.13333 0 0 -.13333 -171.335 823.08)"/><path d="m1991.996 3989.63 82.03 1085.97V3989.63h-82.03" style="fill:#4a251c;fill-opacity:1;fill-rule:nonzero;stroke:none;stroke-width:1.03907" transform="matrix(.13333 0 0 -.13333 -171.335 823.08)"/><path d="m2013.422 5401.013-578.926-542.908 531.08-132.008 401.9 71.45 314.584 137.967-668.638 465.5" style="fill:#4f7429;fill-opacity:1;fill-rule:nonzero;stroke:none;stroke-width:1.03907" transform="matrix(.13333 0 0 -.13333 -171.335 823.08)"/><path d="m1434.496 4858.105 531.08-132.008 47.846 674.916-578.926-542.908" style="fill:#82b743;fill-opacity:1;fill-rule:nonzero;stroke:none;stroke-width:1.03907" transform="matrix(.13333 0 0 -.13333 -171.335 823.08)"/><path d="m2306.884 4900.82-128.027 218.237 105.134 18.691 66.001 28.949 147.19-102.472-176.377-114.85-13.921-48.556" style="fill:#405621;fill-opacity:1;fill-rule:nonzero;stroke:none;stroke-width:1.03907" transform="matrix(.13333 0 0 -.13333 -171.335 823.08)"/><path d="m1434.496 4858.096 531.08-132 401.9 71.451 314.584 137.967-266.727-221.332-401.91-63.527-356.384 95.473-222.543 111.968" style="fill:#3b5421;fill-opacity:1;fill-rule:nonzero;stroke:none;stroke-width:1.03907" transform="matrix(.13333 0 0 -.13333 -171.335 823.08)"/><path d="m1978.097 5659.13-500.19-469.076 458.84-114.059 347.244 61.753 271.8 119.197-577.694 402.186" style="fill:#4f7429;fill-opacity:1;fill-rule:nonzero;stroke:none;stroke-width:1.03907" transform="matrix(.13333 0 0 -.13333 -171.335 823.08)"/><path d="m1477.907 5190.054 458.84-114.059 41.35 583.136-500.19-469.077" style="fill:#82b743;fill-opacity:1;fill-rule:nonzero;stroke:none;stroke-width:1.03907" transform="matrix(.13333 0 0 -.13333 -171.335 823.08)"/><path d="m2283.99 5137.748-170.451 290.537 116.714 20.745 35.885 9.572 289.654-201.656-271.801-119.198" style="fill:#436024;fill-opacity:1;fill-rule:nonzero;stroke:none;stroke-width:1.03907" transform="matrix(.13333 0 0 -.13333 -171.335 823.08)"/><path d="m1477.907 5190.054 458.84-114.059 347.244 61.753 271.8 119.197-230.461-191.226-347.233-54.899-314.17 61.753-186.02 117.481" style="fill:#3b5421;fill-opacity:1;fill-rule:nonzero;stroke:none;stroke-width:1.03907" transform="matrix(.13333 0 0 -.13333 -171.335 823.08)"/><path d="m1962.597 5905.256-412.35-426.198 376.185-84.05 303.821 54.022 202.563 54.031-470.22 402.195" style="fill:#4f7429;fill-opacity:1;fill-rule:nonzero;stroke:none;stroke-width:1.03907" transform="matrix(.13333 0 0 -.13333 -171.335 823.08)"/><path d="m1550.248 5479.058 376.184-84.05 36.165 510.248-412.35-426.198" style="fill:#82b743;fill-opacity:1;fill-rule:nonzero;stroke:none;stroke-width:1.03907" transform="matrix(.13333 0 0 -.13333 -171.335 823.08)"/><path d="m2230.253 5449.03-267.656 456.226 470.219-402.195-202.563-54.031" style="fill:#496927;fill-opacity:1;fill-rule:nonzero;stroke:none;stroke-width:1.03907" transform="matrix(.13333 0 0 -.13333 -171.335 823.08)"/><path d="m1550.248 5479.048 193.86-64.548 182.324-19.492 303.821 54.022 202.563 54.031-166.387-138.072-303.832-48.016-274.903 54.032-137.446 108.043" style="fill:#3b5421;fill-opacity:1;fill-rule:nonzero;stroke:none;stroke-width:1.03907" transform="matrix(.13333 0 0 -.13333 -171.335 823.08)"/><path d="m1550.248 5479.048 412.349 426.198-217.022-486.225zM1477.907 5196.06l195.316 174.945 267.668-288.136z" style="fill:#95d148;fill-opacity:1;fill-rule:nonzero;stroke:none;stroke-width:1.03907" transform="matrix(.13333 0 0 -.13333 -171.335 823.08)"/><path d="m2801.015 3895.689-56.885-5.418-47.398 5.418v872.187h104.283v-872.187" style="fill:#d14c37;fill-opacity:1;fill-rule:nonzero;stroke:none;stroke-width:1.03907" transform="matrix(.13333 0 0 -.13333 -171.335 823.08)"/><path d="m2725.18 3895.689 75.835 872.187v-872.187h-75.835" style="fill:#7a3520;fill-opacity:1;fill-rule:nonzero;stroke:none;stroke-width:1.03907" transform="matrix(.13333 0 0 -.13333 -171.335 823.08)"/><path d="m2426.891 4359.367-197.03 272.799 90.944 317.21 272.809 177.643 348.599-44.41 257.655-190.34 22.736-304.514-181.876-241.074-295.545-63.44-318.292 76.126" style="fill:#69c02f;fill-opacity:1;fill-rule:nonzero;stroke:none;stroke-width:1.03907" transform="matrix(.13333 0 0 -.13333 -171.335 823.08)"/><path d="m2320.805 4949.376 272.809 177.643 151.569-304.523z" style="fill:#a7d934;fill-opacity:1;fill-rule:nonzero;stroke:none;stroke-width:1.03907" transform="matrix(.13333 0 0 -.13333 -171.335 823.08)"/><path d="m2320.805 4949.376-90.944-317.21 515.322 190.33z" style="fill:#93d33d;fill-opacity:1;fill-rule:nonzero;stroke:none;stroke-width:1.03907" transform="matrix(.13333 0 0 -.13333 -171.335 823.08)"/><path d="m2745.183 4822.495-151.57 304.524 348.6-44.41z" style="fill:#93d33d;fill-opacity:1;fill-rule:nonzero;stroke:none;stroke-width:1.03907" transform="matrix(.13333 0 0 -.13333 -171.335 823.08)"/><path d="m2745.183 4822.495 454.685 69.774-219.766-329.886-234.92 260.113" style="fill:#64ab30;fill-opacity:1;fill-rule:nonzero;stroke:none;stroke-width:1.03907" transform="matrix(.13333 0 0 -.13333 -171.335 823.08)"/><path d="m3199.868 4892.269-219.766-329.886 242.502 25.372-22.736 304.514" style="fill:#59822a;fill-opacity:1;fill-rule:nonzero;stroke:none;stroke-width:1.03907" transform="matrix(.13333 0 0 -.13333 -171.335 823.08)"/><path d="m3040.728 4346.68-60.626 215.703 242.502 25.372-38.338-50.822-143.538-190.252" style="fill:#5c9830;fill-opacity:1;fill-rule:nonzero;stroke:none;stroke-width:1.03907" transform="matrix(.13333 0 0 -.13333 -171.335 823.08)"/><path d="m2229.861 4632.166 515.322 190.33 234.92-260.113-750.242 69.783" style="fill:#7ccc38;fill-opacity:1;fill-rule:nonzero;stroke:none;stroke-width:1.03907" transform="matrix(.13333 0 0 -.13333 -171.335 823.08)"/><path d="m2229.861 4632.166 197.03-272.799 553.211 203.016-750.24 69.783" style="fill:#64ab30;fill-opacity:1;fill-rule:nonzero;stroke:none;stroke-width:1.03907" transform="matrix(.13333 0 0 -.13333 -171.335 823.08)"/><path d="m2745.183 4283.24 234.92 279.143 60.625-215.702-295.545-63.44" style="fill:#59822a;fill-opacity:1;fill-rule:nonzero;stroke:none;stroke-width:1.03907" transform="matrix(.13333 0 0 -.13333 -171.335 823.08)"/><path d="m2745.183 4283.24-318.292 76.127 553.211 203.016-234.92-279.142" style="fill:#5f9e30;fill-opacity:1;fill-rule:nonzero;stroke:none;stroke-width:1.03907" transform="matrix(.13333 0 0 -.13333 -171.335 823.08)"/><path d="m2426.891 4359.367 30.318 12.696 522.893 190.32-553.21-203.016" style="fill:#5c952f;fill-opacity:1;fill-rule:nonzero;stroke:none;stroke-width:1.03907" transform="matrix(.13333 0 0 -.13333 -171.335 823.08)"/><path d="m1653.769 3938.037-129.505 179.302 59.774 208.49 179.311 116.759 229.118-29.19 169.344-125.096 14.929-200.163-119.526-158.44-194.252-41.693-209.193 50.03" style="fill:#528d30;fill-opacity:1;fill-rule:nonzero;stroke:none;stroke-width:1.03907" transform="matrix(.13333 0 0 -.13333 -171.335 823.08)"/><path d="m1584.038 4325.83 179.311 116.758 99.613-200.153z" style="fill:#87cf39;fill-opacity:1;fill-rule:nonzero;stroke:none;stroke-width:1.03907" transform="matrix(.13333 0 0 -.13333 -171.335 823.08)"/><path d="m1584.038 4325.83-59.774-208.491 338.698 125.096zM1862.962 4242.435l-99.613 200.153 229.118-29.19z" style="fill:#75bc31;fill-opacity:1;fill-rule:nonzero;stroke:none;stroke-width:1.03907" transform="matrix(.13333 0 0 -.13333 -171.335 823.08)"/><path d="m1862.962 4242.435 298.849 45.867-144.435-216.83-154.414 170.963" style="fill:#49772c;fill-opacity:1;fill-rule:nonzero;stroke:none;stroke-width:1.03907" transform="matrix(.13333 0 0 -.13333 -171.335 823.08)"/><path d="m2161.81 4288.302-144.434-216.83 159.364 16.667-14.93 200.163" style="fill:#395020;fill-opacity:1;fill-rule:nonzero;stroke:none;stroke-width:1.03907" transform="matrix(.13333 0 0 -.13333 -171.335 823.08)"/><path d="m1524.264 4117.339 338.698 125.096 154.414-170.963z" style="fill:#619f30;fill-opacity:1;fill-rule:nonzero;stroke:none;stroke-width:1.03907" transform="matrix(.13333 0 0 -.13333 -171.335 823.08)"/><path d="m1524.264 4117.339 129.505-179.302 363.607 133.435z" style="fill:#49772c;fill-opacity:1;fill-rule:nonzero;stroke:none;stroke-width:1.03907" transform="matrix(.13333 0 0 -.13333 -171.335 823.08)"/><path d="m1862.962 3888.006 154.414 183.466 39.838-141.774z" style="fill:#395020;fill-opacity:1;fill-rule:nonzero;stroke:none;stroke-width:1.03907" transform="matrix(.13333 0 0 -.13333 -171.335 823.08)"/><path d="m1653.769 3938.037 209.193-50.031 154.414 183.466-343.682-125.097" style="fill:#395020;fill-opacity:1;fill-rule:nonzero;stroke:none;stroke-width:1.03907" transform="matrix(.13333 0 0 -.13333 -171.335 823.08)"/><path d="m5608.084 4158.742-187.733 247.86 86.654 288.223 259.95 161.41 332.17-40.352 245.514-172.93 21.65-276.694-173.286-219.046-281.635-57.637-303.284 69.166" style="fill:#528d30;fill-opacity:1;fill-rule:nonzero;stroke:none;stroke-width:1.03907" transform="matrix(.13333 0 0 -.13333 -171.335 823.08)"/><path d="m5507.005 4694.825 259.95 161.41 144.413-276.693z" style="fill:#87cf39;fill-opacity:1;fill-rule:nonzero;stroke:none;stroke-width:1.03907" transform="matrix(.13333 0 0 -.13333 -171.335 823.08)"/><path d="m5507.005 4694.825-86.654-288.223 491.017 172.94zM5911.368 4579.542l-144.412 276.693 332.168-40.352z" style="fill:#75bc31;fill-opacity:1;fill-rule:nonzero;stroke:none;stroke-width:1.03907" transform="matrix(.13333 0 0 -.13333 -171.335 823.08)"/><path d="m5911.368 4579.551 433.27 63.402-209.416-299.752-223.854 236.35" style="fill:#49772c;fill-opacity:1;fill-rule:nonzero;stroke:none;stroke-width:1.03907" transform="matrix(.13333 0 0 -.13333 -171.335 823.08)"/><path d="M6344.639 4642.953 6135.222 4343.2l231.066 23.058-21.65 276.694" style="fill:#395020;fill-opacity:1;fill-rule:nonzero;stroke:none;stroke-width:1.03907" transform="matrix(.13333 0 0 -.13333 -171.335 823.08)"/><path d="m6193.002 4147.213-57.78 195.988 231.066 23.058-173.286-219.046" style="fill:#3f6527;fill-opacity:1;fill-rule:nonzero;stroke:none;stroke-width:1.03907" transform="matrix(.13333 0 0 -.13333 -171.335 823.08)"/><path d="m5420.35 4406.602 491.018 172.94 223.865-236.341z" style="fill:#619f30;fill-opacity:1;fill-rule:nonzero;stroke:none;stroke-width:1.03907" transform="matrix(.13333 0 0 -.13333 -171.335 823.08)"/><path d="m5420.35 4406.602 187.734-247.86 527.149 184.459z" style="fill:#49772c;fill-opacity:1;fill-rule:nonzero;stroke:none;stroke-width:1.03907" transform="matrix(.13333 0 0 -.13333 -171.335 823.08)"/><path d="m5911.368 4089.576 223.865 253.625 57.77-195.988zM5608.084 4158.742l303.284-69.166 223.865 253.625-498.253-172.92" style="fill:#395020;fill-opacity:1;fill-rule:nonzero;stroke:none;stroke-width:1.03907" transform="matrix(.13333 0 0 -.13333 -171.335 823.08)"/><path d="m2068.593 3868.707-109.043 150.97 50.333 175.561 150.964 98.318 192.942-24.582 142.598-105.345 12.577-168.524-100.653-133.435-163.565-35.099-176.153 42.136" style="fill:#69c02f;fill-opacity:1;fill-rule:nonzero;stroke:none;stroke-width:1.03907" transform="matrix(.13333 0 0 -.13333 -171.335 823.08)"/><path d="m2009.883 4195.239 150.964 98.307 83.9-168.524z" style="fill:#a7d934;fill-opacity:1;fill-rule:nonzero;stroke:none;stroke-width:1.03907" transform="matrix(.13333 0 0 -.13333 -171.335 823.08)"/><path d="m2009.883 4195.239-50.333-175.562 285.196 105.345zM2244.746 4125.022l-83.899 168.524 192.942-24.572z" style="fill:#93d33d;fill-opacity:1;fill-rule:nonzero;stroke:none;stroke-width:1.03907" transform="matrix(.13333 0 0 -.13333 -171.335 823.08)"/><path d="m2244.746 4125.022 251.64 38.607-121.63-182.57-130.01 143.963" style="fill:#64ab30;fill-opacity:1;fill-rule:nonzero;stroke:none;stroke-width:1.03907" transform="matrix(.13333 0 0 -.13333 -171.335 823.08)"/><path d="m2496.387 4163.63-121.632-182.57 134.21 14.045-12.578 168.524" style="fill:#59822a;fill-opacity:1;fill-rule:nonzero;stroke:none;stroke-width:1.03907" transform="matrix(.13333 0 0 -.13333 -171.335 823.08)"/><path d="m2408.31 3861.67-33.555 119.39 134.21 14.045-100.655-133.435" style="fill:#5c9830;fill-opacity:1;fill-rule:nonzero;stroke:none;stroke-width:1.03907" transform="matrix(.13333 0 0 -.13333 -171.335 823.08)"/><path d="m1959.55 4019.677 285.196 105.345 130.01-143.962-415.206 38.617" style="fill:#7ccc38;fill-opacity:1;fill-rule:nonzero;stroke:none;stroke-width:1.03907" transform="matrix(.13333 0 0 -.13333 -171.335 823.08)"/><path d="m1959.55 4019.677 109.043-150.97 306.162 112.353-415.205 38.617" style="fill:#64ab30;fill-opacity:1;fill-rule:nonzero;stroke:none;stroke-width:1.03907" transform="matrix(.13333 0 0 -.13333 -171.335 823.08)"/><path d="m2244.746 3826.571 130.01 154.489 33.555-119.39-163.565-35.099" style="fill:#59822a;fill-opacity:1;fill-rule:nonzero;stroke:none;stroke-width:1.03907" transform="matrix(.13333 0 0 -.13333 -171.335 823.08)"/><path d="m2244.746 3826.571-176.153 42.136 306.162 112.353-130.009-154.489" style="fill:#5f9e30;fill-opacity:1;fill-rule:nonzero;stroke:none;stroke-width:1.03907" transform="matrix(.13333 0 0 -.13333 -171.335 823.08)"/><path d="m2068.593 3868.707 16.767 7.018 289.395 105.335-306.162-112.353" style="fill:#5c952f;fill-opacity:1;fill-rule:nonzero;stroke:none;stroke-width:1.03907" transform="matrix(.13333 0 0 -.13333 -171.335 823.08)"/><path d="m4550.292 3919.191 357.895 57.84-144.838 240.996z" style="fill:#40271e;fill-opacity:1;fill-rule:nonzero;stroke:none;stroke-width:1.03907" transform="matrix(.13333 0 0 -.13333 -171.335 823.08)"/><path d="m4550.292 3919.191-190.903 96.399 403.96 202.437z" style="fill:#583926;fill-opacity:1;fill-rule:nonzero;stroke:none;stroke-width:1.03907" transform="matrix(.13333 0 0 -.13333 -171.335 823.08)"/><path d="m4549.788 3601.075 537.599 250.637 582.398-38.56zM3351.392 3813.152l224 57.84 974.396-269.917-1198.396 212.077" style="fill:#bc865b;fill-opacity:1;fill-rule:nonzero;stroke:none;stroke-width:1.03907" transform="matrix(.13333 0 0 -.13333 -171.335 823.08)"/><path d="m6944.262 3799.088-40.89-5.293-34.07 5.293v852.02h74.96v-852.02" style="fill:#9b473e;fill-opacity:1;fill-rule:nonzero;stroke:none;stroke-width:1.03907" transform="matrix(.13333 0 0 -.13333 -171.335 823.08)"/><path d="m6889.741 3799.088 54.522 852.02v-852.02h-54.522" style="fill:#4a251c;fill-opacity:1;fill-rule:nonzero;stroke:none;stroke-width:1.03907" transform="matrix(.13333 0 0 -.13333 -171.335 823.08)"/><path d="m6562.635 4391.796 218.063-179.929h265.786l190.826 132.308 47.7 317.518-361.188 259.312-374.829-211.672 13.642-317.537" style="fill:#5a8a30;fill-opacity:1;fill-rule:nonzero;stroke:none;stroke-width:1.03907" transform="matrix(.13333 0 0 -.13333 -171.335 823.08)"/><path d="m6548.993 4709.333 374.83 211.672 20.44-269.897-395.27 58.225" style="fill:#82b743;fill-opacity:1;fill-rule:nonzero;stroke:none;stroke-width:1.03907" transform="matrix(.13333 0 0 -.13333 -171.335 823.08)"/><path d="m6548.993 4709.333 395.27-58.225-381.628-259.313-13.642 317.538" style="fill:#6b9b3a;fill-opacity:1;fill-rule:nonzero;stroke:none;stroke-width:1.03907" transform="matrix(.13333 0 0 -.13333 -171.335 823.08)"/><path d="m6780.698 4211.867 456.612 132.307-190.826-132.307h-265.786" style="fill:#3b5421;fill-opacity:1;fill-rule:nonzero;stroke:none;stroke-width:1.03907" transform="matrix(.13333 0 0 -.13333 -171.335 823.08)"/><path d="m7237.31 4344.175-293.048 306.933 340.748 10.585-47.7-317.519" style="fill:#4f7429;fill-opacity:1;fill-rule:nonzero;stroke:none;stroke-width:1.03907" transform="matrix(.13333 0 0 -.13333 -171.335 823.08)"/><path d="m6780.698 4211.867 163.564 439.241 293.048-306.934-456.612-132.307" style="fill:#557f2c;fill-opacity:1;fill-rule:nonzero;stroke:none;stroke-width:1.03907" transform="matrix(.13333 0 0 -.13333 -171.335 823.08)"/><path d="m3788.19 3957.75 369.6 694.072 112-665.152z" style="fill:#4a2d1e;fill-opacity:1;fill-rule:nonzero;stroke:none;stroke-width:1.03907" transform="matrix(.13333 0 0 -.13333 -171.335 823.08)"/></svg>