<?xml version="1.0" encoding="UTF-8" standalone="no"?>
<!-- Uploaded to: SVG Repo, www.svgrepo.com, Generator: SVG Repo Mixer Tools -->

<svg
   width="800px"
   height="800px"
   viewBox="0 0 32 32"
   enable-background="new 0 0 32 32"
   id="Filled_Line"
   version="1.1"
   xml:space="preserve"
   sodipodi:docname="full-ufo-life.svg"
   inkscape:version="1.2.1 (9c6d41e410, 2022-07-14)"
   xmlns:inkscape="http://www.inkscape.org/namespaces/inkscape"
   xmlns:sodipodi="http://sodipodi.sourceforge.net/DTD/sodipodi-0.dtd"
   xmlns="http://www.w3.org/2000/svg"
   xmlns:svg="http://www.w3.org/2000/svg"><defs
     id="defs1647" /><sodipodi:namedview
     id="namedview1645"
     pagecolor="#505050"
     bordercolor="#ffffff"
     borderopacity="1"
     inkscape:showpageshadow="0"
     inkscape:pageopacity="0"
     inkscape:pagecheckerboard="1"
     inkscape:deskcolor="#505050"
     showgrid="false"
     inkscape:zoom="0.523125"
     inkscape:cx="98.446834"
     inkscape:cy="370.84827"
     inkscape:window-width="1920"
     inkscape:window-height="1017"
     inkscape:window-x="-8"
     inkscape:window-y="-8"
     inkscape:window-maximized="1"
     inkscape:current-layer="Filled_Line" /><path
     d="m 16,7.0731733 c -2.979413,-2.7516471 -7.810189,-2.7516471 -10.7896017,0 -2.9794127,2.7516473 -2.9794127,7.2114547 0,9.9631017 L 16,26.999378 26.789601,17.036275 c 2.979414,-2.751647 2.979414,-7.2114544 0,-9.9631017 -2.979412,-2.7516471 -7.81019,-2.7506477 -10.789601,0 z"
     fill="#b83b5e"
     id="XMLID_1338_"
     style="stroke-width:1.00066" /><path
     d="m 7.2140382,16.036766 c -2.9794126,-2.751646 -2.9794126,-7.211454 0,-9.9631012 0.2574677,-0.2368836 0.5319665,-0.4467804 0.8144797,-0.642684 -1.0278672,0.339833 -1.9946235,0.8825661 -2.8181196,1.6421925 -2.9794127,2.7516473 -2.9794127,7.2114547 0,9.9631017 L 16,26.999378 17.542802,25.574079 Z"
     fill="#8a2c47"
     id="XMLID_1344_"
     style="stroke-width:1.00066" /><path
     d="m 26.789601,7.0731733 c -2.979412,-2.7516471 -7.81019,-2.7516471 -10.789601,0 -2.979413,-2.7516471 -7.810189,-2.7516471 -10.7896017,0 -0.9116563,0.8425858 -1.541801,1.845093 -1.8954434,2.9095696 3.0094673,-2.6566938 8.7378741,-2.6307067 11.6832261,0.088955 2.979412,-2.7516471 6.808368,-2.7516471 9.78778,0 2.072765,1.914059 2.698903,4.653713 1.88843,7.070526 l 0.11521,-0.105949 c 2.978412,-2.750648 2.978412,-7.2114554 0,-9.9631017 z"
     fill="#c6627e"
     id="XMLID_1342_"
     style="stroke-width:1.00066" /><path
     d="m 16,7.0731733 c -2.979413,-2.7516471 -7.810189,-2.7516471 -10.7896017,0 -2.9794127,2.7516473 -2.9794127,7.2114547 0,9.9631017 L 16,26.999378 26.789601,17.036275 c 2.979414,-2.751647 2.979414,-7.2114544 0,-9.9631017 -2.979412,-2.7516471 -7.81019,-2.7506477 -10.789601,0 z"
     fill="none"
     id="XMLID_818_"
     stroke="#200f60"
     stroke-linecap="round"
     stroke-linejoin="round"
     stroke-miterlimit="10"
     stroke-width="2.00132" /><path
     d="m 22.010921,9.0522005 c 0.785427,0.1129444 1.499723,0.4427823 2.055733,0.9555295 0.612112,0.564723 0.949726,1.292365 0.949726,2.046994"
     fill="none"
     id="XMLID_1340_"
     stroke="#ffffff"
     stroke-linecap="round"
     stroke-linejoin="round"
     stroke-miterlimit="10"
     stroke-width="2.00132" /></svg>
