<svg xmlns="http://www.w3.org/2000/svg" xml:space="preserve" width="800" height="800" viewBox="0 0 32 32"><path fill="#b83b5e" d="M16 7.073c-2.98-2.751-7.81-2.751-10.79 0-2.979 2.752-2.979 7.212 0 9.963L16 27l10.79-9.963c2.979-2.751 2.979-7.211 0-9.963-2.98-2.751-7.81-2.75-10.79 0z" style="stroke-width:1.00066"/><path fill="#8a2c47" d="M7.214 16.037c-2.98-2.752-2.98-7.212 0-9.963.258-.237.532-.447.815-.643A7.703 7.703 0 0 0 5.21 7.073c-2.979 2.752-2.979 7.212 0 9.963L16 27l1.543-1.425Z" style="stroke-width:1.00066"/><path fill="#c6627e" d="M26.79 7.073c-2.98-2.751-7.81-2.751-10.79 0-2.98-2.751-7.81-2.751-10.79 0a6.934 6.934 0 0 0-1.895 2.91c3.01-2.657 8.738-2.631 11.683.089 2.98-2.752 6.809-2.752 9.788 0 2.073 1.914 2.699 4.653 1.888 7.07l.116-.106c2.978-2.75 2.978-7.211 0-9.963z" style="stroke-width:1.00066"/><path fill="none" stroke="#200f60" stroke-linecap="round" stroke-linejoin="round" stroke-miterlimit="10" stroke-width="2.001" d="M16 7.073c-2.98-2.751-7.81-2.751-10.79 0-2.979 2.752-2.979 7.212 0 9.963L16 27l10.79-9.963c2.979-2.751 2.979-7.211 0-9.963-2.98-2.751-7.81-2.75-10.79 0z"/><path fill="none" stroke="#fff" stroke-linecap="round" stroke-linejoin="round" stroke-miterlimit="10" stroke-width="2.001" d="M22.01 9.052c.786.113 1.5.443 2.057.956.612.564.95 1.292.95 2.047"/></svg>