<?xml version="1.0" encoding="UTF-8" standalone="no"?>
<!-- Created with Inkscape (http://www.inkscape.org/) -->

<svg
   width="19.999249"
   height="3.0001917"
   viewBox="0 0 5.2914677 0.79380072"
   version="1.1"
   id="svg795"
   inkscape:version="1.2.1 (9c6d41e410, 2022-07-14)"
   sodipodi:docname="laser.svg"
   xmlns:inkscape="http://www.inkscape.org/namespaces/inkscape"
   xmlns:sodipodi="http://sodipodi.sourceforge.net/DTD/sodipodi-0.dtd"
   xmlns="http://www.w3.org/2000/svg"
   xmlns:svg="http://www.w3.org/2000/svg">
  <sodipodi:namedview
     id="namedview797"
     pagecolor="#505050"
     bordercolor="#ffffff"
     borderopacity="1"
     inkscape:showpageshadow="0"
     inkscape:pageopacity="0"
     inkscape:pagecheckerboard="1"
     inkscape:deskcolor="#505050"
     inkscape:document-units="px"
     showgrid="false"
     inkscape:zoom="8.4359982"
     inkscape:cx="-28.864397"
     inkscape:cy="20.507354"
     inkscape:window-width="1920"
     inkscape:window-height="1017"
     inkscape:window-x="-8"
     inkscape:window-y="-8"
     inkscape:window-maximized="1"
     inkscape:current-layer="layer1" />
  <defs
     id="defs792" />
  <g
     inkscape:label="Warstwa 1"
     inkscape:groupmode="layer"
     id="layer1"
     transform="translate(-30.163001,-89.885362)">
    <path
       d="m 32.537293,90.035571 c 4.2e-5,0 1.26e-4,-2.7e-5 1.68e-4,-2.7e-5 -4.2e-5,0 -1.26e-4,2.7e-5 -1.68e-4,2.7e-5"
       style="fill:#f14c2b;fill-opacity:1;fill-rule:nonzero;stroke:none;stroke-width:0.000991152"
       id="path16" />
    <path
       d="m 31.695016,90.551974 h 4.2e-5 -4.2e-5"
       style="fill:#f14c2b;fill-opacity:1;fill-rule:nonzero;stroke:none;stroke-width:0.000991152"
       id="path18" />
    <path
       d="m 32.645955,89.98424 c 0,7e-6 0,7e-6 0,1.3e-5 v 8e-6 c 0,-8e-6 0,-1.4e-5 0,-2.1e-5"
       style="fill:#f14c2b;fill-opacity:1;fill-rule:nonzero;stroke:none;stroke-width:0.000991152"
       id="path20" />
    <path
       d="m 32.645911,89.984003 c 0,3.9e-5 0,7.8e-5 0,1.11e-4 0,4e-5 3e-5,8.7e-5 4.2e-5,1.26e-4 0,-7.2e-5 -4.2e-5,-1.52e-4 -4.2e-5,-2.37e-4"
       style="fill:#f14c2b;fill-opacity:1;fill-rule:nonzero;stroke:none;stroke-width:0.000991152"
       id="path22" />
    <path
       d="m 32.641124,89.998497 c 0,1.4e-5 -3e-5,2.7e-5 -4.2e-5,3.9e-5 4.2e-5,-2.1e-5 4.2e-5,-3.3e-5 8.4e-5,-5.2e-5 -1.6e-5,7e-6 -3e-5,1.3e-5 -3e-5,1.3e-5"
       style="fill:#f14c2b;fill-opacity:1;fill-rule:nonzero;stroke:none;stroke-width:0.000991152"
       id="path24" />
    <path
       d="m 32.64108,89.998536 c -1.6e-5,2.1e-5 -3e-5,3.5e-5 -4.2e-5,5.4e-5 0,6e-6 0,1.2e-5 -1.6e-5,1.2e-5 3e-5,-2.1e-5 4.2e-5,-3.9e-5 8.4e-5,-6.6e-5"
       style="fill:#f14c2b;fill-opacity:1;fill-rule:nonzero;stroke:none;stroke-width:0.000991152"
       id="path26" />
    <path
       d="m 32.646029,89.990644 c -4.2e-5,1.14e-4 -1.26e-4,2.32e-4 -1.68e-4,3.6e-4 -1.4e-5,2.7e-5 -1.4e-5,5.4e-5 -1.4e-5,8.7e-5 4.2e-5,-1.26e-4 8.4e-5,-2.85e-4 1.68e-4,-4.5e-4"
       style="fill:#f14c2b;fill-opacity:1;fill-rule:nonzero;stroke:none;stroke-width:0.000991152"
       id="path28" />
    <path
       d="m 32.041811,90.557236 c 0.0178,0.0027 0.03518,0.0058 0.0519,0.0097 0.0114,0.0025 0.0223,0.0054 0.03296,0.0085 -3.36e-4,-4.5e-4 -8.16e-4,-8.7e-4 -0.0014,-0.0012 -0.011,-0.0076 -0.02288,-0.0147 -0.03632,-0.02161 -0.0136,-0.007 -0.02992,-0.0138 -0.05004,-0.02073 -0.0164,-0.0057 -0.0344,-0.01095 -0.05504,-0.01587 -0.0168,-0.0041 -0.03648,-0.0079 -0.06174,-0.01215 -0.03046,-0.0049 -0.06234,-0.0079 -0.09317,-0.0108 -0.03398,-0.0032 -0.06911,-0.0064 -0.101967,-0.0123 -0.014,-0.0029 -0.02606,-0.0058 -0.03692,-0.0094 -0.0072,-0.0027 -0.0134,-0.0055 -0.019,-0.0085 -0.0042,-0.0027 -0.008,-0.0055 -0.0112,-0.0085 -0.0014,-0.0015 -0.0026,-0.003 -0.0038,-0.0046 -0.002,-0.0028 -0.0032,-0.0058 -0.0042,-0.0083 -8e-4,-0.0034 -0.0013,-0.0069 -0.0013,-0.0105 0,-0.0033 4.22e-4,-0.0064 0.0011,-0.0094 0.0015,-0.004 0.0038,-0.0078 0.0068,-0.01155 0.003,-0.0028 0.006,-0.0052 0.0096,-0.0073 0.004,-0.002 0.008,-0.0038 0.0126,-0.0055 0.0058,-0.0016 0.0116,-0.0033 0.018,-0.0046 0.0102,-0.0016 0.0212,-0.003 0.03366,-0.0039 0.02038,-9.9e-4 0.04256,-7.8e-4 0.0678,5.98e-4 0.04414,0.0028 0.08925,0.0085 0.137889,0.01755 0.018,0.0035 0.03524,0.0072 0.0511,0.01095 0.0146,0.0035 0.02946,0.0079 0.04672,0.01365 0.03348,0.0117 0.06497,0.02535 0.09127,0.03708 l 0.0106,0.0048 c 0.02448,0.01095 0.05224,0.02329 0.08111,0.03418 0.015,0.0055 0.03064,0.01095 0.04678,0.01579 0.017,0.0051 0.03624,0.0097 0.0572,0.01365 0.0188,0.0036 0.03786,0.0063 0.0581,0.0082 0.0094,9.3e-4 0.019,0.0015 0.02838,0.0021 l 0.0032,1.5e-4 c 0.011,6.58e-4 0.02364,9.99e-4 0.03932,0.0011 0.0164,5.7e-5 0.03354,-5.1e-4 0.05388,-0.0016 0.0207,-0.0012 0.04114,-0.0031 0.06082,-0.0057 0.0162,-0.0021 0.03312,-0.005 0.05296,-0.0091 0.0164,-0.0035 0.03308,-0.0083 0.05086,-0.0147 0.0124,-0.0044 0.02374,-0.01005 0.0357,-0.01756 0.0054,-0.0033 0.0092,-0.0069 0.0128,-0.0102 0.0044,-0.0043 0.008,-0.0088 0.0106,-0.0138 0.0024,-0.0044 0.0034,-0.0092 0.0038,-0.0126 1.68e-4,-7.2e-4 2.52e-4,-0.0015 2.52e-4,-0.0022 0,-0.0038 -0.0017,-0.0078 -0.003,-0.0111 -0.0019,-0.0044 -0.0058,-0.0088 -0.0092,-0.01275 l -5.82e-4,-6.6e-4 c -0.003,-0.0033 -0.0062,-0.0066 -0.0094,-0.0099 l -0.0044,-0.0045 c -0.002,-0.0022 -0.004,-0.0046 -0.006,-0.0069 -0.0022,-0.0029 -0.004,-0.0059 -0.0056,-0.0097 -2.12e-4,-0.0011 -3.38e-4,-0.0023 -3.38e-4,-0.0033 0,-9e-4 1.26e-4,-0.0018 2.94e-4,-0.0027 6.24e-4,-0.0015 0.0015,-0.003 0.0026,-0.0045 l 7.12e-4,-8.39e-4 c 0.0017,-0.0014 0.0036,-0.0028 0.0056,-0.004 0.003,-0.0015 0.006,-0.0029 0.0094,-0.0044 0.0038,-0.0011 0.0078,-0.0021 0.0118,-0.003 0.0066,-0.0011 0.0138,-0.002 0.02246,-0.0027 0.0146,-6.3e-4 0.0299,-5.4e-4 0.04776,3.58e-4 0.02736,0.0019 0.05584,0.0051 0.08959,0.0102 0.03276,0.0049 0.06485,0.0108 0.09237,0.016 0.0124,0.0024 0.0249,0.0048 0.03734,0.0072 0.05066,0.0097 0.102987,0.01981 0.15675,0.02709 0.03164,0.0044 0.06469,0.0072 0.101147,0.009 0.0154,7.8e-4 0.03238,0.0011 0.0533,8.7e-4 0.019,-1.9e-4 0.03766,-0.0013 0.05358,-0.0023 0.07168,-0.0043 0.138809,-0.01912 0.189312,-0.03139 0.0176,-0.0044 0.03486,-0.0087 0.05214,-0.0132 l 0.0148,-0.0037 0.0148,-0.0037 c 0.03022,-0.0076 0.056,-0.0135 0.08116,-0.01843 0.0162,-0.003 0.03168,-0.0055 0.04702,-0.0075 0.0148,-0.0019 0.03144,-0.0036 0.0509,-0.0049 0.016,-8.39e-4 0.0324,-0.0013 0.04912,-0.0014 0.0144,0 0.03028,4.8e-4 0.0502,0.0016 0.0156,0.0011 0.03062,0.0023 0.04582,0.0039 0.0168,0.0016 0.03368,0.0041 0.04796,0.0062 0.03082,0.0043 0.06146,0.0097 0.09115,0.01485 l 0.0088,0.0015 0.0142,0.0025 0.0022,3.9e-4 c 0.02694,0.0048 0.0548,0.0097 0.08297,0.01365 0.03188,0.0046 0.06509,0.0079 0.09877,0.0097 0.03134,0.0018 0.06234,0.0015 0.09243,-5.6e-5 0.0116,-0.001 0.0231,-0.0021 0.03464,-0.0031 -3.38e-4,1.9e-5 -6.4e-4,5.7e-5 -9.82e-4,7.5e-5 0.03658,-0.0036 0.07292,-0.0076 0.108167,-0.01335 0.0328,-0.0053 0.06513,-0.0111 0.09813,-0.01621 0.017,-0.0025 0.03412,-0.0051 0.05148,-0.0072 0.0166,-0.0019 0.03344,-0.0037 0.0505,-0.0048 0.0174,-0.0011 0.03512,-0.0018 0.05278,-0.0016 0.0082,1.13e-4 0.0166,3e-4 0.0249,7.5e-4 0.0019,1.13e-4 0.0038,2.18e-4 0.0056,3.3e-4 -8.6e-5,-3.7e-5 -1.7e-4,-5.7e-5 -2.96e-4,-9.4e-5 -0.0114,-0.0028 -0.0238,-0.0052 -0.03792,-0.0076 -0.0152,-0.0025 -0.03112,-0.0039 -0.04598,-0.0051 -0.03262,-0.0025 -0.06616,-0.003 -0.09463,-0.003 -0.02084,-3.7e-5 -0.0421,2.18e-4 -0.06266,5.1e-4 l -0.0068,7.5e-5 c -0.04708,6.3e-4 -0.09549,0.0013 -0.14297,-0.0012 6.82e-4,2.85e-4 0.0014,3.3e-4 0.0022,3.9e-4 -0.0168,-0.0013 -0.03188,-0.0025 -0.04598,-0.0043 -0.0142,-0.0016 -0.02862,-0.0039 -0.04674,-0.0072 -0.0234,-0.0046 -0.04596,-0.0099 -0.0689,-0.01624 -0.02162,-0.006 -0.04156,-0.0126 -0.05998,-0.01887 -0.0122,-0.0042 -0.02416,-0.0084 -0.03622,-0.0126 -0.03652,-0.0129 -0.07378,-0.02592 -0.113327,-0.03706 -0.03144,-0.0088 -0.0646,-0.01578 -0.09833,-0.02058 -0.02904,-0.004 -0.06202,-0.0063 -0.09797,-0.0064 -0.02758,-1.88e-4 -0.0576,0.0013 -0.09451,0.0046 -0.03212,0.0028 -0.06234,0.007 -0.09579,0.0117 -0.012,0.0016 -0.0237,0.0035 -0.03538,0.0051 -0.0206,0.003 -0.04114,0.006 -0.06194,0.0088 -0.012,0.0017 -0.02426,0.0032 -0.03644,0.0047 0.0136,-0.0056 0.0263,-0.0114 0.04024,-0.01812 l 0.0016,-7.2e-4 0.0088,-0.0042 c 0.0281,-0.0135 0.05712,-0.0273 0.09075,-0.03892 0.0074,-0.0022 0.0152,-0.0046 0.02362,-0.007 0.0092,-0.0025 0.0186,-0.0046 0.02746,-0.0065 0.0086,-0.0015 0.0176,-0.0028 0.02776,-0.0042 0.0092,-0.0011 0.0192,-0.0019 0.0322,-0.0028 0.0126,-6e-4 0.02336,-9e-4 0.03344,-9.9e-4 0.0136,-1.13e-4 0.02684,4.5e-4 0.03822,9.9e-4 0.05066,0.0031 0.09833,0.0111 0.134149,0.01774 0.0132,0.0025 0.02636,0.0051 0.03948,0.0076 0.02654,0.0052 0.05052,0.0097 0.07518,0.0141 0.0064,0.0011 0.0132,0.0021 0.02008,0.0032 1.68e-4,3.8e-5 2.52e-4,1.32e-4 4.2e-4,1.68e-4 0.003,4.2e-4 0.0058,8.7e-4 0.0088,0.0013 1.7e-4,1.9e-5 2.96e-4,3.7e-5 4.76e-4,7.5e-5 0.0298,0.0043 0.05934,0.009 0.08829,0.01425 0.0166,0.0036 0.0331,0.0074 0.0495,0.0111 0.005,0.0014 0.0098,0.0028 0.0144,0.0042 0.03548,0.01005 0.07332,0.02005 0.115588,0.03066 0.07431,0.01858 0.14783,0.0358 0.228947,0.04216 0.03232,0.0025 0.06488,0.0033 0.09683,0.0022 0.03426,-0.0011 0.07038,-0.0043 0.107347,-0.0096 0.0172,-0.0025 0.03438,-0.0054 0.05266,-0.0088 0.0084,-0.0016 0.0168,-0.0035 0.02508,-0.0052 0.02762,-0.0074 0.0559,-0.0141 0.08477,-0.0204 0.0108,-0.0022 0.02178,-0.0046 0.0328,-0.0067 0.01,-0.002 0.02026,-0.0039 0.0306,-0.0057 0.02148,-0.0037 0.04342,-0.0067 0.06576,-0.0091 0.02166,-0.0023 0.0436,-0.0042 0.06572,-0.0055 0.02276,-0.0013 0.04568,-0.0021 0.06862,-0.0025 0.0112,-1.91e-4 0.02246,-2.37e-4 0.03374,-3e-4 0.0092,-5.6e-5 0.0184,-1.13e-4 0.02746,-1.68e-4 0.0196,-5.7e-5 0.0392,-3.8e-5 0.05874,4.5e-4 0.0156,3.6e-4 0.03138,9.9e-4 0.04688,0.0021 -0.04966,-0.0074 -0.108187,-0.01642 -0.166131,-0.02724 -0.0168,-0.0032 -0.0339,-0.0064 -0.0509,-0.0099 -0.02334,-0.0046 -0.0475,-0.0093 -0.07158,-0.01365 -0.04506,-0.0081 -0.08345,-0.01365 -0.120888,-0.01731 -0.04296,-0.0042 -0.08571,-0.0055 -0.126909,-0.0041 -0.02206,8.4e-4 -0.04474,0.0025 -0.06764,0.0052 -0.0168,0.0019 -0.03426,0.0046 -0.05666,0.009 -0.0327,0.0063 -0.06346,0.0141 -0.09323,0.02163 -0.03114,0.0079 -0.06172,0.01545 -0.09361,0.02148 l -0.0015,2.85e-4 c -0.02968,0.0054 -0.0583,0.009 -0.08561,0.01065 l 0.0024,-1.8e-5 c -0.02596,0.0013 -0.05324,0.0012 -0.08338,-4.8e-4 -0.04296,-0.0025 -0.08455,-0.0084 -0.115948,-0.01305 -0.006,-9e-4 -0.0118,-0.0018 -0.0178,-0.0027 l -0.0028,-7.49e-4 -0.003,-7.5e-4 -0.0168,-0.0044 c -0.0114,-0.0028 -0.02264,-0.0058 -0.03398,-0.0088 l -0.0074,-0.0024 c -0.0172,-0.006 -0.03384,-0.01275 -0.0511,-0.02074 -0.0168,-0.0079 -0.03202,-0.01629 -0.04336,-0.02275 -0.011,-0.0065 -0.0218,-0.01275 -0.03256,-0.01926 -0.02946,-0.01767 -0.05944,-0.03564 -0.09429,-0.05128 -0.0242,-0.0108 -0.05194,-0.02011 -0.08254,-0.02752 -0.015,-0.0036 -0.03118,-0.0064 -0.0436,-0.0085 -0.0152,-0.0025 -0.0326,-0.0046 -0.0549,-0.0066 -0.0148,-0.0013 -0.02928,-0.0019 -0.04664,-0.0027 -0.02038,-7.5e-4 -0.0404,-7.2e-4 -0.0573,-6e-4 -0.0354,3e-4 -0.07118,0.0019 -0.105847,0.0034 l -0.0038,1.85e-4 -0.0132,6e-4 c -0.03222,0.0015 -0.06492,0.0028 -0.09715,0.0037 -0.04204,0.0012 -0.07988,7.5e-4 -0.115828,-0.0013 -0.03006,-0.002 -0.05232,-0.0044 -0.07216,-0.0078 -0.0148,-0.003 -0.02948,-0.007 -0.04608,-0.0126 -0.02978,-0.0105 -0.05714,-0.02284 -0.08042,-0.03357 -0.0116,-0.0053 -0.02316,-0.01065 -0.03466,-0.01611 l -0.003,-0.0014 c -0.0166,-0.0078 -0.03326,-0.01555 -0.05026,-0.02316 -0.03344,-0.01485 -0.06204,-0.02589 -0.09023,-0.0348 -0.0138,-0.0044 -0.02844,-0.0083 -0.04326,-0.01125 -0.0164,-0.0034 -0.03204,-0.0055 -0.04784,-0.0067 -0.008,-5.7e-4 -0.0156,-8.4e-4 -0.0231,-8.4e-4 -0.0074,0 -0.015,5.1e-4 -0.0219,9.9e-4 -0.0088,6.29e-4 -0.0162,0.0018 -0.0224,0.0028 -0.009,0.0015 -0.0178,0.0035 -0.02584,0.0058 -0.007,0.002 -0.0134,0.0042 -0.02148,0.0072 -0.0078,0.0028 -0.0144,0.0061 -0.02062,0.0091 -0.0076,0.0037 -0.0144,0.0079 -0.0202,0.01155 -0.006,0.0037 -0.0118,0.0079 -0.0178,0.0132 -0.0082,0.0067 -0.0152,0.0147 -0.02166,0.02419 -0.0052,0.0076 -0.009,0.016 -0.0128,0.02719 -0.0042,0.0126 -0.0064,0.0255 -0.0086,0.03804 -9.34e-4,0.0053 -0.0018,0.01035 -0.0028,0.01542 -9.82e-4,0.0051 -0.0022,0.01005 -0.0036,0.0151 -0.0044,0.01365 -0.0104,0.02437 -0.0188,0.03388 -0.0062,0.006 -0.0132,0.0114 -0.0212,0.01624 -0.008,0.0044 -0.0164,0.008 -0.02594,0.0114 -0.0134,0.0044 -0.0284,0.0083 -0.0458,0.0117 -0.02394,0.0042 -0.04792,0.007 -0.07136,0.0087 -0.02044,9.98e-4 -0.04116,9.6e-4 -0.06352,-1.98e-4 -0.0134,-9e-4 -0.027,-0.0021 -0.04064,-0.0037 -0.0114,-0.0014 -0.02346,-0.0032 -0.03802,-0.0058 -0.0209,-0.004 -0.0404,-0.0091 -0.05806,-0.01485 -0.0124,-0.0044 -0.0231,-0.009 -0.03238,-0.01395 -0.0066,-0.0041 -0.012,-0.0079 -0.0162,-0.01215 -0.0026,-0.003 -0.0044,-0.006 -0.0058,-0.0091 -3.8e-4,-0.0016 -5.82e-4,-0.0035 -5.82e-4,-0.0053 0,-0.0013 1.26e-4,-0.0025 2.96e-4,-0.0037 0.0012,-0.0033 0.0032,-0.0064 0.0058,-0.0096 2.1e-4,-1.68e-4 3.8e-4,-3.3e-4 5.18e-4,-4.8e-4 1.26e-4,-1.32e-4 2.52e-4,-2.85e-4 3.8e-4,-4.2e-4 0.003,-0.0034 0.0068,-0.007 0.0114,-0.0102 0.0088,-0.0061 0.0196,-0.0117 0.03222,-0.01642 0.0124,-0.0045 0.0258,-0.0083 0.04018,-0.0114 0.02994,-0.0065 0.06204,-0.0102 0.09415,-0.01365 0.0158,-0.0016 0.03182,-0.0033 0.04752,-0.0054 0.0116,-0.0014 0.02282,-0.0033 0.0339,-0.0052 -8.6e-5,0 -1.28e-4,2.7e-5 -2.12e-4,2.7e-5 2.54e-4,-6e-5 5.18e-4,-1.05e-4 7.58e-4,-1.53e-4 0.02264,-0.0044 0.04452,-0.0096 0.06421,-0.01632 0.0104,-0.0036 0.0198,-0.0076 0.02786,-0.01215 0.0046,-0.0027 0.0086,-0.0055 0.0116,-0.0085 v 2.5e-5 c 0,-2.5e-5 4.2e-5,-2.5e-5 4.2e-5,-5.2e-5 0,-2.6e-5 0,-5.3e-5 4.2e-5,-5.3e-5 v -6e-5 c 4.2e-5,-3.9e-5 8.4e-5,-7.2e-5 1.26e-4,-1.12e-4 -1.4e-5,2.7e-5 -1.4e-5,5.2e-5 -1.4e-5,6.6e-5 4.2e-5,-7.4e-5 1.26e-4,-1.52e-4 2.1e-4,-2.06e-4 -8.4e-5,2.7e-5 -8.4e-5,8e-5 -1.26e-4,1.05e-4 0.0022,-0.0024 0.0038,-0.0048 0.0046,-0.0073 6.1e-4,-0.0023 6.1e-4,-0.0045 8.4e-5,-0.0067 0,2.5e-5 4.2e-5,7.3e-5 4.2e-5,1.18e-4 0,-4.8e-5 -4.2e-5,-9.3e-5 -4.2e-5,-1.47e-4 v -2.7e-5 c -4.2e-5,-5.1e-5 -4.2e-5,-1.11e-4 -4.2e-5,-1.59e-4 -4.76e-4,-0.0012 -9.94e-4,-0.0025 -0.0017,-0.0038 -8.04e-4,-0.0013 -0.0019,-0.0025 -0.003,-0.0039 -0.0016,-0.0016 -0.0034,-0.0032 -0.0054,-0.0046 -0.001,-7.5e-4 -0.0022,-0.0015 -0.0032,-0.0023 -8.4e-5,6.5e-5 -1.68e-4,1.77e-4 -2.96e-4,2.57e-4 -0.003,0.0028 -0.006,0.0058 -0.0096,0.0085 -0.0042,0.0035 -0.0096,0.0069 -0.0142,0.0097 -0.0034,0.002 -0.0068,0.0036 -0.0106,0.0053 -0.004,0.002 -0.0082,0.0035 -0.0116,0.0046 -0.0068,0.0023 -0.014,0.0041 -0.02188,0.0058 -0.0042,7.8e-4 -0.0084,0.0014 -0.0128,0.002 -0.0064,9.3e-4 -0.0128,0.0014 -0.0182,0.0018 -0.0054,2.05e-4 -0.0106,3.6e-4 -0.016,3.9e-4 -0.007,8.7e-5 -0.0138,-2.25e-4 -0.02022,-5.4e-4 -0.02044,-0.0014 -0.04132,-0.0041 -0.0639,-0.0083 -0.0094,-0.0019 -0.0188,-0.0039 -0.02798,-0.006 -0.0106,-0.0025 -0.0208,-0.0052 -0.03026,-0.0079 -0.0162,-0.0046 -0.03168,-0.0097 -0.04884,-0.01537 l -0.0094,-0.0032 c -0.018,-0.0058 -0.03774,-0.01215 -0.0588,-0.01809 -0.0184,-0.0053 -0.03844,-0.0096 -0.06108,-0.01365 -0.02008,-0.0035 -0.04278,-0.0057 -0.07156,-0.0068 -0.02138,-7.8e-4 -0.0442,-2.7e-5 -0.07411,0.0025 -0.02558,0.0023 -0.0509,0.0065 -0.0726,0.0102 -0.0172,0.0029 -0.03456,0.0063 -0.05134,0.0095 l -0.0022,4.19e-4 -0.0186,0.0036 c -0.025,0.0047 -0.04766,0.0084 -0.06921,0.0114 -0.0248,0.0035 -0.05188,0.0063 -0.08282,0.0082 -0.02318,0.0013 -0.0465,0.002 -0.0713,0.0021 -0.0237,8e-5 -0.04876,-6.9e-4 -0.07893,-0.0024 -0.03036,-0.0019 -0.06112,-0.0048 -0.09411,-0.0087 -0.03806,-0.0043 -0.07414,-0.0099 -0.104367,-0.01485 -0.03328,-0.0054 -0.06736,-0.0114 -0.09661,-0.01678 l -0.0216,-0.0039 -0.0024,-4.5e-4 c -0.0223,-0.004 -0.04532,-0.0082 -0.06826,-0.012 -0.105567,-0.0172 -0.211051,-0.02644 -0.31359,-0.02749 -0.04752,-4.8e-4 -0.09699,0.0013 -0.14699,0.0052 -0.02114,0.0016 -0.043,0.0041 -0.06704,0.0072 -0.02102,0.0028 -0.0432,0.0064 -0.06987,0.01155 -0.04226,0.0079 -0.08425,0.01881 -0.124748,0.03232 -0.03914,0.01305 -0.0761,0.02872 -0.109967,0.04653 -0.0666,0.03513 -0.119248,0.07795 -0.161051,0.130984 -0.03768,0.04795 -0.05758,0.09745 -0.0591,0.147092 l -4.2e-5,0.0046 c 0,0.02244 0.0048,0.0456 0.0146,0.06886 0.0046,0.01095 0.0108,0.02218 0.019,0.03429 0.0074,0.0108 0.017,0.02196 0.03016,0.03532 0.01,0.01005 0.02212,0.02026 0.03722,0.03135 0.0136,0.0099 0.03004,0.02011 0.05052,0.0313 0.03866,0.02116 0.08473,0.03921 0.136909,0.05362 0.02362,0.0064 0.0508,0.0123 0.08303,0.01773 0.02648,0.0044 0.05546,0.0076 0.08848,0.01005 0.0285,0.0019 0.05902,0.0028 0.09075,0.0027 0.02954,-2.04e-4 0.0623,-0.0018 0.100087,-0.0049 0.0291,-0.0024 0.0604,-0.0062 0.09577,-0.0114 0.02914,-0.0044 0.05804,-0.0097 0.08605,-0.01485 l 0.0098,-0.0018 c 0.02816,-0.0052 0.06008,-0.0111 0.09197,-0.01602 0.03284,-0.0053 0.06544,-0.0088 0.09665,-0.01095 0.0148,-7.49e-4 0.02862,-0.0011 0.04204,-0.0012 0.0154,-1.31e-4 0.03058,5.4e-4 0.04342,0.0012 0.013,9e-4 0.02568,0.0019 0.03792,0.0035 0.0134,0.0015 0.02672,0.0035 0.03856,0.0052 0.0194,0.0028 0.03966,0.0063 0.0654,0.0111 0.0094,0.0018 0.019,0.0036 0.02838,0.0055 l 0.005,9.9e-4 0.0042,8.4e-4 c 0.018,0.0035 0.03618,0.0071 0.05448,0.01035 0.016,0.0028 0.03274,0.0055 0.05004,0.0078 0.0164,0.0022 0.03418,0.0039 0.05446,0.0052 0.0076,5.1e-4 0.0154,9e-4 0.02334,0.0012 0.0174,9.5e-5 0.03482,-1.3e-4 0.05218,-6.6e-4 h -2.52e-4 c 2.1e-4,-6e-6 4.2e-4,-1.2e-5 6.22e-4,-1.8e-5 h 3e-5 c 0.0112,-3.9e-4 0.02214,-8.4e-4 0.0332,-0.0014 0.01,-5.1e-4 0.0198,-9.99e-4 0.02972,-0.0016 0.0188,-9e-4 0.03764,-0.0016 0.05648,-0.0022 0.03874,-0.0011 0.0777,-0.0012 0.116307,3.9e-4 0.03764,0.0016 0.07519,0.0046 0.111048,0.01005"
       style="fill:#f14c2b;fill-opacity:1;fill-rule:nonzero;stroke:none;stroke-width:0.000991152"
       id="path30" />
    <path
       d="m 34.55394,90.112494 c -0.0104,-1.5e-4 -0.02074,2.11e-4 -0.03094,0.0011 -0.0174,0.0015 -0.0349,0.0048 -0.05354,0.01005 -0.0146,0.004 -0.02826,0.009 -0.0415,0.0138 -0.016,0.0059 -0.03266,0.0117 -0.05108,0.01624 -0.0106,0.0026 -0.02176,0.0045 -0.03296,0.0059 -0.011,0.0011 -0.02212,0.0016 -0.03322,0.0016 -7.6e-4,-1.8e-5 -0.0016,-5.7e-5 -0.0024,-5.7e-5 -0.0034,-3.3e-4 -0.0068,-5.7e-4 -0.0104,-7.49e-4 0.008,0.0022 0.0162,0.0045 0.0245,0.0066 0.0076,0.0019 0.0154,0.0037 0.02326,0.0055 0.007,0.0014 0.0142,0.0027 0.02148,0.0039 3e-5,0 8.4e-5,0 8.4e-5,0 l 1.4e-5,8e-6 c 1.7e-4,1.8e-5 3.38e-4,3.7e-5 4.6e-4,7.5e-5 8.4e-5,6e-6 1.68e-4,1.8e-5 2.1e-4,1.8e-5 -4.2e-5,-6e-6 -1.26e-4,-1.8e-5 -2.1e-4,-1.8e-5 0.0068,9.28e-4 0.0136,0.0018 0.02052,0.0022 0.007,5.7e-4 0.014,9.3e-4 0.021,0.0011 0.007,1.5e-4 0.014,2.11e-4 0.02114,-7.5e-5 0.0056,-2.12e-4 0.0112,-5.7e-4 0.0168,-0.001 4.2e-5,-6e-6 8.4e-5,-1.2e-5 1.68e-4,-1.2e-5 1.68e-4,-1.9e-5 4.22e-4,-5.7e-5 6.4e-4,-7.5e-5 -8.4e-5,0 -8.4e-5,1.8e-5 -8.4e-5,1.8e-5 8.4e-5,-1.8e-5 8.4e-5,-1.8e-5 1.26e-4,-1.8e-5 h -4.2e-5 c 0.0046,-4.8e-4 0.0092,-0.0011 0.0136,-0.0018 0.0038,-6.3e-4 0.0074,-0.0014 0.011,-0.0023 4.2e-5,-3.6e-5 2.1e-4,-5.6e-5 2.54e-4,-5.6e-5 8.4e-5,-1.3e-5 1.68e-4,-1.8e-5 2.52e-4,-3.7e-5 0.0036,-9e-4 0.0072,-0.0019 0.0106,-0.0028 0.0036,-0.0012 0.007,-0.0024 0.0104,-0.0038 l -7.12e-4,3e-4 c 0.0038,-0.0016 0.0076,-0.0033 0.011,-0.0052 0.0034,-0.0019 0.0068,-0.0037 0.0098,-0.0058 8.4e-5,-5.5e-5 1.26e-4,-1.12e-4 2.12e-4,-1.5e-4 0.007,-0.0049 0.0132,-0.01005 0.0194,-0.01521 0.006,-0.0048 0.012,-0.0096 0.0192,-0.0141 0.0036,-0.0022 0.0074,-0.0044 0.0118,-0.0063 0.004,-0.0018 0.0084,-0.0036 0.013,-0.0051 0.0022,-6.6e-4 0.0042,-0.0013 0.0066,-0.0019 -0.0106,-9.9e-4 -0.0206,-0.0016 -0.03044,-0.0016"
       style="fill:#f14c2b;fill-opacity:1;fill-rule:nonzero;stroke:none;stroke-width:0.000991152"
       id="path32" />
    <path
       d="m 32.806117,90.649955 c -0.0052,-0.0012 -0.0104,-0.0023 -0.0158,-0.0033 2.96e-4,5.7e-5 5.82e-4,1.32e-4 8.64e-4,1.68e-4 -0.0104,-0.0019 -0.02108,-0.0035 -0.03204,-0.0046 -0.01,-0.001 -0.0201,-0.0018 -0.0303,-0.0024 3.38e-4,1.8e-5 6.4e-4,5.6e-5 9.82e-4,7.5e-5 -0.02416,-0.0014 -0.04854,-0.0019 -0.07275,-0.003 -0.0068,-2.85e-4 -0.0136,-6e-4 -0.0202,-9.6e-4 -0.0054,-3e-4 -0.0108,-7.2e-4 -0.0162,-0.0013 -0.0056,-6e-4 -0.0112,-0.0012 -0.0168,-0.0021 -0.0054,-8.4e-4 -0.0108,-0.0017 -0.016,-0.0027 -0.02142,-0.0041 -0.04128,-0.0094 -0.06102,-0.01485 -0.0108,-0.003 -0.0217,-0.006 -0.0329,-0.0085 -0.0106,-0.0025 -0.02132,-0.0048 -0.03234,-0.0069 l 8.65e-4,1.5e-4 c -0.0124,-0.0022 -0.02508,-0.0043 -0.03808,-0.0058 -0.013,-0.0016 -0.02618,-0.0028 -0.0396,-0.0036 2.1e-4,1.8e-5 4.46e-4,1.8e-5 6.98e-4,5.7e-5 -0.0182,-0.0011 -0.0364,-0.0014 -0.05464,-9e-4 -0.0188,4.5e-4 -0.03762,0.0014 -0.05636,0.0023 -0.0196,8.4e-4 -0.03926,0.0016 -0.05888,0.0013 -0.004,-7.5e-5 -0.0082,-1.5e-4 -0.0122,-2.85e-4 0.0184,0.0016 0.0363,0.0036 0.05308,0.0066 0.0126,0.0024 0.02446,0.0055 0.0353,0.0091 0.0082,0.0029 0.016,0.0062 0.02324,0.0097 0.0074,0.0035 0.0142,0.0074 0.02,0.01065 v 2e-5 l 0.0098,0.0057 c 0.006,0.0036 0.0122,0.0071 0.0184,0.01065 0.0108,0.006 0.02136,0.01095 0.03208,0.0151 0.013,0.0049 0.02712,0.009 0.04234,0.01215 0.0072,0.0014 0.0148,0.0027 0.02332,0.0037 0.009,0.0012 0.0184,0.0018 0.0262,0.0023 0.0156,9e-4 0.03254,9e-4 0.05202,5.7e-5 0.016,-7.2e-4 0.03356,-0.0021 0.05336,-0.0044 0.02356,-0.0025 0.04708,-0.0058 0.06985,-0.009 0.0128,-0.0018 0.02548,-0.0035 0.03832,-0.0053 0.02984,-0.0037 0.05302,-0.0061 0.07512,-0.0075 0.0128,-7.2e-4 0.02346,-0.001 0.03338,-9.9e-4 7e-4,0 0.0014,-7.5e-5 0.002,-2.11e-4 -0.0016,-4.2e-4 -0.0032,-8.1e-4 -0.005,-0.0012"
       style="fill:#f14c2b;fill-opacity:1;fill-rule:nonzero;stroke:none;stroke-width:0.000991152"
       id="path34" />
    <path
       d="m 33.4499,89.91203 c -0.0044,-0.0023 -0.0096,-0.0046 -0.0156,-0.0069 -0.0106,-0.0042 -0.023,-0.0078 -0.03676,-0.01095 -0.02502,-0.0055 -0.05468,-0.0085 -0.08581,-0.0088 -0.02902,-2.58e-4 -0.05926,0.0022 -0.08744,0.0072 -0.02468,0.0043 -0.0474,0.01065 -0.06632,0.01842 0.0088,-3.3e-4 0.0176,-4.2e-4 0.02628,-1.65e-4 0.0126,3.9e-4 0.02514,0.0012 0.0375,0.0024 0.02618,0.0025 0.05162,0.0064 0.07729,0.0097 0.0132,0.0016 0.02658,0.0035 0.04012,0.0046 0.0124,0.0011 0.02496,0.002 0.03762,0.0023 h 1.68e-4 3e-5 c 1.26e-4,6e-6 2.96e-4,6e-6 4.22e-4,2.6e-5 h 2.52e-4 -2.52e-4 c 0.0058,7.8e-5 0.0116,7.8e-5 0.0174,-2.31e-4 0.0048,-2.33e-4 0.0096,-6e-4 0.0144,-0.0011 -2.94e-4,2.6e-5 -6.4e-4,5.1e-5 -9.34e-4,7.8e-5 0.0108,-0.0012 0.02136,-0.0028 0.03158,-0.0049 0.0074,-0.0015 0.0148,-0.0032 0.0221,-0.0047 -0.0038,-0.0025 -0.008,-0.0048 -0.0122,-0.007"
       style="fill:#f14c2b;fill-opacity:1;fill-rule:nonzero;stroke:none;stroke-width:0.000991152"
       id="path36" />
    <path
       d="m 33.377013,89.929823 h -1.4e-5 c 1.26e-4,2.1e-5 2.52e-4,2.1e-5 4.2e-4,2.7e-5 -1.26e-4,-6e-6 -2.52e-4,-2.1e-5 -3.78e-4,-2.7e-5"
       style="fill:#f14c2b;fill-opacity:1;fill-rule:nonzero;stroke:none;stroke-width:0.000991152"
       id="path38" />
    <path
       d="m 33.376983,89.929823 h -1.68e-4 1.68e-4"
       style="fill:#f14c2b;fill-opacity:1;fill-rule:nonzero;stroke:none;stroke-width:0.000991152"
       id="path40" />
    <path
       d="m 32.836897,90.577322 c -6.4e-4,-0.0019 -0.002,-0.0039 -0.004,-0.0055 -0.0019,-0.0015 -0.0046,-0.0028 -0.0086,-0.004 -0.0026,-8.4e-4 -0.006,-0.0014 -0.0106,-0.002 -0.004,-3.9e-4 -0.0086,-5.1e-4 -0.0138,-3.6e-4 -0.0118,3.3e-4 -0.02322,0.0019 -0.03286,0.0034 -0.0096,0.0015 -0.0194,0.0034 -0.0315,0.006 -0.0124,0.0035 -0.02428,0.0073 -0.0359,0.01125 0,1.8e-5 -4.2e-5,1.8e-5 -1.26e-4,5.6e-5 -1.6e-5,6e-6 -3e-5,6e-6 -4.4e-5,1.3e-5 -1.26e-4,3.8e-5 -2.1e-4,7.5e-5 -3.36e-4,1.31e-4 -4.2e-5,1.9e-5 -8.4e-5,3.9e-5 -1.26e-4,3.9e-5 4.2e-5,-1.4e-5 8.4e-5,-3.9e-5 1.26e-4,-3.9e-5 1.26e-4,-3.6e-5 2.1e-4,-9.3e-5 3.36e-4,-1.31e-4 1.6e-5,0 1.6e-5,0 1.6e-5,-7e-6 -1.68e-4,5.7e-5 -4.22e-4,1.32e-4 -6.12e-4,2.05e-4 4.2e-5,0 4.2e-5,-1.9e-5 1.28e-4,-1.9e-5 -0.0082,0.0028 -0.0162,0.0057 -0.02412,0.0085 3.38e-4,1.68e-4 7.72e-4,2.97e-4 0.0012,3.9e-4 0.0084,0.0016 0.0174,0.0025 0.0252,0.0033 0.0108,9.89e-4 0.02236,0.0016 0.03536,0.0022 0.0134,4.5e-4 0.02624,4.5e-4 0.0382,0 0.0136,-5.1e-4 0.02438,-0.0016 0.03384,-0.0031 0.005,-9e-4 0.0092,-0.0019 0.0126,-0.003 0.004,-0.0013 0.0074,-0.0028 0.0102,-0.0046 0.0024,-0.0014 0.004,-0.0033 0.005,-0.0054 5.82e-4,-0.0011 8.18e-4,-0.0023 8.18e-4,-0.0036 0,-0.0012 -2.54e-4,-0.0025 -6.42e-4,-0.0037"
       style="fill:#f14c2b;fill-opacity:1;fill-rule:nonzero;stroke:none;stroke-width:0.000991152"
       id="path42" />
    <path
       d="m 32.699564,90.586206 c 0,0 1.6e-5,0 3e-5,-6e-6 l 1.26e-4,-5.7e-5 c -4.2e-5,1.8e-5 -8.4e-5,3.7e-5 -1.68e-4,5.7e-5"
       style="fill:#f14c2b;fill-opacity:1;fill-rule:nonzero;stroke:none;stroke-width:0.000991152"
       id="path44" />
    <path
       d="m 32.174104,90.045889 c -8.4e-5,3.3e-5 -2.1e-4,6e-5 -2.95e-4,9.1e-5 -2.1e-4,6e-5 -3.38e-4,1.34e-4 -5.06e-4,1.91e-4 2.96e-4,-9.9e-5 5.36e-4,-1.77e-4 8.01e-4,-2.84e-4"
       style="fill:#f3672c;fill-opacity:1;fill-rule:nonzero;stroke:none;stroke-width:0.000991152"
       id="path46" />
    <path
       d="m 30.602834,90.526898 c 0.0086,-3.6e-4 0.0172,-7.8e-4 0.02594,-0.0013 0.0196,-0.0013 0.0361,-0.0027 0.05032,-0.0043 0.0162,-0.0016 0.03062,-0.0035 0.0442,-0.0054 0.017,-0.0023 0.03338,-0.0048 0.04986,-0.0076 0.0144,-0.0025 0.02874,-0.005 0.04302,-0.0076 0.03646,-0.0069 0.07198,-0.0144 0.09557,-0.01948 l 0.0241,-0.0052 0.0038,-8.4e-4 0.0072,-0.0015 c 0.0176,-0.0037 0.03542,-0.0076 0.0533,-0.01125 0.0152,-0.0031 0.03132,-0.0063 0.04804,-0.0091 0.02016,-0.0033 0.0371,-0.0058 0.05324,-0.0078 0.02032,-0.0024 0.0367,-0.004 0.0515,-0.0052 0.0104,-7.8e-4 0.02434,-0.0018 0.03884,-0.0024 0.0184,-8.4e-4 0.03466,-0.0012 0.04968,-0.0013 0.0186,-9.5e-5 0.0346,7.5e-5 0.04914,5.4e-4 0.02966,9e-4 0.05898,0.0025 0.08701,0.0046 0.05616,0.0044 0.112367,0.01035 0.166631,0.01627 l 0.003,3e-4 0.0233,0.0025 c -0.006,-0.0058 -0.011,-0.0108 -0.0152,-0.01533 -0.0064,-0.007 -0.0108,-0.01305 -0.0138,-0.01867 -0.0032,-0.0062 -0.0052,-0.01095 -0.006,-0.01552 -5.18e-4,-0.0027 -8.76e-4,-0.0055 -8.76e-4,-0.0082 0,-0.0024 2.54e-4,-0.0049 8.76e-4,-0.0074 0.0012,-0.0051 0.0028,-0.0091 0.0054,-0.01275 0.0032,-0.0045 0.0066,-0.0082 0.0104,-0.0114 0.005,-0.004 0.01,-0.0073 0.015,-0.01005 0.0068,-0.0037 0.0136,-0.0067 0.02068,-0.0094 0.0116,-0.0042 0.02326,-0.0076 0.03484,-0.01035 0.0126,-0.0029 0.02518,-0.0051 0.03768,-0.0067 0.0104,-0.0014 0.0184,-0.0022 0.02566,-0.0028 0.0076,-6.9e-4 0.0152,-0.0013 0.02304,-0.0018 0.0144,-9.3e-4 0.02966,-0.0014 0.04554,-0.0015 0.0196,-7.5e-5 0.03748,3.9e-4 0.05484,0.0014 0.0176,9.88e-4 0.03332,0.0022 0.04798,0.0037 0.02,0.0022 0.038,0.0046 0.05492,0.0073 0.0134,0.0022 0.02774,0.0049 0.0415,0.0081 0.03138,0.0073 0.0595,0.01621 0.08282,0.02389 0.02114,0.0068 0.04192,0.01395 0.06316,0.02119 l 0.0096,0.0033 0.02054,0.0071 c 0.0311,0.0105 0.06442,0.02158 0.09959,0.03181 0.02054,0.006 0.0373,0.0105 0.0528,0.01425 0.008,0.0019 0.016,0.0039 0.02434,0.0057 0.0082,0.0017 0.0162,0.0035 0.02438,0.005 0.015,0.0028 0.0274,0.0048 0.03928,0.0063 0.0066,8.4e-4 0.0132,0.0016 0.02,0.0023 0.0066,6e-4 0.0132,0.0011 0.0198,0.0015 0.0102,5.1e-4 0.0186,7.2e-4 0.0263,6.9e-4 0.0038,-2e-5 0.0076,-7.5e-5 0.0114,-2.13e-4 0.0038,-1.32e-4 0.0076,-3e-4 0.0114,-5.4e-4 0.0064,-4.5e-4 0.0138,-0.0011 0.0216,-0.0021 0.004,-5.4e-4 0.0076,-9.99e-4 0.011,-0.0016 0.0022,-3.6e-4 0.0044,-7.5e-4 0.0066,-0.0012 0.0084,-0.0017 0.0152,-0.0031 0.0212,-0.0048 0.0042,-0.0011 0.0074,-0.0021 0.0106,-0.003 0.0022,-6.9e-4 0.0046,-0.0014 0.0068,-0.0023 0.0028,-9.6e-4 0.0056,-0.0019 0.0082,-0.003 0.0032,-0.0012 0.0064,-0.0025 0.0094,-0.0039 0.0028,-0.0013 0.0056,-0.0026 0.0082,-0.0041 l 0.0034,-0.0019 c 0.0038,-0.0023 0.0082,-0.0051 0.0118,-0.0082 0.0017,-0.0014 0.0032,-0.0028 0.0046,-0.0044 l 8.94e-4,-9e-4 8.65e-4,-9.29e-4 c 0.003,-0.0035 0.005,-0.0061 0.0066,-0.0087 0.0018,-0.0028 0.0036,-0.0058 0.0048,-0.009 9.8e-4,-0.0023 0.0019,-0.0046 0.0028,-0.007 l 9.83e-4,-0.0025 2.1e-4,-6.9e-4 8.64e-4,-0.0023 0.0024,-0.0058 5.18e-4,-0.0013 c 0.0011,-0.0027 0.0022,-0.0054 0.0036,-0.0079 0.0017,-0.0031 0.0034,-0.0063 0.0058,-0.0093 0.0019,-0.0025 0.0038,-0.0049 0.0062,-0.0073 0.0026,-0.0027 0.0064,-0.0061 0.0106,-0.0094 0.002,-0.0015 0.0042,-0.003 0.0064,-0.0045 0.002,-0.0014 0.0042,-0.0027 0.0066,-0.004 l 0.004,-0.0023 c 0.0024,-0.0012 0.0046,-0.0024 0.007,-0.0036 0.0024,-0.0011 0.0048,-0.0022 0.0074,-0.0033 0.0024,-9.9e-4 0.005,-0.0019 0.0078,-0.0028 l 0.0048,-0.0016 c 0.0026,-8.7e-4 0.0052,-0.0016 0.008,-0.0025 0.005,-0.0013 0.0108,-0.0028 0.017,-0.004 0.005,-9.6e-4 0.0096,-0.0018 0.0142,-0.0025 0.0056,-7.8e-4 0.012,-0.0017 0.0184,-0.0023 0.005,-4.5e-4 0.0102,-8.7e-4 0.0154,-0.0011 0.0066,-3.3e-4 0.0132,-6.6e-4 0.0198,-6.9e-4 0.0068,-9.5e-5 0.0134,-1.14e-4 0.02016,3.6e-5 0.0138,3e-4 0.02606,8.4e-4 0.03732,0.0016 0.0156,0.0011 0.02938,0.0022 0.04226,0.0036 0.0186,0.0019 0.03244,0.0036 0.04482,0.0053 0.02896,0.0039 0.05914,0.0087 0.09225,0.0147 0.02242,0.004 0.04464,0.0082 0.06688,0.01245 l 0.0188,0.0035 c 0.0178,0.0033 0.03652,0.0067 0.05546,0.01005 0.0136,0.0024 0.03176,0.0054 0.05098,0.0083 0.0192,0.0028 0.03558,0.0049 0.05148,0.0066 0.0102,0.0012 0.0198,0.0021 0.02914,0.0028 0.0076,6e-4 0.0154,0.0011 0.02304,0.0017 0.0166,8.4e-4 0.03454,0.0016 0.05308,0.0016 0.0082,-1.9e-5 0.0162,-7.5e-5 0.02432,-3.29e-4 0.0042,-1.31e-4 0.0082,-2.85e-4 0.0122,-4.8e-4 0.0036,-1.31e-4 0.0072,-3.3e-4 0.0108,-5.1e-4 0.018,-0.0011 0.03198,-0.0023 0.0447,-0.0039 0.0134,-0.0016 0.02536,-0.0031 0.0367,-0.0048 0.012,-0.0018 0.02392,-0.0036 0.03576,-0.0055 0.0118,-0.002 0.02346,-0.0041 0.03506,-0.0062 0.036,-0.0067 0.07113,-0.01425 0.112748,-0.02347 l 0.0138,-0.0031 c 0.02848,-0.0063 0.06084,-0.01335 0.09307,-0.01987 0.0132,-0.0025 0.0328,-0.0064 0.05242,-0.0099 0.02068,-0.0036 0.0369,-0.0061 0.05266,-0.0082 0.02334,-0.0032 0.04256,-0.0054 0.06054,-0.007 0.0102,-9.28e-4 0.0206,-0.0018 0.03106,-0.0025 l 0.0056,-3.3e-4 c 4.2e-5,0 4.58e-4,-1.7e-4 4.58e-4,-2e-4 0,-5.5e-5 -2.94e-4,-2.04e-4 -3.36e-4,-2.04e-4 -0.012,-0.0019 -0.02196,-0.0034 -0.03094,-0.0045 -0.0062,-6.9e-4 -0.0124,-0.0014 -0.0188,-0.0019 -0.006,-4.8e-4 -0.0122,-9.6e-4 -0.0182,-0.0013 -0.0088,-4.8e-4 -0.0164,-8.1e-4 -0.02358,-9.59e-4 -0.008,-1.49e-4 -0.016,-2.58e-4 -0.02398,-1.31e-4 -0.008,9.5e-5 -0.016,2.59e-4 -0.02374,6e-4 -0.006,2.64e-4 -0.0118,5.4e-4 -0.0176,9e-4 -0.0186,0.0012 -0.03838,0.003 -0.0573,0.0052 -0.0164,0.0018 -0.03334,0.004 -0.05202,0.0066 l -0.02578,0.0036 c -0.0108,0.0015 -0.0215,0.003 -0.03222,0.0045 l -0.0016,2.12e-4 c -0.0152,0.0021 -0.03302,0.0045 -0.05136,0.0067 -0.0186,0.0021 -0.03896,0.0044 -0.06032,0.0057 -0.0164,0.0011 -0.03366,0.0019 -0.05312,0.0027 -0.04266,0.0016 -0.08123,0.0023 -0.117868,0.002 -0.04158,-4.2e-4 -0.07906,-0.0018 -0.114668,-0.0042 -0.04128,-0.0027 -0.08035,-0.0065 -0.116107,-0.0114 -0.03856,-0.0052 -0.07491,-0.01125 -0.108107,-0.01804 -0.02072,-0.0044 -0.0375,-0.0079 -0.05284,-0.0117 -0.0098,-0.0024 -0.0196,-0.0048 -0.02918,-0.0073 -0.0078,-0.0021 -0.0156,-0.0042 -0.02328,-0.0063 -9.94e-4,-3e-4 -0.0016,-7.8e-4 -0.0016,-0.0013 4.46e-4,-0.0011 0.002,-0.0014 0.0032,-0.0014 0.0262,4.8e-4 0.05192,9.3e-4 0.07826,7.2e-4 0.0106,-1.12e-4 0.02132,-2.38e-4 0.03194,-5.7e-4 0.01,-3.3e-4 0.02004,-7.79e-4 0.03,-0.0014 0.016,-0.0011 0.02976,-0.0023 0.04192,-0.0038 0.0078,-9.6e-4 0.0156,-0.0019 0.02314,-0.0031 0.0062,-9.6e-4 0.0124,-0.0021 0.0184,-0.0032 0.0172,-0.0033 0.0324,-0.0067 0.04668,-0.01065 0.0084,-0.0022 0.0168,-0.0046 0.0249,-0.007 0.0088,-0.0027 0.0176,-0.0054 0.0263,-0.0082 0.03612,-0.01185 0.06688,-0.02074 0.09679,-0.02781 0.0082,-0.0019 0.0164,-0.0037 0.0249,-0.0055 0.0084,-0.0016 0.0168,-0.0035 0.02524,-0.0049 0.0138,-0.0025 0.02822,-0.0049 0.04256,-0.0072 0.019,-0.0029 0.03728,-0.0053 0.05596,-0.0073 0.0114,-0.0013 0.02288,-0.0025 0.03432,-0.0037 -0.03202,-0.0018 -0.06578,-0.0023 -0.09289,-0.0029 -0.0154,-2.85e-4 -0.02984,-5.4e-4 -0.04438,-8.7e-4 -0.0138,-3.3e-4 -0.02774,-6.9e-4 -0.04162,-0.0012 -0.0138,-5.4e-4 -0.02744,-0.0012 -0.0411,-0.0019 -0.0142,-8.4e-4 -0.02508,-0.0016 -0.0353,-0.0025 -0.016,-0.0015 -0.02798,-0.0028 -0.03868,-0.0044 -0.0096,-0.0013 -0.02094,-0.0031 -0.0322,-0.0052 -0.0096,-0.002 -0.0223,-0.0046 -0.03418,-0.0081 -0.0082,-0.0024 -0.0162,-0.0049 -0.02388,-0.0076 -0.0082,-0.0029 -0.0164,-0.0062 -0.02454,-0.0093 -0.0096,-0.0039 -0.019,-0.008 -0.02838,-0.01185 l -0.0052,-0.0023 -0.0152,-0.0064 c -0.0138,-0.0058 -0.0302,-0.0126 -0.04784,-0.01875 -0.0076,-0.0025 -0.0138,-0.0045 -0.0198,-0.0061 -0.0038,-0.0011 -0.0068,-0.0018 -0.01,-0.0025 -0.0032,-7.5e-4 -0.0064,-0.0014 -0.0098,-0.002 -0.0046,-9e-4 -0.0088,-0.0015 -0.0124,-0.0019 -0.0032,-3.6e-4 -0.0066,-6.3e-4 -0.0098,-8.4e-4 -0.0042,-9.3e-5 -0.0064,-1.32e-4 -0.0088,-1.12e-4 -0.0019,5.5e-5 -0.0038,1.12e-4 -0.0058,2.38e-4 -0.0017,1.31e-4 -0.004,3.6e-4 -0.006,6e-4 -0.002,2.37e-4 -0.004,5.1e-4 -0.006,9e-4 -0.003,5.7e-4 -0.006,0.0012 -0.009,0.002 -0.0022,5.4e-4 -0.0042,0.0012 -0.0062,0.0018 l -0.0016,5.4e-4 -0.0016,5.1e-4 c -0.0024,9.3e-4 -0.0056,0.0021 -0.0084,0.0034 -0.0022,9.59e-4 -0.0042,0.0019 -0.006,0.003 l -0.0028,0.0015 c -0.007,0.0042 -0.0126,0.0082 -0.0174,0.0123 -0.003,0.0025 -0.006,0.0053 -0.0086,0.0078 -0.0017,0.0016 -0.0032,0.0032 -0.0048,0.0049 l -6.98e-4,7.2e-4 -6.4e-4,7.2e-4 -0.0011,0.0012 c -0.0015,0.0015 -0.0028,0.003 -0.004,0.0046 -0.007,0.0083 -0.0136,0.01725 -0.02044,0.02751 l -0.0032,0.0049 -7.42e-4,0.0012 -5.18e-4,7.5e-4 c -0.0036,0.0055 -0.0074,0.0111 -0.0114,0.01654 -0.0036,0.0048 -0.007,0.0091 -0.0104,0.01275 -0.0028,0.0031 -0.0058,0.0061 -0.0092,0.0091 -0.008,0.0072 -0.0166,0.01305 -0.02588,0.01821 -0.008,0.0044 -0.0152,0.0076 -0.02218,0.0105 -0.0082,0.0031 -0.0142,0.0054 -0.0202,0.0073 -0.0104,0.0033 -0.0194,0.0058 -0.0281,0.0081 l -0.002,5.1e-4 -0.002,4.8e-4 c -0.004,9.9e-4 -0.008,0.0019 -0.012,0.0028 -0.0058,0.0013 -0.0116,0.0025 -0.0176,0.0036 -0.0062,0.0012 -0.0126,0.0024 -0.019,0.0034 -0.006,9.9e-4 -0.0122,0.0019 -0.0184,0.0027 -0.0148,0.002 -0.0263,0.0032 -0.03746,0.0041 -0.008,6.6e-4 -0.02,0.0016 -0.03286,0.0023 -0.0154,7.2e-4 -0.02734,9.98e-4 -0.0387,9.98e-4 -0.0176,9.5e-5 -0.032,-7.5e-5 -0.04548,-6.29e-4 -0.0112,-3.9e-4 -0.02216,-8.7e-4 -0.03338,-0.0016 -0.02692,-0.0016 -0.05258,-0.0042 -0.07629,-0.0074 -0.02652,-0.0034 -0.05048,-0.0073 -0.0733,-0.0117 -0.0088,-0.0016 -0.02208,-0.0043 -0.03508,-0.0075 -0.0118,-0.0028 -0.0217,-0.0055 -0.03116,-0.0082 -0.0116,-0.0035 -0.02056,-0.0065 -0.02844,-0.0093 -0.0078,-0.0028 -0.0166,-0.0061 -0.02516,-0.0097 -0.0148,-0.0061 -0.02972,-0.01305 -0.0459,-0.02098 -0.007,-0.0035 -0.0138,-0.0069 -0.02072,-0.01035 l -0.0038,-0.002 -0.0062,-0.0031 c -0.0064,-0.0031 -0.0126,-0.0063 -0.019,-0.0094 -0.0084,-0.004 -0.0168,-0.0081 -0.02538,-0.012 -0.0044,-0.0019 -0.009,-0.004 -0.0138,-0.006 -0.0032,-0.0013 -0.0064,-0.0026 -0.0096,-0.0038 l -0.0044,-0.0016 c -0.0098,-0.0033 -0.0174,-0.0055 -0.02484,-0.0075 -0.01,-0.0027 -0.0182,-0.0046 -0.02594,-0.0065 -0.0088,-0.0019 -0.018,-0.0039 -0.02698,-0.0057 -0.01,-0.003 -0.02,-0.0061 -0.02894,-0.0099 -0.0054,-0.0023 -0.0104,-0.0048 -0.0146,-0.0076 -0.002,-0.0015 -0.0036,-0.003 -0.0048,-0.0046 -9.23e-4,-0.0014 -0.0015,-0.0029 -0.0018,-0.0044 -4.2e-5,-0.0016 2.94e-4,-0.0035 10e-4,-0.0051 0.0013,-0.0023 0.0032,-0.0044 0.0054,-0.0065 0.0028,-0.0023 0.006,-0.0043 0.01,-0.0061 0.0046,-0.0022 0.0098,-0.004 0.0154,-0.0055 0.006,-0.0016 0.0122,-0.0028 0.0186,-0.0039 0.0062,-5.08e-4 0.0124,-9.98e-4 0.0186,-0.0015 0.0072,-6e-4 0.0144,-0.0011 0.02168,-0.0016 0.0112,-1.59e-4 0.02278,-1.84e-4 0.03542,-1.72e-4 l 0.0106,4.8e-5 c 0.007,1.2e-5 0.014,3.3e-5 0.02112,2.5e-5 0.0098,-2.25e-4 0.0196,-4.8e-4 0.0295,-8.4e-4 -3.36e-4,0 -6.4e-4,2.6e-5 -9.94e-4,2.6e-5 0.0205,-8.4e-4 0.04104,-0.0023 0.06044,-0.0053 0.0052,-8.7e-4 0.0102,-0.0019 0.015,-0.003 0.0046,-0.0011 0.0088,-0.0022 0.013,-0.0037 0.0058,-0.0019 0.0114,-0.004 0.0164,-0.0065 0.0048,-0.0022 0.0094,-0.0045 0.014,-0.0067 0.0044,-0.0022 0.0088,-0.0046 0.0132,-0.007 -0.0104,6.3e-4 -0.02086,0.0013 -0.03126,0.0019 -0.0092,6.3e-4 -0.0184,0.0012 -0.02758,0.0018 v -2.7e-5 l -1.68e-4,2.7e-5 h 4.2e-5 c -4.31e-4,2.1e-5 -7.59e-4,4.7e-5 -0.0012,7.4e-5 -0.0146,8.7e-4 -0.02872,0.0015 -0.04198,0.0018 -0.0142,3e-4 -0.02924,2.7e-5 -0.04458,-8.09e-4 -0.0112,-6.6e-4 -0.0214,-0.0016 -0.03168,-0.0025 l -0.0124,-0.0011 c -0.0128,-0.0011 -0.027,-0.0021 -0.0433,-0.0032 -0.02854,-0.0016 -0.05712,-0.0025 -0.08483,-0.0025 -0.0142,2.6e-5 -0.02918,3.3e-4 -0.04434,8.7e-4 -0.0146,5.7e-4 -0.02916,0.0015 -0.0433,0.0023 l -0.0026,1.59e-4 c -0.014,8.7e-4 -0.02808,0.0016 -0.04214,0.0025 -0.018,0.0011 -0.03594,0.0023 -0.05394,0.0035 -0.07337,0.0043 -0.15261,0.0076 -0.231117,0.0033 -0.0217,-0.0013 -0.04442,-0.0033 -0.06608,-0.0058 -0.0174,-0.002 -0.03588,-0.0044 -0.0567,-0.0076 -0.04006,-0.0059 -0.07956,-0.01305 -0.112868,-0.01933 l 0.0036,8.1e-4 c -0.0194,-0.0038 -0.03876,-0.0075 -0.05822,-0.01125 -0.0621,-0.012 -0.126389,-0.02446 -0.192153,-0.03361 -0.03594,-0.005 -0.07199,-0.0088 -0.107107,-0.01125 -0.0104,-0.0013 -0.02034,-0.0023 -0.03004,-0.0033 -0.0074,-6.6e-4 -0.0146,-0.0014 -0.02204,-0.002 -0.0074,-5.7e-4 -0.0148,-0.0011 -0.02224,-0.0016 -0.02708,-0.0015 -0.0518,-0.0022 -0.07552,-0.0019 -0.014,1.33e-4 -0.02544,3.3e-4 -0.03584,6.6e-4 -0.012,4.5e-4 -0.02398,9.9e-4 -0.03594,0.0016 -0.02792,0.0016 -0.0552,0.0043 -0.0811,0.0075 -0.0162,0.0019 -0.0286,0.0037 -0.04046,0.0055 -0.0132,0.002 -0.02652,0.0044 -0.0397,0.0068 -0.02764,0.0052 -0.05238,0.01065 -0.07559,0.01669 -0.0142,0.0038 -0.02556,0.0068 -0.03556,0.0098 -0.0046,0.0022 -0.009,0.0045 -0.0136,0.0069 -0.06663,0.03517 -0.119348,0.07805 -0.161111,0.131104 -0.03778,0.04795 -0.05774,0.09748 -0.05926,0.147197 l -8.4e-5,0.0047 c 0,0.02224 0.005,0.04545 0.0146,0.06887 0.0046,0.0111 0.0108,0.02227 0.0192,0.03439 0.0072,0.0105 0.0168,0.02176 0.03018,0.03532 0.0096,0.0097 0.02182,0.02008 0.03722,0.03136 0.0132,0.0097 0.02978,0.02002 0.05054,0.03142 0.0196,0.0108 0.04164,0.02086 0.06538,0.0301 l 0.0026,6e-4 0.0026,5.7e-4 c 0.0086,0.002 0.0172,0.0037 0.02598,0.0054 0.019,0.0035 0.03466,0.006 0.04934,0.0076 0.0078,9.3e-4 0.0156,0.0018 0.02358,0.0026 0.0046,4.19e-4 0.009,7.79e-4 0.0136,0.0011 0.0028,2.11e-4 0.0056,3.9e-4 0.0086,5.7e-4 l 0.004,2.89e-4 c 0.02196,0.0012 0.0414,0.0017 0.0595,0.0017 0.011,-9.4e-5 0.02172,-2.38e-4 0.0327,-6.6e-4"
       style="fill:#f3672c;fill-opacity:1;fill-rule:nonzero;stroke:none;stroke-width:0.000991152"
       id="path48" />
    <path
       d="m 32.165589,90.05228 c 2.94e-4,-5.3e-5 6.1e-4,-1.13e-4 9.22e-4,-1.65e-4 1.68e-4,-9.2e-5 3.78e-4,-1.65e-4 5.48e-4,-2.51e-4 -7.12e-4,1.92e-4 -0.0014,3.6e-4 -0.0022,5.4e-4 2.52e-4,-4.8e-5 4.58e-4,-7.3e-5 7e-4,-1.33e-4"
       style="fill:#f3672c;fill-opacity:1;fill-rule:nonzero;stroke:none;stroke-width:0.000991152"
       id="path50" />
    <path
       d="m 31.855193,90.198828 1.4e-5,7e-6 c 1.6e-5,6e-6 3e-5,6e-6 3e-5,6e-6 -1.4e-5,-6e-6 -3e-5,-6e-6 -4.2e-5,-1.3e-5"
       style="fill:#fbc831;fill-opacity:1;fill-rule:nonzero;stroke:none;stroke-width:0.000991152"
       id="path52" />
    <path
       d="m 32.520764,90.308872 c 0,-3.6e-5 -2.1e-4,-1.11e-4 -2.52e-4,-1.11e-4 -0.003,-6.6e-4 -0.006,-0.0013 -0.0092,-0.002 -0.0108,-0.0019 -0.0216,-0.0036 -0.03196,-0.0046 -0.005,-5.4e-4 -0.01,-0.0011 -0.0152,-0.0015 -0.005,-3.9e-4 -0.0098,-7.5e-4 -0.0148,-0.001 -0.0152,-8.4e-4 -0.0308,-0.0013 -0.04628,-0.0014 -0.0144,-5.7e-5 -0.02874,5.7e-5 -0.0439,3.3e-4 -0.0104,1.98e-4 -0.02076,4.5e-4 -0.03116,6.9e-4 -0.0208,5.1e-4 -0.03884,9e-4 -0.05708,9.99e-4 -0.012,9.4e-5 -0.02758,1.5e-4 -0.04318,-3.3e-4 -0.016,-4.8e-4 -0.02798,-0.0011 -0.03898,-0.0019 -0.0146,-0.0012 -0.02764,-0.0027 -0.04004,-0.0045 -0.0132,-0.002 -0.02472,-0.0041 -0.03534,-0.0061 -0.02388,-0.0049 -0.0475,-0.0111 -0.07024,-0.01812 -0.02022,-0.0063 -0.04066,-0.0135 -0.0625,-0.02179 -0.0174,-0.0066 -0.03448,-0.01335 -0.0515,-0.0202 l -0.0104,-0.0042 c -0.0102,-0.0041 -0.02032,-0.0081 -0.03064,-0.012 -0.0104,-0.004 -0.02112,-0.0081 -0.03222,-0.012 -0.019,-0.0064 -0.03802,-0.01185 -0.05682,-0.0165 -0.0096,-0.0023 -0.0194,-0.0046 -0.02936,-0.0067 -0.0086,-0.0018 -0.0172,-0.0035 -0.02596,-0.0052 -0.0178,-0.0033 -0.03802,-0.0067 -0.0601,-0.0102 -0.0104,-0.0016 -0.02068,-0.0031 -0.031,-0.0048 l -0.0092,-0.0014 c -0.0072,-0.0011 -0.0144,-0.0022 -0.0217,-0.0034 -0.0248,-0.0039 -0.04402,-0.0072 -0.06234,-0.01065 -0.0074,-0.0014 -0.0146,-0.0029 -0.0217,-0.0042 -0.0048,-9.6e-4 -0.0098,-0.002 -0.0146,-0.0029 -0.0126,-0.0025 -0.02578,-0.0054 -0.03826,-0.0088 -0.0052,-0.0015 -0.0108,-0.0032 -0.016,-0.0049 -0.0044,-0.0016 -0.0086,-0.0032 -0.0122,-0.0051 -0.0028,-0.0016 -0.0058,-0.0031 -0.0076,-0.0052 -5.2e-4,-5.1e-4 -9.82e-4,-9.99e-4 -0.0013,-0.0015 -3.36e-4,-5.4e-4 -5.18e-4,-9.99e-4 -6.82e-4,-0.0017 -2.96e-4,-6e-4 -4.22e-4,-0.0012 -4.22e-4,-0.0018 l 1.26e-4,-9.6e-4 c 1.7e-4,-9.9e-4 6.54e-4,-0.0019 0.0014,-0.0028 0.0013,-0.0014 0.002,-0.0021 0.0032,-0.0028 0.0015,-9.3e-4 0.0032,-0.002 0.005,-0.0029 l 0.0022,-9.6e-4 c -0.0024,-7.5e-4 -0.0048,-0.0013 -0.0072,-0.0018 -0.0024,-4.8e-4 -0.0048,-9.6e-4 -0.0072,-0.0014 -0.0112,-0.0019 -0.02162,-0.0035 -0.0317,-0.0046 -0.0054,-5.7e-4 -0.0106,-0.0011 -0.016,-0.0015 l -0.0022,-1.31e-4 -0.0092,-6.3e-4 c -0.0154,-8.1e-4 -0.03,-0.0012 -0.04456,-0.0014 -0.0134,-1.11e-4 -0.02664,-7.5e-5 -0.03994,-5.5e-5 h -0.0056 c -0.02872,5.5e-5 -0.05678,-5.6e-5 -0.08413,-0.002 -0.02484,-0.0016 -0.049,-0.0045 -0.07184,-0.0082 -0.02176,-0.0036 -0.04332,-0.0079 -0.06406,-0.0129 -0.0196,-0.0046 -0.04008,-0.01005 -0.06262,-0.01642 -0.0098,-0.0028 -0.0196,-0.0055 -0.02936,-0.0085 l -0.0092,-0.0025 -0.02282,-0.0066 c -0.0182,-0.0053 -0.03968,-0.0114 -0.06218,-0.01702 -0.02186,-0.0055 -0.04226,-0.01005 -0.06236,-0.0138 -0.017,-0.0031 -0.0322,-0.0055 -0.04654,-0.0073 -0.0096,-0.0012 -0.0184,-0.0021 -0.02654,-0.0028 -0.008,-6.9e-4 -0.016,-0.0013 -0.02416,-0.0018 -0.02242,-0.0012 -0.04268,-0.0018 -0.06198,-0.0016 -0.0096,5.3e-5 -0.0194,1.86e-4 -0.02896,5.1e-4 -0.0092,3.3e-4 -0.0186,7.5e-4 -0.0277,0.0013 -0.02204,0.0014 -0.04296,0.0035 -0.06214,0.0059 -0.0122,0.0016 -0.02156,0.0028 -0.0302,0.0043 -0.0088,0.0014 -0.0176,0.0029 -0.02618,0.0045 -0.02264,0.0044 -0.04452,0.0093 -0.06507,0.0147 -0.0194,0.0052 -0.03892,0.0111 -0.05794,0.01756 -0.02514,0.0087 -0.04856,0.01798 -0.06968,0.02764 -0.0094,0.0044 -0.0186,0.0087 -0.0271,0.01305 -0.018,0.01654 -0.03466,0.03456 -0.04954,0.05354 -0.03782,0.048 -0.05778,0.09752 -0.05928,0.147213 l -4.2e-5,0.0046 c 0,0.02215 0.0048,0.04533 0.0146,0.0689 0.0048,0.01125 0.011,0.02253 0.0192,0.03439 0.007,0.01035 0.0166,0.02166 0.0302,0.03532 0.0094,0.0097 0.02168,0.02002 0.03722,0.03139 0.0108,0.0079 0.02388,0.0163 0.03988,0.02547 0.0096,0.0032 0.0188,0.0058 0.02784,0.0081 0.0062,0.0016 0.0122,0.0032 0.0186,0.0043 0.0054,0.0012 0.011,0.0022 0.0166,0.0035 0.012,0.0022 0.02352,0.004 0.03446,0.0052 0.0062,7.5e-4 0.0124,0.0015 0.0188,0.0019 0.0066,6e-4 0.013,0.0011 0.0196,0.0015 0.017,9.6e-4 0.03508,0.0014 0.05214,0.0012 0.0184,-2.37e-4 0.03712,-9e-4 0.05708,-0.0019 0.02872,-0.0016 0.05614,-0.0042 0.08153,-0.0073 0.0138,-0.0016 0.0261,-0.0033 0.03758,-0.0051 0.0118,-0.0018 0.02392,-0.0039 0.03584,-0.006 0.0098,-0.0019 0.018,-0.0036 0.0249,-0.0052 0.008,-0.0019 0.016,-0.0039 0.02386,-0.006 0.014,-0.0039 0.02844,-0.0082 0.04436,-0.0138 0.02184,-0.0076 0.04164,-0.01528 0.0634,-0.02383 l 0.0062,-0.0025 0.0036,-0.0014 c 0.017,-0.0067 0.0347,-0.01365 0.05278,-0.02019 0.0249,-0.009 0.04482,-0.01525 0.06458,-0.02041 0.02558,-0.0066 0.04942,-0.01125 0.0728,-0.01425 0.0098,-0.0012 0.0174,-0.0021 0.02456,-0.0027 0.0086,-8.09e-4 0.0174,-0.0015 0.02622,-0.0019 0.0156,-9.9e-4 0.03178,-0.0014 0.04788,-0.0014 0.0084,5.7e-5 0.0168,1.5e-4 0.025,4.5e-4 0.0082,2.85e-4 0.0164,6.6e-4 0.02468,0.0011 0.0146,8.4e-4 0.02994,0.0021 0.04544,0.0037 0.02868,0.0031 0.05892,0.0072 0.09515,0.0132 0.016,0.0025 0.03194,0.0054 0.04784,0.0081 l 0.0036,6.3e-4 c 0.0118,0.0019 0.02356,0.004 0.03536,0.006 4.2e-4,-4.2e-4 5.06e-4,-6.9e-4 5.64e-4,-9e-4 2.52e-4,-5.4e-4 7e-4,-8.7e-4 0.0013,-0.0011 0,-6e-6 0.001,-8.98e-4 0.001,-8.98e-4 3.38e-4,-4.5e-4 5.82e-4,-8.1e-4 8.06e-4,-0.0012 1.26e-4,-5.4e-4 2.1e-4,-0.0011 2.1e-4,-0.0016 -4.2e-5,-0.0012 -1.68e-4,-0.0016 -3.38e-4,-0.0022 -6.4e-4,-0.0012 -0.0012,-0.0023 -0.002,-0.0033 -9.94e-4,-0.0013 -0.002,-0.0025 -0.0032,-0.0039 -0.0054,-0.0056 -0.0122,-0.0108 -0.0188,-0.0156 l -0.0013,-9.6e-4 c -0.003,-0.0023 -0.0062,-0.0045 -0.009,-0.0067 -0.0026,-0.0021 -0.0048,-0.0038 -0.0064,-0.0054 -9.22e-4,-9.6e-4 -0.0015,-0.0016 -0.0019,-0.0023 -5.82e-4,-9.9e-4 -8.64e-4,-0.0019 -0.0012,-0.003 -9.24e-4,-0.003 -0.0014,-0.0059 -0.0014,-0.0084 0,-6.9e-4 0,-0.0014 8.4e-5,-0.0021 4.2e-4,-0.0039 0.0013,-0.007 0.003,-0.0097 0.0018,-0.0031 0.0036,-0.0055 0.0058,-0.0076 0.0036,-0.0035 0.0072,-0.0063 0.0116,-0.0088 0.0046,-0.0027 0.0086,-0.0048 0.0122,-0.0065 0.0104,-0.0046 0.0224,-0.0091 0.03688,-0.01365 0.0076,-0.0022 0.0166,-0.0049 0.02578,-0.007 0.0078,-0.0018 0.0156,-0.0035 0.02356,-0.0051 0.0072,-0.0014 0.0144,-0.0025 0.02164,-0.0036 0.0092,-0.0013 0.017,-0.0023 0.02484,-0.003 0.0289,-0.0028 0.05888,-0.0039 0.08913,-0.0033 0.03018,6e-4 0.06084,0.0025 0.09111,0.0057 0.03044,0.0031 0.0613,0.0075 0.09173,0.0126 0.02818,0.0048 0.056,0.0102 0.08267,0.01593 l 0.0017,3.6e-4 c 0.01,0.0023 0.02046,0.0044 0.03056,0.007 0.009,0.0023 0.018,0.0046 0.0268,0.0072 0.013,0.0036 0.02566,0.0074 0.0384,0.01095 l 0.0054,0.0016 0.0192,0.0055 c 0.04638,0.01335 0.09213,0.0261 0.14185,0.03547 0.0136,0.0025 0.0256,0.0043 0.03676,0.0058 0.0066,8.4e-4 0.0132,0.0016 0.0198,0.0023 0.0056,5.1e-4 0.0112,9.6e-4 0.0168,0.0013 0.0086,5.1e-4 0.0162,7.5e-4 0.02366,7.5e-4 0.0068,-1.9e-5 0.0138,-2.38e-4 0.0212,-6.6e-4 0.0042,-2.85e-4 0.0094,-7.2e-4 0.0144,-0.0014 0.0048,-6e-4 0.0096,-0.0013 0.0142,-0.0021 0.0066,-0.0013 0.0128,-0.0025 0.0184,-0.004 0.0064,-0.0016 0.0124,-0.0034 0.0182,-0.0055 0.007,-0.0024 0.0136,-0.005 0.0198,-0.0076 0.0064,-0.0029 0.0126,-0.0057 0.0186,-0.0085 0.0038,-0.002 0.0078,-0.0039 0.0116,-0.0058 0.0078,-0.0041 0.0158,-0.0081 0.02422,-0.01185 0.0046,-0.0021 0.0118,-0.0052 0.0196,-0.0082 0.0076,-0.0028 0.014,-0.0049 0.0202,-0.0067 0.0044,-0.0013 0.0088,-0.0025 0.0136,-0.0036 0.0038,-9e-4 0.0078,-0.0016 0.0118,-0.0025 0.006,-0.0012 0.0122,-0.0023 0.0182,-0.003 3e-5,-1.4e-5 2.1e-4,-9.5e-5 2.1e-4,-1.13e-4"
       style="fill:#f68c2f;fill-opacity:1;fill-rule:nonzero;stroke:none;stroke-width:0.000991152"
       id="path54" />
    <path
       d="m 32.433609,90.45164 c 0.009,-8.1e-4 0.0186,-0.0021 0.02948,-0.004 0.0082,-0.0014 0.0164,-0.0031 0.02444,-0.0052 0.0078,-0.0019 0.0156,-0.0044 0.02384,-0.0075 0.0138,-0.005 0.0256,-0.0114 0.03504,-0.01881 0.0068,-0.0052 0.0112,-0.0111 0.0148,-0.01656 0.0044,-0.0065 0.0078,-0.0129 0.01,-0.01914 0.0012,-0.0037 0.0024,-0.0076 0.0024,-0.0114 0,-0.0023 -4.22e-4,-0.0046 -0.0012,-0.0066 -9.22e-4,-0.0022 -0.003,-0.0043 -0.0058,-0.006 -0.0026,-0.0014 -0.006,-0.0027 -0.01,-0.0037 -0.008,-0.0019 -0.0166,-0.0016 -0.02224,-9.99e-4 -0.009,9.99e-4 -0.017,0.0034 -0.02292,0.0055 -0.0096,0.0035 -0.0178,0.0072 -0.02406,0.0102 -0.0114,0.0055 -0.02194,0.0114 -0.03226,0.01713 -0.0054,0.003 -0.0108,0.006 -0.0164,0.009 -0.0056,0.003 -0.0114,0.006 -0.0172,0.0088 -0.006,0.0028 -0.0112,0.0049 -0.0166,0.0067 -0.0064,0.0011 -0.0122,0.0015 -0.017,0.0018 h 2.54e-4 c -0.0036,1.99e-4 -0.0072,3.9e-4 -0.0108,5.4e-4 l -0.0102,5.09e-4 c -0.0074,3.9e-4 -0.0152,8.7e-4 -0.02248,0.002 -0.003,4.2e-4 -0.0058,9.6e-4 -0.0084,0.0016 -0.0024,6e-4 -0.0046,0.0014 -0.0072,0.0027 -0.0052,0.0025 -0.008,0.0058 -0.008,0.0093 0,4.2e-4 4.2e-5,8.7e-4 1.26e-4,0.0013 7.3e-4,0.0032 0.0038,0.0064 0.0094,0.0096 0.005,0.0028 0.0118,0.0055 0.02052,0.0083 0.0068,0.0019 0.0148,0.0036 0.02408,0.0046 0.0084,0.0011 0.0182,0.0016 0.0299,0.0016 0.0084,-5.7e-5 0.0176,-5.4e-4 0.02834,-0.0015"
       style="fill:#f68c2f;fill-opacity:1;fill-rule:nonzero;stroke:none;stroke-width:0.000991152"
       id="path56" />
    <path
       d="m 33.076279,90.152099 c 0.0016,-6.6e-4 0.0028,-0.0015 0.0036,-0.0021 0.0011,-9e-4 0.0018,-0.0019 0.0022,-0.0033 1.26e-4,-3.3e-4 1.26e-4,-6.9e-4 1.26e-4,-0.0011 0,-0.0014 -6.1e-4,-0.0029 -0.0018,-0.0044 -0.0017,-0.0025 -0.0048,-0.0049 -0.0072,-0.0066 -0.003,-0.0022 -0.0066,-0.0043 -0.0102,-0.0064 -0.0042,-0.0024 -0.0086,-0.0046 -0.0134,-0.0067 -0.0092,-0.0043 -0.0182,-0.0078 -0.0275,-0.0108 -0.0038,-0.0013 -0.0072,-0.0023 -0.0104,-0.0028 -0.0068,-0.0014 -0.015,-0.0023 -0.02436,-0.0023 -0.0042,-7.5e-5 -0.0082,2.16e-4 -0.0122,5.1e-4 -0.0028,2.31e-4 -0.0058,6.9e-4 -0.0092,0.0014 -2.52e-4,1.8e-5 -4.88e-4,1.8e-5 -7.4e-4,3.7e-5 -0.004,4.5e-4 -0.008,0.0012 -0.0118,0.0019 -0.0038,8.1e-4 -0.0074,0.002 -0.0108,0.003 -0.0019,6.3e-4 -0.0036,0.0013 -0.0054,0.0019 -0.0018,7.2e-4 -0.0034,0.0015 -0.005,0.0023 -8.6e-5,3.6e-5 -4.4e-5,9.3e-5 -1.28e-4,1.5e-4 -7.58e-4,2.45e-4 -0.0015,4.5e-4 -0.0022,6.9e-4 -0.0058,0.002 -0.0106,0.0044 -0.015,0.0071 -0.004,0.0025 -0.007,0.0057 -0.009,0.0091 -0.0013,0.0023 -0.0019,0.0046 -0.0019,0.007 0,0.0015 2.1e-4,0.0031 6.24e-4,0.0046 2.1e-4,6.9e-4 5.34e-4,0.0012 0.0016,0.0016 0.0013,5.4e-4 0.0036,9.3e-4 0.0054,6.3e-4 0.007,-0.0012 0.0142,-0.0028 0.02218,-0.0046 l 0.003,-7.5e-4 c 0.0046,-0.0011 0.009,-0.0023 0.0138,-0.0032 0.0042,-7.8e-4 0.0082,-0.0013 0.0122,-0.0016 0.0038,-1.48e-4 0.0076,-1.3e-4 0.0114,5.7e-5 0.0064,4.8e-4 0.0128,0.0013 0.0194,0.0024 0.0046,9.6e-4 0.0084,0.0021 0.0122,0.0032 l 0.0062,0.0018 c 0.0048,0.0014 0.0094,0.0027 0.0144,0.004 0.007,0.002 0.013,0.0033 0.0186,0.0044 0.005,8.7e-4 0.0114,0.0018 0.0182,0.0016 0.0046,-1.5e-4 0.0092,-9.99e-4 0.0132,-0.0025"
       style="fill:#f68c2f;fill-opacity:1;fill-rule:nonzero;stroke:none;stroke-width:0.000991152"
       id="path58" />
    <path
       d="m 30.33071,90.371353 c 8.4e-5,1.8e-5 1.26e-4,7.5e-5 2.1e-4,1.11e-4 l 8.4e-5,3.9e-5 c -4.2e-5,-5.7e-5 -1.26e-4,-9.4e-5 -2.52e-4,-1.32e-4"
       style="fill:#fefefe;fill-opacity:1;fill-rule:nonzero;stroke:none;stroke-width:0.000991152"
       id="path60" />
    <path
       d="m 31.449734,90.232888 c 0,-3.7e-5 -2.1e-4,-1.12e-4 -2.94e-4,-1.12e-4 -0.0034,-6.9e-4 -0.0068,-0.0014 -0.0104,-0.002 -0.02594,-0.0048 -0.0543,-0.0087 -0.08427,-0.0117 -0.0231,-0.0023 -0.0488,-0.0044 -0.08331,-0.0064 -0.0164,-9.9e-4 -0.03308,-0.0019 -0.04972,-0.0028 l -0.01,-5.4e-4 c -0.01,-5.7e-4 -0.02006,-0.0011 -0.03012,-0.0016 l -0.0034,-1.86e-4 -0.0028,-1.7e-4 c -0.0076,-4.49e-4 -0.015,-8.99e-4 -0.02248,-0.0015 -0.018,-0.0014 -0.03524,-0.0035 -0.05106,-0.0061 -0.0144,-0.0025 -0.0286,-0.0054 -0.04194,-0.0085 -0.02236,-0.0054 -0.0438,-0.01185 -0.06448,-0.01797 l -0.0174,-0.0052 c -0.0168,-0.005 -0.02976,-0.0085 -0.04224,-0.01185 -0.0152,-0.0039 -0.02974,-0.0071 -0.04434,-0.0099 -0.0062,-0.0011 -0.0132,-0.0018 -0.0186,-0.0023 -0.0092,-8.4e-4 -0.0186,-0.0016 -0.02776,-0.0023 l -0.02056,-0.0014 -0.0042,-2.85e-4 c -0.0142,-9.6e-4 -0.0282,-0.0019 -0.04224,-0.0031 -0.0126,-0.001 -0.0229,-0.002 -0.03234,-0.0032 -0.011,-0.0013 -0.0194,-0.0025 -0.02714,-0.0039 -0.0058,-0.0011 -0.013,-0.0025 -0.0186,-0.0049 -0.0048,-0.002 -0.0076,-0.0041 -0.0082,-0.0061 -2.54e-4,-8.1e-4 -4.48e-4,-0.0016 -4.48e-4,-0.0024 0,-0.0028 0.0016,-0.0055 0.0046,-0.0079 0.0038,-0.003 0.0096,-0.0058 0.0178,-0.0082 0.0078,-0.0024 0.017,-0.0046 0.02804,-0.0064 0.0104,-0.0019 0.022,-0.0035 0.03512,-0.0049 0.02184,-0.0024 0.04518,-0.0042 0.07341,-0.0057 0.0104,-5.1e-4 0.0208,-9.6e-4 0.0312,-0.0014 -0.03788,-0.0049 -0.07966,-0.0088 -0.131388,-0.01185 -0.04782,-0.0028 -0.09997,-0.0048 -0.159411,-0.0061 -0.02594,-5.7e-4 -0.0519,-9.9e-4 -0.0779,-0.0013 l -0.0094,-6.6e-5 -0.0092,-1.05e-4 c -0.0052,-5.3e-5 -0.0106,-7.8e-5 -0.0158,0 -0.009,1.51e-4 -0.0186,5.1e-4 -0.02842,10e-4 -0.0154,9.3e-4 -0.03068,0.0023 -0.04536,0.0042 -0.0142,0.0018 -0.0286,0.004 -0.04254,0.0067 -0.015,0.0028 -0.02936,0.0061 -0.04244,0.0095 -0.0134,0.0034 -0.02686,0.0075 -0.03966,0.01185 -0.0118,0.004 -0.02286,0.0084 -0.03276,0.01275 -0.0072,0.0031 -0.0138,0.0065 -0.02,0.0096 l -0.0015,0.0019 c -0.0012,0.0014 -0.0022,0.0029 -0.0034,0.0044 -0.03788,0.048 -0.05784,0.09754 -0.05934,0.147273 l -4.2e-5,0.0046 c 0,0.02206 0.0048,0.04525 0.0146,0.06892 0.0048,0.0114 0.0112,0.02269 0.0192,0.03442 0.0068,0.01005 0.0164,0.02134 0.03024,0.03532 0.0092,0.0096 0.02144,0.01987 0.0372,0.03139 0.0022,0.0016 0.0048,0.0034 0.0072,0.0051 0.0088,0.0023 0.0174,0.0041 0.02582,0.0057 0.0088,0.0016 0.018,0.003 0.0266,0.004 0.0084,9.9e-4 0.0178,0.0018 0.02776,0.0025 0.0112,6e-4 0.02242,9e-4 0.03366,8.1e-4 0.0112,-7.5e-5 0.02258,-4.5e-4 0.03496,-0.0012 0.02686,-0.0016 0.05268,-0.0046 0.07662,-0.0073 l 0.0104,-0.0012 c 0.0184,-0.0023 0.03924,-0.0046 0.05944,-0.0066 -0.0032,-0.0018 -0.0066,-0.0033 -0.0102,-0.0048 -0.0048,-0.002 -0.01,-0.0039 -0.0152,-0.0057 -0.0154,-0.0052 -0.03324,-0.01005 -0.05594,-0.01513 -0.0088,-0.002 -0.0174,-0.0038 -0.02624,-0.0057 -0.0106,-0.0023 -0.02118,-0.0045 -0.03168,-0.0069 -0.0094,-0.0023 -0.0192,-0.0045 -0.02876,-0.007 -0.0102,-0.0028 -0.0194,-0.0055 -0.02774,-0.0084 -0.0092,-0.0031 -0.0178,-0.0064 -0.02542,-0.0099 -0.0084,-0.0037 -0.0164,-0.0079 -0.0235,-0.0123 -2.96e-4,-1.68e-4 -4.76e-4,-3.9e-4 -4.76e-4,-6.9e-4 0,-4.5e-4 3.78e-4,-8.7e-4 0.001,-0.0011 0.0011,-5.1e-4 0.0028,-6e-4 0.0042,-2.51e-4 0.0094,0.0025 0.0174,0.0046 0.02474,0.0065 0.008,0.0018 0.0162,0.0036 0.02438,0.0052 0.0124,0.0022 0.0245,0.0042 0.03608,0.0055 0.0106,0.0013 0.02208,0.0022 0.03404,0.0031 0.0128,7.79e-4 0.02582,0.0011 0.03858,0.0011 0.0114,-7.4e-5 0.02312,-4.79e-4 0.0359,-0.0012 0.0194,-0.0012 0.03902,-0.0031 0.0582,-0.0058 0.0184,-0.0025 0.0371,-0.0055 0.05736,-0.0093 0.0319,-0.006 0.06522,-0.01335 0.09461,-0.01993 l 0.0132,-0.0029 0.0196,-0.0044 c 0.0318,-0.0069 0.06958,-0.0147 0.108907,-0.0208 -0.02022,-7.8e-4 -0.03944,-0.0021 -0.05712,-0.004 -0.0221,-0.0025 -0.04438,-0.0058 -0.06812,-0.01065 -0.02032,-0.004 -0.04038,-0.0085 -0.05982,-0.01305 l -0.005,-0.0011 c -0.02086,-0.0048 -0.04336,-0.0099 -0.06632,-0.01425 -0.0122,-0.0023 -0.02252,-0.0041 -0.03244,-0.0055 -0.0122,-0.0018 -0.0241,-0.0033 -0.03544,-0.0045 -0.0014,-1.68e-4 -0.0024,-8.09e-4 -0.0024,-0.0015 0,-6.6e-4 9.94e-4,-0.0013 0.0024,-0.0015 0.0266,-0.0033 0.05482,-0.005 0.08395,-0.0046 0.02594,1.12e-4 0.05328,0.0013 0.08601,0.0037 0.02458,0.0019 0.04932,0.0042 0.07462,0.0067 0.03346,0.0032 0.06807,0.0064 0.102887,0.0085 0.0198,0.0012 0.0375,0.0018 0.05404,0.0019 0.018,1.5e-4 0.03486,-2.31e-4 0.0514,-0.0012 0.0136,-8.4e-4 0.0253,-0.0019 0.0355,-0.0031 0.0106,-0.0013 0.02106,-0.003 0.03212,-0.005 0.0134,-0.0025 0.0286,-0.0058 0.04498,-0.0099 0.0078,-0.0019 0.0158,-0.0039 0.02356,-0.0058 l 0.019,-0.0048 c 0.0134,-0.0034 0.02928,-0.0072 0.04538,-0.0105 0.0164,-0.0033 0.03196,-0.0058 0.04746,-0.0076 0.0174,-0.0021 0.03558,-0.0036 0.05372,-0.0043 0.0164,-7.8e-4 0.03368,-0.0012 0.05258,-0.0013 0.015,-7.5e-5 0.0299,3.8e-5 0.04488,1.5e-4 l 0.005,3.8e-5 0.0074,5.5e-5 c 0.0122,9.5e-5 0.02446,1.88e-4 0.03672,1.88e-4 1.6e-5,-6e-6 2.96e-4,-1.31e-4 2.96e-4,-1.5e-4"
       style="fill:#f8a04d;fill-opacity:1;fill-rule:nonzero;stroke:none;stroke-width:0.000991152"
       id="path62" />
  </g>
</svg>
