<svg xmlns="http://www.w3.org/2000/svg" width="19.999" height="3" viewBox="0 0 5.291 0.794"><path d="M32.646 89.99v.001M32.042 90.557a.675.675 0 0 1 .083.017.324.324 0 0 0-.086-.042.567.567 0 0 0-.117-.028 1.445 1.445 0 0 0-.093-.01c-.034-.004-.07-.007-.102-.013a.156.156 0 0 1-.056-.018.078.078 0 0 1-.011-.009.038.038 0 0 1-.008-.013.046.046 0 0 1 0-.02.042.042 0 0 1 .006-.011.053.053 0 0 1 .023-.013l.018-.004a.4.4 0 0 1 .101-.004 1.144 1.144 0 0 1 .236.042c.033.012.065.026.091.038l.01.004a1.466 1.466 0 0 0 .129.05.565.565 0 0 0 .115.022l.028.002h.003a.744.744 0 0 0 .258-.03.177.177 0 0 0 .036-.017l.013-.01a.055.055 0 0 0 .01-.014.036.036 0 0 0 .004-.015c0-.004-.001-.008-.003-.011a.428.428 0 0 0-.02-.023l-.003-.005-.006-.007a.043.043 0 0 1-.006-.01V90.4c0-.002.002-.003.003-.005a.047.047 0 0 1 .016-.01.203.203 0 0 1 .034-.005h.048a1.1 1.1 0 0 1 .182.027l.037.007c.05.01.103.02.157.027a1.139 1.139 0 0 0 .208.008 1.08 1.08 0 0 0 .189-.032l.052-.013.015-.004.015-.003a1.553 1.553 0 0 1 .128-.026.831.831 0 0 1 .196-.001c.017.001.034.004.048.006l.091.015.009.001.014.003h.002a2.27 2.27 0 0 0 .182.024.849.849 0 0 0 .092 0l.035-.004c.036-.003.072-.007.107-.013l.098-.016.052-.007a1.021 1.021 0 0 1 .128-.006h.006a.537.537 0 0 0-.085-.012 1.261 1.261 0 0 0-.157-.003h-.007c-.047 0-.095.002-.143-.001h.003a.947.947 0 0 1-.162-.027 1.081 1.081 0 0 1-.06-.02l-.036-.012a1.813 1.813 0 0 0-.114-.037.768.768 0 0 0-.29-.022 1.8 1.8 0 0 0-.096.011l-.036.006-.061.008-.037.005a.736.736 0 0 0 .04-.018h.002l.009-.005a.832.832 0 0 1 .09-.039l.024-.007a.525.525 0 0 1 .087-.013.855.855 0 0 1 .072 0c.05.003.098.01.134.017l.04.008.075.014.02.003.01.002.088.014.05.011a1.366 1.366 0 0 0 .359.077.872.872 0 0 0 .256-.016l.025-.005a1.86 1.86 0 0 1 .085-.02l.033-.007a1.247 1.247 0 0 1 .23-.023h.062a2.109 2.109 0 0 1 .105.002 4.637 4.637 0 0 1-.166-.027l-.05-.01a1.497 1.497 0 0 0-.192-.031.971.971 0 0 0-.252.01c-.033.006-.064.014-.093.022a1.545 1.545 0 0 1-.094.021h-.002a.724.724 0 0 1-.085.011h.002a.783.783 0 0 1-.2-.014l-.017-.002-.003-.001H34.3l-.017-.005-.033-.009-.008-.002a.557.557 0 0 1-.094-.044l-.033-.02a.881.881 0 0 0-.094-.05.482.482 0 0 0-.126-.036.752.752 0 0 0-.055-.007l-.047-.003h-.057c-.036 0-.071.002-.106.003h-.017a5.252 5.252 0 0 1-.097.005 1.346 1.346 0 0 1-.188-.01.374.374 0 0 1-.046-.012.93.93 0 0 1-.115-.05l-.003-.001a.852.852 0 0 0-.184-.07.372.372 0 0 0-.115-.003.236.236 0 0 0-.048.013l-.02.009a.212.212 0 0 0-.038.025.112.112 0 0 0-.035.051c-.004.013-.006.026-.008.038l-.003.016a.092.092 0 0 1-.022.049.118.118 0 0 1-.048.027.712.712 0 0 1-.18.02.822.822 0 0 1-.079-.01.48.48 0 0 1-.09-.028.088.088 0 0 1-.017-.012.037.037 0 0 1-.005-.01.024.024 0 0 1 0-.008.034.034 0 0 1 .006-.01.064.064 0 0 1 .011-.01.147.147 0 0 1 .033-.017.906.906 0 0 1 .182-.03.492.492 0 0 0 .127-.034.058.058 0 0 0 .01-.01V90h.001a.02.02 0 0 0 .004-.008v-.006a.034.034 0 0 0-.001-.004l-.003-.004a.04.04 0 0 0-.006-.005l-.003-.002-.01.009a.123.123 0 0 1-.058.025.268.268 0 0 1-.013.002l-.018.002a.488.488 0 0 1-.1-.009 1.13 1.13 0 0 1-.107-.029l-.01-.003a.608.608 0 0 0-.191-.039.603.603 0 0 0-.147.013l-.051.01h-.002l-.019.004a1.467 1.467 0 0 1-.152.02 1.36 1.36 0 0 1-.349-.025 4.78 4.78 0 0 1-.096-.016l-.022-.004h-.002l-.068-.013a2.09 2.09 0 0 0-.461-.022 1.281 1.281 0 0 0-.262.051.74.74 0 0 0-.11.046.491.491 0 0 0-.16.131.25.25 0 0 0-.06.148v.004a.177.177 0 0 0 .034.103.263.263 0 0 0 .067.067.643.643 0 0 0 .27.103.986.986 0 0 0 .18.012 1.34 1.34 0 0 0 .282-.03l.01-.003.091-.016a1.07 1.07 0 0 1 .183-.01.63.63 0 0 1 .037.003l.039.005.065.011.029.006h.005l.004.002.055.01a1.231 1.231 0 0 0 .127.014h.053l.033-.002c.01 0 .02 0 .03-.002a3.534 3.534 0 0 1 .173-.001c.037.001.075.004.11.01" style="fill:#f14c2b;fill-opacity:1;fill-rule:nonzero;stroke:none;stroke-width:.000991152" transform="translate(-30.163 -89.885)"/><path d="M34.554 90.112a.306.306 0 0 0-.085.012l-.041.013a.472.472 0 0 1-.084.023.334.334 0 0 1-.033.001h-.003a.22.22 0 0 0-.01 0l.024.006a1.212 1.212 0 0 0 .045.01.264.264 0 0 0 .042.003.342.342 0 0 0 .038-.001h.001a.257.257 0 0 0 .025-.005l.01-.002a.112.112 0 0 0 .02-.009l.011-.006a.29.29 0 0 0 .02-.015l.019-.014a.093.093 0 0 1 .025-.012l.006-.002a.326.326 0 0 0-.03-.001M32.806 90.65a.367.367 0 0 0-.016-.003h.001a.4.4 0 0 0-.062-.007c-.023-.002-.048-.002-.072-.003a1.615 1.615 0 0 1-.036-.002l-.017-.002a.46.46 0 0 1-.077-.018.659.659 0 0 0-.065-.015.632.632 0 0 0-.077-.01.622.622 0 0 0-.054 0c-.019 0-.038 0-.057.002l-.058.001h-.013a.6.6 0 0 1 .089.016.229.229 0 0 1 .023.01l.02.01.01.006.018.01a.256.256 0 0 0 .098.031l.026.002a.515.515 0 0 0 .106-.004 2.08 2.08 0 0 0 .07-.009l.038-.005a1.243 1.243 0 0 1 .105-.01M33.45 89.912a.257.257 0 0 0-.052-.018.428.428 0 0 0-.174-.001.323.323 0 0 0-.066.018.394.394 0 0 1 .064.002l.077.01.04.005a.26.26 0 0 0 .07.001.348.348 0 0 0 .03-.005l.023-.005a.144.144 0 0 0-.012-.007M32.837 90.577a.012.012 0 0 0-.004-.005.026.026 0 0 0-.009-.004.11.11 0 0 0-.024-.002.262.262 0 0 0-.064.009.712.712 0 0 0-.036.011h-.001l-.024.009h.001l.025.004a.796.796 0 0 0 .074.002.28.28 0 0 0 .046-.006.044.044 0 0 0 .01-.005.012.012 0 0 0 .005-.005l.001-.004v-.004M32.7 90.586" style="fill:#f14c2b;fill-opacity:1;fill-rule:nonzero;stroke:none;stroke-width:.000991152" transform="translate(-30.163 -89.885)"/><path d="M30.603 90.527a1.472 1.472 0 0 0 .309-.046l.024-.005h.004l.007-.002.053-.012a1.379 1.379 0 0 1 .241-.025 1.327 1.327 0 0 1 .137.005c.056.004.112.01.166.016h.003l.024.003a.402.402 0 0 1-.016-.015.093.093 0 0 1-.013-.02.056.056 0 0 1-.006-.015l-.001-.008a.03.03 0 0 1 0-.007.035.035 0 0 1 .006-.013.06.06 0 0 1 .01-.011.168.168 0 0 1 .036-.02.318.318 0 0 1 .098-.02.855.855 0 0 1 .35.041l.064.022.01.003.02.007a2.435 2.435 0 0 0 .153.046l.024.006.024.005a.666.666 0 0 0 .128.01.38.38 0 0 0 .022-.002l.011-.002a.295.295 0 0 0 .028-.006l.01-.003.007-.002.008-.003a.132.132 0 0 0 .01-.004l.008-.004.003-.002a.09.09 0 0 0 .017-.013l.002-.002a.069.069 0 0 0 .014-.024v-.003h.001v-.003l.003-.006.004-.009.006-.01a.109.109 0 0 1 .03-.025l.004-.002.007-.003.007-.003a.104.104 0 0 1 .008-.003l.005-.002.008-.002a.273.273 0 0 1 .031-.007l.019-.002.015-.001.02-.001a.553.553 0 0 1 .1.005 1.263 1.263 0 0 1 .137.02l.066.013.02.003a6.871 6.871 0 0 0 .157.025l.03.003.022.002a1.046 1.046 0 0 0 .09 0h.01a.696.696 0 0 0 .118-.014 3.17 3.17 0 0 0 .148-.03l.014-.003.093-.02.052-.01a1.3 1.3 0 0 1 .144-.017h.006v-.001a.908.908 0 0 0-.031-.005l-.019-.002a.795.795 0 0 0-.216.011l-.026.004-.032.004h-.002a2.907 2.907 0 0 1-.051.007l-.06.006a2.07 2.07 0 0 1-.286 0 1.661 1.661 0 0 1-.224-.029l-.053-.012-.03-.007-.023-.006-.001-.002h.003a2.954 2.954 0 0 0 .14-.002.79.79 0 0 0 .042-.004c.008 0 .016-.002.023-.003l.019-.003a.595.595 0 0 0 .098-.026 1.171 1.171 0 0 1 .121-.033l.025-.005a2.162 2.162 0 0 1 .099-.015l.034-.004-.093-.002-.044-.001a3.254 3.254 0 0 1-.118-.006.716.716 0 0 1-.07-.01c-.01-.002-.023-.004-.035-.008a.472.472 0 0 1-.024-.007l-.024-.01-.029-.011-.005-.003-.015-.006a.816.816 0 0 0-.088-.03.152.152 0 0 0-.049 0 .126.126 0 0 0-.009.001l-.006.002h-.001l-.002.001-.008.004a.05.05 0 0 0-.006.003l-.003.001a.127.127 0 0 0-.026.02l-.005.005-.001.002h-.001a.302.302 0 0 0-.024.032l-.004.006v.001h-.001a.37.37 0 0 1-.031.04.14.14 0 0 1-.026.017.218.218 0 0 1-.022.01l-.02.008a.58.58 0 0 1-.029.008h-.002l-.002.001a.577.577 0 0 1-.137.02.807.807 0 0 1-.117-.002 1.029 1.029 0 0 1-.27-.054.778.778 0 0 1-.067-.031l-.003-.002-.007-.003-.019-.01-.025-.012-.014-.006a.382.382 0 0 0-.01-.003l-.004-.002a.397.397 0 0 0-.025-.008l-.025-.006-.027-.006a.284.284 0 0 1-.044-.017.024.024 0 0 1-.005-.005.012.012 0 0 1-.002-.004l.001-.005a.03.03 0 0 1 .006-.007.044.044 0 0 1 .01-.006.21.21 0 0 1 .034-.01h.018a1.492 1.492 0 0 1 .057-.003h.062-.001a.546.546 0 0 0 .088-.012.122.122 0 0 0 .017-.007l.014-.007a.421.421 0 0 0 .013-.007l-.032.002-.027.002h-.001a1.149 1.149 0 0 1-.087.001l-.032-.002-.012-.001a2.427 2.427 0 0 0-.128-.006h-.045l-.043.003h-.002l-.043.003-.054.003a2.055 2.055 0 0 1-.297-.002 1.481 1.481 0 0 1-.17-.027h.004l-.058-.01c-.062-.013-.126-.025-.192-.034a1.578 1.578 0 0 0-.107-.012l-.03-.003-.022-.002a2.28 2.28 0 0 0-.098-.003 1.618 1.618 0 0 0-.193.015 1.36 1.36 0 0 0-.116.023l-.035.01-.014.007a.492.492 0 0 0-.16.131.25.25 0 0 0-.06.147v.005a.182.182 0 0 0 .034.103.263.263 0 0 0 .067.067.46.46 0 0 0 .116.062h.005a.71.71 0 0 0 .121.018h.004a1.082 1.082 0 0 0 .092.001M32.166 90.052h.001-.002" style="fill:#f3672c;fill-opacity:1;fill-rule:nonzero;stroke:none;stroke-width:.000991152" transform="translate(-30.163 -89.885)"/><path d="M31.855 90.199" style="fill:#fbc831;fill-opacity:1;fill-rule:nonzero;stroke:none;stroke-width:.000991152" transform="translate(-30.163 -89.885)"/><path d="m32.52 90.309-.009-.002a.42.42 0 0 0-.032-.005l-.015-.001a.525.525 0 0 0-.06-.003h-.045l-.031.001a2.964 2.964 0 0 1-.14-.001.642.642 0 0 1-.207-.05 2.746 2.746 0 0 1-.052-.02l-.01-.005a1.57 1.57 0 0 0-.12-.04 1.099 1.099 0 0 0-.115-.022l-.031-.005-.01-.002-.021-.003a2.047 2.047 0 0 1-.063-.01l-.021-.005-.015-.003a.568.568 0 0 1-.066-.019l-.008-.005-.001-.001v-.002l-.001-.002.001-.004a.013.013 0 0 1 .003-.002l.005-.003.003-.001a.076.076 0 0 0-.008-.002l-.007-.001a.542.542 0 0 0-.048-.007h-.011l-.044-.002h-.046a1.163 1.163 0 0 1-.156-.01.905.905 0 0 1-.127-.03l-.029-.008-.01-.002-.022-.007a1.672 1.672 0 0 0-.125-.03.847.847 0 0 0-.278-.006l-.03.004a1.004 1.004 0 0 0-.149.037.788.788 0 0 0-.07.027l-.027.013a.45.45 0 0 0-.05.054.25.25 0 0 0-.059.147v.005a.18.18 0 0 0 .034.103.293.293 0 0 0 .067.067.43.43 0 0 0 .04.025l.028.008.019.004.016.004a.487.487 0 0 0 .073.009.781.781 0 0 0 .11-.001 1.246 1.246 0 0 0 .203-.03.682.682 0 0 0 .108-.037l.006-.003.004-.001a1.988 1.988 0 0 1 .117-.04.59.59 0 0 1 .197-.02 1.345 1.345 0 0 1 .165.017l.048.008.003.001.036.006.002-.002a.135.135 0 0 1 .001-.002v-.004c0-.001 0-.002-.002-.003a.144.144 0 0 0-.022-.02h-.001l-.009-.007-.006-.006a.012.012 0 0 1-.002-.002l-.002-.003a.03.03 0 0 1 0-.008v-.002c0-.004 0-.007.002-.01a.033.033 0 0 1 .006-.008.055.055 0 0 1 .012-.009.35.35 0 0 1 .05-.02l.024-.007a.845.845 0 0 1 .07-.011.77.77 0 0 1 .18.002 1.442 1.442 0 0 1 .175.029h.002l.03.007a.751.751 0 0 1 .027.007l.039.011.005.002.02.005a1.526 1.526 0 0 0 .198.044.558.558 0 0 0 .076 0l.014-.002.018-.004a.185.185 0 0 0 .038-.014l.019-.008.011-.006a.413.413 0 0 1 .078-.03l.012-.003a.23.23 0 0 1 .018-.003M32.434 90.452a.356.356 0 0 0 .077-.017.126.126 0 0 0 .035-.019.085.085 0 0 0 .025-.036.038.038 0 0 0 .003-.011c0-.002 0-.005-.002-.007a.014.014 0 0 0-.005-.006.044.044 0 0 0-.01-.003.069.069 0 0 0-.023-.001.103.103 0 0 0-.023.005.268.268 0 0 0-.024.01l-.032.018-.016.009a.462.462 0 0 1-.034.015.796.796 0 0 1-.028.002h-.01a.227.227 0 0 0-.03.005.034.034 0 0 0-.008.002c-.005.003-.008.006-.008.01.001.004.004.007.01.01a.116.116 0 0 0 .044.013.233.233 0 0 0 .058 0M33.076 90.152a.016.016 0 0 0 .004-.002.006.006 0 0 0 .002-.003v-.001c0-.002 0-.003-.002-.005a.03.03 0 0 0-.007-.006l-.01-.007a.234.234 0 0 0-.051-.02.122.122 0 0 0-.046 0l-.013.001-.01.003-.006.002a.065.065 0 0 0-.005.003h-.002a.075.075 0 0 0-.015.008.027.027 0 0 0-.01.009.014.014 0 0 0-.001.007v.004l.002.002h.006a.44.44 0 0 0 .022-.004h.003l.014-.004a.112.112 0 0 1 .023-.002c.007 0 .013.002.02.003l.012.003.006.002a.497.497 0 0 0 .051.01c.005 0 .01-.001.013-.003" style="fill:#f68c2f;fill-opacity:1;fill-rule:nonzero;stroke:none;stroke-width:.000991152" transform="translate(-30.163 -89.885)"/><path d="M30.33 90.371h.001" style="fill:#fefefe;fill-opacity:1;fill-rule:nonzero;stroke:none;stroke-width:.000991152" transform="translate(-30.163 -89.885)"/><path d="m31.45 90.233-.011-.002a1.032 1.032 0 0 0-.168-.018 7.998 7.998 0 0 0-.05-.003h-.01l-.03-.002h-.006a1.06 1.06 0 0 1-.073-.008.764.764 0 0 1-.042-.009c-.022-.005-.044-.012-.065-.018l-.017-.005a1.512 1.512 0 0 0-.087-.022 1.899 1.899 0 0 0-.046-.005h-.025l-.042-.004a.687.687 0 0 1-.078-.012c-.005-.002-.008-.004-.008-.006v-.003c0-.002.001-.005.004-.007a.053.053 0 0 1 .018-.009.48.48 0 0 1 .063-.011 1.293 1.293 0 0 1 .105-.007 4.353 4.353 0 0 0-.369-.02h-.019a.635.635 0 0 0-.247.047l-.02.01-.001.001-.004.004a.25.25 0 0 0-.059.148v.004a.18.18 0 0 0 .034.104.255.255 0 0 0 .067.066l.007.005a.387.387 0 0 0 .114.013h.035l.077-.008.01-.001.06-.007a.55.55 0 0 0-.081-.026l-.027-.005-.032-.007-.028-.007a.44.44 0 0 1-.077-.03v-.002h.005a3.822 3.822 0 0 0 .049.011.58.58 0 0 0 .203.003 1.141 1.141 0 0 0 .152-.03l.013-.002.02-.005a1.86 1.86 0 0 1 .108-.02.844.844 0 0 1-.185-.028l-.005-.001a1.74 1.74 0 0 0-.134-.028 1.235 1.235 0 0 1 .245.006 2.94 2.94 0 0 0 .157.01.764.764 0 0 0 .119-.009.765.765 0 0 0 .045-.01l.023-.005.02-.005a1.023 1.023 0 0 1 .092-.018.666.666 0 0 1 .106-.006H31.413a4.716 4.716 0 0 0 .037 0" style="fill:#f8a04d;fill-opacity:1;fill-rule:nonzero;stroke:none;stroke-width:.000991152" transform="translate(-30.163 -89.885)"/></svg>