<svg xmlns="http://www.w3.org/2000/svg" width="400" height="400"><defs><clipPath id="a" clipPathUnits="userSpaceOnUse"><path d="M961.871 2402.97c0-843.25 683.589-1526.841 1526.839-1526.841 843.25 0 1526.84 683.591 1526.84 1526.841 0 843.25-683.59 1526.83-1526.84 1526.83-843.25 0-1526.839-683.58-1526.839-1526.83"/></clipPath></defs><path d="M961.871 2429.819c0-828.422 671.573-1499.993 1500-1499.993 828.426 0 1500 671.57 1500 1499.993 0 828.422-671.573 1499.981-1500 1499.981s-1500-671.56-1500-1499.981" style="fill:#6bcfe9;fill-opacity:1;fill-rule:nonzero;stroke:none;stroke-width:.982419" transform="matrix(.13333 0 0 -.13333 -128.25 523.973)"/><path d="M3035.025 3371.248c-29.01 130.75-322.892 64.525-384.913-3.37-56.626-61.99-35.966-138.442-35.829-214.628.167-89.174-34.453-190.225-80.568-266.48-58.533-96.808-261.137-129.532-214.924-285.589 10.03-33.903 60.576-89.272 90.49-111.68 29.218-21.889 60.449-24.09 93.213-36.812 39.13-15.178 56.007-41.91 85.932-69.614 28.333-26.23 54.574-43.491 75.077-76.982 24.963-40.78 39.021-86.236 67.168-125.405 34.208-47.588 122.704-126.162 188.193-116.603 150.654 22.006 41.654 207.79 27.655 287.651-24.296 138.6 117.212 253.228 152.147 379.694 10.807 39.12 15.13 74.467 11.436 116.25-2.466 27.89-18.637 66.302-12.634 94.007 5.256 24.255 30.376 47.352 39.493 71.52 15.739 41.732 21.378 87.857 23.372 131.997 2.849 62.953-43.187 248.905-143.217 208.144l17.91 17.9M3183.577 2128.905c95.845-72.561 208.637-47.893 308.166-91.355 48.758-21.299 69.487-65.41 63.848-118.234-2.515-23.568-27.488-50.516-29.954-73.494-3.075-28.648 7.24-55.595 11.435-83.692 16.907-113.076-72.434-213.47-125.72-312.742-78.614-146.469-227.51-184.89-359.095-265.42-87.966-53.836-301.741-230.817-359.724-76.756-58.356 155.065 161.039 263.808 242.167 381.64 87.25 126.73 24.973 243.275 67.1 376.618 18.538 58.63 144.12 177.965 207.978 178.289l-26.2 85.146M1140.14 2810.043c1.444 34.866 31.074 137.518 83.84 116.897 44.514-17.398 40.682-145.161 40.604-180.911-.276-118.283 30.543-201.504 119.708-274.762 81.698-67.119 194.961-168.426 206.289-283.417 18.165-184.459-216.546-219.246-350.568-189.911-233.148 51.027-244.06 286.806-216.3 478.102 11.78 81.197 39.032 152.982 70.587 229.188 23.893 57.727 31.693 141.468 65.489 189.96l-19.649-85.146" style="fill:#7dd4e8;fill-opacity:1;fill-rule:nonzero;stroke:none;stroke-width:.982419" transform="matrix(.13333 0 0 -.13333 -128.25 523.973)"/><path d="M1926.078 2122.352c-86.326 84.213-216.87-56.99-268.545-116.279-42.746-49.042-90.118-89.999-156.834-93.3-22.046-1.09-39.886-.049-56.028.993-37.145 2.387-65.213 4.784-114.59-18.824-49.297-23.568-118.784-39.522-111.494-106.611 4.43-40.78 67.58-105.246 98.419-129.551 58.07-45.79 93.83-65.596 130.966-132.43 34.464-62.02 57.275-127.321 111.338-176.982 54.996-50.516 109.923-51.233 170.264-79.92 62.157-29.56 68.74-97.887 117.94-142.587 43.285-39.336 127.282-72.306 183.692-41.114 58.209 32.174 52.756 101.464 52.059 159.141-.865 71.687-20.572 114.972-50.772 178.132-24.874 52.019-22.743 99.135-42.244 149.18-42.42 108.87-175.608 167.875-121.496 301.277 18.43 45.427 59.24 79.752 78.77 124.432 21.24 48.6 12.743 146.636-60.742 144.091l39.297-19.648M3288.146 3629.034c-19.54 18.911-69.82 17.516-90.707-6.936-29.944-35.073 5.806-56.42 7.457-87.917 2.053-39.287-97.673-128.824 4.254-120.07 32.459 2.79 46.822 31.515 73.367 45.495 20.287 10.679 71.825 8.311 84.89 22.33 42 45.054-35.858 139.18-90.559 130.141" style="fill:#7dd4e8;fill-opacity:1;fill-rule:nonzero;stroke:none;stroke-width:.982419" transform="matrix(.13333 0 0 -.13333 -128.25 523.973)"/><g clip-path="url(#a)" transform="matrix(.13099 0 0 -.13099 -125.995 514.76)"><path d="M2021.32 2518.52c-2.46 10.22 45.25 17.51 60.58 18.24 15.32.73 35.76-2.92 41.6-9.12 5.84-6.2 14.59-19.34 24.08-25.18 9.49-5.84 4.38-10.21 18.98-13.13 14.59-2.92 19.7 2.19 18.24-7.3-1.46-9.49-18.24-15.33-25.54-14.6-7.3.73-23.36 4.38-30.65 10.22-7.3 5.84-37.22 27-46.71 28.46-9.49 1.46-59.34 7.29-60.58 12.41M2318.36 2437.51c.45-5.14-16.79-7.3-26.28-8.76-9.48-1.46-42.32-5.84-46.7-9.49-4.38-3.65-21.17-13.13-27.74-10.94-6.56 2.19-16.05 11.35-16.78 14.43-.73 3.08 2.19 22.06 5.84 27.9 3.65 5.83 8.75 12.4 16.78 11.67 8.03-.73 17.52-4.26 23.36.06 5.84 4.32 11.67 7.85 17.51 4.99 5.84-2.86 52.55-13.07 54.01-29.86" style="fill:#65c54b;fill-opacity:1;fill-rule:nonzero;stroke:none"/><path d="M1558.73 3680.63c47.21-6.29 98.43-19.05 127-31.75 14.97-6.65 37.78-3.72 63.86-.79 23.72 2.66 50.14 5.33 75.85.79 53.97-9.52 73.02 3.18 98.42-22.23 25.4-25.4 57.15-38.1 69.85-31.75 12.7 6.35 25.4 28.58 34.93 15.88 9.52-12.7 3.17-82.55-44.45-104.78-47.63-22.22-85.73-25.4-85.73-63.5s25.4-41.27 50.8-53.97c25.4-12.7 41.28-41.28 69.85-47.63 28.58-6.35 63.5 9.53 82.55-38.1 19.05-47.62 57.15-60.32 50.8-31.75-6.35 28.58-15.87 47.63 22.23 76.2 38.1 28.58 22.22 50.8 0 79.38-22.23 28.57-22.23 57.15 3.17 69.85 25.4 12.7 98.43 22.22 107.96 0 9.52-22.23 31.75-66.68 63.5-73.03 15.7-3.14 23.85 9.7 30.66 22.54 6.96 13.12 12.52 26.24 23.31 22.3 22.87-8.37 15.2-60.17 22.87-77.44 7.68-17.27 67.16-23.03 80.59-49.89 13.43-26.87 9.6-64.51 13.43-85.02 3.84-20.52 5.76-35.87 0-49.3-5.75-13.43-1.91-32.62 23.03-40.29 24.95-7.68 23.03-21.11 0-28.79-23.03-7.67-61.4-1.91-63.32 21.11-1.92 23.03-17.27 42.21-38.38 42.21-21.1 0-94.02-1.91-101.69-15.35-7.68-13.43-5.76-24.94 19.18-24.94 24.95 0 30.7-23.68 23.03-26.23-7.68-2.55-19.19-17.9-9.59-21.74 4.31-1.73 22.06 3.54 41.44 8.81 23.7 6.43 49.85 12.87 56.94 6.54 12.91-11.51-4.36-40.3-31.23-51.81-26.86-11.51-72.91-57.56-90.18-46.05-17.27 11.51 44.13 47.97 21.11 46.05-23.03-1.92-92.11-30.53-95.94-47.88-3.84-17.36 30.7-42.3 13.43-55.73-17.27-13.44-65.24 3.83-71-19.19-5.76-23.03 9.59-71-30.7-111.3-40.3-40.29-103.62-69.07-103.62-101.69 0-32.62 19.19-76.76 19.19-94.02 0-17.27-7.67-49.89-19.19-51.81-11.51-1.92-15.35 11.51-30.7 15.35-15.35 3.83-17.27 30.7-26.86 51.81-9.6 21.1 1.92 55.64-36.46 57.56-38.37 1.92-59.48 1.92-65.24-9.59-5.76-11.52 11.51-28.79-15.35-28.79s-42.21 13.44-57.56-1.91c-15.35-15.36-53.73-32.62-61.41-53.73-7.67-21.11-21.1-65.24-1.91-105.54 19.18-40.29 3.83-32.62 9.59-46.05s47.97-34.54 65.24-40.29c17.27-5.76 47.97 19.18 42.21 42.21-5.75 23.03 30.7 36.46 44.14 36.46 13.43 0 23.02-21.11 21.1-32.62-1.92-11.52-28.78-61.4-30.7-82.51-1.92-21.11 21.11-26.87 57.57-38.38 36.45-11.51 34.54-15.35 34.54-46.05 0-30.7-9-86.35 29.08-84.43 19.04.96 39.11-2.88 56.34-6.71 17.23-3.84 31.62-7.68 39.3-6.72 15.35 1.92 46.05 61.4 63.32 57.57 17.27-3.84 3.84-42.22 24.94-44.14 8.35-.76 19.99 3.58 33.87 7.92 21.22 6.64 47.66 13.28 75.51 1.68 46.05-19.19 92.1-23.03 105.53-42.22 13.43-19.19 24.95-55.64 46.05-65.24 21.11-9.59 78.68-1.92 103.62-21.1 24.95-19.19 30.7-86.35 76.75-105.54 46.06-19.19 103.62-32.62 140.08-46.05 36.45-13.43 107.45-26.87 101.69-80.59-5.75-53.73-15.35-82.51-40.29-111.29-24.95-28.79-24.95-40.3 0-107.46 24.94-67.16 5.76-95.94-11.51-115.13-17.27-19.19-63.32-55.64-105.54-65.24-42.21-9.59-59.48-23.02-71-38.37-11.51-15.35-23.02-61.41-11.51-86.35 11.51-24.95 13.43-40.3 1.92-53.73s-38.38-32.62-65.24-36.45c-26.86-3.84-51.81-23.03-55.64-44.14-3.84-21.1-11.52-63.32-51.81-82.51-40.3-19.19-67.16-15.35-76.76-30.7-9.59-15.35-19.18-57.56-5.75-76.75 13.43-19.19 17.27-46.05 0-59.479-17.27-13.442-34.54-24.949-34.54-42.219 0-17.273-3.84-36.461-17.27-38.371-13.43-1.922-65.24-61.41-88.27-57.57-23.02 3.839-28.78 36.461-21.1 51.808 7.67 15.352 15.35 32.621 9.59 55.641-5.75 23.031-9.59 38.379-13.43 57.57-3.84 19.19-7.68 23.02-5.76 53.73 1.92 30.7 9.6 63.32 15.35 95.94 5.76 32.62 7.68 94.02 5.76 140.07s5.76 47.97 7.67 90.19c1.92 42.21 3.84 99.77 3.84 132.39 0 32.62 13.43 63.33-13.43 80.6-26.86 17.26-111.29 21.1-166.94 88.26-55.64 67.16-94.02 69.08-86.34 143.91 7.67 74.84 32.62 84.43 46.05 113.21 13.43 28.78 28.78 80.59 28.78 111.29 0 30.7 17.27 46.06 15.35 61.41-1.92 15.35-23.02 63.32-40.29 82.51-17.27 19.18-46.06 30.7-71 34.53-24.95 3.84-51.81 38.38-76.75 74.84-24.95 36.46-47.97 36.46-72.92 36.46-24.94 0-44.13 30.7-72.91 38.37-28.79 7.68-65.24 19.19-97.86 34.54-32.62 15.35-47.97 26.87-71 69.08-23.03 42.21-36.46 130.48-47.97 151.59-11.51 21.1-32.62 103.61-51.81 109.37-19.19 5.76-40.29 24.94-44.13 7.67-3.84-17.27 1.92-63.32 17.27-80.59 15.35-17.27 26.86-42.21 32.62-55.64 5.75-13.43 3.84-34.54-9.6-21.11-13.43 13.43-42.21 63.32-53.72 71-11.52 7.67-36.46 30.7-49.89 74.83-13.43 44.13-13.43 90.19-23.03 103.62-9.59 13.43-15.35 32.62-38.37 55.64-23.03 23.03-24.95 57.57-15.36 94.03 9.6 36.45 4.48 113.21-5.43 124.72-9.92 11.51-38.52 39.66-61.72 53.73-12.27 7.43-6.41 26.1 0 43.07 6.4 16.97 16.58 67.89 8.1 110.33-8.49 42.43 3.39 93.35-25.46 100.14-28.86 6.79-52.62 8.48-69.59 22.06-16.98 13.58-47.53 35.65-78.08 32.25-30.55-3.39-112.02 3.4-125.598-11.88-13.582-15.28-49.222-22.06-57.711-37.34-8.484-15.28-30.55-28.86-54.312-39.04-23.762-10.18-66.195-28.85-79.774-15.27-13.578 13.57-16.972 44.13-32.25 52.61-15.273 8.49-44.128 1.7-54.312 23.76-10.184 22.07-30.551 15.28-40.734 25.46-10.184 10.19 11.879 27.16 33.945 49.23 22.066 22.06 106.93 52.61 88.262 72.98-11.289 12.32-21.961 8.5-32.008 4.68-6.57-2.5-12.875-5-18.914-2.98-15.274 5.09-40.735 8.48-32.246 23.76 8.484 15.28 42.429 30.55 57.707 30.55 15.273 0 62.8-3.39 91.652 10.19 28.856 13.57 62.801 33.94 84.867 30.55 22.063-3.4 39.035-25.46 59.406-8.49 20.37 16.97 42.43 45.83 76.38 42.43 33.94-3.39 130.69 0 162.94-13.58 32.25-13.57 57.71-32.24 95.05-20.36 37.34 11.88 194.84-5.33 236.13-10.83M3926.23 3535.55c-78.58 92.46-187.22 120.19-221.89 117.88-34.67-2.31-108.64-23.11-131.75-46.23-23.12-23.11-78.59-46.22-85.53-71.65-6.93-25.43-18.49-32.36-32.36-48.54-13.86-16.18-34.67-30.05-11.55-48.54 23.11-18.49 60.09-20.8 64.72-41.61 4.62-20.8 6.93-36.98 36.98-39.29 30.05-2.31 27.74-36.98 57.78-20.8 30.05 16.18 55.48 34.67 43.92 57.78-11.55 23.12-18.49 60.1-25.42 80.9-6.94 20.81-23.12 25.43-4.63 39.3 18.5 13.87 25.43 27.73 46.23 27.73 20.8 0 25.43 18.5 34.67-6.93 9.25-25.43-9.24-41.61-4.62-64.72s-2.31-48.54 20.8-48.54c23.12 0 41.61 11.56 50.85 2.31 9.25-9.24 27.74-13.87 11.56-27.74-16.18-13.86-36.98-13.86-43.92-25.42-6.93-11.56-9.24-38.96-9.24-38.96s-8.06-30.38-43.32-35.01c-35.27-4.62-102.3-30.04-116.17-23.11-13.87 6.93 0 39.29-16.18 46.23-16.18 6.93-41.61-6.94-36.98-16.18 4.62-9.25 9.24-18.56 0-31.24-9.25-12.68-69.27-12.68-77.4-19.61-8.13-6.94-24.3-25.43-31.24-39.3-6.93-13.87-25.42-43.92-34.67-43.92s4.62-18.49 13.87-39.29c9.24-20.8 39.29-78.59 11.55-87.83-12.05-4.02-26.74-3.67-41.57-3.32-19.28.45-38.82.91-53.19-8.24-25.43-16.18-27.74-80.9-9.25-108.64 18.49-27.73 36.98-41.6 64.72-39.29 27.74 2.31 53.16 0 67.03 25.42 13.87 25.43 20.81 39.3 27.74 69.35 6.93 30.05-16.18 53.16 9.25 55.47 9.07.83 15.5-1.3 20.75-3.42 9.45-3.82 15.07-7.64 25.47 5.73 16.18 20.8 30.05 41.61 60.1 43.92 30.05 2.31-2.31-41.61 18.49-50.85 20.8-9.25 50.85-16.18 62.41-32.36 11.56-16.18 30.05-46.23 18.49-62.41-11.56-16.18-30.05-51.35-16.18-51.1 1.82.03 3.71-.02 5.65-.07 12.9-.34 27.92-.67 35.96 23.43 9.24 27.74 25.42 55.48 13.87 71.66-11.56 16.18-13.87 48.54-27.74 53.16-13.87 4.62-20.8 18.49-30.05 32.36-9.24 13.87-48.54 27.74-13.87 23.11 34.67-4.62 87.84-23.11 92.46-41.6 4.62-18.49 4.62-30.05 13.87-57.79 9.24-27.73-4.63-48.54 25.42-55.47 30.05-6.94 34.67-9.25 39.3-25.43 4.62-16.18-4.63-39.29 4.62-16.18 9.25 23.12 6.93 32.36 2.31 53.16-4.62 20.81-23.11 48.54 0 53.17 23.12 4.62 30.05 9.24 39.3 0 9.24-9.25 2.31-18.49 11.55-39.3 9.25-20.8 9.25-25.42 34.67-32.36 25.43-6.93 18.5-25.42 46.23-27.73 8.06-.67 16.51.52 24.44 1.71 19.37 2.92 35.66 5.83 35.66-18.4 0-34.16-9.25-41.1 0-64.21 9.25-23.12 0-43.92-23.11-36.99-23.12 6.94-50.86 16.18-80.9 13.87-14.14-1.08-24.19 6.02-33.51 13.12-10.49 7.99-20.06 15.98-33.53 12.31-25.42-6.94-57.78-14.27-60.09-40.65-2.31-26.38 16.18-42.56 2.31-42.56s-62.41 20.8-85.52 39.29c-23.12 18.49-53.17 16.18-69.35 27.74-16.18 11.56-46.23 34.67-41.6 43.92 4.62 9.24 36.98 25.42 20.8 39.29-16.18 13.87-48.54 13.87-76.28 4.62-27.73-9.24-41.6-20.8-71.65-39.29-30.05-18.49-60.1-36.98-69.34-30.05-9.25 6.93-2.31 20.8-20.81 16.18-18.49-4.62-32.36-13.87-39.29-23.11-6.94-9.25-42.76-46.23-42.18-67.04.57-20.8-10.98-76.27-34.1-129.44-23.11-53.16-48.54-73.96-60.09-99.39-11.56-25.42-39.3-85.52-25.43-127.13 13.87-41.6 23.11-71.65 34.67-97.07 11.56-25.43 27.74-60.1 50.85-64.72 23.12-4.63 73.97-46.23 78.59-55.48 4.62-9.24 23.12-23.11 62.41-25.42 39.29-2.32 55.47-2.32 85.52 11.55 30.05 13.87 82.96 39.3 109.67 34.67 26.71-4.62 61.38-2.29 86.8-47.37 25.43-45.08 6.94-70.51 30.05-98.25 23.12-27.73 36.98-50.85 25.43-67.03-11.56-16.18-41.61-34.67-18.49-48.54 23.11-13.86 50.85-20.8 62.4-41.6 11.56-20.81 41.61-80.9 36.99-104.02-4.63-23.11-25.43-73.96-16.18-110.95 9.24-36.98-6.94-57.78 9.24-83.21 16.18-25.42 43.92-64.72 60.1-83.21 16.18-18.49 55.47-57.78 48.54-80.9-6.93-23.11 0-64.72 20.8-90.14 20.81-25.43 60.25-60.1 79.82-67.03 19.57-6.94 14.95-25.43 31.13-25.43s30.05 25.43 57.79 36.98c27.73 11.56 71.65 23.12 87.83 60.1 16.18 36.98 18.49 55.47 18.49 78.59 0 23.11-30.05 50.85 0 73.96 30.05 23.12 48.54 48.54 57.79 67.04 9.24 18.49 20.8 64.71 20.8 101.7 0 36.98-11.56 57.78 11.56 76.27 23.11 18.5 48.54 27.74 36.98 46.23-11.56 18.5-20.8 30.05-39.29 94.77s-39.3 78.59-32.36 99.39c6.93 20.81 0 46.23 11.55 80.9 11.56 34.67 9.25 46.23 36.99 64.72 27.73 18.49 77.29 60.1 77.29 97.08 0 36.99 12.58 27.74 0 73.97-12.57 46.23-7.95 50.85-28.75 69.34-20.81 18.49-23.12 27.74-39.3 6.94-16.18-20.81-27.74-76.28-50.85-57.79-23.11 18.49-55.47 76.28-71.65 94.77-16.18 18.49 4.62 23.11-27.74 48.54-32.36 25.42-39.29 30.05-64.72 69.34-25.43 39.29-36.98 55.47-36.98 78.59 0 23.11-23.12 48.54-9.25 67.03 13.87 18.49 36.98 0 48.54-25.43 11.56-25.42 60.1-67.03 69.34-94.76 9.25-27.74 53.17-104.02 67.04-115.57 13.86-11.56 11.55-53.17 34.67-46.23 23.11 6.93 36.98 62.4 55.47 71.65 6.88 3.44 16.96 1.76 27.98.08 18.59-2.83 39.86-5.67 52.92 16.1 20.8 34.67 48.54 67.03 34.67 92.46-13.87 25.42-6.93 60.09-20.8 73.96-6.77 6.77-21.23 2.53-37.76-1.7-17.36-4.45-37-8.9-52.39-.61-30.05 16.18-87.83 57.79-85.52 92.46 2.31 34.67 83.21 159.49 62.41 210.34-20.8 50.85-161.8 330.53-217.27 349.02-55.48 18.49-115.58 67.03-108.64 124.82 6.93 57.79-55.48 113.26-55.48 113.26M3056.92 3974.81c-47.79 52.34-186.61 91.03-259.43 88.75-72.82-2.27-175.23-11.38-213.91-15.93-38.69-4.55-93.52-15.93-112.76-13.65-19.23 2.27-76.12-2.28-101.16-29.59-25.03-27.3-77.37-36.41-70.54-70.54 6.82-34.14 29.58-36.41 61.44-43.24 13.81-2.96 28.47-.36 41.39 2.24 16.9 3.39 30.82 6.79 35.98-2.24 9.11-15.93 0-54.62 9.11-65.99 9.1-11.38 45.51-25.04 56.89-43.24 11.38-18.21 43.24-15.93 52.34-45.52 9.1-29.58 11.38-145.64 22.76-166.12 11.37-20.48 2.27-43.24 13.65-59.17s84.2-63.72 104.68-63.72c20.48 0 0 56.89 22.76 86.48 22.75 29.58 88.75 47.79 136.54 61.44 47.79 13.66 75.1 35.66 113.78 58.79 38.69 23.14 93.31 36.9 86.48 72.12-6.83 35.22-18.21 35.22-11.38 51.15s18.21 11.38 31.86 43.23c13.65 31.86 31.86 43.24 13.65 86.48-18.2 43.24-34.13 68.27-34.13 68.27" style="fill:#65c54b;fill-opacity:1;fill-rule:nonzero;stroke:none"/><path d="M3344.95 3393.51c-6.93 3.21-35.28 0-36.42-6.83-1.14-6.83 4.55-14.79 7.97-18.21 3.41-3.41 12.37-18.2 10.16-23.9-2.2-5.68-5.76-33 0-39.83 5.77-6.82 17.15-17.07 18.29-27.31 1.13-10.24-2.28-30.73-4.56-42.1-2.27-11.39-7.96-23.9-1.13-33.01 6.82-9.1 13.65-9.1 20.48-6.83 6.83 2.28 4.88-1.13 10.57 10.25 5.69 11.38 17.88 22.76 22.43 31.86 4.56 9.1 9.11 14.79 7.97 23.9-1.14 9.1 1.14 13.66-7.97 22.76-9.1 9.1-9.1 10.24-12.51 20.48-3.42 10.25 5.69 13.66-4.56 22.77-10.24 9.1-5.69 13.65-15.93 12.51-10.24-1.13-12.52-12.51-13.66 4.55-1.13 17.08 24.05 21.24 17.68 31.71-5.05 8.29-11.68 13.92-18.81 17.23M3304.62 3312.11c-3.67 4.74-5.72 8.27-14.63 8.91-8.91.64-22.92-.64-25.46-8.91-2.55-8.28-5.1-14.22-11.46-17.61-6.37-3.4-12.73-2.76-15.91-13.58-3.19-10.82-8.91-17.82-7.64-25.46 1.27-7.64-8-9.55-.18-19.09 7.82-9.55 8.45-13.37 14.82-13.37 6.36 0 6.83-1.91 21.24 3.18 14.4 5.09 23.95 12.1 29.68 16.55 5.73 4.46 12.6 12.09 13.3 15.91.7 3.82 1.85 19.1 0 22.92-1.85 3.82-6.94 6.78-5.66 12.94 1.27 6.15 5.89 12.46 1.9 17.61M2145.09 3817.93c-17.44 1.62-65.82 3.13-79.92 0-14.11-3.14-29.78-18.81-40.75-26.64-10.97-7.84-28.21-6.27-28.21-20.38 0-14.1-1.57-32.91 12.54-36.04 14.1-3.14 25.02-16.81 61.88-9.19 36.85 7.62 66.63 12.75 82.3 0 15.67-12.75 29.78-14.32 43.88-36.26 14.11-21.94 43.89-32.91 50.15-56.42 6.27-23.51-25.07-42.32-12.53-59.56 12.53-17.24 57.98-12.54 70.52-31.34 12.54-18.81 17.24-43.88 34.48-48.59 17.24-4.7 43.88 4.71 48.58 21.95 4.71 17.24 0 43.88-18.8 51.71-18.81 7.84-34.48 28.21-28.21 32.92 2.54 1.9 14.1-.06 27.57-2.01 19.75-2.87 43.63-5.75 49.22 3.57 9.4 15.67-6.27 48.16-20.37 54.64-14.11 6.48-39.18 25.29-62.69 37.83-23.51 12.54-37.61 73.66-62.69 73.66s-28.21-29.78-42.32-23.51c-14.1 6.27-32.91 42.32-43.88 54.85-10.97 12.54-20.46 16.93-40.75 18.81M3152.73 3585.37c-14.45 8.08-57.34 18.85-79.97 13.2-22.62-5.66-41.48 1.92-56.56-5.64-15.08-7.56-32.05-22.64-15.08-32.07s32.05 7.54 37.71-7.54c5.65-15.09-1.89-18.86 18.85-26.4 20.74-7.54 18.85-3.77 50.91 0 32.05 3.77 50.9 5.66 56.56 22.63 5.66 16.97-.43 29.13-12.42 35.82M2021.32 2518.52c-2.46 10.22 45.25 17.51 60.58 18.24 15.32.73 35.76-2.92 41.6-9.12 5.84-6.2 14.59-19.34 24.08-25.18 9.49-5.84 4.38-10.21 18.98-13.13 14.59-2.92 19.7 2.19 18.24-7.3-1.46-9.49-18.24-15.33-25.54-14.6-7.3.73-23.36 4.38-30.65 10.22-7.3 5.84-37.22 27-46.71 28.46-9.49 1.46-59.34 7.29-60.58 12.41M2318.36 2437.51c.45-5.14-16.79-7.3-26.28-8.76-9.48-1.46-42.32-5.84-46.7-9.49-4.38-3.65-21.17-13.13-27.74-10.94-6.56 2.19-16.05 11.35-16.78 14.43-.73 3.08 2.19 22.06 5.84 27.9 3.65 5.83 8.75 12.4 16.78 11.67 8.03-.73 17.52-4.26 23.36.06 5.84 4.32 11.67 7.85 17.51 4.99 5.84-2.86 52.55-13.07 54.01-29.86" style="fill:#65c54b;fill-opacity:1;fill-rule:nonzero;stroke:none"/><path d="M1558.73 3680.63c47.21-6.29 98.43-19.05 127-31.75 14.97-6.65 37.78-3.72 63.86-.79 23.72 2.66 50.14 5.33 75.85.79 53.97-9.52 73.02 3.18 98.42-22.23 25.4-25.4 57.15-38.1 69.85-31.75 12.7 6.35 25.4 28.58 34.93 15.88 9.52-12.7 3.17-82.55-44.45-104.78-47.63-22.22-85.73-25.4-85.73-63.5s25.4-41.27 50.8-53.97c25.4-12.7 41.28-41.28 69.85-47.63 28.58-6.35 63.5 9.53 82.55-38.1 19.05-47.62 57.15-60.32 50.8-31.75-6.35 28.58-15.87 47.63 22.23 76.2 38.1 28.58 22.22 50.8 0 79.38-22.23 28.57-22.23 57.15 3.17 69.85 25.4 12.7 98.43 22.22 107.96 0 9.52-22.23 31.75-66.68 63.5-73.03 15.7-3.14 23.85 9.7 30.66 22.54 6.96 13.12 12.52 26.24 23.31 22.3 22.87-8.37 15.2-60.17 22.87-77.44 7.68-17.27 67.16-23.03 80.59-49.89 13.43-26.87 9.6-64.51 13.43-85.02 3.84-20.52 5.76-35.87 0-49.3-5.75-13.43-1.91-32.62 23.03-40.29 24.95-7.68 23.03-21.11 0-28.79-23.03-7.67-61.4-1.91-63.32 21.11-1.92 23.03-17.27 42.21-38.38 42.21-21.1 0-94.02-1.91-101.69-15.35-7.68-13.43-5.76-24.94 19.18-24.94 24.95 0 30.7-23.68 23.03-26.23-7.68-2.55-19.19-17.9-9.59-21.74 4.31-1.73 22.06 3.54 41.44 8.81 23.7 6.43 49.85 12.87 56.94 6.54 12.91-11.51-4.36-40.3-31.23-51.81-26.86-11.51-72.91-57.56-90.18-46.05-17.27 11.51 44.13 47.97 21.11 46.05-23.03-1.92-92.11-30.53-95.94-47.88-3.84-17.36 30.7-42.3 13.43-55.73-17.27-13.44-65.24 3.83-71-19.19-5.76-23.03 9.59-71-30.7-111.3-40.3-40.29-103.62-69.07-103.62-101.69 0-32.62 19.19-76.76 19.19-94.02 0-17.27-7.67-49.89-19.19-51.81-11.51-1.92-15.35 11.51-30.7 15.35-15.35 3.83-17.27 30.7-26.86 51.81-9.6 21.1 1.92 55.64-36.46 57.56-38.37 1.92-59.48 1.92-65.24-9.59-5.76-11.52 11.51-28.79-15.35-28.79s-42.21 13.44-57.56-1.91c-15.35-15.36-53.73-32.62-61.41-53.73-7.67-21.11-21.1-65.24-1.91-105.54 19.18-40.29 3.83-32.62 9.59-46.05s47.97-34.54 65.24-40.29c17.27-5.76 47.97 19.18 42.21 42.21-5.75 23.03 30.7 36.46 44.14 36.46 13.43 0 23.02-21.11 21.1-32.62-1.92-11.52-28.78-61.4-30.7-82.51-1.92-21.11 21.11-26.87 57.57-38.38 36.45-11.51 34.54-15.35 34.54-46.05 0-30.7-9-86.35 29.08-84.43 19.04.96 39.11-2.88 56.34-6.71 17.23-3.84 31.62-7.68 39.3-6.72 15.35 1.92 46.05 61.4 63.32 57.57 17.27-3.84 3.84-42.22 24.94-44.14 8.35-.76 19.99 3.58 33.87 7.92 21.22 6.64 47.66 13.28 75.51 1.68 46.05-19.19 92.1-23.03 105.53-42.22 13.43-19.19 24.95-55.64 46.05-65.24 21.11-9.59 78.68-1.92 103.62-21.1 24.95-19.19 30.7-86.35 76.75-105.54 46.06-19.19 103.62-32.62 140.08-46.05 36.45-13.43 107.45-26.87 101.69-80.59-5.75-53.73-15.35-82.51-40.29-111.29-24.95-28.79-24.95-40.3 0-107.46 24.94-67.16 5.76-95.94-11.51-115.13-17.27-19.19-63.32-55.64-105.54-65.24-42.21-9.59-59.48-23.02-71-38.37-11.51-15.35-23.02-61.41-11.51-86.35 11.51-24.95 13.43-40.3 1.92-53.73s-38.38-32.62-65.24-36.45c-26.86-3.84-51.81-23.03-55.64-44.14-3.84-21.1-11.52-63.32-51.81-82.51-40.3-19.19-67.16-15.35-76.76-30.7-9.59-15.35-19.18-57.56-5.75-76.75 13.43-19.19 17.27-46.05 0-59.479-17.27-13.442-34.54-24.949-34.54-42.219 0-17.273-3.84-36.461-17.27-38.371-13.43-1.922-65.24-61.41-88.27-57.57-23.02 3.839-28.78 36.461-21.1 51.808 7.67 15.352 15.35 32.621 9.59 55.641-5.75 23.031-9.59 38.379-13.43 57.57-3.84 19.19-7.68 23.02-5.76 53.73 1.92 30.7 9.6 63.32 15.35 95.94 5.76 32.62 7.68 94.02 5.76 140.07s5.76 47.97 7.67 90.19c1.92 42.21 3.84 99.77 3.84 132.39 0 32.62 13.43 63.33-13.43 80.6-26.86 17.26-111.29 21.1-166.94 88.26-55.64 67.16-94.02 69.08-86.34 143.91 7.67 74.84 32.62 84.43 46.05 113.21 13.43 28.78 28.78 80.59 28.78 111.29 0 30.7 17.27 46.06 15.35 61.41-1.92 15.35-23.02 63.32-40.29 82.51-17.27 19.18-46.06 30.7-71 34.53-24.95 3.84-51.81 38.38-76.75 74.84-24.95 36.46-47.97 36.46-72.92 36.46-24.94 0-44.13 30.7-72.91 38.37-28.79 7.68-65.24 19.19-97.86 34.54-32.62 15.35-47.97 26.87-71 69.08-23.03 42.21-36.46 130.48-47.97 151.59-11.51 21.1-32.62 103.61-51.81 109.37-19.19 5.76-40.29 24.94-44.13 7.67-3.84-17.27 1.92-63.32 17.27-80.59 15.35-17.27 26.86-42.21 32.62-55.64 5.75-13.43 3.84-34.54-9.6-21.11-13.43 13.43-42.21 63.32-53.72 71-11.52 7.67-36.46 30.7-49.89 74.83-13.43 44.13-13.43 90.19-23.03 103.62-9.59 13.43-15.35 32.62-38.37 55.64-23.03 23.03-24.95 57.57-15.36 94.03 9.6 36.45 4.48 113.21-5.43 124.72-9.92 11.51-38.52 39.66-61.72 53.73-12.27 7.43-6.41 26.1 0 43.07 6.4 16.97 16.58 67.89 8.1 110.33-8.49 42.43 3.39 93.35-25.46 100.14-28.86 6.79-52.62 8.48-69.59 22.06-16.98 13.58-47.53 35.65-78.08 32.25-30.55-3.39-112.02 3.4-125.598-11.88-13.582-15.28-49.222-22.06-57.711-37.34-8.484-15.28-30.55-28.86-54.312-39.04-23.762-10.18-66.195-28.85-79.774-15.27-13.578 13.57-16.972 44.13-32.25 52.61-15.273 8.49-44.128 1.7-54.312 23.76-10.184 22.07-30.551 15.28-40.734 25.46-10.184 10.19 11.879 27.16 33.945 49.23 22.066 22.06 106.93 52.61 88.262 72.98-11.289 12.32-21.961 8.5-32.008 4.68-6.57-2.5-12.875-5-18.914-2.98-15.274 5.09-40.735 8.48-32.246 23.76 8.484 15.28 42.429 30.55 57.707 30.55 15.273 0 62.8-3.39 91.652 10.19 28.856 13.57 62.801 33.94 84.867 30.55 22.063-3.4 39.035-25.46 59.406-8.49 20.37 16.97 42.43 45.83 76.38 42.43 33.94-3.39 130.69 0 162.94-13.58 32.25-13.57 57.71-32.24 95.05-20.36 37.34 11.88 194.84-5.33 236.13-10.83" style="fill:#5ac246;fill-opacity:1;fill-rule:nonzero;stroke:none"/><path d="M3926.23 3535.55c-78.58 92.46-187.22 120.19-221.89 117.88-34.67-2.31-108.64-23.11-131.75-46.23-23.12-23.11-78.59-46.22-85.53-71.65-6.93-25.43-18.49-32.36-32.36-48.54-13.86-16.18-34.67-30.05-11.55-48.54 23.11-18.49 60.09-20.8 64.72-41.61 4.62-20.8 6.93-36.98 36.98-39.29 30.05-2.31 27.74-36.98 57.78-20.8 30.05 16.18 55.48 34.67 43.92 57.78-11.55 23.12-18.49 60.1-25.42 80.9-6.94 20.81-23.12 25.43-4.63 39.3 18.5 13.87 25.43 27.73 46.23 27.73 20.8 0 25.43 18.5 34.67-6.93 9.25-25.43-9.24-41.61-4.62-64.72s-2.31-48.54 20.8-48.54c23.12 0 41.61 11.56 50.85 2.31 9.25-9.24 27.74-13.87 11.56-27.74-16.18-13.86-36.98-13.86-43.92-25.42-6.93-11.56-9.24-38.96-9.24-38.96s-8.06-30.38-43.32-35.01c-35.27-4.62-102.3-30.04-116.17-23.11-13.87 6.93 0 39.29-16.18 46.23-16.18 6.93-41.61-6.94-36.98-16.18 4.62-9.25 9.24-18.56 0-31.24-9.25-12.68-69.27-12.68-77.4-19.61-8.13-6.94-24.3-25.43-31.24-39.3-6.93-13.87-25.42-43.92-34.67-43.92s4.62-18.49 13.87-39.29c9.24-20.8 39.29-78.59 11.55-87.83-12.05-4.02-26.74-3.67-41.57-3.32-19.28.45-38.82.91-53.19-8.24-25.43-16.18-27.74-80.9-9.25-108.64 18.49-27.73 36.98-41.6 64.72-39.29 27.74 2.31 53.16 0 67.03 25.42 13.87 25.43 20.81 39.3 27.74 69.35 6.93 30.05-16.18 53.16 9.25 55.47 9.07.83 15.5-1.3 20.75-3.42 9.45-3.82 15.07-7.64 25.47 5.73 16.18 20.8 30.05 41.61 60.1 43.92 30.05 2.31-2.31-41.61 18.49-50.85 20.8-9.25 50.85-16.18 62.41-32.36 11.56-16.18 30.05-46.23 18.49-62.41-11.56-16.18-30.05-51.35-16.18-51.1 1.82.03 3.71-.02 5.65-.07 12.9-.34 27.92-.67 35.96 23.43 9.24 27.74 25.42 55.48 13.87 71.66-11.56 16.18-13.87 48.54-27.74 53.16-13.87 4.62-20.8 18.49-30.05 32.36-9.24 13.87-48.54 27.74-13.87 23.11 34.67-4.62 87.84-23.11 92.46-41.6 4.62-18.49 4.62-30.05 13.87-57.79 9.24-27.73-4.63-48.54 25.42-55.47 30.05-6.94 34.67-9.25 39.3-25.43 4.62-16.18-4.63-39.29 4.62-16.18 9.25 23.12 6.93 32.36 2.31 53.16-4.62 20.81-23.11 48.54 0 53.17 23.12 4.62 30.05 9.24 39.3 0 9.24-9.25 2.31-18.49 11.55-39.3 9.25-20.8 9.25-25.42 34.67-32.36 25.43-6.93 18.5-25.42 46.23-27.73 8.06-.67 16.51.52 24.44 1.71 19.37 2.92 35.66 5.83 35.66-18.4 0-34.16-9.25-41.1 0-64.21 9.25-23.12 0-43.92-23.11-36.99-23.12 6.94-50.86 16.18-80.9 13.87-14.14-1.08-24.19 6.02-33.51 13.12-10.49 7.99-20.06 15.98-33.53 12.31-25.42-6.94-57.78-14.27-60.09-40.65-2.31-26.38 16.18-42.56 2.31-42.56s-62.41 20.8-85.52 39.29c-23.12 18.49-53.17 16.18-69.35 27.74-16.18 11.56-46.23 34.67-41.6 43.92 4.62 9.24 36.98 25.42 20.8 39.29-16.18 13.87-48.54 13.87-76.28 4.62-27.73-9.24-41.6-20.8-71.65-39.29-30.05-18.49-60.1-36.98-69.34-30.05-9.25 6.93-2.31 20.8-20.81 16.18-18.49-4.62-32.36-13.87-39.29-23.11-6.94-9.25-42.76-46.23-42.18-67.04.57-20.8-10.98-76.27-34.1-129.44-23.11-53.16-48.54-73.96-60.09-99.39-11.56-25.42-39.3-85.52-25.43-127.13 13.87-41.6 23.11-71.65 34.67-97.07 11.56-25.43 27.74-60.1 50.85-64.72 23.12-4.63 73.97-46.23 78.59-55.48 4.62-9.24 23.12-23.11 62.41-25.42 39.29-2.32 55.47-2.32 85.52 11.55 30.05 13.87 82.96 39.3 109.67 34.67 26.71-4.62 61.38-2.29 86.8-47.37 25.43-45.08 6.94-70.51 30.05-98.25 23.12-27.73 36.98-50.85 25.43-67.03-11.56-16.18-41.61-34.67-18.49-48.54 23.11-13.86 50.85-20.8 62.4-41.6 11.56-20.81 41.61-80.9 36.99-104.02-4.63-23.11-25.43-73.96-16.18-110.95 9.24-36.98-6.94-57.78 9.24-83.21 16.18-25.42 43.92-64.72 60.1-83.21 16.18-18.49 55.47-57.78 48.54-80.9-6.93-23.11 0-64.72 20.8-90.14 20.81-25.43 60.25-60.1 79.82-67.03 19.57-6.94 14.95-25.43 31.13-25.43s30.05 25.43 57.79 36.98c27.73 11.56 71.65 23.12 87.83 60.1 16.18 36.98 18.49 55.47 18.49 78.59 0 23.11-30.05 50.85 0 73.96 30.05 23.12 48.54 48.54 57.79 67.04 9.24 18.49 20.8 64.71 20.8 101.7 0 36.98-11.56 57.78 11.56 76.27 23.11 18.5 48.54 27.74 36.98 46.23-11.56 18.5-20.8 30.05-39.29 94.77s-39.3 78.59-32.36 99.39c6.93 20.81 0 46.23 11.55 80.9 11.56 34.67 9.25 46.23 36.99 64.72 27.73 18.49 77.29 60.1 77.29 97.08 0 36.99 12.58 27.74 0 73.97-12.57 46.23-7.95 50.85-28.75 69.34-20.81 18.49-23.12 27.74-39.3 6.94-16.18-20.81-27.74-76.28-50.85-57.79-23.11 18.49-55.47 76.28-71.65 94.77-16.18 18.49 4.62 23.11-27.74 48.54-32.36 25.42-39.29 30.05-64.72 69.34-25.43 39.29-36.98 55.47-36.98 78.59 0 23.11-23.12 48.54-9.25 67.03 13.87 18.49 36.98 0 48.54-25.43 11.56-25.42 60.1-67.03 69.34-94.76 9.25-27.74 53.17-104.02 67.04-115.57 13.86-11.56 11.55-53.17 34.67-46.23 23.11 6.93 36.98 62.4 55.47 71.65 6.88 3.44 16.96 1.76 27.98.08 18.59-2.83 39.86-5.67 52.92 16.1 20.8 34.67 48.54 67.03 34.67 92.46-13.87 25.42-6.93 60.09-20.8 73.96-6.77 6.77-21.23 2.53-37.76-1.7-17.36-4.45-37-8.9-52.39-.61-30.05 16.18-87.83 57.79-85.52 92.46 2.31 34.67 83.21 159.49 62.41 210.34-20.8 50.85-161.8 330.53-217.27 349.02-55.48 18.49-115.58 67.03-108.64 124.82 6.93 57.79-55.48 113.26-55.48 113.26M3056.92 3974.81c-47.79 52.34-186.61 91.03-259.43 88.75-72.82-2.27-175.23-11.38-213.91-15.93-38.69-4.55-93.52-15.93-112.76-13.65-19.23 2.27-76.12-2.28-101.16-29.59-25.03-27.3-77.37-36.41-70.54-70.54 6.82-34.14 29.58-36.41 61.44-43.24 13.81-2.96 28.47-.36 41.39 2.24 16.9 3.39 30.82 6.79 35.98-2.24 9.11-15.93 0-54.62 9.11-65.99 9.1-11.38 45.51-25.04 56.89-43.24 11.38-18.21 43.24-15.93 52.34-45.52 9.1-29.58 11.38-145.64 22.76-166.12 11.37-20.48 2.27-43.24 13.65-59.17s84.2-63.72 104.68-63.72c20.48 0 0 56.89 22.76 86.48 22.75 29.58 88.75 47.79 136.54 61.44 47.79 13.66 75.1 35.66 113.78 58.79 38.69 23.14 93.31 36.9 86.48 72.12-6.83 35.22-18.21 35.22-11.38 51.15s18.21 11.38 31.86 43.23c13.65 31.86 31.86 43.24 13.65 86.48-18.2 43.24-34.13 68.27-34.13 68.27" style="fill:#65c54b;fill-opacity:1;fill-rule:nonzero;stroke:none"/><path d="M3344.95 3393.51c-6.93 3.21-35.28 0-36.42-6.83-1.14-6.83 4.55-14.79 7.97-18.21 3.41-3.41 12.37-18.2 10.16-23.9-2.2-5.68-5.76-33 0-39.83 5.77-6.82 17.15-17.07 18.29-27.31 1.13-10.24-2.28-30.73-4.56-42.1-2.27-11.39-7.96-23.9-1.13-33.01 6.82-9.1 13.65-9.1 20.48-6.83 6.83 2.28 4.88-1.13 10.57 10.25 5.69 11.38 17.88 22.76 22.43 31.86 4.56 9.1 9.11 14.79 7.97 23.9-1.14 9.1 1.14 13.66-7.97 22.76-9.1 9.1-9.1 10.24-12.51 20.48-3.42 10.25 5.69 13.66-4.56 22.77-10.24 9.1-5.69 13.65-15.93 12.51-10.24-1.13-12.52-12.51-13.66 4.55-1.13 17.08 24.05 21.24 17.68 31.71-5.05 8.29-11.68 13.92-18.81 17.23M3304.62 3312.11c-3.67 4.74-5.72 8.27-14.63 8.91-8.91.64-22.92-.64-25.46-8.91-2.55-8.28-5.1-14.22-11.46-17.61-6.37-3.4-12.73-2.76-15.91-13.58-3.19-10.82-8.91-17.82-7.64-25.46 1.27-7.64-8-9.55-.18-19.09 7.82-9.55 8.45-13.37 14.82-13.37 6.36 0 6.83-1.91 21.24 3.18 14.4 5.09 23.95 12.1 29.68 16.55 5.73 4.46 12.6 12.09 13.3 15.91.7 3.82 1.85 19.1 0 22.92-1.85 3.82-6.94 6.78-5.66 12.94 1.27 6.15 5.89 12.46 1.9 17.61M2145.09 3817.93c-17.44 1.62-65.82 3.13-79.92 0-14.11-3.14-29.78-18.81-40.75-26.64-10.97-7.84-28.21-6.27-28.21-20.38 0-14.1-1.57-32.91 12.54-36.04 14.1-3.14 25.02-16.81 61.88-9.19 36.85 7.62 66.63 12.75 82.3 0 15.67-12.75 29.78-14.32 43.88-36.26 14.11-21.94 43.89-32.91 50.15-56.42 6.27-23.51-25.07-42.32-12.53-59.56 12.53-17.24 57.98-12.54 70.52-31.34 12.54-18.81 17.24-43.88 34.48-48.59 17.24-4.7 43.88 4.71 48.58 21.95 4.71 17.24 0 43.88-18.8 51.71-18.81 7.84-34.48 28.21-28.21 32.92 2.54 1.9 14.1-.06 27.57-2.01 19.75-2.87 43.63-5.75 49.22 3.57 9.4 15.67-6.27 48.16-20.37 54.64-14.11 6.48-39.18 25.29-62.69 37.83-23.51 12.54-37.61 73.66-62.69 73.66s-28.21-29.78-42.32-23.51c-14.1 6.27-32.91 42.32-43.88 54.85-10.97 12.54-20.46 16.93-40.75 18.81M3152.73 3585.37c-14.45 8.08-57.34 18.85-79.97 13.2-22.62-5.66-41.48 1.92-56.56-5.64-15.08-7.56-32.05-22.64-15.08-32.07s32.05 7.54 37.71-7.54c5.65-15.09-1.89-18.86 18.85-26.4 20.74-7.54 18.85-3.77 50.91 0 32.05 3.77 50.9 5.66 56.56 22.63 5.66 16.97-.43 29.13-12.42 35.82" style="fill:#65c54b;fill-opacity:1;fill-rule:nonzero;stroke:none"/><path d="M2263.74 1018.94c-1 6.14-1.49 13.35-1 24.85-.13-3.07-.19-5.84-.19-8.36 0-6.92.46-11.99 1.19-16.49m19.46 172.22c1.85 30.27 2.18 65.59.95 94.75-.9 21.65.32 33.55 2.08 44.46-1.34-8.38-2.37-17.33-2.37-30.83 0-4.09.1-8.6.31-13.64.48-11.51.72-23.98.72-36.73 0-19.53-.56-39.69-1.69-58.01m10.19 222.48c1.26 34.52 2.28 71.24 2.28 94.86 0 32.6 13.44 63.26-13.45 80.58-1.8 1.16-3.85 2.26-6.14 3.32 2.3-1.06 4.37-2.16 6.17-3.32 13.43-8.64 16.79-20.63 16.79-34.54 0-13.92-3.36-29.75-3.36-46.06 0-23.63-1-60.34-2.29-94.84m-123.64 218.89c-17.77 9.96-35.3 22.97-50.81 40.57 15.51-17.6 33.04-30.6 50.81-40.57m-50.82 40.58c-.04.05-.08.09-.12.14.04-.05.08-.09.12-.14m-8.59 10.12c-7.42 8.6-14.49 16.08-21.16 22.78 6.67-6.7 13.74-14.17 21.16-22.78m-21.17 22.79-.02.02.02-.02m-59.54 121.21c6.62 55.16 23.12 72.69 36.18 91.59-13.05-18.92-29.54-36.46-36.18-91.59m86.04 263.14c2.46 6.04 4.13 11.43 3.46 16.81-1.53 12.06-14.98 44.47-29.04 67.06 14.09-22.56 27.55-54.97 29.06-67.08.1-.81.15-1.62.15-2.43 0-4.58-1.53-9.24-3.63-14.36m-19.92 135.05c-1.18.2-2.37.39-3.56.57 1.19-.18 2.37-.37 3.54-.56.01 0 .02-.01.02-.01m-105.71 6.18c-19.63 12.72-39.87 39.5-58.96 67.41-24.96 36.47-47.98 36.47-72.85 36.47-4.92 0-9.63 1.2-14.22 3.18 4.58-1.97 9.27-3.16 14.18-3.16 24.95 0 47.97 0 72.92-36.46 19.09-27.91 39.31-54.69 58.93-67.44m42.53 19.06c-.2.82-.39 1.65-.57 2.49h.01c.17-.84.36-1.67.56-2.49m-257 125.87c-27.04 7.56-59.14 18.19-88.17 31.89-1.24.58-2.46 1.16-3.65 1.74 1.2-.58 2.42-1.16 3.67-1.75 29.05-13.67 61.14-24.3 88.15-31.88m-135.67 65.18c-7.62 8.93-15.05 20.28-23.5 35.77-23.03 42.18-36.47 130.5-47.98 151.59-8.88 16.26-23.45 69.06-38.44 95.03 15.01-25.95 29.59-78.75 38.47-95.02 11.51-21.11 24.94-109.38 47.97-151.59 8.45-15.49 15.87-26.85 23.48-35.78m-115.02 147.89c.39 1.56.58 3.4.58 5.38 0 1.65-.13 3.39-.39 5.17.57-3.91.53-7.69-.19-10.55m-18.59 6.83c-14.7 18.98-37.3 56.74-47.18 63.3a74.703 74.703 0 0 0-5.23 3.89c1.93-1.55 3.68-2.83 5.2-3.84 9.88-6.59 32.51-44.32 47.21-63.35m14.06 18.16c-4.56 10.26-11.5 24.57-20.27 37.55 8.79-13 15.73-27.29 20.27-37.55m-46.03 89.28c-1.98 10.17-2.97 20.46-2.96 28.96 0 5.27.38 9.85 1.15 13.29.71 3.22 2.03 5.17 3.82 6.18-1.78-1.01-3.08-2.97-3.78-6.18-2.02-8.98-1.43-25.77 1.77-42.25m-66.23 34.45c-12.35 42.95-12.61 86.82-21.92 99.89-1.24 1.73-2.41 3.56-3.56 5.48 1.15-1.91 2.32-3.74 3.55-5.46 9.33-13.06 9.59-56.93 21.93-99.91m93.91 6.28c-4.4 2.17-8.65 4.39-12.49 6.03 3.85-1.64 8.09-3.86 12.49-6.03m-122.42 104.35c-6.81 12.2-14.36 27.43-31.81 44.88-16.61 16.6-22.24 39.24-20.47 64.22-.2-2.86-.3-5.68-.3-8.47-.02-21.6 6.08-41 20.79-55.71 17.46-17.46 24.99-32.71 31.79-44.92m-43.27 221.34c-1.72 20.55-5.1 37.43-9.36 42.35-9.85 11.51-38.49 39.6-61.7 53.69-12.25 7.46-6.35 26.15 0 43.1 6.45 16.94 16.58 67.87 8.11 110.32-.41 2.03-.77 4.07-1.08 6.13l.01.02c.32-2.07.68-4.12 1.09-6.15 2.3-11.52 3.23-23.67 3.23-35.59 0-31.99-6.67-62.37-11.33-74.74-3.68-9.74-7.18-20.05-7.17-28.47.01-6.24 1.94-11.44 7.17-14.6 23.2-14.07 51.8-42.22 61.72-53.73 4.24-4.93 7.6-21.79 9.31-42.33" style="fill:#5ac8cf;fill-opacity:1;fill-rule:nonzero;stroke:none"/><path d="M2365.65 1015.71c-33.56.29-67.34 1.35-101.91 3.23-.73 4.5-1.19 9.57-1.19 16.49 0 2.52.06 5.29.19 8.36.08 1.91.19 3.93.33 6.09 1.93 30.67 9.57 63.36 15.37 95.96 2.1 11.96 3.68 27.79 4.76 45.32 1.13 18.32 1.69 38.48 1.69 58.01 0 12.75-.24 25.22-.72 36.73-.21 5.04-.31 9.55-.31 13.64 0 13.5 1.03 22.45 2.37 30.83 1.98 12.3 4.63 23.35 5.66 45.7.51 11.64 1.02 24.45 1.5 37.57 1.29 34.5 2.29 71.21 2.29 94.84 0 16.31 3.36 32.14 3.36 46.06 0 13.91-3.36 25.9-16.79 34.54-1.8 1.16-3.87 2.26-6.17 3.32-21.81 10.12-64.76 16.82-106.33 40.13-17.77 9.97-35.3 22.97-50.81 40.57l-.01.01c-.04.05-.08.09-.12.14a171.08 171.08 0 0 0-3.46 4.05c-1.69 2.04-3.36 4.01-5.01 5.93-7.42 8.61-14.49 16.08-21.16 22.78-.01 0-.01.01-.01.01l-.02.02c-40.98 41.14-66.56 52.84-60.18 115.2.21 2.04.43 4.04.66 5.99 6.64 55.13 23.13 72.67 36.18 91.59 3.37 4.89 6.52 9.86 9.2 15.6 13.45 28.82 28.83 80.67 28.83 111.34 0 19.92 7.27 33.39 11.83 44.61 2.1 5.12 3.63 9.78 3.63 14.36 0 .81-.05 1.62-.15 2.43-1.51 12.11-14.97 44.52-29.06 67.08-3.77 6.05-7.57 11.39-11.21 15.46-17.31 19.15-46.04 30.66-71 34.53-5.86.89-11.82 3.47-17.84 7.37-19.62 12.75-39.84 39.53-58.93 67.44-24.95 36.46-47.97 36.46-72.92 36.46-4.91 0-9.6 1.19-14.18 3.16-18.7 8.06-35.65 29.09-58.72 35.22-3.15.84-6.4 1.72-9.72 2.65-27.01 7.58-59.1 18.21-88.15 31.88-1.25.59-2.47 1.17-3.67 1.75-18.63 9-31.5 17.1-43.85 31.55-7.61 8.93-15.03 20.29-23.48 35.78-23.03 42.21-36.46 130.48-47.97 151.59-8.88 16.27-23.46 69.07-38.47 95.02-4.45 7.7-8.93 13.05-13.32 14.37-4.87 1.45-9.86 3.76-14.66 6.13-4.4 2.17-8.64 4.39-12.49 6.03-3.58 1.53-6.82 2.55-9.5 2.55-1.38 0-2.62-.27-3.68-.88-1.79-1.01-3.11-2.96-3.82-6.18-.77-3.44-1.15-8.02-1.15-13.29-.01-8.5.98-18.79 2.96-28.96 2.93-15.15 8.08-30.04 15.45-38.34 3.66-4.12 7.11-8.67 10.31-13.39 8.77-12.98 15.71-27.29 20.27-37.55.74-1.68 1.41-3.24 2.02-4.68 1.31-3.03 2.22-6.44 2.7-9.76.26-1.78.39-3.52.39-5.17 0-1.98-.19-3.82-.58-5.38-.76-3.07-2.3-5.09-4.69-5.09-1.91 0-4.36 1.28-7.4 4.31-1.89 1.89-4.09 4.49-6.5 7.61-14.7 19.03-37.33 56.76-47.21 63.35-1.52 1.01-3.27 2.29-5.2 3.84-12.69 10.31-33.02 32.71-44.69 70.98-.38 1.24-.74 2.48-1.1 3.72-12.34 42.98-12.6 86.85-21.93 99.91-1.23 1.72-2.4 3.55-3.55 5.46-1.02 1.68-2.01 3.44-3.03 5.26-6.8 12.21-14.33 27.46-31.79 44.92-14.71 14.71-20.81 34.11-20.79 55.71 0 2.79.1 5.61.3 8.47.69 9.65 2.48 19.66 5.18 29.81 5.48 20.87 6.14 54.94 3.83 82.43-1.71 20.54-5.07 37.4-9.31 42.33-9.92 11.51-38.52 39.66-61.72 53.73-5.23 3.16-7.16 8.36-7.17 14.6-.01 8.42 3.49 18.73 7.17 28.47 4.66 12.37 11.33 42.75 11.33 74.74 0 11.92-.93 24.07-3.23 35.59-.41 2.03-.77 4.08-1.09 6.15 20.44 26.9 41.72 53.07 63.86 78.52 17.6-42.85 27.2-93.27 38.51-134.85 23.94-88.05 37.75-172.68 28.09-263.94 1.31.28 2.58.42 3.81.42 32.45 0 33.39-95.61 35.97-121.43 2.12-21.55-4.7-45.95-.09-67.04 2.12-9.89 11.09-33.32 20.27-33.32 3.56 0 7.15 3.51 10.39 12.69 22.57 1.31 44.2 4.34 64.37 4.34 32.33 0 60.9-7.79 83.53-43.02 24.31-38.03 26.62-87.85 33.98-131.14 11.98-69.8 44.94-164.01 108.67-202.14 38.5-23.02 87.03-36.01 127.46-56.08 39.23-19.43 69.89-55.16 101.21-86.94 12.7-12.89 25.87-21.64 39.68-28.82.18-.84.37-1.67.57-2.49 3.32-13.27 10.6-22.7 25.62-22.7.59 0 1.19.02 1.81.05 2.09.11 4.19.17 6.3.17 8.61 0 17.37-.89 25.89-2.19 1.19-.18 2.38-.37 3.56-.57 3.13-1.47 6.34-3.03 9.56-4.69 25.05-12.8 49.64-24.22 60.51-49.08 13.53-31.22 10.4-85.56 13.35-119.91 3.78-44.29 7.18-67.78 32.6-102.13 26.06-35.17 18.79-56.17 14.83-99.45-5.62-61.61-7.74-159.51 56.17-187.6 56.18-24.77 131.79 1.2 150.67-72.75 16.66-65.01-.37-151.67-9.95-215.95-13.17-88.41-64.83-167.89-77.27-254.64-4.97-34.71 9.95-45.95 16.95-76.06 1.96-8.37 2.66-17.74 2.48-27.45" style="fill:#4abc39;fill-opacity:1;fill-rule:nonzero;stroke:none"/><path d="M3789.75 1603.48c0 .01 0 .02-.01.02l.01.01c0-.01 0-.02.01-.03h-.01" style="fill:#5ac8cf;fill-opacity:1;fill-rule:nonzero;stroke:none"/><path d="M3789.76 1603.48c-.01.01-.01.02-.01.03 28.58 46.42 54.76 94.51 78.34 144.05.01 0 .02 0 .03-.01a1526.281 1526.281 0 0 0-78.36-144.07" style="fill:#55c042;fill-opacity:1;fill-rule:nonzero;stroke:none"/><path d="M3717.15 1978.02c-.01.01-.01.01-.02.01 1.23 1.44 2.38 2.87 3.38 4.28 1.38 1.92 2.4 3.93 3.08 6.04-.68-2.12-1.69-4.15-3.07-6.08-1-1.4-2.14-2.81-3.37-4.25m-258.11 178.12c3.04 1.21 6.2 2.58 9.53 4.11 11.68 5.39 26.81 12.53 42.51 18.96-15.7-6.44-30.83-13.58-42.53-18.98-3.33-1.53-6.48-2.89-9.51-4.09m-114.23.08c-11.48 4.43-18.66 10.04-22.33 14.96 3.68-4.9 10.85-10.52 22.33-14.96m-93.74 70.39c-3.28 1.41-6.32 2.43-8.98 2.96-4.65.93-9.02 3.08-13.13 6.12 4.09-3.03 8.45-5.17 13.09-6.09 2.68-.54 5.72-1.57 9.02-2.99m-46.44 40.2c-5.08 9.22-9.53 18.89-13.46 27.5-11.27 24.89-20.42 54.18-33.76 94.45 13.38-40.24 22.48-69.56 33.79-94.44 3.92-8.62 8.36-18.3 13.43-27.51m-50.16 132.24c-8.57 41.04 16.58 95.61 27.49 119.51 7.44 16.43 20.74 30.95 35.46 53.52-14.71-22.59-27.99-37.11-35.46-53.56-9.35-20.56-29.27-63.78-29.23-101.57.01-6.15.55-12.16 1.74-17.9m229.33 420.78c-2.2 0-4.01.47-5.37 1.49-.3.22-.59.46-.85.7.25-.23.52-.45.81-.66 1.38-1.04 3.21-1.52 5.43-1.52 2.23 0 4.84.48 7.78 1.36-2.95-.89-5.57-1.37-7.8-1.37m35.3 14.33c9.07 5.15 18.85 11.18 28.63 17.22 30.12 18.51 43.93 30.02 71.65 39.32 10.31 3.42 21.23 5.56 31.71 6.2-10.48-.66-21.39-2.81-31.67-6.24-27.73-9.24-41.6-20.8-71.65-39.29-9.8-6.03-19.59-12.06-28.67-17.21m-47.89.15c-1.16 2.25-2.88 3.87-6.42 4.09 3.55-.2 5.26-1.83 6.42-4.09" style="fill:#5ac8cf;fill-opacity:1;fill-rule:nonzero;stroke:none"/><path d="M3802.25 1936.16c-19.53 14.68-44.78 35.41-85.1 41.86 1.23 1.44 2.37 2.85 3.37 4.25 1.38 1.93 2.39 3.96 3.07 6.08 5.08 15.64-8.14 36.5-28.5 61-23.11 27.72-4.6 53.14-30.02 98.17-25.42 45.12-60.14 42.82-86.84 47.43-2.17.37-4.52.55-7.01.55-16.24 0-38.72-7.49-60.14-16.29-15.7-6.43-30.83-13.57-42.51-18.96-3.33-1.53-6.49-2.9-9.53-4.11-16.44-6.54-29.38-8.56-46.75-8.56-8.4 0-17.83.47-29.21 1.14-16.07.94-28.67 3.8-38.27 7.5-11.48 4.44-18.65 10.06-22.33 14.96-.76 1.02-1.37 2.01-1.83 2.95-4.08 8.15-44.35 41.68-69.58 52.48-3.3 1.42-6.34 2.45-9.02 2.99-4.64.92-9 3.06-13.09 6.09-9.4 6.96-17.44 18.62-24.33 31.12-5.07 9.21-9.51 18.89-13.43 27.51-11.31 24.88-20.41 54.2-33.79 94.44-.29.87-.58 1.74-.87 2.62a69.81 69.81 0 0 0-2.07 7.67c-1.19 5.74-1.73 11.75-1.74 17.9-.04 37.79 19.88 81.01 29.23 101.57 7.47 16.45 20.75 30.97 35.46 53.56 8.04 12.33 16.51 27.07 24.67 45.84 23.12 53.14 34.63 108.67 34.08 129.39-.56 20.82 35.27 57.84 42.17 67.05 6.91 9.3 20.82 18.51 39.33 23.11 2.57.66 4.65.95 6.35.95.26 0 .52-.01.77-.02 3.54-.22 5.26-1.84 6.42-4.09 1.84-3.56 2.29-8.68 6.37-12.29.26-.24.55-.48.85-.7 1.36-1.02 3.17-1.49 5.37-1.49 2.23 0 4.85.48 7.8 1.37 7.47 2.22 17 7 27.5 12.96 9.08 5.15 18.87 11.18 28.67 17.21 30.05 18.49 43.92 30.05 71.65 39.29 10.28 3.43 21.19 5.58 31.67 6.24 2.16.13 4.3.19 6.42.19 10.83 0 20.93-1.73 29.1-5.47-13.03-29.59-40.54-63.61-79.34-63.61-1.54 0-3.08.05-4.65.16-8.75-16.58-19.52-48.81-32.14-61.7-19.43-19.71-49.18-17.96-69.62-40.52-50.65-56.09-36.65-102.59-45.77-169.73-8.57-63.17-49.09-144.31-16.49-209.05 16.13-31.98 55.99-35.07 96.55-35.07 4.85 0 9.71.04 14.54.09 4.83.04 9.63.08 14.37.08 18.98 0 36.85-.71 51.08-4.97 73.31-21.83 146.15-38.96 211.35-79.66 56.33-35.21 91.39-76.44 118.93-130.1-11.23-54.98-25.65-108.88-43.17-161.38" style="fill:#55c042;fill-opacity:1;fill-rule:nonzero;stroke:none"/><path d="M2697.37 3446.84c-4.13 0-10.41 1.96-17.88 5.2 7.46-3.24 13.73-5.19 17.87-5.19 3.7 0 6.06 1.86 7.59 5.08-1.52-3.23-3.88-5.09-7.58-5.09m-88.82 48.93c-7.57 5.95-13.3 11.19-15.89 14.8-9.82 13.81-4.34 32.75-10.09 50.92 5.78-18.15.24-37.1 10.11-50.92 2.58-3.61 8.31-8.85 15.87-14.8m101.37 12.03c1.62 9.32 4.6 18.25 10.2 25.53 22.75 29.58 88.75 47.79 136.54 61.44 13.16 3.76 24.76 8.15 35.48 13.03-10.7-4.88-22.3-9.28-35.45-13.06-47.8-13.63-113.83-31.86-136.57-61.42-5.6-7.27-8.58-16.2-10.2-25.52m-135.58 77.62c-2.76 14.07-4.89 34.56-6.84 56.14 1.96-21.57 4.08-42.06 6.84-56.14m473.16 169.98c-2.36 5.22-4.07 8.69-4.07 12.79.01 2.48.63 5.18 2.11 8.64 3.39 7.9 7.89 10.76 13.24 15.52-5.34-4.77-9.83-7.64-13.21-15.54-3.92-9.17-1.84-13.06 1.93-21.41m-538.16 19.77c-2.1 1.81-3.96 3.85-5.45 6.24-2.79 4.46-7.09 8.66-12.13 12.62 5.05-3.97 9.37-8.17 12.17-12.65 1.49-2.38 3.32-4.41 5.41-6.21m562.76 34.01c.74 1.33 1.49 2.75 2.25 4.28l.01-.01c-.76-1.52-1.52-2.94-2.26-4.27m-766.03 106.04c-.7 1.11-1.37 2.29-2 3.53l.01.01c.63-1.25 1.29-2.43 1.99-3.54" style="fill:#5ac8cf;fill-opacity:1;fill-rule:nonzero;stroke:none"/><path d="M2697.36 3446.85c-4.14 0-10.41 1.95-17.87 5.19-21.13 9.19-51.86 28.71-70.94 43.73-7.56 5.95-13.29 11.19-15.87 14.8-9.87 13.82-4.33 32.77-10.11 50.92-.89 2.79-2.03 5.56-3.54 8.29-1.76 3.16-3.3 8.6-4.69 15.64-2.76 14.08-4.88 34.57-6.84 56.14-3.41 37.56-6.32 78.39-11.21 94.27-7.92 25.76-33.01 27.4-46.95 39.34-2.09 1.8-3.92 3.83-5.41 6.21-2.8 4.48-7.12 8.68-12.17 12.65-15.45 12.13-37.82 22.03-44.7 30.57-9.11 11.42 0 50.1-9.11 66.03-2.47 4.31-6.93 5.79-12.76 5.79-6.38 0-14.4-1.77-23.23-3.55-8.83-1.77-18.48-3.55-28.11-3.55-4.45 0-8.9.38-13.26 1.31-24.69 5.28-43.9 7.85-54.52 24.59-.7 1.11-1.36 2.29-1.99 3.54 60.52 7.29 122.15 11.04 184.63 11.04 2.01 0 4.07 0 6.07-.01 2.68-3.38 6.26-6.94 11.04-10.89 21.36-17.59 47.89-11.51 69.25-24.22 30.94-18.51 62.53-69.25 73.58-102.4 13.82-41.54-.27-76.35 0-118.34.46-60.26 20.67-75.37 53.91-75.37 20.05 0 44.84 5.49 72.9 9.89 66.49 10.41 131.05 57.65 168.07 114.47 21.64 33.34 24.13 63.09 52.12 94.21a518.34 518.34 0 0 0 18.83 19.73c20.14-7.39 40.14-15.21 59.87-23.41-.76-1.53-1.51-2.95-2.25-4.28-4.85-8.61-9.32-13.25-13.32-16.83-5.35-4.76-9.85-7.62-13.24-15.52-1.48-3.46-2.1-6.16-2.11-8.64 0-4.1 1.71-7.57 4.07-12.79 2.79-6.16 6.5-14.76 9.4-29.7 6.81-35.28-47.8-49-86.48-72.11-28.04-16.76-50.07-32.93-78.28-45.79-10.72-4.88-22.32-9.27-35.48-13.03-47.79-13.65-113.79-31.86-136.54-61.44-5.6-7.28-8.58-16.21-10.2-25.53-3.78-21.74-.16-45.65-4.97-55.87-1.53-3.22-3.89-5.08-7.59-5.08" style="fill:#55c042;fill-opacity:1;fill-rule:nonzero;stroke:none"/><path d="M3658.69 2883.35c11.16.27 22.75 3.35 29.47 23.49 6.14 18.43 15.34 36.85 17.44 51.88-2.09-15.04-11.3-33.49-17.42-51.9-6.76-20.15-18.33-23.22-29.49-23.47m-16.64 2.93c-1.96 5.24 2.64 17.13 8.69 28.62-5.09-9.7-9.15-19.67-9.14-25.7.01-1.12.15-2.1.45-2.92m142.78 39.82c-5.32 1.99-12.56 3.8-22.7 6.13-4.32 1.01-7.73 2.3-10.43 3.86 2.7-1.54 6.11-2.83 10.42-3.82 10.14-2.34 17.38-4.15 22.7-6.15l.01-.02m-118.68 25.06c-1.8 14.93-12.66 32.62-20.8 44.26 8.17-11.63 19.04-29.34 20.8-44.26m-23.77 48.18c-6.96 7.96-18.54 13.57-30.83 18.46 12.3-4.89 23.89-10.5 30.83-18.46m90.45.86c-5.54 19.25-6.17 29.83-10.02 45.31-1.86 7.49-11.69 14.99-25.03 21.56 13.35-6.57 23.18-14.05 25.05-21.54 3.86-15.46 4.5-26.07 10-45.33m-40.73.21c-4.83 14.1-8.98 28.3-17.81 31.25-7.8 2.6-13.4 8.12-18.46 14.92 5.07-6.8 10.68-12.3 18.45-14.89 8.85-2.99 13-17.18 17.82-31.28m-115.4 33.21c-6.18 9.43 1.81 27.96-.13 38.59.01.03.02.06.03.08.23-1.22.32-2.54.32-3.94 0-7.3-2.59-16.74-2.6-24.68 0-3.83.6-7.32 2.38-10.05M3647.16 3059.55c-.96 1.48-1.92 2.98-2.92 4.47-3.75 5.62-12.44 11.25-19.14 15.64 6.69-4.38 15.39-10.01 19.16-15.64.99-1.5 1.95-2.99 2.9-4.47m-8.68 26.31c-2.8.5-5.52.93-8.13 1.27-4.63.62-7.95.9-10.19.9-1.78 0-2.88-.18-3.43-.52.54.35 1.64.53 3.44.53 2.24 0 5.55-.29 10.2-.91 2.61-.34 5.32-.77 8.11-1.27" style="fill:#5ac8cf;fill-opacity:1;fill-rule:nonzero;stroke:none"/><path d="M3657.03 2883.34c-1.65 0-3.29.04-4.89.09-1.6.05-3.17.09-4.69.09h-1.05c-2.31 0-3.7 1-4.35 2.76-.3.82-.44 1.8-.45 2.92-.01 6.03 4.05 16 9.14 25.7 3.85 7.31 8.3 14.46 12.03 19.63 3.29 4.64 4.12 10.39 3.38 16.63-1.76 14.92-12.63 32.63-20.8 44.26-.37.53-.74 1.05-1.09 1.55-.58.81-1.21 1.6-1.88 2.37-6.94 7.96-18.53 13.57-30.83 18.46-10.15 4.04-20.79 7.59-29.73 11.59-2.31 1.02-3.96 2.46-5.12 4.23-1.78 2.73-2.38 6.22-2.38 10.05.01 7.94 2.6 17.38 2.6 24.68 0 1.4-.09 2.72-.32 3.94 8.89 21.79 3.49 37.06 24.37 57.66 17.44 17.26 35.65 24.31 54.31 24.31 13.15 0 26.53-3.49 40.01-9.39 35.1-72.59 64.87-145.57 89.53-218.75-5.32 2-12.56 3.81-22.7 6.15-4.31.99-7.72 2.28-10.42 3.82-16.09 9.28-7.1 27.94-14.98 51.67-1.53 4.55-2.8 8.66-3.89 12.44-5.5 19.26-6.14 29.87-10 45.33-1.87 7.49-11.7 14.97-25.05 21.54-17.11 8.44-40.01 15.35-59.3 18.79-2.79.5-5.5.93-8.11 1.27-4.65.62-7.96.91-10.2.91-1.8 0-2.9-.18-3.44-.53-1.79-1.13 2.53-4.02 8.37-7.85 6.7-4.39 15.39-10.02 19.14-15.64 1-1.49 1.96-2.99 2.92-4.47 2.91-4.54 5.69-8.97 8.66-12.96.01 0 .01-.01.01-.01 5.06-6.8 10.66-12.32 18.46-14.92 8.83-2.95 12.98-17.15 17.81-31.25 2.75-8.04 5.72-16.06 9.9-21.95 3.89-5.41 4.65-12.14 3.6-19.74-2.1-15.03-11.3-33.45-17.44-51.88-6.72-20.14-18.31-23.22-29.47-23.49-.55-.01-1.11-.01-1.66-.01m276.26 15.29c-.01.01-.03.01-.04.01a1517.167 1517.167 0 0 1-88.6 206.8c.02 0 .05-.01.07-.01 34.37-66.23 64.06-135.33 88.57-206.8" style="fill:#55c042;fill-opacity:1;fill-rule:nonzero;stroke:none"/><path d="M3347.17 2883.45c-16.36 0-29.44 6.14-41.41 17.84 11.98-11.69 25.05-17.81 41.41-17.81 1.9 0 3.84.08 5.83.25 27.74 2.31 53.16 0 67.03 25.42 5.55 10.18 9.99 18.5 13.76 26.74.01.01.03.02.04.03-3.78-8.29-8.29-16.67-13.82-26.8-13.81-25.42-39.23-23.12-67.04-25.42-1.98-.16-3.91-.25-5.8-.25m-61.81 134.01c3.2 6.15 7.26 11.1 12.17 14.23 8.96 5.68 19.92 7.64 31.58 8.21-11.66-.57-22.62-2.54-31.58-8.24-4.92-3.13-8.96-8.06-12.17-14.2m77.86 22.24c-4.12 0-8.3.1-12.5.2-.58.01-1.16.02-1.75.04.59-.02 1.17-.03 1.76-.04 4.19-.1 8.38-.2 12.49-.2m-34.1.2h.01-.01m67.85 5.69c7.14 5.28 7.94 15.72 5.68 27.77.72-3.82 1.13-7.48 1.13-10.86-.01-7.3-1.93-13.31-6.81-16.91m-32.85 123.46c.42.87 1.3 1.33 2.76 1.33 9.21 0 27.72 30.02 34.62 43.84.99 1.95 2.15 4 3.45 6.09a74.775 74.775 0 0 1-3.41-6.05c-6.93-13.87-25.42-43.92-34.67-43.92-1.44 0-2.32-.45-2.75-1.29m52 66.73a199.993 199.993 0 0 1 0 0m154.26 37.39a30.684 30.684 0 0 0-.04 0c11.09 0 30.45 5 50.94 10.53v-.01c-20.47-5.52-39.82-10.52-50.9-10.52m-60.11.13c9.08 12.64 4.49 21.9-.1 31.08a5.23 5.23 0 0 0-.51 3c-.02-.22-.04-.43-.03-.65 0-.8.17-1.57.55-2.32 2.67-5.35 5.34-10.72 5.34-16.74-.01-4.37-1.42-9.08-5.25-14.37m44.96 35.2c-.97 5.44-3.11 9.96-8.07 12.09-.9.38-1.83.7-2.77.96.96-.26 1.89-.58 2.8-.97 4.95-2.11 7.07-6.63 8.04-12.08" style="fill:#5ac8cf;fill-opacity:1;fill-rule:nonzero;stroke:none"/><path d="M3347.17 2883.48c-16.36 0-29.43 6.12-41.41 17.81-6 5.87-11.73 13.14-17.44 21.73-14.93 22.36-16.32 68.81-2.96 94.44 3.21 6.14 7.25 11.07 12.17 14.2 8.96 5.7 19.92 7.67 31.58 8.24h.02c2.97.14 5.99.19 9.03.19 3.58 0 7.2-.07 10.81-.15.59-.02 1.17-.03 1.75-.04 4.2-.1 8.38-.2 12.5-.2 3.2 0 6.35.06 9.44.22 6.99.38 13.64 1.29 19.63 3.28 1.8.6 3.35 1.41 4.68 2.39 4.88 3.6 6.8 9.61 6.81 16.91 0 3.38-.41 7.04-1.13 10.86-3.83 20.43-16.45 45.45-21.87 57.7-7.83 17.52-18.85 33.4-16.66 37.99.43.84 1.31 1.29 2.75 1.29 9.25 0 27.74 30.05 34.67 43.92.97 1.94 2.12 3.98 3.41 6.05 3.16 5.1 7.11 10.48 11.17 15.47 2.28 2.8 4.59 5.49 6.81 7.94 3.74 4.12 7.23 7.58 9.88 9.82 8.11 6.91 68.15 6.91 77.36 19.62.04.04.07.09.1.14 3.83 5.29 5.24 10 5.25 14.37 0 6.02-2.67 11.39-5.34 16.74a5.04 5.04 0 0 0-.55 2.32c-.01.22.01.43.03.65.85 7.06 14.71 15.07 27.66 15.07 2.42 0 4.8-.28 7.07-.9.94-.26 1.87-.58 2.77-.96 4.96-2.13 7.1-6.65 8.07-12.09 2.2-12.31-1.5-29.36 8.08-34.15 1.18-.58 2.75-.94 4.65-1.09.76-.06 1.56-.09 2.42-.09 11.08 0 30.43 5 50.9 10.52 4.66-7.98 9.18-15.83 13.71-23.83-37.93-9.81-80.62-11.81-108.52-14.51-22.93-2.31-79.66-4.52-94.21-28.46-14.27-23.39 18.23-76.16 13.45-107.2-4.79-30.76-13.17-64.09-40.52-81.5-20.63-13.17-89.61-7.18-95.23-31.86-4.42-19.71 46.23-58.3 61.43-65.29 8.31-3.75 17.27-5.61 26.29-5.61 12.45 0 25.01 3.53 36.11 10.46-3.77-8.24-8.21-16.56-13.76-26.74-13.87-25.42-39.29-23.11-67.03-25.42-1.99-.17-3.93-.25-5.83-.25" style="fill:#55c042;fill-opacity:1;fill-rule:nonzero;stroke:none"/><path d="M3520.39 3366.22c-7.79 7.13-9.73 18.01-12.52 30.62-4.61 20.81-41.63 23.11-64.74 41.62-11.75 9.4-12.15 17.6-7.88 25.51-1.54-2.86-2.47-5.76-2.47-8.74-.01-5.26 2.87-10.77 10.37-16.76 23.11-18.49 60.09-20.8 64.72-41.61 2.79-12.59 4.75-23.49 12.52-30.64" style="fill:#5ac8cf;fill-opacity:1;fill-rule:nonzero;stroke:none"/><path d="M3588.69 3332.5c-16.36 0-19.42 23.23-43.8 25.1-11.88.91-19.43 3.97-24.5 8.62-7.77 7.15-9.73 18.05-12.52 30.64-4.63 20.81-41.61 23.12-64.72 41.61-7.5 5.99-10.38 11.5-10.37 16.76 0 2.98.93 5.88 2.47 8.74 4.13 7.66 12.64 15.05 19.48 23.02 6.27 7.36 12.09 12.8 17.22 18.93 43.54-56.93 83.48-114.79 119.77-173.17-1.06-.17-2.07-.25-3.03-.25m54.35 69.76c-7.9 9.12-15.87 18.1-23.98 27.02.02.02.03.05.05.07 8.05-8.86 15.99-17.8 23.83-26.86.03-.07.07-.15.1-.23" style="fill:#55c042;fill-opacity:1;fill-rule:nonzero;stroke:none"/><path d="M2328.1 3500.92c-8.9 9.98-13.88 27.27-23.13 41.14-1.19 1.79-2.67 3.37-4.39 4.77 1.71-1.39 3.19-2.96 4.37-4.73 9.26-13.89 14.24-31.19 23.15-41.18m51.14 1.74c4.25 3.52 7.42 7.83 8.77 12.8 1.12 4.07 1.7 8.67 1.7 13.42 0 10.55-2.9 21.85-9.37 29.83.02.01.03.02.05.02 9.39-11.6 11.24-30.2 7.64-43.28-1.35-4.96-4.53-9.28-8.79-12.79m-147.71 81.41c1.44 14.37 20.42 30.13 15.42 48.89-1.92 7.22-6.04 13.26-11.24 18.79 5.21-5.53 9.33-11.55 11.25-18.75.58-2.16.84-4.28.84-6.36.04-16.02-14.98-29.84-16.27-42.57m-40.29 113.02c-11.16 13.46-22.4 16.89-34.52 25.68 12.14-8.77 23.4-12.2 34.52-25.68m-189.61 41.79c-6.41 7.01-5.45 20.97-5.45 32.03 0 12.7 13.97 12.71 24.83 18.31-10.8-5.61-24.8-5.59-24.8-18.31 0-2.56-.05-5.28-.05-8.03 0-9.12.56-18.6 5.47-24" style="fill:#5ac8cf;fill-opacity:1;fill-rule:nonzero;stroke:none"/><path d="M2349.05 3492.33c-3.39 0-6.66.39-9.64 1.2-4.5 1.23-8.15 3.85-11.31 7.39-8.91 9.99-13.89 27.29-23.15 41.18-1.18 1.77-2.66 3.34-4.37 4.73-16.46 13.42-54.82 11.05-66.15 26.64-2.52 3.46-3.27 6.99-2.9 10.6 1.29 12.73 16.31 26.55 16.27 42.57 0 2.08-.26 4.2-.84 6.36-1.92 7.2-6.04 13.22-11.25 18.75-11.78 12.53-29.09 22.46-38.86 37.66-1.87 2.89-3.74 5.43-5.61 7.68-11.12 13.48-22.38 16.91-34.52 25.68-1.26.91-2.52 1.88-3.8 2.93-6.89 5.59-16.52 7.74-28.29 7.74-14.96 0-33.37-3.47-54.04-7.74-7.83-1.63-14.49-2.29-20.26-2.29-21.35 0-30.46 9.03-41.62 11.49-3.03.68-5.33 2.07-7.08 3.98-4.91 5.4-5.47 14.88-5.47 24 0 2.75.05 5.47.05 8.03 0 12.72 14 12.7 24.8 18.31.01 0 .03.01.04.02 32.14-13.91 99.18-10.59 109.31-12.99 30.39-7.27 76.99-51.38 100.84-69.71 42.18-32.23 46.88-71.28 71.56-113.27 17.89-30.4 32.45-41.41 49.73-41.41 8.41 0 17.46 2.61 27.85 6.85 6.47-7.98 9.37-19.28 9.37-29.83 0-4.75-.58-9.35-1.7-13.42-1.35-4.97-4.52-9.28-8.77-12.8-7.95-6.56-19.65-10.33-30.19-10.33" style="fill:#55c042;fill-opacity:1;fill-rule:nonzero;stroke:none"/></g><path d="M2461.89 929.8c-157.688 0-309.728 24.353-452.513 69.486 78.692-24.875 160.203-43.426 243.916-55.076a1518.568 1518.568 0 0 1 57.53-6.877 1499.43 1499.43 0 0 1 33.255-2.947 1517.913 1517.913 0 0 1 117.792-4.56c351.52 0 674.777 120.898 930.491 323.403-255.704-202.505-578.98-323.43-930.47-323.43m-452.956 69.622c-.138.042-.236.069-.373.119.137-.05.235-.077.373-.12" style="fill:#273667;fill-opacity:1;fill-rule:nonzero;stroke:none;stroke-width:.982419" transform="matrix(.13333 0 0 -.13333 -128.25 523.973)"/><path d="M2461.87 929.826c-39.64 0-78.927 1.535-117.792 4.56 5.62 4.401 10.168 7.387 12.988 7.801 13.194 1.877 16.966 20.727 16.966 37.696 0 16.967 16.967 28.271 33.933 41.477 7.948 6.179 11.347 15.266 11.357 25.109 0 6.917-1.67 14.206-4.608 21.142 98.99 2.653 193.076 12.379 282.476 28.618 17.428-36.575 45.339-50.604 78.466-50.604 88.496 0 214.197 100.147 276.6 138.344 125.407 76.746 266.522 115.247 347.562 245.476 96.572 87.18 177.366 187.228 241.685 297.023 39.631 8.586 73.181 33.333 97.398 51.97-3.93-16.642-6.779-34.63-5.129-50.88.364-3.693.963-7.299 1.838-10.786 2.004-8.007 2.79-15.247 2.966-21.938.128-4.705-.039-9.126-.294-13.36-.423-6.75-1.051-12.988-1.061-19.04 0-4.214.314-8.34 1.218-12.476a44.565 44.565 0 0 1 1.591-5.551c-92.298-149.897-210.218-282.327-347.669-391.178-255.714-202.505-578.97-323.403-930.49-323.403m-208.578 14.384c-83.713 11.65-165.224 30.201-243.916 55.076-.147.038-.295.089-.442.135-.138.042-.236.069-.373.119-132.146 41.852-256.403 101.522-369.882 176.166 72.915-20.866 144.14-38.55 213.844-53.217 31.653-26.555 81.216-49.12 126.742-49.12 18.47 0 36.27 3.713 51.94 12.378a97.955 97.955 0 0 1 6.897 4.175c69.3-9.657 137.077-16.22 202.752-19.796 1.18-7.171 3.075-12.84 4.942-22.349 3.802-18.911 7.604-33.924 13.213-56.55 4.755-18.85.266-33.812-5.717-47.017" style="fill:#59c7e5;fill-opacity:1;fill-rule:nonzero;stroke:none;stroke-width:.982419" transform="matrix(.13333 0 0 -.13333 -128.25 523.973)"/><path d="M2775.656 1045.625c-33.127 0-61.038 14.029-78.466 50.604 285.708 51.901 521.833 169.997 702.628 333.216-81.04-130.23-222.155-168.73-347.561-245.476-62.404-38.197-188.104-138.344-276.601-138.344M1979.266 1073.368c-45.526 0-95.089 22.566-126.742 49.12 63.238-13.31 125.042-24.127 185.579-32.566a97.955 97.955 0 0 0-6.897-4.175c-15.67-8.665-33.47-12.379-51.94-12.379" style="fill:#68cce3;fill-opacity:1;fill-rule:nonzero;stroke:none;stroke-width:.982419" transform="matrix(.13333 0 0 -.13333 -128.25 523.973)"/><path d="M2344.078 934.386a1499.43 1499.43 0 0 0-33.255 2.947c8.007 24.138 14.746 47.658 20.297 67.737 4.755 17.35 9.47 40.448 9.854 61.883 6.1-.049 12.3-.079 18.361-.079 18.607 0 37.096.246 55.38.737 2.937-6.936 4.607-14.226 4.607-21.143-.01-9.843-3.41-18.93-11.357-25.108-16.966-13.206-33.933-24.51-33.933-41.477 0-16.97-3.772-35.82-16.966-37.696-2.82-.415-7.368-3.4-12.988-7.802" style="fill:#47b93d;fill-opacity:1;fill-rule:nonzero;stroke:none;stroke-width:.982419" transform="matrix(.13333 0 0 -.13333 -128.25 523.973)"/><path d="M3738.439 1649.958c-.904 4.136-1.218 8.262-1.218 12.476.01 6.052.638 12.29 1.06 19.04-.707-11.456-2.043-21.457.158-31.516m.138 44.876c-.177 6.69-.963 13.931-2.967 21.938-.875 3.487-1.474 7.093-1.838 10.787.374-3.685.973-7.27 1.847-10.738 1.995-8.036 2.78-15.287 2.958-21.987" style="fill:#51bf48;fill-opacity:1;fill-rule:nonzero;stroke:none;stroke-width:.982419" transform="matrix(.13333 0 0 -.13333 -128.25 523.973)"/><path d="M2253.312 944.21h-.02c5.983 13.205 10.473 28.167 5.718 47.017-5.61 22.626-9.412 37.639-13.214 56.55-1.866 9.509-3.762 15.177-4.941 22.35 1.179-7.182 3.085-12.85 4.99-22.38 3.773-18.854 7.546-33.932 13.195-56.558 1.365-5.472 1.964-10.619 1.974-15.493.02-11.896-3.458-22.134-7.702-31.486" style="fill:#4cb7c3;fill-opacity:1;fill-rule:nonzero;stroke:none;stroke-width:.982419" transform="matrix(.13333 0 0 -.13333 -128.25 523.973)"/><path d="M2310.823 937.333a1495.747 1495.747 0 0 0-57.51 6.877c4.243 9.352 7.721 19.59 7.701 31.486-.01 4.874-.609 10.021-1.974 15.493-5.65 22.626-9.422 37.704-13.194 56.558-1.906 9.53-3.812 15.198-4.99 22.38a2186.333 2186.333 0 0 1 100.118-3.174c-.383-21.435-5.099-44.534-9.854-61.883-5.55-20.079-12.29-43.599-20.297-67.737" style="fill:#40ad3c;fill-opacity:1;fill-rule:nonzero;stroke:none;stroke-width:.982419" transform="matrix(.13333 0 0 -.13333 -128.25 523.973)"/><path d="M3740.03 1644.407a44.565 44.565 0 0 0-1.591 5.55 44.496 44.496 0 0 1 1.601-5.54l-.01-.01m-1.748 37.066c.255 4.234.422 8.655.294 13.361.03-1.07.05-2.122.05-3.163 0-3.547-.148-6.926-.345-10.198m-4.509 46.085c-1.65 16.25 1.199 34.238 5.128 50.88.01.01.02.02.03.02-3.164-13.41-5.63-27.695-5.62-41.242 0-3.271.147-6.494.462-9.657" style="fill:#4cb7c3;fill-opacity:1;fill-rule:nonzero;stroke:none;stroke-width:.982419" transform="matrix(.13333 0 0 -.13333 -128.25 523.973)"/><path d="M3740.04 1644.417a44.496 44.496 0 0 0-1.601 5.54c-2.2 10.06-.865 20.061-.157 31.516.196 3.272.344 6.651.344 10.198 0 1.041-.02 2.092-.05 3.163-.176 6.7-.962 13.95-2.956 21.987-.875 3.468-1.474 7.054-1.847 10.738a97.697 97.697 0 0 0-.462 9.657c-.01 13.547 2.456 27.832 5.62 41.242 7.73 5.953 14.52 11.278 20.247 15.256 6.464 4.48 11.592 7.231 15.237 7.231.256 0 .501-.01.747-.039 6.74-.756 20.611-8.655 41.841-14.972a1497.738 1497.738 0 0 0-76.963-141.517" style="fill:#45b53a;fill-opacity:1;fill-rule:nonzero;stroke:none;stroke-width:.982419" transform="matrix(.13333 0 0 -.13333 -128.25 523.973)"/><path d="M3915.137 2802.635c-18.234 5.492-38.953 11.279-61.146 11.279-3.104 0-6.228-.109-9.382-.354a39.3 39.3 0 0 0-2.81-.108c-12.437 0-21.583 6.503-30.11 12.997-8.528 6.494-16.446 12.998-26.418 12.998-2.073 0-4.244-.285-6.523-.904-3.527-.963-7.192-1.936-10.895-2.967a1758.399 1758.399 0 0 1-32.646 108.174c7.319-2.741 10.954-5.846 13.547-11.24 1.032-2.15 1.887-4.676 2.751-7.682 1.022-3.595 1.356-7.535 1.356-11.219 0-4.136-.413-7.948-.717-10.59-.216-1.769-.374-3.007-.324-3.458.01-.138.038-.207.087-.207.256 0 1.091 1.995 3.066 6.897.324.825.687 1.729 1.09 2.721a135.228 135.228 0 0 1 2.22 5.944c2.879 8.311 4.009 14.746 4.009 20.984 0 2.486-.187 4.951-.501 7.486-.668 5.266-1.936 10.875-3.468 17.792-4.52 20.444-22.704 47.676 0 52.195 11.779 2.348 19.275 4.726 25.042 5.188.648.049 1.277.079 1.886.079 4.391 0 7.83-1.405 11.671-5.246 7.496-7.506 4.156-15.012 7.889-28.923.776-2.937 1.876-6.16 3.458-9.726 8.724-19.638 9.029-24.619 31.536-31.044.815-.226 1.65-.462 2.525-.707 22.674-6.18 19.157-21.722 38.697-26.23a1489.119 1489.119 0 0 0 34.11-114.128" style="fill:#59c7e5;fill-opacity:1;fill-rule:nonzero;stroke:none;stroke-width:.982419" transform="matrix(.13333 0 0 -.13333 -128.25 523.973)"/><path d="M3854.414 1990.237c-7.467 28.785-23.578 54.003-35.112 83.859-7.712 19.992-15.748 38.481-24.57 55.664 45.378 222.29 37.843 463.218-26.88 705.816 3.704 1.031 7.369 2.004 10.896 2.967 2.279.619 4.45.904 6.523.904 9.972 0 17.89-6.504 26.417-12.998 8.528-6.494 17.674-12.997 30.111-12.997a39.3 39.3 0 0 1 2.81.108c3.154.246 6.278.354 9.382.354 22.193 0 42.912-5.787 61.146-11.278 30.485-119.177 46.705-244.12 46.705-372.807 0-145.88-20.847-286.964-59.683-420.297-15.345-2.024-31.702-10.05-47.745-19.295m-102.506 909.117c-.05 0-.08.07-.088.207.01-.118.039-.177.088-.177.255 0 1.09 1.984 3.065 6.867-1.975-4.902-2.81-6.897-3.065-6.897m.236 3.665c.304 2.642.717 6.454.717 10.59 0 3.684-.334 7.624-1.356 11.22-.864 3.006-1.72 5.53-2.75 7.682 1.04-2.161 1.915-4.686 2.79-7.702 2.17-7.614 1.188-16.81.599-21.79m6.14 11.897c4.018 11.631 4.627 19.57 3.507 28.47.314-2.534.501-5 .501-7.486 0-6.238-1.13-12.673-4.008-20.984m122.744 1.847c-19.54 4.509-16.024 20.05-38.698 26.23-.874.246-1.71.482-2.525.708.825-.236 1.68-.472 2.574-.708 22.655-6.16 19.098-21.701 38.639-26.22l.01-.01m-76.217 67.708c-3.733 13.91-.392 21.416-7.888 28.922-3.842 3.841-7.28 5.246-11.672 5.246a24.593 24.593 0 0 1 .03 0c4.391 0 7.82-1.405 11.681-5.266 7.466-7.466 4.146-14.991 7.85-28.902" style="fill:#51bf48;fill-opacity:1;fill-rule:nonzero;stroke:none;stroke-width:.982419" transform="matrix(.13333 0 0 -.13333 -128.25 523.973)"/><path d="M3574.532 3295.061a2073.563 2073.563 0 0 1-29.03 48.168c3.064.491 6.572 1.74 10.708 3.97 24.57 13.223 45.987 28.018 45.947 45.701-.01 3.566-.894 7.25-2.8 11.062-1.188 2.378-2.318 4.902-3.418 7.535a1500.77 1500.77 0 0 0 68.828-85.519c-6.435-7.574-16.8-15.257-33.029-17.389-6.808-.884-14.815-2.564-23.391-4.637-10.787-2.603-22.478-5.835-33.815-8.89" style="fill:#59c7e5;fill-opacity:1;fill-rule:nonzero;stroke:none;stroke-width:.982419" transform="matrix(.13333 0 0 -.13333 -128.25 523.973)"/><path d="M3731.532 3119.563c-2.888 0-5.776.137-8.674.481-21.26 2.623-30.033 12.663-51.931 26.054-7.918 4.873-15.817 9.136-23.686 12.575-18.264 37.764-38.06 75.547-59.24 112.968 34.944 9.028 65.783 24.806 76.688 54.229-6.425-7.515-16.83-15.198-32.931-17.28-6.808-.895-14.825-2.575-23.411-4.638 8.576 2.073 16.583 3.753 23.391 4.637 16.23 2.132 26.594 9.815 33.03 17.389 48.403-64.86 91.65-133.697 129.207-206.042-1.267.354-2.574.688-3.89 1.012-5.62 1.395-11.18 1.896-16.692 1.896-7.053 0-14.038-.825-20.994-1.64-6.965-.816-13.901-1.641-20.867-1.641m-186.03 223.666-.01.02c3.064.482 6.581 1.739 10.717 3.97 29.493 15.836 54.466 34.02 43.158 56.724a113.682 113.682 0 0 0-3.458 7.594l.03-.04c1.1-2.632 2.23-5.157 3.419-7.534 1.906-3.812 2.79-7.496 2.8-11.062.039-17.684-21.378-32.479-45.948-45.702-4.136-2.23-7.643-3.478-10.708-3.97" style="fill:#51bf48;fill-opacity:1;fill-rule:nonzero;stroke:none;stroke-width:.982419" transform="matrix(.13333 0 0 -.13333 -128.25 523.973)"/><path d="M3427.827 3513.374c-44.838 58.63-93.547 116.24-146.342 172.758a1506.3 1506.3 0 0 0 170.057-129.247c-3.33-3.586-5.953-7.22-7.604-10.895a16.292 16.292 0 0 1-.57-1.375 25.496 25.496 0 0 1-.697-2.122v-.03c-.079-.284-.157-.57-.236-.844-3.694-13.126-8.684-21.152-14.608-28.245" style="fill:#59c7e5;fill-opacity:1;fill-rule:nonzero;stroke:none;stroke-width:.982419" transform="matrix(.13333 0 0 -.13333 -128.25 523.973)"/><path d="M3537.632 3415.574c-11.877 0-25.18 6.68-39.238 23.018-27.134 31.487-11.76 99.332-54.456 107.398 1.65 3.674 4.274 7.31 7.604 10.895a1510 1510 0 0 0 120.809-118.804c-8.94-13.43-20.867-22.507-34.719-22.507m-109.805 97.8c5.924 7.093 10.914 15.12 14.608 28.244-3.684-13.135-8.675-21.151-14.608-28.244m14.844 29.119c.197.707.432 1.414.698 2.122-.256-.708-.472-1.415-.698-2.122" style="fill:#51bf48;fill-opacity:1;fill-rule:nonzero;stroke:none;stroke-width:.982419" transform="matrix(.13333 0 0 -.13333 -128.25 523.973)"/><path d="M3783.031 1956.078c-2.151 0-4.214.246-6.17.766-7.584 2.034-15.433 7.536-24.54 14.373 17.212 51.577 31.378 104.53 42.41 158.542 8.823-17.182 16.859-35.671 24.571-55.663 11.534-29.856 27.645-55.074 35.112-83.86-4.067-2.337-8.115-4.764-12.123-7.19-22.301-13.48-43.305-26.968-59.26-26.968" style="fill:#45b53a;fill-opacity:1;fill-rule:nonzero;stroke:none;stroke-width:.982419" transform="matrix(.13333 0 0 -.13333 -128.25 523.973)"/><path d="M3751.82 2899.56c-.05.452.108 1.69.324 3.459-.187-1.572-.334-2.731-.334-3.291 0-.06 0-.118.01-.167m3.153 6.69c.325.815.678 1.71 1.071 2.682a137.373 137.373 0 0 1 2.24 5.983 135.228 135.228 0 0 0-2.22-5.944 262.79 262.79 0 0 1-1.09-2.721m-6.22 26.26c-2.593 5.393-6.228 8.498-13.547 11.239l-.01.02c7.349-2.751 10.984-5.866 13.558-11.259m13.036 10.875c-.668 5.266-1.945 10.876-3.478 17.772-2.868 12.939-11.2 28.598-11.18 39.503.02 6.337 2.84 11.062 11.18 12.732 11.79 2.358 19.285 4.716 25.052 5.168-5.767-.462-13.262-2.84-25.042-5.187-22.703-4.52-4.519-31.752 0-52.196 1.533-6.916 2.8-12.526 3.468-17.792m78.014.315c-22.507 6.425-22.811 11.406-31.535 31.044-1.582 3.566-2.682 6.789-3.459 9.726.786-2.918 1.887-6.13 3.459-9.687 8.773-19.717 9.077-24.639 31.535-31.083" style="fill:#4cb7c3;fill-opacity:1;fill-rule:nonzero;stroke:none;stroke-width:.982419" transform="matrix(.13333 0 0 -.13333 -128.25 523.973)"/><path d="M3751.908 2899.384c-.05 0-.08.059-.088.177-.01.049-.01.108-.01.167 0 .56.147 1.719.334 3.29.59 4.981 1.572 14.177-.6 21.79-.874 3.017-1.748 5.541-2.79 7.703-2.573 5.393-6.208 8.508-13.557 11.258-24.226 71.893-53.473 143.59-87.956 214.904 7.87-3.439 15.768-7.702 23.686-12.575 21.898-13.39 30.671-23.43 51.93-26.054 2.9-.344 5.787-.481 8.676-.481 6.965 0 13.901.825 20.866 1.64 6.956.816 13.94 1.641 20.995 1.641 5.511 0 11.072-.501 16.691-1.896 1.316-.324 2.623-.658 3.89-1.012a1490.487 1490.487 0 0 0 87.043-203.164c-19.54 4.52-15.984 20.061-38.639 26.221-.894.236-1.748.472-2.574.707-22.458 6.445-22.762 11.367-31.535 31.084-1.572 3.556-2.672 6.769-3.458 9.687-3.704 13.91-.384 21.436-7.85 28.902-3.86 3.861-7.29 5.266-11.681 5.266-.619 0-1.257-.029-1.916-.079-5.766-.452-13.262-2.81-25.051-5.167-8.341-1.67-11.16-6.396-11.18-12.733-.02-10.904 8.31-26.564 11.18-39.503 1.532-6.896 2.81-12.506 3.477-17.771 1.12-8.901.511-16.839-3.507-28.47a137.373 137.373 0 0 0-2.24-5.984c-.393-.972-.746-1.866-1.07-2.682-1.975-4.882-2.81-6.867-3.066-6.867" style="fill:#45b53a;fill-opacity:1;fill-rule:nonzero;stroke:none;stroke-width:.982419" transform="matrix(.13333 0 0 -.13333 -128.25 523.973)"/><path d="M3574.532 3295.052v.01c11.337 3.055 23.028 6.287 33.815 8.89-10.787-2.613-22.478-5.835-33.815-8.9" style="fill:#4cb7c3;fill-opacity:1;fill-rule:nonzero;stroke:none;stroke-width:.982419" transform="matrix(.13333 0 0 -.13333 -128.25 523.973)"/><path d="M3588 3271.64c-4.45 7.86-8.89 15.572-13.468 23.412 11.337 3.065 23.028 6.287 33.815 8.9 8.586 2.063 16.603 3.743 23.41 4.637 16.103 2.083 26.506 9.766 32.932 17.28-10.905-29.422-41.743-45.2-76.688-54.228" style="fill:#45b53a;fill-opacity:1;fill-rule:nonzero;stroke:none;stroke-width:.982419" transform="matrix(.13333 0 0 -.13333 -128.25 523.973)"/><path d="M3442.435 3541.618c.08.275.158.56.236.845v.03-.01c-.079-.296-.157-.58-.236-.865m.934 2.996c.167.462.353.914.57 1.375a27.201 27.201 0 0 1-.57-1.375" style="fill:#4cb7c3;fill-opacity:1;fill-rule:nonzero;stroke:none;stroke-width:.982419" transform="matrix(.13333 0 0 -.13333 -128.25 523.973)"/><path d="M3545.491 3343.249c-35.652 57.353-74.89 114.196-117.664 170.125 5.933 7.093 10.924 15.11 14.608 28.244.08.285.158.57.236.865v.01c.226.707.442 1.414.698 2.122.177.462.363.913.57 1.375 42.696-8.065 27.32-75.911 54.455-107.397 14.059-16.338 27.36-23.018 39.238-23.018 13.852 0 25.779 9.077 34.719 22.507a1474.694 1474.694 0 0 0 23.558-26.545c1.1-2.653 2.25-5.197 3.458-7.594 11.308-22.704-13.665-40.888-43.157-56.725-4.136-2.23-7.653-3.488-10.719-3.969" style="fill:#45b53a;fill-opacity:1;fill-rule:nonzero;stroke:none;stroke-width:.982419" transform="matrix(.13333 0 0 -.13333 -128.25 523.973)"/><path d="M3356.238 3308.874c19.177 1.71 40.2 16.829 45.731 33.776-5.482-16.967-26.525-32.116-45.731-33.776" style="fill:#6bccf4;fill-opacity:1;fill-rule:nonzero;stroke:none;stroke-width:.982419" transform="matrix(.13333 0 0 -.13333 -128.25 523.973)"/><path d="M3343.162 1724.209c-21.731 0-41.38 4.4-55.9 14.097 14.53-9.686 34.188-14.088 55.93-14.088 40.18 0 87.494 15.031 122.792 39.474.933-.491 1.867-.992 2.81-1.493-.934.5-1.867.992-2.8 1.473-35.279-24.413-82.632-39.463-122.832-39.463m-56.038 14.186c-.01.01-.02.01-.03.02.01-.01.02-.01.03-.02" style="fill:#7bd2f5;fill-opacity:1;fill-rule:nonzero;stroke:none;stroke-width:.982419" transform="matrix(.13333 0 0 -.13333 -128.25 523.973)"/><path d="M3871.43 1777.986c-21.673 0-39.779 3.596-54.397 7.938.02.049.01.02.029.069 14.608-4.342 32.705-7.928 54.337-7.928 3.685 0 7.457.108 11.338.324.03-.029.069-.049.098-.079-3.91-.226-7.712-.324-11.406-.324" style="fill:#3b4892;fill-opacity:1;fill-rule:nonzero;stroke:none;stroke-width:.982419" transform="matrix(.13333 0 0 -.13333 -128.25 523.973)"/><path d="M3817.033 1785.924c-.01.01-.02.01-.03.01.02.049.01.02.03.059h.029c-.02-.05-.01-.02-.03-.07" style="fill:#57bd64;fill-opacity:1;fill-rule:nonzero;stroke:none;stroke-width:.982419" transform="matrix(.13333 0 0 -.13333 -128.25 523.973)"/><path d="M3817.003 1785.934c-21.23 6.317-35.102 14.215-41.841 14.972a6.328 6.328 0 0 1-.747.039c-3.645 0-8.773-2.751-15.237-7.23 6.474 4.499 11.612 7.279 15.237 7.279.246 0 .482-.02.717-.04 6.73-.746 20.641-8.644 41.9-14.961-.02-.04-.01-.01-.03-.06" style="fill:#4eae63;fill-opacity:1;fill-rule:nonzero;stroke:none;stroke-width:.982419" transform="matrix(.13333 0 0 -.13333 -128.25 523.973)"/><path d="M1215.099 3567.82c-15.463 7.515-27.174 15.983-36.723 23.823 9.559-7.83 21.27-16.298 36.733-23.814l-.01-.01" style="fill:#2c376b;fill-opacity:1;fill-rule:nonzero;stroke:none;stroke-width:.982419" transform="matrix(.13333 0 0 -.13333 -128.25 523.973)"/><path d="M1305.983 3546.314c-4.48.197-9.107.54-13.892 1.032-33.294 3.428-57.972 11.238-76.992 20.473l.01.01c19.01-9.244 43.688-17.045 76.992-20.483 4.785-.491 9.412-.835 13.882-1.032" style="fill:#354181;fill-opacity:1;fill-rule:nonzero;stroke:none;stroke-width:.982419" transform="matrix(.13333 0 0 -.13333 -128.25 523.973)"/><path d="M1316.19 3546.078c-3.31 0-6.71.07-10.207.236 3.497-.157 6.906-.236 10.217-.236a210.502 210.502 0 0 1-.01 0m8.763.177c.098 0 .197.01.305.01-.098 0-.206-.01-.305-.01m78.191 18.705c9.5 3.753 16.977 6.573 23.087 6.573 1.906 0 3.684-.275 5.345-.875-1.66.6-3.439.875-5.335.875-6.12 0-13.597-2.82-23.097-6.573" style="fill:#3b4892;fill-opacity:1;fill-rule:nonzero;stroke:none;stroke-width:.982419" transform="matrix(.13333 0 0 -.13333 -128.25 523.973)"/></svg>