<?xml version="1.0" encoding="UTF-8" standalone="no"?>
<!-- Uploaded to: SVG Repo, www.svgrepo.com, Generator: SVG Repo Mixer Tools -->

<svg
   width="428.49002"
   height="894.15259"
   viewBox="0 0 68.558403 143.06441"
   aria-hidden="true"
   role="img"
   class="iconify iconify--noto"
   preserveAspectRatio="xMidYMid"
   version="1.1"
   id="svg74"
   sodipodi:docname="satellite.svg"
   inkscape:version="1.2.1 (9c6d41e410, 2022-07-14)"
   xmlns:inkscape="http://www.inkscape.org/namespaces/inkscape"
   xmlns:sodipodi="http://sodipodi.sourceforge.net/DTD/sodipodi-0.dtd"
   xmlns="http://www.w3.org/2000/svg"
   xmlns:svg="http://www.w3.org/2000/svg">
  <defs
     id="defs78" />
  <sodipodi:namedview
     id="namedview76"
     pagecolor="#505050"
     bordercolor="#ffffff"
     borderopacity="1"
     inkscape:showpageshadow="0"
     inkscape:pageopacity="0"
     inkscape:pagecheckerboard="1"
     inkscape:deskcolor="#505050"
     showgrid="false"
     inkscape:zoom="1.04625"
     inkscape:cx="204.06213"
     inkscape:cy="370.84827"
     inkscape:window-width="1920"
     inkscape:window-height="1017"
     inkscape:window-x="-8"
     inkscape:window-y="-8"
     inkscape:window-maximized="1"
     inkscape:current-layer="svg74"
     inkscape:document-units="mm" />
  <path
     d="m 16.865248,64.725865 c 0,0 -3.922226,-50.316674 -3.578441,-50.454916 L 44.257403,1.0649058 c 0.416291,-0.172051 0.878362,0.108999 0.910852,0.557269 l 4.072359,49.2425912 c 0.03371,0.403564 -0.200194,0.777447 -0.566943,0.937431 L 17.472279,65.104829 c -0.276118,0.117723 -0.584167,-0.06965 -0.607031,-0.378964 z"
     fill="#2f7889"
     id="path2" />
  <path
     d="m 13.129804,20.181029 3.735444,44.544836 c 0.01864,0.300255 0.330913,0.496687 0.616094,0.374737 L 48.682734,51.797971 48.066491,43.732759 Z"
     fill="#37474f"
     id="path4" />
  <path
     d="M 16.865248,64.725865 12.767012,15.120192 a 0.854,0.854 0 0 1 0.510733,-0.845017 L 44.257403,1.0649058 c 0.416291,-0.172051 0.878362,0.108999 0.910852,0.557269 l 4.072359,49.2425912 c 0.03371,0.403564 -0.200194,0.777447 -0.566943,0.937431 L 17.472279,65.104829 c -0.276118,0.117723 -0.584167,-0.06965 -0.607031,-0.378964 z"
     fill="none"
     stroke="#9dd4e0"
     stroke-width="2.042"
     stroke-miterlimit="10"
     id="path6" />
  <path
     fill="none"
     stroke="#9dd4e0"
     stroke-width="1.021"
     stroke-miterlimit="10"
     d="M 33.102278,58.445366 28.916807,7.6114868"
     id="path8" />
  <path
     fill="none"
     stroke="#9dd4e0"
     stroke-width="1.021"
     stroke-miterlimit="10"
     d="M 46.321271,27.046996 14.994214,40.36409"
     id="path10" />
  <path
     fill="none"
     stroke="#9dd4e0"
     stroke-width="1.021"
     stroke-miterlimit="10"
     d="M 45.817845,13.379187 13.467828,27.294667"
     id="path12" />
  <path
     fill="none"
     stroke="#9dd4e0"
     stroke-width="1.021"
     stroke-miterlimit="10"
     d="M 48.659109,39.727 16.091585,53.743905"
     id="path14" />
  <path
     d="m 63.350982,77.882853 2.873728,0.270893 c 1.164713,0.107922 2.128627,1.015552 2.2624,2.177922 0.245852,2.136248 -4.87e-4,5.748827 -3.082666,9.668671 -3.109979,3.954874 -6.543565,5.180834 -8.638161,5.539668 a 2.53,2.53 0 0 1 -2.709692,-1.36249 l -0.898392,-1.831963 z"
     fill="#bf8904"
     id="path16" />
  <path
     d="m 65.52522,86.07116 c -1.009423,-0.224423 -4.198648,2.046131 -5.405576,1.682094 -0.594402,-0.186246 -1.242523,-0.535012 -1.256838,-1.157264 l -5.929206,5.29157 1.122381,2.312306 a 2.51,2.51 0 0 0 2.709689,1.362491 c 2.090371,-0.367898 5.528186,-1.584795 8.638164,-5.53967 0.38981,-0.512785 2.491809,-3.434908 0.121386,-3.951527 z"
     fill="#875d00"
     id="path18" />
  <path
     fill="#ffca28"
     d="M 63.846742,84.79053 62.275794,63.036234 44.284624,48.045076 8.2134546,71.419403 26.178926,87.51489 45.805258,97.021101 Z"
     id="path20" />
  <path
     fill="#e2a610"
     d="M 63.855805,84.786304 45.850784,69.647132 7.9445176,71.765486 25.909988,87.860971 45.536321,97.367184 Z"
     id="path22" />
  <path
     fill="#bf8904"
     d="M 45.767995,69.729874 44.201274,47.984639 24.584003,38.474202 6.5334566,50.708999 8.1092406,72.450005 27.726511,81.960443 Z"
     id="path24" />
  <path
     d="M 45.651649,97.567181 27.666123,81.878265 23.629338,79.965029 c 0.131109,-0.0501 6.479907,-2.359603 11.578167,-10.805541 3.66881,-6.069136 2.890482,-15.570395 2.890482,-15.570395 L 7.9859726,72.540588 25.947217,88.627009 Z"
     fill="#875d00"
     id="path26" />
  <g
     id="g42"
     transform="rotate(65,42.375203,43.049155)">
    <path
       d="m 122.27,105.01 c 0,0 -47.26,-17.71 -47.24,-18.08 l 1.12,-33.66 c 0.02,-0.45 0.47,-0.75 0.89,-0.59 l 46.35,17.12 c 0.38,0.14 0.62,0.51 0.61,0.91 l -1.13,33.9 c -0.01,0.31 -0.31,0.51 -0.6,0.4 z"
       fill="#2f7889"
       id="path28" />
    <path
       d="m 80.32,89.57 41.95,15.44 c 0.28,0.11 0.59,-0.09 0.6,-0.4 L 124,69.95 117.01,67.52 Z"
       fill="#37474f"
       id="path30" />
    <path
       d="M 122.27,105.01 75.58,87.76 a 0.858,0.858 0 0 1 -0.55,-0.83 l 1.12,-33.66 c 0.02,-0.45 0.47,-0.75 0.89,-0.59 l 46.35,17.12 c 0.38,0.14 0.62,0.51 0.61,0.91 l -1.13,33.9 c -0.01,0.31 -0.31,0.51 -0.6,0.4 z"
       fill="none"
       stroke="#9dd4e0"
       stroke-width="2.042"
       stroke-miterlimit="10"
       id="path32" />
    <path
       fill="none"
       stroke="#9dd4e0"
       stroke-width="1.021"
       stroke-miterlimit="10"
       d="M 123.44,87.63 75.6,69.95"
       id="path34" />
    <path
       fill="none"
       stroke="#9dd4e0"
       stroke-width="1.021"
       stroke-miterlimit="10"
       d="M 100.57,62.39 99.4,96.41"
       id="path36" />
    <path
       fill="none"
       stroke="#9dd4e0"
       stroke-width="1.021"
       stroke-miterlimit="10"
       d="m 87.97,57.06 -1.06,35.2"
       id="path38" />
    <path
       fill="none"
       stroke="#9dd4e0"
       stroke-width="1.021"
       stroke-miterlimit="10"
       d="m 113.05,65.63 -1.06,35.44"
       id="path40" />
  </g>
  <path
     d="m 59.419534,71.131838 c 1.422903,-0.663512 1.454586,-3.624305 0.06417,-6.606057 -1.390413,-2.981752 -3.669815,-4.86487 -5.10178,-4.197132 l -2.021067,0.942438 c -1.422904,0.66351 -1.454587,3.624303 -0.06417,6.606056 1.390414,2.981752 3.669816,4.864869 5.101782,4.197132 z"
     fill="#e2a610"
     id="path44" />
  <ellipse
     cx="83.61911"
     cy="-23.790773"
     rx="5.96"
     ry="2.8499999"
     fill="#e2a610"
     id="ellipse46"
     transform="rotate(65)" />
  <ellipse
     cx="83.61911"
     cy="-23.990778"
     rx="5.0100002"
     ry="2.2"
     fill="#ffca28"
     id="ellipse48"
     transform="rotate(65)" />
  <path
     d="m 57.456289,66.51939 c 0,0 -0.44282,-0.0032 -0.759783,-0.682882 -0.316965,-0.67973 -0.03474,-1.020977 -0.03474,-1.020977 0,0 9.43095,-4.099812 10.071986,-4.310461 0.641043,-0.210655 1.020178,0.649728 0.443749,0.951623 -0.580648,0.292827 -9.721213,5.062697 -9.721212,5.062697 z"
     fill="#e2a610"
     id="path50" />
  <path
     d="m 59.419534,71.131838 c 0,0 -1.633652,0.353532 -3.63068,-2.367418 -1.46199,-1.999471 -2.025148,-3.656745 -3.35366,-3.500668 -1.005292,0.115694 -0.749253,2.534071 1.421807,5.107668 1.963319,2.317385 3.333016,1.800058 3.532403,1.707081 z"
     fill="#bf8904"
     id="path52" />
  <g
     id="g72"
     transform="rotate(65,42.375203,43.049155)">
    <path
       d="M 53.94,92.43 36.62,46.49 c 7.54,-2.84 21.56,3.62 26.34,16.3 4.78,12.68 -1.48,26.8 -9.02,29.64 z"
       fill="#9dd4e0"
       id="path54" />
    <path
       d="m 51.7,86.49 2.24,5.94 c 7.54,-2.84 13.81,-16.95 9.02,-29.64 -0.4,-1.06 -0.87,-2.08 -1.4,-3.06 1.9,8.89 -1.6,19.92 -9.86,26.76 z"
       fill="#2f7889"
       id="path56" />
    <ellipse
       transform="rotate(-20.653,45.232,69.563)"
       cx="45.23"
       cy="69.559998"
       rx="13.25"
       ry="23.6"
       fill="#f5f5f5"
       id="ellipse58" />
    <path
       d="M 37.04,68.06 C 33.53,61.5 31.26,51.67 35.61,48.01 c 4.59,-3.86 11.08,0.68 14.34,3.57 1.81,1.6 2.76,2.85 3.7,4.13 5.36,7.3 9.97,21.66 3.79,26.91 -4.31,3.66 -15.15,-4.74 -20.4,-14.56 z"
       fill="#bdbdbd"
       id="path60" />
    <path
       d="m 33.52,73.89 c -4.31,-11.44 -2.57,-23.13 3.81,-25.53 6.38,-2.4 15.4,5.23 19.71,16.67 4.31,11.44 2.57,23.13 -3.81,25.53 -6.38,2.4 -15.4,-5.23 -19.71,-16.67 M 32.18,74.4 C 36.96,87.09 46.95,95.07 54.49,92.22 62.03,89.38 64.27,76.79 59.48,64.1 54.69,51.41 44.71,43.44 37.17,46.28 29.63,49.12 27.4,61.71 32.18,74.4 Z"
       fill="#6392a5"
       id="path62" />
    <path
       fill="none"
       stroke="#6392a5"
       stroke-width="1.5"
       stroke-linecap="round"
       stroke-miterlimit="10"
       d="M 26.72,76.3 52.78,64.76"
       id="path64" />
    <path
       fill="none"
       stroke="#6392a5"
       stroke-width="1.5"
       stroke-linecap="round"
       stroke-miterlimit="10"
       d="M 26.72,76.3 41.91,59.29"
       id="path66" />
    <path
       fill="none"
       stroke="#6392a5"
       stroke-width="1.5"
       stroke-linecap="round"
       stroke-miterlimit="10"
       d="m 26.72,76.3 23.25,3.54"
       id="path68" />
    <path
       d="m 28.4,74.49 0.79,2.08 a 0.85,0.85 0 0 1 -0.5,1.1 l -4.13,1.56 a 0.85,0.85 0 0 1 -1.1,-0.5 l -0.79,-2.08 a 0.85,0.85 0 0 1 0.5,-1.1 L 27.3,74 a 0.85,0.85 0 0 1 1.1,0.49 z"
       fill="#6392a5"
       id="path70" />
  </g>
</svg>
