<?xml version="1.0" encoding="UTF-8" standalone="no"?>
<!-- Uploaded to: SVG Repo, www.svgrepo.com, Generator: SVG Repo Mixer Tools -->

<svg
   width="201.81517mm"
   height="139.07024mm"
   viewBox="0 0 122.04256 84.099166"
   aria-hidden="true"
   role="img"
   class="iconify iconify--noto"
   preserveAspectRatio="xMidYMid"
   version="1.1"
   id="svg74"
   sodipodi:docname="satellite.svg"
   inkscape:version="1.2.1 (9c6d41e410, 2022-07-14)"
   xmlns:inkscape="http://www.inkscape.org/namespaces/inkscape"
   xmlns:sodipodi="http://sodipodi.sourceforge.net/DTD/sodipodi-0.dtd"
   xmlns="http://www.w3.org/2000/svg"
   xmlns:svg="http://www.w3.org/2000/svg">
  <defs
     id="defs78" />
  <sodipodi:namedview
     id="namedview76"
     pagecolor="#505050"
     bordercolor="#ffffff"
     borderopacity="1"
     inkscape:showpageshadow="0"
     inkscape:pageopacity="0"
     inkscape:pagecheckerboard="1"
     inkscape:deskcolor="#505050"
     showgrid="false"
     inkscape:zoom="1.04625"
     inkscape:cx="381.8399"
     inkscape:cy="186.37993"
     inkscape:window-width="1920"
     inkscape:window-height="1017"
     inkscape:window-x="-8"
     inkscape:window-y="-8"
     inkscape:window-maximized="1"
     inkscape:current-layer="svg74"
     inkscape:document-units="mm" />
  <path
     d="m 73.781292,30.720552 c 0,0 47.259998,17.71 47.239998,18.08 l -1.12,33.650008 c -0.02,0.45 -0.47,0.75 -0.89,0.59 L 72.661292,65.920552 c -0.38,-0.14 -0.62,-0.51 -0.61,-0.91 l 1.13,-33.9 c 0.01,-0.3 0.31,-0.5 0.6,-0.39 z"
     fill="#2f7889"
     id="path2" />
  <path
     d="m 115.73129,46.160552 -41.949998,-15.44 c -0.28,-0.11 -0.59,0.09 -0.6,0.4 l -1.13,33.9 7.57,2.85 z"
     fill="#37474f"
     id="path4" />
  <path
     d="m 73.781292,30.720552 46.689998,17.25 a 0.854,0.854 0 0 1 0.55,0.82 l -1.12,33.660008 c -0.02,0.45 -0.47,0.75 -0.89,0.59 L 72.661292,65.920552 c -0.38,-0.14 -0.62,-0.51 -0.61,-0.91 l 1.13,-33.9 c 0.01,-0.3 0.31,-0.5 0.6,-0.39 z"
     fill="none"
     stroke="#9dd4e0"
     stroke-width="2.042"
     stroke-miterlimit="10"
     id="path6" />
  <path
     fill="none"
     stroke="#9dd4e0"
     stroke-width="1.021"
     stroke-miterlimit="10"
     d="m 72.611292,48.090552 47.839998,17.69"
     id="path8" />
  <path
     fill="none"
     stroke="#9dd4e0"
     stroke-width="1.021"
     stroke-miterlimit="10"
     d="m 95.481292,73.340552 1.17,-34.02"
     id="path10" />
  <path
     fill="none"
     stroke="#9dd4e0"
     stroke-width="1.021"
     stroke-miterlimit="10"
     d="m 108.08129,78.66056 1.06,-35.200008"
     id="path12" />
  <path
     fill="none"
     stroke="#9dd4e0"
     stroke-width="1.021"
     stroke-miterlimit="10"
     d="m 83.001292,70.100552 1.06,-35.44"
     id="path14" />
  <path
     d="m 42.211292,67.290552 -1.46,2.49 c -0.59,1.01 -1.82,1.5 -2.93,1.13 -2.04,-0.68 -5.21,-2.43 -7.46,-6.88 -2.27,-4.49 -1.93,-8.12 -1.37,-10.17 a 2.53,2.53 0 0 1 2.38,-1.88 l 2.04,-0.04 z"
     fill="#bf8904"
     id="path16" />
  <path
     d="m 33.871292,65.800552 c 0.63,-0.82 -0.08,-4.67 0.76,-5.61 0.42,-0.46 1.01,-0.9 1.58,-0.65 l -2.29,-7.61 -2.57,0.04 a 2.51,2.51 0 0 0 -2.38,1.88 c -0.55,2.05 -0.9,5.68 1.37,10.17 0.3,0.57 2.06,3.71 3.53,1.78 z"
     fill="#875d00"
     id="path18" />
  <path
     fill="#ffca28"
     d="m 35.741292,64.820552 20.38,7.77 21.19,-9.97 -5.94,-42.57 -22.18,9.48 -16.91,13.77 z"
     id="path20" />
  <path
     fill="#e2a610"
     d="m 35.741292,64.830552 21.33,-9.92 14.1,-35.25 -22.18,9.48 -16.91,13.77 z"
     id="path22" />
  <path
     fill="#bf8904"
     d="m 57.031292,54.800552 20.37,7.77 16.91,-13.76 -3.46,-21.53 -20.37,-7.76 -16.91,13.76 z"
     id="path24" />
  <path
     d="m 31.851292,42.930552 21.82,-9.67 3.44,-2.85 c -0.01,0.14 -0.6,6.87 4.9,15.06 3.95,5.89 12.89,9.2 12.89,9.2 l -4.45,-35.3 -22.17,9.48 z"
     fill="#875d00"
     id="path26" />
  <g
     id="g42"
     transform="rotate(180,62.510646,53.025276)">
    <path
       d="m 122.27,105.01 c 0,0 -47.26,-17.71 -47.24,-18.08 l 1.12,-33.66 c 0.02,-0.45 0.47,-0.75 0.89,-0.59 l 46.35,17.12 c 0.38,0.14 0.62,0.51 0.61,0.91 l -1.13,33.9 c -0.01,0.31 -0.31,0.51 -0.6,0.4 z"
       fill="#2f7889"
       id="path28" />
    <path
       d="m 80.32,89.57 41.95,15.44 c 0.28,0.11 0.59,-0.09 0.6,-0.4 L 124,69.95 117.01,67.52 Z"
       fill="#37474f"
       id="path30" />
    <path
       d="M 122.27,105.01 75.58,87.76 a 0.858,0.858 0 0 1 -0.55,-0.83 l 1.12,-33.66 c 0.02,-0.45 0.47,-0.75 0.89,-0.59 l 46.35,17.12 c 0.38,0.14 0.62,0.51 0.61,0.91 l -1.13,33.9 c -0.01,0.31 -0.31,0.51 -0.6,0.4 z"
       fill="none"
       stroke="#9dd4e0"
       stroke-width="2.042"
       stroke-miterlimit="10"
       id="path32" />
    <path
       fill="none"
       stroke="#9dd4e0"
       stroke-width="1.021"
       stroke-miterlimit="10"
       d="M 123.44,87.63 75.6,69.95"
       id="path34" />
    <path
       fill="none"
       stroke="#9dd4e0"
       stroke-width="1.021"
       stroke-miterlimit="10"
       d="M 100.57,62.39 99.4,96.41"
       id="path36" />
    <path
       fill="none"
       stroke="#9dd4e0"
       stroke-width="1.021"
       stroke-miterlimit="10"
       d="m 87.97,57.06 -1.06,35.2"
       id="path38" />
    <path
       fill="none"
       stroke="#9dd4e0"
       stroke-width="1.021"
       stroke-miterlimit="10"
       d="m 113.05,65.63 -1.06,35.44"
       id="path40" />
  </g>
  <path
     d="m 49.991292,66.580552 c 0,1.57 2.67,2.85 5.96,2.85 3.29,0 5.96,-1.27 5.96,-2.85 v -2.23 c 0,-1.57 -2.67,-2.85 -5.96,-2.85 -3.29,0 -5.96,1.27 -5.96,2.85 z"
     fill="#e2a610"
     id="path44" />
  <ellipse
     cx="-55.951294"
     cy="-66.580551"
     rx="5.96"
     ry="2.8499999"
     fill="#e2a610"
     id="ellipse46"
     transform="scale(-1)" />
  <ellipse
     cx="-55.951294"
     cy="-66.780556"
     rx="5.0100002"
     ry="2.2"
     fill="#ffca28"
     id="ellipse48"
     transform="scale(-1)" />
  <path
     d="m 55.001292,66.750552 c 0,0 0.19,-0.4 0.94,-0.4 0.75,0 0.94,0.4 0.94,0.4 0,0 -0.27,10.28 -0.35,10.95 -0.08,0.670008 -1.02,0.650008 -1.05,0 -0.02,-0.65 -0.48,-10.95 -0.48,-10.95 z"
     fill="#e2a610"
     id="path50" />
  <path
     d="m 49.991292,66.580552 c 0,0 0.37,-1.63 3.68,-2.29 2.43,-0.48 4.17,-0.29 4.59,-1.56 0.32,-0.96 -1.98,-1.75 -5.23,-0.87 -2.93,0.8 -3.04,2.26 -3.04,2.48 z"
     fill="#bf8904"
     id="path52" />
  <g
     id="g72"
     transform="rotate(180,62.510646,53.025276)">
    <path
       d="M 53.94,92.43 36.62,46.49 c 7.54,-2.84 21.56,3.62 26.34,16.3 4.78,12.68 -1.48,26.8 -9.02,29.64 z"
       fill="#9dd4e0"
       id="path54" />
    <path
       d="m 51.7,86.49 2.24,5.94 c 7.54,-2.84 13.81,-16.95 9.02,-29.64 -0.4,-1.06 -0.87,-2.08 -1.4,-3.06 1.9,8.89 -1.6,19.92 -9.86,26.76 z"
       fill="#2f7889"
       id="path56" />
    <ellipse
       transform="rotate(-20.653,45.232,69.563)"
       cx="45.23"
       cy="69.559998"
       rx="13.25"
       ry="23.6"
       fill="#f5f5f5"
       id="ellipse58" />
    <path
       d="M 37.04,68.06 C 33.53,61.5 31.26,51.67 35.61,48.01 c 4.59,-3.86 11.08,0.68 14.34,3.57 1.81,1.6 2.76,2.85 3.7,4.13 5.36,7.3 9.97,21.66 3.79,26.91 -4.31,3.66 -15.15,-4.74 -20.4,-14.56 z"
       fill="#bdbdbd"
       id="path60" />
    <path
       d="m 33.52,73.89 c -4.31,-11.44 -2.57,-23.13 3.81,-25.53 6.38,-2.4 15.4,5.23 19.71,16.67 4.31,11.44 2.57,23.13 -3.81,25.53 -6.38,2.4 -15.4,-5.23 -19.71,-16.67 M 32.18,74.4 C 36.96,87.09 46.95,95.07 54.49,92.22 62.03,89.38 64.27,76.79 59.48,64.1 54.69,51.41 44.71,43.44 37.17,46.28 29.63,49.12 27.4,61.71 32.18,74.4 Z"
       fill="#6392a5"
       id="path62" />
    <path
       fill="none"
       stroke="#6392a5"
       stroke-width="1.5"
       stroke-linecap="round"
       stroke-miterlimit="10"
       d="M 26.72,76.3 52.78,64.76"
       id="path64" />
    <path
       fill="none"
       stroke="#6392a5"
       stroke-width="1.5"
       stroke-linecap="round"
       stroke-miterlimit="10"
       d="M 26.72,76.3 41.91,59.29"
       id="path66" />
    <path
       fill="none"
       stroke="#6392a5"
       stroke-width="1.5"
       stroke-linecap="round"
       stroke-miterlimit="10"
       d="m 26.72,76.3 23.25,3.54"
       id="path68" />
    <path
       d="m 28.4,74.49 0.79,2.08 a 0.85,0.85 0 0 1 -0.5,1.1 l -4.13,1.56 a 0.85,0.85 0 0 1 -1.1,-0.5 l -0.79,-2.08 a 0.85,0.85 0 0 1 0.5,-1.1 L 27.3,74 a 0.85,0.85 0 0 1 1.1,0.49 z"
       fill="#6392a5"
       id="path70" />
  </g>
</svg>
