<svg xmlns="http://www.w3.org/2000/svg" width="428.49" height="894.153" aria-hidden="true" class="iconify iconify--noto" preserveAspectRatio="xMidYMid" viewBox="0 0 68.558 143.064"><path fill="#2f7889" d="M16.865 64.726s-3.922-50.317-3.578-50.455l30.97-13.206a.658.658 0 0 1 .911.557l4.073 49.243a.941.941 0 0 1-.567.937L17.472 65.105a.437.437 0 0 1-.607-.38z"/><path fill="#37474f" d="m13.13 20.181 3.735 44.545c.019.3.331.497.616.375l31.202-13.303-.617-8.065Z"/><path fill="none" stroke="#9dd4e0" stroke-miterlimit="10" stroke-width="2.042" d="M16.865 64.726 12.767 15.12a.854.854 0 0 1 .51-.845l30.98-13.21a.658.658 0 0 1 .911.557l4.073 49.243a.941.941 0 0 1-.567.937L17.472 65.105a.437.437 0 0 1-.607-.38z"/><path fill="none" stroke="#9dd4e0" stroke-miterlimit="10" stroke-width="1.021" d="M33.102 58.445 28.917 7.611M46.321 27.047 14.994 40.364M45.818 13.38l-32.35 13.915M48.66 39.727 16.091 53.744"/><path fill="#bf8904" d="m63.351 77.883 2.874.27c1.164.109 2.128 1.016 2.262 2.179.246 2.136 0 5.748-3.083 9.668-3.11 3.955-6.543 5.181-8.638 5.54a2.53 2.53 0 0 1-2.71-1.362l-.898-1.832z"/><path fill="#875d00" d="M65.525 86.071c-1.01-.224-4.198 2.046-5.405 1.682-.595-.186-1.243-.535-1.257-1.157l-5.93 5.292 1.123 2.312a2.51 2.51 0 0 0 2.71 1.362c2.09-.368 5.528-1.584 8.638-5.54.39-.512 2.492-3.434.121-3.95z"/><path fill="#ffca28" d="m63.847 84.79-1.571-21.754-17.991-14.99L8.213 71.418 26.18 87.515l19.626 9.506Z"/><path fill="#e2a610" d="M63.856 84.786 45.85 69.647 7.945 71.765 25.91 87.861l19.626 9.506Z"/><path fill="#bf8904" d="m45.768 69.73-1.567-21.745-19.617-9.51-18.05 12.234L8.108 72.45l19.618 9.51Z"/><path fill="#875d00" d="M45.652 97.567 27.666 81.878l-4.037-1.913c.131-.05 6.48-2.36 11.579-10.806 3.668-6.069 2.89-15.57 2.89-15.57L7.986 72.541l17.961 16.086Z"/><path fill="#2f7889" d="M19.985 141.644s-3.923-50.316-3.579-50.455l30.98-13.21a.658.658 0 0 1 .91.557l4.073 49.243a.941.941 0 0 1-.567.937L20.601 142.02a.438.438 0 0 1-.616-.375z"/><path fill="#37474f" d="m16.25 97.1 3.735 44.544c.018.3.33.497.616.375l31.89-13.624-.752-7.362Z"/><path fill="none" stroke="#9dd4e0" stroke-miterlimit="10" stroke-width="2.042" d="M19.985 141.644 15.886 92.04a.858.858 0 0 1 .52-.85l30.98-13.21a.658.658 0 0 1 .91.557l4.073 49.243a.941.941 0 0 1-.567.937L20.601 142.02a.438.438 0 0 1-.616-.375z"/><path fill="none" stroke="#9dd4e0" stroke-miterlimit="10" stroke-width="1.021" d="m36.23 135.36-4.194-50.83M49.44 103.965l-31.326 13.317M48.946 90.293l-32.35 13.916M51.778 116.645l-32.567 14.017"/><path fill="#e2a610" d="M59.42 71.132c1.422-.664 1.454-3.624.064-6.606-1.39-2.982-3.67-4.865-5.102-4.197l-2.021.942c-1.423.664-1.455 3.624-.064 6.606 1.39 2.982 3.67 4.865 5.101 4.197z"/><ellipse cx="83.619" cy="-23.791" fill="#e2a610" rx="5.96" ry="2.85" transform="rotate(65)"/><ellipse cx="83.619" cy="-23.991" fill="#ffca28" rx="5.01" ry="2.2" transform="rotate(65)"/><path fill="#e2a610" d="M57.456 66.52s-.443-.004-.76-.683c-.316-.68-.034-1.021-.034-1.021s9.43-4.1 10.072-4.31c.64-.212 1.02.649.444.95-.581.294-9.722 5.063-9.722 5.063z"/><path fill="#bf8904" d="M59.42 71.132s-1.634.353-3.631-2.368c-1.462-2-2.025-3.656-3.354-3.5-1.005.115-.75 2.534 1.422 5.107 1.963 2.318 3.333 1.8 3.532 1.708z"/><g transform="rotate(65 42.375 43.05)"><path fill="#9dd4e0" d="M53.94 92.43 36.62 46.49c7.54-2.84 21.56 3.62 26.34 16.3 4.78 12.68-1.48 26.8-9.02 29.64z"/><path fill="#2f7889" d="m51.7 86.49 2.24 5.94c7.54-2.84 13.81-16.95 9.02-29.64-.4-1.06-.87-2.08-1.4-3.06 1.9 8.89-1.6 19.92-9.86 26.76z"/><ellipse cx="45.23" cy="69.56" fill="#f5f5f5" rx="13.25" ry="23.6" transform="rotate(-20.653 45.232 69.563)"/><path fill="#bdbdbd" d="M37.04 68.06c-3.51-6.56-5.78-16.39-1.43-20.05 4.59-3.86 11.08.68 14.34 3.57 1.81 1.6 2.76 2.85 3.7 4.13 5.36 7.3 9.97 21.66 3.79 26.91-4.31 3.66-15.15-4.74-20.4-14.56z"/><path fill="#6392a5" d="M33.52 73.89c-4.31-11.44-2.57-23.13 3.81-25.53 6.38-2.4 15.4 5.23 19.71 16.67 4.31 11.44 2.57 23.13-3.81 25.53-6.38 2.4-15.4-5.23-19.71-16.67m-1.34.51c4.78 12.69 14.77 20.67 22.31 17.82 7.54-2.84 9.78-15.43 4.99-28.12-4.79-12.69-14.77-20.66-22.31-17.82-7.54 2.84-9.77 15.43-4.99 28.12Z"/><path fill="none" stroke="#6392a5" stroke-linecap="round" stroke-miterlimit="10" stroke-width="1.5" d="m26.72 76.3 26.06-11.54M26.72 76.3l15.19-17.01M26.72 76.3l23.25 3.54"/><path fill="#6392a5" d="m28.4 74.49.79 2.08a.85.85 0 0 1-.5 1.1l-4.13 1.56a.85.85 0 0 1-1.1-.5l-.79-2.08a.85.85 0 0 1 .5-1.1L27.3 74a.85.85 0 0 1 1.1.49z"/></g></svg>