<svg xmlns="http://www.w3.org/2000/svg" width="205.361" height="206.259" version="1.0"><defs><radialGradient id="a" cx="54.65" cy="49.362" r="51.422" gradientTransform="matrix(-.00397 -.88124 .3429 -.00221 41.56 106.933)" gradientUnits="userSpaceOnUse" spreadMethod="reflect"><stop offset="0" style="stop-color:#f4edd3;stop-opacity:0"/><stop offset=".5" style="stop-color:#c1d4eb;stop-opacity:1"/><stop offset=".75" style="stop-color:#9dd4e0;stop-opacity:1"/><stop offset="1" style="stop-color:#c1e4eb;stop-opacity:1"/></radialGradient></defs><path d="M42.074 62.094c0 26.926 7.182 48.776 16.043 48.888l12.523.15c-22.222 2.94-24.08-23.562-24.08-50.488 0-26.994 3.437-49.276 24.158-47.287l-12.522-.15c-8.893 0-16.123 21.893-16.122 48.887z" style="fill:#9dd4e0;fill-opacity:1" transform="rotate(44.829 169.903 49.848) scale(2.63208 2.19733)"/><path d="M40.432 56.481c0 28.384 9.07 51.406 20.271 51.406 11.2 0 20.297-23.022 20.297-51.406s-9.097-51.44-20.297-51.44c-11.2 0-20.27 23.056-20.27 51.44zm2.635.562c0-22.535 7.23-40.812 16.123-40.812s16.096 18.277 16.096 40.812c0 22.536-7.203 40.813-16.096 40.813S43.067 79.58 43.067 57.043z" style="fill:url(#a)" transform="rotate(44.83 186.382 56.658) scale(2.6321)"/></svg>