<svg xmlns="http://www.w3.org/2000/svg" preserveAspectRatio="none" viewBox="0 0 132.557 85.981"><g transform="translate(.133 -46.443)"><path d="M132.292 53.446v78.316c0 .294-.236.53-.53.53H.53a.528.528 0 0 1-.529-.53V53.446Z" style="color:#000;fill:#000;stroke-width:.264583;stroke-linecap:square;-inkscape-stroke:none"/><path d="M-.133 53.314v78.448c0 .364.298.662.662.662h131.233a.664.664 0 0 0 .662-.662V53.314h-.133zm.266 0H132.16v78.448a.396.396 0 0 1-.398.398H.529a.394.394 0 0 1-.396-.398z" style="color:#000;fill:#505050;stroke-linecap:square;-inkscape-stroke:none"/><path d="M.53 19.339h131.233c.293 0 .529.236.529.529v6.35H0v-6.35c0-.293.236-.53.53-.53z" style="color:#000;fill:#323232;stroke-width:.264583;stroke-linecap:square;-inkscape-stroke:none" transform="translate(-.012 27.236)"/><path d="M.53 19.207a.653.653 0 0 0-.651.66v6.483h132.557v-6.483c0-.364-.31-.66-.674-.66zm0 .264h131.232c.222 0 .41.174.41.396v6.484H.144v-6.484c0-.222.163-.396.385-.396z" style="color:#000;fill:#505050;stroke-linecap:square;-inkscape-stroke:none" transform="translate(-.012 27.236)"/><circle cx="14.155" cy="50.147" r="1.587" style="fill:#60c256;fill-opacity:1;stroke:none;stroke-width:.264125;stroke-linecap:square;stroke-miterlimit:4;stroke-dasharray:none;stroke-dashoffset:0;stroke-opacity:1"/><circle cx="8.863" cy="50.147" r="1.587" style="fill:#f5bb4e;fill-opacity:1;stroke:none;stroke-width:.264125;stroke-linecap:square;stroke-miterlimit:4;stroke-dasharray:none;stroke-dashoffset:0;stroke-opacity:1"/><circle cx="3.571" cy="50.147" r="1.587" style="fill:#ee675c;fill-opacity:1;stroke:none;stroke-width:.264125;stroke-linecap:square;stroke-miterlimit:4;stroke-dasharray:none;stroke-dashoffset:0;stroke-opacity:1"/></g></svg>