<svg xmlns="http://www.w3.org/2000/svg" xmlns:xlink="http://www.w3.org/1999/xlink" preserveAspectRatio="none" viewBox="0 0 70 174"><defs><radialGradient xlink:href="#a" id="e" cx="108.97" cy="158.859" r="31.581" fx="108.97" fy="158.859" gradientTransform="matrix(-1.13458 .00203 -.00972 -5.44335 229.698 982.202)" gradientUnits="userSpaceOnUse" spreadMethod="pad"/><radialGradient xlink:href="#b" id="f" cx="104.48" cy="174.384" r="36.359" fx="104.48" fy="174.384" gradientTransform="matrix(-.98547 .00176 -.00844 -4.72797 210.508 909.983)" gradientUnits="userSpaceOnUse"/><radialGradient xlink:href="#c" id="g" cx="105.831" cy="65.906" r="10.734" fx="105.831" fy="65.906" gradientTransform="matrix(2.07949 0 -.0008 .15985 -114.458 54.977)" gradientUnits="userSpaceOnUse"/><linearGradient id="c"><stop offset="0" style="stop-color:#4abaea;stop-opacity:1"/><stop offset="1" style="stop-color:#4abaea;stop-opacity:0"/></linearGradient><linearGradient id="b"><stop offset=".566" style="stop-color:#4bb9e9;stop-opacity:1"/><stop offset="1" style="stop-color:#fff;stop-opacity:0"/></linearGradient><linearGradient id="a"><stop offset="0" style="stop-color:#4bb9e9;stop-opacity:1"/><stop offset="1" style="stop-color:#4bb9e9;stop-opacity:.15675676"/></linearGradient><filter id="d" width="1.073" height="1.027" x="-.036" y="-.014" style="color-interpolation-filters:sRGB"><feGaussianBlur stdDeviation=".967"/></filter></defs><g transform="translate(-69.948 -62.298)"><g style="opacity:.498294;filter:url(#d)" transform="matrix(1.02161 0 0 1.00001 -1.768 -.724)"><path d="m94.67 66 19.577.18 24.471 164.84c-4.937 2.785-18.755 5.845-34.26 6-16.368.162-29.838-3.914-34.26-6z" style="color:#000;fill:url(#e);stroke-width:1.3;stroke-linecap:square;stroke-dasharray:1.3,3.9;-inkscape-stroke:none"/><path d="m97.268 65.342-.014 1.3.65.008 1.3.014.65.008.013-1.3-.648-.007-1.301-.015zm5.2.058-.015 1.301.65.008 1.3.014.65.007.015-1.298-.65-.008-1.3-.016zm5.2.06-.016 1.3.65.008 1.302.013.648.008.016-1.299-.65-.008-1.3-.015zm5.2.06-.016 1.298.494.006.043.328.086.645 1.289-.172-.086-.644-.192-1.444-.968-.012zm-15.75 1.382-.098.643-.196 1.285-.097.643 1.285.195.097-.643.196-1.287.097-.642zm17.987 3.301-1.289.172.086.643.172 1.289.086.644 1.287-.17-.084-.644-.172-1.29zm-18.77 1.84-.097.643-.195 1.285-.098.642 1.285.196.098-.643.195-1.285.098-.643zm19.456 3.314-1.289.172.086.645.17 1.287.086.644 1.289-.17-.086-.644-.172-1.29zm-20.236 1.827-.098.642-.195 1.285-.098.643 1.285.195.098-.642.195-1.286.098-.642zm20.92 3.328-1.29.172.086.644.172 1.29.086.644 1.29-.172-.087-.645-.171-1.289zm-21.702 1.812-.097.643-.196 1.285-.097.643 1.285.195.098-.643.195-1.285.098-.642zm22.387 3.344-1.289.17.086.644.17 1.29.086.644 1.289-.172-.086-.644-.17-1.29zm-23.168 1.797-.097.642-.196 1.286-.095.642 1.285.195.097-.642.194-1.285.097-.643zm23.852 3.357-1.287.17.084.645.172 1.289.085.644 1.29-.172-.086-.642-.172-1.29zm-24.631 1.785-.098.643-.195 1.285-.098.643 1.285.195.098-.643.195-1.285.098-.642zm25.316 3.37-1.289.171.086.645.172 1.287.084.645 1.29-.17-.087-.645-.17-1.289zm-26.097 1.771-.098.643-.195 1.285-.098.642 1.285.196.098-.643.195-1.285.098-.643zm26.783 3.383-1.29.172.087.644.17 1.29.086.642 1.289-.17-.086-.645-.172-1.289zm-27.565 1.758-.097.642-.196 1.285-.097.643 1.285.195.098-.642.195-1.285.098-.643zm28.248 3.396-1.289.172.086.645.172 1.289.086.644 1.287-.172-.084-.644-.172-1.29zM90.87 108.03l-.098.643-.195 1.285-.097.643 1.285.195.097-.643.196-1.285.097-.642zm29.715 3.412-1.29.17.087.645.17 1.289.086.644 1.289-.171-.086-.645-.172-1.287zm-30.496 1.729-.098.643-.193 1.285-.098.644 1.285.194.098-.643.195-1.285.098-.643zm31.18 3.426-1.29.172.086.642.172 1.29.086.644 1.29-.172-.087-.643-.172-1.289zm-31.96 1.717-.097.642-.195 1.285-.098.643 1.285.195.098-.642.195-1.286.098-.642zm32.645 3.437-1.289.172.086.644.17 1.288.086.644 1.289-.17-.086-.644-.17-1.29zm-33.426 1.703-.097.643-.196 1.285-.097.642 1.285.196.098-.643.195-1.285.098-.643zm34.11 3.451-1.287.172.084.645.171 1.289.086.644 1.29-.172-.086-.644-.172-1.29zm-34.89 1.69-.099.642-.195 1.285-.098.643 1.286.195.097-.642.196-1.285.097-.643zm35.575 3.467-1.289.17.086.644.172 1.29.084.644 1.289-.172-.086-.645-.17-1.289zm-36.357 1.673-.098.643-.195 1.285-.098.643 1.285.195.098-.643.195-1.285.098-.642zm37.043 3.48-1.29.17.087.645.17 1.29.085.644 1.29-.172-.086-.645-.172-1.287zm-37.824 1.661-.096.643-.195 1.287-.098.642 1.285.196.098-.645.195-1.285.098-.643zm38.507 3.494-1.289.172.086.645.172 1.287.086.644 1.287-.17-.084-.644-.172-1.29zm-39.287 1.649-.097.642-.196 1.285-.097.643 1.285.195.097-.642.196-1.286.097-.642zm39.973 3.505-1.29.172.087.645.17 1.289.086.642 1.289-.17-.086-.644-.172-1.289zm-40.754 1.635-.098.643-.195 1.285-.098.643 1.286.195.097-.643.196-1.285.097-.642zm41.438 3.52-1.29.172.086.644.172 1.29.086.644 1.29-.172-.087-.645-.172-1.289zm-42.22 1.62-.097.643-.195 1.286-.098.642 1.285.195.098-.642.195-1.285.098-.643zm42.905 3.536-1.289.17.086.644.17 1.29.086.644 1.289-.172-.086-.644-.17-1.287zm-43.685 1.605-.098.643-.195 1.285-.098.643 1.285.195.098-.642.195-1.286.098-.642zm44.369 3.55-1.287.17.084.644.171 1.289.086.644 1.29-.172-.086-.642-.172-1.29zm-45.149 1.593-.097.643-.196 1.285-.097.642 1.285.196.097-.643.196-1.287.097-.643zm45.834 3.56-1.289.172.086.645.172 1.287.084.645 1.289-.17-.086-.645-.17-1.289zm-46.615 1.58-.098.643-.195 1.285-.098.643 1.286.195.097-.642.195-1.285.098-.643zm47.3 3.575-1.288.172.086.644.17 1.29.085.644 1.29-.172-.086-.645-.172-1.289zm-48.081 1.566-.098.643-.195 1.285-.098.643 1.285.195.098-.643.195-1.285.098-.642zm48.765 3.59-1.289.17.086.645.172 1.289.086.644 1.287-.172-.084-.644-.172-1.29zm-49.546 1.55-.098.643-.195 1.286-.098.642 1.285.196.098-.643.195-1.285.098-.643zm50.232 3.604-1.29.17.087.645.17 1.289.086.644 1.289-.171-.086-.645-.17-1.287zm-51.014 1.538-.097.642-.196 1.285-.097.643 1.285.195.097-.642.196-1.286.097-.642zm51.698 3.617-1.29.172.086.642.172 1.29.086.644 1.29-.17-.087-.645-.172-1.289zm-52.477 1.525-.098.643-.195 1.285-.098.642 1.285.196.098-.643.195-1.285.098-.643zm53.162 3.629-1.289.172.086.644.17 1.29.086.642 1.289-.17-.086-.644-.17-1.29zm-53.943 1.512-.098.642-.195 1.285-.098.643 1.285.195.098-.642.195-1.285.098-.643zm54.627 3.642-1.287.172.084.645.171 1.289.086.644 1.29-.172-.086-.644-.172-1.29zm-55.409 1.498-.097.643-.196 1.285-.097.643 1.285.195.098-.643.195-1.285.098-.642zm56.094 3.659-1.289.17.086.644.172 1.29.084.644 1.289-.172-.086-.645-.17-1.289zm-56.875 1.482-.097.643-.196 1.285-.097.642 1.285.196.097-.643.196-1.285.097-.643zm57.56 3.672-1.288.17.086.644.17 1.29.085.644 1.29-.172-.086-.643-.172-1.289zm-58.341 1.469-.098.642-.195 1.287-.098.643 1.287.193.098-.642.193-1.286.098-.642zm59.025 3.685-1.289.172.086.645.172 1.287.086.644 1.287-.17-.084-.644-.172-1.29zm-59.804 1.457-.098.643-.195 1.285-.098.642 1.285.196.098-.643.195-1.285.098-.643zm60.49 3.697-1.29.172.087.645.17 1.289.086.644 1.289-.171-.086-.645-.17-1.289zm-61.272 1.444-.097.642-.196 1.286-.097.642 1.285.195.098-.642.195-1.285.098-.643zm61.955 3.71-1.289.173.086.644.172 1.29.086.644 1.29-.172-.087-.645-.172-1.289zm-62.736 1.43-.098.643-.195 1.285-.097.643 1.285.195.097-.643.196-1.285.097-.642zM136.332 230l-1.289.17c-.43 2.475 1.753 3.314 1.289-.17z" style="color:#000;fill:url(#f);stroke-linecap:square;stroke-dasharray:1.3,3.9;-inkscape-stroke:none"/></g><rect width="40.118" height="3.875" x="85.993" y="63.353" ry="1.248" style="opacity:1;mix-blend-mode:normal;fill:url(#g);fill-opacity:1;stroke:none;stroke-width:2.13217;stroke-linecap:square;stroke-dasharray:2.13217,6.39652;stroke-dashoffset:0;stroke-opacity:1;filter:url(#filter8331)" transform="matrix(.96831 0 0 .98707 2.256 .352)"/></g></svg>