<?xml version="1.0" encoding="UTF-8" standalone="no"?>
<!-- Created with Inkscape (http://www.inkscape.org/) -->

<svg
   preserveAspectRatio="none"
   viewBox="0 0 70 174"
   version="1.1"
   id="svg5"
   inkscape:version="1.2.1 (9c6d41e410, 2022-07-14)"
   sodipodi:docname="ufo-beam.svg"
   xmlns:inkscape="http://www.inkscape.org/namespaces/inkscape"
   xmlns:sodipodi="http://sodipodi.sourceforge.net/DTD/sodipodi-0.dtd"
   xmlns:xlink="http://www.w3.org/1999/xlink"
   xmlns="http://www.w3.org/2000/svg"
   xmlns:svg="http://www.w3.org/2000/svg">
  <sodipodi:namedview
     id="namedview7"
     pagecolor="#505050"
     bordercolor="#ffffff"
     borderopacity="1"
     inkscape:showpageshadow="0"
     inkscape:pageopacity="0"
     inkscape:pagecheckerboard="1"
     inkscape:deskcolor="#505050"
     inkscape:document-units="mm"
     showgrid="false"
     inkscape:zoom="1"
     inkscape:cx="378"
     inkscape:cy="311"
     inkscape:window-width="1920"
     inkscape:window-height="1017"
     inkscape:window-x="-8"
     inkscape:window-y="-8"
     inkscape:window-maximized="1"
     inkscape:current-layer="rect788"
     showguides="false" />
  <defs
     id="defs2">
    <linearGradient
       inkscape:collect="always"
       id="linearGradient8321">
      <stop
         style="stop-color:#4abaea;stop-opacity:1;"
         offset="0"
         id="stop8317" />
      <stop
         style="stop-color:#4abaea;stop-opacity:0;"
         offset="1"
         id="stop8319" />
    </linearGradient>
    <linearGradient
       inkscape:collect="always"
       id="linearGradient7037">
      <stop
         style="stop-color:#4bb9e9;stop-opacity:1;"
         offset="0.56581223"
         id="stop7033" />
      <stop
         style="stop-color:#ffffff;stop-opacity:0;"
         offset="1"
         id="stop7035" />
    </linearGradient>
    <linearGradient
       id="linearGradient7015"
       inkscape:swatch="solid">
      <stop
         style="stop-color:#000000;stop-opacity:1;"
         offset="0"
         id="stop7013" />
    </linearGradient>
    <linearGradient
       inkscape:collect="always"
       id="linearGradient1031">
      <stop
         style="stop-color:#4bb9e9;stop-opacity:1;"
         offset="0"
         id="stop1027" />
      <stop
         style="stop-color:#4bb9e9;stop-opacity:0.15675676;"
         offset="1"
         id="stop1029" />
    </linearGradient>
    <radialGradient
       inkscape:collect="always"
       xlink:href="#linearGradient1031"
       id="radialGradient1035"
       cx="108.96992"
       cy="158.85912"
       fx="108.96992"
       fy="158.85912"
       r="31.580643"
       gradientTransform="matrix(-1.1345815,0.0020252,-0.00971634,-5.4433498,229.69846,982.20237)"
       gradientUnits="userSpaceOnUse"
       spreadMethod="pad" />
    <filter
       inkscape:collect="always"
       style="color-interpolation-filters:sRGB"
       id="filter5017"
       x="-0.036331182"
       y="-0.013703312"
       width="1.0726624"
       height="1.0274066">
      <feGaussianBlur
         inkscape:collect="always"
         stdDeviation="0.96697981"
         id="feGaussianBlur5019" />
    </filter>
    <radialGradient
       inkscape:collect="always"
       xlink:href="#linearGradient7037"
       id="radialGradient7039"
       cx="104.48024"
       cy="174.38441"
       fx="104.48024"
       fy="174.38441"
       r="36.359066"
       gradientTransform="matrix(-0.98547129,0.00175907,-0.00843941,-4.7279679,210.50757,909.98324)"
       gradientUnits="userSpaceOnUse" />
    <radialGradient
       inkscape:collect="always"
       xlink:href="#linearGradient8321"
       id="radialGradient8325"
       cx="105.83098"
       cy="65.906494"
       fx="105.83098"
       fy="65.906494"
       r="10.733871"
       gradientTransform="matrix(2.07949,6.5756034e-7,-7.9155577e-4,0.15984929,-114.45779,54.976762)"
       gradientUnits="userSpaceOnUse" />
    <filter
       inkscape:collect="always"
       style="color-interpolation-filters:sRGB"
       id="filter8331"
       x="-0.01483757"
       y="-0.15362543"
       width="1.0296751"
       height="1.3072509">
      <feGaussianBlur
         inkscape:collect="always"
         stdDeviation="0.24802541"
         id="feGaussianBlur8333" />
    </filter>
  </defs>
  <g
     inkscape:label="Warstwa 1"
     inkscape:groupmode="layer"
     id="layer1"
     transform="translate(-69.947715,-62.298209)">
    <g
       id="rect788"
       style="opacity:0.498294;filter:url(#filter5017)"
       transform="matrix(1.021611,0,0,1.0000112,-1.7681002,-0.7239344)">
      <path
         style="color:#000000;fill:url(#radialGradient1035);stroke-width:1.3;stroke-linecap:square;stroke-dasharray:1.3, 3.9;-inkscape-stroke:none"
         d="m 94.669904,66.000002 19.576926,0.18051 24.47115,164.839048 c -4.93726,2.78585 -18.75511,5.84563 -34.25961,5.99993 -16.368698,0.1629 -29.83809,-3.91306 -34.25962,-5.99993 z"
         id="path7843"
         sodipodi:nodetypes="cccscc" />
      <path
         style="color:#000000;fill:url(#radialGradient7039);stroke-linecap:square;stroke-dasharray:1.3, 3.9;-inkscape-stroke:none"
         d="m 97.267578,65.341797 -0.01367,1.300781 0.650391,0.0078 1.298828,0.01367 0.650391,0.0078 0.01367,-1.300781 -0.648437,-0.0059 -1.300781,-0.01563 z m 5.201172,0.05859 -0.0156,1.300781 0.65039,0.0078 1.29882,0.01367 0.65039,0.0078 0.0156,-1.298828 -0.65039,-0.0078 -1.30078,-0.01563 z m 5.19922,0.06055 -0.0156,1.298829 0.65039,0.0078 1.30079,0.01367 0.64843,0.0078 0.0156,-1.298828 -0.65039,-0.0078 -1.29883,-0.01563 z m 5.19922,0.05859 -0.0156,1.298828 0.49414,0.0059 0.043,0.328125 0.0859,0.644531 1.28906,-0.171875 -0.0859,-0.644531 -0.1914,-1.44336 -0.96875,-0.01172 z m -15.750003,1.382813 -0.09766,0.642578 -0.195312,1.285156 -0.09766,0.642578 1.285157,0.195313 0.09766,-0.642578 0.195312,-1.28711 0.09766,-0.642578 z m 17.988283,3.300781 -1.28906,0.171875 0.0859,0.642578 0.17188,1.289063 0.0859,0.644531 1.28711,-0.169922 -0.084,-0.644531 -0.17187,-1.289063 z m -18.769533,1.839844 -0.09766,0.642578 -0.195312,1.285156 -0.09766,0.642578 1.285157,0.195313 0.09766,-0.642578 0.195312,-1.285157 0.09766,-0.642578 z m 19.455083,3.314453 -1.28907,0.171875 0.0859,0.644531 0.16992,1.287109 0.0859,0.644532 1.28906,-0.169922 -0.0859,-0.644531 -0.17188,-1.289063 z m -20.236333,1.826172 -0.09766,0.642578 -0.195312,1.285156 -0.09766,0.642578 1.285157,0.195313 0.09766,-0.642578 0.195312,-1.285157 0.09766,-0.642578 z m 20.919923,3.328125 -1.28906,0.171875 0.0859,0.644531 0.17188,1.289062 0.0859,0.644532 1.28906,-0.171875 -0.0859,-0.644532 -0.17187,-1.289062 z m -21.701173,1.8125 -0.09766,0.642578 -0.195312,1.285156 -0.09766,0.642578 1.285157,0.195313 0.09766,-0.642578 0.195312,-1.285157 0.09766,-0.642578 z m 22.386723,3.34375 -1.28907,0.169922 0.0859,0.644531 0.16992,1.289062 0.0859,0.644532 1.28906,-0.171875 -0.0859,-0.644532 -0.16993,-1.289062 z m -23.167973,1.796875 -0.09766,0.642578 -0.195312,1.285156 -0.0957,0.642578 1.285156,0.195313 0.09766,-0.642578 0.193359,-1.285157 0.09766,-0.642578 z m 23.851563,3.357422 -1.28711,0.169921 0.084,0.644532 0.17187,1.289062 0.0859,0.644531 1.28906,-0.171875 -0.0859,-0.642578 -0.17187,-1.289062 z m -24.630859,1.785156 -0.09766,0.642578 -0.195312,1.285156 -0.09766,0.642578 1.285156,0.195313 0.09766,-0.642578 0.195313,-1.285157 0.09766,-0.642578 z m 25.316409,3.36914 -1.28907,0.171875 0.0859,0.644532 0.17188,1.287109 0.084,0.644531 1.28906,-0.169922 -0.0859,-0.644531 -0.16993,-1.289062 z m -26.097659,1.771485 -0.09766,0.642578 -0.195312,1.285156 -0.09766,0.642583 1.285156,0.19531 0.09766,-0.64258 0.195313,-1.285157 0.09766,-0.642578 z m 26.783199,3.382817 -1.28906,0.17187 0.0859,0.64454 0.16992,1.28906 0.0859,0.64258 1.28906,-0.16993 -0.0859,-0.64453 -0.17187,-1.28906 z m -27.564449,1.75781 -0.09766,0.64258 -0.195312,1.28516 -0.09766,0.64257 1.285156,0.19532 0.09766,-0.64258 0.195313,-1.28516 0.09766,-0.64258 z m 28.248049,3.39649 -1.28906,0.17187 0.0859,0.64453 0.17188,1.28907 0.0859,0.64453 1.2871,-0.17188 -0.084,-0.64453 -0.17187,-1.28906 z m -29.029299,1.74414 -0.09766,0.64258 -0.195312,1.28515 -0.09766,0.64258 1.285156,0.19531 0.09766,-0.64258 0.195313,-1.28515 0.09766,-0.64258 z m 29.714839,3.41211 -1.28906,0.16992 0.0859,0.64453 0.16992,1.28906 0.0859,0.64453 1.28906,-0.17187 -0.0859,-0.64453 -0.17187,-1.28711 z m -30.496089,1.72851 -0.09766,0.64258 -0.193359,1.28516 -0.09766,0.64453 1.285156,0.19336 0.09766,-0.64258 0.195313,-1.28516 0.09766,-0.64258 z m 31.179689,3.42578 -1.28906,0.17188 0.0859,0.64258 0.17188,1.28906 0.0859,0.64453 1.28906,-0.17187 -0.0859,-0.64258 -0.17187,-1.28907 z m -31.958986,1.7168 -0.09766,0.64258 -0.195312,1.28515 -0.09766,0.64258 1.285156,0.19532 0.09766,-0.64258 0.195313,-1.28516 0.09766,-0.64258 z m 32.644536,3.4375 -1.28907,0.17188 0.0859,0.64453 0.16992,1.28711 0.0859,0.64453 1.28906,-0.16992 -0.0859,-0.64454 -0.16992,-1.28906 z m -33.425786,1.70313 -0.09766,0.64257 -0.195312,1.28516 -0.09766,0.64258 1.285156,0.19531 0.09766,-0.64258 0.195313,-1.28515 0.09766,-0.64258 z m 34.109376,3.45117 -1.28711,0.17187 0.084,0.64453 0.17188,1.28907 0.0859,0.64453 1.28906,-0.17188 -0.0859,-0.64453 -0.17187,-1.28906 z m -34.890626,1.68945 -0.09766,0.64258 -0.195312,1.28515 -0.09766,0.64258 1.285156,0.19531 0.09766,-0.64257 0.195313,-1.28516 0.09766,-0.64258 z m 35.576176,3.4668 -1.28907,0.16992 0.0859,0.64453 0.17188,1.28906 0.084,0.64453 1.28906,-0.17187 -0.0859,-0.64453 -0.16993,-1.28907 z m -36.357426,1.67382 -0.09766,0.64258 -0.195312,1.28516 -0.09766,0.64258 1.285156,0.19531 0.09766,-0.64258 0.195313,-1.28515 0.09766,-0.64258 z m 37.042966,3.48047 -1.28906,0.16993 0.0859,0.64453 0.16992,1.28906 0.0859,0.64453 1.28906,-0.17187 -0.0859,-0.64454 -0.17187,-1.28711 z m -37.824216,1.66016 -0.0957,0.64258 -0.195313,1.28711 -0.09766,0.64258 1.285156,0.19531 0.09766,-0.64453 0.195313,-1.28516 0.09766,-0.64258 z m 38.507816,3.49414 -1.28907,0.17188 0.0859,0.64453 0.17188,1.28711 0.0859,0.64453 1.28711,-0.16992 -0.084,-0.64454 -0.17188,-1.28906 z m -39.287113,1.64844 -0.09766,0.64258 -0.195313,1.28515 -0.09766,0.64258 1.285156,0.19531 0.09766,-0.64258 0.195313,-1.28515 0.09766,-0.64258 z m 39.972653,3.50586 -1.28906,0.17187 0.0859,0.64453 0.16992,1.28907 0.0859,0.64257 1.28906,-0.16992 -0.0859,-0.64453 -0.17187,-1.28906 z m -40.753903,1.63476 -0.09766,0.64258 -0.195313,1.28516 -0.09766,0.64258 1.285156,0.19531 0.09766,-0.64258 0.195313,-1.28516 0.09766,-0.64257 z m 41.437503,3.51953 -1.28907,0.17188 0.0859,0.64453 0.17188,1.28906 0.0859,0.64453 1.28907,-0.17187 -0.0859,-0.64453 -0.17188,-1.28906 z m -42.218753,1.6211 -0.09766,0.64258 -0.195313,1.28515 -0.09766,0.64258 1.285156,0.19531 0.09766,-0.64258 0.195313,-1.28515 0.09766,-0.64258 z m 42.904293,3.53515 -1.28906,0.16993 0.0859,0.64453 0.16992,1.28906 0.0859,0.64453 1.28906,-0.17187 -0.0859,-0.64454 -0.16992,-1.2871 z m -43.685543,1.60547 -0.09766,0.64258 -0.195313,1.28516 -0.09766,0.64258 1.285156,0.19531 0.09766,-0.64258 0.195313,-1.28516 0.09766,-0.64257 z m 44.369143,3.54883 -1.28711,0.16992 0.084,0.64453 0.17188,1.28907 0.0859,0.64453 1.28906,-0.17188 -0.0859,-0.64258 -0.17187,-1.28906 z m -45.14844,1.59375 -0.09766,0.64258 -0.195313,1.28516 -0.09766,0.64257 1.285156,0.19532 0.09766,-0.64258 0.195313,-1.28711 0.09766,-0.64258 z m 45.83398,3.56055 -1.28906,0.17187 0.0859,0.64453 0.17187,1.28711 0.084,0.64453 1.28906,-0.16992 -0.0859,-0.64453 -0.16992,-1.28906 z M 81.5,169.72266 l -0.09766,0.64257 -0.195313,1.28516 -0.09766,0.64258 1.285156,0.19531 0.09766,-0.64258 0.195313,-1.28515 0.09766,-0.64258 z m 47.30078,3.57421 -1.28906,0.17188 0.0859,0.64453 0.16992,1.28906 0.0859,0.64453 1.28906,-0.17187 -0.0859,-0.64453 -0.17187,-1.28906 z m -48.08203,1.56641 -0.09766,0.64258 -0.195313,1.28516 -0.09766,0.64257 1.285156,0.19532 0.09766,-0.64258 0.195313,-1.28516 0.09766,-0.64258 z m 48.76562,3.58984 -1.28906,0.16993 0.0859,0.64453 0.17187,1.28906 0.0859,0.64453 1.28711,-0.17187 -0.084,-0.64453 -0.17188,-1.28907 z m -49.54687,1.55079 -0.09766,0.64257 -0.195313,1.28516 -0.09766,0.64258 1.285156,0.19531 0.09766,-0.64258 0.195313,-1.28515 0.09766,-0.64258 z m 50.23242,3.60351 -1.28906,0.16992 0.0859,0.64453 0.16992,1.28907 0.0859,0.64453 1.28906,-0.17188 -0.0859,-0.64453 -0.16992,-1.28711 z m -51.01367,1.53711 -0.09766,0.64258 -0.195313,1.28516 -0.09766,0.64257 1.285156,0.19532 0.09766,-0.64258 0.195313,-1.28516 0.09766,-0.64258 z m 51.69727,3.61719 -1.28907,0.17187 0.0859,0.64258 0.17188,1.28906 0.0859,0.64454 1.28907,-0.16993 -0.0859,-0.64453 -0.17188,-1.28906 z m -52.476567,1.52539 -0.09766,0.64258 -0.195313,1.28515 -0.09766,0.64258 1.285156,0.19531 0.09766,-0.64257 0.195312,-1.28516 0.09766,-0.64258 z m 53.162107,3.62891 -1.28906,0.17187 0.0859,0.64453 0.16992,1.28906 0.0859,0.64258 1.28906,-0.16992 -0.0859,-0.64453 -0.16992,-1.28906 z m -53.943357,1.51171 -0.09766,0.64258 -0.195313,1.28516 -0.09766,0.64258 1.285156,0.19531 0.09766,-0.64258 0.195312,-1.28516 0.09766,-0.64257 z m 54.626957,3.64258 -1.28711,0.17188 0.084,0.64453 0.17188,1.28906 0.0859,0.64453 1.28907,-0.17187 -0.0859,-0.64453 -0.17188,-1.28907 z m -55.408207,1.49805 -0.09766,0.64258 -0.195313,1.28515 -0.09766,0.64258 1.285156,0.19531 0.09766,-0.64257 0.195312,-1.28516 0.09766,-0.64258 z m 56.093747,3.6582 -1.28906,0.16992 0.0859,0.64454 0.17187,1.28906 0.084,0.64453 1.28906,-0.17188 -0.0859,-0.64453 -0.16992,-1.28906 z m -56.874997,1.48242 -0.09766,0.64258 -0.195313,1.28516 -0.09766,0.64258 1.285156,0.19531 0.09766,-0.64258 0.195312,-1.28516 0.09766,-0.64257 z m 57.560547,3.67188 -1.28906,0.16992 0.0859,0.64453 0.16993,1.28906 0.0859,0.64454 1.28907,-0.17188 -0.0859,-0.64258 -0.17188,-1.28906 z m -58.341797,1.46875 -0.09766,0.64258 -0.195313,1.28711 -0.09766,0.64257 1.287109,0.19336 0.09766,-0.64257 0.193359,-1.28516 0.09766,-0.64258 z m 59.025387,3.68555 -1.28906,0.17187 0.0859,0.64453 0.17187,1.28711 0.0859,0.64453 1.28711,-0.16992 -0.084,-0.64453 -0.17188,-1.28906 z m -59.804684,1.45703 -0.09766,0.64258 -0.195313,1.28515 -0.09766,0.64258 1.285156,0.19531 0.09766,-0.64258 0.195312,-1.28515 0.09766,-0.64258 z m 60.490234,3.69726 -1.28906,0.17188 0.0859,0.64453 0.16992,1.28906 0.0859,0.64453 1.28907,-0.17187 -0.0859,-0.64453 -0.16992,-1.28907 z m -61.271484,1.44336 -0.09766,0.64258 -0.195313,1.28516 -0.09766,0.64257 1.285156,0.19532 0.09766,-0.64258 0.195312,-1.28516 0.09766,-0.64258 z m 61.955074,3.71094 -1.28906,0.17187 0.0859,0.64454 0.17187,1.28906 0.0859,0.64453 1.28906,-0.17188 -0.0859,-0.64453 -0.17188,-1.28906 z m -62.736324,1.42969 -0.09766,0.64258 -0.195313,1.28515 -0.09766,0.64258 1.285156,0.19531 0.09766,-0.64258 0.195312,-1.28515 0.09766,-0.64258 z M 136.33203,230 l -1.28906,0.16992 c -0.43082,2.47532 1.75342,3.31432 1.28906,-0.16992 z"
         id="path7845"
         sodipodi:nodetypes="ccccccccccccccccccccccccccccccccccccccccccccccccccccccccccccccccccccccccccccccccccccccccccccccccccccccccccccccccccccccccccccccccccccccccccccccccccccccccccccccccccccccccccccccccccccccccccccccccccccccccccccccccccccccccccccccccccccccccccccccccccccccccccccccccccccccccccccccccccccccccccccccccccccccccccccccccccccccccccccccccccccccccccccccccccccccccccccccccccccccccccccccccccccccccccccccccccccccccccccccccccccccccccccccccccccccccccccccccccccccccccccccccccccccccccccccccccccccccccccccccccccccccccccccccccccccccccccccccccccccccccccccccccccccccccccccccccccccccccccccccccccccccccccccccccccccccccccccccccccccccccccccc" />
    </g>
    <rect
       style="opacity:1;mix-blend-mode:normal;fill:url(#radialGradient8325);fill-opacity:1;stroke:none;stroke-width:2.13217;stroke-linecap:square;stroke-dasharray:2.13217, 6.39652;stroke-dashoffset:0;stroke-opacity:1;filter:url(#filter8331)"
       id="rect7847"
       width="40.118496"
       height="3.8747556"
       x="85.993164"
       y="63.352955"
       ry="1.2479113"
       transform="matrix(0.96831207,0,0,0.98707075,2.2558947,0.35213768)" />
  </g>
</svg>
