<?xml version="1.0" encoding="UTF-8" standalone="no"?>
<!-- Created with Inkscape (http://www.inkscape.org/) -->

<svg
   width="100"
   height="100"
   viewBox="0 0 100 100"
   version="1.1"
   id="svg809"
   inkscape:version="1.2.1 (9c6d41e410, 2022-07-14)"
   sodipodi:docname="ufo.svg"
   xmlns:inkscape="http://www.inkscape.org/namespaces/inkscape"
   xmlns:sodipodi="http://sodipodi.sourceforge.net/DTD/sodipodi-0.dtd"
   xmlns="http://www.w3.org/2000/svg"
   xmlns:svg="http://www.w3.org/2000/svg">
  <sodipodi:namedview
     id="namedview811"
     pagecolor="#505050"
     bordercolor="#ffffff"
     borderopacity="1"
     inkscape:showpageshadow="0"
     inkscape:pageopacity="0"
     inkscape:pagecheckerboard="1"
     inkscape:deskcolor="#505050"
     inkscape:document-units="mm"
     showgrid="false"
     inkscape:zoom="2.9825758"
     inkscape:cx="1.005842"
     inkscape:cy="77.785116"
     inkscape:window-width="1920"
     inkscape:window-height="1017"
     inkscape:window-x="-8"
     inkscape:window-y="-8"
     inkscape:window-maximized="1"
     inkscape:current-layer="layer1" />
  <defs
     id="defs806" />
  <g
     inkscape:label="Warstwa 1"
     inkscape:groupmode="layer"
     id="layer1">
    <path
       id="path16"
       style="fill:#5fa3dd;fill-opacity:1;fill-rule:nonzero;stroke:none;stroke-width:0.0470002"
       d="m 50.447199,20.651489 v 12.699315 c 1.214829,-0.0138 19.347963,-1.58711 19.830005,-8.343768 l 0.0012,-0.01105 C 70.609483,20.322339 70.17549,12.744836 69.884847,8.6240959 69.771088,7.0121416 68.485458,5.7923358 66.982685,5.8683294 l -0.856148,0.044323 -0.501978,0.026304 c 0,0 -4.436249,6.6358574 -5.165874,9.6834204 -0.250771,1.044435 -2.023815,2.808378 -2.023815,2.809841 -0.07121,0.112044 -0.780861,0.419915 -1.773044,0.774068 -1.872804,0.665925 -4.746867,1.489195 -6.214729,1.44584" />
    <path
       id="path18"
       style="fill:#6acdc9;fill-opacity:1;fill-rule:nonzero;stroke:none;stroke-width:0.0470002"
       d="m 55.808505,22.903549 c 1.052944,0.810118 2.922588,2.218445 4.730543,3.42413 2.343959,-0.749719 4.606295,-1.752249 5.085611,-2.91068 0.89196,-2.155607 0.616252,-13.782241 0.50198,-17.5049857 l -0.50198,0.026304 c 0,0 -4.436247,6.6358567 -5.165872,9.6834217 -0.250771,1.044434 -2.023815,2.808377 -2.023815,2.809839 -0.07121,0.112045 -0.780861,0.419917 -1.773044,0.774069 l -0.853423,3.6979" />
    <path
       id="path20"
       style="fill:#5fa3dd;fill-opacity:1;fill-rule:nonzero;stroke:none;stroke-width:0.0470002"
       d="m 54.679388,27.793977 c 0,0 2.99241,-0.545115 5.85966,-1.466298 -1.807955,-1.205685 -3.677599,-2.614012 -4.730543,-3.42413 l -1.129117,4.890428" />
    <path
       id="path22"
       style="fill:#4a72c1;fill-opacity:1;fill-rule:nonzero;stroke:none;stroke-width:0.0470002"
       d="m 50.447199,23.587011 v 9.763793 c 1.214829,-0.0138 19.347963,-1.58711 19.830005,-8.343768 l 0.0012,-0.01105 c -1.952616,1.661636 -4.296576,3.473332 -5.312783,3.548342 -0.770436,0.05606 -2.565242,-0.972814 -4.426723,-2.216004 -2.86725,0.921183 -5.85966,1.466298 -5.85966,1.466298 l 1.129117,-4.890428 c -0.531902,-0.408713 -0.854772,-0.664949 -0.854772,-0.664949 l -4.506534,1.348411" />
    <path
       id="path24"
       style="fill:#664aa9;fill-opacity:1;fill-rule:nonzero;stroke:none;stroke-width:0.0470002"
       d="m 50.447199,20.652464 v 3.946827 c 0.198621,0.612336 0.399056,2.78353 0.696076,2.78353 2.576579,0 13.304642,-2.634465 13.855596,-3.965337 0.420817,-1.017153 0.624876,-10.906148 0.624876,-17.4796525 l -1.826555,0.1510147 -0.133773,0.1169184 c -2.068252,1.8029156 -3.556063,4.2595754 -4.252139,7.0216744 -0.524203,2.079124 -1.043869,4.141686 -1.043869,4.143635 -0.09075,0.141759 -1.201679,0.807196 -2.609229,1.503323 -1.787107,0.883676 -4.05443,1.815094 -5.310983,1.77807" />
    <path
       id="path26"
       style="fill:#4f2344;fill-opacity:1;fill-rule:nonzero;stroke:none;stroke-width:0.0470002"
       d="m 59.383618,13.337042 v 0 l 0.02764,-0.1096 c -0.009,0.03654 -0.01863,0.07307 -0.02764,0.1096 m 0.02764,-0.1096 c 0.04036,-0.16027 0.08342,-0.320054 0.129248,-0.478375 -0.04576,0.158321 -0.08895,0.318105 -0.129248,0.478375 m 0.130598,-0.483245 c 9.13e-4,-0.0025 0.0012,-0.0048 0.0026,-0.0073 -4.5e-4,0.0025 -0.0012,0.0048 -0.0026,0.0073 m 0.0052,-0.01706 c 4.62e-4,-9.6e-4 9.13e-4,-0.0019 9.13e-4,-0.0029 0,9.6e-4 -4.51e-4,0.0019 -9.13e-4,0.0029" />
    <path
       id="path28"
       style="fill:#8f488f;fill-opacity:1;fill-rule:nonzero;stroke:none;stroke-width:0.0470002"
       d="m 62.723848,14.942664 c -1.105094,-0.561676 -2.202937,-1.141862 -3.34023,-1.605622 0.009,-0.03654 0.01863,-0.07308 0.02764,-0.1096 v 0 0 c 0.04036,-0.16027 0.08342,-0.320054 0.129248,-0.478375 4.5e-4,-0.0015 9e-4,-0.0035 0.0012,-0.0048 9.13e-4,-0.0025 0.0012,-0.0048 0.0026,-0.0073 9e-4,-0.0035 0.0012,-0.0063 0.0026,-0.0098 4.63e-4,-9.6e-4 9.13e-4,-0.0019 9.13e-4,-0.0029 0.15101,-0.517833 0.329669,-1.023974 0.535541,-1.515989 1.00987,0.192908 2.015652,0.465222 3.032322,0.622568 -0.13106,1.068304 -0.263471,2.121994 -0.391793,3.111868" />
    <path
       id="path30"
       style="fill:#4f2344;fill-opacity:1;fill-rule:nonzero;stroke:none;stroke-width:0.0470002"
       d="m 63.607645,6.254475 c 4.5e-4,-4.877e-4 4.5e-4,-4.877e-4 9.13e-4,-9.6e-4 -4.63e-4,4.867e-4 -4.63e-4,4.867e-4 -9.13e-4,9.6e-4 m 0.01285,-0.011184 c 9e-4,-9.6e-4 0.0012,-0.00154 0.0026,-0.0025 -9e-4,9.6e-4 -0.0012,0.00154 -0.0026,0.0025 m 0.01362,-0.011741 c 9.13e-4,-9.6e-4 0.0012,-0.00192 0.0026,-0.0025 -9.13e-4,4.877e-4 -0.0012,0.00154 -0.0026,0.0025 m 0.01285,-0.011741 c 0.0012,-9.6e-4 0.0026,-0.00192 0.0038,-0.00288 -0.0012,9.6e-4 -0.0026,0.00192 -0.0038,0.00288" />
    <path
       id="path32"
       style="fill:#8f488f;fill-opacity:1;fill-rule:nonzero;stroke:none;stroke-width:0.0470002"
       d="m 63.28795,10.413699 c -0.859759,-0.12617 -1.714095,-0.346358 -2.567518,-0.528549 0.75185,-1.3752048 1.726345,-2.6067005 2.887213,-3.630675 4.5e-4,-4.877e-4 4.5e-4,-4.877e-4 9.13e-4,-9.6e-4 0.0038,-0.00346 0.0077,-0.00672 0.01157,-0.010224 9e-4,-9.6e-4 0.0012,-0.00154 0.0026,-0.0025 0.0038,-0.00346 0.0077,-0.00634 0.01028,-0.00922 9.13e-4,-9.6e-4 0.0012,-0.00192 0.0026,-0.0025 0.0026,-0.00346 0.0064,-0.00634 0.01028,-0.00922 0.0012,-9.6e-4 0.0026,-0.00192 0.0038,-0.00288 0.0052,-0.00384 0.009,-0.00778 0.01311,-0.011184 l 0.133773,-0.1169194 c -0.153723,1.3347726 -0.328307,2.8220181 -0.509242,4.3248534" />
    <path
       id="path34"
       style="fill:#4f2344;fill-opacity:1;fill-rule:nonzero;stroke:none;stroke-width:0.0470002"
       d="m 58.561945,16.598462 c 0.08574,-0.340025 0.194534,-0.773097 0.317432,-1.259264 -0.122885,0.486167 -0.231721,0.919239 -0.317432,1.259264" />
    <path
       id="path36"
       style="fill:#8f488f;fill-opacity:1;fill-rule:nonzero;stroke:none;stroke-width:0.0470002"
       d="m 61.987411,19.975822 c -1.105993,-1.053689 -2.418321,-1.84822 -3.552439,-2.872681 0.03213,-0.128601 0.07532,-0.299592 0.126999,-0.504679 0.08574,-0.340025 0.194534,-0.773097 0.317432,-1.259264 0.04846,-0.19437 0.09975,-0.397022 0.15236,-0.605518 1.188529,0.492014 2.331709,1.112146 3.495301,1.69282 -0.204509,1.504784 -0.391793,2.764534 -0.539628,3.549322" />
    <path
       id="path38"
       style="fill:#4f2344;fill-opacity:1;fill-rule:nonzero;stroke:none;stroke-width:0.0470002"
       d="m 55.758182,18.874393 c 0.0038,-0.0019 0.0077,-0.0038 0.01028,-0.0054 -0.0038,0.0015 -0.0077,0.0035 -0.01028,0.0054 m 0.509691,-0.257212 c 0.0026,-0.0015 0.0052,-0.0025 0.0077,-0.0038 -0.0026,0.0015 -0.0052,0.0025 -0.0077,0.0038 m 0.01028,-0.0054 c 0.0038,-0.0019 0.0077,-0.0038 0.01157,-0.0058 -0.0038,0.0019 -0.0077,0.0038 -0.01157,0.0058 m 0.01311,-0.0063 c 0.405393,-0.209471 0.773612,-0.4092 1.084232,-0.58652 v 0 c -0.31062,0.17732 -0.678839,0.377049 -1.084232,0.58652" />
    <path
       id="path40"
       style="fill:#8f488f;fill-opacity:1;fill-rule:nonzero;stroke:none;stroke-width:0.0470002"
       d="m 57.941606,22.239087 -2.183424,-3.364694 v 0 c 0.0038,-0.0019 0.0077,-0.0038 0.01028,-0.0054 0.17096,-0.08476 0.337832,-0.169039 0.498817,-0.251852 0.0026,-0.0015 0.0052,-0.0025 0.0077,-0.0038 9.12e-4,-4.87e-4 0.0012,-9.6e-4 0.0026,-0.0015 0.0038,-0.0019 0.0077,-0.0038 0.01157,-0.0058 4.51e-4,-4.88e-4 9.13e-4,-4.88e-4 0.0012,-4.88e-4 0.405394,-0.209471 0.773613,-0.409199 1.084232,-0.586032 1.242491,1.152092 2.719878,2.002156 3.907057,3.212705 -0.670676,0.36828 -1.903654,0.711715 -3.340679,1.006924" />
    <path
       id="path42"
       style="fill:#5fa3dd;fill-opacity:1;fill-rule:nonzero;stroke:none;stroke-width:0.0470002"
       d="m 47.22488,20.651489 v 12.699315 c -1.214829,-0.0138 -19.347963,-1.58711 -19.829993,-8.343768 l -0.0012,-0.01105 C 27.062608,20.322339 27.496601,12.744836 27.787245,8.6240959 27.901133,7.0121416 29.186647,5.7923358 30.68942,5.8683294 l 0.856147,0.044323 0.501979,0.026304 c 0,0 4.436248,6.6358574 5.165873,9.6834204 0.250758,1.044435 2.023801,2.808378 2.023801,2.809841 0.07121,0.112044 0.780875,0.419915 1.773045,0.774068 1.872817,0.665925 4.746867,1.489195 6.214729,1.44584" />
    <path
       id="path44"
       style="fill:#6acdc9;fill-opacity:1;fill-rule:nonzero;stroke:none;stroke-width:0.0470002"
       d="m 41.863573,22.903549 c -1.052944,0.810118 -2.922574,2.218445 -4.730543,3.42413 C 34.789084,25.57796 32.526749,24.57543 32.047431,23.416999 31.155472,21.261392 31.43118,9.634758 31.545453,5.9120133 l 0.501978,0.026304 c 0,0 4.436248,6.6358567 5.165873,9.6834217 0.250758,1.044434 2.023802,2.808377 2.023802,2.809839 0.07121,0.112045 0.780875,0.419917 1.773044,0.774069 l 0.853423,3.6979" />
    <path
       id="path46"
       style="fill:#5fa3dd;fill-opacity:1;fill-rule:nonzero;stroke:none;stroke-width:0.0470002"
       d="m 42.992704,27.793977 c 0,0 -2.991961,-0.545115 -5.859674,-1.466298 1.807969,-1.205685 3.678049,-2.614012 4.730543,-3.42413 l 1.129131,4.890428" />
    <path
       id="path48"
       style="fill:#4a72c1;fill-opacity:1;fill-rule:nonzero;stroke:none;stroke-width:0.0470002"
       d="m 47.22488,23.587011 v 9.763793 c -1.214829,-0.0138 -19.347963,-1.58711 -19.829993,-8.343768 l -0.0012,-0.01105 c 1.952616,1.661636 4.296576,3.473332 5.312796,3.548342 0.770436,0.05606 2.565242,-0.972814 4.42671,-2.216004 2.867712,0.921183 5.859673,1.466298 5.859673,1.466298 l -1.129168,-4.890425 c 0.531916,-0.408713 0.854786,-0.664949 0.854786,-0.664949 l 4.506521,1.348411" />
    <path
       id="path50"
       style="fill:#664aa9;fill-opacity:1;fill-rule:nonzero;stroke:none;stroke-width:0.0470002"
       d="m 47.225343,20.652464 v 3.946827 c -0.199072,0.612336 -0.399506,2.78353 -0.696526,2.78353 -2.57658,0 -13.304644,-2.634465 -13.855609,-3.965337 C 32.252404,22.400331 32.048344,12.511336 32.048344,5.9378315 l 1.826556,0.1510147 0.13376,0.1169184 c 2.068251,1.8029156 3.556075,4.2595754 4.252139,7.0216744 0.524203,2.079124 1.043882,4.141686 1.043882,4.143635 0.09062,0.141759 1.201679,0.807196 2.609229,1.503323 1.787106,0.883676 4.054879,1.815094 5.311433,1.77807" />
    <path
       id="path52"
       style="fill:#4f2344;fill-opacity:1;fill-rule:nonzero;stroke:none;stroke-width:0.0470002"
       d="m 38.28846,13.337042 c -0.009,-0.03654 -0.01863,-0.07308 -0.02764,-0.1096 l 0.02764,0.1096 v 0 m -0.02764,-0.1096 C 38.20555,13.007254 38.144747,12.7895 38.079435,12.57321 c 0.0653,0.21629 0.126099,0.434044 0.181385,0.654232 m -0.182747,-0.659103 c -8.99e-4,-0.0019 -0.0012,-0.0044 -0.0026,-0.0063 9e-4,0.0019 0.0012,0.0044 0.0026,0.0063 m -0.0052,-0.01754 c 0,-4.88e-4 0,-4.88e-4 0,-4.88e-4 0,0 0,0 0,4.88e-4" />
    <path
       id="path54"
       style="fill:#8f488f;fill-opacity:1;fill-rule:nonzero;stroke:none;stroke-width:0.0470002"
       d="m 34.948244,14.942664 c -0.128284,-0.989874 -0.260746,-2.043563 -0.391793,-3.111868 1.016669,-0.157346 2.022452,-0.429659 3.032322,-0.622567 0.182734,0.436479 0.344168,0.884651 0.483842,1.342078 0,0 0,0 0,4.88e-4 8.99e-4,0.0035 0.0026,0.0073 0.0026,0.01118 9e-4,0.0019 0.0012,0.0044 0.0026,0.0063 4.62e-4,0.0019 9.13e-4,0.0035 0.0012,0.0048 0.0653,0.21629 0.126099,0.434043 0.181384,0.654231 v 0 c 0.009,0.03654 0.01863,0.07308 0.02764,0.1096 -1.137292,0.463761 -2.235123,1.043947 -3.340216,1.605623" />
    <path
       id="path56"
       style="fill:#4f2344;fill-opacity:1;fill-rule:nonzero;stroke:none;stroke-width:0.0470002"
       d="m 34.092108,6.2788321 c -9.12e-4,-4.867e-4 -9.12e-4,-4.867e-4 -0.0012,-0.00154 4.5e-4,4.877e-4 9.01e-4,9.6e-4 0.0012,0.00154 m -0.01285,-0.011184 c -0.0012,-0.00154 -0.0026,-0.0025 -0.0052,-0.00442 0.0012,0.00192 0.0026,0.00288 0.0052,0.00442 m -0.01311,-0.011741 c -0.0012,-0.00154 -0.0038,-0.00288 -0.0052,-0.0048 0.0012,0.00192 0.0038,0.00346 0.0052,0.0048 m -0.01285,-0.011184 c -0.0012,-0.00154 -0.0038,-0.00346 -0.0064,-0.0048 0.0012,0.00154 0.0038,0.00346 0.0064,0.0048 m -0.01362,-0.011741 c -0.0012,-0.00192 -0.0038,-0.00346 -0.0052,-0.0048 0.0012,0.00154 0.0038,0.00288 0.0052,0.0048 m -0.01311,-0.011741 c -0.0012,-0.00154 -0.0038,-0.00288 -0.0052,-0.00442 0.0012,0.00154 0.0038,0.00288 0.0052,0.00442" />
    <path
       id="path58"
       style="fill:#8f488f;fill-opacity:1;fill-rule:nonzero;stroke:none;stroke-width:0.0470002"
       d="M 34.384129,10.413699 C 34.203207,8.9108633 34.028622,7.4236178 33.8749,6.0888462 l 0.13376,0.1169184 c 0.0038,0.00346 0.009,0.0073 0.01285,0.011184 0.0012,0.00154 0.0038,0.00288 0.0052,0.00442 0.0026,0.0025 0.0052,0.00442 0.0077,0.00672 0.0012,0.00154 0.0038,0.00288 0.0052,0.0048 0.0026,0.0025 0.0052,0.00442 0.0077,0.00672 0.0012,0.00154 0.0038,0.00346 0.0064,0.0048 0.0026,0.00192 0.0052,0.00442 0.0077,0.00634 0.0012,0.00192 0.0038,0.00346 0.0052,0.0048 0.0026,0.00288 0.0064,0.00538 0.009,0.0073 0.0012,0.00192 0.0026,0.00288 0.0052,0.00442 0.0038,0.00346 0.0077,0.00634 0.01157,0.0098 4.49e-4,9.6e-4 4.49e-4,9.6e-4 0.0012,0.00154 1.148617,1.0191025 2.113587,2.2418305 2.859536,3.606317 -0.853423,0.1821914 -1.707745,0.4023794 -2.567517,0.5285504" />
    <path
       id="path60"
       style="fill:#4f2344;fill-opacity:1;fill-rule:nonzero;stroke:none;stroke-width:0.0470002"
       d="m 38.969561,16.040196 c -0.02995,-0.118866 -0.0617,-0.244545 -0.09435,-0.374125 0.03265,0.130064 0.0644,0.254775 0.09435,0.374125" />
    <path
       id="path62"
       style="fill:#8f488f;fill-opacity:1;fill-rule:nonzero;stroke:none;stroke-width:0.0470002"
       d="m 35.684668,19.975822 c -0.147822,-0.784788 -0.335107,-2.044538 -0.539615,-3.549322 1.163579,-0.580674 2.306772,-1.200806 3.495302,-1.69282 0.08304,0.328821 0.161884,0.643028 0.234896,0.932391 0.03265,0.129582 0.0644,0.255263 0.09435,0.374125 0.115687,0.459376 0.209047,0.830578 0.267546,1.062945 -1.134105,1.024461 -2.446433,1.818992 -3.552438,2.872681" />
    <path
       id="path64"
       style="fill:#4f2344;fill-opacity:1;fill-rule:nonzero;stroke:none;stroke-width:0.0470002"
       d="m 41.91391,18.874393 c -0.0026,-0.0019 -0.0064,-0.0035 -0.01028,-0.0048 0.0026,0.0015 0.0064,0.0029 0.01028,0.0048 m -0.579978,-0.293261 c -9.13e-4,-9.6e-4 -0.0012,-0.0015 -0.0026,-0.0019 9.13e-4,4.88e-4 0.0012,9.6e-4 0.0026,0.0019 m -0.0077,-0.0044 c -0.38363,-0.198754 -0.732799,-0.388739 -1.029369,-0.55729 0,-4.87e-4 0,-4.87e-4 0,-4.87e-4 0.29657,0.169038 0.645739,0.359511 1.029369,0.557777" />
    <path
       id="path66"
       style="fill:#8f488f;fill-opacity:1;fill-rule:nonzero;stroke:none;stroke-width:0.0470002"
       d="m 39.730486,22.239087 c -1.437039,-0.295209 -2.669554,-0.638645 -3.34068,-1.006925 1.187166,-1.210549 2.665016,-2.060613 3.907044,-3.213192 0.29657,0.169039 0.645739,0.359024 1.02937,0.557778 0.0012,9.6e-4 0.0026,0.0019 0.0052,0.0025 9.13e-4,4.87e-4 0.0012,9.6e-4 0.0026,0.0019 0.182746,0.0945 0.373656,0.19096 0.570003,0.288388 0.0026,0.0015 0.0064,0.0029 0.01028,0.0048 v 0 l -2.183425,3.364694" />
    <path
       id="path68"
       style="fill:#475fb5;fill-opacity:1;fill-rule:nonzero;stroke:none;stroke-width:0.0470002"
       d="m 86.268163,85.301657 c 0.380007,0.819859 0.28704,1.75176 -0.249408,2.497574 -1.283753,1.786359 -3.826321,5.294266 -6.18253,8.373015 C 78.96149,97.316537 77.512678,98 75.96183,98 H 74.170648 L 73.611971,92.183993 73.46596,90.646582 H 42.258092 c -0.595403,0 -17.037248,0 -17.037248,0 L 25.139724,92.27072 24.855221,98 h -1.806602 c -1.511669,0 -2.931738,-0.653261 -3.816719,-1.755178 -2.478091,-3.09335 -5.165776,-6.634387 -6.522632,-8.436826 -0.567328,-0.753609 -0.673438,-1.709385 -0.28287,-2.548723 0.107332,-0.230429 0.227639,-0.484714 0.359778,-0.758486 0.07845,-0.166109 0.164563,-0.337104 0.250631,-0.519773 0.530008,-1.088287 1.062648,-2.174126 1.600411,-3.257534 0.973724,-1.972928 1.960508,-3.939034 2.957812,-5.902212 1.934478,-3.824076 3.897843,-7.636939 5.860846,-11.45175 0.493504,-0.961628 3.994339,-9.503663 4.962934,-9.503663 0.187734,0 41.843885,0 41.843885,0 3.73836,6.880398 7.356546,13.950792 10.852311,20.950539 0.984471,1.968052 1.958053,3.931728 2.921661,5.883708 0.386356,0.783813 0.769983,1.56568 1.153618,2.345102 0.03677,0.07456 0.07296,0.147118 0.109766,0.219707 0.02582,0.05846 0.05222,0.112541 0.07843,0.166109 0.353712,0.725847 0.653904,1.361568 0.889699,1.870637" />
    <path
       id="path70"
       style="fill:#33419f;fill-opacity:1;fill-rule:nonzero;stroke:none;stroke-width:0.0470002"
       d="M 81.115003,74.816394 55.042606,75.960698 H 43.555457 l -25.960433,-1.13943 c -0.997304,1.963178 -1.984088,3.929284 -2.957267,5.902212 1.166582,0.358545 2.324866,0.734129 3.478207,1.125787 3.877303,1.31773 2.527701,6.744489 2.782957,9.431088 0.205464,2.16096 1.437073,4.470019 2.42744,6.719645 h 1.53026 c 0.169369,-3.409508 0.364722,-7.342215 0.365266,-7.353418 0.04675,0 16.441715,0 17.036205,0 l 0.321056,-4.8e-4 13.439766,4.8e-4 h 17.446597 l 0.03947,0.410659 0.107975,1.126272 L 74.170721,98 h 1.928578 c 0.114274,-0.385815 0.228546,-0.771149 0.34282,-1.156964 0.724188,-2.441078 2.079588,-4.781798 2.128563,-7.351958 0.04306,-2.233056 -1.477387,-5.109149 0.668864,-6.924735 1.218903,-1.03128 3.260855,-1.395169 4.79719,-1.866241 -0.963608,-1.95198 -1.937191,-3.915656 -2.921661,-5.883708" />
    <path
       id="path72"
       style="fill:#4f65b9;fill-opacity:1;fill-rule:nonzero;stroke:none;stroke-width:0.0470002"
       d="m 19.83609,94.148652 c 0,0 -5.928139,-4.755974 -5.927413,-7.306656 1.81e-4,-1.085837 1.055166,-2.916528 1.055166,-2.916528 0,0 2.167968,-0.118339 3.12836,1.122874 0.459677,0.594307 0.09568,2.704128 0.4078,4.742333 0.340099,2.221363 1.336087,4.357977 1.336087,4.357977" />
    <path
       id="path74"
       style="fill:#4f65b9;fill-opacity:1;fill-rule:nonzero;stroke:none;stroke-width:0.0470002"
       d="m 79.013639,94.228534 c 0,0 5.761725,-4.917696 5.672839,-7.467408 -0.03766,-1.085357 -1.154968,-2.886317 -1.154968,-2.886317 0,0 -2.171186,-0.05846 -3.088545,1.209581 -0.438955,0.606489 -0.0026,2.705107 -0.243972,4.751097 -0.263457,2.229658 -1.185354,4.393047 -1.185354,4.393047" />
    <path
       id="path76"
       style="fill:#cb3759;fill-opacity:1;fill-rule:nonzero;stroke:none;stroke-width:0.0470002"
       d="m 55.380438,10.460465 c -0.05399,0.26939 -0.121472,0.532933 -0.204059,0.789658 -1.065181,3.355925 -4.41946,5.430666 -7.847651,4.707259 -3.687573,-0.778454 -6.063719,-4.503147 -5.305533,-8.3169857 0.101548,-0.5100393 0.253946,-0.9971808 0.452105,-1.455096 1.27469,-2.9608522 4.405861,-4.716027 7.599605,-4.0413351 3.688936,0.7784544 6.063733,4.5011991 5.305533,8.3164998" />
    <path
       id="path78"
       style="fill:#f14d54;fill-opacity:1;fill-rule:nonzero;stroke:none;stroke-width:0.0470002"
       d="m 54.354706,8.1289999 c 0.04846,2.7884041 -2.099988,5.0940511 -4.797654,5.1476371 -1.340889,0.02679 -2.567068,-0.506628 -3.464015,-1.396639 -0.908746,-0.895368 -1.484187,-2.1536579 -1.508224,-3.5561412 -0.01863,-1.0575869 0.279333,-2.0440512 0.801724,-2.8658602 0.857048,-1.3474359 2.321285,-2.2486503 3.995931,-2.2817761 2.697665,-0.054077 4.924163,2.1638881 4.972238,4.9527794" />
    <path
       id="path80"
       style="fill:#5fa3dd;fill-opacity:1;fill-rule:nonzero;stroke:none;stroke-width:0.0470002"
       d="m 60.136381,33.49744 c 0,0 -2.018378,0.02527 -4.840279,0.05109 -0.556865,0.0056 -1.145456,0.01105 -1.75582,0.02003 -1.434762,0.01105 -2.994222,0.02237 -4.556407,0.03411 -0.408118,0 -0.816687,0.0028 -1.222542,0.0056 -1.55176,0.0083 -3.074034,0.01105 -4.442585,0.01105 -0.42173,0 -0.829848,0 -1.219829,-0.0028 -2.262323,-0.0083 -3.917469,-0.03701 -4.264826,-0.09942 0.233534,-0.641071 0.46163,-1.265104 0.687001,-1.877923 0.888334,-2.424515 1.694596,-4.606908 2.373883,-6.419089 0.201334,-0.535365 0.392244,-1.037123 0.570003,-1.504292 0.899222,-2.353386 1.485099,-3.797765 1.620685,-3.929293 0.323319,-0.302028 0.917358,-0.532447 1.670558,-0.700999 0.496091,-0.113507 1.058382,-0.199241 1.660583,-0.259159 0.686551,-0.07113 1.418901,-0.111065 2.150788,-0.125191 0.304733,-0.0058 0.609902,-0.0058 0.912372,0 0.705588,0.0083 1.387138,0.04287 2.00249,0.09402 0.493379,0.04286 0.941396,0.09694 1.32594,0.165141 0.625776,0.108633 1.079243,0.245032 1.26244,0.401893 0.127384,0.10815 0.684275,1.31626 1.540873,3.305262 0.172772,0.396048 0.355519,0.826194 0.54914,1.281674 0.822136,1.932008 1.840619,4.376491 2.983798,7.140537 0.320595,0.780402 0.652539,1.583699 0.991734,2.407462" />
    <path
       id="path82"
       style="fill:#6acdc9;fill-opacity:1;fill-rule:nonzero;stroke:none;stroke-width:0.0470002"
       d="m 55.611709,22.667771 c -0.588602,0.524166 -1.233428,0.999618 -1.928128,1.41856 -0.434881,0.262084 -0.891061,0.504192 -1.363115,0.720975 -0.959983,0.438912 -1.992078,0.780886 -3.076759,1.008869 -0.352794,0.0736 -0.707862,0.133945 -1.071531,0.18171 -0.673401,0.09155 -1.365839,0.1398 -2.068714,0.1398 -0.405843,0 -0.808524,-0.01698 -1.206666,-0.04819 -0.472055,-0.03411 -0.935946,-0.09404 -1.389864,-0.170994 -0.909646,-0.156854 -1.782119,-0.390194 -2.611955,-0.698075 0.201334,-0.535366 0.392244,-1.037123 0.570003,-1.504292 0.899222,-2.353386 1.485099,-3.797765 1.620685,-3.929294 0.323319,-0.302027 0.917358,-0.532447 1.670558,-0.700998 0.496091,-0.113507 1.058382,-0.199241 1.660583,-0.259159 0.686551,-0.07113 1.418901,-0.111065 2.150788,-0.125191 0.304733,-0.0058 0.609902,-0.0058 0.912372,0 0.705588,0.0083 1.387138,0.04287 2.00249,0.09402 0.493379,0.04286 0.941396,0.09694 1.32594,0.165141 0.625776,0.108633 1.079243,0.245032 1.26244,0.401893 0.127384,0.10815 0.684275,1.31626 1.540873,3.305262" />
    <path
       id="path84"
       style="fill:#f35e5b;fill-opacity:1;fill-rule:nonzero;stroke:none;stroke-width:0.0470002"
       d="m 52.735384,8.138742 c -0.508792,0 -1.069268,-0.4101735 -1.384876,-0.7667617 -0.707863,-0.800376 -0.978133,-2.2335485 -0.395881,-2.7206919 0.149198,-0.1251907 0.34872,-0.1831651 0.571815,-0.1831651 0.648464,0 1.495537,0.4900647 1.883693,1.2402653 0.429429,0.8286288 0.339194,2.0533057 -0.336019,2.3597194 -0.107461,0.0492 -0.221734,0.070637 -0.338732,0.070637" />
    <path
       id="path86"
       style="fill:#d2495f;fill-opacity:1;fill-rule:nonzero;stroke:none;stroke-width:0.0470002"
       d="m 47.970829,15.0815 c -2.718515,0 -5.87916,-3.609727 -5.353594,-5.6990819 0.235796,-0.9382368 1.201229,-1.5150134 2.012927,-1.8457834 -0.03444,0.2567242 -0.04987,0.5197815 -0.04538,0.7872221 0.02404,1.4024833 0.599477,2.6607732 1.508224,3.5561412 0.875185,0.868577 2.064164,1.397613 3.367429,1.397613 0.03213,0 0.0644,-4.87e-4 0.09653,-9.6e-4 0.469329,-0.0092 0.921434,-0.08671 1.348601,-0.223112 -0.483841,0.864678 -1.180816,1.55983 -1.960778,1.855038 -0.312895,0.118383 -0.639839,0.172937 -0.974046,0.172937" />
    <path
       id="path88"
       style="fill:#f35e5b;fill-opacity:1;fill-rule:nonzero;stroke:none;stroke-width:0.0470002"
       d="m 49.460466,13.277611 c -1.303265,0 -2.492244,-0.529036 -3.367429,-1.397613 -0.908746,-0.895368 -1.484187,-2.1536579 -1.508224,-3.5561412 -0.0052,-0.2674406 0.01028,-0.5304979 0.04538,-0.7872221 0.501978,-0.2050867 0.945021,-0.3151814 1.120055,-0.3590236 0.46208,-0.1149725 1.083332,-0.20801 1.74992,-0.20801 1.336365,0 2.853651,0.3731501 3.628175,1.6855133 0.766799,1.2996961 0.529641,3.0543846 -0.222659,4.3984106 -0.427168,0.136404 -0.879272,0.213856 -1.348602,0.223112 -0.03213,4.87e-4 -0.0644,9.6e-4 -0.09653,9.6e-4" />
    <path
       id="path90"
       style="fill:#d2495f;fill-opacity:1;fill-rule:nonzero;stroke:none;stroke-width:0.0470002"
       d="m 44.733098,6.6714693 c -0.07661,0 -0.148285,-0.01607 -0.212671,-0.051629 -0.489741,-0.2693895 -0.520578,-1.6377735 0.09705,-2.4649412 0.487016,-0.6527722 1.345889,-0.9255706 2.022452,-0.9255706 0.453917,0 0.826211,0.12276 0.949096,0.3366144 -0.904659,0.3916637 -1.670559,1.0561249 -2.202475,1.8920622 -0.235795,0.3712032 -0.426254,0.7765056 -0.56184,1.2066528 -0.03124,0.00442 -0.0617,0.00672 -0.09165,0.00672" />
    <path
       id="path92"
       style="fill:#f35e5b;fill-opacity:1;fill-rule:nonzero;stroke:none;stroke-width:0.0470002"
       d="m 44.824697,6.6646494 c 0.135584,-0.4301472 0.326044,-0.8354496 0.56184,-1.2066528 0.531916,-0.8359373 1.297815,-1.5003984 2.202474,-1.8920621 0.0012,0.00288 0.0038,0.00634 0.0052,0.0098 0.294295,0.5519318 -0.996271,1.7931716 -1.236604,2.0245642 -0.355969,0.3424608 -1.02982,0.9903619 -1.533161,1.0644067" />
    <path
       id="path94"
       style="fill:#4a72c1;fill-opacity:1;fill-rule:nonzero;stroke:none;stroke-width:0.0470002"
       d="m 45.19064,25.47177 -1.460149,6.968567 c -0.390431,0 -0.768175,0 -1.129131,-0.0028 l 1.303253,-7.124467 c 0.419917,0.07112 0.849347,0.126626 1.286027,0.158331" />
    <path
       id="path96"
       style="fill:#5fa3dd;fill-opacity:1;fill-rule:nonzero;stroke:none;stroke-width:0.0470002"
       d="m 46.416806,18.826652 -1.52001,7.262812 c -0.472055,-0.03411 -0.935946,-0.09404 -1.389864,-0.170993 l 1.249291,-6.832659 c 0.496091,-0.113508 1.058382,-0.199242 1.660583,-0.25916" />
    <path
       id="path98"
       style="fill:#4a72c1;fill-opacity:1;fill-rule:nonzero;stroke:none;stroke-width:0.0470002"
       d="m 49.21332,25.218448 -0.240333,7.206299 c -0.377731,0 -0.755925,0.0028 -1.131393,0.0056 l 0.380456,-7.042624 c 0.33602,-0.04432 0.665238,-0.09984 0.99127,-0.16855" />
    <path
       id="path100"
       style="fill:#5fa3dd;fill-opacity:1;fill-rule:nonzero;stroke:none;stroke-width:0.0470002"
       d="m 49.479966,18.701456 -0.236259,7.114719 c -0.352794,0.0736 -0.707862,0.133945 -1.071531,0.18171 l 0.395418,-7.296429 c 0.304733,-0.0058 0.609902,-0.0058 0.912372,0" />
    <path
       id="path102"
       style="fill:#4a72c1;fill-opacity:1;fill-rule:nonzero;stroke:none;stroke-width:0.0470002"
       d="m 54.81406,32.37458 c -0.515128,0.0056 -1.060194,0.0097 -1.624758,0.01809 l -1.128669,-8.107514 c 0.43668,-0.200216 0.858861,-0.424302 1.261528,-0.666899 l 1.491899,8.756393" />
    <path
       id="path104"
       style="fill:#5fa3dd;fill-opacity:1;fill-rule:nonzero;stroke:none;stroke-width:0.0470002"
       d="m 53.683581,24.086331 c -0.434881,0.262084 -0.891061,0.504192 -1.363115,0.720975 l -0.83801,-6.01183 c 0.493379,0.04286 0.941396,0.09694 1.32594,0.16514 l 0.875185,5.125715" />
    <path
       id="path106"
       style="fill:#664aa9;fill-opacity:1;fill-rule:nonzero;stroke:none;stroke-width:0.0470002"
       d="M 70.718871,43.793685 27.229378,43.558397 c 1.471486,-3.391972 2.318109,-7.859066 4.515596,-10.806769 1.73087,-2.321723 5.004426,-3.859633 7.722041,-4.169943 5.331383,-0.608443 13.179033,-0.737043 18.597026,-0.107157 1.889592,0.219214 3.717498,0.944562 5.288758,2.093244 3.666712,2.679784 5.48238,9.09009 7.366072,13.225927" />
    <path
       id="path108"
       style="fill:#453c92;fill-opacity:1;fill-rule:nonzero;stroke:none;stroke-width:0.0470002"
       d="M 34.095284,35.426525 30.712893,45.198603 67.76546,45.560062 64.128223,35.390484 C 63.645282,34.039145 62.357892,33.113086 60.982091,33.113086 H 37.257278 c -1.389863,0 -2.688128,0.944576 -3.161994,2.313439" />
    <path
       id="path110"
       style="fill:#f14d54;fill-opacity:1;fill-rule:nonzero;stroke:none;stroke-width:0.0470002"
       d="m 36.914922,36.080756 c -0.789936,2.992029 -1.626122,6.166748 -2.496781,9.479306 H 63.526022 C 62.64585,42.247987 61.800139,39.072302 61.000228,36.076863 60.831993,35.446492 60.29509,35.011972 59.684726,35.011972 H 38.231774 c -0.612178,0 -1.14998,0.435984 -1.316852,1.068784" />
    <path
       id="path112"
       style="fill:#cb3759;fill-opacity:1;fill-rule:nonzero;stroke:none;stroke-width:0.0470002"
       d="M 61.322635,45.560062 H 36.623339 c 0.506516,-2.281775 1.010321,-4.533834 1.501874,-6.725976 0.226284,-1.009849 1.102831,-1.723996 2.114051,-1.723996 h 17.443871 c 1.008958,0 1.884142,0.710737 2.112689,1.717176 0.498816,2.196532 1.01122,4.450538 1.526811,6.732796" />
    <path
       id="path114"
       style="fill:#e8d53b;fill-opacity:1;fill-rule:nonzero;stroke:none;stroke-width:0.0470002"
       d="M 59.357319,45.035411 H 38.588655 c 0.299282,-1.542288 0.603564,-3.100662 0.908284,-4.650752 0.02674,-0.134497 0.0662,-0.261109 0.117487,-0.382406 0.294757,-0.717075 0.986745,-1.20226 1.772144,-1.20226 h 15.153424 c 0.799911,0 1.506861,0.503219 1.791182,1.247083 0.04216,0.105223 0.07391,0.216287 0.09615,0.332225 0.31152,1.553017 0.623051,3.111378 0.930046,4.65611" />
    <path
       id="path116"
       style="fill:#ebe25a;fill-opacity:1;fill-rule:nonzero;stroke:none;stroke-width:0.0470002"
       d="m 56.559442,41.249337 h -15.15296 c -0.800362,0 -1.507312,-0.503702 -1.792095,-1.247084 0.294758,-0.717075 0.986746,-1.20226 1.772145,-1.20226 h 15.153424 c 0.79991,0 1.506861,0.503219 1.79118,1.247083 -0.297019,0.717076 -0.986282,1.202261 -1.771694,1.202261" />
    <path
       id="path118"
       style="fill:#f14d54;fill-opacity:1;fill-rule:nonzero;stroke:none;stroke-width:0.0470002"
       d="m 47.141906,35.926817 -0.482491,8.574692 h -3.35518 l 0.902385,-8.574692 h 2.935286" />
    <path
       id="path120"
       style="fill:#f14d54;fill-opacity:1;fill-rule:nonzero;stroke:none;stroke-width:0.0470002"
       d="m 55.53281,44.826912 h -3.354728 l -0.333307,-8.900095 h 2.935273 l 0.752762,8.900095" />
    <path
       id="path122"
       style="fill:#664aa9;fill-opacity:1;fill-rule:nonzero;stroke:none;stroke-width:0.0470002"
       d="M 71.21405,52.517927 H 26.422661 c -1.73305,0 -2.943075,-1.407846 -2.680201,-2.981797 0.04411,-0.268912 0.129826,-0.53781 0.265004,-0.809152 l 2.005265,-4.060814 c 0.196351,-0.40044 0.480672,-0.740467 0.822131,-0.996702 0.451655,-0.340028 1.001245,-0.532439 1.580772,-0.534884 l 40.957812,-0.18755 c 0.608553,-0.0028 1.183093,0.203141 1.649246,0.567043 0.358245,0.282058 0.65299,0.656662 0.841636,1.099482 l 1.828818,4.250311 c 0.09833,0.224088 0.161885,0.451105 0.198622,0.672266 0.267545,1.592468 -0.952284,2.981797 -2.677716,2.981797" />
    <path
       id="path124"
       style="fill:#696bbc;fill-opacity:1;fill-rule:nonzero;stroke:none;stroke-width:0.0470002"
       d="m 67.774535,44.090352 c -1.813869,0.17928 -3.667174,-0.03563 -5.511417,-0.03563 -3.298043,0 -6.596535,0 -9.894591,0 -7.071776,0 -14.144916,0.07746 -21.217143,0.127179 -0.885609,0.0069 -3.319354,-1.008883 -1.268789,-1.114589 1.023919,-0.05302 2.045126,0.05109 3.068133,0.04626 7.402809,-0.03355 14.805618,-0.06766 22.208877,-0.101356 2.826437,0 5.651975,-0.08769 8.478427,-0.08769 5.995246,0 5.127773,1.067819 4.136503,1.165722" />
    <path
       id="path126"
       style="fill:#453c92;fill-opacity:1;fill-rule:nonzero;stroke:none;stroke-width:0.0470002"
       d="M 71.21315,52.518907 H 26.421753 c -1.732869,0 -2.942847,-1.408342 -2.680201,-2.983757 0,0 13.267231,0.790635 25.767438,0.790635 12.500195,0 24.382326,-0.790635 24.382326,-0.790635 0.267532,1.593448 -0.952283,2.983757 -2.678166,2.983757" />
    <path
       id="path128"
       style="fill:#e8d53b;fill-opacity:1;fill-rule:nonzero;stroke:none;stroke-width:0.0470002"
       d="M 81.810153,59.454346 H 18.04935 c -0.04553,-2.045506 -0.760233,-3.870348 -0.631494,-4.817354 0.0774,-2.64518 57.520504,-3.748072 64.521083,-0.01795 0,0 -0.243059,2.354852 -0.128786,4.835376" />
    <path
       id="path130"
       style="fill:#f14d54;fill-opacity:1;fill-rule:nonzero;stroke:none;stroke-width:0.0470002"
       d="m 96.325104,86.350467 c -0.06077,0.01757 -0.12289,0.03158 -0.186835,0.04589 -3.096711,0.545596 -5.76625,-3.988719 -7.555171,-5.867139 -0.522845,-0.56315 -2.477722,-3.351057 -3.327965,-3.120644 -3.483517,0.943595 -6.967031,1.772231 -10.449183,2.474684 -0.714663,0.144687 -1.427513,0.281573 -2.141712,0.413586 -0.850248,0.160264 -1.702309,0.311774 -2.553006,0.454501 -0.433968,0.0736 -0.86476,0.144191 -1.299178,0.21289 -11.253629,1.795609 -22.479583,2.212593 -33.59899,0.915342 -2.026528,-0.237732 -4.052154,-0.530022 -6.070519,-0.883678 -4.860191,-0.848604 -9.697204,-2.040163 -14.506375,-3.601451 -0.512823,-0.165622 -3.826106,3.828453 -4.363551,4.432518 -1.4631489,1.634843 -2.7675393,3.717371 -4.9156448,4.342389 -0.5177655,0.152957 -1.002792,0.175853 -1.4355312,0.08822 l -0.00806,-9.6e-4 C 3.7249225,86.219561 3.5479359,86.159686 3.3826931,86.082214 2.4025753,85.622854 1.8323891,84.498031 2.0438857,83.049272 1.8979158,81.989739 2.2454963,80.836666 2.5225177,79.83705 2.9255104,78.376109 3.2285612,76.923938 3.5070342,75.441567 3.6579462,74.603679 3.7986111,73.760432 3.93143,72.910378 4.0396748,72.246398 4.3624028,68.027253 5.1260367,67.82461 6.7611845,68.509524 18.37037,67.252692 18.047822,59.456468 c -0.0443,-2.04697 -0.757059,-3.870831 -0.630951,-4.817354 1.182907,-0.165635 8.117556,-1.086335 10.596594,-1.088283 7.009653,0.146152 47.793781,-0.232359 53.926887,1.070263 -0.185009,1.160364 -0.575439,9.000444 1.484649,10.200758 2.208366,1.624629 5.108728,2.251574 5.108728,2.251574 l 5.95943,0.455483 c 0.301546,1.417097 1.019386,4.777888 1.315958,6.157481 0.363668,1.702566 2.420132,6.346012 2.16937,9.246944 0.121085,1.670403 -0.247594,3.025635 -1.653331,3.418275" />
    <path
       id="path132"
       style="fill:#cb3759;fill-opacity:1;fill-rule:nonzero;stroke:none;stroke-width:0.0470002"
       d="m 96.325104,86.350467 c -0.06077,0.01757 -0.12289,0.03158 -0.186835,0.04589 -3.096711,0.545596 -5.76625,-3.988719 -7.555171,-5.867139 -0.522845,-0.56315 -2.477722,-3.351057 -3.327965,-3.120644 -23.099475,6.263197 -47.633261,7.448403 -70.618963,-0.01408 -0.512823,-0.165622 -3.826106,3.828453 -4.363551,4.432518 -1.4631489,1.634848 -2.7675393,3.717376 -4.9156448,4.342384 -0.5177655,0.152957 -1.002792,0.175853 -1.4355312,0.08822 l -0.00154,-0.02486 -0.00653,0.02294 c -0.1884605,-0.03706 -0.3654471,-0.09693 -0.5306899,-0.174404 0.1080134,-0.337584 0.1769424,-0.531475 0.194855,-0.550953 0.8849338,-0.925565 1.7991187,-1.990954 2.5053897,-3.068018 1.997329,-3.041727 5.0810682,-7.859564 5.5481822,-8.438773 0.177485,-0.218731 1.105318,-0.05509 2.352345,0.108675 2.045215,0.268415 4.948612,0.53683 6.807271,-0.881248 2.992004,-2.283239 5.277826,-14.631328 7.610898,-15.515006 2.335334,-0.887089 7.991398,-0.359015 9.299188,0.461323 0.484754,0.30447 0.822586,0.888553 1.056569,1.504782 0.250771,0.660087 1.040707,0.799404 1.435676,0.232374 2.167562,-3.117232 5.7005,-4.844143 9.691893,-4.844143 3.926094,0 7.407796,1.661637 9.587146,4.694594 0.398143,0.554368 1.173104,0.457416 1.435662,-0.191941 0.230809,-0.575315 0.558665,-1.110681 1.012583,-1.395666 1.310514,-0.820338 6.291827,-1.348412 8.627162,-0.461323 2.339422,0.883678 5.461067,13.407636 8.446678,15.690875 1.841067,1.4054 4.646657,1.088268 6.640991,0.771136 1.246128,-0.198266 2.176185,-0.396532 2.356204,-0.174391 0.465255,0.579209 3.550628,5.397046 5.548128,8.438773 0.632592,0.959183 1.655146,1.721567 2.216986,2.762101 0.201801,0.371204 0.391795,0.747754 0.568656,1.126263" />
    <path
       id="path134"
       style="fill:#4247a5;fill-opacity:1;fill-rule:nonzero;stroke:none;stroke-width:0.0470002"
       d="m 22.345245,57.319208 c 0.229907,6.926187 -4.179672,11.286112 -9.277972,12.443079 -2.536044,0.575799 -5.4359024,-0.48227 -7.941656,-1.937853 0.6001594,-0.264023 1.134024,-0.422355 1.6296595,-0.532452 2.2898141,-0.519776 3.8169005,-0.07166 7.6389255,-4.566463 3.214245,-5.357111 1.932166,-4.730165 2.680381,-7.118627 0.08362,-0.273772 0.19558,-0.58603 0.343273,-0.949435 0,0 1.675007,0.06145 3.156927,0.488609 0.583837,0.169033 1.738357,1.206652 1.770462,2.173142" />
    <path
       id="path136"
       style="fill:#4247a5;fill-opacity:1;fill-rule:nonzero;stroke:none;stroke-width:0.0470002"
       d="m 78.420962,55.79396 c 1.488275,-0.47545 3.518889,-1.155021 3.518889,-1.155021 1.511399,3.528375 -0.515591,2.113225 3.181957,7.996934 4.756838,5.364416 5.977104,3.488923 9.37175,4.89141 -2.910787,2.745528 -7.424572,2.208699 -10.258273,1.059533 -3.900706,-1.582733 -6.231503,-5.487659 -7.034139,-10.524228 -0.158709,-0.997669 0.31697,-1.980245 1.219816,-2.268628" />
    <path
       id="path138"
       style="fill:#72c0ed;fill-opacity:1;fill-rule:nonzero;stroke:none;stroke-width:0.0470002"
       d="m 81.916263,64.088058 c 0.537816,0.652271 1.058395,1.167186 1.416176,1.474086 1.776217,1.529625 5.852415,3.525945 8.381833,1.722533 1.601635,-1.142344 1.723613,-3.484035 1.442025,-5.149579 -0.286598,-1.685996 -1.174934,-3.139631 -2.377065,-4.254702 -0.460262,-0.427713 -0.965885,-0.804762 -1.500518,-1.126769 h -0.0029 c -1.393949,-0.842265 -2.990602,-1.301642 -4.501548,-1.277766 -0.46933,0.0083 -3.968269,0.115442 -4.834378,2.267648 -0.868386,2.154623 0.607638,4.686792 1.976189,6.344549" />
    <path
       id="path140"
       style="fill:#4247a5;fill-opacity:1;fill-rule:nonzero;stroke:none;stroke-width:0.0470002"
       d="m 81.916263,64.088058 c 0.537816,0.652271 1.058395,1.167186 1.416176,1.474086 1.776217,1.529625 5.852415,3.525945 8.381833,1.722533 1.601635,-1.142344 1.723613,-3.484035 1.442025,-5.149579 -0.286598,-1.685996 -1.174934,-3.139631 -2.377065,-4.254702 -0.460262,-0.427713 -0.965885,-0.804762 -1.500518,-1.126769 h -0.0029 c 0,0 -6.019297,-0.13643 -7.359737,7.334431" />
    <path
       id="path142"
       style="fill:#5fa3dd;fill-opacity:1;fill-rule:nonzero;stroke:none;stroke-width:0.0470002"
       d="m 83.332439,65.562144 c 1.776217,1.529625 5.852415,3.525945 8.381833,1.722533 1.601635,-1.142344 1.723613,-3.484035 1.442025,-5.149579 -0.286598,-1.685996 -1.174934,-3.139631 -2.377065,-4.254702 l -0.0029,4.83e-4 c 0,0 -6.078677,0.06573 -7.444516,7.681265" />
    <path
       id="path144"
       style="fill:#4247a5;fill-opacity:1;fill-rule:nonzero;stroke:none;stroke-width:0.0470002"
       d="m 60.524086,68.309136 c 0,-6.382053 -4.815792,-11.555509 -10.756626,-11.555509 -5.941296,0 -10.757088,5.173456 -10.757088,11.555509 0,6.382067 4.815792,11.556005 10.757088,11.556005 5.940834,0 10.756626,-5.173938 10.756626,-11.556005" />
    <path
       id="path146"
       style="fill:#70cec1;fill-opacity:1;fill-rule:nonzero;stroke:none;stroke-width:0.0470002"
       d="m 57.979243,68.309136 c 0,-4.871913 -3.676686,-8.821662 -8.211783,-8.821662 -4.535546,0 -8.212244,3.949749 -8.212244,8.821662 0,4.872409 3.676698,8.822159 8.212244,8.822159 4.535097,0 8.211783,-3.94975 8.211783,-8.822159" />
    <path
       id="path148"
       style="fill:#678daf;fill-opacity:1;fill-rule:nonzero;stroke:none;stroke-width:0.0470002"
       d="m 43.733203,74.293207 c -1.352226,-1.572018 -2.178887,-3.674527 -2.178887,-5.984555 0,-1.591004 0.390881,-3.082641 1.077432,-4.371124 0,9.6e-4 0,0.0013 -4.63e-4,0.0028 -0.684726,1.288013 -1.076069,2.779636 -1.076069,4.368694 0,2.309544 0.826211,4.41157 2.177987,5.98407" />
    <path
       id="path150"
       style="fill:#80d3be;fill-opacity:1;fill-rule:nonzero;stroke:none;stroke-width:0.0470002"
       d="m 49.766098,77.130329 c -2.384321,0 -4.532371,-1.092178 -6.032895,-2.837122 -1.351776,-1.572501 -2.177987,-3.674527 -2.177987,-5.984071 0,-1.589058 0.391343,-3.080681 1.076069,-4.368694 -0.05437,0.408228 -0.08163,0.82669 -0.08163,1.250991 0,1.038102 0.167335,2.034309 0.47388,2.959386 -0.536454,0.824244 -0.830748,2.068415 -0.532829,3.143041 0.301108,1.085355 1.27469,2.247197 2.270498,2.247197 0.09435,0 0.188647,-0.01105 0.282971,-0.03259 0.498803,-0.115994 0.864747,-0.525618 1.113705,-1.011796 0.333294,0.242605 0.683826,0.459872 1.048857,0.648873 0,0.499809 0.104247,0.965039 0.332394,1.359625 0.55459,0.959185 1.753095,1.349379 2.99196,1.349379 0.779949,0 1.575786,-0.154423 2.23785,-0.418944 1.689144,-0.674199 3.161994,-2.324637 3.737897,-3.940015 0.54189,-0.570439 1.010769,-1.220777 1.389413,-1.933462 -0.567278,4.280042 -3.989118,7.568255 -8.130159,7.568255" />
    <path
       id="path152"
       style="fill:#6bcdc6;fill-opacity:1;fill-rule:nonzero;stroke:none;stroke-width:0.0470002"
       d="m 50.761906,74.013095 c -1.273328,0 -2.479094,-0.311773 -3.555163,-0.867604 9.12e-4,-1.84822 1.430225,-4.169944 3.322079,-5.144222 0.789036,-0.406282 1.714095,-0.606978 2.606068,-0.606978 1.488724,0 2.885387,0.558745 3.40324,1.650921 0.330582,0.696611 0.283421,1.56811 -0.03124,2.450325 -1.4801,1.55789 -3.508002,2.517558 -5.744938,2.517558" />
    <path
       id="path154"
       style="fill:#70cfc6;fill-opacity:1;fill-rule:nonzero;stroke:none;stroke-width:0.0470002"
       d="m 50.531097,75.854495 c -1.238865,0 -2.43737,-0.390194 -2.99196,-1.349379 -0.228096,-0.394585 -0.332394,-0.859817 -0.332394,-1.359625 1.076069,0.555831 2.281835,0.867604 3.555163,0.867604 2.236935,0 4.264838,-0.959668 5.744938,-2.517558 -0.575903,1.615377 -2.048753,3.265814 -3.737898,3.940013 -0.662064,0.264522 -1.4579,0.418945 -2.237849,0.418945" />
    <path
       id="path156"
       style="fill:#6bcdc6;fill-opacity:1;fill-rule:nonzero;stroke:none;stroke-width:0.0470002"
       d="m 46.157886,72.496617 c -1.43295,-1.044426 -2.543031,-2.562852 -3.134345,-4.345798 0.339194,-0.52026 0.774511,-0.872964 1.218453,-0.910468 0.02674,-0.0013 0.05309,-0.0028 0.08021,-0.0028 1.159518,0 2.431483,2.068899 2.242836,3.874243 -0.04267,0.410176 -0.174121,0.931415 -0.407205,1.385434" />
    <path
       id="path158"
       style="fill:#70cfc6;fill-opacity:1;fill-rule:nonzero;stroke:none;stroke-width:0.0470002"
       d="m 44.76121,73.541057 c -0.995808,0 -1.96939,-1.161842 -2.270498,-2.247197 -0.297919,-1.074626 -0.0038,-2.318797 0.532829,-3.143041 0.591314,1.782946 1.701395,3.301372 3.134345,4.345798 -0.248958,0.486179 -0.614902,0.895858 -1.113705,1.011796 -0.09435,0.02196 -0.188647,0.03259 -0.282971,0.03259" />
    <path
       id="path160"
       style="fill:#80d3be;fill-opacity:1;fill-rule:nonzero;stroke:none;stroke-width:0.0470002"
       d="m 46.592304,67.295392 c -0.0064,0 -0.01311,0 -0.01992,-4.82e-4 -1.256104,-0.01408 -2.650505,-1.342075 -2.733491,-2.607192 -0.131048,-1.99777 2.990148,-4.155321 5.819312,-4.189912 0.02314,-4.84e-4 0.04667,-4.84e-4 0.0698,-4.84e-4 3.091259,0 6.105894,2.504883 5.890048,4.021363 -0.142385,0.999616 -1.722708,1.796092 -2.977448,1.866738 -0.0608,0.0028 -0.119672,0.0056 -0.176397,0.0056 -0.554591,0 -0.916459,-0.15539 -1.264266,-0.310793 -0.348257,-0.155404 -0.682464,-0.311278 -1.181267,-0.311278 -0.08123,0 -0.166422,0.0041 -0.257121,0.0138 -1.596196,0.156867 -1.901366,1.514034 -3.169256,1.514034 m 3.119833,-6.568664 c -0.17776,0 -0.310171,0.0056 -0.359594,0.0083 -1.335451,0.06435 -2.918949,0.583102 -2.903087,1.069268 0.009,0.303006 0.641201,0.584083 1.160867,0.623548 0.04267,0.0028 0.08393,0.0056 0.122885,0.0056 0.706501,0 0.889697,-0.499809 1.702309,-0.539274 0.03317,-0.0013 0.06568,-0.0028 0.09743,-0.0028 0.321508,0 0.57499,0.0794 0.793111,0.158318 0.218122,0.0794 0.400869,0.158317 0.58134,0.158317 0.102447,0 0.204522,-0.02527 0.311532,-0.09155 0.265284,-0.164172 0.486567,-0.529524 0.414468,-0.801833 C 51.496445,60.7977 50.33014,60.728532 49.712063,60.728532" />
    <path
       id="path162"
       style="fill:#8ed8bc;fill-opacity:1;fill-rule:nonzero;stroke:none;stroke-width:0.0470002"
       d="m 47.733221,62.432746 c -0.03895,0 -0.08021,-0.0013 -0.122885,-0.0056 -0.519666,-0.03949 -1.151343,-0.320542 -1.160867,-0.623548 -0.01581,-0.486166 1.567635,-1.004975 2.903087,-1.069268 0.04936,-0.0028 0.181834,-0.0083 0.359594,-0.0083 0.618077,0 1.784381,0.06918 1.921329,0.587494 0.07211,0.272308 -0.149185,0.637661 -0.414468,0.801834 -0.106947,0.06628 -0.209047,0.09155 -0.311532,0.09155 -0.180472,0 -0.363219,-0.07899 -0.58134,-0.158317 -0.218122,-0.07899 -0.471605,-0.158318 -0.793112,-0.158318 -0.03175,0 -0.0644,9.6e-4 -0.09743,0.0028 -0.81261,0.0395 -0.995807,0.539274 -1.702307,0.539274" />
    <path
       id="path164"
       style="fill:#696bbc;fill-opacity:1;fill-rule:nonzero;stroke:none;stroke-width:0.0470002"
       d="m 36.111386,31.184002 c 0.05528,-0.0522 0.160072,-0.10329 0.212221,-0.117375 0.399956,-0.137397 0.808073,-0.210929 1.216642,-0.290343 1.687795,-0.293257 3.394628,-0.397016 5.10056,-0.416983 1.281953,0.0056 2.556182,0.04778 3.831784,0.252328 0.15961,0.02527 0.270258,0.185603 0.24622,0.35708 -0.01903,0.137397 -0.119285,0.240645 -0.239883,0.26354 -1.266515,0.237249 -2.528968,0.328829 -3.803659,0.414568 -1.986628,0.106741 -4.026754,0.126212 -6.01112,0.05745 -0.07802,-0.0041 -0.143747,-0.0041 -0.215846,-0.0056 l 0.02995,-0.01947 0.03124,-0.04529 c -0.275246,0.27815 -0.671127,-0.169531 -0.398131,-0.450124" />
    <path
       id="path166"
       style="fill:#696bbc;fill-opacity:1;fill-rule:nonzero;stroke:none;stroke-width:0.0470002"
       d="m 54.015512,30.651066 c 1.462874,-0.327364 2.959761,-0.300078 4.434435,-0.111988 0.490191,0.07263 0.97902,0.165635 1.463774,0.332721 0.157361,0.05414 0.243972,0.234805 0.193635,0.403838 -0.03406,0.113508 -0.120572,0.191942 -0.222197,0.215803 -1.460612,0.348313 -2.946161,0.294238 -4.41856,0.105224 -0.490654,-0.07553 -0.981745,-0.16514 -1.471037,-0.327365 -0.287044,-0.08382 -0.267995,-0.557778 0.01992,-0.618178" />
    <path
       id="path168"
       style="fill:#72c0ed;fill-opacity:1;fill-rule:nonzero;stroke:none;stroke-width:0.0470002"
       d="m 18.437834,64.200088 c -0.534771,0.705877 -1.057706,1.267549 -1.418527,1.604165 -1.792228,1.679671 -5.966232,3.952194 -8.6792174,2.187764 C 6.622593,66.874018 6.4011671,64.43539 6.6277165,62.684106 6.8590756,60.911392 7.727913,59.352535 8.9375744,58.13322 9.4006064,57.665075 9.9130208,57.248078 10.458266,56.887103 h 0.0024 c 1.421158,-0.943595 3.069047,-1.497477 4.646966,-1.54277 0.490332,-0.0138 4.146706,-0.06435 5.137435,2.141961 0.992997,2.208215 -0.445665,4.919649 -1.807282,6.713794" />
    <path
       id="path170"
       style="fill:#4247a5;fill-opacity:1;fill-rule:nonzero;stroke:none;stroke-width:0.0470002"
       d="m 18.437834,64.200088 c -0.534771,0.705877 -1.057706,1.267549 -1.418527,1.604165 -1.792228,1.679671 -5.966232,3.952194 -8.6792174,2.187764 C 6.622593,66.874018 6.4011671,64.43539 6.6277165,62.684106 6.8590756,60.911392 7.727913,59.352535 8.9375744,58.13322 9.4006064,57.665075 9.9130208,57.248078 10.458266,56.887103 h 0.0024 c 0,0 6.277307,-0.422341 7.977119,7.312985" />
    <path
       id="path172"
       style="fill:#5fa3dd;fill-opacity:1;fill-rule:nonzero;stroke:none;stroke-width:0.0470002"
       d="M 17.019307,65.804253 C 15.227079,67.483924 11.053075,69.756447 8.3400896,67.992017 6.622593,66.874018 6.4011671,64.43539 6.6277165,62.684106 6.8590756,60.911392 7.727913,59.352535 8.9375744,58.13322 h 0.0024 c 0,0 6.3469126,-0.213856 8.0792836,7.671033" />
    <path
       id="path174"
       style="fill:#81d5d8;fill-opacity:1;fill-rule:nonzero;stroke:none;stroke-width:0.0470002"
       d="m 16.471249,59.79048 c -1.525999,-1.931032 -3.447554,-2.584781 -4.701292,-2.802531 0.309082,-0.186585 0.645642,-0.353671 1.004877,-0.493968 0.732256,-0.285951 1.459385,-0.422355 2.113371,-0.422355 1.196557,0 2.146882,0.45743 2.428711,1.290444 0.255435,0.75556 -0.09459,1.652384 -0.845667,2.42841" />
    <path
       id="path176"
       style="fill:#678daf;fill-opacity:1;fill-rule:nonzero;stroke:none;stroke-width:0.0470002"
       d="m 14.781415,60.9757 c -1.489723,-1.763946 -3.281767,-2.434748 -4.484717,-2.689037 0.353928,-0.476416 0.858952,-0.927024 1.473259,-1.298714 1.253738,0.21775 3.175293,0.871499 4.701292,2.802531 -0.439634,0.454018 -1.016576,0.866624 -1.689834,1.18522" />
    <path
       id="path178"
       style="fill:#74cbd3;fill-opacity:1;fill-rule:nonzero;stroke:none;stroke-width:0.0470002"
       d="m 12.240245,61.582678 c -1.196556,0 -2.146882,-0.456946 -2.4288901,-1.290443 -0.2100902,-0.621588 -0.010282,-1.338664 0.4853431,-2.005572 1.20295,0.254289 2.994994,0.925091 4.484717,2.689037 -0.138716,0.06573 -0.281466,0.127592 -0.427981,0.184623 -0.732253,0.285952 -1.459384,0.422355 -2.113189,0.422355" />
    <path
       id="path180"
       style="fill:#81d5d8;fill-opacity:1;fill-rule:nonzero;stroke:none;stroke-width:0.0470002"
       d="m 83.863442,59.486507 c -0.779499,-0.762382 -1.152254,-1.66165 -0.897859,-2.413801 0.269808,-0.797939 1.179467,-1.235387 2.324907,-1.235387 0.625795,0 1.322304,0.130494 2.022921,0.404321 0.413549,0.161245 0.796272,0.360009 1.139088,0.584581 -1.089667,0.17098 -3.051811,0.74483 -4.589057,2.660286" />
    <path
       id="path182"
       style="fill:#678daf;fill-opacity:1;fill-rule:nonzero;stroke:none;stroke-width:0.0470002"
       d="m 85.507699,60.585491 c -0.648902,-0.291309 -1.20984,-0.674199 -1.644257,-1.098984 1.537246,-1.915456 3.49939,-2.489306 4.589057,-2.660286 0.536458,0.350742 0.974957,0.765295 1.282407,1.199346 -1.078349,0.239182 -2.801972,0.874413 -4.227207,2.559924" />
    <path
       id="path184"
       style="fill:#74cbd3;fill-opacity:1;fill-rule:nonzero;stroke:none;stroke-width:0.0470002"
       d="m 87.82536,61.113069 c -0.625776,0 -1.322304,-0.130493 -2.022902,-0.40432 -0.100263,-0.03894 -0.198154,-0.07995 -0.294759,-0.123312 1.425235,-1.685513 3.148858,-2.320744 4.227207,-2.559925 0.438489,0.618661 0.609446,1.27825 0.415363,1.852115 -0.269808,0.797939 -1.179456,1.235387 -2.324909,1.235387" />
    <path
       id="path186"
       style="fill:#475fb5;fill-opacity:1;fill-rule:nonzero;stroke:none;stroke-width:0.0470002"
       d="m 37.770607,92.315523 -4.373662,0.04723 -4.616719,0.05011 c -0.428081,0.0086 -0.829386,-0.234317 -1.028008,-0.617213 l -2.678931,-5.138381 c -0.755155,-1.450224 -1.254646,-3.000797 -1.48156,-4.582546 -0.09087,-0.614283 -0.141162,-1.233937 -0.153043,-1.851148 -0.02163,-1.402473 0.162431,-2.802531 0.556717,-4.160678 L 28.56483,60.367175 c 0.344182,-1.186201 1.424325,-1.995823 2.665004,-1.987537 l 3.651298,0.02099 c 1.617959,0.0083 2.920762,1.38934 2.846401,3.016386 l -0.874735,18.532378 c -0.03085,0.664464 -0.01401,1.331843 0.05039,1.996307 l 0.0077,0.07112 c 0.01671,0.189498 0.03804,0.379479 0.0644,0.567029 l 0.0077,0.04184 c 0.05488,0.400924 0.126484,0.801839 0.219934,1.194479 l 1.634734,7.126896 c 0.160072,0.695645 -0.353707,1.357661 -1.066095,1.368375" />
    <path
       id="path188"
       style="fill:#414ca8;fill-opacity:1;fill-rule:nonzero;stroke:none;stroke-width:0.0470002"
       d="m 37.770607,92.315523 -4.373662,0.04723 2.562068,-9.826639 0.951371,-0.519293 c 0.01671,0.189498 0.03804,0.379479 0.0644,0.56703 l 0.0077,0.04184 c 0.05488,0.400923 0.126484,0.801836 0.219933,1.194476 l 1.634734,7.126896 c 0.160072,0.695645 -0.353706,1.35767 -1.066093,1.368384" />
    <path
       id="path190"
       style="fill:#475fb5;fill-opacity:1;fill-rule:nonzero;stroke:none;stroke-width:0.0470002"
       d="m 36.578452,92.313584 -8.993106,0.09942 c -0.427617,0.0086 -0.824398,-0.236265 -1.01667,-0.620621 l -2.585473,-5.163708 c -0.729623,-1.45753 -1.200637,-3.014439 -1.400251,-4.603994 -0.07936,-0.618178 -0.117988,-1.239779 -0.117988,-1.860884 0.0028,-1.409295 0.212583,-2.815677 0.632356,-4.181626 l 4.851245,-15.772223 c 0.365944,-1.191544 1.461525,-2.006538 2.700841,-1.998252 l 3.652648,0.0214 c 1.61796,0.0083 2.895825,1.395666 2.790627,3.030997 l -1.208028,18.625418 c -0.04358,0.666894 -0.03856,1.336716 0.01285,2.00361 0.01543,0.214838 0.03587,0.430157 0.06118,0.64255 0.04897,0.416997 0.115173,0.833498 0.204959,1.242218 l 1.505049,7.161965 c 0.146022,0.699063 -0.378644,1.365956 -1.090119,1.373741" />
    <path
       id="path192"
       style="fill:#414ca8;fill-opacity:1;fill-rule:nonzero;stroke:none;stroke-width:0.0470002"
       d="m 36.57799,92.312614 -8.992644,0.100387 c -0.42808,0.0086 -0.82486,-0.237235 -1.015763,-0.62208 l -2.588511,-5.160298 c -0.728899,-1.457529 -1.199549,-3.018336 -1.397939,-4.605942 0.439633,0.03452 0.908152,0.06863 1.400387,0.100389 0.191317,1.09168 0.509106,2.159016 0.955995,3.171777 l 2.298925,5.465741 c 0.150547,0.347818 0.470705,0.566554 0.814874,0.561677 l 7.260423,-0.08966 c 0.575903,-0.0086 1.00397,-0.608928 0.89151,-1.242211 l -1.409826,-7.266183 c -0.01452,-0.07112 -0.02635,-0.142244 -0.03587,-0.213856 0.396331,0.0083 0.795837,0.0138 1.197154,0.0214 0.05039,0.418944 0.116973,0.835437 0.205422,1.244148 l 1.508224,7.161494 c 0.14556,0.700983 -0.380006,1.365447 -1.092407,1.373252" />
    <path
       id="path194"
       style="fill:#475fb5;fill-opacity:1;fill-rule:nonzero;stroke:none;stroke-width:0.0470002"
       d="m 36.050162,91.234563 -7.996848,0.08966 c -0.344169,0.0058 -0.664327,-0.21385 -0.814874,-0.561668 l -2.298925,-5.46575 c -0.446889,-1.012758 -0.764678,-2.08009 -0.955995,-3.17177 2.884439,0.187054 6.625075,0.310794 10.776077,0.387267 0.009,0.07166 0.02134,0.142741 0.03587,0.213856 l 2.14625,7.266232 c 0.111959,0.633283 -0.315607,1.233917 -0.89151,1.242211" />
    <path
       id="path196"
       style="fill:#5fa3dd;fill-opacity:1;fill-rule:nonzero;stroke:none;stroke-width:0.0470002"
       d="m 34.6018,79.219195 c -0.04088,0.601123 -0.04307,1.205188 -0.0077,1.806324 0.01157,0.194856 0.02635,0.387267 0.04537,0.579692 0.02905,0.303489 0.0671,0.606979 0.119671,0.907057 -4.151001,-0.0765 -7.891636,-0.200213 -10.776075,-0.387267 -0.05987,-0.327364 -0.105198,-0.651318 -0.138488,-0.981113 -0.05741,-0.556314 -0.0838,-1.117985 -0.07899,-1.676744 0.01195,-1.273389 0.193584,-2.541903 0.542525,-3.772914 l 4.619941,-14.7653 c 0.306082,-1.075607 1.197592,-1.8112 2.196124,-1.803398 l 2.62148,0.01851 c 1.304615,0.0083 2.325359,1.260243 2.229673,2.734343 L 34.601343,79.2192" />
    <path
       id="path198"
       style="fill:#475fb5;fill-opacity:1;fill-rule:nonzero;stroke:none;stroke-width:0.0470002"
       d="m 34.780922,64.739846 c 0.09975,-1.79804 -1.237053,-3.35154 -2.986973,-3.468942 -1.749471,-0.117928 -3.248619,1.244169 -3.348842,3.042209 -0.09975,1.798524 1.237503,3.35154 2.986523,3.469426 1.74947,0.117926 3.249069,-1.244654 3.349292,-3.042693" />
    <path
       id="path200"
       style="fill:#5fa3dd;fill-opacity:1;fill-rule:nonzero;stroke:none;stroke-width:0.0470002"
       d="m 33.763339,64.67116 c 0.06761,-1.220294 -0.83981,-2.274952 -2.027439,-2.35485 -1.187617,-0.07995 -2.2052,0.84471 -2.273211,2.065488 -0.068,1.220778 0.839811,2.274953 2.02744,2.35485 1.187617,0.07995 2.205199,-0.844709 2.27321,-2.065488" />
    <path
       id="path202"
       style="fill:#e8d53b;fill-opacity:1;fill-rule:nonzero;stroke:none;stroke-width:0.0470002"
       d="m 33.76289,64.670678 c -0.06671,1.221744 -1.085144,2.146351 -2.273674,2.064506 -0.04717,-0.0028 -0.09383,-0.0083 -0.13831,-0.0138 -1.117331,-0.149549 -1.953066,-1.167186 -1.889129,-2.340227 0.0617,-1.07464 0.853422,-1.917886 1.84968,-2.051362 0.137861,-0.01906 0.278883,-0.02431 0.423992,-0.0138 1.18898,0.07884 2.096364,1.134542 2.027441,2.35387" />
    <path
       id="path204"
       style="fill:#e59234;fill-opacity:1;fill-rule:nonzero;stroke:none;stroke-width:0.0470002"
       d="m 33.200586,64.670678 c -0.0617,1.074639 -0.853409,1.917871 -1.84968,2.051347 -1.117331,-0.149549 -1.953066,-1.167186 -1.889129,-2.340227 0.0617,-1.074639 0.853422,-1.917886 1.84968,-2.051362 1.117343,0.150047 1.953078,1.170128 1.889129,2.340242" />
    <path
       id="path206"
       style="fill:#475fb5;fill-opacity:1;fill-rule:nonzero;stroke:none;stroke-width:0.0470002"
       d="M 33.203762,66.80728 32.297289,67.29491 30.063529,62.586672 30.97,62.09856 33.203762,66.80728" />
    <path
       id="path208"
       style="fill:#475fb5;fill-opacity:1;fill-rule:nonzero;stroke:none;stroke-width:0.0470002"
       d="m 32.97114,73.73786 c -0.880172,-1.867222 -3.066784,-2.588675 -4.883365,-1.61147 -1.816572,0.977205 -2.575399,3.283338 -1.69459,5.15056 0.88018,1.867222 3.066779,2.588674 4.88336,1.610986 1.816581,-0.977205 2.575218,-3.282855 1.694595,-5.150076" />
    <path
       id="path210"
       style="fill:#e8d53b;fill-opacity:1;fill-rule:nonzero;stroke:none;stroke-width:0.0470002"
       d="m 32.157167,75.629923 c -0.0689,0.889519 -0.572265,1.732765 -1.393488,2.171194 -1.232979,0.66398 -2.717615,0.173907 -3.31438,-1.09364 -0.288857,-0.614767 -0.317869,-1.297749 -0.128284,-1.918356 0.199522,-0.655695 0.646189,-1.234918 1.280128,-1.578342 1.232966,-0.66057 2.715339,-0.170994 3.314367,1.09411 0.199984,0.424302 0.273896,0.881732 0.241695,1.325034" />
    <path
       id="path212"
       style="fill:#e59234;fill-opacity:1;fill-rule:nonzero;stroke:none;stroke-width:0.0470002"
       d="m 32.157167,75.629923 c -0.199522,0.655696 -0.646189,1.234904 -1.280128,1.575414 -1.232966,0.663498 -2.715339,0.173908 -3.314367,-1.093626 -0.199521,-0.421872 -0.273445,-0.879301 -0.241695,-1.32259 0.19952,-0.655695 0.646188,-1.234918 1.280127,-1.578342 1.232966,-0.66057 2.71534,-0.170994 3.314367,1.09411 0.199985,0.424302 0.273895,0.881732 0.241696,1.325034" />
    <path
       id="path214"
       style="fill:#475fb5;fill-opacity:1;fill-rule:nonzero;stroke:none;stroke-width:0.0470002"
       d="m 32.519486,76.800037 -0.641651,1.057586 -4.805354,-3.327182 0.641189,-1.057103 4.805816,3.326699" />
    <path
       id="path216"
       style="fill:#414ca8;fill-opacity:1;fill-rule:nonzero;stroke:none;stroke-width:0.0470002"
       d="m 31.813448,84.597238 c -1.433862,-0.801351 -3.143421,-0.296669 -3.81862,1.127251 -0.674764,1.42392 -0.0599,3.228298 1.373987,4.030128 1.433401,0.80184 3.142971,0.297168 3.818622,-1.126752 0.674763,-1.42392 0.0599,-3.228778 -1.373989,-4.030627" />
    <path
       id="path218"
       style="fill:#aa963a;fill-opacity:1;fill-rule:nonzero;stroke:none;stroke-width:0.0470002"
       d="m 31.420742,85.425881 c -0.973133,-0.544637 -2.13355,-0.201677 -2.592005,0.764803 -0.458441,0.96649 -0.04088,2.191661 0.932334,2.735799 0.973583,0.544137 2.134,0.201676 2.592455,-0.764813 0.457992,-0.96649 0.04036,-2.191661 -0.932784,-2.735789" />
    <path
       id="path220"
       style="fill:#414ca8;fill-opacity:1;fill-rule:nonzero;stroke:none;stroke-width:0.0470002"
       d="m 32.97794,86.748953 0.09834,0.956755 -4.580896,-9.6e-4 -0.09795,-0.956736 4.580446,9.6e-4" />
    <path
       id="path222"
       style="fill:#475fb5;fill-opacity:1;fill-rule:nonzero;stroke:none;stroke-width:0.0470002"
       d="m 61.245999,92.315523 4.318349,0.04723 4.559121,0.05011 c 0.42218,0.0086 0.81851,-0.234317 1.014407,-0.617213 l 2.645504,-5.138381 c 0.7455,-1.450224 1.238866,-3.000797 1.462887,-4.582546 0.08985,-0.614283 0.139211,-1.233937 0.150997,-1.851148 0.02134,-1.402473 -0.160521,-2.802531 -0.549602,-4.160678 L 70.33569,60.367175 c -0.339644,-1.186201 -1.406187,-1.995823 -2.630992,-1.987537 l -3.605949,0.02099 c -1.597097,0.0083 -2.883125,1.38934 -2.810126,3.016386 l 0.86386,18.532374 c 0.03034,0.664464 0.01401,1.331843 -0.04987,1.996307 l -0.0064,0.07112 c -0.01671,0.189497 -0.03766,0.379478 -0.06389,0.567028 l -0.0064,0.04184 c -0.05438,0.400924 -0.1252,0.801833 -0.217223,1.194474 l -1.614321,7.126896 c -0.15781,0.695645 0.349619,1.357661 1.052481,1.368374" />
    <path
       id="path224"
       style="fill:#414ca8;fill-opacity:1;fill-rule:nonzero;stroke:none;stroke-width:0.0470002"
       d="m 61.245999,92.315523 4.318349,0.04723 -2.529431,-9.826639 -0.939121,-0.519293 c -0.01671,0.189498 -0.03766,0.379479 -0.06389,0.56703 l -0.0064,0.04184 c -0.05437,0.400923 -0.125199,0.801836 -0.217221,1.194476 l -1.614321,7.126896 c -0.157811,0.695645 0.349618,1.35767 1.05248,1.368384" />
    <path
       id="path226"
       style="fill:#475fb5;fill-opacity:1;fill-rule:nonzero;stroke:none;stroke-width:0.0470002"
       d="m 62.423653,92.313584 8.879733,0.09942 c 0.42218,0.0086 0.813973,-0.236265 1.00352,-0.620621 l 2.552556,-5.163708 c 0.72055,-1.45753 1.185804,-3.014439 1.383063,-4.603994 0.07841,-0.618178 0.116073,-1.239779 0.116073,-1.860884 -0.0026,-1.409295 -0.20996,-2.815677 -0.624427,-4.181626 L 70.94423,60.209948 C 70.582823,59.018404 69.501305,58.20341 68.277413,58.211696 l -3.606862,0.0214 c -1.597548,0.0083 -2.858638,1.395666 -2.754789,3.030997 l 1.192604,18.625418 c 0.04307,0.666894 0.03805,1.336716 -0.01285,2.00361 -0.01543,0.214838 -0.03587,0.430157 -0.0608,0.64255 -0.04808,0.416997 -0.113759,0.833498 -0.202234,1.242218 l -1.486462,7.161965 c -0.144198,0.699063 0.374105,1.365956 1.076981,1.373741" />
    <path
       id="path228"
       style="fill:#414ca8;fill-opacity:1;fill-rule:nonzero;stroke:none;stroke-width:0.0470002"
       d="m 62.423653,92.312614 8.879733,0.100387 c 0.42218,0.0086 0.813973,-0.237235 1.002607,-0.62208 l 2.555731,-5.160298 c 0.71965,-1.457529 1.184454,-3.018336 1.380351,-4.605942 -0.433967,0.03452 -0.896509,0.06863 -1.383076,0.100389 -0.188634,1.09168 -0.502428,2.159016 -0.943659,3.171777 l -2.270035,5.465741 c -0.148735,0.347818 -0.464804,0.566554 -0.804448,0.561677 l -7.168826,-0.08966 c -0.56864,-0.0086 -0.99127,-0.608928 -0.880172,-1.242211 l 1.392138,-7.266231 c 0.01401,-0.07112 0.02583,-0.142244 0.03535,-0.213856 -0.391793,0.0083 -0.785861,0.01381 -1.182179,0.0214 -0.04949,0.418944 -0.115687,0.835437 -0.203159,1.244157 l -1.488724,7.161495 c -0.144198,0.700973 0.375018,1.365447 1.078343,1.373251" />
    <path
       id="path230"
       style="fill:#475fb5;fill-opacity:1;fill-rule:nonzero;stroke:none;stroke-width:0.0470002"
       d="m 62.935606,91.234563 7.905251,0.08966 c 0.339644,0.0058 0.655713,-0.21385 0.804448,-0.561668 l 2.270035,-5.46575 c 0.441231,-1.012762 0.755025,-2.080094 0.943659,-3.171774 -2.847751,0.187054 -6.540761,0.310794 -10.639627,0.387267 -0.009,0.07166 -0.02134,0.142741 -0.03535,0.213856 l -2.128563,7.266232 c -0.110674,0.633283 0.311532,1.233917 0.880172,1.242211" />
    <path
       id="path232"
       style="fill:#5fa3dd;fill-opacity:1;fill-rule:nonzero;stroke:none;stroke-width:0.0470002"
       d="m 64.374907,79.219195 c 0.04036,0.601123 0.04267,1.205188 0.0077,1.806324 -0.01157,0.194856 -0.02583,0.387267 -0.04486,0.579692 -0.02815,0.303489 -0.0662,0.606979 -0.117873,0.907057 4.098867,-0.0765 7.791877,-0.200213 10.639627,-0.387267 0.05939,-0.327364 0.103862,-0.651318 0.137398,-0.981113 0.05617,-0.556314 0.08252,-1.117985 0.07751,-1.676744 -0.01157,-1.273389 -0.19091,-2.541903 -0.535541,-3.772914 l -4.565504,-14.7653 c -0.302456,-1.075607 -1.182628,-1.8112 -2.168911,-1.803398 l -2.584293,0.01851 c -1.288303,0.0083 -2.295898,1.260243 -2.201574,2.734343 L 64.375349,79.2192" />
    <path
       id="path234"
       style="fill:#475fb5;fill-opacity:1;fill-rule:nonzero;stroke:none;stroke-width:0.0470002"
       d="m 67.527839,61.166661 c 1.672834,0.124279 2.938449,1.728872 2.826901,3.584397 -0.111573,1.855526 -1.558098,3.259463 -3.230931,3.135239 -1.672383,-0.12414 -2.937999,-1.728857 -2.826439,-3.584397 0.111574,-1.855525 1.558098,-3.259462 3.230469,-3.135239" />
    <path
       id="path236"
       style="fill:#5fa3dd;fill-opacity:1;fill-rule:nonzero;stroke:none;stroke-width:0.0470002"
       d="m 67.463003,62.245678 c 1.13593,0.08479 1.99479,1.173524 1.919054,2.433271 -0.07572,1.25976 -1.057482,2.212606 -2.193399,2.128331 -1.135031,-0.08423 -1.994341,-1.173524 -1.918617,-2.43327 0.07572,-1.25976 1.057932,-2.212606 2.192962,-2.128332" />
    <path
       id="path238"
       style="fill:#e8d53b;fill-opacity:1;fill-rule:nonzero;stroke:none;stroke-width:0.0470002"
       d="m 67.463902,62.246659 c -1.135929,-0.08617 -2.118587,0.867591 -2.192949,2.128317 -0.0026,0.04971 -0.0038,0.09984 -0.0052,0.147602 -0.0026,1.19399 0.831662,2.203355 1.922242,2.285185 0.999883,0.07263 1.878692,-0.652767 2.126738,-1.684047 0.03535,-0.142728 0.0581,-0.289846 0.0662,-0.44427 0.07661,-1.260727 -0.783586,-2.349976 -1.917703,-2.432787" />
    <path
       id="path240"
       style="fill:#e59234;fill-opacity:1;fill-rule:nonzero;stroke:none;stroke-width:0.0470002"
       d="m 67.393167,62.838047 c -0.999896,-0.07209 -1.878256,0.652768 -2.126751,1.684531 -0.0026,1.19399 0.831661,2.203355 1.922242,2.285185 0.999882,0.07263 1.878692,-0.652767 2.126738,-1.684047 0.0026,-1.194472 -0.833911,-2.204321 -1.922229,-2.285669" />
    <path
       id="path242"
       style="fill:#475fb5;fill-opacity:1;fill-rule:nonzero;stroke:none;stroke-width:0.0470002"
       d="m 65.420601,62.562327 -0.564566,0.890983 4.066218,2.950616 0.564552,-0.890983 -4.066204,-2.950616" />
    <path
       id="path244"
       style="fill:#475fb5;fill-opacity:1;fill-rule:nonzero;stroke:none;stroke-width:0.0470002"
       d="m 66.970536,78.572751 c -1.529985,-1.287516 -1.757169,-3.704229 -0.507878,-5.397046 1.24974,-1.693315 3.502551,-2.022143 5.032087,-0.73413 1.529536,1.287999 1.756732,3.70423 0.507429,5.397544 -1.249291,1.6933 -3.502101,2.021631 -5.031638,0.733632" />
    <path
       id="path246"
       style="fill:#e59234;fill-opacity:1;fill-rule:nonzero;stroke:none;stroke-width:0.0470002"
       d="m 68.856491,78.104123 c 0.825311,0.105636 1.693695,-0.248448 2.255086,-1.015207 0.848422,-1.148682 0.69425,-2.789868 -0.344632,-3.663314 -0.503804,-0.422356 -1.120968,-0.589442 -1.724532,-0.515882 -0.637115,0.07691 -1.253828,0.425269 -1.691421,1.01569 -0.84571,1.149663 -0.691538,2.787922 0.344631,3.663314 0.347807,0.29229 0.750038,0.460343 1.160868,0.515399" />
    <path
       id="path248"
       style="fill:#475fb5;fill-opacity:1;fill-rule:nonzero;stroke:none;stroke-width:0.0470002"
       d="m 69.852761,78.714028 1.090582,-0.455482 -2.087302,-5.658653 -1.091031,0.455965 2.087751,5.65817" />
    <path
       id="path250"
       style="fill:#414ca8;fill-opacity:1;fill-rule:nonzero;stroke:none;stroke-width:0.0470002"
       d="m 67.128346,84.597238 c 1.415713,-0.801351 3.103509,-0.296669 3.770097,1.127251 0.666588,1.42392 0.05939,3.228298 -1.356314,4.030128 -1.415712,0.80184 -3.103509,0.297168 -3.770546,-1.126752 -0.666139,-1.42392 -0.059,-3.228778 1.356763,-4.030627" />
    <path
       id="path252"
       style="fill:#aa963a;fill-opacity:1;fill-rule:nonzero;stroke:none;stroke-width:0.0470002"
       d="m 67.516051,85.425881 c 0.960897,-0.544637 2.106802,-0.201677 2.559357,0.764803 0.452554,0.96649 0.04036,2.191661 -0.920985,2.735799 -0.960896,0.544137 -2.106801,0.201676 -2.559355,-0.764813 -0.452555,-0.96649 -0.04036,-2.191661 0.920983,-2.735789" />
    <path
       id="path254"
       style="fill:#414ca8;fill-opacity:1;fill-rule:nonzero;stroke:none;stroke-width:0.0470002"
       d="m 65.978353,86.748953 -0.09705,0.956755 4.522846,-9.6e-4 0.09705,-0.956736 -4.522858,9.6e-4" />
    <path
       id="path256"
       style="fill:#475fb5;fill-opacity:1;fill-rule:nonzero;stroke:none;stroke-width:0.0470002"
       d="M 55.827105,87.70326 H 43.539581 c -0.517852,0 -0.938221,-0.451094 -0.938221,-1.007405 0,-0.5568 0.420369,-1.008384 0.938221,-1.008384 h 12.287524 c 0.518304,0 0.938221,0.451584 0.938221,1.008384 0,0.556311 -0.419917,1.007405 -0.938221,1.007405" />
    <path
       id="path258"
       style="fill:#cb3759;fill-opacity:1;fill-rule:nonzero;stroke:none;stroke-width:0.0470002"
       d="m 95.147904,74.451041 -0.03216,-0.122207 c -0.389981,-1.315769 -1.368547,-2.156087 -2.185248,-1.876958 -0.658426,0.225056 -1.009862,1.108734 -0.918259,2.132226 1.046592,-0.0097 2.091379,-0.06379 3.135705,-0.132978" />
    <path
       id="path260"
       style="fill:#cb3759;fill-opacity:1;fill-rule:nonzero;stroke:none;stroke-width:0.0470002"
       d="m 92.143248,75.286485 0.01402,0.05455 c 0.390422,1.316265 1.368998,2.156584 2.185699,1.876971 0.644822,-0.220678 0.994445,-1.073674 0.921878,-2.069879 -1.039334,0.06973 -2.07959,0.124278 -3.121641,0.138349" />
    <path
       id="path262"
       style="fill:#cb3759;fill-opacity:1;fill-rule:nonzero;stroke:none;stroke-width:0.0470002"
       d="m 7.6935393,74.459809 c 0.053875,-0.969416 -0.2943888,-1.792198 -0.9258826,-2.008001 -0.8169619,-0.279131 -1.7952662,0.561188 -2.1854716,1.876956 -0.039859,0.134497 -0.069965,0.267932 -0.094416,0.400427 1.0718083,-0.02678 2.1393993,-0.137812 3.2057654,-0.269382" />
    <path
       id="path264"
       style="fill:#cb3759;fill-opacity:1;fill-rule:nonzero;stroke:none;stroke-width:0.0470002"
       d="m 4.423835,75.434087 c 0.00797,0.870035 0.3491232,1.58468 0.9311884,1.783927 0.8169159,0.279614 1.7954016,-0.560705 2.1856541,-1.876971 0.01609,-0.05455 0.028886,-0.109088 0.042672,-0.163191 -1.0510838,0.128145 -2.1031219,0.23334 -3.1595126,0.256235" />
    <path
       id="path266"
       style="fill:#4247a5;fill-opacity:1;fill-rule:nonzero;stroke:none;stroke-width:0.0470002"
       d="m 41.37792,62.371849 c -0.328771,0.143708 -0.668864,0.279131 -1.013946,0.410659 v 3.388561 c 3.908857,3.915656 9.701406,6.995867 16.457127,8.445111 0.994895,-0.764329 1.958966,-1.563733 2.882674,-2.395766 C 51.457519,70.872968 44.93217,67.091769 41.37792,62.371849" />
    <path
       id="path268"
       style="fill:#4247a5;fill-opacity:1;fill-rule:nonzero;stroke:none;stroke-width:0.0470002"
       d="m 58.74333,62.741593 c -0.306995,-0.118894 -0.609902,-0.241142 -0.90421,-0.369744 -3.55425,4.71992 -10.079149,8.501119 -18.325856,9.848565 0.923709,0.832033 1.88778,1.631437 2.883138,2.395766 6.691771,-1.436098 12.440332,-4.471003 16.346928,-8.33453 v -3.540057" />
  </g>
</svg>
