<?xml version="1.0" encoding="UTF-8" standalone="no"?>
<!-- Created with Inkscape (http://www.inkscape.org/) -->

<svg
   version="1.1"
   id="svg63"
   width="100"
   height="50"
   viewBox="0 0 100 50"
   sodipodi:docname="ufo.svg"
   inkscape:version="1.2.1 (9c6d41e410, 2022-07-14)"
   inkscape:export-filename="..\..\..\..\ufo.png"
   inkscape:export-xdpi="96"
   inkscape:export-ydpi="96"
   xmlns:inkscape="http://www.inkscape.org/namespaces/inkscape"
   xmlns:sodipodi="http://sodipodi.sourceforge.net/DTD/sodipodi-0.dtd"
   xmlns="http://www.w3.org/2000/svg"
   xmlns:svg="http://www.w3.org/2000/svg">
  <defs
     id="defs67" />
  <sodipodi:namedview
     id="namedview65"
     pagecolor="#505050"
     bordercolor="#ffffff"
     borderopacity="1"
     inkscape:showpageshadow="0"
     inkscape:pageopacity="0"
     inkscape:pagecheckerboard="1"
     inkscape:deskcolor="#505050"
     showgrid="false"
     inkscape:zoom="2.4376002"
     inkscape:cx="98.047253"
     inkscape:cy="77.125036"
     inkscape:window-width="1920"
     inkscape:window-height="1017"
     inkscape:window-x="-8"
     inkscape:window-y="-8"
     inkscape:window-maximized="1"
     inkscape:current-layer="g69" />
  <g
     inkscape:groupmode="layer"
     inkscape:label="Image"
     id="g69"
     transform="translate(-1346.5707,-132.51458)">
    <g
       id="g1309"
       transform="matrix(0.17616121,0,0,0.13542192,1348.4675,133.53972)">
      <path
         style="fill:#c8e2f6;stroke-width:1.06667"
         d="m 88.443885,205.95611 c -2.92148,-2.92149 -4.915678,-12.73256 -2.599836,-15.78073 3.215366,-4.23214 17.271781,-3.38696 19.254431,1.31364 37.04581,87.8309 -8.603536,22.51816 -16.654595,14.46709 z m 88.930785,1.43304 c -4.99221,-3.92686 -3.79261,-17.0427 2.27692,-19.55679 4.52716,-1.87521 16.38248,0.23312 18.33545,4.90724 3.6259,8.678 -13.11299,20.54856 -20.61237,14.64955 z m 87.84178,-2.15488 c -8.43493,-5.3555 1.71743,-22.6354 10.97331,-18.80149 8.79633,3.64353 9.25766,21.11592 -0.25143,21.11592 -1.60177,0 3.78482,6.89615 2.20067,5.89034 z m 87.01014,1.35029 c -4.71416,-5.15052 -1.44844,-15.0651 4.3553,-18.06632 6.072,-3.13995 16.01286,3.58131 16.01286,10.41856 0,7.60518 -15.4018,13.07382 -20.36816,7.64776 z m 90.63487,0.21227 c -4.61143,-3.54055 -3.44092,-12.03025 0.20028,-16.2634 5.13303,-5.9675 17.86122,0.19644 17.86122,7.9788 0,6.88379 -12.83536,12.2971 -18.0615,8.2846 z"
         id="path1333"
         sodipodi:nodetypes="sssssssssssssssssssss" />
      <path
         style="fill:#bee1ee;stroke-width:1.06667"
         d="m 176.14957,330.89702 c -2.86352,-1.60912 -12.35124,-10.20389 -12.35124,-11.28391 0,-0.4769 14.7648,-5.1817 19.25265,-2.31751 l 9.38985,1.45041 -2.49595,7.43417 c -1.73755,5.17526 -10.14071,6.77051 -13.79531,4.71684 z m 86.37938,-0.92064 c -2.19846,-1.33093 -3.00518,-5.22897 -3.91998,-6.53503 l -9.20545,-2.66475 18.94315,-1.7405 c 10.59081,-0.97308 12.43107,3.75975 8.89056,9.48843 -2.61076,4.2243 -9.30374,4.72371 -14.70828,1.45185 z m 88.69018,1.177 C 349.10692,330.037 337.54688,317.91161 339.2127,318.56826 l 2.27693,1.91825 13.68576,0.58017 c 5.28878,0.2242 9.62459,0.29464 9.62459,0.65477 0,6.28125 -7.89457,12.43733 -13.58085,9.43193 z M 209.94084,124.53334 c -0.68606,-4.83062 -13.00983,-2.06498 -31.95781,-4.68127 l -11.24158,-0.002 -0.29008,-4.33742 c -3.76721,-56.328201 74.47117,-110.3002434 131.6648,-94.283651 32.13604,8.999427 67.21177,49.498172 67.87035,88.056161 l 0.15568,9.11484 -66.92152,3.00718 c -71.01547,3.19115 -68.37387,-2.87123 -71.48736,2.06303 -2.8746,4.55576 -17.17509,5.41025 -17.79248,1.06315 z"
         id="path1331"
         sodipodi:nodetypes="ssscsssscssssscssssscssscssss" />
      <path
         style="fill:#a5cfe2;stroke-width:1.06667"
         d="m 186.22083,326.00762 c 2.76155,-4.94094 8.8533,-8.13185 14.75888,-8.13185 8.853,0 -3.09909,18.02216 -12.49558,14.79731 l -5.02485,-1.72452 z m 88.22124,-0.0883 2.35791,-4.74738 6.15792,-0.0526 9.34884,0.23748 -2.94786,4.46862 c -2.11781,3.21035 -10.82773,4.84124 -14.60764,4.84124 h -2.66708 z m 83.10593,5.68788 c 4.34177,-9.05992 5.03034,-13.60925 11.55346,-12.281 l 8.5477,1.7405 -1.03489,8.84672 c -0.60281,5.15303 -20.95678,5.6387 -19.06627,1.69378 z M 176.31903,118.67171 c 5.16214,-0.19596 13.32214,-0.19496 18.13333,0.002 4.8112,0.19717 0.58763,0.3575 -9.3857,0.35628 -9.97334,-0.001 -13.90976,-0.16256 -8.74763,-0.35851 z m 123.81781,-0.005 66.00351,-0.28313 -0.73493,-6.49591 C 362.0388,82.130827 341.79408,49.63181 315.73331,32.148714 c -7.50773,-5.036633 -2.50374,-6.13721 7.70083,-1.023956 31.7846,15.926454 55.2325,55.182766 55.2325,85.211652 v 3.13026 l -72.26666,-0.25838 -72.26666,-0.25838 66.00352,-0.28314 z"
         id="path1329"
         sodipodi:nodetypes="ssscsccccssccsscsssssssccssssccccc" />
      <path
         style="fill:#fcb554;stroke-width:1.06667"
         d="m 149.33332,294.93334 -2.90083,-11.09724 120.23416,2.03058 116.75316,-1.7405 0.58017,10.80716 2.61075,11.38734 h -8.96392 l -7.5135,-2.32067 -0.58017,-4.7774 c -0.97669,-8.04263 -2.63904,-12.1913 -8.26831,-12.25535 -5.09892,-0.058 -8.21818,4.16175 -8.21818,11.1176 l 2.03058,9.68623 -37.76392,-2.32066 -35.73333,2.03058 v -8.35112 c 0,-7.52978 -3.23563,-12.1287 -8.53333,-12.1287 -5.2977,0 -8.53333,4.59892 -8.53333,12.1287 l 0.58017,6.61062 h -36.3135 l -35.15317,0.29008 -0.58017,-7.94573 c -0.50654,-6.93738 -3.11926,-11.1756 -8.21818,-11.1176 -5.62927,0.064 -8.84848,4.7338 -8.84848,12.83552 v 5.93773 l -12.75316,0.58017 -13.91351,-0.87025 z M 138.91284,141.93849 c -0.97788,-6.62878 1.98695,-6.47182 35.55727,-6.47182 32.50191,0 29.65933,-6.08208 33.31991,-10.09718 3.06357,-3.36028 21.09909,-3.35507 21.09909,0.3115 0,0.90666 -0.94618,4.43752 0.15248,6.15221 l 4.35867,1.60289 78.42682,2.03058 h 80.45742 l 0.64317,2.4 c 0.35375,1.32 0.64974,3.48 0.65775,4.8 l 2.835,3.37432 -129.46369,-0.5392 -127.36845,1.0153 z"
         id="path1327"
         sodipodi:nodetypes="ccccccccssscccssscccsssccccssssscccsscccs" />
      <path
         style="fill:#4bb9e9;stroke-width:1.06667"
         d="m 14.455918,235.65163 c 0,-30.18367 33.704054,-69.17315 68.799995,-74.15197 14.903079,-2.11421 378.129637,-1.62128 385.298437,0.55871 21.34982,6.49235 49.45279,48.94752 49.45279,72.18968 0,1.90024 -9.10439,1.09246 -250.76032,1.09246 -207.913247,0 -252.790902,1.50177 -252.790902,0.31112 z m 92.751842,-14.15969 c 10.80986,-5.03389 16.83759,-16.62674 14.55495,-27.99285 -4.92886,-24.54259 -37.153558,-29.13415 -48.429381,-6.90049 -10.955545,21.60213 11.887408,45.13218 33.874431,34.89334 z m 87.45889,0.51624 c 29.33132,-13.37081 13.84473,-57.70692 -17.0226,-48.73354 -23.86551,6.93789 -25.10872,40.91555 -1.80171,49.24172 5.54899,1.98232 13.85271,1.75814 18.82431,-0.50818 z m 91.83245,-1.79669 c 14.39409,-8.89919 16.51953,-29.51194 4.21276,-40.85592 -23.81658,-21.95337 -57.09956,9.81698 -37.37536,35.67675 7.04368,9.23475 22.65845,11.67338 33.1626,5.17917 z m 86.46285,1.31388 c 20.85334,-10.78368 17.98546,-41.72197 -4.4727,-48.25073 -21.24398,-6.1758 -40.05928,16.28095 -30.38491,36.26552 5.9611,12.31399 22.93553,18.15037 34.85761,11.98521 z m 85.0476,1.17744 c 5.85903,-1.7311 14.69546,-10.56753 16.42656,-16.42656 8.44555,-28.58446 -29.78304,-47.37983 -46.12887,-22.6796 -13.59053,20.53668 5.86328,46.14963 29.70231,39.10616 z"
         id="path1325"
         sodipodi:nodetypes="ssssssssssssssssssssssssss" />
      <path
         style="fill:#379fd6;stroke-width:1.06667"
         d="m 516.26664,231.6373 c 0,-18.18639 -33.31541,-57.46533 -52.93138,-72.08097 -6.71846,-5.00584 10.79271,5.82369 21.51303,11.13428 22.98824,11.38783 39.71155,33.73955 43.67631,58.37607 l 0.72955,4.53333 -7.36401,2.32067 c -5.33579,1.6815 -5.6235,-2.59248 -5.6235,-4.28338 z"
         id="path1323"
         sodipodi:nodetypes="sssscss" />
      <path
         style="fill:#cf9545;stroke-width:1.06667"
         d="m 148.48601,295.23098 0.21934,-9.89764 0.35552,9.33334 0.35552,9.33333 h 13.23335 13.23336 l 0.41224,-4.53333 0.41223,-4.53334 -0.0871,4.8 -0.0872,4.8 -14.13333,0.29764 -14.13334,0.29762 0.21935,-9.89762 z m 61.84569,9.03782 c 9.78911,-0.17586 26.10911,-0.17618 36.26666,-7e-4 10.15756,0.17547 2.14829,0.31937 -17.79837,0.31975 -19.94667,3.9e-4 -28.2574,-0.14319 -18.46829,-0.31905 z m 88.53333,0 c 9.78911,-0.17586 26.1091,-0.17618 36.26666,-7e-4 10.15756,0.17547 2.14829,0.31937 -17.79838,0.31975 -19.94666,3.9e-4 -28.25739,-0.14319 -18.46828,-0.31905 z m 70.63039,-0.68995 c -0.31401,-0.81831 -0.37963,-3.33831 -0.14583,-5.6 0.40776,-3.94446 0.43241,-3.90752 0.60441,0.90576 l 0.17931,5.01793 7.2,0.37315 7.2,0.37315 -7.23347,0.20892 c -5.35084,0.15454 -7.38208,-0.17831 -7.80442,-1.27891 z M 199.88745,144.31821 c 35.05333,-0.15599 95.4592,0.8593 130.51253,1.01529 35.05333,0.15599 6.08325,1.15386 -64.02341,1.15386 -70.10666,0 -101.54245,-2.01316 -66.48912,-2.16915 z"
         id="path1321"
         sodipodi:nodetypes="ccccccccccccccssssssssssscccssssss" />
      <path
         style="fill:#e97a3e;stroke-width:1.06667"
         d="m 382.54956,296.9171 0.29009,-12.79092 8.38374,-0.87025 6.35317,1.7405 0.29008,10.47025 v 9.6 h -6.93333 -6.93333 z m 11.03586,-153.71709 c -0.009,-1.61334 -1.02192,-4.32102 -1.37567,-5.64102 -0.60374,-2.25283 0.39927,-2.09232 5.36716,-2.09232 6.23208,0 10.38709,2.3298 9.43843,7.38655 l -0.61536,3.28012 h -6.4 c -6.26718,0 -6.4003,-0.0609 -6.41456,-2.93333 z"
         id="path1319"
         sodipodi:nodetypes="ccccccccccssscsc" />
      <path
         style="fill:#307391;stroke-width:1.06667"
         d="m 144.79999,233.86672 c 70.54666,-0.15143 185.98666,-0.15143 256.53332,0 70.54666,0.15141 12.82666,0.2753 -128.26666,0.2753 -141.09332,0 -198.813321,-0.12389 -128.26666,-0.2753 z"
         id="path1317" />
      <path
         style="fill:#56545b;stroke-width:1.06667"
         d="m 129.59999,266.77341 c 0,5.33279 -18.2319,-14.89967 -16.29507,-16.83649 0.24081,-0.24082 71.32145,0.84411 155.29787,0.99279 l 153.26458,-1.76028 -3.29106,7.89725 c -1.3673,3.28099 -3.97043,7.18666 -5.50985,8.8 l -2.79894,2.93333 -138.7806,2.29717 c -132.33743,2.19051 -137.80071,-2.42778 -141.88693,-4.3238 z M 30.205491,249.86759 c 12.799688,-0.17028 33.439687,-0.17007 45.866664,4.6e-4 12.426979,0.17052 1.954507,0.30984 -23.272158,0.30958 -25.226665,-2.4e-4 -35.394192,-0.13976 -22.594506,-0.31004 z m 442.594479,3e-4 c 12.17333,-0.17113 32.09333,-0.17113 44.26667,0 12.17333,0.17114 2.21333,0.31117 -22.13334,0.31117 -24.34666,0 -34.30666,-0.14003 -22.13333,-0.31117 z"
         id="path1315"
         sodipodi:nodetypes="ssscsscsssssssssss" />
      <path
         style="fill:#403f44;stroke-width:1.06667"
         d="m 132.26264,298.98321 c -0.29113,-8.33258 -0.15482,-14.77408 0.30291,-14.31444 0.45772,0.45962 0.69591,7.27718 0.52931,15.15013 l -0.30291,14.31445 z m 280.9582,0.2168 c 0.002,-8.21333 0.1691,-11.43233 0.37208,-7.15333 0.20299,4.279 0.20163,10.999 -0.003,14.93333 -0.20447,3.93434 -0.37055,0.43333 -0.36888,-7.78 z M 210.93332,285.06685 c 34.17333,-0.15622 90.09333,-0.15622 124.26666,0 34.17333,0.15621 6.21333,0.28402 -62.13333,0.28402 -68.34666,0 -96.30666,-0.12781 -62.13333,-0.28402 z m 62.0792,-16.00015 137.01253,-0.27481 2.88904,-2.76787 c 1.58897,-1.52232 4.16024,-5.6005 5.71394,-9.0626 l 2.8249,-6.29474 h 6.36187 6.36187 l -2.11822,4.15205 c -1.16503,2.28364 -4.15381,5.89445 -6.64176,8.02403 -8.68024,7.42996 -0.18032,7.05256 -152.27697,6.76132 L 135.99999,269.34149 Z M 184.26666,161.33342 c 48.83999,-0.15345 128.75999,-0.15345 177.59998,0 48.84,0.15346 8.88,0.27901 -88.79999,0.27901 -97.67999,0 -137.63999,-0.12555 -88.79999,-0.27901 z"
         id="path1313" />
      <path
         style="fill:#010101;stroke-width:1.06667"
         d="m 173.54951,345.19128 c -9.37076,-3.48856 -15.73954,-9.55881 -19.90229,-18.9694 l -2.15011,-4.86068 -7.00008,-0.5619 c -10.97958,-0.88134 -11.1637,-1.21448 -11.1637,-20.19808 0,-11.77953 -0.34356,-15.96667 -1.33334,-16.25046 -16.45137,-4.71696 -26.57342,-13.66866 -31.75582,-28.08408 l -2.396689,-6.66667 H 51.222394 c -54.8529482,0 -50.90477566,0.94908 -50.37375337,-12.10908 C 3.025142,183.96944 43.221962,147.96698 102.53546,146.41469 l 20.93548,-0.54789 0.68464,-5.82527 c 0.84486,-7.18844 2.6298,-10.75408 7.54282,-15.06778 4.04368,-3.5504 5.50159,-4.10566 13.91617,-5.30019 5.1409,-0.72979 5.3289,-0.87964 5.62215,-4.48097 11.40581,-140.075162 222.72652,-145.647664 242.62483,-6.39798 l 1.44725,10.12793 5.26435,0.75304 c 8.3662,1.19673 9.8259,1.75465 13.86175,5.29817 4.91302,4.3137 6.69796,7.87934 7.54282,15.06778 l 0.68464,5.82527 20.93548,0.54789 c 59.3135,1.55229 99.51032,37.55475 101.68682,91.07624 0.53033,13.04104 4.32852,12.10908 -49.35074,12.10908 h -45.60206 l -1.88979,6.00811 c -4.03802,12.83794 -15.76603,24.01561 -29.08267,27.71797 l -6.55943,1.82368 v 15.6598 c 0,18.74034 -0.20604,19.11015 -11.13671,19.98756 l -6.97308,0.55974 -2.51962,5.50358 c -12.26262,26.78508 -51.74772,26.09741 -62.12764,-1.08201 l -1.79944,-4.71176 h -10.91017 -10.91016 l -1.79945,4.71176 c -10.46792,27.40989 -52.64618,27.40989 -63.1141,0 l -1.79945,-4.71176 h -10.91016 -10.91017 l -1.79944,4.71176 c -5.93454,15.53938 -27.05568,25.17767 -42.54087,19.41284 z m 18.79926,-15.20031 c 2.4047,-1.09209 5.72747,-3.77163 7.02937,-5.59999 l 2.36712,-3.3243 h -16.60598 c -17.6616,0 -18.23064,0.19843 -13.67262,4.80245 5.34116,5.39506 13.16146,7.62813 20.88211,4.12184 z m 88.907,-0.48251 c 2.5278,-1.22368 5.59202,-3.62368 6.8094,-5.33333 l 2.21341,-3.10845 h -17.21193 -17.21193 l 2.19556,3.08338 c 4.94968,6.95119 15.08208,9.29088 23.20549,5.3584 z m 87.04514,0.77422 c 3.51636,-1.48614 9.29907,-6.64434 9.29907,-8.29479 0,-0.50666 -7.47269,-0.92121 -16.60596,-0.92121 h -16.60598 l 2.36712,3.3243 c 4.44139,6.23737 14.32991,8.9414 21.54575,5.8917 z M 176.48649,297.99756 c 0.65345,-7.30856 3.30907,-10.28763 8.37847,-10.28763 5.17595,0 8.2767,2.94739 8.58545,10.37658 l 0.29008,6.98017 h 35.0595 36.79999 l -1.45042,-6.4 c -1.64843,-7.27376 3.40626,-12.40717 8.62701,-12.40717 5.22075,0 10.8556,5.13341 9.20717,12.40717 l -1.45042,6.4 h 36.79999 36.8 l -1.45042,-6.4 c -1.64343,-7.25172 2.82933,-11.827 8.00528,-11.827 5.0694,0 10.02037,2.70052 9.24872,9.99755 l -0.87025,8.22945 h 14.44004 14.44002 l -0.30669,-9.86667 -0.3067,-9.86667 H 273.06665 148.79999 l -0.3067,9.86667 -0.30669,9.86667 h 14.44002 l 13.27971,-0.58017 z M 415.5863,268.29071 c 6.37026,-1.89177 13.56726,-7.77793 16.47215,-13.47198 l 2.11822,-4.15205 H 274.13332 114.08997 l 2.11821,4.15205 c 2.81132,5.51063 10.04973,11.56738 16.02582,13.40961 7.45011,2.29662 275.62998,2.35565 283.3523,0.0624 z m 113.98651,-37.62403 c -5.43064,-33.0554 -30.16025,-59.70018 -62.37284,-67.20328 -12.34388,-2.87519 -375.922756,-2.87519 -388.266641,0 -32.212591,7.5031 -56.942191,34.14788 -62.37284,67.20328 l -0.657158,4 H 273.06665 530.22997 Z M 87.712739,223.18557 c -20.340367,-6.35635 -23.293401,-41.10551 -3.940856,-50.11722 15.991089,-7.44642 38.172677,6.06798 39.779727,23.79089 -3.75188,22.49594 -20.47088,31.12881 -35.838871,26.32633 z m 13.584711,-16.76701 c 5.68378,-2.9392 6.48267,-11.29504 1.49162,-15.60145 -9.430463,-8.13688 -22.073583,5.26249 -13.271127,14.06495 3.493705,3.4937 7.088054,3.96255 11.779507,1.5365 z m 72.07694,15.93843 c -15.47266,-7.12714 -20.11312,-30.39811 -8.62032,-42.65595 12.86163,-13.71779 39.38287,-8.21403 45.2812,9.54418 6.89019,20.74443 -16.87812,42.22425 -36.66088,33.11177 z m 15.79155,-15.54147 c 2.41511,-1.1004 4.03052,-3.36172 5.28962,-7.40471 2.78609,-8.94611 -12.60698,-14.83987 -17.85186,-6.83519 -5.47477,8.35558 3.39934,18.4148 12.56224,14.2399 z m 70.1554,14.19362 c -16.02613,-7.98617 -16.95543,-31.23961 -3.12004,-43.0822 18.12859,-15.5174 47.61528,2.09339 42.58877,25.5312 -2.44788,11.41408 -14.02167,20.70592 -25.92854,20.70592 -4.28708,0 -9.59233,-1.18762 -13.54019,-3.15492 z m 20.06346,-15.77061 c 8.37888,-7.05037 0.16665,-20.24334 -9.96563,-16.00981 -9.63376,4.02525 -6.76843,18.77129 3.64748,18.77129 1.71033,0 4.46954,-1.20598 6.31815,-2.76148 z m 72.49209,17.23897 c -16.23984,-7.09444 -22.62685,-30.82004 -10.15212,-43.29477 16.04511,-16.04511 47.28843,-3.74566 47.28843,19.0666 0,17.25713 -21.39343,31.10553 -37.13631,24.22817 z m 16.20514,-17.59544 c 7.72795,-7.72795 -0.27359,-19.77141 -10.34117,-15.56491 -7.45444,3.11467 -8.01098,13.41384 -0.94088,17.41168 3.81089,2.15489 7.95948,1.47581 11.28205,-1.84677 z m 71.62992,17.97413 c -17.63968,-7.68093 -21.52768,-35.54791 -5.98397,-46.3197 21.23645,-14.71687 51.47705,8.88449 40.78064,32.20197 -5.40946,11.79229 -23.13978,19.19355 -34.79667,14.11773 z m 16.9034,-17.97413 c 8.80247,-8.80246 -3.84066,-22.20183 -13.27112,-14.06495 -6.99515,6.0356 -2.4272,17.00472 7.13779,17.14019 1.94964,0.0276 4.11738,-1.05929 6.13333,-3.07524 z m -50.21537,-62.88479 c 0,-6.83016 4.74306,-6.468 -88.77509,-6.77856 -96.21803,-0.31952 -90.4249,0.17712 -90.4249,-7.75204 0,-7.8614 -4.35084,-7.43232 78.63178,-7.75475 l 74.142,-0.28809 -0.75233,-6.02144 C 363.97509,-8.625237 182.15591,-8.6068934 166.90918,113.42381 l -0.755,6.04286 h 18.1868 c 23.05269,0 27.4563,1.75838 25.35642,10.12497 -1.33324,5.31205 -4.94749,5.87503 -37.71648,5.87503 -32.69096,0 -32.2476,-0.0909 -32.2476,6.61334 v 4.05333 l 133.04325,0.14504 133.62341,-0.14504 z"
         id="path1311"
         sodipodi:nodetypes="sscsssscssscssssscssscssscsscsscsscccsscccsssscssssscccssssscssssscccssscccssscccccccccccssscccsssssssscccscsccssssssssssssssssssssssssssssssssssssssssscsscsssscccs" />
    </g>
    <g
       id="g785"
       transform="translate(-568.01305,-202.42366)" />
  </g>
</svg>
