<?xml version="1.0" encoding="UTF-8" standalone="no"?>
<svg
   width="200"
   height="100"
   version="1.1"
   id="svg82"
   sodipodi:docname="ufo.svg"
   inkscape:version="1.2.1 (9c6d41e410, 2022-07-14)"
   xmlns:inkscape="http://www.inkscape.org/namespaces/inkscape"
   xmlns:sodipodi="http://sodipodi.sourceforge.net/DTD/sodipodi-0.dtd"
   xmlns="http://www.w3.org/2000/svg"
   xmlns:svg="http://www.w3.org/2000/svg">
  <defs
     id="defs86" />
  <sodipodi:namedview
     id="namedview84"
     pagecolor="#505050"
     bordercolor="#ffffff"
     borderopacity="1"
     inkscape:showpageshadow="0"
     inkscape:pageopacity="0"
     inkscape:pagecheckerboard="1"
     inkscape:deskcolor="#505050"
     showgrid="false"
     inkscape:zoom="6.195"
     inkscape:cx="96.448749"
     inkscape:cy="50.040355"
     inkscape:window-width="1920"
     inkscape:window-height="1017"
     inkscape:window-x="-8"
     inkscape:window-y="-8"
     inkscape:window-maximized="1"
     inkscape:current-layer="svg82" />
  <path
     d="m 199.00003,66.970083 c -24.95737,-8.510111 -60.06342,-13.807764 -98.95482,-13.807764 -38.890708,0 -73.996758,5.297653 -98.95481,13.807764 h 197.90963"
     style="fill:#de4156;fill-opacity:1;fill-rule:nonzero;stroke:none;stroke-width:0.0724112"
     id="path2" />
  <path
     d="m 1.0904,82.464353 c 24.958052,8.468036 60.064102,13.739483 98.95481,13.739483 38.8914,0 73.99745,-5.271447 98.95482,-13.739483 H 1.0904"
     style="fill:#de4156;fill-opacity:1;fill-rule:nonzero;stroke:none;stroke-width:0.0722319"
     id="path4" />
  <path
     d="m 100.04521,96.203762 c -19.847348,0 -31.761727,-4.383276 -53.464092,-13.739409 L 1.0904,82.732458 c 24.958052,8.302537 60.064102,13.471378 98.95481,13.471378"
     style="fill:#cb3759;fill-opacity:1;fill-rule:nonzero;stroke:none;stroke-width:0.0715252"
     id="path6" />
  <path
     d="m 150.4503,83.842598 c -27.31844,11.029351 -30.55773,12.361238 -50.40509,12.361238 38.8914,0 73.99745,-5.168841 98.95482,-13.471378 L 150.4208,79.604741"
     style="fill:#f14d54;fill-opacity:1;fill-rule:nonzero;stroke:none;stroke-width:0.0715252"
     id="path8" />
  <path
     d="M 29.337136,89.468147 H 170.9344 c 0,3.41996 -1.65738,6.419455 -4.14756,8.099687 -1.34044,0.905296 -2.92236,1.428071 -4.61678,1.428071 H 38.102158 c -1.815156,0 -3.501344,-0.599545 -4.900784,-1.627231 -2.331028,-1.71153 -3.864238,-4.611741 -3.864238,-7.900527"
     style="fill:#475fb5;fill-opacity:1;fill-rule:nonzero;stroke:none;stroke-width:0.0715252"
     id="path10" />
  <path
     d="M 157.17324,83.842598 H 42.917192 V 66.634509 L 157.17324,63.777038 v 20.06556"
     style="fill:#de4156;fill-opacity:1;fill-rule:nonzero;stroke:none;stroke-width:0.0543459"
     id="path12" />
  <path
     d="M 32.839852,87.592964 1.0904,82.732532 0.999848,65.657684 h 48.545476 v 20.953139"
     style="fill:#cb3759;fill-opacity:1;fill-rule:nonzero;stroke:none;stroke-width:0.0707843"
     id="path14" />
  <path
     d="m 198.91016,82.732458 -48.48936,6.735689 0.12499,-23.810537 h 48.36437 l 0.0899,16.806743"
     style="fill:#f14d54;fill-opacity:1;fill-rule:nonzero;stroke:none;stroke-width:0.0706532"
     id="path16" />
  <path
     d="m 22.63766,79.604741 h -6.15685 v -9.842515 h 6.15685 v 9.842515"
     style="fill:#66cccc;fill-opacity:1;fill-rule:nonzero;stroke:none;stroke-width:0.0715252"
     id="path18" />
  <path
     d="m 22.63766,72.225438 h -6.15685 v -2.463286 h 6.15685 v 2.463286"
     style="fill:#3fb8ab;fill-opacity:1;fill-rule:nonzero;stroke:none;stroke-width:0.0715252"
     id="path20" />
  <path
     d="m 42.736088,79.604741 h -6.156164 v -9.842515 h 6.156164 v 9.842515"
     style="fill:#66cccc;fill-opacity:1;fill-rule:nonzero;stroke:none;stroke-width:0.0715252"
     id="path22" />
  <path
     d="m 42.736088,72.225438 h -6.156164 v -2.463286 h 6.156164 v 2.463286"
     style="fill:#3fb8ab;fill-opacity:1;fill-rule:nonzero;stroke:none;stroke-width:0.0715252"
     id="path24" />
  <path
     d="m 62.835202,79.604741 h -6.156164 v -9.842515 h 6.156164 v 9.842515"
     style="fill:#66cccc;fill-opacity:1;fill-rule:nonzero;stroke:none;stroke-width:0.0715252"
     id="path26" />
  <path
     d="m 62.835202,72.225438 h -6.156164 v -2.463286 h 6.156164 v 2.463286"
     style="fill:#3fb8ab;fill-opacity:1;fill-rule:nonzero;stroke:none;stroke-width:0.0715252"
     id="path28" />
  <path
     d="m 100.04521,53.162319 c 19.84736,0 37.76362,5.156292 50.50058,13.439342 l 48.36437,-0.842995 C 173.9528,57.475617 138.93661,53.162319 100.04521,53.162319"
     style="fill:#f14d54;fill-opacity:1;fill-rule:nonzero;stroke:none;stroke-width:0.0714384"
     id="path30" />
  <path
     d="m 49.545324,66.634509 c 12.736962,-8.303275 30.652538,-13.47219 50.499886,-13.47219 -38.890708,0 -74.08731,4.293072 -99.045362,12.596347 l 48.545476,0.875843"
     style="fill:#cb3759;fill-opacity:1;fill-rule:nonzero;stroke:none;stroke-width:0.0715252"
     id="path32" />
  <path
     d="m 82.934316,79.604741 h -6.15685 v -9.842515 h 6.15685 v 9.842515"
     style="fill:#66cccc;fill-opacity:1;fill-rule:nonzero;stroke:none;stroke-width:0.0715252"
     id="path34" />
  <path
     d="M 170.75398,60.031322 H 29.156718 c 0,-3.420033 1.657376,-6.419529 4.14687,-8.100425 1.34113,-0.904632 2.923046,-1.427406 4.617466,-1.427406 H 161.98896 c 1.81515,0 3.50134,0.599618 4.90078,1.62723 2.33103,1.712268 3.86424,4.611815 3.86424,7.900601"
     style="fill:#475fb5;fill-opacity:1;fill-rule:nonzero;stroke:none;stroke-width:0.0715252"
     id="path36" />
  <path
     d="m 82.934316,72.225438 h -6.15685 v -2.463286 h 6.15685 v 2.463286"
     style="fill:#3fb8ab;fill-opacity:1;fill-rule:nonzero;stroke:none;stroke-width:0.0715252"
     id="path38" />
  <path
     d="m 103.03343,79.604741 h -6.15685 v -9.842515 h 6.15685 v 9.842515"
     style="fill:#66cccc;fill-opacity:1;fill-rule:nonzero;stroke:none;stroke-width:0.0715252"
     id="path40" />
  <path
     d="m 103.03343,72.225438 h -6.15685 v -2.463286 h 6.15685 v 2.463286"
     style="fill:#3fb8ab;fill-opacity:1;fill-rule:nonzero;stroke:none;stroke-width:0.0715252"
     id="path42" />
  <path
     d="m 123.13186,79.604741 h -6.15617 v -9.842515 h 6.15617 v 9.842515"
     style="fill:#66cccc;fill-opacity:1;fill-rule:nonzero;stroke:none;stroke-width:0.0715252"
     id="path44" />
  <path
     d="m 123.13186,72.225438 h -6.15617 v -2.463286 h 6.15617 v 2.463286"
     style="fill:#3fb8ab;fill-opacity:1;fill-rule:nonzero;stroke:none;stroke-width:0.0715252"
     id="path46" />
  <path
     d="m 143.23097,79.604741 h -6.15685 v -9.842515 h 6.15685 v 9.842515"
     style="fill:#66cccc;fill-opacity:1;fill-rule:nonzero;stroke:none;stroke-width:0.0715252"
     id="path48" />
  <path
     d="m 143.23097,72.225438 h -6.15685 v -2.463286 h 6.15685 v 2.463286"
     style="fill:#3fb8ab;fill-opacity:1;fill-rule:nonzero;stroke:none;stroke-width:0.0715252"
     id="path50" />
  <path
     d="m 163.3294,79.604741 h -6.15616 v -9.842515 h 6.15616 v 9.842515"
     style="fill:#66cccc;fill-opacity:1;fill-rule:nonzero;stroke:none;stroke-width:0.0715252"
     id="path52" />
  <path
     d="m 163.3294,72.225438 h -6.15616 v -2.463286 h 6.15616 v 2.463286"
     style="fill:#3fb8ab;fill-opacity:1;fill-rule:nonzero;stroke:none;stroke-width:0.0715252"
     id="path54" />
  <path
     d="m 183.42851,79.604741 h -6.15616 v -9.842515 h 6.15616 v 9.842515"
     style="fill:#66cccc;fill-opacity:1;fill-rule:nonzero;stroke:none;stroke-width:0.0715252"
     id="path56" />
  <path
     d="m 183.42851,72.225438 h -6.15616 v -2.463286 h 6.15616 v 2.463286"
     style="fill:#3fb8ab;fill-opacity:1;fill-rule:nonzero;stroke:none;stroke-width:0.0715252"
     id="path58" />
  <path
     d="m 132.20284,97.567834 c -1.08478,0.986348 -3.88338,1.477455 -4.36091,1.428883 11.54813,-0.0041 23.09646,0.0081 34.64451,-0.0061 4.35734,-0.06311 8.23571,-4.155624 8.42875,-8.886359 0.32393,-1.053374 -0.88611,-0.499891 -1.43484,-0.636158 h -33.13064 c 0.027,3.24922 -1.5988,6.406316 -4.14687,8.099687 z"
     style="fill:#5fa3dd;fill-opacity:1;fill-rule:nonzero;stroke:none;stroke-width:0.0715252"
     id="path60" />
  <path
     d="m 67.805958,97.567834 c 1.34113,0.905296 2.923046,1.428883 4.617466,1.428883 h -34.58469 c -1.69442,0 -3.276336,-0.523513 -4.617466,-1.428883 -2.489494,-1.680232 -4.14687,-4.679654 -4.14687,-8.099687 h 34.584004 c 0,3.41996 1.658062,6.419455 4.147556,8.099687"
     style="fill:#33419f;fill-opacity:1;fill-rule:nonzero;stroke:none;stroke-width:0.0715252"
     id="path62" />
  <path
     d="m 156.99213,51.380515 c -14.36278,-4.778126 -34.56617,-7.752893 -56.94692,-7.752893 -22.380746,0 -42.583446,2.974841 -56.946228,7.752893 H 156.99213"
     style="fill:#475fb5;fill-opacity:1;fill-rule:nonzero;stroke:none;stroke-width:0.0715252"
     id="path64" />
  <path
     d="m 132.28516,51.930897 c -1.34113,-0.904632 -2.92305,-1.427406 -4.61816,-1.427406 h 34.58469 c 1.69511,0 3.27634,0.522774 4.61816,1.427406 2.4888,1.680896 4.14618,4.680392 4.14618,8.100425 h -34.584 c 0,-3.420033 -1.65807,-6.419529 -4.14687,-8.100425"
     style="fill:#5fa3dd;fill-opacity:1;fill-rule:nonzero;stroke:none;stroke-width:0.0715252"
     id="path66" />
  <path
     d="m 100.04521,43.627622 c 11.4219,0 21.73248,2.974841 29.06239,7.752893 h 27.88453 c -14.36278,-4.778126 -34.56617,-7.752893 -56.94692,-7.752893"
     style="fill:#5fa3dd;fill-opacity:1;fill-rule:nonzero;stroke:none;stroke-width:0.0715252"
     id="path68" />
  <path
     d="m 67.887592,51.930897 c 1.34113,-0.904632 2.923046,-1.427406 4.617466,-1.427406 H 37.921054 c -1.69442,0 -3.276336,0.522774 -4.617466,1.427406 -2.489494,1.680896 -4.14687,4.680392 -4.14687,8.100425 h 34.584004 c 0,-3.420033 1.658062,-6.419529 4.14687,-8.100425"
     style="fill:#33419f;fill-opacity:1;fill-rule:nonzero;stroke:none;stroke-width:0.0715252"
     id="path70" />
  <path
     d="m 70.98351,51.380515 c 7.32991,-4.778126 17.64049,-7.752893 29.0617,-7.752893 -22.380746,0 -42.583446,2.974841 -56.946228,7.752893 H 70.98351"
     style="fill:#33419f;fill-opacity:1;fill-rule:nonzero;stroke:none;stroke-width:0.0715252"
     id="path72" />
  <path
     d="M 125.36273,44.931902 H 74.491028 V 28.651255 c 0,-8.880527 3.850518,-16.783343 9.835868,-21.8418265 C 88.63429,3.1679429 94.047516,1 99.926536,1 c 7.456134,0 14.162474,3.4871334 18.814924,9.043811 4.11325,4.912326 6.62127,11.441474 6.62127,18.607444 v 16.280647"
     style="fill:#66cccc;fill-opacity:1;fill-rule:nonzero;stroke:none;stroke-width:0.0715252"
     id="path74" />
  <path
     d="m 92.969124,3.2462631 c 0.74431,-0.6294408 1.52292,-1.2134102 2.324854,-1.760028 C 91.260298,2.3154997 87.5607,4.1739263 84.44283,6.8095023 78.45748,11.867986 74.606962,19.770728 74.606962,28.651255 v 16.280647 h 7.607054 V 27.129879 c 0,-9.710456 4.209982,-18.3515931 10.755108,-23.8836159"
     style="fill:#3fb8ab;fill-opacity:1;fill-rule:nonzero;stroke:none;stroke-width:0.0715252"
     id="path76" />
  <path
     d="m 106.88395,3.2462631 c -0.74431,-0.6294408 -1.52292,-1.2134102 -2.32486,-1.760028 4.03368,0.8292646 7.73328,2.6876912 10.85115,5.3232672 5.98535,5.0584837 9.83656,12.9612257 9.83656,21.8417527 v 16.280647 h -7.60706 V 27.129879 c 0,-9.710456 -4.21135,-18.3515931 -10.75579,-23.8836159"
     style="fill:#9adee4;fill-opacity:1;fill-rule:nonzero;stroke:none;stroke-width:0.0715252"
     id="path78" />
  <path
     d="m 88.783152,44.931902 h 22.286768 c 1.3816,-5.895795 -9.52799,-11.150117 -1.56778,-15.732405 1.94844,-6.308582 -6.33727,-5.504637 -4.46916,0.57334 -0.809,5.35368 -10.055385,5.014267 -10.26146,-0.442905 1.93356,-5.402916 -5.962643,-6.19756 -4.738888,-0.583526 4.23756,2.237553 4.213893,7.380927 0.340874,10.438812 -1.200912,1.569358 -2.225247,3.65588 -1.590354,5.746684 z"
     style="fill:#3fb8ab;fill-opacity:1;fill-rule:nonzero;stroke:none;stroke-width:0.0715252"
     id="path80" />
</svg>
