<svg xmlns="http://www.w3.org/2000/svg" width="65" height="30" viewBox="0 0 17.198 7.938"><defs><marker id="a" markerHeight="3" markerWidth="3" orient="auto-start-reverse" preserveAspectRatio="xMidYMid" refX="0" refY="0" style="overflow:visible" viewBox="0 0 6.135 5.93"><path d="M-.211-4.106 6.21-.894a1 1 90 0 1 0 1.788L-.21 4.106A1.236 1.236 31.717 0 1-2 3v-6A1.236 1.236 148.283 0 1-.211-4.106z" style="fill:context-stroke;fill-rule:evenodd;stroke:none" transform="scale(.7)"/></marker><marker id="b" markerHeight="3" markerWidth="3" orient="auto-start-reverse" preserveAspectRatio="xMidYMid" refX="0" refY="0" style="overflow:visible" viewBox="0 0 6.135 5.93"><path d="M-.211-4.106 6.21-.894a1 1 90 0 1 0 1.788L-.21 4.106A1.236 1.236 31.717 0 1-2 3v-6A1.236 1.236 148.283 0 1-.211-4.106z" style="fill:context-stroke;fill-rule:evenodd;stroke:none" transform="scale(.7)"/></marker></defs><path d="M95.237 96.372h7.678c.071 0 .13.061.13.137v7.663a.133.133 0 0 1-.13.137h-7.678a.133.133 0 0 1-.13-.137V96.51c0-.076.058-.137.13-.137z" style="fill:#b7b7b5;fill-opacity:.9919;stroke-width:.276935" transform="translate(-95.107 -96.372)"/><path d="M95.41 96.505h6.506c.06 0 .11.052.11.116v6.715c0 .064-.05.115-.11.115h-6.507a.113.113 0 0 1-.11-.115V96.62c0-.064.05-.116.11-.116z" style="fill:#fff;fill-opacity:.5081;stroke-width:.276935" transform="translate(-95.107 -96.372)"/><path d="M104.497 96.372h7.678c.072 0 .13.061.13.137v7.663a.133.133 0 0 1-.13.137h-7.678a.133.133 0 0 1-.13-.137V96.51c0-.076.058-.137.13-.137z" style="fill:#b7b7b5;fill-opacity:.9919;stroke-width:.276935" transform="translate(-95.107 -96.372)"/><path d="M104.67 96.505h6.506c.06 0 .11.052.11.116v6.715c0 .064-.049.115-.11.115h-6.506a.113.113 0 0 1-.11-.115V96.62c0-.064.049-.116.11-.116z" style="fill:#fff;fill-opacity:.5081;stroke-width:.276935" transform="translate(-95.107 -96.372)"/><path d="M97.753 99.811h3.44" style="fill:#979797;fill-opacity:1;stroke:#979797;stroke-width:.765;stroke-linecap:butt;stroke-linejoin:miter;stroke-dasharray:none;stroke-opacity:1;marker-start:url(#a)" transform="translate(-95.107 -96.372)"/><path d="M108.865 99.811h-3.704" style="fill:#979797;fill-opacity:1;stroke:#979797;stroke-width:.765;stroke-linecap:butt;stroke-linejoin:miter;stroke-dasharray:none;stroke-opacity:1;marker-start:url(#b)" transform="translate(-95.107 -96.372)"/></svg>