<svg xmlns="http://www.w3.org/2000/svg" width="100" height="65" viewBox="0 0 26.458 17.198"><path d="M95.237 96.372h7.678c.071 0 .13.061.13.137v7.663a.133.133 0 0 1-.13.137h-7.678a.133.133 0 0 1-.13-.137V96.51c0-.076.058-.137.13-.137z" style="fill:#b7b7b5;fill-opacity:.9919;stroke-width:.276935" transform="translate(-95.107 -87.111)"/><path d="M95.41 96.505h6.506c.06 0 .11.052.11.116v6.715c0 .064-.05.115-.11.115h-6.507a.113.113 0 0 1-.11-.115V96.62c0-.064.05-.116.11-.116z" style="fill:#fff;fill-opacity:.5081;stroke-width:.276935" transform="translate(-95.107 -87.111)"/><text xml:space="preserve" x="99.937" y="98.695" style="font-size:3.69246px;line-height:1.25;font-family:&quot;Comic Sans MS&quot;;-inkscape-font-specification:&quot;Comic Sans MS&quot;;fill:#979797;fill-opacity:1;stroke:#979797;stroke-width:.276935;stroke-opacity:1" transform="matrix(.97394 0 0 1.02676 -95.107 -87.111)"><tspan x="99.937" y="98.695" style="font-size:3.69246px;fill:#979797;fill-opacity:1;stroke:#979797;stroke-width:.276935;stroke-opacity:1">A</tspan></text><path d="M104.497 96.372h7.678c.072 0 .13.061.13.137v7.663a.133.133 0 0 1-.13.137h-7.678a.133.133 0 0 1-.13-.137V96.51c0-.076.058-.137.13-.137z" style="fill:#b7b7b5;fill-opacity:.9919;stroke-width:.276935" transform="translate(-95.107 -87.111)"/><path d="M104.67 96.505h6.506c.06 0 .11.052.11.116v6.715c0 .064-.049.115-.11.115h-6.506a.113.113 0 0 1-.11-.115V96.62c0-.064.049-.116.11-.116z" style="fill:#fff;fill-opacity:.5081;stroke-width:.276935" transform="translate(-95.107 -87.111)"/><text xml:space="preserve" x="109.445" y="98.695" style="font-size:3.69246px;line-height:1.25;font-family:&quot;Comic Sans MS&quot;;-inkscape-font-specification:&quot;Comic Sans MS&quot;;fill:#979797;fill-opacity:1;stroke:#979797;stroke-width:.276935;stroke-opacity:1" transform="matrix(.97394 0 0 1.02676 -95.107 -87.111)"><tspan x="109.445" y="98.695" style="font-size:3.69246px;fill:#979797;fill-opacity:1;stroke:#979797;stroke-width:.276935;stroke-opacity:1">S</tspan></text><path d="M113.757 96.372h7.678c.072 0 .13.061.13.137v7.663a.133.133 0 0 1-.13.137h-7.678a.133.133 0 0 1-.13-.137V96.51c0-.076.059-.137.13-.137z" style="fill:#b7b7b5;fill-opacity:.9919;stroke-width:.276935" transform="translate(-95.107 -87.111)"/><path d="M113.93 96.505h6.507c.06 0 .11.052.11.116v6.715c0 .064-.05.115-.11.115h-6.507a.113.113 0 0 1-.11-.115V96.62c0-.064.05-.116.11-.116z" style="fill:#fff;fill-opacity:.5081;stroke-width:.276935" transform="translate(-95.107 -87.111)"/><text xml:space="preserve" x="118.953" y="98.695" style="font-size:3.69246px;line-height:1.25;font-family:&quot;Comic Sans MS&quot;;-inkscape-font-specification:&quot;Comic Sans MS&quot;;fill:#979797;fill-opacity:1;stroke:#979797;stroke-width:.276935;stroke-opacity:1" transform="matrix(.97394 0 0 1.02676 -95.107 -87.111)"><tspan x="118.953" y="98.695" style="font-size:3.69246px;fill:#979797;fill-opacity:1;stroke:#979797;stroke-width:.276935;stroke-opacity:1">D</tspan></text><path d="M104.497 87.111h7.678c.072 0 .13.062.13.137v7.664a.133.133 0 0 1-.13.137h-7.678a.133.133 0 0 1-.13-.137v-7.664c0-.075.058-.137.13-.137z" style="fill:#b7b7b5;fill-opacity:.9919;stroke-width:.276935" transform="translate(-95.107 -87.111)"/><path d="M104.67 87.245h6.506c.06 0 .11.052.11.116v6.714c0 .065-.049.116-.11.116h-6.506a.113.113 0 0 1-.11-.116v-6.714c0-.064.049-.116.11-.116z" style="fill:#fff;fill-opacity:.5081;stroke-width:.276935" transform="translate(-95.107 -87.111)"/><text xml:space="preserve" x="109.445" y="89.676" style="font-size:3.69246px;line-height:1.25;font-family:&quot;Comic Sans MS&quot;;-inkscape-font-specification:&quot;Comic Sans MS&quot;;fill:#979797;fill-opacity:1;stroke:#979797;stroke-width:.276935;stroke-opacity:1" transform="matrix(.97394 0 0 1.02676 -95.107 -87.111)"><tspan x="109.445" y="89.676" style="font-size:3.69246px;fill:#979797;fill-opacity:1;stroke:#979797;stroke-width:.276935;stroke-opacity:1">W</tspan></text></svg>