<?xml version="1.0" encoding="UTF-8" standalone="no"?>
<svg
   width="100"
   height="42"
   viewBox="0 0 26.458 11.112554"
   version="1.1"
   id="svg275"
   sodipodi:docname="move-key.svg"
   inkscape:version="1.2.1 (9c6d41e410, 2022-07-14)"
   xmlns:inkscape="http://www.inkscape.org/namespaces/inkscape"
   xmlns:sodipodi="http://sodipodi.sourceforge.net/DTD/sodipodi-0.dtd"
   xmlns="http://www.w3.org/2000/svg"
   xmlns:svg="http://www.w3.org/2000/svg">
  <defs
     id="defs279" />
  <sodipodi:namedview
     id="namedview277"
     pagecolor="#505050"
     bordercolor="#ffffff"
     borderopacity="1"
     inkscape:showpageshadow="0"
     inkscape:pageopacity="0"
     inkscape:pagecheckerboard="1"
     inkscape:deskcolor="#505050"
     showgrid="false"
     inkscape:zoom="4.3805265"
     inkscape:cx="15.63739"
     inkscape:cy="44.058631"
     inkscape:window-width="1920"
     inkscape:window-height="1017"
     inkscape:window-x="-8"
     inkscape:window-y="-8"
     inkscape:window-maximized="1"
     inkscape:current-layer="svg275" />
  <path
     d="m 4.8489931,5.8208616 h 5.1182906 c 0.04733,0 0.08666,0.040664 0.08666,0.091327 v 5.1082924 a 0.08866016,0.08866016 0 0 1 -0.08666,0.09133 H 4.8489931 a 0.08866016,0.08866016 0 0 1 -0.08666,-0.09133 V 5.9128548 c 0,-0.050663 0.038664,-0.091327 0.08666,-0.091327 z"
     style="fill:#b7b7b5;fill-opacity:0.9919;stroke-width:0.18461"
     id="path243" />
  <path
     d="m 4.9643179,5.9095217 h 4.3370147 c 0.039997,0 0.073328,0.034664 0.073328,0.077328 v 4.4763383 c 0,0.04266 -0.033331,0.07666 -0.073328,0.07666 H 4.9636513 a 0.0753278,0.0753278 0 0 1 -0.073328,-0.07666 V 5.9861829 c 0,-0.042664 0.033331,-0.077328 0.073328,-0.077328 z"
     style="fill:#ffffff;fill-opacity:0.5081;stroke-width:0.18461"
     id="path245" />
  <text
     xml:space="preserve"
     x="6.4131165"
     y="8.892067"
     style="font-size:2.46146px;line-height:1.25;font-family:'Comic Sans MS';-inkscape-font-specification:'Comic Sans MS';fill:#979797;fill-opacity:1;stroke:#979797;stroke-width:0.18461;stroke-opacity:1"
     transform="scale(0.97393876,1.0267586)"
     id="text249"><tspan
       x="6.4131165"
       y="8.892067"
       style="font-size:2.46146px;fill:#979797;fill-opacity:1;stroke:#979797;stroke-width:0.18461;stroke-opacity:1"
       id="tspan247">A</tspan></text>
  <path
     d="m 10.669867,5.8208616 h 5.119009 c 0.04801,0 0.08667,0.04067 0.08667,0.09134 v 5.1090114 a 0.08867261,0.08867261 0 0 1 -0.08667,0.09134 h -5.119009 a 0.08867261,0.08867261 0 0 1 -0.08667,-0.09134 V 5.9128677 c 0,-0.05067 0.03867,-0.09134 0.08667,-0.09134 z"
     style="fill:#b7b7b5;fill-opacity:0.9919;stroke-width:0.184636"
     id="path251" />
  <path
     d="m 10.785208,5.9095342 h 4.337624 c 0.04,0 0.07334,0.034669 0.07334,0.077339 v 4.4769678 c 0,0.04267 -0.03266,0.07667 -0.07334,0.07667 h -4.337624 a 0.07533838,0.07533838 0 0 1 -0.07334,-0.07667 V 5.986206 c 0,-0.04267 0.03267,-0.077339 0.07334,-0.077339 z"
     style="fill:#ffffff;fill-opacity:0.5081;stroke-width:0.184636"
     id="path253" />
  <text
     xml:space="preserve"
     x="12.390103"
     y="8.89252"
     style="font-size:2.46181px;line-height:1.25;font-family:'Comic Sans MS';-inkscape-font-specification:'Comic Sans MS';fill:#979797;fill-opacity:1;stroke:#979797;stroke-width:0.184636;stroke-opacity:1"
     transform="scale(0.97393876,1.0267586)"
     id="text257"><tspan
       x="12.390103"
       y="8.89252"
       style="font-size:2.46181px;fill:#979797;fill-opacity:1;stroke:#979797;stroke-width:0.184636;stroke-opacity:1"
       id="tspan255">S</tspan></text>
  <path
     d="m 16.490726,5.8208616 h 5.11901 c 0.04801,0 0.08667,0.04067 0.08667,0.09134 v 5.1090114 a 0.08867262,0.08867262 0 0 1 -0.08667,0.09134 h -5.11901 a 0.08867262,0.08867262 0 0 1 -0.08667,-0.09134 V 5.9128677 c 0,-0.05067 0.03934,-0.09134 0.08667,-0.09134 z"
     style="fill:#b7b7b5;fill-opacity:0.9919;stroke-width:0.184636"
     id="path259" />
  <path
     d="m 16.606067,5.9095342 h 4.338292 c 0.04001,0 0.07334,0.034669 0.07334,0.077339 v 4.4769678 c 0,0.04267 -0.03334,0.07667 -0.07334,0.07667 h -4.338292 a 0.0753384,0.0753384 0 0 1 -0.07334,-0.07667 V 5.9862061 c 0,-0.04267 0.03335,-0.077339 0.07334,-0.077339 z"
     style="fill:#ffffff;fill-opacity:0.5081;stroke-width:0.184636"
     id="path261" />
  <text
     xml:space="preserve"
     x="18.366877"
     y="8.89252"
     style="font-size:2.46181px;line-height:1.25;font-family:'Comic Sans MS';-inkscape-font-specification:'Comic Sans MS';fill:#979797;fill-opacity:1;stroke:#979797;stroke-width:0.184636;stroke-opacity:1"
     transform="scale(0.97393876,1.0267586)"
     id="text265"><tspan
       x="18.366877"
       y="8.89252"
       style="font-size:2.46181px;fill:#979797;fill-opacity:1;stroke:#979797;stroke-width:0.184636;stroke-opacity:1"
       id="tspan263">D</tspan></text>
  <path
     d="m 10.669855,0 h 5.118289 c 0.048,0 0.08666,0.04133029 0.08666,0.09132662 V 5.2002842 a 0.08866015,0.08866015 0 0 1 -0.08666,0.091327 h -5.118289 a 0.08866015,0.08866015 0 0 1 -0.08666,-0.091327 V 0.09132662 C 10.583194,0.04133029 10.621858,0 10.669855,0 Z"
     style="fill:#b7b7b5;fill-opacity:0.9919;stroke-width:0.18461"
     id="path267" />
  <path
     d="m 10.785179,0.08932676 h 4.337015 c 0.04,0 0.07333,0.03466412 0.07333,0.07732765 V 4.6423252 c 0,0.04333 -0.03266,0.077328 -0.07333,0.077328 h -4.337015 a 0.07532779,0.07532779 0 0 1 -0.07333,-0.077328 V 0.16665441 c 0,-0.0426635 0.03266,-0.07732765 0.07333,-0.07732765 z"
     style="fill:#ffffff;fill-opacity:0.5081;stroke-width:0.18461"
     id="path269" />
  <text
     xml:space="preserve"
     x="12.38989"
     y="3.2233262"
     style="font-size:2.46146px;line-height:1.25;font-family:'Comic Sans MS';-inkscape-font-specification:'Comic Sans MS';fill:#979797;fill-opacity:1;stroke:#979797;stroke-width:0.18461;stroke-opacity:1"
     transform="scale(0.97393876,1.0267586)"
     id="text273"><tspan
       x="12.38989"
       y="3.2233262"
       style="font-size:2.46146px;fill:#979797;fill-opacity:1;stroke:#979797;stroke-width:0.18461;stroke-opacity:1"
       id="tspan271">W</tspan></text>
</svg>
