<?xml version="1.0" encoding="UTF-8" standalone="no"?>
<svg
   width="48"
   height="48"
   viewBox="0 0 48 48"
   version="1.1"
   preserveAspectRatio="xMidYMid"
   id="svg299"
   sodipodi:docname="laravel-icon.svg"
   inkscape:version="1.2.1 (9c6d41e410, 2022-07-14)"
   xmlns:inkscape="http://www.inkscape.org/namespaces/inkscape"
   xmlns:sodipodi="http://sodipodi.sourceforge.net/DTD/sodipodi-0.dtd"
   xmlns="http://www.w3.org/2000/svg"
   xmlns:svg="http://www.w3.org/2000/svg">
  <defs
     id="defs303" />
  <sodipodi:namedview
     id="namedview301"
     pagecolor="#505050"
     bordercolor="#ffffff"
     borderopacity="1"
     inkscape:showpageshadow="0"
     inkscape:pageopacity="0"
     inkscape:pagecheckerboard="1"
     inkscape:deskcolor="#505050"
     showgrid="false"
     inkscape:zoom="8.9673996"
     inkscape:cx="4.5163594"
     inkscape:cy="32.450879"
     inkscape:window-width="1920"
     inkscape:window-height="1017"
     inkscape:window-x="-8"
     inkscape:window-y="-8"
     inkscape:window-maximized="1"
     inkscape:current-layer="g297" />
  <g
     id="g297"
     transform="matrix(0.12890625,0,0,0.12901281,7.5,6.9999834)">
    <path
       d="M 255.85564,59.619717 C 255.95056,59.97106 256,60.333315 256,60.697254 v 56.568086 c 0,1.47787 -0.79059,2.84281 -2.07258,3.57804 l -47.47863,27.33541 v 54.18101 c 0,1.47452 -0.78367,2.83562 -2.06228,3.57804 l -99.10758,57.05272 c -0.22685,0.1289 -0.47432,0.21139 -0.72179,0.29903 -0.0928,0.0309 -0.18045,0.0876 -0.27841,0.11343 -0.6928,0.18244 -1.42103,0.18244 -2.11383,0 -0.11342,-0.0309 -0.21654,-0.0928 -0.32481,-0.13405 -0.22685,-0.0825 -0.46401,-0.15467 -0.68055,-0.27841 L 2.0725823,205.93784 C 0.7913718,205.20182 0,203.83737 0,202.3598 V 32.655525 c 0,-0.371209 0.05155677,-0.732106 0.14435896,-1.082692 0.0309341,-0.118581 0.10311355,-0.22685 0.14435897,-0.345431 0.0773352,-0.216538 0.14951464,-0.438232 0.26293954,-0.639304 0.0773352,-0.134047 0.19076006,-0.242317 0.28356225,-0.366053 C 0.9538003,30.057064 1.0620695,29.886926 1.2012728,29.742567 1.3198534,29.623987 1.4745237,29.53634 1.6085713,29.433226 1.7580859,29.30949 1.8921336,29.175443 2.0622709,29.077485 h 0.00516 L 51.613485,0.55112236 c 1.276705,-0.73465813 2.847837,-0.73465813 4.124542,0 L 105.28409,29.077485 h 0.0103 c 0.16498,0.103113 0.30418,0.232005 0.4537,0.350586 0.13404,0.103113 0.28356,0.195916 0.40214,0.30934 0.14436,0.149515 0.24747,0.319653 0.37121,0.484634 0.0876,0.123736 0.20623,0.232006 0.2784,0.366053 0.11859,0.206227 0.18561,0.422766 0.2681,0.639304 0.0413,0.118581 0.11343,0.22685 0.14436,0.350586 0.0949,0.351343 0.14346,0.713598 0.14436,1.077537 V 138.65109 l 41.28666,-23.77282 V 60.692098 c 0,-0.360897 0.0516,-0.726951 0.14436,-1.072381 0.0361,-0.123736 0.10311,-0.232005 0.14436,-0.350586 0.0825,-0.216538 0.15467,-0.438233 0.26809,-0.639304 0.0773,-0.134048 0.19076,-0.242317 0.27841,-0.366053 0.12374,-0.164982 0.22685,-0.335119 0.37121,-0.479478 0.11858,-0.118581 0.2681,-0.206227 0.40214,-0.309341 0.15467,-0.123736 0.28872,-0.257784 0.4537,-0.355741 h 0.005 L 200.2618,28.592851 c 1.27642,-0.735717 2.84812,-0.735717 4.12454,0 l 49.54606,28.526363 c 0.1753,0.103113 0.30934,0.232005 0.46401,0.350586 0.1289,0.103113 0.27841,0.195915 0.39699,0.30934 0.14436,0.149515 0.24747,0.319652 0.37121,0.484634 0.0928,0.123736 0.20623,0.232005 0.27841,0.366053 0.11858,0.201071 0.1856,0.422766 0.26809,0.639304 0.0464,0.118581 0.11343,0.22685 0.14436,0.350586 z M 247.7406,114.87827 V 67.837867 l -17.33854,9.981391 -23.95327,13.791437 v 47.040395 l 41.29697,-23.77282 z m -49.54605,85.09445 v -47.07133 l -23.56145,13.45631 -67.28159,38.39949 v 47.51472 z M 8.259395,39.796138 V 199.97272 l 90.832722,52.29403 v -47.50441 l -47.452853,-26.85592 -0.01547,-0.0103 -0.02062,-0.0103 c -0.159826,-0.0928 -0.293874,-0.22685 -0.443388,-0.34028 -0.128892,-0.10311 -0.278407,-0.1856 -0.391832,-0.29903 l -0.01031,-0.0155 c -0.134048,-0.1289 -0.22685,-0.28872 -0.340275,-0.43308 -0.103113,-0.1392 -0.22685,-0.25778 -0.30934,-0.40214 l -0.0052,-0.0155 c -0.0928,-0.15467 -0.149515,-0.34027 -0.216539,-0.51557 -0.06702,-0.15467 -0.15467,-0.29903 -0.195915,-0.46401 v -0.005 c -0.05156,-0.19592 -0.06187,-0.40215 -0.08249,-0.60322 -0.02062,-0.15467 -0.06187,-0.30934 -0.06187,-0.46401 V 174.31807 63.568966 L 25.597938,49.772373 8.259395,39.801293 Z M 53.680912,8.8930082 12.399404,32.655525 53.670601,56.418041 94.946953,32.650369 53.670601,8.8930082 Z M 75.149152,157.19091 99.097273,143.40463 V 39.796138 L 81.75873,49.777529 57.805454,63.568966 V 167.17746 Z M 202.32424,36.934737 161.04789,60.697254 202.32424,84.45977 243.59544,60.692098 Z m -4.12969,54.675958 -23.95328,-13.791437 -17.33854,-9.981391 v 47.040403 l 23.94812,13.78628 17.3437,9.98654 z M 103.21666,197.61657 163.75978,163.05292 194.0236,145.7814 152.77818,122.03435 105.28924,149.3749 62.007331,174.29229 Z"
       fill="#ff2d20"
       id="path295"
       style="fill:#ffffff;fill-opacity:1" />
    <path
       style="fill:#ff2d20;stroke:#ff5352;stroke-width:0.3;stroke-linecap:square;stroke-miterlimit:0;fill-opacity:1;stroke-opacity:1;stroke-dasharray:none"
       d="m 20.074669,12.260666 c -1.277533,0.589009 -2.470743,1.354953 -3.700499,2.038664 -0.48568,0.302269 -1.028381,0.547422 -1.479743,0.884065 -0.05195,1.69221 -0.0077,3.410213 -0.0227,5.112344 -2.68e-4,2.685654 -5.35e-4,5.371308 -8.02e-4,8.056962 0.193052,0.261491 0.540014,-0.04096 0.765032,-0.132097 1.579445,-0.848312 3.119991,-1.766465 4.678187,-2.65273 0.115832,-0.522697 0.01805,-1.102816 0.05062,-1.647896 10e-4,-3.860628 0.002,-7.721256 0.0031,-11.581883 -0.02618,-0.151859 -0.191948,-0.08092 -0.293162,-0.07743 z"
       id="path1448"
       transform="matrix(7.7575758,0,0,7.7511683,-58.181818,-54.258049)" />
    <path
       style="fill:#ff2d20;fill-opacity:1;stroke:#ff5352;stroke-width:0.3;stroke-linecap:square;stroke-miterlimit:0;stroke-dasharray:none;stroke-opacity:1"
       d="m 8.5458207,12.270576 c -0.073109,0.959175 -0.010285,1.946354 -0.031255,2.916271 0,5.867826 0,11.735652 0,17.603478 0.3952462,0.3611 0.946409,0.566205 1.4024231,0.866507 3.3408862,1.906542 6.6442542,3.881103 10.0260182,5.714623 0.174879,0.12572 0.524215,0.08968 0.424825,-0.201794 0,-1.907481 0,-3.814962 0,-5.722443 -0.39709,-0.358971 -0.951293,-0.558734 -1.409657,-0.855614 -1.637162,-0.942024 -3.306821,-1.834378 -4.911839,-2.828597 -0.146408,-0.275635 -0.02273,-0.676874 -0.06475,-1.001052 -0.0091,-4.515453 -0.01808,-9.030906 -0.02707,-13.546358 -0.395423,-0.360911 -0.94646,-0.566022 -1.402529,-0.866215 -1.252113,-0.700379 -2.471742,-1.473654 -3.7675656,-2.088063 -0.081831,-0.0054 -0.1619989,-0.03571 -0.238603,0.0093 z"
       id="path9178"
       transform="matrix(7.7575758,0,0,7.7511683,-58.181818,-54.258049)" />
    <path
       style="fill:#ff2d20;fill-opacity:1;stroke:#ff5352;stroke-width:0.4;stroke-linecap:square;stroke-miterlimit:0;stroke-dasharray:none;stroke-opacity:1"
       d="m 14.437823,8.1428854 c -1.349736,0.6347621 -2.614242,1.4433307 -3.914744,2.1734936 -0.387841,0.272774 -0.8947141,0.432663 -1.1861985,0.81781 -0.065826,0.335894 0.3918519,0.449739 0.5908241,0.620442 1.4749824,0.857239 2.9320854,1.755381 4.4612214,2.512761 0.347807,-0.02875 0.639584,-0.324869 0.961466,-0.457286 1.380156,-0.797697 2.79662,-1.542316 4.122705,-2.427948 0.256421,-0.159588 -0.01686,-0.399817 -0.190468,-0.480582 -1.563957,-0.9630965 -3.164844,-1.8679116 -4.773911,-2.7529188 -0.02263,-0.00924 -0.04734,-0.010236 -0.0709,-0.00577 z"
       id="path9180"
       transform="matrix(7.7575758,0,0,7.7511683,-58.181818,-54.258049)" />
    <path
       style="fill:#ff2d20;fill-opacity:1;stroke:#ff5352;stroke-width:0.3;stroke-linecap:square;stroke-miterlimit:0;stroke-dasharray:none;stroke-opacity:1"
       d="m 27.120263,22.753099 c -3.476562,1.92902 -6.915229,3.927592 -10.353294,5.924663 -0.33971,0.249675 -0.810593,0.389561 -1.041823,0.754479 -0.0058,0.345378 0.444209,0.444697 0.661759,0.627362 1.46324,0.834002 2.91103,1.707453 4.42274,2.448776 0.750919,-0.33338 1.454225,-0.803141 2.184713,-1.191407 3.025014,-1.731954 6.079356,-3.415495 9.062488,-5.21895 0.174124,-0.07823 0.438157,-0.302484 0.184834,-0.461649 -1.318886,-0.880706 -2.726776,-1.623247 -4.101501,-2.413113 -0.335112,-0.145089 -0.654089,-0.432698 -1.019916,-0.470161 z"
       id="path9182"
       transform="matrix(7.7575758,0,0,7.7511683,-58.181818,-54.258049)" />
    <path
       style="fill:#ff2d20;fill-opacity:1;stroke:#ff5352;stroke-width:0.3;stroke-linecap:square;stroke-miterlimit:0;stroke-dasharray:none;stroke-opacity:1"
       d="m 32.909572,26.804667 c -1.274649,0.624615 -2.493555,1.37449 -3.739714,2.059196 -2.60643,1.480522 -5.205626,2.973816 -7.808628,4.460405 -0.117596,0.522384 -0.02303,1.10262 -0.05794,1.647551 -0.0071,1.457289 -0.01417,2.914577 -0.02124,4.371866 0.173941,0.247268 0.499707,-0.04916 0.70403,-0.1349 3.725143,-2.065136 7.39918,-4.220739 11.095547,-6.336675 0.11576,-0.522736 0.01855,-1.102733 0.05131,-1.647787 -0.0145,-1.455556 0.03357,-2.924847 -0.02003,-4.371822 -0.02659,-0.07653 -0.145766,-0.03951 -0.203339,-0.04783 z"
       id="path9184"
       transform="matrix(7.7575758,0,0,7.7511683,-58.181818,-54.258049)" />
    <path
       style="fill:#ff2d20;fill-opacity:1;stroke:#ff5352;stroke-width:0.3;stroke-linecap:square;stroke-miterlimit:0;stroke-dasharray:none;stroke-opacity:1"
       d="m 39.235764,15.875866 c -1.298965,0.604164 -2.513538,1.384601 -3.765565,2.081577 -0.458095,0.286474 -0.972778,0.516349 -1.396554,0.837149 -0.05164,1.717668 -0.0073,3.461019 -0.02213,5.188548 0.0707,0.242613 -0.180489,0.806775 0.211487,0.789536 0.585064,-0.191656 1.103729,-0.573985 1.655172,-0.850549 1.179432,-0.66652 2.349486,-1.34946 3.524397,-2.023904 0.1155,-0.522803 0.01773,-1.102799 0.05009,-1.647896 -0.01564,-1.440412 0.03133,-2.894593 -0.02339,-4.326409 -0.03815,-0.07998 -0.162881,-0.04096 -0.233505,-0.04805 z"
       id="path9186"
       transform="matrix(7.7575758,0,0,7.7511683,-58.181818,-54.258049)" />
    <path
       style="fill:#ff2d20;fill-opacity:1;stroke:#ff5352;stroke-width:0.3;stroke-linecap:square;stroke-miterlimit:0;stroke-dasharray:none;stroke-opacity:1"
       d="m 27.672176,15.837315 c -0.07635,0.90291 -0.01007,1.835944 -0.03169,2.750414 0.01906,1.084749 -0.03625,2.189468 0.02931,3.261739 1.308171,0.807783 2.67803,1.559597 4.021709,2.325557 0.414174,0.191504 0.794729,0.511352 1.246265,0.596681 0.383846,-0.0084 0.121912,-0.572335 0.198531,-0.823849 0,-1.70075 0,-3.4015 0,-5.102249 -0.395109,-0.361222 -0.946489,-0.566162 -1.402509,-0.866469 -1.279558,-0.719647 -2.530944,-1.500308 -3.846975,-2.149229 -0.07455,-0.0099 -0.144206,-0.03158 -0.214645,0.0074 z"
       id="path9188"
       transform="matrix(7.7575758,0,0,7.7511683,-58.181818,-54.258049)" />
    <path
       style="fill:#ff2d20;fill-opacity:1;stroke:#ff5352;stroke-width:0.4;stroke-linecap:square;stroke-miterlimit:0;stroke-dasharray:none;stroke-opacity:1"
       d="m 33.556446,11.754056 c -1.602713,0.839956 -3.166515,1.759213 -4.717391,2.692152 -0.219569,0.09478 -0.485488,0.393202 -0.228911,0.599938 1.047412,0.733789 2.19723,1.313224 3.294401,1.969518 0.560158,0.290065 1.09104,0.671246 1.679453,0.889906 1.496329,-0.739912 2.922269,-1.623361 4.368581,-2.458122 0.235128,-0.195518 0.658262,-0.289668 0.73149,-0.622263 -0.09734,-0.339637 -0.529983,-0.436263 -0.780004,-0.640741 -1.422085,-0.824858 -2.832043,-1.678113 -4.292515,-2.431912 l -0.04726,-3.27e-4 z"
       id="path9190"
       transform="matrix(7.7575758,0,0,7.7511683,-58.181818,-54.258049)" />
  </g>
</svg>
