<?xml version="1.0" encoding="UTF-8" standalone="no"?>
<svg
   width="48"
   height="48"
   viewBox="0 0 48 48"
   version="1.1"
   preserveAspectRatio="xMidYMid"
   id="svg12"
   sodipodi:docname="mysql-icon.svg"
   inkscape:version="1.2.1 (9c6d41e410, 2022-07-14)"
   xmlns:inkscape="http://www.inkscape.org/namespaces/inkscape"
   xmlns:sodipodi="http://sodipodi.sourceforge.net/DTD/sodipodi-0.dtd"
   xmlns:xlink="http://www.w3.org/1999/xlink"
   xmlns="http://www.w3.org/2000/svg"
   xmlns:svg="http://www.w3.org/2000/svg"
   xmlns:rdf="http://www.w3.org/1999/02/22-rdf-syntax-ns#"
   xmlns:cc="http://creativecommons.org/ns#"
   xmlns:dc="http://purl.org/dc/elements/1.1/">
  <defs
     id="defs16">
    <linearGradient
       inkscape:collect="always"
       id="linearGradient1835">
      <stop
         style="stop-color:#00758f;stop-opacity:1;"
         offset="0"
         id="stop1831" />
      <stop
         style="stop-color:#00b0c0;stop-opacity:1;"
         offset="1"
         id="stop1833" />
    </linearGradient>
    <linearGradient
       inkscape:collect="always"
       xlink:href="#linearGradient1835"
       id="linearGradient1837"
       x1="-710.50897"
       y1="-305.21863"
       x2="-230.16487"
       y2="-305.21863"
       gradientUnits="userSpaceOnUse"
       gradientTransform="matrix(0.0707826,0,0,0.0738601,57.291675,46.54346)" />
  </defs>
  <sodipodi:namedview
     id="namedview14"
     pagecolor="#505050"
     bordercolor="#ffffff"
     borderopacity="1"
     inkscape:showpageshadow="0"
     inkscape:pageopacity="0"
     inkscape:pagecheckerboard="1"
     inkscape:deskcolor="#505050"
     showgrid="false"
     inkscape:zoom="6.7833625"
     inkscape:cx="2.5798415"
     inkscape:cy="50.122635"
     inkscape:window-width="1920"
     inkscape:window-height="1017"
     inkscape:window-x="-8"
     inkscape:window-y="-8"
     inkscape:window-maximized="1"
     inkscape:current-layer="g10" />
  <title
     id="title2">MySQL</title>
  <g
     id="g10">
    <circle
       style="fill:url(#linearGradient1837);fill-opacity:1;stroke:#000000;stroke-width:0;stroke-linecap:square;stroke-miterlimit:0;stroke-dasharray:none;stroke-opacity:1"
       id="path1806"
       cx="24"
       cy="24"
       r="17" />
    <path
       d="m 12.919825,13.78174 c 0.63891,-1.56979 2.87267,-0.38105 3.73961,0.1674 0.21242,0.13711 0.45602,0.42697 0.69964,0.53411 0.38004,0.015 0.75974,0.0445 1.14043,0.0606 0.71394,0.16773 1.38275,0.30483 1.94533,0.62531 2.61477,1.53983 4.31681,3.10897 5.8834,5.70074 0.33456,0.5491 0.50184,1.14314 0.77533,1.7372 0.37938,0.88552 0.80587,1.81501 1.24633,2.65244 0.19716,0.39695 0.34982,0.8384 0.62364,1.17363 0.10681,0.15331 0.41058,0.19844 0.59213,0.29006 0.50186,0.25975 1.10991,0.45696 1.58186,0.76189 0.88155,0.5496 1.73388,1.20454 2.50854,1.87499 0.28878,0.25889 0.48562,0.62529 0.76073,0.89905 v 0 0.13815 c -0.24425,0.0749 -0.48754,0.15167 -0.73116,0.2131 -0.53205,0.13678 -1.00335,0.10582 -1.51948,0.24262 -0.31897,0.0924 -0.71492,0.2146 -1.04948,0.24555 0.015,0.0151 0.0309,0.0311 0.0309,0.0311 0.19684,0.56227 1.26159,1.01963 1.74848,1.35587 0.59148,0.42684 1.13946,0.94461 1.58056,1.53898 0.15234,0.15177 0.30467,0.28982 0.45636,0.44107 0.10593,0.15329 0.13577,0.3515 0.24296,0.48829 v 0 0.0461 c -0.11873,-0.0419 -0.20409,-0.12178 -0.28508,-0.20541 l -0.0483,-0.0504 c -0.0482,-0.0503 -0.097,-0.0994 -0.15254,-0.14 -0.33553,-0.22926 -0.66879,-0.50341 -1.00432,-0.7165 -0.57687,-0.36601 -1.24599,-0.57848 -1.83847,-0.94588 -0.33488,-0.21336 -0.65418,-0.45635 -0.97347,-0.70035 -0.28941,-0.21397 -0.60805,-0.62488 -0.78995,-0.92972 -0.10714,-0.16841 -0.12182,-0.3664 -0.24427,-0.48813 0.0219,-0.20355 0.20839,-0.26407 0.39645,-0.31375 l 0.0433,-0.0113 c 0.0649,-0.0168 0.12839,-0.0338 0.18387,-0.056 0.79026,-0.33562 1.73256,-0.45735 2.94931,-0.42684 v 0 c -0.0459,-0.30556 -0.8062,-0.68618 -1.04883,-0.86911 -0.48723,-0.35115 -1.00303,-0.71755 -1.51981,-1.03711 -0.27383,-0.16743 -0.74578,-0.28957 -1.04916,-0.42632 -0.41057,-0.16779 -1.32298,-0.33548 -1.55035,-0.65504 -0.38643,-0.50378 -0.66402,-1.10469 -0.93352,-1.71174 l -0.0734,-0.16563 c -0.0244,-0.0552 -0.049,-0.11042 -0.0734,-0.16553 -0.31865,-0.73093 -0.71428,-1.49304 -1.03357,-2.24144 -0.16695,-0.36509 -0.24361,-0.68557 -0.42648,-1.03568 -1.10925,-2.14885 -2.7512,-3.94792 -4.742,-5.21319 -0.65417,-0.41167 -1.38371,-0.79271 -2.18893,-1.05163 -0.45636,-0.13776 -1.00401,-0.0615 -1.49027,-0.1674 v 0 h -0.31993 c -0.27316,-0.0769 -0.5012,-0.3664 -0.71427,-0.51914 -0.47066,-0.31949 -0.94197,-0.53412 -1.50488,-0.76209 -0.19716,-0.0915 -0.76039,-0.30452 -0.9569,-0.13679 -0.12181,0.0306 -0.18352,0.0766 -0.2134,0.19866 -0.12117,0.18239 -0.0146,0.45694 0.0607,0.62499 0.22834,0.48722 0.54732,0.77675 0.83672,1.18842 0.25757,0.36509 0.57753,0.77676 0.76007,1.17376 0.39401,0.85328 0.57752,1.79874 0.94261,2.65202 0.13545,0.3208 0.3495,0.68589 0.54668,0.97542 0.16695,0.22962 0.47066,0.39572 0.56257,0.68654 0.1832,0.30484 -0.27414,1.31087 -0.38003,1.63036 -0.39595,1.25007 -0.31929,2.98768 0.13675,4.07136 0.008,0.0189 0.0162,0.0379 0.0244,0.0571 l 0.0244,0.0577 c 0.16649,0.39684 0.3447,0.8242 0.78743,0.93524 0.0306,-0.0302 0,-0.0144 0.0605,-0.0302 0.10714,-0.83877 0.1374,-1.64647 0.42648,-2.30268 0.16696,-0.41029 0.50055,-0.70034 0.72922,-1.0353 0.15234,0.0912 0.15234,0.36639 0.24329,0.54844 0.19781,0.47224 0.41025,0.99001 0.65418,1.46365 0.50054,0.97541 1.06378,1.92103 1.70203,2.77429 0.21374,0.30467 0.51711,0.64017 0.7906,0.91471 0.12182,0.10626 0.25823,0.16766 0.34983,0.30443 v 0 h 0.0299 v 0.0461 c -0.45603,-0.16817 -0.74512,-0.63992 -1.10891,-0.91535 -0.68472,-0.51777 -1.50488,-1.29534 -1.97684,-2.04147 -0.19749,-0.42824 -0.41089,-0.83877 -0.62365,-1.26496 v 0 -0.0308 c -0.091,0.12178 -0.0605,0.24263 -0.10593,0.42684 -0.19749,0.76168 -0.0455,1.63057 -0.72953,1.90446 -0.77535,0.32086 -1.35384,-0.51776 -1.59648,-0.89878 -0.77566,-1.26495 -0.98809,-3.39882 -0.4411,-5.12136 0.12148,-0.38137 0.13805,-0.83863 0.35016,-1.14314 -0.0459,-0.2752 -0.25791,-0.35044 -0.38069,-0.51914 -0.21275,-0.28823 -0.39498,-0.624 -0.56161,-0.94415 -0.31995,-0.62531 -0.54763,-1.37243 -0.7906,-2.043 -0.10681,-0.2739 -0.13739,-0.54878 -0.24394,-0.80802 -0.18157,-0.3957 -0.51646,-0.7927 -0.77468,-1.14282 -0.34984,-0.50318 -1.36845,-1.47827 -0.95788,-2.46964 z m 4.98591,2.98636 c 0.0407,0.0407 0.0897,0.0763 0.14038,0.11134 l 0.0613,0.042 c 0.0816,0.0564 0.16046,0.11596 0.20897,0.19708 0.0767,0.10714 0.091,0.21299 0.18287,0.32047 0,0.36639 -0.10626,0.61 -0.32059,0.76176 0,0 -0.0146,0.016 -0.0296,0.0309 -0.12149,-0.24427 -0.22801,-0.48723 -0.35047,-0.73117 -0.15073,-0.21299 -0.3638,-0.38202 -0.48659,-0.62531 v 0 h -0.0296 v -0.0306 c 0.18353,-0.0452 0.36542,-0.0766 0.62333,-0.0766 z"
       fill="#00758f"
       id="path8"
       style="fill:#ffffff;fill-opacity:1;stroke-width:0;stroke-dasharray:none" />
  </g>
  <metadata
     id="metadata1839">
    <rdf:RDF>
      <cc:Work
         rdf:about="">
        <dc:title>MySQL</dc:title>
      </cc:Work>
    </rdf:RDF>
  </metadata>
</svg>
