<?xml version="1.0" encoding="UTF-8" standalone="no"?>
<svg
   width="48"
   height="48"
   viewBox="0 0 48 48"
   version="1.1"
   preserveAspectRatio="xMidYMid"
   id="svg119"
   sodipodi:docname="nodejs-icon.svg"
   inkscape:version="1.2.1 (9c6d41e410, 2022-07-14)"
   xmlns:inkscape="http://www.inkscape.org/namespaces/inkscape"
   xmlns:sodipodi="http://sodipodi.sourceforge.net/DTD/sodipodi-0.dtd"
   xmlns:xlink="http://www.w3.org/1999/xlink"
   xmlns="http://www.w3.org/2000/svg"
   xmlns:svg="http://www.w3.org/2000/svg">
  <sodipodi:namedview
     id="namedview121"
     pagecolor="#505050"
     bordercolor="#ffffff"
     borderopacity="1"
     inkscape:showpageshadow="0"
     inkscape:pageopacity="0"
     inkscape:pagecheckerboard="1"
     inkscape:deskcolor="#505050"
     showgrid="false"
     inkscape:zoom="2.4199219"
     inkscape:cx="256"
     inkscape:cy="157.02986"
     inkscape:window-width="1920"
     inkscape:window-height="1017"
     inkscape:window-x="-8"
     inkscape:window-y="-8"
     inkscape:window-maximized="1"
     inkscape:current-layer="g117" />
  <defs
     id="defs70">
    <linearGradient
       x1="79.823227"
       y1="21.345526"
       x2="32.862125"
       y2="105.42175"
       id="linearGradient-1"
       gradientTransform="scale(0.93681241,1.0674496)"
       gradientUnits="userSpaceOnUse">
      <stop
         stop-color="#41873F"
         offset="0%"
         id="stop2" />
      <stop
         stop-color="#418B3D"
         offset="32.88%"
         id="stop4" />
      <stop
         stop-color="#419637"
         offset="63.52%"
         id="stop6" />
      <stop
         stop-color="#3FA92D"
         offset="93.19%"
         id="stop8" />
      <stop
         stop-color="#3FAE2A"
         offset="100%"
         id="stop10" />
    </linearGradient>
    <path
       id="path-2"
       d="m 57.903386,1.8492099 c -1.84921,-1.04018056 -4.045147,-1.04018056 -5.894357,0 L 3.351693,29.934086 c -1.8492099,1.04018 -2.88939052,3.004966 -2.88939052,5.085327 V 91.30474 c 0,2.080362 1.15575622,4.045147 2.88939052,5.085328 l 48.657336,28.084872 c 1.84921,1.04018 4.045147,1.04018 5.894357,0 L 106.56072,96.390068 c 1.84921,-1.040181 2.88939,-3.004966 2.88939,-5.085328 V 35.019413 c 0,-2.080361 -1.15575,-4.045147 -2.88939,-5.085327 z" />
    <linearGradient
       x1="51.368568"
       y1="64.593353"
       x2="184.67371"
       y2="-19.865484"
       id="linearGradient-4"
       gradientTransform="scale(0.92601891,1.0798916)"
       gradientUnits="userSpaceOnUse">
      <stop
         stop-color="#41873F"
         offset="13.76%"
         id="stop14" />
      <stop
         stop-color="#54A044"
         offset="40.32%"
         id="stop16" />
      <stop
         stop-color="#66B848"
         offset="71.36%"
         id="stop18" />
      <stop
         stop-color="#6CC04A"
         offset="90.81%"
         id="stop20" />
    </linearGradient>
    <linearGradient
       x1="5.4425087"
       y1="1.3971804"
       x2="60.600269"
       y2="1.3971804"
       id="linearGradient-5"
       gradientTransform="scale(1.6329932,0.61237243)"
       gradientUnits="userSpaceOnUse">
      <stop
         stop-color="#6CC04A"
         offset="9.191646%"
         id="stop23" />
      <stop
         stop-color="#66B848"
         offset="28.64%"
         id="stop25" />
      <stop
         stop-color="#54A044"
         offset="59.68%"
         id="stop27" />
      <stop
         stop-color="#41873F"
         offset="86.24%"
         id="stop29" />
    </linearGradient>
    <linearGradient
       x1="-1.4213012"
       y1="66.989326"
       x2="120.27941"
       y2="66.989326"
       id="linearGradient-6"
       gradientTransform="scale(0.92514088,1.0809165)"
       gradientUnits="userSpaceOnUse">
      <stop
         stop-color="#6CC04A"
         offset="9.191646%"
         id="stop32" />
      <stop
         stop-color="#66B848"
         offset="28.64%"
         id="stop34" />
      <stop
         stop-color="#54A044"
         offset="59.68%"
         id="stop36" />
      <stop
         stop-color="#41873F"
         offset="86.24%"
         id="stop38" />
    </linearGradient>
    <linearGradient
       x1="118.03546"
       y1="68.363235"
       x2="169.63084"
       y2="68.363235"
       id="linearGradient-7"
       gradientTransform="scale(0.65465354,1.5275255)"
       gradientUnits="userSpaceOnUse">
      <stop
         stop-color="#6CC04A"
         offset="9.191646%"
         id="stop41" />
      <stop
         stop-color="#66B848"
         offset="28.64%"
         id="stop43" />
      <stop
         stop-color="#54A044"
         offset="59.68%"
         id="stop45" />
      <stop
         stop-color="#41873F"
         offset="86.24%"
         id="stop47" />
    </linearGradient>
    <linearGradient
       x1="-1.0386477"
       y1="150.75189"
       x2="87.896973"
       y2="150.75189"
       id="linearGradient-8"
       gradientTransform="scale(1.2659754,0.78990479)"
       gradientUnits="userSpaceOnUse">
      <stop
         stop-color="#6CC04A"
         offset="9.191646%"
         id="stop50" />
      <stop
         stop-color="#66B848"
         offset="28.64%"
         id="stop52" />
      <stop
         stop-color="#54A044"
         offset="59.68%"
         id="stop54" />
      <stop
         stop-color="#41873F"
         offset="86.24%"
         id="stop56" />
    </linearGradient>
    <linearGradient
       x1="100.85383"
       y1="37.182377"
       x2="46.004009"
       y2="216.51357"
       id="linearGradient-9"
       gradientTransform="scale(1.2659754,0.78990479)"
       gradientUnits="userSpaceOnUse">
      <stop
         stop-color="#41873F"
         offset="0%"
         id="stop59" />
      <stop
         stop-color="#418B3D"
         offset="32.88%"
         id="stop61" />
      <stop
         stop-color="#419637"
         offset="63.52%"
         id="stop63" />
      <stop
         stop-color="#3FA92D"
         offset="93.19%"
         id="stop65" />
      <stop
         stop-color="#3FAE2A"
         offset="100%"
         id="stop67" />
    </linearGradient>
  </defs>
  <g
     fill="none"
     id="g117">
    <g
       transform="matrix(0.29361082,0,0,0.27378286,7.864263,6.7073057)"
       id="g115">
      <mask
         id="mask-3"
         fill="#ffffff">
        <use
           xlink:href="#path-2"
           id="use84" />
      </mask>
      <use
         fill="url(#linearGradient-1)"
         xlink:href="#path-2"
         id="use87"
         style="fill:url(#linearGradient-1)" />
      <g
         mask="url(#mask-3)"
         id="g95">
        <path
           d="M 51.893454,1.8492099 3.1205418,29.934086 C 1.2713318,30.974266 0,32.939052 0,35.019413 V 91.30474 c 0,1.386908 0.5778781,2.65824 1.5024831,3.69842 L 56.285327,1.1557562 C 54.89842,0.92460497 53.280361,1.0401806 51.893454,1.8492099 Z"
           id="path89" />
        <path
           d="m 56.632054,125.05282 c 0.462303,-0.11557 0.924605,-0.34672 1.386908,-0.57788 L 106.79187,96.390068 c 1.84921,-1.040181 3.00497,-3.004966 3.00497,-5.085328 V 35.019413 c 0,-1.502483 -0.69345,-3.004966 -1.73364,-4.045147 z"
           id="path91" />
        <path
           d="M 106.6763,29.934086 57.78781,1.8492099 C 57.325508,1.6180587 56.74763,1.3869074 56.285327,1.2713318 L 1.5024831,95.118736 c 0.4623024,0.577878 1.0401806,1.040181 1.6180587,1.386907 L 52.009029,124.59052 c 1.386908,0.80903 3.004966,1.04018 4.50745,0.57788 L 107.94763,31.089842 c -0.34673,-0.462303 -0.80903,-0.809029 -1.27133,-1.155756 z"
           fill="url(#linearGradient-4)"
           id="path93"
           style="fill:url(#linearGradient-4)" />
      </g>
      <g
         mask="url(#mask-3)"
         id="g113">
        <g
           transform="translate(0,-9.24605)"
           id="g111">
          <path
             d="M 109.79684,100.55079 V 44.265463 c 0,-2.080361 -1.27133,-4.045147 -3.12054,-5.085328 L 57.78781,11.09526 C 57.209932,10.748533 56.632054,10.517382 55.9386,10.401806 l 53.51151,91.420314 c 0.23115,-0.34672 0.34673,-0.80903 0.34673,-1.27133 z"
             fill="none"
             id="path97" />
          <path
             d="M 3.1205418,39.180135 C 1.2713318,40.220316 0,42.185102 0,44.265463 v 56.285327 c 0,2.08036 1.3869074,4.04515 3.1205418,5.08533 l 48.8884872,28.08487 c 1.155757,0.69346 2.427088,0.92461 3.813996,0.69346 L 3.4672686,39.06456 Z"
             fill="none"
             id="path99" />
          <path
             fill="url(#linearGradient-5)"
             fill-rule="evenodd"
             d="M 50.390971,0.80902934 49.697517,1.1557562 h 0.924605 z"
             id="path101"
             style="fill:url(#linearGradient-5)" />
          <path
             d="m 106.79187,105.63612 c 1.38691,-0.80903 2.42709,-2.19594 2.88939,-3.69842 L 56.054176,10.401806 c -1.386907,-0.231151 -2.88939,-0.115576 -4.160722,0.693454 l -48.541761,27.9693 52.355756,95.46546 c 0.693454,-0.11557 1.502483,-0.34672 2.195937,-0.69345 z"
             fill="url(#linearGradient-6)"
             fill-rule="evenodd"
             id="path103"
             style="fill:url(#linearGradient-6)" />
          <path
             fill="url(#linearGradient-7)"
             fill-rule="evenodd"
             d="m 111.29932,104.71151 -0.34672,-0.57788 v 0.80903 z"
             id="path105"
             style="fill:url(#linearGradient-7)" />
          <path
             d="m 106.79187,105.63612 -48.772908,28.08487 c -0.693454,0.34673 -1.386908,0.57788 -2.195937,0.69346 l 0.924605,1.73363 54.08939,-31.32099 v -0.69346 l -1.38691,-2.31151 c -0.23115,1.61806 -1.27133,3.00497 -2.65824,3.814 z"
             fill="url(#linearGradient-8)"
             fill-rule="evenodd"
             id="path107"
             style="fill:url(#linearGradient-8)" />
          <path
             d="m 106.79187,105.63612 -48.772908,28.08487 c -0.693454,0.34673 -1.386908,0.57788 -2.195937,0.69346 l 0.924605,1.73363 54.08939,-31.32099 v -0.69346 l -1.38691,-2.31151 c -0.23115,1.61806 -1.27133,3.00497 -2.65824,3.814 z"
             fill="url(#linearGradient-9)"
             fill-rule="evenodd"
             id="path109"
             style="fill:url(#linearGradient-9)" />
        </g>
      </g>
    </g>
  </g>
</svg>
