<?xml version="1.0" encoding="UTF-8" standalone="no"?>
<svg
   viewBox="0 0 48 48"
   width="48"
   height="48"
   version="1.1"
   id="svg12"
   sodipodi:docname="react-icon.svg"
   inkscape:version="1.2.1 (9c6d41e410, 2022-07-14)"
   xmlns:inkscape="http://www.inkscape.org/namespaces/inkscape"
   xmlns:sodipodi="http://sodipodi.sourceforge.net/DTD/sodipodi-0.dtd"
   xmlns="http://www.w3.org/2000/svg"
   xmlns:svg="http://www.w3.org/2000/svg">
  <defs
     id="defs16" />
  <sodipodi:namedview
     id="namedview14"
     pagecolor="#505050"
     bordercolor="#ffffff"
     borderopacity="1"
     inkscape:showpageshadow="0"
     inkscape:pageopacity="0"
     inkscape:pagecheckerboard="1"
     inkscape:deskcolor="#505050"
     showgrid="false"
     inkscape:zoom="10.4625"
     inkscape:cx="14.958184"
     inkscape:cy="23.799283"
     inkscape:window-width="1920"
     inkscape:window-height="1017"
     inkscape:window-x="-8"
     inkscape:window-y="-8"
     inkscape:window-maximized="1"
     inkscape:current-layer="svg12" />
  <path
     fill="#98ccfd"
     d="m 27.5,23.992605 c 0,1.935795 -1.565,3.501438 -3.5,3.501438 -1.935,0 -3.5,-1.565643 -3.5,-3.501438 0,-1.935795 1.565,-3.501438 3.5,-3.501438 1.935,0 3.5,1.565643 3.5,3.501438 z"
     id="path2"
     style="stroke-width:1.00021" />
  <path
     fill="#4788c7"
     d="m 24,27.994248 c -2.206,0 -4,-1.794737 -4,-4.001643 0,-2.206907 1.794,-4.001644 4,-4.001644 2.206,0 4,1.794737 4,4.001644 0,2.206906 -1.794,4.001643 -4,4.001643 z m 0,-7.002876 c -1.654,0 -3,1.346553 -3,3.001233 0,1.654679 1.346,3.001232 3,3.001232 1.654,0 3,-1.346553 3,-3.001232 0,-1.65468 -1.346,-3.001233 -3,-3.001233 z"
     id="path4"
     style="stroke-width:1.00021" />
  <g
     id="g10"
     transform="matrix(1,0,0,1.0004108,4,3.9843887)">
    <path
       fill="#98ccfd"
       d="m 39.5,20 c 0,-2.796 -2.912,-5.232 -7.492,-6.787 0.576,-2.671 0.655,-5.055 0.166,-6.881 C 31.766,4.81 30.993,3.715 29.878,3.079 29.207,2.697 28.44,2.502 27.599,2.502 25.392,2.502 22.706,3.903 20.002,6.293 17.296,3.902 14.609,2.5 12.4,2.5 11.558,2.5 10.792,2.694 10.121,3.077 9.006,3.714 8.232,4.81 7.825,6.333 7.336,8.159 7.415,10.543 7.99,13.213 3.412,14.768 0.5,17.205 0.5,20 c 0,2.795 2.912,5.232 7.491,6.786 -0.576,2.67 -0.655,5.054 -0.165,6.88 0.407,1.524 1.181,2.619 2.297,3.257 0.671,0.382 1.438,0.577 2.279,0.577 0.001,0 0,0 0.001,0 2.208,0 4.894,-1.401 7.598,-3.793 2.704,2.389 5.39,3.789 7.597,3.79 0.001,0 0.001,0 0.001,0 0.842,0 1.608,-0.194 2.28,-0.577 1.114,-0.636 1.887,-1.731 2.294,-3.253 0.489,-1.826 0.41,-4.21 -0.165,-6.88 C 36.587,25.233 39.5,22.796 39.5,20 Z M 28.888,4.817 c 0.634,0.362 1.09,1.046 1.354,2.033 0.401,1.496 0.322,3.509 -0.158,5.79 -1.596,-0.417 -3.343,-0.734 -5.208,-0.938 -1.11,-1.502 -2.269,-2.855 -3.44,-4.041 2.397,-2.087 4.598,-3.158 6.163,-3.158 0.49,0 0.923,0.106 1.289,0.314 z m -3.104,18.47 c -0.653,1.117 -1.324,2.152 -2.003,3.119 -1.205,0.105 -2.467,0.162 -3.782,0.162 -1.316,0 -2.578,-0.058 -3.784,-0.162 -0.679,-0.967 -1.35,-2.002 -2.003,-3.119 C 13.576,22.197 13,21.096 12.481,20 13,18.905 13.576,17.803 14.213,16.713 c 0.653,-1.117 1.325,-2.152 2.004,-3.12 1.205,-0.105 2.468,-0.162 3.783,-0.162 1.315,0 2.577,0.057 3.781,0.162 0.679,0.968 1.35,2.002 2.003,3.119 0.637,1.09 1.214,2.192 1.733,3.287 -0.519,1.097 -1.096,2.198 -1.733,3.288 z m 2.774,-0.895 c 0.41,1.036 0.756,2.052 1.041,3.035 -0.99,0.258 -2.057,0.478 -3.194,0.655 0.377,-0.582 0.748,-1.174 1.106,-1.787 0.37,-0.632 0.715,-1.267 1.047,-1.903 z M 20,30.983 c -0.729,-0.738 -1.467,-1.556 -2.205,-2.47 0.724,0.034 1.457,0.055 2.205,0.055 0.747,0 1.48,-0.021 2.203,-0.055 -0.737,0.914 -1.474,1.733 -2.203,2.47 z M 13.593,26.082 C 12.457,25.905 11.39,25.685 10.4,25.427 c 0.285,-0.983 0.63,-1.998 1.04,-3.034 0.332,0.635 0.677,1.271 1.046,1.903 0.358,0.612 0.73,1.204 1.107,1.786 z M 11.44,17.607 c -0.41,-1.036 -0.755,-2.051 -1.04,-3.034 0.99,-0.258 2.057,-0.478 3.194,-0.655 -0.377,0.582 -0.749,1.174 -1.107,1.786 -0.37,0.633 -0.715,1.268 -1.047,1.903 z m 8.561,-8.589 c 0.729,0.737 1.466,1.555 2.202,2.469 C 21.48,11.453 20.747,11.432 20,11.432 c -0.747,0 -1.48,0.021 -2.203,0.055 0.737,-0.914 1.475,-1.732 2.204,-2.469 z m 7.51,6.686 c -0.358,-0.613 -0.729,-1.205 -1.106,-1.787 1.137,0.177 2.204,0.397 3.194,0.655 -0.285,0.984 -0.631,1.999 -1.041,3.036 -0.332,-0.635 -0.677,-1.271 -1.047,-1.904 z M 9.757,6.851 C 10.022,5.862 10.478,5.177 11.112,4.814 11.478,4.606 11.911,4.5 12.4,4.5 c 1.567,0 3.768,1.072 6.166,3.161 -1.172,1.187 -2.332,2.539 -3.443,4.042 -1.865,0.204 -3.612,0.522 -5.208,0.939 C 9.435,10.359 9.356,8.346 9.757,6.851 Z M 2.5,20 C 2.5,18.271 4.731,16.434 8.483,15.143 8.935,16.708 9.538,18.342 10.28,20 9.538,21.658 8.935,23.292 8.483,24.857 4.731,23.566 2.5,21.729 2.5,20 Z m 9.901,15.5 c -0.49,0 -0.924,-0.106 -1.288,-0.313 -0.636,-0.363 -1.092,-1.048 -1.356,-2.037 -0.401,-1.496 -0.322,-3.509 0.158,-5.79 1.596,0.417 3.342,0.734 5.207,0.938 1.111,1.503 2.271,2.856 3.444,4.043 -2.398,2.088 -4.599,3.159 -6.165,3.159 z m 17.84,-2.35 c -0.265,0.987 -0.72,1.671 -1.354,2.033 -0.365,0.208 -0.799,0.314 -1.289,0.314 -1.566,0 -3.767,-1.071 -6.164,-3.157 1.172,-1.187 2.331,-2.54 3.441,-4.042 1.865,-0.204 3.611,-0.522 5.207,-0.938 0.481,2.281 0.56,4.294 0.159,5.79 z m 1.274,-8.292 C 31.063,23.293 30.46,21.659 29.718,20 c 0.742,-1.659 1.345,-3.293 1.797,-4.858 3.753,1.291 5.985,3.129 5.985,4.858 0,1.729 -2.232,3.567 -5.985,4.858 z"
       id="path6" />
    <path
       fill="#4788c7"
       d="M 12.402,38 C 11.472,38 10.622,37.784 9.874,37.358 8.637,36.65 7.785,35.452 7.342,33.795 6.87,32.033 6.896,29.731 7.412,27.113 2.694,25.42 0,22.842 0,20 0,17.158 2.694,14.58 7.412,12.886 6.895,10.269 6.87,7.966 7.342,6.204 7.785,4.548 8.637,3.35 9.873,2.643 12.393,1.205 16.051,2.25 20.001,5.631 23.95,2.253 27.605,1.209 30.126,2.645 c 1.235,0.705 2.087,1.902 2.531,3.558 0.472,1.763 0.446,4.066 -0.071,6.683 C 37.305,14.579 40,17.158 40,20 c 0,2.842 -2.695,5.421 -7.414,7.115 0.518,2.617 0.542,4.919 0.07,6.682 -0.443,1.656 -1.294,2.853 -2.529,3.558 C 27.604,38.793 23.946,37.746 20,34.37 17.224,36.747 14.604,38 12.402,38 Z M 12.4,3 C 11.647,3 10.963,3.172 10.369,3.511 9.373,4.081 8.68,5.074 8.309,6.462 7.851,8.169 7.911,10.467 8.48,13.108 l 0.094,0.436 -0.422,0.144 C 3.606,15.23 1,17.531 1,20 c 0,2.469 2.606,4.77 7.151,6.313 l 0.422,0.144 -0.094,0.436 C 7.91,29.534 7.85,31.832 8.308,33.539 8.679,34.928 9.372,35.921 10.37,36.491 10.965,36.828 11.648,37 12.401,37 h 10e-4 c 2.012,0 4.592,-1.302 7.267,-3.667 L 20,33.04 l 0.331,0.293 c 2.674,2.362 5.255,3.664 7.267,3.664 0.754,0 1.438,-0.172 2.034,-0.511 0.994,-0.568 1.687,-1.56 2.058,-2.948 0.458,-1.707 0.398,-4.004 -0.171,-6.645 l -0.094,-0.436 0.422,-0.144 C 36.393,24.771 39,22.469 39,20 39,17.53 36.393,15.229 31.847,13.687 L 31.425,13.543 31.52,13.107 C 32.089,10.466 32.149,8.168 31.691,6.461 31.319,5.072 30.626,4.081 29.63,3.513 29.035,3.174 28.352,3.002 27.599,3.002 c -2.011,0 -4.591,1.302 -7.267,3.666 L 20.001,6.961 19.67,6.668 C 16.994,4.303 14.413,3 12.4,3 Z m 10e-4,33 C 11.824,36 11.307,35.873 10.866,35.621 10.11,35.189 9.574,34.401 9.273,33.279 8.865,31.752 8.918,29.669 9.425,27.257 l 0.108,-0.513 0.507,0.132 c 1.591,0.415 3.317,0.727 5.135,0.925 l 0.217,0.024 0.131,0.175 c 1.073,1.451 2.217,2.793 3.397,3.989 l 0.374,0.379 -0.401,0.35 C 16.464,34.834 14.158,36 12.401,36 Z m -2.098,-8.027 c -0.468,2.04 -0.482,3.777 -0.063,5.047 0.278,0.841 0.605,1.438 1.121,1.732 1.294,0.739 3.813,-0.237 6.473,-2.446 -1.033,-1.08 -2.035,-2.267 -2.984,-3.536 -1.593,-0.182 -3.12,-0.45 -4.547,-0.797 z m 17.296,8.024 c -1.757,0 -4.063,-1.165 -6.491,-3.28 l -0.401,-0.349 0.374,-0.379 c 1.185,-1.202 2.327,-2.543 3.394,-3.988 l 0.13,-0.176 0.218,-0.024 c 1.819,-0.199 3.548,-0.51 5.137,-0.925 l 0.508,-0.132 0.107,0.513 c 0.507,2.414 0.56,4.496 0.151,6.022 -0.301,1.121 -0.836,1.908 -1.589,2.338 -0.444,0.253 -0.961,0.38 -1.538,0.38 z m -5.433,-3.691 c 2.66,2.207 5.171,3.184 6.475,2.443 0.513,-0.292 0.839,-0.889 1.117,-1.728 0.422,-1.271 0.405,-3.008 -0.062,-5.047 -1.427,0.347 -2.954,0.614 -4.549,0.797 -0.943,1.264 -1.944,2.45 -2.981,3.535 z M 20,31.695 19.645,31.335 C 18.872,30.553 18.119,29.71 17.407,28.827 l -0.7,-0.867 1.112,0.053 c 1.431,0.068 2.931,0.068 4.361,0 l 1.111,-0.053 -0.698,0.866 c -0.71,0.879 -1.462,1.723 -2.237,2.507 z m -1.102,-2.641 c 0.359,0.417 0.728,0.822 1.102,1.212 0.374,-0.392 0.741,-0.796 1.101,-1.212 -0.729,0.019 -1.474,0.019 -2.203,0 z M 20,27.068 c -1.284,0 -2.571,-0.055 -3.827,-0.164 l -0.232,-0.02 -0.134,-0.191 C 15.086,25.666 14.405,24.604 13.782,23.539 13.163,22.478 12.573,21.36 12.029,20.214 L 11.927,20 12.029,19.786 c 0.544,-1.146 1.134,-2.265 1.753,-3.325 0.63,-1.078 1.293,-2.109 2.027,-3.155 l 0.134,-0.19 0.232,-0.02 c 2.508,-0.218 5.142,-0.218 7.649,0 l 0.232,0.02 0.134,0.191 c 0.736,1.05 1.399,2.082 2.025,3.154 0.625,1.07 1.215,2.188 1.753,3.326 L 28.069,20 27.968,20.214 c -0.538,1.137 -1.128,2.256 -1.753,3.326 -0.626,1.072 -1.289,2.104 -2.025,3.154 l -0.134,0.191 -0.232,0.02 C 22.57,27.013 21.284,27.068 20,27.068 Z m -3.509,-1.14 c 2.309,0.187 4.71,0.187 7.015,0 0.667,-0.961 1.272,-1.91 1.847,-2.893 0.571,-0.977 1.112,-1.997 1.61,-3.035 -0.498,-1.038 -1.039,-2.058 -1.61,-3.035 -0.574,-0.983 -1.18,-1.932 -1.847,-2.893 -2.306,-0.187 -4.711,-0.187 -7.013,0 -0.665,0.958 -1.271,1.906 -1.849,2.894 -0.565,0.968 -1.107,1.988 -1.61,3.034 0.503,1.045 1.044,2.065 1.61,3.035 0.571,0.975 1.192,1.947 1.847,2.893 z m 8.886,0.821 0.607,-0.938 c 0.373,-0.576 0.74,-1.162 1.095,-1.767 0.366,-0.626 0.707,-1.255 1.035,-1.883 l 0.506,-0.968 0.402,1.016 c 0.405,1.023 0.761,2.06 1.057,3.081 l 0.143,0.494 -0.497,0.129 c -1.017,0.264 -2.107,0.488 -3.243,0.665 z M 28.479,23.6 c -0.174,0.316 -0.353,0.633 -0.537,0.949 -0.168,0.288 -0.34,0.571 -0.513,0.851 0.528,-0.1 1.042,-0.209 1.54,-0.329 -0.15,-0.49 -0.314,-0.981 -0.49,-1.471 z M 14.621,26.749 13.516,26.577 C 12.38,26.4 11.289,26.176 10.275,25.912 L 9.778,25.783 9.921,25.29 c 0.294,-1.017 0.649,-2.053 1.056,-3.08 l 0.402,-1.017 0.506,0.97 c 0.327,0.628 0.668,1.256 1.034,1.882 0.354,0.605 0.722,1.191 1.095,1.767 z m -3.592,-1.68 c 0.496,0.119 1.01,0.229 1.537,0.329 -0.173,-0.279 -0.344,-0.562 -0.512,-0.85 -0.185,-0.315 -0.362,-0.631 -0.536,-0.948 -0.176,0.492 -0.339,0.982 -0.489,1.469 z m 20.151,0.433 -0.146,-0.505 c -0.446,-1.548 -1.043,-3.16 -1.772,-4.792 L 29.17,20 29.262,19.796 c 0.729,-1.63 1.326,-3.243 1.773,-4.792 l 0.146,-0.505 0.498,0.171 C 35.637,16.031 38,18.024 38,20 c 0,1.977 -2.363,3.969 -6.322,5.331 z M 30.265,20 c 0.63,1.427 1.159,2.84 1.579,4.209 C 34.993,23.039 37,21.412 37,20 37,18.588 34.993,16.961 31.844,15.791 31.424,17.162 30.894,18.574 30.265,20 Z M 8.817,25.501 8.32,25.33 C 4.363,23.968 2,21.976 2,20 2,18.024 4.363,16.032 8.32,14.67 l 0.497,-0.171 0.146,0.505 c 0.449,1.554 1.045,3.167 1.772,4.792 L 10.828,20 10.736,20.204 c -0.728,1.625 -1.323,3.238 -1.772,4.792 z M 8.155,15.791 C 5.006,16.962 3,18.589 3,20 3,21.411 5.006,23.038 8.155,24.209 8.576,22.834 9.105,21.422 9.733,20 9.105,18.578 8.576,17.166 8.155,15.791 Z m 3.223,3.018 -0.402,-1.017 C 10.57,16.765 10.214,15.729 9.92,14.712 L 9.777,14.219 10.274,14.09 c 1.016,-0.264 2.106,-0.488 3.242,-0.665 l 1.106,-0.172 -0.61,0.939 c -0.373,0.575 -0.74,1.161 -1.095,1.766 -0.366,0.625 -0.707,1.254 -1.034,1.882 z m -0.349,-3.878 c 0.149,0.487 0.313,0.978 0.489,1.469 0.174,-0.316 0.352,-0.632 0.536,-0.948 0.168,-0.287 0.339,-0.57 0.512,-0.85 -0.527,0.099 -1.041,0.21 -1.537,0.329 z M 28.62,18.809 28.114,17.84 C 27.786,17.211 27.445,16.583 27.079,15.957 26.725,15.352 26.357,14.766 25.984,14.19 l -0.607,-0.938 1.104,0.172 c 1.137,0.177 2.229,0.401 3.243,0.666 l 0.497,0.129 -0.143,0.494 c -0.296,1.02 -0.651,2.057 -1.057,3.081 z m -1.19,-4.208 c 0.173,0.28 0.345,0.563 0.513,0.851 0.185,0.316 0.363,0.632 0.537,0.949 0.176,-0.491 0.34,-0.982 0.49,-1.47 -0.497,-0.12 -1.012,-0.23 -1.54,-0.33 z m 3.035,-1.344 -0.507,-0.132 C 28.371,12.71 26.643,12.399 24.821,12.2 L 24.603,12.176 24.473,12 C 23.403,10.551 22.261,9.209 21.079,8.013 l -0.374,-0.379 0.401,-0.35 c 3.229,-2.811 6.243,-3.919 8.027,-2.901 0.755,0.431 1.29,1.218 1.591,2.338 0.408,1.527 0.355,3.61 -0.152,6.023 z m -5.318,-2.028 c 1.597,0.183 3.123,0.451 4.549,0.798 0.517,-1.907 0.59,-3.595 0.063,-5.048 C 29.457,6.149 29.155,5.544 28.64,5.25 27.342,4.51 24.828,5.486 22.167,7.694 c 1.033,1.081 2.034,2.268 2.98,3.535 z M 9.534,13.257 9.426,12.744 C 8.918,10.331 8.865,8.249 9.274,6.722 9.575,5.599 10.11,4.811 10.865,4.381 c 1.789,-1.02 4.801,0.091 8.03,2.904 l 0.402,0.35 -0.375,0.379 c -1.184,1.197 -2.326,2.539 -3.396,3.987 l -0.13,0.176 -0.218,0.024 c -1.818,0.199 -3.547,0.51 -5.137,0.925 z M 12.4,5 C 11.999,5 11.649,5.083 11.359,5.249 10.845,5.542 10.585,6.165 10.24,6.98 9.7,8.255 9.791,9.991 10.303,12.027 11.731,11.68 13.257,11.412 14.852,11.229 15.798,9.962 16.8,8.776 17.835,7.695 15.766,5.977 13.803,5 12.4,5 Z m 4.309,7.039 0.699,-0.866 c 0.71,-0.88 1.463,-1.723 2.237,-2.507 L 20,8.306 l 0.355,0.36 c 0.777,0.787 1.529,1.63 2.236,2.506 l 0.697,0.866 -1.11,-0.052 c -1.43,-0.067 -2.93,-0.067 -4.359,0 z M 20,10.932 c 0.37,0 0.737,0.005 1.101,0.014 -0.357,-0.415 -0.726,-0.819 -1.1,-1.211 -0.374,0.391 -0.742,0.795 -1.101,1.211 0.364,-0.009 0.73,-0.014 1.1,-0.014 z"
       id="path8" />
  </g>
</svg>
