<?xml version="1.0" encoding="UTF-8" standalone="no"?>
<svg
   viewBox="0 0 48 48"
   width="48px"
   height="48px"
   version="1.1"
   id="svg4"
   sodipodi:docname="sass-icon.svg"
   inkscape:version="1.2.1 (9c6d41e410, 2022-07-14)"
   xmlns:inkscape="http://www.inkscape.org/namespaces/inkscape"
   xmlns:sodipodi="http://sodipodi.sourceforge.net/DTD/sodipodi-0.dtd"
   xmlns="http://www.w3.org/2000/svg"
   xmlns:svg="http://www.w3.org/2000/svg">
  <defs
     id="defs8" />
  <sodipodi:namedview
     id="namedview6"
     pagecolor="#505050"
     bordercolor="#ffffff"
     borderopacity="1"
     inkscape:showpageshadow="0"
     inkscape:pageopacity="0"
     inkscape:pagecheckerboard="1"
     inkscape:deskcolor="#505050"
     showgrid="false"
     inkscape:zoom="6.1650873"
     inkscape:cx="-31.873028"
     inkscape:cy="24.654963"
     inkscape:window-width="1920"
     inkscape:window-height="1017"
     inkscape:window-x="-8"
     inkscape:window-y="-8"
     inkscape:window-maximized="1"
     inkscape:current-layer="svg4" />
  <path
     fill="#f06292"
     d="m 37.702888,26.242961 c -1.328251,0.0073 -2.478596,0.34292 -3.442398,0.844111 -0.352358,-0.741326 -0.709897,-1.39351 -0.769487,-1.878329 -0.06996,-0.565772 -0.151134,-0.904143 -0.0665,-1.578159 0.08464,-0.674016 0.455129,-1.629098 0.449946,-1.700956 -0.0051,-0.07185 -0.08291,-0.41478 -0.84894,-0.421145 -0.766032,-0.0054 -1.421521,0.155541 -1.498383,0.368387 -0.07686,0.212848 -0.224542,0.692208 -0.316087,1.192491 -0.133861,0.731317 -1.529473,3.340968 -2.321415,4.70537 -0.259087,-0.533026 -0.47931,-1.002382 -0.525082,-1.373499 -0.06996,-0.565774 -0.151134,-0.904146 -0.0665,-1.578159 0.08464,-0.674017 0.455128,-1.629098 0.449947,-1.700957 -0.0051,-0.07185 -0.08291,-0.414778 -0.84894,-0.421146 -0.766034,-0.0054 -1.421522,0.155543 -1.498385,0.368391 -0.07686,0.212845 -0.15977,0.710399 -0.316085,1.192487 -0.15718,0.481177 -2.011376,4.833626 -2.497595,5.962442 -0.24786,0.574869 -0.462902,1.036946 -0.614899,1.351669 -8.64e-4,-9.1e-4 -8.64e-4,-0.0018 -8.64e-4,-0.0018 0,0 -0.0095,0.0209 -0.02504,0.05639 -0.130407,0.268333 -0.207269,0.416597 -0.207269,0.416597 0,0 8.63e-4,0.0018 0.0026,0.0054 -0.10364,0.197385 -0.214179,0.380213 -0.268587,0.380213 -0.038,0 -0.114862,-0.52484 0.01641,-1.245245 0.276359,-1.509941 0.938757,-3.863989 0.932711,-3.945854 -0.0034,-0.04183 0.123499,-0.452073 -0.432674,-0.666738 -0.540628,-0.208298 -0.733216,0.139169 -0.782442,0.140078 -0.0475,9.1e-4 -0.08291,0.122796 -0.08291,0.122796 0,0 0.601944,-2.647851 -1.148618,-2.647851 -1.095072,0 -2.611593,1.261619 -3.358625,2.404988 -0.471538,0.271061 -1.481112,0.851387 -2.55114,1.470826 -0.411085,0.238316 -0.830804,0.48118 -1.228934,0.71222 -0.02677,-0.03183 -0.05441,-0.06277 -0.08204,-0.0946 -2.123646,-2.385887 -6.0479442,-4.073199 -5.8821287,-7.281365 0.060453,-1.16611 0.4456289,-4.236927 7.5420107,-7.96084 5.813039,-3.050803 10.467099,-2.211242 11.271131,-0.351105 1.148617,2.658766 -2.487232,7.598816 -8.523949,8.311945 -2.299825,0.271971 -3.511487,-0.667648 -3.812891,-1.016937 -0.31695,-0.368388 -0.364449,-0.384761 -0.482765,-0.315631 -0.192588,0.112788 -0.07082,0.437519 0,0.631263 0.180497,0.493916 0.919757,1.369863 2.180645,1.806471 1.109755,0.383852 3.8103,0.593971 7.075656,-0.736778 3.658302,-1.48993 6.5143,-5.635895 5.67486,-9.10057 C 27.943959,9.1460289 22.396051,7.987196 17.14523,9.9519366 14.016327,11.121685 10.63352,12.957261 8.2006965,15.353153 c -2.89227,2.848874 -3.3534442,5.32936 -3.1634474,6.365397 0.6753525,3.68207 5.4934999,6.07978 7.4228319,7.856235 -0.095,0.05549 -0.184816,0.107332 -0.265996,0.154632 -0.967257,0.50392 -4.6402413,2.528693 -5.5591351,4.667168 -1.0423918,2.425908 0.1658153,4.166889 0.9655294,4.401566 2.4777317,0.725861 5.0202337,-0.580328 6.3873487,-2.726988 1.366249,-2.145751 1.199571,-4.940959 0.572581,-6.216222 -0.0078,-0.01547 -0.01641,-0.03092 -0.02419,-0.0473 0.249587,-0.155541 0.504355,-0.313812 0.756533,-0.470263 0.492264,-0.304718 0.975893,-0.588514 1.394749,-0.828649 -0.234904,0.676746 -0.406765,1.489019 -0.495719,2.661496 -0.105361,1.377138 0.430947,3.15723 1.132209,3.857623 0.309177,0.308357 0.680533,0.315632 0.915438,0.315632 0.816123,0 1.188345,-0.714947 1.598565,-1.560876 0.502628,-1.036947 0.949121,-2.244899 0.949121,-2.244899 0,0 -0.559628,3.261834 0.965529,3.261834 0.556173,0 1.114937,-0.759519 1.364523,-1.146098 8.63e-4,0.0046 8.63e-4,0.0064 8.63e-4,0.0064 0,0 0.01469,-0.02548 0.04319,-0.07549 0.05786,-0.09278 0.09069,-0.151904 0.09069,-0.151904 0,0 8.62e-4,-0.0064 0.0026,-0.01728 0.223676,-0.40841 0.719397,-1.339845 1.46211,-2.876163 0.960349,-1.984751 1.88097,-4.471605 1.88097,-4.471605 0,0 0.0855,0.607616 0.366175,1.613634 0.164953,0.591242 0.515583,1.245247 0.792805,1.872871 -0.222814,0.325639 -0.359266,0.512109 -0.359266,0.512109 0,0 8.63e-4,0.0035 0.0034,0.01 -0.177907,0.24923 -0.377403,0.517561 -0.586399,0.779527 -0.758261,0.950534 -1.660746,2.0366 -1.781653,2.349504 -0.142497,0.369298 -0.108814,0.64036 0.166679,0.859574 0.201224,0.15918 0.558764,0.184647 0.932711,0.15827 0.681398,-0.04821 1.159845,-0.22649 1.396478,-0.334734 0.368766,-0.13735 0.797986,-0.352927 1.200434,-0.664918 0.74358,-0.57578 1.191799,-1.398969 1.148618,-2.490492 -0.02419,-0.601246 -0.205543,-1.197036 -0.436129,-1.759171 0.06735,-0.101871 0.134725,-0.205568 0.202952,-0.309266 1.171934,-1.804649 2.081328,-3.787582 2.081328,-3.787582 0,0 0.0855,0.607615 0.366175,1.613635 0.141635,0.508467 0.422312,1.064234 0.674489,1.608175 -1.101982,0.943259 -1.785106,2.039328 -2.022602,2.757915 -0.43872,1.329838 -0.095,1.931996 0.549263,2.069344 0.291904,0.06185 0.704715,-0.07912 1.014756,-0.217393 0.386039,-0.134622 0.849804,-0.359295 1.283341,-0.694937 0.743581,-0.57578 1.458659,-1.381686 1.415479,-2.472298 -0.01987,-0.496643 -0.14768,-0.989648 -0.321269,-1.462641 0.934439,-0.410231 2.143511,-0.637632 3.684211,-0.448433 3.305082,0.406591 3.952799,2.57963 3.8293,3.489232 -0.124361,0.909603 -0.816986,1.409884 -1.049301,1.56088 -0.23145,0.150993 -0.302266,0.203749 -0.283267,0.31563 0.0285,0.16282 0.135589,0.157362 0.333358,0.121887 0.272041,-0.04821 1.735017,-0.739506 1.798061,-2.418632 0.07859,-2.133927 -1.860242,-4.475242 -5.294865,-4.456142 z M 12.22863,35.288046 c -1.095073,1.257978 -2.6236841,1.732791 -3.2800368,1.332568 -0.70817,-0.432063 -0.4274929,-2.284012 0.9154393,-3.619309 0.8187135,-0.813184 1.8757865,-1.562696 2.5770485,-2.023867 0.15977,-0.100971 0.393811,-0.249229 0.678806,-0.429331 0.0475,-0.0282 0.07427,-0.04366 0.07427,-0.04366 l -8.64e-4,-0.0018 c 0.05527,-0.03455 0.111408,-0.07004 0.169271,-0.107331 0.489673,1.900158 0.01554,3.572916 -1.133936,4.892752 z m 7.975548,-5.709574 c -0.380856,0.978734 -1.178843,3.483777 -1.665062,3.349157 -0.417131,-0.115528 -0.671035,-2.019319 -0.08291,-3.893099 0.295359,-0.943257 0.927531,-2.070255 1.298887,-2.507772 0.597627,-0.704034 1.255707,-0.934163 1.415477,-0.648546 0.202951,0.36384 -0.727169,3.086279 -0.966394,3.70026 z m 6.588572,3.310953 c -0.161496,0.08913 -0.310039,0.144626 -0.378265,0.101872 -0.05095,-0.03184 0.0665,-0.149175 0.0665,-0.149175 0,0 0.823895,-0.934163 1.148616,-1.358946 0.189135,-0.247413 0.40763,-0.541214 0.64599,-0.86867 0.0017,0.03274 0.0026,0.0655 0.0026,0.09733 -0.0017,1.118813 -1.02771,1.873782 -1.48543,2.17759 z m 5.075507,-1.218868 c -0.120907,-0.09005 -0.100175,-0.382034 0.296222,-1.292545 0.155452,-0.357474 0.511264,-0.958719 1.127891,-1.533588 0.07169,0.236495 0.114861,0.462987 0.113998,0.674015 -0.0078,1.408064 -0.961211,1.933814 -1.538111,2.152118 z"
     id="path2"
     style="stroke-width:0.886313" />
</svg>
