<?xml version="1.0" encoding="UTF-8" standalone="no"?>
<svg
   width="48"
   height="48"
   viewBox="0 0 48 48"
   version="1.1"
   preserveAspectRatio="xMidYMid"
   id="svg8"
   sodipodi:docname="symfony-icon.svg"
   inkscape:version="1.2.1 (9c6d41e410, 2022-07-14)"
   xmlns:inkscape="http://www.inkscape.org/namespaces/inkscape"
   xmlns:sodipodi="http://sodipodi.sourceforge.net/DTD/sodipodi-0.dtd"
   xmlns="http://www.w3.org/2000/svg"
   xmlns:svg="http://www.w3.org/2000/svg">
  <defs
     id="defs12" />
  <sodipodi:namedview
     id="namedview10"
     pagecolor="#505050"
     bordercolor="#ffffff"
     borderopacity="1"
     inkscape:showpageshadow="0"
     inkscape:pageopacity="0"
     inkscape:pagecheckerboard="1"
     inkscape:deskcolor="#505050"
     showgrid="false"
     inkscape:zoom="2.302912"
     inkscape:cx="-54.496221"
     inkscape:cy="10.855821"
     inkscape:window-width="1920"
     inkscape:window-height="1017"
     inkscape:window-x="-8"
     inkscape:window-y="-8"
     inkscape:window-maximized="1"
     inkscape:current-layer="g6" />
  <g
     id="g6"
     transform="matrix(0.1328125,0,0,0.1328125,0,0.71722662)">
    <circle
       fill="#1a171b"
       cx="180.70589"
       cy="175.30559"
       r="127.62463"
       id="circle2"
       style="stroke:#ffffff;stroke-width:0.750733;stroke-dasharray:none;stroke-opacity:1" />
    <path
       d="m 236.24813,94.839238 c -12.94703,0.451595 -24.24868,7.586792 -32.66013,17.459052 -9.31463,10.82257 -15.5113,23.65964 -19.9762,36.76375 -7.98734,-6.54617 -14.14865,-15.02044 -26.96217,-18.71567 -9.90368,-2.84308 -20.30607,-1.66893 -29.87202,5.45841 -4.53166,3.385 -7.65356,8.50177 -9.13793,13.31223 -3.84445,12.49936 4.04079,23.6243 7.62214,27.61798 l 7.83026,8.3918 c 1.61396,1.64537 5.5016,5.93749 3.60098,12.09096 -2.05378,6.69146 -10.11965,11.02284 -18.39366,8.47035 -3.69522,-1.12703 -9.00441,-3.87979 -7.81455,-7.75565 0.49086,-1.58647 1.62574,-2.7724 2.23441,-4.14289 0.55762,-1.17807 0.82465,-2.06163 0.99351,-2.57998 1.51186,-4.93613 -0.5537,-11.35664 -5.83932,-12.9863 -4.9322,-1.51186 -9.978282,-0.31415 -11.933884,6.03567 -2.218705,7.21373 1.23305,20.30605 19.724874,26.00793 21.66478,6.65612 39.99168,-5.14033 42.5913,-20.52597 1.63751,-9.63663 -2.7135,-16.7954 -10.68514,-26.00401 l -6.49511,-7.18232 c -3.93476,-3.93084 -5.28562,-10.63015 -1.21341,-15.77833 3.43604,-4.34316 8.32897,-6.19667 16.34381,-4.01723 11.69827,3.17687 16.9132,11.29379 25.61524,17.83996 -3.59312,11.78466 -5.94142,23.61252 -8.06588,34.21911 l -1.29588,7.9088 c -6.22022,32.62478 -10.96786,50.53935 -23.30622,60.82393 -2.48574,1.76711 -6.03959,4.41386 -11.3959,4.59842 -2.80774,0.0863 -3.71486,-1.84564 -3.75413,-2.686 -0.0667,-1.97132 1.59433,-2.87451 2.69779,-3.76199 1.6493,-0.89926 4.14289,-2.39148 3.97404,-7.17054 -0.18064,-5.6469 -4.85759,-10.54376 -11.61974,-10.31993 -5.06571,0.17279 -12.78602,4.94006 -12.49543,13.66566 0.30237,9.01226 8.70204,15.76655 21.36633,15.33852 6.76999,-0.23169 21.88861,-2.98838 36.78731,-20.69875 17.34124,-20.30214 22.19098,-43.57695 25.83908,-60.61189 l 4.07221,-22.48942 c 2.2619,0.27096 4.68087,0.45159 7.3119,0.51442 21.59802,0.45553 32.40096,-10.73225 32.56196,-18.86881 0.10603,-4.92435 -3.23185,-9.77015 -7.90488,-9.6602 -3.34573,0.0942 -7.54752,2.3208 -8.55673,6.94671 -0.98566,4.5395 6.87209,8.63528 0.7304,12.61324 -4.3628,2.82344 -12.18521,4.81439 -23.20019,3.1965 l 2.00272,-11.06996 c 4.08791,-20.99327 9.13007,-46.81664 28.25806,-47.444949 1.39406,-0.07068 6.49511,0.06283 6.61292,3.436049 0.0353,1.12702 -0.24347,1.41369 -1.56291,3.99367 -1.34301,2.01058 -1.84958,3.72271 -1.78674,5.69009 0.18456,5.36024 4.2607,8.88268 10.15499,8.67062 7.8931,-0.25525 10.16285,-7.94021 10.03326,-11.88676 -0.31808,-9.27144 -10.09217,-15.130388 -23.03134,-14.706282 z"
       fill="#ffffff"
       id="path4"
       style="stroke-width:0.997067" />
  </g>
</svg>
